<svg xmlns="http://www.w3.org/2000/svg" xmlns:xlink="http://www.w3.org/1999/xlink" contentStyleType="text/css" data-diagram-type="SEQUENCE" height="769px" preserveAspectRatio="none" style="width:1399px;height:769px;background:#FFFFFF;" version="1.1" viewBox="0 0 1399 769" width="1399px" zoomAndPan="magnify"><title>Modificaci&#243;n de Proveedor (Droguer&#237;a)</title><defs/><g><text fill="#000000" font-family="sans-serif" font-size="14" font-weight="bold" lengthAdjust="spacing" textLength="306.8447" x="547.3303" y="27.9951">Modificaci&#243;n de Proveedor (Droguer&#237;a)</text><g><title>NegocioControlador. Interfaz</title><rect fill="#FFFFFF" height="603.1328" style="stroke:#181818;stroke-width:1;" width="10" x="851.7441" y="149.7266"/></g><g><title>List.Drogueria.. droguerias</title><rect fill="#FFFFFF" height="157.6641" style="stroke:#181818;stroke-width:1;" width="10" x="1100.6523" y="178.8594"/></g><g><title>List.Drogueria.. droguerias</title><rect fill="#FFFFFF" height="157.6641" style="stroke:#181818;stroke-width:1;" width="10" x="1100.6523" y="425.7266"/></g><g><title>Drogueria. objDrog</title><rect fill="#FFFFFF" height="29.1328" style="stroke:#181818;stroke-width:1;" width="10" x="1293.4072" y="232.125"/></g><g><title>Drogueria. objDrog</title><rect fill="#FFFFFF" height="29.1328" style="stroke:#181818;stroke-width:1;" width="10" x="1293.4072" y="478.9922"/></g><g><title>Drogueria. objDrog</title><rect fill="#FFFFFF" height="29.1328" style="stroke:#181818;stroke-width:1;" width="10" x="1293.4072" y="672.5938"/></g><rect fill="none" height="135.6641" style="stroke:#000000;stroke-width:1.5;" width="653.8989" x="728.6064" y="193.8594"/><rect fill="none" height="46.2656" style="stroke:#000000;stroke-width:1.5;" width="484.9956" x="738.6064" y="276.2578"/><rect fill="none" height="402.3359" style="stroke:#000000;stroke-width:1.5;" width="1382.5054" x="10" y="343.5234"/><rect fill="none" height="135.6641" style="stroke:#000000;stroke-width:1.5;" width="653.8989" x="728.6064" y="440.7266"/><rect fill="none" height="46.2656" style="stroke:#000000;stroke-width:1.5;" width="484.9956" x="738.6064" y="523.125"/><rect fill="none" height="148.4688" style="stroke:#000000;stroke-width:1.5;" width="1362.5054" x="20" y="590.3906"/><g><title>Administrador. Admin</title><rect fill="#000000" fill-opacity="0.00000" height="644.2656" width="8" x="105.5557" y="118.5938"/><line style="stroke:#181818;stroke-width:0.5;stroke-dasharray:5,5;" x1="109" x2="109" y1="118.5938" y2="762.8594"/></g><g><title>NegocioControlador. Interfaz</title><rect fill="#000000" fill-opacity="0.00000" height="644.2656" width="8" x="852.7441" y="118.5938"/><line style="stroke:#181818;stroke-width:0.5;stroke-dasharray:5,5;" x1="856.6064" x2="856.6064" y1="118.5938" y2="762.8594"/></g><g><title>List.Drogueria.. droguerias</title><rect fill="#000000" fill-opacity="0.00000" height="644.2656" width="8" x="1101.6523" y="118.5938"/><line style="stroke:#181818;stroke-width:0.5;stroke-dasharray:5,5;" x1="1104.7026" x2="1104.7026" y1="118.5938" y2="762.8594"/></g><g><title>Drogueria. objDrog</title><rect fill="#000000" fill-opacity="0.00000" height="644.2656" width="8" x="1294.4072" y="118.5938"/><line style="stroke:#181818;stroke-width:0.5;stroke-dasharray:5,5;" x1="1298.3091" x2="1298.3091" y1="118.5938" y2="762.8594"/></g><g class="participant participant-head" data-participant="admin"><text fill="#000000" font-family="sans-serif" font-size="14" lengthAdjust="spacing" textLength="153.1113" x="30" y="115.292">Administrador: Admin</text><ellipse cx="109.5557" cy="50.7969" fill="#E2E2F0" rx="8" ry="8" style="stroke:#181818;stroke-width:0.5;"/><path d="M109.5557,58.7969 L109.5557,85.7969 M96.5557,66.7969 L122.5557,66.7969 M109.5557,85.7969 L96.5557,100.7969 M109.5557,85.7969 L122.5557,100.7969" fill="none" style="stroke:#181818;stroke-width:0.5;"/></g><g class="participant participant-head" data-participant="NegCtrl"><rect fill="#E2E2F0" height="30.2969" rx="2.5" ry="2.5" style="stroke:#181818;stroke-width:0.5;" width="216.2754" x="748.6064" y="87.2969"/><text fill="#000000" font-family="sans-serif" font-size="14" lengthAdjust="spacing" textLength="202.2754" x="755.6064" y="107.292">NegocioControlador: Interfaz</text></g><g class="participant participant-head" data-participant="listaDrogs"><rect fill="#E2E2F0" height="30.2969" rx="2.5" ry="2.5" style="stroke:#181818;stroke-width:0.5;" width="215.8994" x="997.7026" y="87.2969"/><text fill="#000000" font-family="sans-serif" font-size="14" lengthAdjust="spacing" textLength="201.8994" x="1004.7026" y="107.292">List&lt;Drogueria&gt;: droguerias</text></g><g class="participant participant-head" data-participant="drog"><rect fill="#E2E2F0" height="30.2969" rx="2.5" ry="2.5" style="stroke:#181818;stroke-width:0.5;" width="148.1963" x="1224.3091" y="87.2969"/><text fill="#000000" font-family="sans-serif" font-size="14" lengthAdjust="spacing" textLength="134.1963" x="1231.3091" y="107.292">Drogueria: objDrog</text></g><g><title>NegocioControlador. Interfaz</title><rect fill="#FFFFFF" height="603.1328" style="stroke:#181818;stroke-width:1;" width="10" x="851.7441" y="149.7266"/></g><g><title>List.Drogueria.. droguerias</title><rect fill="#FFFFFF" height="157.6641" style="stroke:#181818;stroke-width:1;" width="10" x="1100.6523" y="178.8594"/></g><g><title>List.Drogueria.. droguerias</title><rect fill="#FFFFFF" height="157.6641" style="stroke:#181818;stroke-width:1;" width="10" x="1100.6523" y="425.7266"/></g><g><title>Drogueria. objDrog</title><rect fill="#FFFFFF" height="29.1328" style="stroke:#181818;stroke-width:1;" width="10" x="1293.4072" y="232.125"/></g><g><title>Drogueria. objDrog</title><rect fill="#FFFFFF" height="29.1328" style="stroke:#181818;stroke-width:1;" width="10" x="1293.4072" y="478.9922"/></g><g><title>Drogueria. objDrog</title><rect fill="#FFFFFF" height="29.1328" style="stroke:#181818;stroke-width:1;" width="10" x="1293.4072" y="672.5938"/></g><g class="message" data-participant-1="admin" data-participant-2="NegCtrl"><polygon fill="#181818" points="839.7441,145.7266,849.7441,149.7266,839.7441,153.7266,843.7441,149.7266" style="stroke:#181818;stroke-width:1;"/><line style="stroke:#181818;stroke-width:1;" x1="109.5557" x2="845.7441" y1="149.7266" y2="149.7266"/><text fill="#000000" font-family="sans-serif" font-size="13" lengthAdjust="spacing" textLength="723.1885" x="116.5557" y="144.6606">modificarDrogueria(nombreOriginal: String, nuevoNombre: String, email: String, telefono: String, canal: String)</text></g><g class="message" data-participant-1="NegCtrl" data-participant-2="listaDrogs"><polygon fill="#181818" points="1088.6523,174.8594,1098.6523,178.8594,1088.6523,182.8594,1092.6523,178.8594" style="stroke:#181818;stroke-width:1;"/><line style="stroke:#181818;stroke-width:1;" x1="861.7441" x2="1094.6523" y1="178.8594" y2="178.8594"/><text fill="#000000" font-family="sans-serif" font-size="13" lengthAdjust="spacing" textLength="219.9082" x="868.7441" y="173.7935">buscarDrogueria(nombreOriginal)</text></g><path d="M728.6064,193.8594 L805.2305,193.8594 L805.2305,200.9922 L795.2305,210.9922 L728.6064,210.9922 L728.6064,193.8594" fill="#EEEEEE" style="stroke:#000000;stroke-width:1.5;"/><rect fill="none" height="135.6641" style="stroke:#000000;stroke-width:1.5;" width="653.8989" x="728.6064" y="193.8594"/><text fill="#000000" font-family="sans-serif" font-size="13" font-weight="bold" lengthAdjust="spacing" textLength="31.624" x="743.6064" y="206.9263">loop</text><a href="para" target="_top" title="para" xlink:actuate="onRequest" xlink:href="para" xlink:show="new" xlink:title="para" xlink:type="simple"><text fill="#0000FF" font-family="sans-serif" font-size="11" font-weight="bold" lengthAdjust="spacing" text-decoration="underline" textLength="131.0815" x="820.2305" y="206.0698">cada d en droguerias</text></a><g class="message" data-participant-1="listaDrogs" data-participant-2="drog"><polygon fill="#181818" points="1281.4072,228.125,1291.4072,232.125,1281.4072,236.125,1285.4072,232.125" style="stroke:#181818;stroke-width:1;"/><line style="stroke:#181818;stroke-width:1;" x1="1110.6523" x2="1287.4072" y1="232.125" y2="232.125"/><text fill="#000000" font-family="sans-serif" font-size="13" lengthAdjust="spacing" textLength="83.4272" x="1117.6523" y="227.0591">getNombre()</text></g><g class="message" data-participant-1="drog" data-participant-2="listaDrogs"><polygon fill="#181818" points="1121.6523,257.2578,1111.6523,261.2578,1121.6523,265.2578,1117.6523,261.2578" style="stroke:#181818;stroke-width:1;"/><line style="stroke:#181818;stroke-width:1;stroke-dasharray:2,2;" x1="1115.6523" x2="1297.4072" y1="261.2578" y2="261.2578"/><text fill="#000000" font-family="sans-serif" font-size="13" lengthAdjust="spacing" textLength="158.7549" x="1127.6523" y="256.1919">&#171;nombreActual : String&#187;</text></g><path d="M738.6064,276.2578 L803.0493,276.2578 L803.0493,283.3906 L793.0493,293.3906 L738.6064,293.3906 L738.6064,276.2578" fill="#EEEEEE" style="stroke:#000000;stroke-width:1.5;"/><rect fill="none" height="46.2656" style="stroke:#000000;stroke-width:1.5;" width="484.9956" x="738.6064" y="276.2578"/><text fill="#000000" font-family="sans-serif" font-size="13" font-weight="bold" lengthAdjust="spacing" textLength="19.4429" x="753.6064" y="289.3247">alt</text><text fill="#000000" font-family="sans-serif" font-size="11" font-weight="bold" lengthAdjust="spacing" textLength="219.8979" x="818.0493" y="288.4683">[nombreOriginal == nombreActual]</text><g class="message" data-participant-1="listaDrogs" data-participant-2="NegCtrl"><polygon fill="#181818" points="872.7441,310.5234,862.7441,314.5234,872.7441,318.5234,868.7441,314.5234" style="stroke:#181818;stroke-width:1;"/><line style="stroke:#181818;stroke-width:1;stroke-dasharray:2,2;" x1="866.7441" x2="1099.6523" y1="314.5234" y2="314.5234"/><text fill="#000000" font-family="sans-serif" font-size="13" lengthAdjust="spacing" textLength="203.6138" x="878.7441" y="309.4575">&#171;drogueriaAEditar : Drogueria&#187;</text></g><path d="M10,343.5234 L74.4429,343.5234 L74.4429,350.6563 L64.4429,360.6563 L10,360.6563 L10,343.5234" fill="#EEEEEE" style="stroke:#000000;stroke-width:1.5;"/><rect fill="none" height="402.3359" style="stroke:#000000;stroke-width:1.5;" width="1382.5054" x="10" y="343.5234"/><text fill="#000000" font-family="sans-serif" font-size="13" font-weight="bold" lengthAdjust="spacing" textLength="19.4429" x="25" y="356.5903">alt</text><text fill="#000000" font-family="sans-serif" font-size="11" font-weight="bold" lengthAdjust="spacing" textLength="210.1226" x="89.4429" y="355.7339">[drogueriaAEditar no encontrada]</text><g class="message" data-participant-1="NegCtrl" data-participant-2="admin"><polygon fill="#181818" points="120.5557,377.7891,110.5557,381.7891,120.5557,385.7891,116.5557,381.7891" style="stroke:#181818;stroke-width:1;"/><line style="stroke:#181818;stroke-width:1;stroke-dasharray:2,2;" x1="114.5557" x2="850.7441" y1="381.7891" y2="381.7891"/><text fill="#000000" font-family="sans-serif" font-size="13" lengthAdjust="spacing" textLength="186.6274" x="126.5557" y="376.7231">&#171;Error: Proveedor no existe&#187;</text></g><line style="stroke:#000000;stroke-width:1;stroke-dasharray:2,2;" x1="10" x2="1392.5054" y1="390.7891" y2="390.7891"/><text fill="#000000" font-family="sans-serif" font-size="11" font-weight="bold" lengthAdjust="spacing" textLength="148.4248" x="15" y="400.9995">[proveedor encontrado]</text><g class="message" data-participant-1="NegCtrl" data-participant-2="listaDrogs"><polygon fill="#181818" points="1088.6523,421.7266,1098.6523,425.7266,1088.6523,429.7266,1092.6523,425.7266" style="stroke:#181818;stroke-width:1;"/><line style="stroke:#181818;stroke-width:1;" x1="861.7441" x2="1094.6523" y1="425.7266" y2="425.7266"/><text fill="#000000" font-family="sans-serif" font-size="13" lengthAdjust="spacing" textLength="218.4673" x="868.7441" y="420.6606">validarDuplicados(nuevoNombre)</text></g><path d="M728.6064,440.7266 L805.2305,440.7266 L805.2305,447.8594 L795.2305,457.8594 L728.6064,457.8594 L728.6064,440.7266" fill="#EEEEEE" style="stroke:#000000;stroke-width:1.5;"/><rect fill="none" height="135.6641" style="stroke:#000000;stroke-width:1.5;" width="653.8989" x="728.6064" y="440.7266"/><text fill="#000000" font-family="sans-serif" font-size="13" font-weight="bold" lengthAdjust="spacing" textLength="31.624" x="743.6064" y="453.7935">loop</text><a href="para" target="_top" title="para" xlink:actuate="onRequest" xlink:href="para" xlink:show="new" xlink:title="para" xlink:type="simple"><text fill="#0000FF" font-family="sans-serif" font-size="11" font-weight="bold" lengthAdjust="spacing" text-decoration="underline" textLength="131.0815" x="820.2305" y="452.937">cada d en droguerias</text></a><g class="message" data-participant-1="listaDrogs" data-participant-2="drog"><polygon fill="#181818" points="1281.4072,474.9922,1291.4072,478.9922,1281.4072,482.9922,1285.4072,478.9922" style="stroke:#181818;stroke-width:1;"/><line style="stroke:#181818;stroke-width:1;" x1="1110.6523" x2="1287.4072" y1="478.9922" y2="478.9922"/><text fill="#000000" font-family="sans-serif" font-size="13" lengthAdjust="spacing" textLength="83.4272" x="1117.6523" y="473.9263">getNombre()</text></g><g class="message" data-participant-1="drog" data-participant-2="listaDrogs"><polygon fill="#181818" points="1121.6523,504.125,1111.6523,508.125,1121.6523,512.125,1117.6523,508.125" style="stroke:#181818;stroke-width:1;"/><line style="stroke:#181818;stroke-width:1;stroke-dasharray:2,2;" x1="1115.6523" x2="1297.4072" y1="508.125" y2="508.125"/><text fill="#000000" font-family="sans-serif" font-size="13" lengthAdjust="spacing" textLength="157.79" x="1127.6523" y="503.0591">&#171;nombreCheck : String&#187;</text></g><path d="M738.6064,523.125 L803.0493,523.125 L803.0493,530.2578 L793.0493,540.2578 L738.6064,540.2578 L738.6064,523.125" fill="#EEEEEE" style="stroke:#000000;stroke-width:1.5;"/><rect fill="none" height="46.2656" style="stroke:#000000;stroke-width:1.5;" width="484.9956" x="738.6064" y="523.125"/><text fill="#000000" font-family="sans-serif" font-size="13" font-weight="bold" lengthAdjust="spacing" textLength="19.4429" x="753.6064" y="536.1919">alt</text><text fill="#000000" font-family="sans-serif" font-size="11" font-weight="bold" lengthAdjust="spacing" textLength="398.5942" x="818.0493" y="535.3354">[(nombreCheck == nuevoNombre) AND (d != drogueriaAEditar)]</text><g class="message" data-participant-1="listaDrogs" data-participant-2="NegCtrl"><polygon fill="#181818" points="872.7441,557.3906,862.7441,561.3906,872.7441,565.3906,868.7441,561.3906" style="stroke:#181818;stroke-width:1;"/><line style="stroke:#181818;stroke-width:1;stroke-dasharray:2,2;" x1="866.7441" x2="1099.6523" y1="561.3906" y2="561.3906"/><text fill="#000000" font-family="sans-serif" font-size="13" lengthAdjust="spacing" textLength="192.1436" x="878.7441" y="556.3247">&#171;DUPLICADO_ENCONTRADO&#187;</text></g><path d="M20,590.3906 L84.4429,590.3906 L84.4429,597.5234 L74.4429,607.5234 L20,607.5234 L20,590.3906" fill="#EEEEEE" style="stroke:#000000;stroke-width:1.5;"/><rect fill="none" height="148.4688" style="stroke:#000000;stroke-width:1.5;" width="1362.5054" x="20" y="590.3906"/><text fill="#000000" font-family="sans-serif" font-size="13" font-weight="bold" lengthAdjust="spacing" textLength="19.4429" x="35" y="603.4575">alt</text><text fill="#000000" font-family="sans-serif" font-size="11" font-weight="bold" lengthAdjust="spacing" textLength="115.5859" x="99.4429" y="602.6011">[datos duplicados]</text><g class="message" data-participant-1="NegCtrl" data-participant-2="admin"><polygon fill="#181818" points="120.5557,624.6563,110.5557,628.6563,120.5557,632.6563,116.5557,628.6563" style="stroke:#181818;stroke-width:1;"/><line style="stroke:#181818;stroke-width:1;stroke-dasharray:2,2;" x1="114.5557" x2="850.7441" y1="628.6563" y2="628.6563"/><text fill="#000000" font-family="sans-serif" font-size="13" lengthAdjust="spacing" textLength="193.0513" x="126.5557" y="623.5903">&#171;Error: Campo ya registrado&#187;</text></g><line style="stroke:#000000;stroke-width:1;stroke-dasharray:2,2;" x1="20" x2="1382.5054" y1="637.6563" y2="637.6563"/><text fill="#000000" font-family="sans-serif" font-size="11" font-weight="bold" lengthAdjust="spacing" textLength="232.6167" x="25" y="647.8667">[validaci&#243;n correcta (Camino B&#225;sico)]</text><g class="message" data-participant-1="NegCtrl" data-participant-2="drog"><polygon fill="#181818" points="1281.4072,668.5938,1291.4072,672.5938,1281.4072,676.5938,1285.4072,672.5938" style="stroke:#181818;stroke-width:1;"/><line style="stroke:#181818;stroke-width:1;" x1="861.7441" x2="1287.4072" y1="672.5938" y2="672.5938"/><text fill="#000000" font-family="sans-serif" font-size="13" lengthAdjust="spacing" textLength="373.5151" x="868.7441" y="667.5278">actualizarContacto(nuevoNombre, email, telefono, canal)</text></g><g class="message" data-participant-1="drog" data-participant-2="NegCtrl"><polygon fill="#181818" points="872.7441,697.7266,862.7441,701.7266,872.7441,705.7266,868.7441,701.7266" style="stroke:#181818;stroke-width:1;"/><line style="stroke:#181818;stroke-width:1;stroke-dasharray:2,2;" x1="866.7441" x2="1297.4072" y1="701.7266" y2="701.7266"/><text fill="#000000" font-family="sans-serif" font-size="13" lengthAdjust="spacing" textLength="49.6323" x="878.7441" y="696.6606">&#171;NULL&#187;</text></g><g class="message" data-participant-1="NegCtrl" data-participant-2="admin"><polygon fill="#181818" points="120.5557,726.8594,110.5557,730.8594,120.5557,734.8594,116.5557,730.8594" style="stroke:#181818;stroke-width:1;"/><line style="stroke:#181818;stroke-width:1;stroke-dasharray:2,2;" x1="114.5557" x2="850.7441" y1="730.8594" y2="730.8594"/><text fill="#000000" font-family="sans-serif" font-size="13" lengthAdjust="spacing" textLength="202.1348" x="126.5557" y="725.7935">&#171;&#201;xito: Proveedor actualizado&#187;</text></g><!--SRC=[bLLHZjem4FtFAQPy1Qbx0GH85FXOYOPLs_sggcf8JDPjy2378Betw35wW7xr25oiOuSuDh1RoaTmx7apps-U7IDD9U0z5N8jSypbyO-2Gi23fhqG1Mb8PvhAdT37tzXFaYV9YsiYiw93ac1kEA8tAJPIoTfePC00t6iFi0QqesIBsiXSRb4Pw6MYf5pIb9JHL3M0UsM4NkEpmt30rEWgHYqu-_14HE9u04KxhXseudMqwtMCyv01qEgRVNFX5itiBJku6xSbOG2RamxQ0rD5cvKMIorBgR0Qm4UZfIhVWjg9FMLkiPiK6vH1Z16LM9EYRYR784dV2YZtQ8JVTGByQ_amjMvZp6wrgr-XrdTOdp6GnCwxHqMqXS-i43AH0g40eG8flxWW5zYLPH8sWikNmZJxJVlW8tqzfsaxwn1tv_o7GsWeJtApGwjtemECnnrINC_O5QmCn1k7qIZAwqFFTnArcidudK_cXJIeUTQB6t8IgaZ2_u1Ze7BIihj8guYXkNKyY-wp-YuphSQAZjHSQtickWDeqGSk8rfAege5RFswJqrDeoyBdBLXZvKis4UxRSLMBwXE0o_tBpjxvgIe6pSxwXPNHS7NRN23kQPF8lz-rLlN_1NNvEwbOHRhh40Rc6GpI0juCxfeSap-dzQRFJuixgUJsVBhF9ikiqyVU7XEjRNR-VWL-taBeY6-vdo7exol6s-Acot13mGjojET7XBh65aNDbPglXevQIroWv1o2ickVNVyLSkSOcMkC_5kG7U2vJDg-uMmtvVGdASBjhjOJnVghSwvRgEeCTdZOl5Vddb1pUFFWpGKdcE_jLZGMDJWfac2igSYVm40]--></g></svg>