<svg xmlns="http://www.w3.org/2000/svg" xmlns:xlink="http://www.w3.org/1999/xlink" contentStyleType="text/css" data-diagram-type="SEQUENCE" height="616px" preserveAspectRatio="none" style="width:1021px;height:616px;background:#FFFFFF;" version="1.1" viewBox="0 0 1021 616" width="1021px" zoomAndPan="magnify"><title>DSD - Modificaci&#243;n de Proveedor</title><defs/><g><text fill="#000000" font-family="sans-serif" font-size="14" font-weight="bold" lengthAdjust="spacing" textLength="259.2803" x="377.019" y="27.9951">DSD - Modificaci&#243;n de Proveedor</text><g><title>Proveedor</title><rect fill="#FFFFFF" height="29.1328" style="stroke:#181818;stroke-width:1;" width="10" x="839.0483" y="377.4609"/></g><g><title>Sistema</title><rect fill="#FFFFFF" height="29.1328" style="stroke:#181818;stroke-width:1;" width="10" x="973.1235" y="251.125"/></g><rect fill="none" height="223.5391" style="stroke:#000000;stroke-width:1.5;" width="882.79" x="10" y="295.2578"/><rect fill="none" height="90.2031" style="stroke:#000000;stroke-width:1.5;" width="657.7515" x="20" y="421.5938"/><g><title>Administrador</title><rect fill="#000000" fill-opacity="0.00000" height="417.2031" width="8" x="78.54" y="118.5938"/><line style="stroke:#181818;stroke-width:0.5;stroke-dasharray:5,5;" x1="82" x2="82" y1="118.5938" y2="535.7969"/></g><g><title>ControladorNegocio</title><rect fill="#000000" fill-opacity="0.00000" height="417.2031" width="8" x="591.0557" y="118.5938"/><line style="stroke:#181818;stroke-width:0.5;stroke-dasharray:5,5;" x1="594.3599" x2="594.3599" y1="118.5938" y2="535.7969"/></g><g><title>Proveedor</title><rect fill="#000000" fill-opacity="0.00000" height="417.2031" width="8" x="840.0483" y="118.5938"/><line style="stroke:#181818;stroke-width:0.5;stroke-dasharray:5,5;" x1="843.3066" x2="843.3066" y1="118.5938" y2="535.7969"/></g><g><title>Sistema</title><rect fill="#000000" fill-opacity="0.00000" height="417.2031" width="8" x="974.1235" y="118.5938"/><line style="stroke:#181818;stroke-width:0.5;stroke-dasharray:5,5;" x1="977.9287" x2="977.9287" y1="118.5938" y2="535.7969"/></g><g class="participant participant-head" data-participant="Administrador"><text fill="#000000" font-family="sans-serif" font-size="14" lengthAdjust="spacing" textLength="99.0801" x="30" y="115.292">Administrador</text><ellipse cx="82.54" cy="50.7969" fill="#E2E2F0" rx="8" ry="8" style="stroke:#181818;stroke-width:0.5;"/><path d="M82.54,58.7969 L82.54,85.7969 M69.54,66.7969 L95.54,66.7969 M82.54,85.7969 L69.54,100.7969 M82.54,85.7969 L95.54,100.7969" fill="none" style="stroke:#181818;stroke-width:0.5;"/></g><g class="participant participant-tail" data-participant="Administrador"><text fill="#000000" font-family="sans-serif" font-size="14" lengthAdjust="spacing" textLength="99.0801" x="30" y="547.792">Administrador</text><ellipse cx="82.54" cy="559.5938" fill="#E2E2F0" rx="8" ry="8" style="stroke:#181818;stroke-width:0.5;"/><path d="M82.54,567.5938 L82.54,594.5938 M69.54,575.5938 L95.54,575.5938 M82.54,594.5938 L69.54,609.5938 M82.54,594.5938 L95.54,609.5938" fill="none" style="stroke:#181818;stroke-width:0.5;"/></g><g class="participant participant-head" data-participant="ControladorNegocio"><text fill="#000000" font-family="sans-serif" font-size="14" lengthAdjust="spacing" textLength="139.3916" x="522.3599" y="115.292">ControladorNegocio</text><ellipse cx="595.0557" cy="86.2969" fill="#E2E2F0" rx="12" ry="12" style="stroke:#181818;stroke-width:0.5;"/><polygon fill="#181818" points="591.0557,74.2969,597.0557,69.2969,595.0557,74.2969,597.0557,79.2969,591.0557,74.2969" style="stroke:#181818;stroke-width:1;"/></g><g class="participant participant-tail" data-participant="ControladorNegocio"><text fill="#000000" font-family="sans-serif" font-size="14" lengthAdjust="spacing" textLength="139.3916" x="522.3599" y="547.792">ControladorNegocio</text><ellipse cx="595.0557" cy="567.0938" fill="#E2E2F0" rx="12" ry="12" style="stroke:#181818;stroke-width:0.5;"/><polygon fill="#181818" points="591.0557,555.0938,597.0557,550.0938,595.0557,555.0938,597.0557,560.0938,591.0557,555.0938" style="stroke:#181818;stroke-width:1;"/></g><g class="participant participant-head" data-participant="Proveedor"><text fill="#000000" font-family="sans-serif" font-size="14" lengthAdjust="spacing" textLength="71.4834" x="805.3066" y="115.292">Proveedor</text><ellipse cx="844.0483" cy="86.2969" fill="#E2E2F0" rx="12" ry="12" style="stroke:#181818;stroke-width:0.5;"/><line style="stroke:#181818;stroke-width:0.5;" x1="832.0483" x2="856.0483" y1="100.2969" y2="100.2969"/></g><g class="participant participant-tail" data-participant="Proveedor"><text fill="#000000" font-family="sans-serif" font-size="14" lengthAdjust="spacing" textLength="71.4834" x="805.3066" y="547.792">Proveedor</text><ellipse cx="844.0483" cy="567.0938" fill="#E2E2F0" rx="12" ry="12" style="stroke:#181818;stroke-width:0.5;"/><line style="stroke:#181818;stroke-width:0.5;" x1="832.0483" x2="856.0483" y1="581.0938" y2="581.0938"/></g><g class="participant participant-head" data-participant="Sistema"><text fill="#000000" font-family="sans-serif" font-size="14" lengthAdjust="spacing" textLength="56.3896" x="946.9287" y="115.292">Sistema</text><ellipse cx="978.1235" cy="86.2969" fill="#E2E2F0" rx="12" ry="12" style="stroke:#181818;stroke-width:0.5;"/><line style="stroke:#181818;stroke-width:0.5;" x1="966.1235" x2="990.1235" y1="100.2969" y2="100.2969"/></g><g class="participant participant-tail" data-participant="Sistema"><text fill="#000000" font-family="sans-serif" font-size="14" lengthAdjust="spacing" textLength="56.3896" x="946.9287" y="547.792">Sistema</text><ellipse cx="978.1235" cy="567.0938" fill="#E2E2F0" rx="12" ry="12" style="stroke:#181818;stroke-width:0.5;"/><line style="stroke:#181818;stroke-width:0.5;" x1="966.1235" x2="990.1235" y1="581.0938" y2="581.0938"/></g><g><title>Proveedor</title><rect fill="#FFFFFF" height="29.1328" style="stroke:#181818;stroke-width:1;" width="10" x="839.0483" y="377.4609"/></g><g><title>Sistema</title><rect fill="#FFFFFF" height="29.1328" style="stroke:#181818;stroke-width:1;" width="10" x="973.1235" y="251.125"/></g><rect fill="#EEEEEE" height="3" style="stroke:#EEEEEE;stroke-width:1;" width="1014.3184" x="0" y="149.1602"/><line style="stroke:#000000;stroke-width:1;" x1="0" x2="1014.3184" y1="149.1602" y2="149.1602"/><line style="stroke:#000000;stroke-width:1;" x1="0" x2="1014.3184" y1="152.1602" y2="152.1602"/><rect fill="#EEEEEE" height="23.1328" style="stroke:#000000;stroke-width:2;" width="58.167" x="478.0757" y="138.5938"/><text fill="#000000" font-family="sans-serif" font-size="13" font-weight="bold" lengthAdjust="spacing" textLength="39.6411" x="484.0757" y="154.6606">Inicio</text><g class="message" data-participant-1="Administrador" data-participant-2="ControladorNegocio"><polygon fill="#181818" points="583.0557,188.8594,593.0557,192.8594,583.0557,196.8594,587.0557,192.8594" style="stroke:#181818;stroke-width:1;"/><line style="stroke:#181818;stroke-width:1;" x1="82.54" x2="589.0557" y1="192.8594" y2="192.8594"/><text fill="#000000" font-family="sans-serif" font-size="13" lengthAdjust="spacing" textLength="190.3726" x="89.54" y="187.7935">accederModuloProveedores()</text></g><g class="message" data-participant-1="Administrador" data-participant-2="ControladorNegocio"><polygon fill="#181818" points="583.0557,217.9922,593.0557,221.9922,583.0557,225.9922,587.0557,221.9922" style="stroke:#181818;stroke-width:1;"/><line style="stroke:#181818;stroke-width:1;" x1="82.54" x2="589.0557" y1="221.9922" y2="221.9922"/><text fill="#000000" font-family="sans-serif" font-size="13" lengthAdjust="spacing" textLength="427.2417" x="89.54" y="216.9263">modificarDatosProveedor(nombre, email, telefono, formatoEnvio)</text></g><g class="message" data-participant-1="ControladorNegocio" data-participant-2="Sistema"><polygon fill="#181818" points="961.1235,247.125,971.1235,251.125,961.1235,255.125,965.1235,251.125" style="stroke:#181818;stroke-width:1;"/><line style="stroke:#181818;stroke-width:1;" x1="595.0557" x2="967.1235" y1="251.125" y2="251.125"/><text fill="#000000" font-family="sans-serif" font-size="13" lengthAdjust="spacing" textLength="359.0679" x="602.0557" y="246.0591">validarCampos(nombre, email, telefono, formatoEnvio)</text></g><g class="message" data-participant-1="Sistema" data-participant-2="ControladorNegocio"><polygon fill="#181818" points="606.0557,276.2578,596.0557,280.2578,606.0557,284.2578,602.0557,280.2578" style="stroke:#181818;stroke-width:1;"/><line style="stroke:#181818;stroke-width:1;stroke-dasharray:2,2;" x1="600.0557" x2="977.1235" y1="280.2578" y2="280.2578"/><text fill="#000000" font-family="sans-serif" font-size="13" lengthAdjust="spacing" textLength="97.8174" x="612.0557" y="275.1919">camposValidos</text></g><path d="M10,295.2578 L74.4429,295.2578 L74.4429,302.3906 L64.4429,312.3906 L10,312.3906 L10,295.2578" fill="#EEEEEE" style="stroke:#000000;stroke-width:1.5;"/><rect fill="none" height="223.5391" style="stroke:#000000;stroke-width:1.5;" width="882.79" x="10" y="295.2578"/><text fill="#000000" font-family="sans-serif" font-size="13" font-weight="bold" lengthAdjust="spacing" textLength="19.4429" x="25" y="308.3247">alt</text><text fill="#000000" font-family="sans-serif" font-size="11" font-weight="bold" lengthAdjust="spacing" textLength="116.7676" x="89.4429" y="307.4683">[Campo duplicado]</text><g class="message" data-participant-1="ControladorNegocio" data-participant-2="Administrador"><polygon fill="#181818" points="93.54,329.5234,83.54,333.5234,93.54,337.5234,89.54,333.5234" style="stroke:#181818;stroke-width:1;"/><line style="stroke:#181818;stroke-width:1;" x1="87.54" x2="594.0557" y1="333.5234" y2="333.5234"/><text fill="#000000" font-family="sans-serif" font-size="13" lengthAdjust="spacing" textLength="213.7827" x="99.54" y="328.4575">mensaje("Campo ya registrado")</text></g><line style="stroke:#000000;stroke-width:1;stroke-dasharray:2,2;" x1="10" x2="892.79" y1="342.5234" y2="342.5234"/><text fill="#000000" font-family="sans-serif" font-size="11" font-weight="bold" lengthAdjust="spacing" textLength="121.0913" x="15" y="352.7339">[Campos correctos]</text><g class="message" data-participant-1="ControladorNegocio" data-participant-2="Proveedor"><polygon fill="#181818" points="827.0483,373.4609,837.0483,377.4609,827.0483,381.4609,831.0483,377.4609" style="stroke:#181818;stroke-width:1;"/><line style="stroke:#181818;stroke-width:1;" x1="595.0557" x2="833.0483" y1="377.4609" y2="377.4609"/><text fill="#000000" font-family="sans-serif" font-size="13" lengthAdjust="spacing" textLength="224.9927" x="602.0557" y="372.395">actualizarProveedor(nuevosDatos)</text></g><g class="message" data-participant-1="Proveedor" data-participant-2="ControladorNegocio"><polygon fill="#181818" points="606.0557,402.5938,596.0557,406.5938,606.0557,410.5938,602.0557,406.5938" style="stroke:#181818;stroke-width:1;"/><line style="stroke:#181818;stroke-width:1;stroke-dasharray:2,2;" x1="600.0557" x2="843.0483" y1="406.5938" y2="406.5938"/><text fill="#000000" font-family="sans-serif" font-size="13" lengthAdjust="spacing" textLength="147.5449" x="612.0557" y="401.5278">resultadoActualizacion</text></g><path d="M20,421.5938 L84.4429,421.5938 L84.4429,428.7266 L74.4429,438.7266 L20,438.7266 L20,421.5938" fill="#EEEEEE" style="stroke:#000000;stroke-width:1.5;"/><rect fill="none" height="90.2031" style="stroke:#000000;stroke-width:1.5;" width="657.7515" x="20" y="421.5938"/><text fill="#000000" font-family="sans-serif" font-size="13" font-weight="bold" lengthAdjust="spacing" textLength="19.4429" x="35" y="434.6606">alt</text><text fill="#000000" font-family="sans-serif" font-size="11" font-weight="bold" lengthAdjust="spacing" textLength="120.0171" x="99.4429" y="433.8042">[Error de conexi&#243;n]</text><g class="message" data-participant-1="ControladorNegocio" data-participant-2="Administrador"><polygon fill="#181818" points="93.54,455.8594,83.54,459.8594,93.54,463.8594,89.54,459.8594" style="stroke:#181818;stroke-width:1;"/><line style="stroke:#181818;stroke-width:1;" x1="87.54" x2="594.0557" y1="459.8594" y2="459.8594"/><text fill="#000000" font-family="sans-serif" font-size="13" lengthAdjust="spacing" textLength="488.5156" x="99.54" y="454.7935">mensaje("Error al modificar al proveedor. Intente nuevamente m&#225;s tarde")</text></g><line style="stroke:#000000;stroke-width:1;stroke-dasharray:2,2;" x1="20" x2="677.7515" y1="468.8594" y2="468.8594"/><text fill="#000000" font-family="sans-serif" font-size="11" font-weight="bold" lengthAdjust="spacing" textLength="137.3228" x="25" y="479.0698">[Modificaci&#243;n exitosa]</text><g class="message" data-participant-1="ControladorNegocio" data-participant-2="Administrador"><polygon fill="#181818" points="93.54,499.7969,83.54,503.7969,93.54,507.7969,89.54,503.7969" style="stroke:#181818;stroke-width:1;"/><line style="stroke:#181818;stroke-width:1;" x1="87.54" x2="594.0557" y1="503.7969" y2="503.7969"/><text fill="#000000" font-family="sans-serif" font-size="13" lengthAdjust="spacing" textLength="319.979" x="99.54" y="498.731">mensaje("Proveedor modificado correctamente")</text></g><!--SRC=[dPDDJYCn48NtFaKfgqHAE01IHaA41GiGKYJsXLr17hbTKTdT8jncpZ17u6AKtJz918mOUjFTrUslNZq_Pvy3mMQxWHNSiVCxRz7wjxyH7C63S4VaM8n1crdWoZK- -fG5Iz5opC81hljxgTtJCrlFXcBs-N0260fRNKmD6hDUmstq-YkiryQSSM7rwnFa9Q2rv4XKPHju8bEQBxu9Q8RvP8EPqqIOHswUX9QWmdnOGgP0EuwyX1rBex_UnCwpDld8B9s6aIwXm-0ToZKsUqxVXQglliDCapF37LPV364h_h7qucGSVG0O31cg273jFkYyZWtezRdyC-VK8ue9VzDyrXCE24BFm-VPmb18rCCJM1OXZKKo_y1FBfVzowtAVaKviRwbZbFTZqMbJECSerFAqzkNlcWGsf2rT3MsqNAiYqzCEabqxQPMtOWeLjEkSQQN4ltwwVyTwq4OZZahB_knuuK6Fkin82X3OrCVcxS_2JAAera_VpNu_22gABK7VwZgwDmeo_6uTRs8iNDqUahTEm00]--></g></svg>