<svg xmlns="http://www.w3.org/2000/svg" xmlns:xlink="http://www.w3.org/1999/xlink" contentStyleType="text/css" data-diagram-type="SEQUENCE" height="957px" preserveAspectRatio="none" style="width:2024px;height:957px;background:#FFFFFF;" version="1.1" viewBox="0 0 2024 957" width="2024px" zoomAndPan="magnify"><title>Modificaci&#243;n de Proveedores</title><defs/><g><text fill="#000000" font-family="sans-serif" font-size="14" font-weight="bold" lengthAdjust="spacing" textLength="228.2246" x="897.1987" y="27.9951">Modificaci&#243;n de Proveedores</text><g><title>admin.Administrador</title><rect fill="#000000" fill-opacity="0.00000" height="831.4531" width="8" x="78.3315" y="118.5938"/><line style="stroke:#181818;stroke-width:0.5;stroke-dasharray:5,5;" x1="81.8315" x2="81.8315" y1="118.5938" y2="950.0469"/></g><g><title>gc.GestionControlador</title><rect fill="#000000" fill-opacity="0.00000" height="831.4531" width="8" x="983.5303" y="118.5938"/><line style="stroke:#181818;stroke-width:0.5;stroke-dasharray:5,5;" x1="987.0303" x2="987.0303" y1="118.5938" y2="950.0469"/></g><g><title/><rect fill="#FFFFFF" height="770.3203" style="stroke:#181818;stroke-width:1;" width="10" x="982.0303" y="147.7266"/></g><g><title>catProv...Singleton..</title><rect fill="#000000" fill-opacity="0.00000" height="831.4531" width="8" x="1363.6045" y="118.5938"/><line style="stroke:#181818;stroke-width:0.5;stroke-dasharray:5,5;" x1="1367.1045" x2="1367.1045" y1="118.5938" y2="950.0469"/></g><g><title/><rect fill="#FFFFFF" height="132.5313" style="stroke:#181818;stroke-width:1;" width="10" x="1362.1045" y="176.8594"/></g><g><title>listaProv.i..Drogueria</title><rect fill="#000000" fill-opacity="0.00000" height="831.4531" width="8" x="1546.9648" y="118.5938"/><line style="stroke:#181818;stroke-width:0.5;stroke-dasharray:5,5;" x1="1550.4648" x2="1550.4648" y1="118.5938" y2="950.0469"/></g><g><title/><rect fill="#FFFFFF" height="29.1328" style="stroke:#181818;stroke-width:1;" width="10" x="1545.4648" y="237.125"/></g><g><title>provEncontrado.Drogueria</title><rect fill="#000000" fill-opacity="0.00000" height="831.4531" width="8" x="1738.6948" y="118.5938"/><line style="stroke:#181818;stroke-width:0.5;stroke-dasharray:5,5;" x1="1742.1948" x2="1742.1948" y1="118.5938" y2="950.0469"/></g><g><title/><rect fill="#FFFFFF" height="29.1328" style="stroke:#181818;stroke-width:1;" width="10" x="1737.1948" y="416.7891"/></g><g><title/><rect fill="#FFFFFF" height="29.1328" style="stroke:#181818;stroke-width:1;" width="10" x="1737.1948" y="518.1875"/></g><g><title/><rect fill="#FFFFFF" height="29.1328" style="stroke:#181818;stroke-width:1;" width="10" x="1737.1948" y="626.7188"/></g><g><title/><rect fill="#FFFFFF" height="29.1328" style="stroke:#181818;stroke-width:1;" width="10" x="1737.1948" y="859.7813"/></g><g><title>suDireccion.Direccion</title><rect fill="#000000" fill-opacity="0.00000" height="831.4531" width="8" x="1931.9185" y="118.5938"/><line style="stroke:#181818;stroke-width:0.5;stroke-dasharray:5,5;" x1="1935.4185" x2="1935.4185" y1="118.5938" y2="950.0469"/></g><g><title/><rect fill="#FFFFFF" height="29.1328" style="stroke:#181818;stroke-width:1;" width="10" x="1930.4185" y="684.9844"/></g><g><title/><rect fill="#FFFFFF" height="29.1328" style="stroke:#181818;stroke-width:1;" width="10" x="1930.4185" y="743.25"/></g><g><title/><rect fill="#FFFFFF" height="29.1328" style="stroke:#181818;stroke-width:1;" width="10" x="1930.4185" y="801.5156"/></g><text fill="#000000" font-family="sans-serif" font-size="14" lengthAdjust="spacing" textLength="147.6631" x="5" y="115.292">admin:Administrador</text><ellipse cx="81.8315" cy="50.7969" fill="#E2E2F0" rx="8" ry="8" style="stroke:#181818;stroke-width:0.5;"/><path d="M81.8315,58.7969 L81.8315,85.7969 M68.8315,66.7969 L94.8315,66.7969 M81.8315,85.7969 L68.8315,100.7969 M81.8315,85.7969 L94.8315,100.7969" fill="none" style="stroke:#181818;stroke-width:0.5;"/><rect fill="#E2E2F0" height="30.2969" rx="2.5" ry="2.5" style="stroke:#181818;stroke-width:0.5;" width="171.5752" x="901.2427" y="87.2969"/><text fill="#000000" font-family="sans-serif" font-size="14" lengthAdjust="spacing" textLength="157.5752" x="908.2427" y="107.292">gc:GestionControlador</text><rect fill="#E2E2F0" height="46.5938" rx="2.5" ry="2.5" style="stroke:#181818;stroke-width:0.5;" width="163.7207" x="1285.2441" y="71"/><text fill="#000000" font-family="sans-serif" font-size="14" lengthAdjust="spacing" textLength="140.6289" x="1296.79" y="90.9951">catProv:&#171;Singleton&#187;</text><text fill="#000000" font-family="sans-serif" font-size="14" lengthAdjust="spacing" textLength="149.7207" x="1292.2441" y="107.292">CatalogoProveedores</text><rect fill="#E2E2F0" height="30.2969" rx="2.5" ry="2.5" style="stroke:#181818;stroke-width:0.5;" width="163.4199" x="1468.7549" y="87.2969"/><text fill="#000000" font-family="sans-serif" font-size="14" lengthAdjust="spacing" textLength="149.4199" x="1475.7549" y="107.292">listaProv[i]:Drogueria</text><rect fill="#E2E2F0" height="30.2969" rx="2.5" ry="2.5" style="stroke:#181818;stroke-width:0.5;" width="200.04" x="1642.1748" y="87.2969"/><text fill="#000000" font-family="sans-serif" font-size="14" lengthAdjust="spacing" textLength="186.04" x="1649.1748" y="107.292">provEncontrado:Drogueria</text><rect fill="#E2E2F0" height="30.2969" rx="2.5" ry="2.5" style="stroke:#181818;stroke-width:0.5;" width="166.4072" x="1852.2148" y="87.2969"/><text fill="#000000" font-family="sans-serif" font-size="14" lengthAdjust="spacing" textLength="152.4072" x="1859.2148" y="107.292">suDireccion:Direccion</text><polygon fill="#181818" points="970.0303,143.7266,980.0303,147.7266,970.0303,151.7266,974.0303,147.7266" style="stroke:#181818;stroke-width:1;"/><line style="stroke:#181818;stroke-width:1;" x1="81.8315" x2="976.0303" y1="147.7266" y2="147.7266"/><text fill="#000000" font-family="sans-serif" font-size="13" lengthAdjust="spacing" textLength="876.1987" x="88.8315" y="142.6606">modificarDrogueria(nombre : String, email : String, tel : String, calle : String, num : INT, loc : String, CUIT : INT, canalPreferido : String)</text><polygon fill="#181818" points="1350.1045,172.8594,1360.1045,176.8594,1350.1045,180.8594,1354.1045,176.8594" style="stroke:#181818;stroke-width:1;"/><line style="stroke:#181818;stroke-width:1;" x1="992.0303" x2="1356.1045" y1="176.8594" y2="176.8594"/><text fill="#000000" font-family="sans-serif" font-size="13" lengthAdjust="spacing" textLength="170.6948" x="999.0303" y="171.7935">buscarProveedor(nombre)</text><path d="M1351.1045,188.8594 L1427.7285,188.8594 L1427.7285,195.9922 L1417.7285,205.9922 L1351.1045,205.9922 L1351.1045,188.8594" fill="#EEEEEE" style="stroke:#000000;stroke-width:1.5;"/><rect fill="none" height="85.3984" style="stroke:#000000;stroke-width:1.5;" width="307.2891" x="1351.1045" y="188.8594"/><text fill="#000000" font-family="sans-serif" font-size="13" font-weight="bold" lengthAdjust="spacing" textLength="31.624" x="1366.1045" y="201.9263">loop</text><text fill="#000000" font-family="sans-serif" font-size="11" font-weight="bold" lengthAdjust="spacing" textLength="199.665" x="1442.7285" y="201.0698">[hasta nombre == nombreDrog]</text><polygon fill="#181818" points="1533.4648,233.125,1543.4648,237.125,1533.4648,241.125,1537.4648,237.125" style="stroke:#181818;stroke-width:1;"/><line style="stroke:#181818;stroke-width:1;" x1="1372.1045" x2="1539.4648" y1="237.125" y2="237.125"/><text fill="#000000" font-family="sans-serif" font-size="13" lengthAdjust="spacing" textLength="83.4272" x="1379.1045" y="232.0591">getNombre()</text><polygon fill="#181818" points="1383.1045,262.2578,1373.1045,266.2578,1383.1045,270.2578,1379.1045,266.2578" style="stroke:#181818;stroke-width:1;"/><line style="stroke:#181818;stroke-width:1;stroke-dasharray:2,2;" x1="1377.1045" x2="1544.4648" y1="266.2578" y2="266.2578"/><text fill="#000000" font-family="sans-serif" font-size="13" lengthAdjust="spacing" textLength="149.3604" x="1389.1045" y="261.1919">&#171;nombreDrog : String&#187;</text><polygon fill="#181818" points="1003.0303,305.3906,993.0303,309.3906,1003.0303,313.3906,999.0303,309.3906" style="stroke:#181818;stroke-width:1;"/><line style="stroke:#181818;stroke-width:1;stroke-dasharray:2,2;" x1="997.0303" x2="1361.1045" y1="309.3906" y2="309.3906"/><text fill="#000000" font-family="sans-serif" font-size="13" lengthAdjust="spacing" textLength="346.0742" x="1009.0303" y="304.3247">&lt;&lt;NULL o DrogEncontrada : Object Type : Drogueria</text><path d="M65.8315,321.3906 L130.2744,321.3906 L130.2744,328.5234 L120.2744,338.5234 L65.8315,338.5234 L65.8315,321.3906" fill="#EEEEEE" style="stroke:#000000;stroke-width:1.5;"/><rect fill="none" height="604.6563" style="stroke:#000000;stroke-width:1.5;" width="1890.5869" x="65.8315" y="321.3906"/><text fill="#000000" font-family="sans-serif" font-size="13" font-weight="bold" lengthAdjust="spacing" textLength="19.4429" x="80.8315" y="334.4575">alt</text><text fill="#000000" font-family="sans-serif" font-size="11" font-weight="bold" lengthAdjust="spacing" textLength="159.9941" x="145.2744" y="333.6011">[DrogEncontrada == null]</text><line style="stroke:#000000;stroke-width:1;stroke-dasharray:2,2;" x1="65.8315" x2="1956.4185" y1="388.6563" y2="388.6563"/><polygon fill="#181818" points="92.8315,365.6563,82.8315,369.6563,92.8315,373.6563,88.8315,369.6563" style="stroke:#181818;stroke-width:1;"/><line style="stroke:#181818;stroke-width:1;stroke-dasharray:2,2;" x1="86.8315" x2="981.0303" y1="369.6563" y2="369.6563"/><text fill="#000000" font-family="sans-serif" font-size="13" lengthAdjust="spacing" textLength="199.0498" x="98.8315" y="364.5903">"Error: El proveedor no existe"</text><polygon fill="#181818" points="1725.1948,412.7891,1735.1948,416.7891,1725.1948,420.7891,1729.1948,416.7891" style="stroke:#181818;stroke-width:1;"/><line style="stroke:#181818;stroke-width:1;" x1="992.0303" x2="1731.1948" y1="416.7891" y2="416.7891"/><text fill="#000000" font-family="sans-serif" font-size="13" lengthAdjust="spacing" textLength="153.3721" x="999.0303" y="411.7231">setEmail(email : String)</text><polygon fill="#181818" points="1003.0303,441.9219,993.0303,445.9219,1003.0303,449.9219,999.0303,445.9219" style="stroke:#181818;stroke-width:1;"/><line style="stroke:#181818;stroke-width:1;stroke-dasharray:2,2;" x1="997.0303" x2="1736.1948" y1="445.9219" y2="445.9219"/><text fill="#000000" font-family="sans-serif" font-size="13" lengthAdjust="spacing" textLength="49.6323" x="1009.0303" y="440.856">&#171;NULL&#187;</text><polygon fill="#181818" points="1730.1948,471.0547,1740.1948,475.0547,1730.1948,479.0547,1734.1948,475.0547" style="stroke:#181818;stroke-width:1;"/><line style="stroke:#181818;stroke-width:1;" x1="992.0303" x2="1736.1948" y1="475.0547" y2="475.0547"/><text fill="#000000" font-family="sans-serif" font-size="13" lengthAdjust="spacing" textLength="124.8901" x="999.0303" y="469.9888">setCUIT(CUIT : INT)</text><polygon fill="#181818" points="1003.0303,485.0547,993.0303,489.0547,1003.0303,493.0547,999.0303,489.0547" style="stroke:#181818;stroke-width:1;"/><line style="stroke:#181818;stroke-width:1;stroke-dasharray:2,2;" x1="997.0303" x2="1741.1948" y1="489.0547" y2="489.0547"/><polygon fill="#181818" points="1725.1948,514.1875,1735.1948,518.1875,1725.1948,522.1875,1729.1948,518.1875" style="stroke:#181818;stroke-width:1;"/><line style="stroke:#181818;stroke-width:1;" x1="992.0303" x2="1731.1948" y1="518.1875" y2="518.1875"/><text fill="#000000" font-family="sans-serif" font-size="13" lengthAdjust="spacing" textLength="96.897" x="999.0303" y="513.1216">setNumTel(tel)</text><polygon fill="#181818" points="1003.0303,543.3203,993.0303,547.3203,1003.0303,551.3203,999.0303,547.3203" style="stroke:#181818;stroke-width:1;"/><line style="stroke:#181818;stroke-width:1;stroke-dasharray:2,2;" x1="997.0303" x2="1736.1948" y1="547.3203" y2="547.3203"/><text fill="#000000" font-family="sans-serif" font-size="13" lengthAdjust="spacing" textLength="49.6323" x="1009.0303" y="542.2544">&#171;NULL&#187;</text><path d="M997.0303,560.3203 L997.0303,600.3203 L1229.0303,600.3203 L1229.0303,570.3203 L1219.0303,560.3203 L997.0303,560.3203" fill="#FEFFDD" style="stroke:#181818;stroke-width:0.5;"/><path d="M1219.0303,560.3203 L1219.0303,570.3203 L1229.0303,570.3203 L1219.0303,560.3203" fill="#FEFFDD" style="stroke:#181818;stroke-width:0.5;"/><text fill="#000000" font-family="sans-serif" font-size="13" lengthAdjust="spacing" textLength="211.7451" x="1003.0303" y="577.3872">Accedemos al objeto compuesto</text><text fill="#000000" font-family="sans-serif" font-size="13" lengthAdjust="spacing" textLength="152.7373" x="1003.0303" y="592.52">para editar sus campos</text><polygon fill="#181818" points="1725.1948,622.7188,1735.1948,626.7188,1725.1948,630.7188,1729.1948,626.7188" style="stroke:#181818;stroke-width:1;"/><line style="stroke:#181818;stroke-width:1;" x1="992.0303" x2="1731.1948" y1="626.7188" y2="626.7188"/><text fill="#000000" font-family="sans-serif" font-size="13" lengthAdjust="spacing" textLength="92.5552" x="999.0303" y="621.6528">getDireccion()</text><polygon fill="#181818" points="1003.0303,651.8516,993.0303,655.8516,1003.0303,659.8516,999.0303,655.8516" style="stroke:#181818;stroke-width:1;"/><line style="stroke:#181818;stroke-width:1;stroke-dasharray:2,2;" x1="997.0303" x2="1736.1948" y1="655.8516" y2="655.8516"/><text fill="#000000" font-family="sans-serif" font-size="13" lengthAdjust="spacing" textLength="256.6929" x="1009.0303" y="650.7856">&#171;suDireccion : Object Type : Direccion&#187;</text><polygon fill="#181818" points="1918.4185,680.9844,1928.4185,684.9844,1918.4185,688.9844,1922.4185,684.9844" style="stroke:#181818;stroke-width:1;"/><line style="stroke:#181818;stroke-width:1;" x1="992.0303" x2="1924.4185" y1="684.9844" y2="684.9844"/><text fill="#000000" font-family="sans-serif" font-size="13" lengthAdjust="spacing" textLength="144.0537" x="999.0303" y="679.9185">setCalle(calle : String)</text><polygon fill="#181818" points="1003.0303,710.1172,993.0303,714.1172,1003.0303,718.1172,999.0303,714.1172" style="stroke:#181818;stroke-width:1;"/><line style="stroke:#181818;stroke-width:1;stroke-dasharray:2,2;" x1="997.0303" x2="1929.4185" y1="714.1172" y2="714.1172"/><text fill="#000000" font-family="sans-serif" font-size="13" lengthAdjust="spacing" textLength="49.6323" x="1009.0303" y="709.0513">&#171;NULL&#187;</text><polygon fill="#181818" points="1918.4185,739.25,1928.4185,743.25,1918.4185,747.25,1922.4185,743.25" style="stroke:#181818;stroke-width:1;"/><line style="stroke:#181818;stroke-width:1;" x1="992.0303" x2="1924.4185" y1="743.25" y2="743.25"/><text fill="#000000" font-family="sans-serif" font-size="13" lengthAdjust="spacing" textLength="145.2217" x="999.0303" y="738.1841">setNumero(num : INT)</text><polygon fill="#181818" points="1003.0303,768.3828,993.0303,772.3828,1003.0303,776.3828,999.0303,772.3828" style="stroke:#181818;stroke-width:1;"/><line style="stroke:#181818;stroke-width:1;stroke-dasharray:2,2;" x1="997.0303" x2="1929.4185" y1="772.3828" y2="772.3828"/><text fill="#000000" font-family="sans-serif" font-size="13" lengthAdjust="spacing" textLength="49.6323" x="1009.0303" y="767.3169">&#171;NULL&#187;</text><polygon fill="#181818" points="1918.4185,797.5156,1928.4185,801.5156,1918.4185,805.5156,1922.4185,801.5156" style="stroke:#181818;stroke-width:1;"/><line style="stroke:#181818;stroke-width:1;" x1="992.0303" x2="1924.4185" y1="801.5156" y2="801.5156"/><text fill="#000000" font-family="sans-serif" font-size="13" lengthAdjust="spacing" textLength="162.1699" x="999.0303" y="796.4497">setLocalidad(loc : String)</text><polygon fill="#181818" points="1003.0303,826.6484,993.0303,830.6484,1003.0303,834.6484,999.0303,830.6484" style="stroke:#181818;stroke-width:1;"/><line style="stroke:#181818;stroke-width:1;stroke-dasharray:2,2;" x1="997.0303" x2="1929.4185" y1="830.6484" y2="830.6484"/><text fill="#000000" font-family="sans-serif" font-size="13" lengthAdjust="spacing" textLength="49.6323" x="1009.0303" y="825.5825">&#171;NULL&#187;</text><polygon fill="#181818" points="1725.1948,855.7813,1735.1948,859.7813,1725.1948,863.7813,1729.1948,859.7813" style="stroke:#181818;stroke-width:1;"/><line style="stroke:#181818;stroke-width:1;" x1="992.0303" x2="1731.1948" y1="859.7813" y2="859.7813"/><text fill="#000000" font-family="sans-serif" font-size="13" lengthAdjust="spacing" textLength="271.083" x="999.0303" y="854.7153">setCanalPreferido(canalPreferido : String)</text><polygon fill="#181818" points="1003.0303,884.9141,993.0303,888.9141,1003.0303,892.9141,999.0303,888.9141" style="stroke:#181818;stroke-width:1;"/><line style="stroke:#181818;stroke-width:1;stroke-dasharray:2,2;" x1="997.0303" x2="1736.1948" y1="888.9141" y2="888.9141"/><text fill="#000000" font-family="sans-serif" font-size="13" lengthAdjust="spacing" textLength="49.6323" x="1009.0303" y="883.8481">&#171;NULL&#187;</text><polygon fill="#181818" points="92.8315,914.0469,82.8315,918.0469,92.8315,922.0469,88.8315,918.0469" style="stroke:#181818;stroke-width:1;"/><line style="stroke:#181818;stroke-width:1;stroke-dasharray:2,2;" x1="86.8315" x2="981.0303" y1="918.0469" y2="918.0469"/><text fill="#000000" font-family="sans-serif" font-size="13" lengthAdjust="spacing" textLength="299.7998" x="98.8315" y="912.981">"&#201;xito: Proveedor modificado correctamente."</text><!--SRC=[lLRDRjD04BxxAOPSwaWj4XojD5Bg1cIfJQByS04Es_NKNRJUjTRhgkKDEFCSd7Y4l1YpZhrnqaQ06l31yUxyptmparU5OLdEmAB-2jPK6Do95E5MQtkZ7m8hh4Iurgcu5PnniVwfWCWpe-yHKssm30B6hJRGOsakL3HoRr5QmuZQ0rP2VHyKp5Z1HS6KXLx6e_TOMg5Lh9KrMdhcZEzoScQThMWmM0YLIRHQ3OUVLCmiaphJ7JzgyOPzLuSaTvYx_YW-HvT6PnKQmJQ-6SCUdqeKT3DMtFb6dkt9EEBqvikkH5bT2eESKqYH_whPKs4STt02vozzI4SoIU9aUYHbOxaf3g2wN_zW83MvownxOvdHYO8l8HIAo-eHLQet70YIkR1Sa8I7Vh1HSZQawa44UGCMuzCMAftV62JQmXeguobWpeJid2rsJvn9sULMLKwdPB8y9GTuXn2lacLBuKmnEJDuInR9qvQfx-0fxfb5XoqA-kob3-cOZHPJU1F1nMeHZ-OmleBPVFfXFBwSpezYWV98sMp0JA7SL2NbquEzoMSdj1RtWTIwW3j6W8ScwUVdpPShHm3qj7h9XCS_6SdGJch6i5-pUUNR9gcllSZPZe-3mTQCp_vmMCka-8mo0bGGU5zQz0m6azNL5MXmUdmFCg9G5o6ti7mi73Oyk8AESf-68vRvRGJNqylaNHAFucJzVN8KtKpQ_G1TdIefwtov-hlgr7qLGMziZ3QHwzUYnG0L5V219Xls0fGbUhbXEw18i4GxTfqMxlRRNdtRWUOkMzczUZojOrVea6tNdk6sH_l1SoQyWKDQ9bM-H1dIY3Yct_MzqdHZH7PdGT-w-G3DC-8SKynfsZ49ce1dDN2T5nLjBUsvQ0Cmm5HOPg2itFR92rtMP09thVrmVgZT_A88_ouow6oRfutHKlwuPfiDrPJCZTvmTm3lETSij5htHlAtIU-87B1BHKQZGp_f_uVDAqrnYfIbONUh7CroVNq2ST_FZpcCblFaOhMSBjp2c2Nq6_f1rZ_OHZkRBJouwFvHKtS7qVhRWx0wslx_yzi-TGrY27gMvQWilkxjAwVsegxu1G00]--></g></svg>