<?plantuml 1.2026.2beta3?><svg xmlns="http://www.w3.org/2000/svg" xmlns:xlink="http://www.w3.org/1999/xlink" contentStyleType="text/css" data-diagram-type="SEQUENCE" height="926px" preserveAspectRatio="none" style="width:1885px;height:926px;background:#FFFFFF;" version="1.1" viewBox="0 0 1885 926" width="1885px" zoomAndPan="magnify"><title>Modificaci&#243;n de Proveedores</title><defs/><g><text fill="#000000" font-family="sans-serif" font-size="14" font-weight="bold" lengthAdjust="spacing" textLength="228.2246" x="827.8037" y="27.9951">Modificaci&#243;n de Proveedores</text><g><title>admin.Administrador</title><rect fill="#000000" fill-opacity="0.00000" height="801.125" width="8" x="78.3315" y="118.5938"/><line style="stroke:#181818;stroke-width:0.5;stroke-dasharray:5,5;" x1="81.8315" x2="81.8315" y1="118.5938" y2="919.7188"/></g><g><title>gc.FarmaciaControlador</title><rect fill="#000000" fill-opacity="0.00000" height="801.125" width="8" x="983.5303" y="118.5938"/><line style="stroke:#181818;stroke-width:0.5;stroke-dasharray:5,5;" x1="987.0303" x2="987.0303" y1="118.5938" y2="919.7188"/></g><g><title/><rect fill="#FFFFFF" height="739.9922" style="stroke:#181818;stroke-width:1;" width="10" x="982.0303" y="147.7266"/></g><g><title>catProv...Singleton..</title><rect fill="#000000" fill-opacity="0.00000" height="801.125" width="8" x="1216.7832" y="118.5938"/><line style="stroke:#181818;stroke-width:0.5;stroke-dasharray:5,5;" x1="1220.2832" x2="1220.2832" y1="118.5938" y2="919.7188"/></g><g><title/><rect fill="#FFFFFF" height="132.5313" style="stroke:#181818;stroke-width:1;" width="10" x="1215.2832" y="176.8594"/></g><g><title>listaProv.i..Drogueria</title><rect fill="#000000" fill-opacity="0.00000" height="801.125" width="8" x="1390.3535" y="118.5938"/><line style="stroke:#181818;stroke-width:0.5;stroke-dasharray:5,5;" x1="1393.8535" x2="1393.8535" y1="118.5938" y2="919.7188"/></g><g><title/><rect fill="#FFFFFF" height="29.1328" style="stroke:#181818;stroke-width:1;" width="10" x="1388.8535" y="237.125"/></g><g><title>provEncontrado.Drogueria</title><rect fill="#000000" fill-opacity="0.00000" height="801.125" width="8" x="1582.0835" y="118.5938"/><line style="stroke:#181818;stroke-width:0.5;stroke-dasharray:5,5;" x1="1585.5835" x2="1585.5835" y1="118.5938" y2="919.7188"/></g><g><title/><rect fill="#FFFFFF" height="29.1328" style="stroke:#181818;stroke-width:1;" width="10" x="1580.5835" y="429.5938"/></g><g><title/><rect fill="#FFFFFF" height="29.1328" style="stroke:#181818;stroke-width:1;" width="10" x="1580.5835" y="487.8594"/></g><g><title/><rect fill="#FFFFFF" height="29.1328" style="stroke:#181818;stroke-width:1;" width="10" x="1580.5835" y="596.3906"/></g><g><title/><rect fill="#FFFFFF" height="29.1328" style="stroke:#181818;stroke-width:1;" width="10" x="1580.5835" y="829.4531"/></g><g><title>DireccionDrog.Direccion</title><rect fill="#000000" fill-opacity="0.00000" height="801.125" width="8" x="1784.2178" y="118.5938"/><line style="stroke:#181818;stroke-width:0.5;stroke-dasharray:5,5;" x1="1787.7178" x2="1787.7178" y1="118.5938" y2="919.7188"/></g><g><title/><rect fill="#FFFFFF" height="29.1328" style="stroke:#181818;stroke-width:1;" width="10" x="1782.7178" y="654.6563"/></g><g><title/><rect fill="#FFFFFF" height="29.1328" style="stroke:#181818;stroke-width:1;" width="10" x="1782.7178" y="712.9219"/></g><g><title/><rect fill="#FFFFFF" height="29.1328" style="stroke:#181818;stroke-width:1;" width="10" x="1782.7178" y="771.1875"/></g><text fill="#000000" font-family="sans-serif" font-size="14" lengthAdjust="spacing" textLength="147.6631" x="5" y="115.292">admin:Administrador</text><ellipse cx="81.8315" cy="50.7969" fill="#E2E2F0" rx="8" ry="8" style="stroke:#181818;stroke-width:0.5;"/><path d="M81.8315,58.7969 L81.8315,85.7969 M68.8315,66.7969 L94.8315,66.7969 M81.8315,85.7969 L68.8315,100.7969 M81.8315,85.7969 L94.8315,100.7969" fill="none" style="stroke:#181818;stroke-width:0.5;"/><rect fill="#E2E2F0" height="30.2969" rx="2.5" ry="2.5" style="stroke:#181818;stroke-width:0.5;" width="182.7725" x="895.644" y="87.2969"/><text fill="#000000" font-family="sans-serif" font-size="14" lengthAdjust="spacing" textLength="168.7725" x="902.644" y="107.292">gc:FarmaciaControlador</text><rect fill="#E2E2F0" height="46.5938" rx="2.5" ry="2.5" style="stroke:#181818;stroke-width:0.5;" width="163.7207" x="1138.4229" y="71"/><text fill="#000000" font-family="sans-serif" font-size="14" lengthAdjust="spacing" textLength="140.6289" x="1149.9688" y="90.9951">catProv:&#171;Singleton&#187;</text><text fill="#000000" font-family="sans-serif" font-size="14" lengthAdjust="spacing" textLength="149.7207" x="1145.4229" y="107.292">CatalogoProveedores</text><rect fill="#E2E2F0" height="30.2969" rx="2.5" ry="2.5" style="stroke:#181818;stroke-width:0.5;" width="163.4199" x="1312.1436" y="87.2969"/><text fill="#000000" font-family="sans-serif" font-size="14" lengthAdjust="spacing" textLength="149.4199" x="1319.1436" y="107.292">listaProv[i]:Drogueria</text><rect fill="#E2E2F0" height="30.2969" rx="2.5" ry="2.5" style="stroke:#181818;stroke-width:0.5;" width="200.04" x="1485.5635" y="87.2969"/><text fill="#000000" font-family="sans-serif" font-size="14" lengthAdjust="spacing" textLength="186.04" x="1492.5635" y="107.292">provEncontrado:Drogueria</text><rect fill="#E2E2F0" height="30.2969" rx="2.5" ry="2.5" style="stroke:#181818;stroke-width:0.5;" width="184.2285" x="1695.6035" y="87.2969"/><text fill="#000000" font-family="sans-serif" font-size="14" lengthAdjust="spacing" textLength="170.2285" x="1702.6035" y="107.292">DireccionDrog:Direccion</text><polygon fill="#181818" points="970.0303,143.7266,980.0303,147.7266,970.0303,151.7266,974.0303,147.7266" style="stroke:#181818;stroke-width:1;"/><line style="stroke:#181818;stroke-width:1;" x1="81.8315" x2="976.0303" y1="147.7266" y2="147.7266"/><text fill="#000000" font-family="sans-serif" font-size="13" lengthAdjust="spacing" textLength="876.1987" x="88.8315" y="142.6606">modificarDrogueria(nombre : String, email : String, tel : String, calle : String, num : INT, loc : String, CUIT : INT, canalPreferido : String)</text><polygon fill="#181818" points="1203.2832,172.8594,1213.2832,176.8594,1203.2832,180.8594,1207.2832,176.8594" style="stroke:#181818;stroke-width:1;"/><line style="stroke:#181818;stroke-width:1;" x1="992.0303" x2="1209.2832" y1="176.8594" y2="176.8594"/><text fill="#000000" font-family="sans-serif" font-size="13" lengthAdjust="spacing" textLength="170.6948" x="999.0303" y="171.7935">buscarProveedor(nombre)</text><path d="M1204.2832,188.8594 L1280.9072,188.8594 L1280.9072,195.9922 L1270.9072,205.9922 L1204.2832,205.9922 L1204.2832,188.8594" fill="#EEEEEE" style="stroke:#000000;stroke-width:1.5;"/><rect fill="none" height="85.3984" style="stroke:#000000;stroke-width:1.5;" width="322.7417" x="1204.2832" y="188.8594"/><text fill="#000000" font-family="sans-serif" font-size="13" font-weight="bold" lengthAdjust="spacing" textLength="31.624" x="1219.2832" y="201.9263">loop</text><text fill="#000000" font-family="sans-serif" font-size="11" font-weight="bold" lengthAdjust="spacing" textLength="215.1177" x="1295.9072" y="201.0698">[Para cada Drogueria en listaProv]</text><polygon fill="#181818" points="1376.8535,233.125,1386.8535,237.125,1376.8535,241.125,1380.8535,237.125" style="stroke:#181818;stroke-width:1;"/><line style="stroke:#181818;stroke-width:1;" x1="1225.2832" x2="1382.8535" y1="237.125" y2="237.125"/><text fill="#000000" font-family="sans-serif" font-size="13" lengthAdjust="spacing" textLength="61.8579" x="1232.2832" y="232.0591">getCUIT()</text><polygon fill="#181818" points="1236.2832,262.2578,1226.2832,266.2578,1236.2832,270.2578,1232.2832,266.2578" style="stroke:#181818;stroke-width:1;"/><line style="stroke:#181818;stroke-width:1;stroke-dasharray:2,2;" x1="1230.2832" x2="1387.8535" y1="266.2578" y2="266.2578"/><text fill="#000000" font-family="sans-serif" font-size="13" lengthAdjust="spacing" textLength="137.7441" x="1242.2832" y="261.1919">&#171;CUITactual : String&#187;</text><polygon fill="#181818" points="1003.0303,305.3906,993.0303,309.3906,1003.0303,313.3906,999.0303,309.3906" style="stroke:#181818;stroke-width:1;"/><line style="stroke:#181818;stroke-width:1;stroke-dasharray:2,2;" x1="997.0303" x2="1214.2832" y1="309.3906" y2="309.3906"/><text fill="#000000" font-family="sans-serif" font-size="13" lengthAdjust="spacing" textLength="199.2529" x="1009.0303" y="304.3247">&#171;DrogEncontrada : Drogueria&#187;</text><path d="M65.8315,321.3906 L130.2744,321.3906 L130.2744,328.5234 L120.2744,338.5234 L65.8315,338.5234 L65.8315,321.3906" fill="#EEEEEE" style="stroke:#000000;stroke-width:1.5;"/><rect fill="none" height="574.3281" style="stroke:#000000;stroke-width:1.5;" width="1742.8862" x="65.8315" y="321.3906"/><text fill="#000000" font-family="sans-serif" font-size="13" font-weight="bold" lengthAdjust="spacing" textLength="19.4429" x="80.8315" y="334.4575">alt</text><text fill="#000000" font-family="sans-serif" font-size="11" font-weight="bold" lengthAdjust="spacing" textLength="184.6743" x="145.2744" y="333.6011">[No se encontr&#243; la Drogueria]</text><line style="stroke:#000000;stroke-width:1;stroke-dasharray:2,2;" x1="65.8315" x2="1808.7178" y1="388.6563" y2="388.6563"/><text fill="#000000" font-family="sans-serif" font-size="11" font-weight="bold" lengthAdjust="spacing" textLength="165.4565" x="70.8315" y="400.8667">[Se encontr&#243; la Drogueria]</text><polygon fill="#181818" points="92.8315,365.6563,82.8315,369.6563,92.8315,373.6563,88.8315,369.6563" style="stroke:#181818;stroke-width:1;"/><line style="stroke:#181818;stroke-width:1;stroke-dasharray:2,2;" x1="86.8315" x2="981.0303" y1="369.6563" y2="369.6563"/><text fill="#000000" font-family="sans-serif" font-size="13" lengthAdjust="spacing" textLength="199.0498" x="98.8315" y="364.5903">"Error: El proveedor no existe"</text><polygon fill="#181818" points="1568.5835,425.5938,1578.5835,429.5938,1568.5835,433.5938,1572.5835,429.5938" style="stroke:#181818;stroke-width:1;"/><line style="stroke:#181818;stroke-width:1;" x1="992.0303" x2="1574.5835" y1="429.5938" y2="429.5938"/><text fill="#000000" font-family="sans-serif" font-size="13" lengthAdjust="spacing" textLength="153.3721" x="999.0303" y="424.5278">setEmail(email : String)</text><polygon fill="#181818" points="1003.0303,454.7266,993.0303,458.7266,1003.0303,462.7266,999.0303,458.7266" style="stroke:#181818;stroke-width:1;"/><line style="stroke:#181818;stroke-width:1;stroke-dasharray:2,2;" x1="997.0303" x2="1579.5835" y1="458.7266" y2="458.7266"/><text fill="#000000" font-family="sans-serif" font-size="13" lengthAdjust="spacing" textLength="49.6323" x="1009.0303" y="453.6606">&#171;NULL&#187;</text><polygon fill="#181818" points="1568.5835,483.8594,1578.5835,487.8594,1568.5835,491.8594,1572.5835,487.8594" style="stroke:#181818;stroke-width:1;"/><line style="stroke:#181818;stroke-width:1;" x1="992.0303" x2="1574.5835" y1="487.8594" y2="487.8594"/><text fill="#000000" font-family="sans-serif" font-size="13" lengthAdjust="spacing" textLength="148.3384" x="999.0303" y="482.7935">setNumTel(tel : String)</text><polygon fill="#181818" points="1003.0303,512.9922,993.0303,516.9922,1003.0303,520.9922,999.0303,516.9922" style="stroke:#181818;stroke-width:1;"/><line style="stroke:#181818;stroke-width:1;stroke-dasharray:2,2;" x1="997.0303" x2="1579.5835" y1="516.9922" y2="516.9922"/><text fill="#000000" font-family="sans-serif" font-size="13" lengthAdjust="spacing" textLength="49.6323" x="1009.0303" y="511.9263">&#171;NULL&#187;</text><path d="M997.0303,529.9922 L997.0303,569.9922 L1229.0303,569.9922 L1229.0303,539.9922 L1219.0303,529.9922 L997.0303,529.9922" fill="#FEFFDD" style="stroke:#181818;stroke-width:0.5;"/><path d="M1219.0303,529.9922 L1219.0303,539.9922 L1229.0303,539.9922 L1219.0303,529.9922" fill="#FEFFDD" style="stroke:#181818;stroke-width:0.5;"/><text fill="#000000" font-family="sans-serif" font-size="13" lengthAdjust="spacing" textLength="211.7451" x="1003.0303" y="547.0591">Accedemos al objeto compuesto</text><text fill="#000000" font-family="sans-serif" font-size="13" lengthAdjust="spacing" textLength="152.7373" x="1003.0303" y="562.1919">para editar sus campos</text><polygon fill="#181818" points="1568.5835,592.3906,1578.5835,596.3906,1568.5835,600.3906,1572.5835,596.3906" style="stroke:#181818;stroke-width:1;"/><line style="stroke:#181818;stroke-width:1;" x1="992.0303" x2="1574.5835" y1="596.3906" y2="596.3906"/><text fill="#000000" font-family="sans-serif" font-size="13" lengthAdjust="spacing" textLength="92.5552" x="999.0303" y="591.3247">getDireccion()</text><polygon fill="#181818" points="1003.0303,621.5234,993.0303,625.5234,1003.0303,629.5234,999.0303,625.5234" style="stroke:#181818;stroke-width:1;"/><line style="stroke:#181818;stroke-width:1;stroke-dasharray:2,2;" x1="997.0303" x2="1579.5835" y1="625.5234" y2="625.5234"/><text fill="#000000" font-family="sans-serif" font-size="13" lengthAdjust="spacing" textLength="182.2412" x="1009.0303" y="620.4575">&#171;DireccionDrog : Direccion&#187;</text><polygon fill="#181818" points="1770.7178,650.6563,1780.7178,654.6563,1770.7178,658.6563,1774.7178,654.6563" style="stroke:#181818;stroke-width:1;"/><line style="stroke:#181818;stroke-width:1;" x1="992.0303" x2="1776.7178" y1="654.6563" y2="654.6563"/><text fill="#000000" font-family="sans-serif" font-size="13" lengthAdjust="spacing" textLength="144.0537" x="999.0303" y="649.5903">setCalle(calle : String)</text><polygon fill="#181818" points="1003.0303,679.7891,993.0303,683.7891,1003.0303,687.7891,999.0303,683.7891" style="stroke:#181818;stroke-width:1;"/><line style="stroke:#181818;stroke-width:1;stroke-dasharray:2,2;" x1="997.0303" x2="1781.7178" y1="683.7891" y2="683.7891"/><text fill="#000000" font-family="sans-serif" font-size="13" lengthAdjust="spacing" textLength="49.6323" x="1009.0303" y="678.7231">&#171;NULL&#187;</text><polygon fill="#181818" points="1770.7178,708.9219,1780.7178,712.9219,1770.7178,716.9219,1774.7178,712.9219" style="stroke:#181818;stroke-width:1;"/><line style="stroke:#181818;stroke-width:1;" x1="992.0303" x2="1776.7178" y1="712.9219" y2="712.9219"/><text fill="#000000" font-family="sans-serif" font-size="13" lengthAdjust="spacing" textLength="145.2217" x="999.0303" y="707.856">setNumero(num : INT)</text><polygon fill="#181818" points="1003.0303,738.0547,993.0303,742.0547,1003.0303,746.0547,999.0303,742.0547" style="stroke:#181818;stroke-width:1;"/><line style="stroke:#181818;stroke-width:1;stroke-dasharray:2,2;" x1="997.0303" x2="1781.7178" y1="742.0547" y2="742.0547"/><text fill="#000000" font-family="sans-serif" font-size="13" lengthAdjust="spacing" textLength="49.6323" x="1009.0303" y="736.9888">&#171;NULL&#187;</text><polygon fill="#181818" points="1770.7178,767.1875,1780.7178,771.1875,1770.7178,775.1875,1774.7178,771.1875" style="stroke:#181818;stroke-width:1;"/><line style="stroke:#181818;stroke-width:1;" x1="992.0303" x2="1776.7178" y1="771.1875" y2="771.1875"/><text fill="#000000" font-family="sans-serif" font-size="13" lengthAdjust="spacing" textLength="162.1699" x="999.0303" y="766.1216">setLocalidad(loc : String)</text><polygon fill="#181818" points="1003.0303,796.3203,993.0303,800.3203,1003.0303,804.3203,999.0303,800.3203" style="stroke:#181818;stroke-width:1;"/><line style="stroke:#181818;stroke-width:1;stroke-dasharray:2,2;" x1="997.0303" x2="1781.7178" y1="800.3203" y2="800.3203"/><text fill="#000000" font-family="sans-serif" font-size="13" lengthAdjust="spacing" textLength="49.6323" x="1009.0303" y="795.2544">&#171;NULL&#187;</text><polygon fill="#181818" points="1568.5835,825.4531,1578.5835,829.4531,1568.5835,833.4531,1572.5835,829.4531" style="stroke:#181818;stroke-width:1;"/><line style="stroke:#181818;stroke-width:1;" x1="992.0303" x2="1574.5835" y1="829.4531" y2="829.4531"/><text fill="#000000" font-family="sans-serif" font-size="13" lengthAdjust="spacing" textLength="271.083" x="999.0303" y="824.3872">setCanalPreferido(canalPreferido : String)</text><polygon fill="#181818" points="1003.0303,854.5859,993.0303,858.5859,1003.0303,862.5859,999.0303,858.5859" style="stroke:#181818;stroke-width:1;"/><line style="stroke:#181818;stroke-width:1;stroke-dasharray:2,2;" x1="997.0303" x2="1579.5835" y1="858.5859" y2="858.5859"/><text fill="#000000" font-family="sans-serif" font-size="13" lengthAdjust="spacing" textLength="49.6323" x="1009.0303" y="853.52">&#171;NULL&#187;</text><polygon fill="#181818" points="92.8315,883.7188,82.8315,887.7188,92.8315,891.7188,88.8315,887.7188" style="stroke:#181818;stroke-width:1;"/><line style="stroke:#181818;stroke-width:1;stroke-dasharray:2,2;" x1="86.8315" x2="981.0303" y1="887.7188" y2="887.7188"/><text fill="#000000" font-family="sans-serif" font-size="13" lengthAdjust="spacing" textLength="299.7998" x="98.8315" y="882.6528">"&#201;xito: Proveedor modificado correctamente."</text><?plantuml-src lLRDZjCm4BxdAOPUIALT93X6IwMIBLAafQtQBXVWC7LcWv5ZHuwpMdW3pZm79nwXByOuRRn9eKA8YXowiZtppUytiqygYqM9uCXy0MSRYZxAdE3E6BSr3v6JJX6yCRcyamA5tFtGmCzBQ-w9ScEfZY8KpbWOOLvAdKpzhwoTHNuT0TRGtaSLMYU5h50x61KYUOssP3nCZNRMg21TYA6eGEUD9LTNQwaBHSxeoUIzJj6XCeNfETAg7yI768hzGN_zJdv8hgqf6h8IzyvPYvz_rQZuPgQ5zuqzEzBnZuljfw76jRGaX3JQooRXr2haqdhvw2cy_DUFCR9vbcQBCu7DrBu-GFf-znr16NONdV-bkk0JXrz3BBLGpMVIkTbB42ZqOVaWkIN6qHxaSiBrWmJAGx_OaBXOct9hYT_Mpd8XBu1AbAftTjG_2LIgBwsRaa_PV7F13eZUGtgRRReNWHhLqj8TMsHFEw6nxr1vZuvyTt7Gb__wCSPokbx0ymHUtQxJwGfcDx1SBTxEPjUBrLaiS1uvcuTsvb2sJStv3Er-o6SljAxp8sLC1Kkqo5SvGYW1bnW24oBWhqDdGu47RAeWvxCQZrkXOE2HAkrrKBWS-7brrPQ4jHfyB2XC9grMJh-1uxQAek1BrqCCv5qFB4I-Uuo5yNfO8VOprlP50cyMrzdhB9scsUxR_2pOg1pC3TJ4nMZZsltmJ0fnjKdofVSbQIcLm6XchR69fshLbH-q0NhWOj8e8iLmwpyYJhgvnP0rkPcdNpmauL71kpddBplTNddcjpStlvQrKpfbTzwK6r9nd-rdDwiDtrXPV7HWxZpduV1DXQ2SIfvWt9jc-uct2GXJLWtLpWIfodE7SkdGGjtudL9MfcwVkLLRzFRmsn2PF67untyN6GnsY6_txdmwtYC_zfjcd-dKZz1uE4YF73eifXPxh_d7HFTKJjZb2fCrSPZO_yFcZU4uPOvvtDyEPxFSNZ-5T1n6mWgccrNswdQpMFl1lypuRnn8DpxL_UbWGyKd5zRv2358Md-gxBu-I6UInt_bmjREFIaijvx3ahIZPwDZSAOKC-4d?></g></svg>