<svg xmlns="http://www.w3.org/2000/svg" xmlns:xlink="http://www.w3.org/1999/xlink" contentStyleType="text/css" data-diagram-type="SEQUENCE" height="1790px" preserveAspectRatio="none" style="width:1816px;height:1790px;background:#FFFFFF;" version="1.1" viewBox="0 0 1816 1790" width="1816px" zoomAndPan="magnify"><title>Proceso de Pago: Validaci&#243;n, Cuenta Corriente, Estados y Reintentos</title><defs/><g><text fill="#000000" font-family="sans-serif" font-size="14" font-weight="bold" lengthAdjust="spacing" textLength="545.6172" x="636.7996" y="27.9951">Proceso de Pago: Validaci&#243;n, Cuenta Corriente, Estados y Reintentos</text><g><title>Interfaz. NegCtrl</title><rect fill="#FFFFFF" height="1623.9922" style="stroke:#181818;stroke-width:1;" width="10" x="364.6079" y="149.7266"/></g><g><title>Venta. objVenta</title><rect fill="#FFFFFF" height="29.1328" style="stroke:#181818;stroke-width:1;" width="10" x="632.978" y="232.125"/></g><g><title>Venta. objVenta</title><rect fill="#FFFFFF" height="99.5625" style="stroke:#181818;stroke-width:1;" width="10" x="632.978" y="513.4531"/></g><g><title>Venta. objVenta</title><rect fill="#FFFFFF" height="29.1328" style="stroke:#181818;stroke-width:1;" width="10" x="632.978" y="750.0234"/></g><g><title>Venta. objVenta</title><rect fill="#FFFFFF" height="99.5625" style="stroke:#181818;stroke-width:1;" width="10" x="632.978" y="914.8203"/></g><g><title>Venta. objVenta</title><rect fill="#FFFFFF" height="29.1328" style="stroke:#181818;stroke-width:1;" width="10" x="632.978" y="1176.5234"/></g><g><title>Venta. objVenta</title><rect fill="#FFFFFF" height="176.7969" style="stroke:#181818;stroke-width:1;" width="10" x="632.978" y="1234.7891"/></g><g><title>Venta. objVenta</title><rect fill="#FFFFFF" height="29.1328" style="stroke:#181818;stroke-width:1;" width="10" x="632.978" y="1686.4531"/></g><g><title>Cliente. objCliente</title><rect fill="#FFFFFF" height="29.1328" style="stroke:#181818;stroke-width:1;" width="10" x="777.7622" y="314.5234"/></g><g><title>Cliente. objCliente</title><rect fill="#FFFFFF" height="29.1328" style="stroke:#181818;stroke-width:1;" width="10" x="777.7622" y="372.7891"/></g><g><title>Cliente. objCliente</title><rect fill="#FFFFFF" height="29.1328" style="stroke:#181818;stroke-width:1;" width="10" x="777.7622" y="455.1875"/></g><g><title>Pago. objPago</title><rect fill="#FFFFFF" height="31.2969" style="stroke:#181818;stroke-width:1;" width="10" x="915.8882" y="552.5859"/></g><g><title>Pago. objPago</title><rect fill="#FFFFFF" height="31.2969" style="stroke:#181818;stroke-width:1;" width="10" x="915.8882" y="953.9531"/></g><g><title>ServicioPagos. ExtSrv</title><rect fill="#FFFFFF" height="29.1328" style="stroke:#181818;stroke-width:1;" width="10" x="1065.6489" y="832.4219"/></g><g><title>DetalleVenta. det</title><rect fill="#FFFFFF" height="87.3984" style="stroke:#181818;stroke-width:1;" width="10" x="1227.2529" y="1288.0547"/></g><g><title>Medicamento. med</title><rect fill="#FFFFFF" height="29.1328" style="stroke:#181818;stroke-width:1;" width="10" x="1422.6821" y="1317.1875"/></g><g><title>Ticketera</title><rect fill="#FFFFFF" height="29.1328" style="stroke:#181818;stroke-width:1;" width="10" x="1546.9448" y="1440.7188"/></g><g><title>ServicioCorreos. ExtSrv</title><rect fill="#FFFFFF" height="30" style="stroke:#181818;stroke-width:1;" width="10" x="1685.9048" y="1523.1172"/></g><rect fill="none" height="1601.9922" style="stroke:#000000;stroke-width:1.5;" width="1800.2163" x="10" y="164.7266"/><rect fill="none" height="848" style="stroke:#000000;stroke-width:1.5;" width="1153.6816" x="20" y="276.2578"/><rect fill="none" height="290.1641" style="stroke:#000000;stroke-width:1.5;" width="947.6162" x="40" y="416.9219"/><rect fill="none" height="323.1016" style="stroke:#000000;stroke-width:1.5;" width="1133.6816" x="30" y="794.1563"/><rect fill="none" height="189.7656" style="stroke:#000000;stroke-width:1.5;" width="947.6162" x="40" y="876.5547"/><rect fill="none" height="621.4609" style="stroke:#000000;stroke-width:1.5;" width="1770.2163" x="30" y="1138.2578"/><rect fill="none" height="133.6641" style="stroke:#000000;stroke-width:1.5;" width="947.7046" x="564.5918" y="1249.7891"/><rect fill="none" height="76.2656" style="stroke:#000000;stroke-width:1.5;" width="1495.4917" x="294.7246" y="1484.8516"/><rect fill="none" height="133.6641" style="stroke:#000000;stroke-width:1.5;" width="671.3643" x="40" y="1619.0547"/><g><title>Empleado</title><rect fill="#000000" fill-opacity="0.00000" height="1665.125" width="8" x="83.9521" y="118.5938"/><line style="stroke:#181818;stroke-width:0.5;stroke-dasharray:5,5;" x1="87" x2="87" y1="118.5938" y2="1783.7188"/></g><g><title>Interfaz. NegCtrl</title><rect fill="#000000" fill-opacity="0.00000" height="1665.125" width="8" x="365.6079" y="118.5938"/><line style="stroke:#181818;stroke-width:0.5;stroke-dasharray:5,5;" x1="368.7246" x2="368.7246" y1="118.5938" y2="1783.7188"/></g><g><title>Venta. objVenta</title><rect fill="#000000" fill-opacity="0.00000" height="1665.125" width="8" x="633.978" y="118.5938"/><line style="stroke:#181818;stroke-width:0.5;stroke-dasharray:5,5;" x1="637.5918" x2="637.5918" y1="118.5938" y2="1783.7188"/></g><g><title>Cliente. objCliente</title><rect fill="#000000" fill-opacity="0.00000" height="1665.125" width="8" x="778.7622" y="118.5938"/><line style="stroke:#181818;stroke-width:0.5;stroke-dasharray:5,5;" x1="782.3643" x2="782.3643" y1="118.5938" y2="1783.7188"/></g><g><title>Pago. objPago</title><rect fill="#000000" fill-opacity="0.00000" height="830.25" width="8" x="916.8882" y="953.4688"/><line style="stroke:#181818;stroke-width:0.5;stroke-dasharray:5,5;" x1="920.1602" x2="920.1602" y1="953.4688" y2="1783.7188"/></g><g><title>ServicioPagos. ExtSrv</title><rect fill="#000000" fill-opacity="0.00000" height="1665.125" width="8" x="1066.6489" y="118.5938"/><line style="stroke:#181818;stroke-width:0.5;stroke-dasharray:5,5;" x1="1070.6162" x2="1070.6162" y1="118.5938" y2="1783.7188"/></g><g><title>DetalleVenta. det</title><rect fill="#000000" fill-opacity="0.00000" height="1665.125" width="8" x="1228.2529" y="118.5938"/><line style="stroke:#181818;stroke-width:0.5;stroke-dasharray:5,5;" x1="1231.6816" x2="1231.6816" y1="118.5938" y2="1783.7188"/></g><g><title>Medicamento. med</title><rect fill="#000000" fill-opacity="0.00000" height="1665.125" width="8" x="1423.6821" y="118.5938"/><line style="stroke:#181818;stroke-width:0.5;stroke-dasharray:5,5;" x1="1427.0679" x2="1427.0679" y1="118.5938" y2="1783.7188"/></g><g><title>Ticketera</title><rect fill="#000000" fill-opacity="0.00000" height="1665.125" width="8" x="1547.9448" y="118.5938"/><line style="stroke:#181818;stroke-width:0.5;stroke-dasharray:5,5;" x1="1551.2964" x2="1551.2964" y1="118.5938" y2="1783.7188"/></g><g><title>ServicioCorreos. ExtSrv</title><rect fill="#000000" fill-opacity="0.00000" height="1665.125" width="8" x="1686.9048" y="118.5938"/><line style="stroke:#181818;stroke-width:0.5;stroke-dasharray:5,5;" x1="1690.5933" x2="1690.5933" y1="118.5938" y2="1783.7188"/></g><g class="participant participant-head" data-participant="emp"><text fill="#000000" font-family="sans-serif" font-size="14" lengthAdjust="spacing" textLength="69.9043" x="50" y="115.292">Empleado</text><ellipse cx="87.9521" cy="50.7969" fill="#E2E2F0" rx="8" ry="8" style="stroke:#181818;stroke-width:0.5;"/><path d="M87.9521,58.7969 L87.9521,85.7969 M74.9521,66.7969 L100.9521,66.7969 M87.9521,85.7969 L74.9521,100.7969 M87.9521,85.7969 L100.9521,100.7969" fill="none" style="stroke:#181818;stroke-width:0.5;"/></g><g class="participant participant-head" data-participant="NegCtrl"><rect fill="#E2E2F0" height="30.2969" rx="2.5" ry="2.5" style="stroke:#181818;stroke-width:0.5;" width="129.7666" x="304.7246" y="87.2969"/><text fill="#000000" font-family="sans-serif" font-size="14" lengthAdjust="spacing" textLength="115.7666" x="311.7246" y="107.292">Interfaz: NegCtrl</text></g><g class="participant participant-head" data-participant="venta"><rect fill="#E2E2F0" height="30.2969" rx="2.5" ry="2.5" style="stroke:#181818;stroke-width:0.5;" width="126.7725" x="574.5918" y="87.2969"/><text fill="#000000" font-family="sans-serif" font-size="14" lengthAdjust="spacing" textLength="112.7725" x="581.5918" y="107.292">Venta: objVenta</text></g><g class="participant participant-head" data-participant="cli"><rect fill="#E2E2F0" height="30.2969" rx="2.5" ry="2.5" style="stroke:#181818;stroke-width:0.5;" width="142.7959" x="711.3643" y="87.2969"/><text fill="#000000" font-family="sans-serif" font-size="14" lengthAdjust="spacing" textLength="128.7959" x="718.3643" y="107.292">Cliente: objCliente</text></g><g class="participant participant-head" data-participant="srvPagos"><rect fill="#E2E2F0" height="30.2969" rx="2.5" ry="2.5" style="stroke:#181818;stroke-width:0.5;" width="166.0654" x="987.6162" y="87.2969"/><text fill="#000000" font-family="sans-serif" font-size="14" lengthAdjust="spacing" textLength="152.0654" x="994.6162" y="107.292">ServicioPagos: ExtSrv</text></g><g class="participant participant-head" data-participant="det"><rect fill="#E2E2F0" height="30.2969" rx="2.5" ry="2.5" style="stroke:#181818;stroke-width:0.5;" width="137.1426" x="1163.6816" y="87.2969"/><text fill="#000000" font-family="sans-serif" font-size="14" lengthAdjust="spacing" textLength="123.1426" x="1170.6816" y="107.292">DetalleVenta: det</text></g><g class="participant participant-head" data-participant="med"><rect fill="#E2E2F0" height="30.2969" rx="2.5" ry="2.5" style="stroke:#181818;stroke-width:0.5;" width="149.2285" x="1353.0679" y="87.2969"/><text fill="#000000" font-family="sans-serif" font-size="14" lengthAdjust="spacing" textLength="135.2285" x="1360.0679" y="107.292">Medicamento: med</text></g><g class="participant participant-head" data-participant="printer"><rect fill="#E2E2F0" height="30.2969" rx="2.5" ry="2.5" style="stroke:#181818;stroke-width:0.5;" width="79.2969" x="1512.2964" y="87.2969"/><text fill="#000000" font-family="sans-serif" font-size="14" lengthAdjust="spacing" textLength="65.2969" x="1519.2964" y="107.292">Ticketera</text></g><g class="participant participant-head" data-participant="mailer"><rect fill="#E2E2F0" height="30.2969" rx="2.5" ry="2.5" style="stroke:#181818;stroke-width:0.5;" width="178.623" x="1601.5933" y="87.2969"/><text fill="#000000" font-family="sans-serif" font-size="14" lengthAdjust="spacing" textLength="164.623" x="1608.5933" y="107.292">ServicioCorreos: ExtSrv</text></g><g><title>Interfaz. NegCtrl</title><rect fill="#FFFFFF" height="1623.9922" style="stroke:#181818;stroke-width:1;" width="10" x="364.6079" y="149.7266"/></g><g><title>Venta. objVenta</title><rect fill="#FFFFFF" height="29.1328" style="stroke:#181818;stroke-width:1;" width="10" x="632.978" y="232.125"/></g><g><title>Venta. objVenta</title><rect fill="#FFFFFF" height="99.5625" style="stroke:#181818;stroke-width:1;" width="10" x="632.978" y="513.4531"/></g><g><title>Venta. objVenta</title><rect fill="#FFFFFF" height="29.1328" style="stroke:#181818;stroke-width:1;" width="10" x="632.978" y="750.0234"/></g><g><title>Venta. objVenta</title><rect fill="#FFFFFF" height="99.5625" style="stroke:#181818;stroke-width:1;" width="10" x="632.978" y="914.8203"/></g><g><title>Venta. objVenta</title><rect fill="#FFFFFF" height="29.1328" style="stroke:#181818;stroke-width:1;" width="10" x="632.978" y="1176.5234"/></g><g><title>Venta. objVenta</title><rect fill="#FFFFFF" height="176.7969" style="stroke:#181818;stroke-width:1;" width="10" x="632.978" y="1234.7891"/></g><g><title>Venta. objVenta</title><rect fill="#FFFFFF" height="29.1328" style="stroke:#181818;stroke-width:1;" width="10" x="632.978" y="1686.4531"/></g><g><title>Cliente. objCliente</title><rect fill="#FFFFFF" height="29.1328" style="stroke:#181818;stroke-width:1;" width="10" x="777.7622" y="314.5234"/></g><g><title>Cliente. objCliente</title><rect fill="#FFFFFF" height="29.1328" style="stroke:#181818;stroke-width:1;" width="10" x="777.7622" y="372.7891"/></g><g><title>Cliente. objCliente</title><rect fill="#FFFFFF" height="29.1328" style="stroke:#181818;stroke-width:1;" width="10" x="777.7622" y="455.1875"/></g><g><title>Pago. objPago</title><rect fill="#FFFFFF" height="31.2969" style="stroke:#181818;stroke-width:1;" width="10" x="915.8882" y="552.5859"/></g><g><title>Pago. objPago</title><rect fill="#FFFFFF" height="31.2969" style="stroke:#181818;stroke-width:1;" width="10" x="915.8882" y="953.9531"/></g><g><title>ServicioPagos. ExtSrv</title><rect fill="#FFFFFF" height="29.1328" style="stroke:#181818;stroke-width:1;" width="10" x="1065.6489" y="832.4219"/></g><g><title>DetalleVenta. det</title><rect fill="#FFFFFF" height="87.3984" style="stroke:#181818;stroke-width:1;" width="10" x="1227.2529" y="1288.0547"/></g><g><title>Medicamento. med</title><rect fill="#FFFFFF" height="29.1328" style="stroke:#181818;stroke-width:1;" width="10" x="1422.6821" y="1317.1875"/></g><g><title>Ticketera</title><rect fill="#FFFFFF" height="29.1328" style="stroke:#181818;stroke-width:1;" width="10" x="1546.9448" y="1440.7188"/></g><g><title>ServicioCorreos. ExtSrv</title><rect fill="#FFFFFF" height="30" style="stroke:#181818;stroke-width:1;" width="10" x="1685.9048" y="1523.1172"/></g><g class="message" data-participant-1="emp" data-participant-2="NegCtrl"><polygon fill="#181818" points="352.6079,145.7266,362.6079,149.7266,352.6079,153.7266,356.6079,149.7266" style="stroke:#181818;stroke-width:1;"/><line style="stroke:#181818;stroke-width:1;" x1="87.9521" x2="358.6079" y1="149.7266" y2="149.7266"/><text fill="#000000" font-family="sans-serif" font-size="13" lengthAdjust="spacing" textLength="81.688" x="94.9521" y="144.6606">iniciarPago()</text></g><path d="M10,164.7266 L86.624,164.7266 L86.624,171.8594 L76.624,181.8594 L10,181.8594 L10,164.7266" fill="#EEEEEE" style="stroke:#000000;stroke-width:1.5;"/><rect fill="none" height="1601.9922" style="stroke:#000000;stroke-width:1.5;" width="1800.2163" x="10" y="164.7266"/><text fill="#000000" font-family="sans-serif" font-size="13" font-weight="bold" lengthAdjust="spacing" textLength="31.624" x="25" y="177.7935">loop</text><text fill="#000000" font-family="sans-serif" font-size="11" font-weight="bold" lengthAdjust="spacing" textLength="222.8413" x="101.624" y="176.937">[Mientras la venta est&#233; PENDIENTE]</text><g class="message" data-participant-1="emp" data-participant-2="NegCtrl"><polygon fill="#181818" points="352.6079,198.9922,362.6079,202.9922,352.6079,206.9922,356.6079,202.9922" style="stroke:#181818;stroke-width:1;"/><line style="stroke:#181818;stroke-width:1;" x1="87.9521" x2="358.6079" y1="202.9922" y2="202.9922"/><text fill="#000000" font-family="sans-serif" font-size="13" lengthAdjust="spacing" textLength="226.6367" x="94.9521" y="197.9263">ingresarMedioPago(medio, cuotas)</text></g><g class="message" data-participant-1="NegCtrl" data-participant-2="venta"><polygon fill="#181818" points="620.978,228.125,630.978,232.125,620.978,236.125,624.978,232.125" style="stroke:#181818;stroke-width:1;"/><line style="stroke:#181818;stroke-width:1;" x1="374.6079" x2="626.978" y1="232.125" y2="232.125"/><text fill="#000000" font-family="sans-serif" font-size="13" lengthAdjust="spacing" textLength="224.4658" x="381.6079" y="227.0591">calcularMontoFinal(medio, cuotas)</text></g><g class="message" data-participant-1="venta" data-participant-2="NegCtrl"><polygon fill="#181818" points="385.6079,257.2578,375.6079,261.2578,385.6079,265.2578,381.6079,261.2578" style="stroke:#181818;stroke-width:1;"/><line style="stroke:#181818;stroke-width:1;stroke-dasharray:2,2;" x1="379.6079" x2="636.978" y1="261.2578" y2="261.2578"/><text fill="#000000" font-family="sans-serif" font-size="13" lengthAdjust="spacing" textLength="88.7212" x="391.6079" y="256.1919">&#171;montoFinal&#187;</text></g><path d="M20,276.2578 L84.4429,276.2578 L84.4429,283.3906 L74.4429,293.3906 L20,293.3906 L20,276.2578" fill="#EEEEEE" style="stroke:#000000;stroke-width:1.5;"/><rect fill="none" height="848" style="stroke:#000000;stroke-width:1.5;" width="1153.6816" x="20" y="276.2578"/><text fill="#000000" font-family="sans-serif" font-size="13" font-weight="bold" lengthAdjust="spacing" textLength="19.4429" x="35" y="289.3247">alt</text><text fill="#000000" font-family="sans-serif" font-size="11" font-weight="bold" lengthAdjust="spacing" textLength="191.6997" x="99.4429" y="288.4683">[medio == "Cuenta Corriente"]</text><g class="message" data-participant-1="NegCtrl" data-participant-2="cli"><polygon fill="#181818" points="765.7622,310.5234,775.7622,314.5234,765.7622,318.5234,769.7622,314.5234" style="stroke:#181818;stroke-width:1;"/><line style="stroke:#181818;stroke-width:1;" x1="374.6079" x2="771.7622" y1="314.5234" y2="314.5234"/><text fill="#000000" font-family="sans-serif" font-size="13" lengthAdjust="spacing" textLength="90.4541" x="381.6079" y="309.4575">esFrecuente()</text></g><g class="message" data-participant-1="cli" data-participant-2="NegCtrl"><polygon fill="#181818" points="385.6079,339.6563,375.6079,343.6563,385.6079,347.6563,381.6079,343.6563" style="stroke:#181818;stroke-width:1;"/><line style="stroke:#181818;stroke-width:1;stroke-dasharray:2,2;" x1="379.6079" x2="781.7622" y1="343.6563" y2="343.6563"/><text fill="#000000" font-family="sans-serif" font-size="13" lengthAdjust="spacing" textLength="137.2998" x="391.6079" y="338.5903">&#171;esFrecuente : Bool&#187;</text></g><g class="message" data-participant-1="NegCtrl" data-participant-2="cli"><polygon fill="#181818" points="765.7622,368.7891,775.7622,372.7891,765.7622,376.7891,769.7622,372.7891" style="stroke:#181818;stroke-width:1;"/><line style="stroke:#181818;stroke-width:1;" x1="374.6079" x2="771.7622" y1="372.7891" y2="372.7891"/><text fill="#000000" font-family="sans-serif" font-size="13" lengthAdjust="spacing" textLength="135.8398" x="381.6079" y="367.7231">getSaldoDisponible()</text></g><g class="message" data-participant-1="cli" data-participant-2="NegCtrl"><polygon fill="#181818" points="385.6079,397.9219,375.6079,401.9219,385.6079,405.9219,381.6079,401.9219" style="stroke:#181818;stroke-width:1;"/><line style="stroke:#181818;stroke-width:1;stroke-dasharray:2,2;" x1="379.6079" x2="781.7622" y1="401.9219" y2="401.9219"/><text fill="#000000" font-family="sans-serif" font-size="13" lengthAdjust="spacing" textLength="163.5283" x="391.6079" y="396.856">&#171;saldoDisponible : Float&#187;</text></g><path d="M40,416.9219 L104.4429,416.9219 L104.4429,424.0547 L94.4429,434.0547 L40,434.0547 L40,416.9219" fill="#EEEEEE" style="stroke:#000000;stroke-width:1.5;"/><rect fill="none" height="290.1641" style="stroke:#000000;stroke-width:1.5;" width="947.6162" x="40" y="416.9219"/><text fill="#000000" font-family="sans-serif" font-size="13" font-weight="bold" lengthAdjust="spacing" textLength="19.4429" x="55" y="429.9888">alt</text><text fill="#000000" font-family="sans-serif" font-size="11" font-weight="bold" lengthAdjust="spacing" textLength="316.1587" x="119.4429" y="429.1323">[esFrecuente AND saldoDisponible &gt;= montoFinal]</text><g class="message" data-participant-1="NegCtrl" data-participant-2="cli"><polygon fill="#181818" points="765.7622,451.1875,775.7622,455.1875,765.7622,459.1875,769.7622,455.1875" style="stroke:#181818;stroke-width:1;"/><line style="stroke:#181818;stroke-width:1;" x1="374.6079" x2="771.7622" y1="455.1875" y2="455.1875"/><text fill="#000000" font-family="sans-serif" font-size="13" lengthAdjust="spacing" textLength="182.7681" x="381.6079" y="450.1216">actualizarSaldo(montoFinal)</text></g><g class="message" data-participant-1="cli" data-participant-2="NegCtrl"><polygon fill="#181818" points="385.6079,480.3203,375.6079,484.3203,385.6079,488.3203,381.6079,484.3203" style="stroke:#181818;stroke-width:1;"/><line style="stroke:#181818;stroke-width:1;stroke-dasharray:2,2;" x1="379.6079" x2="781.7622" y1="484.3203" y2="484.3203"/><text fill="#000000" font-family="sans-serif" font-size="13" lengthAdjust="spacing" textLength="49.6323" x="391.6079" y="479.2544">&#171;NULL&#187;</text></g><g class="message" data-participant-1="NegCtrl" data-participant-2="venta"><polygon fill="#181818" points="620.978,509.4531,630.978,513.4531,620.978,517.4531,624.978,513.4531" style="stroke:#181818;stroke-width:1;"/><line style="stroke:#181818;stroke-width:1;" x1="374.6079" x2="626.978" y1="513.4531" y2="513.4531"/><text fill="#000000" font-family="sans-serif" font-size="13" lengthAdjust="spacing" textLength="239.3701" x="381.6079" y="508.3872">registrarPago(montoFinal, "Cta Cte")</text></g><g class="message" data-participant-1="venta" data-participant-2="pago"><polygon fill="#181818" points="852.1602,538.5859,862.1602,542.5859,852.1602,546.5859,856.1602,542.5859" style="stroke:#181818;stroke-width:1;"/><line style="stroke:#181818;stroke-width:1;" x1="642.978" x2="858.1602" y1="542.5859" y2="542.5859"/><text fill="#000000" font-family="sans-serif" font-size="13" lengthAdjust="spacing" textLength="193.1782" x="649.978" y="537.52">create(montoFinal, "Cta Cte")</text></g><rect fill="#E2E2F0" height="30.2969" rx="2.5" ry="2.5" style="stroke:#181818;stroke-width:0.5;" width="113.4561" x="864.1602" y="521.4531"/><text fill="#000000" font-family="sans-serif" font-size="14" lengthAdjust="spacing" textLength="99.4561" x="871.1602" y="541.4482">Pago: objPago</text><g class="message" data-participant-1="pago" data-participant-2="venta"><polygon fill="#181818" points="653.978,579.8828,643.978,583.8828,653.978,587.8828,649.978,583.8828" style="stroke:#181818;stroke-width:1;"/><line style="stroke:#181818;stroke-width:1;stroke-dasharray:2,2;" x1="647.978" x2="919.8882" y1="583.8828" y2="583.8828"/><text fill="#000000" font-family="sans-serif" font-size="13" lengthAdjust="spacing" textLength="67.7358" x="659.978" y="578.8169">&#171;objPago&#187;</text></g><g class="message" data-participant-1="venta" data-participant-2="NegCtrl"><polygon fill="#181818" points="385.6079,609.0156,375.6079,613.0156,385.6079,617.0156,381.6079,613.0156" style="stroke:#181818;stroke-width:1;"/><line style="stroke:#181818;stroke-width:1;stroke-dasharray:2,2;" x1="379.6079" x2="636.978" y1="613.0156" y2="613.0156"/><text fill="#000000" font-family="sans-serif" font-size="13" lengthAdjust="spacing" textLength="49.6323" x="391.6079" y="607.9497">&#171;NULL&#187;</text></g><line style="stroke:#000000;stroke-width:1;stroke-dasharray:2,2;" x1="40" x2="987.6162" y1="622.0156" y2="622.0156"/><text fill="#000000" font-family="sans-serif" font-size="11" font-weight="bold" lengthAdjust="spacing" textLength="274.522" x="45" y="632.2261">[Error: No es frecuente o Saldo insuficiente]</text><g class="message" data-participant-1="NegCtrl" data-participant-2="emp"><polygon fill="#181818" points="98.9521,652.9531,88.9521,656.9531,98.9521,660.9531,94.9521,656.9531" style="stroke:#181818;stroke-width:1;"/><line style="stroke:#181818;stroke-width:1;stroke-dasharray:2,2;" x1="92.9521" x2="363.6079" y1="656.9531" y2="656.9531"/><text fill="#000000" font-family="sans-serif" font-size="13" lengthAdjust="spacing" textLength="226.5479" x="104.9521" y="651.8872">&#171;Error: Cliente no apto o sin cupo&#187;</text></g><g class="message" data-participant-1="NegCtrl" data-participant-2="NegCtrl"><line style="stroke:#181818;stroke-width:1;" x1="374.6079" x2="416.6079" y1="686.0859" y2="686.0859"/><line style="stroke:#181818;stroke-width:1;" x1="416.6079" x2="416.6079" y1="686.0859" y2="699.0859"/><line style="stroke:#181818;stroke-width:1;" x1="375.6079" x2="416.6079" y1="699.0859" y2="699.0859"/><polygon fill="#181818" points="385.6079,695.0859,375.6079,699.0859,385.6079,703.0859,381.6079,699.0859" style="stroke:#181818;stroke-width:1;"/><text fill="#000000" font-family="sans-serif" font-size="13" lengthAdjust="spacing" textLength="129.8032" x="381.6079" y="681.02">pagoExitoso = false</text></g><line style="stroke:#000000;stroke-width:1;stroke-dasharray:2,2;" x1="20" x2="1173.6816" y1="715.0859" y2="715.0859"/><text fill="#000000" font-family="sans-serif" font-size="11" font-weight="bold" lengthAdjust="spacing" textLength="282.1812" x="25" y="725.2964">[Medio Externo (Tarjeta/QR/Billetera Virtual)]</text><g class="message" data-participant-1="NegCtrl" data-participant-2="venta"><polygon fill="#181818" points="620.978,746.0234,630.978,750.0234,620.978,754.0234,624.978,750.0234" style="stroke:#181818;stroke-width:1;"/><line style="stroke:#181818;stroke-width:1;" x1="374.6079" x2="626.978" y1="750.0234" y2="750.0234"/><text fill="#000000" font-family="sans-serif" font-size="13" lengthAdjust="spacing" textLength="222.1553" x="381.6079" y="744.9575">validarReglasPago(medio, cuotas)</text></g><g class="message" data-participant-1="venta" data-participant-2="NegCtrl"><polygon fill="#181818" points="385.6079,775.1563,375.6079,779.1563,385.6079,783.1563,381.6079,779.1563" style="stroke:#181818;stroke-width:1;"/><line style="stroke:#181818;stroke-width:1;stroke-dasharray:2,2;" x1="379.6079" x2="636.978" y1="779.1563" y2="779.1563"/><text fill="#000000" font-family="sans-serif" font-size="13" lengthAdjust="spacing" textLength="112.0488" x="391.6079" y="774.0903">&#171;esValido : Bool&#187;</text></g><path d="M30,794.1563 L94.4429,794.1563 L94.4429,801.2891 L84.4429,811.2891 L30,811.2891 L30,794.1563" fill="#EEEEEE" style="stroke:#000000;stroke-width:1.5;"/><rect fill="none" height="323.1016" style="stroke:#000000;stroke-width:1.5;" width="1133.6816" x="30" y="794.1563"/><text fill="#000000" font-family="sans-serif" font-size="13" font-weight="bold" lengthAdjust="spacing" textLength="19.4429" x="45" y="807.2231">alt</text><text fill="#000000" font-family="sans-serif" font-size="11" font-weight="bold" lengthAdjust="spacing" textLength="115.0381" x="109.4429" y="806.3667">[esValido == true]</text><g class="message" data-participant-1="NegCtrl" data-participant-2="srvPagos"><polygon fill="#181818" points="1053.6489,828.4219,1063.6489,832.4219,1053.6489,836.4219,1057.6489,832.4219" style="stroke:#181818;stroke-width:1;"/><line style="stroke:#181818;stroke-width:1;" x1="374.6079" x2="1059.6489" y1="832.4219" y2="832.4219"/><text fill="#000000" font-family="sans-serif" font-size="13" lengthAdjust="spacing" textLength="301.0059" x="381.6079" y="827.356">iniciarTransaccion(montoFinal, medio, cuotas)</text></g><g class="message" data-participant-1="srvPagos" data-participant-2="NegCtrl"><polygon fill="#181818" points="385.6079,857.5547,375.6079,861.5547,385.6079,865.5547,381.6079,861.5547" style="stroke:#181818;stroke-width:1;"/><line style="stroke:#181818;stroke-width:1;stroke-dasharray:2,2;" x1="379.6079" x2="1069.6489" y1="861.5547" y2="861.5547"/><text fill="#000000" font-family="sans-serif" font-size="13" lengthAdjust="spacing" textLength="189.7188" x="391.6079" y="856.4888">&#171;estadoTransaccion : String&#187;</text></g><path d="M40,876.5547 L104.4429,876.5547 L104.4429,883.6875 L94.4429,893.6875 L40,893.6875 L40,876.5547" fill="#EEEEEE" style="stroke:#000000;stroke-width:1.5;"/><rect fill="none" height="189.7656" style="stroke:#000000;stroke-width:1.5;" width="947.6162" x="40" y="876.5547"/><text fill="#000000" font-family="sans-serif" font-size="13" font-weight="bold" lengthAdjust="spacing" textLength="19.4429" x="55" y="889.6216">alt</text><text fill="#000000" font-family="sans-serif" font-size="11" font-weight="bold" lengthAdjust="spacing" textLength="233.0195" x="119.4429" y="888.7651">[estadoTransaccion == "APROBADA"]</text><g class="message" data-participant-1="NegCtrl" data-participant-2="venta"><polygon fill="#181818" points="620.978,910.8203,630.978,914.8203,620.978,918.8203,624.978,914.8203" style="stroke:#181818;stroke-width:1;"/><line style="stroke:#181818;stroke-width:1;" x1="374.6079" x2="626.978" y1="914.8203" y2="914.8203"/><text fill="#000000" font-family="sans-serif" font-size="13" lengthAdjust="spacing" textLength="219.4448" x="381.6079" y="909.7544">registrarPago(montoFinal, medio)</text></g><g class="message" data-participant-1="venta" data-participant-2="pago"><polygon fill="#181818" points="852.1602,939.9531,862.1602,943.9531,852.1602,947.9531,856.1602,943.9531" style="stroke:#181818;stroke-width:1;"/><line style="stroke:#181818;stroke-width:1;" x1="642.978" x2="858.1602" y1="943.9531" y2="943.9531"/><text fill="#000000" font-family="sans-serif" font-size="13" lengthAdjust="spacing" textLength="173.2529" x="649.978" y="938.8872">create(montoFinal, medio)</text></g><rect fill="#E2E2F0" height="30.2969" rx="2.5" ry="2.5" style="stroke:#181818;stroke-width:0.5;" width="113.4561" x="864.1602" y="922.8203"/><text fill="#000000" font-family="sans-serif" font-size="14" lengthAdjust="spacing" textLength="99.4561" x="871.1602" y="942.8154">Pago: objPago</text><g class="message" data-participant-1="pago" data-participant-2="venta"><polygon fill="#181818" points="653.978,981.25,643.978,985.25,653.978,989.25,649.978,985.25" style="stroke:#181818;stroke-width:1;"/><line style="stroke:#181818;stroke-width:1;stroke-dasharray:2,2;" x1="647.978" x2="919.8882" y1="985.25" y2="985.25"/><text fill="#000000" font-family="sans-serif" font-size="13" lengthAdjust="spacing" textLength="67.7358" x="659.978" y="980.1841">&#171;objPago&#187;</text></g><g class="message" data-participant-1="venta" data-participant-2="NegCtrl"><polygon fill="#181818" points="385.6079,1010.3828,375.6079,1014.3828,385.6079,1018.3828,381.6079,1014.3828" style="stroke:#181818;stroke-width:1;"/><line style="stroke:#181818;stroke-width:1;stroke-dasharray:2,2;" x1="379.6079" x2="636.978" y1="1014.3828" y2="1014.3828"/><text fill="#000000" font-family="sans-serif" font-size="13" lengthAdjust="spacing" textLength="49.6323" x="391.6079" y="1009.3169">&#171;NULL&#187;</text></g><line style="stroke:#000000;stroke-width:1;stroke-dasharray:2,2;" x1="40" x2="987.6162" y1="1023.3828" y2="1023.3828"/><text fill="#000000" font-family="sans-serif" font-size="11" font-weight="bold" lengthAdjust="spacing" textLength="85.9644" x="45" y="1033.5933">[RECHAZADA]</text><g class="message" data-participant-1="NegCtrl" data-participant-2="emp"><polygon fill="#181818" points="98.9521,1054.3203,88.9521,1058.3203,98.9521,1062.3203,94.9521,1058.3203" style="stroke:#181818;stroke-width:1;"/><line style="stroke:#181818;stroke-width:1;stroke-dasharray:2,2;" x1="92.9521" x2="363.6079" y1="1058.3203" y2="1058.3203"/><text fill="#000000" font-family="sans-serif" font-size="13" lengthAdjust="spacing" textLength="210.4756" x="104.9521" y="1053.2544">&#171;Error: Transacci&#243;n Rechazada&#187;</text></g><line style="stroke:#000000;stroke-width:1;stroke-dasharray:2,2;" x1="30" x2="1163.6816" y1="1074.3203" y2="1074.3203"/><text fill="#000000" font-family="sans-serif" font-size="11" font-weight="bold" lengthAdjust="spacing" textLength="108.3081" x="35" y="1084.5308">[Reglas Violadas]</text><g class="message" data-participant-1="NegCtrl" data-participant-2="emp"><polygon fill="#181818" points="98.9521,1105.2578,88.9521,1109.2578,98.9521,1113.2578,94.9521,1109.2578" style="stroke:#181818;stroke-width:1;"/><line style="stroke:#181818;stroke-width:1;stroke-dasharray:2,2;" x1="92.9521" x2="363.6079" y1="1109.2578" y2="1109.2578"/><text fill="#000000" font-family="sans-serif" font-size="13" lengthAdjust="spacing" textLength="252.6558" x="104.9521" y="1104.1919">&#171;Error: Medio no permitido por reglas&#187;</text></g><path d="M30,1138.2578 L94.4429,1138.2578 L94.4429,1145.3906 L84.4429,1155.3906 L30,1155.3906 L30,1138.2578" fill="#EEEEEE" style="stroke:#000000;stroke-width:1.5;"/><rect fill="none" height="621.4609" style="stroke:#000000;stroke-width:1.5;" width="1770.2163" x="30" y="1138.2578"/><text fill="#000000" font-family="sans-serif" font-size="13" font-weight="bold" lengthAdjust="spacing" textLength="19.4429" x="45" y="1151.3247">alt</text><text fill="#000000" font-family="sans-serif" font-size="11" font-weight="bold" lengthAdjust="spacing" textLength="138.1499" x="109.4429" y="1150.4683">[pagoExitoso == true]</text><g class="message" data-participant-1="NegCtrl" data-participant-2="venta"><polygon fill="#181818" points="620.978,1172.5234,630.978,1176.5234,620.978,1180.5234,624.978,1176.5234" style="stroke:#181818;stroke-width:1;"/><line style="stroke:#181818;stroke-width:1;" x1="374.6079" x2="626.978" y1="1176.5234" y2="1176.5234"/><text fill="#000000" font-family="sans-serif" font-size="13" lengthAdjust="spacing" textLength="174.6177" x="381.6079" y="1171.4575">setEstado("CONFIRMADA")</text></g><g class="message" data-participant-1="venta" data-participant-2="NegCtrl"><polygon fill="#181818" points="385.6079,1201.6563,375.6079,1205.6563,385.6079,1209.6563,381.6079,1205.6563" style="stroke:#181818;stroke-width:1;"/><line style="stroke:#181818;stroke-width:1;stroke-dasharray:2,2;" x1="379.6079" x2="636.978" y1="1205.6563" y2="1205.6563"/><text fill="#000000" font-family="sans-serif" font-size="13" lengthAdjust="spacing" textLength="49.6323" x="391.6079" y="1200.5903">&#171;NULL&#187;</text></g><g class="message" data-participant-1="NegCtrl" data-participant-2="venta"><polygon fill="#181818" points="620.978,1230.7891,630.978,1234.7891,620.978,1238.7891,624.978,1234.7891" style="stroke:#181818;stroke-width:1;"/><line style="stroke:#181818;stroke-width:1;" x1="374.6079" x2="626.978" y1="1234.7891" y2="1234.7891"/><text fill="#000000" font-family="sans-serif" font-size="13" lengthAdjust="spacing" textLength="109.897" x="381.6079" y="1229.7231">actualizarStock()</text></g><path d="M564.5918,1249.7891 L641.2158,1249.7891 L641.2158,1256.9219 L631.2158,1266.9219 L564.5918,1266.9219 L564.5918,1249.7891" fill="#EEEEEE" style="stroke:#000000;stroke-width:1.5;"/><rect fill="none" height="133.6641" style="stroke:#000000;stroke-width:1.5;" width="947.7046" x="564.5918" y="1249.7891"/><text fill="#000000" font-family="sans-serif" font-size="13" font-weight="bold" lengthAdjust="spacing" textLength="31.624" x="579.5918" y="1262.856">loop</text><text fill="#000000" font-family="sans-serif" font-size="11" font-weight="bold" lengthAdjust="spacing" textLength="118.1157" x="656.2158" y="1261.9995">[para cada detalle]</text><g class="message" data-participant-1="venta" data-participant-2="det"><polygon fill="#181818" points="1215.2529,1284.0547,1225.2529,1288.0547,1215.2529,1292.0547,1219.2529,1288.0547" style="stroke:#181818;stroke-width:1;"/><line style="stroke:#181818;stroke-width:1;" x1="642.978" x2="1221.2529" y1="1288.0547" y2="1288.0547"/><text fill="#000000" font-family="sans-serif" font-size="13" lengthAdjust="spacing" textLength="110.8936" x="649.978" y="1282.9888">descontarStock()</text></g><g class="message" data-participant-1="det" data-participant-2="med"><polygon fill="#181818" points="1410.6821,1313.1875,1420.6821,1317.1875,1410.6821,1321.1875,1414.6821,1317.1875" style="stroke:#181818;stroke-width:1;"/><line style="stroke:#181818;stroke-width:1;" x1="1237.2529" x2="1416.6821" y1="1317.1875" y2="1317.1875"/><text fill="#000000" font-family="sans-serif" font-size="13" lengthAdjust="spacing" textLength="166.4292" x="1244.2529" y="1312.1216">actualizarStock(cantidad)</text></g><g class="message" data-participant-1="med" data-participant-2="det"><polygon fill="#181818" points="1248.2529,1342.3203,1238.2529,1346.3203,1248.2529,1350.3203,1244.2529,1346.3203" style="stroke:#181818;stroke-width:1;"/><line style="stroke:#181818;stroke-width:1;stroke-dasharray:2,2;" x1="1242.2529" x2="1426.6821" y1="1346.3203" y2="1346.3203"/><text fill="#000000" font-family="sans-serif" font-size="13" lengthAdjust="spacing" textLength="49.6323" x="1254.2529" y="1341.2544">&#171;NULL&#187;</text></g><g class="message" data-participant-1="det" data-participant-2="venta"><polygon fill="#181818" points="653.978,1371.4531,643.978,1375.4531,653.978,1379.4531,649.978,1375.4531" style="stroke:#181818;stroke-width:1;"/><line style="stroke:#181818;stroke-width:1;stroke-dasharray:2,2;" x1="647.978" x2="1231.2529" y1="1375.4531" y2="1375.4531"/><text fill="#000000" font-family="sans-serif" font-size="13" lengthAdjust="spacing" textLength="49.6323" x="659.978" y="1370.3872">&#171;NULL&#187;</text></g><g class="message" data-participant-1="venta" data-participant-2="NegCtrl"><polygon fill="#181818" points="385.6079,1407.5859,375.6079,1411.5859,385.6079,1415.5859,381.6079,1411.5859" style="stroke:#181818;stroke-width:1;"/><line style="stroke:#181818;stroke-width:1;stroke-dasharray:2,2;" x1="379.6079" x2="636.978" y1="1411.5859" y2="1411.5859"/><text fill="#000000" font-family="sans-serif" font-size="13" lengthAdjust="spacing" textLength="49.6323" x="391.6079" y="1406.52">&#171;NULL&#187;</text></g><g class="message" data-participant-1="NegCtrl" data-participant-2="printer"><polygon fill="#181818" points="1534.9448,1436.7188,1544.9448,1440.7188,1534.9448,1444.7188,1538.9448,1440.7188" style="stroke:#181818;stroke-width:1;"/><line style="stroke:#181818;stroke-width:1;" x1="374.6079" x2="1540.9448" y1="1440.7188" y2="1440.7188"/><text fill="#000000" font-family="sans-serif" font-size="13" lengthAdjust="spacing" textLength="162.5825" x="381.6079" y="1435.6528">imprimirTicket(objVenta)</text></g><g class="message" data-participant-1="printer" data-participant-2="NegCtrl"><polygon fill="#181818" points="385.6079,1465.8516,375.6079,1469.8516,385.6079,1473.8516,381.6079,1469.8516" style="stroke:#181818;stroke-width:1;"/><line style="stroke:#181818;stroke-width:1;stroke-dasharray:2,2;" x1="379.6079" x2="1550.9448" y1="1469.8516" y2="1469.8516"/><text fill="#000000" font-family="sans-serif" font-size="13" lengthAdjust="spacing" textLength="113.5469" x="391.6079" y="1464.7856">&#171;exito : Boolean&#187;</text></g><path d="M294.7246,1484.8516 L364.1758,1484.8516 L364.1758,1491.9844 L354.1758,1501.9844 L294.7246,1501.9844 L294.7246,1484.8516" fill="#EEEEEE" style="stroke:#000000;stroke-width:1.5;"/><rect fill="none" height="76.2656" style="stroke:#000000;stroke-width:1.5;" width="1495.4917" x="294.7246" y="1484.8516"/><text fill="#000000" font-family="sans-serif" font-size="13" font-weight="bold" lengthAdjust="spacing" textLength="24.4512" x="309.7246" y="1497.9185">opt</text><text fill="#000000" font-family="sans-serif" font-size="11" font-weight="bold" lengthAdjust="spacing" textLength="97.2759" x="379.1758" y="1497.062">[exito == false]</text><g class="message" data-participant-1="NegCtrl" data-participant-2="mailer"><polygon fill="#181818" points="1673.9048,1519.1172,1683.9048,1523.1172,1673.9048,1527.1172,1677.9048,1523.1172" style="stroke:#181818;stroke-width:1;"/><line style="stroke:#181818;stroke-width:1;" x1="374.6079" x2="1679.9048" y1="1523.1172" y2="1523.1172"/><text fill="#000000" font-family="sans-serif" font-size="13" lengthAdjust="spacing" textLength="242.6582" x="381.6079" y="1518.0513">enviarTicket(objVenta, cli.getEmail())</text></g><g class="message" data-participant-1="NegCtrl" data-participant-2="emp"><polygon fill="#181818" points="98.9521,1585.25,88.9521,1589.25,98.9521,1593.25,94.9521,1589.25" style="stroke:#181818;stroke-width:1;"/><line style="stroke:#181818;stroke-width:1;stroke-dasharray:2,2;" x1="92.9521" x2="363.6079" y1="1589.25" y2="1589.25"/><text fill="#000000" font-family="sans-serif" font-size="13" lengthAdjust="spacing" textLength="123.7603" x="104.9521" y="1584.1841">&#171;Venta Finalizada&#187;</text></g><line style="stroke:#000000;stroke-width:1;stroke-dasharray:2,2;" x1="30" x2="1800.2163" y1="1598.25" y2="1598.25"/><text fill="#000000" font-family="sans-serif" font-size="11" font-weight="bold" lengthAdjust="spacing" textLength="142.1621" x="35" y="1608.4604">[pagoExitoso == false]</text><path d="M40,1619.0547 L109.4512,1619.0547 L109.4512,1626.1875 L99.4512,1636.1875 L40,1636.1875 L40,1619.0547" fill="#EEEEEE" style="stroke:#000000;stroke-width:1.5;"/><rect fill="none" height="133.6641" style="stroke:#000000;stroke-width:1.5;" width="671.3643" x="40" y="1619.0547"/><text fill="#000000" font-family="sans-serif" font-size="13" font-weight="bold" lengthAdjust="spacing" textLength="24.4512" x="55" y="1632.1216">opt</text><text fill="#000000" font-family="sans-serif" font-size="11" font-weight="bold" lengthAdjust="spacing" textLength="233.4385" x="124.4512" y="1631.2651">[Cancelar Operaci&#243;n (Salir del bucle)]</text><g class="message" data-participant-1="emp" data-participant-2="NegCtrl"><polygon fill="#181818" points="352.6079,1653.3203,362.6079,1657.3203,352.6079,1661.3203,356.6079,1657.3203" style="stroke:#181818;stroke-width:1;"/><line style="stroke:#181818;stroke-width:1;" x1="87.9521" x2="358.6079" y1="1657.3203" y2="1657.3203"/><text fill="#000000" font-family="sans-serif" font-size="13" lengthAdjust="spacing" textLength="103.7588" x="94.9521" y="1652.2544">cancelarVenta()</text></g><g class="message" data-participant-1="NegCtrl" data-participant-2="venta"><polygon fill="#181818" points="620.978,1682.4531,630.978,1686.4531,620.978,1690.4531,624.978,1686.4531" style="stroke:#181818;stroke-width:1;"/><line style="stroke:#181818;stroke-width:1;" x1="374.6079" x2="626.978" y1="1686.4531" y2="1686.4531"/><text fill="#000000" font-family="sans-serif" font-size="13" lengthAdjust="spacing" textLength="166.2515" x="381.6079" y="1681.3872">setEstado("CANCELADA")</text></g><g class="message" data-participant-1="venta" data-participant-2="NegCtrl"><polygon fill="#181818" points="385.6079,1711.5859,375.6079,1715.5859,385.6079,1719.5859,381.6079,1715.5859" style="stroke:#181818;stroke-width:1;"/><line style="stroke:#181818;stroke-width:1;stroke-dasharray:2,2;" x1="379.6079" x2="636.978" y1="1715.5859" y2="1715.5859"/><text fill="#000000" font-family="sans-serif" font-size="13" lengthAdjust="spacing" textLength="49.6323" x="391.6079" y="1710.52">&#171;NULL&#187;</text></g><g class="message" data-participant-1="NegCtrl" data-participant-2="emp"><polygon fill="#181818" points="98.9521,1740.7188,88.9521,1744.7188,98.9521,1748.7188,94.9521,1744.7188" style="stroke:#181818;stroke-width:1;"/><line style="stroke:#181818;stroke-width:1;stroke-dasharray:2,2;" x1="92.9521" x2="363.6079" y1="1744.7188" y2="1744.7188"/><text fill="#000000" font-family="sans-serif" font-size="13" lengthAdjust="spacing" textLength="126.458" x="104.9521" y="1739.6528">&#171;Venta Cancelada&#187;</text></g><!--SRC=[hLZDSkCs3BxxAJ2-LDvnchjdund7LgQPIPpKINFeZQ5eBtTfKKFIdZHlr7DllUR52b2o9Eh7zcRgWqDB8F0113w0ST8f0Oz6Ss4r9BXa6ps15wPamhZy-2STmtmdKiTWhesHk19ZYArZYRRm5wo4n2UfqtOm-2Pn_rfhzwhV1WF6dJOmZBUP4YWy16P1RBD1neoJN6OiTJ2ynSrcpTudi1IRkJFAYnNhKFI5G4n0ltxtAo-ufrKeDbSUenSirbwKAnaAvewY52syI8QBKEP9c3t-q2HY9n2_kIUpzxBMxFt3K7uX75DA550JuRmi_Wt5xaKYETjIs2Qm5OcNmh-XrBFaFmI69tSrCnHequsFZaOq46wPL2W_m9Z3nVGGKvY0J74BCmG_6j4noJrpeWpwG6cTmJr5pg0QnV8eWx3kuszuZ9UBstZv70y0F_whmy362CiCkUb35srfDGQ-quxPKRNr5vXnjyDSUsS6jXhZ0MkPCWLMR3x-JS7lWsWbE3COxCk5i7pdiorNSh29vdEG4-1CyPr2uwJjXfHrMI-zpZE87kKABW9FldxDKNazC9rwmKGqTkSQbIlWNbrX5ZPAPkXbIhyRs34tqPYmDqPuzqGqAiLAMvJ0XuUqeOMqjXyVN6jT8cwWhclgXxCHxecfH2-apNGgNzNdKDbG1pwyKPgv8z0g8nZIkbEpvQAbRdfLEw5oPxT7hCmrxrXKRHo5EpkzwtLn-SVTNSsROz4EGmuzAMp4Hbeilhn4AvHZp2jAAaodFi1LEWUV8hUddkBWonUg4oDmmrdQ0mkU95kllTwBcWzuyWMrGZCsZVYq5NPNueamTtXU_XBA2eYDqGRxZCQSWdMPL1fyCY1fsTqQYP4UzfmG0YAk8p25igB1GAg1PKXU6gnCaMWotKHQE-RAAN8zVfD8PyWQi6O8iyAS9dabUF2UIedTXK5RqJCptx7LNFw-khoMs72eIy2BD9JVewErVJYVlM_mPYKsYja-ZZwIMZriAQoV7FHn0ghHPbNdnKPaJsTsuH7Ky1_wRjN7dWrBBUFO1TCWctly2NmgktZzRMcYmpiQUse6yV6JmyQyQIPvpTdIHWZ1-znKHwrZzhXwk9ujPiDMrRGU_1Ht-7YqA_iKTPpD7Ztwpo2FBjS-GogdUEMdgEKKkmG_V8skulblip_nvDh8Zb18UVmuQkCqpR-nTvQm1XeYWz2MhriiUQrGsfvDM3cF88LamcobeuBBS4etNbtDwC5WoKAKhm5TDShq6DTOuV8BGpISFonlRbVtbDwVf9Z6MVMpIWUGsW3WDFyHdOJWFtuUnh6RuMoPC9hcQSO_qcHH0cZwjnpBesshNHPqGUX8PKVAiAmwa7CS_v6_asDQwKBHUalgBagClQbVZskd7eykACqpDBNyhEVr_tVSnLM9MiGMrrjfygjKTBWxTfpxuNfLSa-Xezq3g02AzYPOsjFXckhAXSvSeUAgsV4RNkJtDxeNf7jgSw4BOvehVyKPFIQvQDJJu8fBOD_9Xc_BOkyZ4MyPFD_BWgMg4QN13g5lWVzpbdA1LpHuG1RA_ya04KvXqY0u1QyxhaJeJ-kAoGiL7b6ZjWOdMcITZcRBUNmNij49EZYxWvpVFVf3NKGgw0S1DVklcgL2rNy0]--></g></svg>