<svg xmlns="http://www.w3.org/2000/svg" xmlns:xlink="http://www.w3.org/1999/xlink" contentStyleType="text/css" data-diagram-type="SEQUENCE" height="2308px" preserveAspectRatio="none" style="width:2591px;height:2308px;background:#FFFFFF;" version="1.1" viewBox="0 0 2591 2308" width="2591px" zoomAndPan="magnify"><title>Pago</title><defs/><g><text fill="#000000" font-family="sans-serif" font-size="14" font-weight="bold" lengthAdjust="spacing" textLength="39.3477" x="1275.0891" y="27.9951">Pago</text><g><title>emp.Empleado</title><rect fill="#000000" fill-opacity="0.00000" height="2182.6406" width="8" x="57.3794" y="118.5938"/><line style="stroke:#181818;stroke-width:0.5;stroke-dasharray:5,5;" x1="60.8794" x2="60.8794" y1="118.5938" y2="2301.2344"/></g><g><title>cv.ControladorVentas</title><rect fill="#000000" fill-opacity="0.00000" height="2182.6406" width="8" x="294.6289" y="118.5938"/><line style="stroke:#181818;stroke-width:0.5;stroke-dasharray:5,5;" x1="298.1289" x2="298.1289" y1="118.5938" y2="2301.2344"/></g><g><title>vta.Venta</title><rect fill="#000000" fill-opacity="0.00000" height="2182.6406" width="8" x="560.5552" y="118.5938"/><line style="stroke:#181818;stroke-width:0.5;stroke-dasharray:5,5;" x1="564.0552" x2="564.0552" y1="118.5938" y2="2301.2344"/></g><g><title/><rect fill="#FFFFFF" height="132.5313" style="stroke:#181818;stroke-width:1;" width="10" x="559.0552" y="182.8594"/></g><g><title/><rect fill="#FFFFFF" height="29.1328" style="stroke:#181818;stroke-width:1;" width="10" x="559.0552" y="344.5234"/></g><g><title/><rect fill="#FFFFFF" height="29.1328" style="stroke:#181818;stroke-width:1;" width="10" x="559.0552" y="433.9219"/></g><g><title/><rect fill="#FFFFFF" height="29.1328" style="stroke:#181818;stroke-width:1;" width="10" x="559.0552" y="998.3125"/></g><g><title/><rect fill="#FFFFFF" height="29.1328" style="stroke:#181818;stroke-width:1;" width="10" x="559.0552" y="1182.7813"/></g><g><title/><rect fill="#FFFFFF" height="29.1328" style="stroke:#181818;stroke-width:1;" width="10" x="559.0552" y="1271.8516"/></g><g><title/><rect fill="#FFFFFF" height="29.1328" style="stroke:#181818;stroke-width:1;" width="10" x="559.0552" y="1358.1172"/></g><g><title/><rect fill="#FFFFFF" height="29.1328" style="stroke:#181818;stroke-width:1;" width="10" x="559.0552" y="1741.0078"/></g><g><title/><rect fill="#FFFFFF" height="29.1328" style="stroke:#181818;stroke-width:1;" width="10" x="559.0552" y="1976.2344"/></g><g><title>.multiobjeto.</title><rect fill="#000000" fill-opacity="0.00000" height="2182.6406" width="8" x="729.1064" y="118.5938"/><line style="stroke:#181818;stroke-width:0.5;stroke-dasharray:5,5;" x1="732.6064" x2="732.6064" y1="118.5938" y2="2301.2344"/></g><g><title/><rect fill="#FFFFFF" height="29.1328" style="stroke:#181818;stroke-width:1;" width="10" x="727.6064" y="243.125"/></g><g><title>cc...Singleton..</title><rect fill="#000000" fill-opacity="0.00000" height="2182.6406" width="8" x="887.9692" y="118.5938"/><line style="stroke:#181818;stroke-width:0.5;stroke-dasharray:5,5;" x1="891.4692" x2="891.4692" y1="118.5938" y2="2301.2344"/></g><g><title/><rect fill="#FFFFFF" height="132.5313" style="stroke:#181818;stroke-width:1;" width="10" x="886.4692" y="492.1875"/></g><g><title>listaC.i..Cliente</title><rect fill="#000000" fill-opacity="0.00000" height="2182.6406" width="8" x="1025.1484" y="118.5938"/><line style="stroke:#181818;stroke-width:0.5;stroke-dasharray:5,5;" x1="1028.6484" x2="1028.6484" y1="118.5938" y2="2301.2344"/></g><g><title/><rect fill="#FFFFFF" height="29.1328" style="stroke:#181818;stroke-width:1;" width="10" x="1023.6484" y="552.4531"/></g><g><title>cli.Cliente</title><rect fill="#000000" fill-opacity="0.00000" height="2182.6406" width="8" x="1137.6123" y="118.5938"/><line style="stroke:#181818;stroke-width:0.5;stroke-dasharray:5,5;" x1="1141.1123" x2="1141.1123" y1="118.5938" y2="2301.2344"/></g><g><title/><rect fill="#FFFFFF" height="29.1328" style="stroke:#181818;stroke-width:1;" width="10" x="1136.1123" y="653.8516"/></g><g><title/><rect fill="#FFFFFF" height="29.1328" style="stroke:#181818;stroke-width:1;" width="10" x="1136.1123" y="2034.5"/></g><g><title/><rect fill="#FFFFFF" height="29.1328" style="stroke:#181818;stroke-width:1;" width="10" x="1136.1123" y="2092.7656"/></g><g><title>cDesc...Singleton..</title><rect fill="#000000" fill-opacity="0.00000" height="2182.6406" width="8" x="1268.4922" y="118.5938"/><line style="stroke:#181818;stroke-width:0.5;stroke-dasharray:5,5;" x1="1271.9922" x2="1271.9922" y1="118.5938" y2="2301.2344"/></g><g><title/><rect fill="#FFFFFF" height="132.5313" style="stroke:#181818;stroke-width:1;" width="10" x="1266.9922" y="743.25"/></g><g><title>listaD.k..TipoDescuento</title><rect fill="#000000" fill-opacity="0.00000" height="2182.6406" width="8" x="1448.8848" y="118.5938"/><line style="stroke:#181818;stroke-width:0.5;stroke-dasharray:5,5;" x1="1452.3848" x2="1452.3848" y1="118.5938" y2="2301.2344"/></g><g><title/><rect fill="#FFFFFF" height="29.1328" style="stroke:#181818;stroke-width:1;" width="10" x="1447.3848" y="803.5156"/></g><g><title>desc.TipoDescuento</title><rect fill="#000000" fill-opacity="0.00000" height="2182.6406" width="8" x="1628.0161" y="118.5938"/><line style="stroke:#181818;stroke-width:0.5;stroke-dasharray:5,5;" x1="1631.5161" x2="1631.5161" y1="118.5938" y2="2301.2344"/></g><g><title/><rect fill="#FFFFFF" height="29.1328" style="stroke:#181818;stroke-width:1;" width="10" x="1626.5161" y="904.9141"/></g><g><title>pago.Pago</title><rect fill="#000000" fill-opacity="0.00000" height="905.9844" width="8" x="1760.0205" y="1395.25"/><line style="stroke:#181818;stroke-width:0.5;stroke-dasharray:5,5;" x1="1763.5205" x2="1763.5205" y1="1395.25" y2="2301.2344"/></g><g><title/><rect fill="#FFFFFF" height="31.2969" style="stroke:#181818;stroke-width:1;" width="10" x="1758.5205" y="1416.3828"/></g><g><title/><rect fill="#FFFFFF" height="29.1328" style="stroke:#181818;stroke-width:1;" width="10" x="1758.5205" y="1535.0781"/></g><g><title/><rect fill="#FFFFFF" height="29.1328" style="stroke:#181818;stroke-width:1;" width="10" x="1758.5205" y="1682.7422"/></g><g><title>sp.ServicioPagos</title><rect fill="#000000" fill-opacity="0.00000" height="2182.6406" width="8" x="1880.1987" y="118.5938"/><line style="stroke:#181818;stroke-width:0.5;stroke-dasharray:5,5;" x1="1883.6987" x2="1883.6987" y1="118.5938" y2="2301.2344"/></g><g><title/><rect fill="#FFFFFF" height="29.1328" style="stroke:#181818;stroke-width:1;" width="10" x="1878.6987" y="1476.8125"/></g><g><title/><rect fill="#FFFFFF" height="29.1328" style="stroke:#181818;stroke-width:1;" width="10" x="1878.6987" y="1624.4766"/></g><g><title>catVta...Singleton..</title><rect fill="#000000" fill-opacity="0.00000" height="2182.6406" width="8" x="2029.9355" y="118.5938"/><line style="stroke:#181818;stroke-width:0.5;stroke-dasharray:5,5;" x1="2033.4355" x2="2033.4355" y1="118.5938" y2="2301.2344"/></g><g><title/><rect fill="#FFFFFF" height="87.3984" style="stroke:#181818;stroke-width:1;" width="10" x="2028.4355" y="1799.2734"/></g><g><title>.multiobjeto.</title><rect fill="#000000" fill-opacity="0.00000" height="2182.6406" width="8" x="2282.7983" y="118.5938"/><line style="stroke:#181818;stroke-width:0.5;stroke-dasharray:5,5;" x1="2286.2983" x2="2286.2983" y1="118.5938" y2="2301.2344"/></g><g><title/><rect fill="#FFFFFF" height="29.1328" style="stroke:#181818;stroke-width:1;" width="10" x="2281.2983" y="1828.4063"/></g><g><title>tkt.Ticket</title><rect fill="#000000" fill-opacity="0.00000" height="406.5625" width="8" x="2388.334" y="1894.6719"/><line style="stroke:#181818;stroke-width:0.5;stroke-dasharray:5,5;" x1="2391.834" x2="2391.834" y1="1894.6719" y2="2301.2344"/></g><g><title/><rect fill="#FFFFFF" height="31.2969" style="stroke:#181818;stroke-width:1;" width="10" x="2386.834" y="1915.8047"/></g><g><title>sc.ServicioCorreos</title><rect fill="#000000" fill-opacity="0.00000" height="2182.6406" width="8" x="2510.2178" y="118.5938"/><line style="stroke:#181818;stroke-width:0.5;stroke-dasharray:5,5;" x1="2513.7178" x2="2513.7178" y1="118.5938" y2="2301.2344"/></g><g><title/><rect fill="#FFFFFF" height="29.1328" style="stroke:#181818;stroke-width:1;" width="10" x="2508.7178" y="2151.0313"/></g><text fill="#000000" font-family="sans-serif" font-size="14" lengthAdjust="spacing" textLength="105.7588" x="5" y="115.292">emp:Empleado</text><ellipse cx="60.8794" cy="50.7969" fill="#E2E2F0" rx="8" ry="8" style="stroke:#181818;stroke-width:0.5;"/><path d="M60.8794,58.7969 L60.8794,85.7969 M47.8794,66.7969 L73.8794,66.7969 M60.8794,85.7969 L47.8794,100.7969 M60.8794,85.7969 L73.8794,100.7969" fill="none" style="stroke:#181818;stroke-width:0.5;"/><rect fill="#E2E2F0" height="30.2969" rx="2.5" ry="2.5" style="stroke:#181818;stroke-width:0.5;" width="165.8262" x="215.2158" y="87.2969"/><text fill="#000000" font-family="sans-serif" font-size="14" lengthAdjust="spacing" textLength="151.8262" x="222.2158" y="107.292">cv:ControladorVentas</text><rect fill="#E2E2F0" height="30.2969" rx="2.5" ry="2.5" style="stroke:#181818;stroke-width:0.5;" width="82.2021" x="522.9541" y="87.2969"/><text fill="#000000" font-family="sans-serif" font-size="14" lengthAdjust="spacing" textLength="68.2021" x="529.9541" y="107.292">vta:Venta</text><rect fill="#E2E2F0" height="46.5938" rx="2.5" ry="2.5" style="stroke:#181818;stroke-width:0.5;" width="164.958" x="650.1274" y="71"/><text fill="#000000" font-family="sans-serif" font-size="14" lengthAdjust="spacing" textLength="96.9199" x="684.1465" y="90.9951">&#171;multiobjeto&#187;</text><text fill="#000000" font-family="sans-serif" font-size="14" lengthAdjust="spacing" textLength="150.958" x="657.1274" y="107.292">detalles:DetalleVenta</text><rect fill="#E2E2F0" height="46.5938" rx="2.5" ry="2.5" style="stroke:#181818;stroke-width:0.5;" width="132.7676" x="825.0854" y="71"/><text fill="#000000" font-family="sans-serif" font-size="14" lengthAdjust="spacing" textLength="103.209" x="839.8647" y="90.9951">cc:&#171;Singleton&#187;</text><text fill="#000000" font-family="sans-serif" font-size="14" lengthAdjust="spacing" textLength="118.7676" x="832.0854" y="107.292">CatalogoClientes</text><rect fill="#E2E2F0" height="30.2969" rx="2.5" ry="2.5" style="stroke:#181818;stroke-width:0.5;" width="121.5908" x="967.853" y="87.2969"/><text fill="#000000" font-family="sans-serif" font-size="14" lengthAdjust="spacing" textLength="107.5908" x="974.853" y="107.292">listaC[i]:Cliente</text><rect fill="#E2E2F0" height="30.2969" rx="2.5" ry="2.5" style="stroke:#181818;stroke-width:0.5;" width="83.3369" x="1099.4438" y="87.2969"/><text fill="#000000" font-family="sans-serif" font-size="14" lengthAdjust="spacing" textLength="69.3369" x="1106.4438" y="107.292">cli:Cliente</text><rect fill="#E2E2F0" height="46.5938" rx="2.5" ry="2.5" style="stroke:#181818;stroke-width:0.5;" width="158.4229" x="1192.7808" y="71"/><text fill="#000000" font-family="sans-serif" font-size="14" lengthAdjust="spacing" textLength="129.8965" x="1207.0439" y="90.9951">cDesc:&#171;Singleton&#187;</text><text fill="#000000" font-family="sans-serif" font-size="14" lengthAdjust="spacing" textLength="144.4229" x="1199.7808" y="107.292">CatalogoDescuentos</text><rect fill="#E2E2F0" height="30.2969" rx="2.5" ry="2.5" style="stroke:#181818;stroke-width:0.5;" width="182.3623" x="1361.2036" y="87.2969"/><text fill="#000000" font-family="sans-serif" font-size="14" lengthAdjust="spacing" textLength="168.3623" x="1368.2036" y="107.292">listaD[k]:TipoDescuento</text><rect fill="#E2E2F0" height="30.2969" rx="2.5" ry="2.5" style="stroke:#181818;stroke-width:0.5;" width="155.9004" x="1553.5659" y="87.2969"/><text fill="#000000" font-family="sans-serif" font-size="14" lengthAdjust="spacing" textLength="141.9004" x="1560.5659" y="107.292">desc:TipoDescuento</text><rect fill="#E2E2F0" height="30.2969" rx="2.5" ry="2.5" style="stroke:#181818;stroke-width:0.5;" width="132.248" x="1817.5747" y="87.2969"/><text fill="#000000" font-family="sans-serif" font-size="14" lengthAdjust="spacing" textLength="118.248" x="1824.5747" y="107.292">sp:ServicioPagos</text><rect fill="#E2E2F0" height="46.5938" rx="2.5" ry="2.5" style="stroke:#181818;stroke-width:0.5;" width="147.2256" x="1959.8228" y="71"/><text fill="#000000" font-family="sans-serif" font-size="14" lengthAdjust="spacing" textLength="133.2256" x="1966.8228" y="90.9951">catVta:&#171;Singleton&#187;</text><text fill="#000000" font-family="sans-serif" font-size="14" lengthAdjust="spacing" textLength="110.7559" x="1978.0576" y="107.292">CatalogoVentas</text><rect fill="#E2E2F0" height="46.5938" rx="2.5" ry="2.5" style="stroke:#181818;stroke-width:0.5;" width="110.9199" x="2230.8384" y="71"/><text fill="#000000" font-family="sans-serif" font-size="14" lengthAdjust="spacing" textLength="96.9199" x="2237.8384" y="90.9951">&#171;multiobjeto&#187;</text><text fill="#000000" font-family="sans-serif" font-size="14" lengthAdjust="spacing" textLength="92.9824" x="2239.8071" y="107.292">ventas:Venta</text><rect fill="#E2E2F0" height="30.2969" rx="2.5" ry="2.5" style="stroke:#181818;stroke-width:0.5;" width="143.6162" x="2441.9097" y="87.2969"/><text fill="#000000" font-family="sans-serif" font-size="14" lengthAdjust="spacing" textLength="129.6162" x="2448.9097" y="107.292">sc:ServicioCorreos</text><path d="M2.0356,131.5938 L2.0356,156.5938 L2572.0356,156.5938 L2572.0356,141.5938 L2562.0356,131.5938 L2.0356,131.5938" fill="#FEFFDD" style="stroke:#181818;stroke-width:0.5;"/><path d="M2562.0356,131.5938 L2562.0356,141.5938 L2572.0356,141.5938 L2562.0356,131.5938" fill="#FEFFDD" style="stroke:#181818;stroke-width:0.5;"/><text fill="#000000" font-family="sans-serif" font-size="13" lengthAdjust="spacing" textLength="349.4956" x="1108.0508" y="148.6606">Precondici&#243;n: El empleado inicia el cierre de la venta.</text><polygon fill="#181818" points="547.0552,178.8594,557.0552,182.8594,547.0552,186.8594,551.0552,182.8594" style="stroke:#181818;stroke-width:1;"/><line style="stroke:#181818;stroke-width:1;" x1="298.1289" x2="553.0552" y1="182.8594" y2="182.8594"/><text fill="#000000" font-family="sans-serif" font-size="13" lengthAdjust="spacing" textLength="93.7485" x="305.1289" y="177.7935">calcularTotal()</text><path d="M548.0552,194.8594 L624.6792,194.8594 L624.6792,201.9922 L614.6792,211.9922 L548.0552,211.9922 L548.0552,194.8594" fill="#EEEEEE" style="stroke:#000000;stroke-width:1.5;"/><rect fill="none" height="85.3984" style="stroke:#000000;stroke-width:1.5;" width="263.1118" x="548.0552" y="194.8594"/><text fill="#000000" font-family="sans-serif" font-size="13" font-weight="bold" lengthAdjust="spacing" textLength="31.624" x="563.0552" y="207.9263">loop</text><text fill="#000000" font-family="sans-serif" font-size="11" font-weight="bold" lengthAdjust="spacing" textLength="155.4878" x="639.6792" y="207.0698">[para cada d en detalles]</text><polygon fill="#181818" points="715.6064,239.125,725.6064,243.125,715.6064,247.125,719.6064,243.125" style="stroke:#181818;stroke-width:1;"/><line style="stroke:#181818;stroke-width:1;" x1="569.0552" x2="721.6064" y1="243.125" y2="243.125"/><text fill="#000000" font-family="sans-serif" font-size="13" lengthAdjust="spacing" textLength="85.96" x="576.0552" y="238.0591">getSubtotal()</text><polygon fill="#181818" points="580.0552,268.2578,570.0552,272.2578,580.0552,276.2578,576.0552,272.2578" style="stroke:#181818;stroke-width:1;"/><line style="stroke:#181818;stroke-width:1;stroke-dasharray:2,2;" x1="574.0552" x2="726.6064" y1="272.2578" y2="272.2578"/><text fill="#000000" font-family="sans-serif" font-size="13" lengthAdjust="spacing" textLength="134.5513" x="586.0552" y="267.1919">&#171;subtotal : Decimal&#187;</text><polygon fill="#181818" points="309.1289,311.3906,299.1289,315.3906,309.1289,319.3906,305.1289,315.3906" style="stroke:#181818;stroke-width:1;"/><line style="stroke:#181818;stroke-width:1;stroke-dasharray:2,2;" x1="303.1289" x2="558.0552" y1="315.3906" y2="315.3906"/><text fill="#000000" font-family="sans-serif" font-size="13" lengthAdjust="spacing" textLength="111.2871" x="315.1289" y="310.3247">&#171;total : Decimal&#187;</text><polygon fill="#181818" points="547.0552,340.5234,557.0552,344.5234,547.0552,348.5234,551.0552,344.5234" style="stroke:#181818;stroke-width:1;"/><line style="stroke:#181818;stroke-width:1;" x1="298.1289" x2="553.0552" y1="344.5234" y2="344.5234"/><text fill="#000000" font-family="sans-serif" font-size="13" lengthAdjust="spacing" textLength="157.9614" x="305.1289" y="339.4575">setTotal(total : Decimal)</text><polygon fill="#181818" points="309.1289,369.6563,299.1289,373.6563,309.1289,377.6563,305.1289,373.6563" style="stroke:#181818;stroke-width:1;"/><line style="stroke:#181818;stroke-width:1;stroke-dasharray:2,2;" x1="303.1289" x2="558.0552" y1="373.6563" y2="373.6563"/><text fill="#000000" font-family="sans-serif" font-size="13" lengthAdjust="spacing" textLength="49.6323" x="315.1289" y="368.5903">&#171;NULL&#187;</text><path d="M263.1289,385.6563 L327.5718,385.6563 L327.5718,392.7891 L317.5718,402.7891 L263.1289,402.7891 L263.1289,385.6563" fill="#EEEEEE" style="stroke:#000000;stroke-width:1.5;"/><rect fill="none" height="937.3281" style="stroke:#000000;stroke-width:1.5;" width="1414.3872" x="263.1289" y="385.6563"/><text fill="#000000" font-family="sans-serif" font-size="13" font-weight="bold" lengthAdjust="spacing" textLength="19.4429" x="278.1289" y="398.7231">alt</text><text fill="#000000" font-family="sans-serif" font-size="11" font-weight="bold" lengthAdjust="spacing" textLength="165.2632" x="342.5718" y="397.8667">[medioPago == EFECTIVO]</text><line style="stroke:#000000;stroke-width:1;stroke-dasharray:2,2;" x1="263.1289" x2="1677.5161" y1="1060.4453" y2="1060.4453"/><text fill="#000000" font-family="sans-serif" font-size="11" font-weight="bold" lengthAdjust="spacing" textLength="157.2979" x="268.1289" y="1072.6558">[medioPago == TARJETA]</text><polygon fill="#181818" points="547.0552,429.9219,557.0552,433.9219,547.0552,437.9219,551.0552,433.9219" style="stroke:#181818;stroke-width:1;"/><line style="stroke:#181818;stroke-width:1;" x1="298.1289" x2="553.0552" y1="433.9219" y2="433.9219"/><text fill="#000000" font-family="sans-serif" font-size="13" lengthAdjust="spacing" textLength="100.6929" x="305.1289" y="428.856">getClienteDNI()</text><polygon fill="#181818" points="309.1289,459.0547,299.1289,463.0547,309.1289,467.0547,305.1289,463.0547" style="stroke:#181818;stroke-width:1;"/><line style="stroke:#181818;stroke-width:1;stroke-dasharray:2,2;" x1="303.1289" x2="558.0552" y1="463.0547" y2="463.0547"/><text fill="#000000" font-family="sans-serif" font-size="13" lengthAdjust="spacing" textLength="108.3481" x="315.1289" y="457.9888">&#171;dniVenta : INT&#187;</text><polygon fill="#181818" points="874.4692,488.1875,884.4692,492.1875,874.4692,496.1875,878.4692,492.1875" style="stroke:#181818;stroke-width:1;"/><line style="stroke:#181818;stroke-width:1;" x1="298.1289" x2="880.4692" y1="492.1875" y2="492.1875"/><text fill="#000000" font-family="sans-serif" font-size="13" lengthAdjust="spacing" textLength="191.9404" x="305.1289" y="487.1216">buscarCliente(dniVenta : INT)</text><path d="M875.4692,504.1875 L952.0933,504.1875 L952.0933,511.3203 L942.0933,521.3203 L875.4692,521.3203 L875.4692,504.1875" fill="#EEEEEE" style="stroke:#000000;stroke-width:1.5;"/><rect fill="none" height="85.3984" style="stroke:#000000;stroke-width:1.5;" width="328.3115" x="875.4692" y="504.1875"/><text fill="#000000" font-family="sans-serif" font-size="13" font-weight="bold" lengthAdjust="spacing" textLength="31.624" x="890.4692" y="517.2544">loop</text><text fill="#000000" font-family="sans-serif" font-size="11" font-weight="bold" lengthAdjust="spacing" textLength="220.6875" x="967.0933" y="516.3979">[hasta dniEncontrado == dniVenta]</text><polygon fill="#181818" points="1011.6484,548.4531,1021.6484,552.4531,1011.6484,556.4531,1015.6484,552.4531" style="stroke:#181818;stroke-width:1;"/><line style="stroke:#181818;stroke-width:1;" x1="896.4692" x2="1017.6484" y1="552.4531" y2="552.4531"/><text fill="#000000" font-family="sans-serif" font-size="13" lengthAdjust="spacing" textLength="55.0596" x="903.4692" y="547.3872">getDNI()</text><polygon fill="#181818" points="907.4692,577.5859,897.4692,581.5859,907.4692,585.5859,903.4692,581.5859" style="stroke:#181818;stroke-width:1;"/><line style="stroke:#181818;stroke-width:1;stroke-dasharray:2,2;" x1="901.4692" x2="1022.6484" y1="581.5859" y2="581.5859"/><text fill="#000000" font-family="sans-serif" font-size="13" lengthAdjust="spacing" textLength="70.1543" x="913.4692" y="576.52">&#171;dni : INT&#187;</text><polygon fill="#181818" points="309.1289,620.7188,299.1289,624.7188,309.1289,628.7188,305.1289,624.7188" style="stroke:#181818;stroke-width:1;"/><line style="stroke:#181818;stroke-width:1;stroke-dasharray:2,2;" x1="303.1289" x2="885.4692" y1="624.7188" y2="624.7188"/><text fill="#000000" font-family="sans-serif" font-size="13" lengthAdjust="spacing" textLength="179.5562" x="315.1289" y="619.6528">&#171;cli : Object Type : Cliente&#187;</text><polygon fill="#181818" points="1124.1123,649.8516,1134.1123,653.8516,1124.1123,657.8516,1128.1123,653.8516" style="stroke:#181818;stroke-width:1;"/><line style="stroke:#181818;stroke-width:1;" x1="298.1289" x2="1130.1123" y1="653.8516" y2="653.8516"/><text fill="#000000" font-family="sans-serif" font-size="13" lengthAdjust="spacing" textLength="111.8013" x="305.1289" y="648.7856">getesFrecuente()</text><polygon fill="#181818" points="309.1289,678.9844,299.1289,682.9844,309.1289,686.9844,305.1289,682.9844" style="stroke:#181818;stroke-width:1;"/><line style="stroke:#181818;stroke-width:1;stroke-dasharray:2,2;" x1="303.1289" x2="1135.1123" y1="682.9844" y2="682.9844"/><text fill="#000000" font-family="sans-serif" font-size="13" lengthAdjust="spacing" textLength="145.4883" x="315.1289" y="677.9185">&#171;esFrecuente : BOOL&#187;</text><path d="M282.1289,694.9844 L346.5718,694.9844 L346.5718,702.1172 L336.5718,712.1172 L282.1289,712.1172 L282.1289,694.9844" fill="#EEEEEE" style="stroke:#000000;stroke-width:1.5;"/><rect fill="none" height="340.4609" style="stroke:#000000;stroke-width:1.5;" width="1370.3872" x="282.1289" y="694.9844"/><text fill="#000000" font-family="sans-serif" font-size="13" font-weight="bold" lengthAdjust="spacing" textLength="19.4429" x="297.1289" y="708.0513">alt</text><text fill="#000000" font-family="sans-serif" font-size="11" font-weight="bold" lengthAdjust="spacing" textLength="145.3364" x="361.5718" y="707.1948">[esFrecuente == TRUE]</text><polygon fill="#181818" points="1254.9922,739.25,1264.9922,743.25,1254.9922,747.25,1258.9922,743.25" style="stroke:#181818;stroke-width:1;"/><line style="stroke:#181818;stroke-width:1;" x1="298.1289" x2="1260.9922" y1="743.25" y2="743.25"/><text fill="#000000" font-family="sans-serif" font-size="13" lengthAdjust="spacing" textLength="250.5864" x="305.1289" y="738.1841">buscarDescuento("Cliente Frecuente")</text><path d="M1255.9922,755.25 L1332.6162,755.25 L1332.6162,762.3828 L1322.6162,772.3828 L1255.9922,772.3828 L1255.9922,755.25" fill="#EEEEEE" style="stroke:#000000;stroke-width:1.5;"/><rect fill="none" height="85.3984" style="stroke:#000000;stroke-width:1.5;" width="346.5356" x="1255.9922" y="755.25"/><text fill="#000000" font-family="sans-serif" font-size="13" font-weight="bold" lengthAdjust="spacing" textLength="31.624" x="1270.9922" y="768.3169">loop</text><text fill="#000000" font-family="sans-serif" font-size="11" font-weight="bold" lengthAdjust="spacing" textLength="238.9116" x="1347.6162" y="767.4604">[hasta motivo == "Cliente Frecuente"]</text><polygon fill="#181818" points="1435.3848,799.5156,1445.3848,803.5156,1435.3848,807.5156,1439.3848,803.5156" style="stroke:#181818;stroke-width:1;"/><line style="stroke:#181818;stroke-width:1;" x1="1276.9922" x2="1441.3848" y1="803.5156" y2="803.5156"/><text fill="#000000" font-family="sans-serif" font-size="13" lengthAdjust="spacing" textLength="75.0166" x="1283.9922" y="798.4497">getMotivo()</text><polygon fill="#181818" points="1287.9922,828.6484,1277.9922,832.6484,1287.9922,836.6484,1283.9922,832.6484" style="stroke:#181818;stroke-width:1;"/><line style="stroke:#181818;stroke-width:1;stroke-dasharray:2,2;" x1="1281.9922" x2="1446.3848" y1="832.6484" y2="832.6484"/><text fill="#000000" font-family="sans-serif" font-size="13" lengthAdjust="spacing" textLength="112.3218" x="1293.9922" y="827.5825">&#171;motivo : String&#187;</text><polygon fill="#181818" points="309.1289,871.7813,299.1289,875.7813,309.1289,879.7813,305.1289,875.7813" style="stroke:#181818;stroke-width:1;"/><line style="stroke:#181818;stroke-width:1;stroke-dasharray:2,2;" x1="303.1289" x2="1265.9922" y1="875.7813" y2="875.7813"/><text fill="#000000" font-family="sans-serif" font-size="13" lengthAdjust="spacing" textLength="269.0327" x="315.1289" y="870.7153">&#171;descObj : Object Type : TipoDescuento&#187;</text><polygon fill="#181818" points="1614.5161,900.9141,1624.5161,904.9141,1614.5161,908.9141,1618.5161,904.9141" style="stroke:#181818;stroke-width:1;"/><line style="stroke:#181818;stroke-width:1;" x1="298.1289" x2="1620.5161" y1="904.9141" y2="904.9141"/><text fill="#000000" font-family="sans-serif" font-size="13" lengthAdjust="spacing" textLength="100.6865" x="305.1289" y="899.8481">getPorcentaje()</text><polygon fill="#181818" points="309.1289,930.0469,299.1289,934.0469,309.1289,938.0469,305.1289,934.0469" style="stroke:#181818;stroke-width:1;"/><line style="stroke:#181818;stroke-width:1;stroke-dasharray:2,2;" x1="303.1289" x2="1625.5161" y1="934.0469" y2="934.0469"/><text fill="#000000" font-family="sans-serif" font-size="13" lengthAdjust="spacing" textLength="110.2588" x="315.1289" y="928.981">&#171;porc : Decimal&#187;</text><path d="M303.1289,947.0469 L303.1289,972.0469 L579.1289,972.0469 L579.1289,957.0469 L569.1289,947.0469 L303.1289,947.0469" fill="#FEFFDD" style="stroke:#181818;stroke-width:0.5;"/><path d="M569.1289,947.0469 L569.1289,957.0469 L579.1289,957.0469 L569.1289,947.0469" fill="#FEFFDD" style="stroke:#181818;stroke-width:0.5;"/><text fill="#000000" font-family="sans-serif" font-size="13" lengthAdjust="spacing" textLength="255.3218" x="309.1289" y="964.1138">nuevoTotal = total - (total * porc / 100)</text><polygon fill="#181818" points="547.0552,994.3125,557.0552,998.3125,547.0552,1002.3125,551.0552,998.3125" style="stroke:#181818;stroke-width:1;"/><line style="stroke:#181818;stroke-width:1;" x1="298.1289" x2="553.0552" y1="998.3125" y2="998.3125"/><text fill="#000000" font-family="sans-serif" font-size="13" lengthAdjust="spacing" textLength="200.9287" x="305.1289" y="993.2466">setTotal(nuevoTotal : Decimal)</text><polygon fill="#181818" points="309.1289,1023.4453,299.1289,1027.4453,309.1289,1031.4453,305.1289,1027.4453" style="stroke:#181818;stroke-width:1;"/><line style="stroke:#181818;stroke-width:1;stroke-dasharray:2,2;" x1="303.1289" x2="558.0552" y1="1027.4453" y2="1027.4453"/><text fill="#000000" font-family="sans-serif" font-size="13" lengthAdjust="spacing" textLength="49.6323" x="315.1289" y="1022.3794">&#171;NULL&#187;</text><path d="M282.1289,1084.25 L346.5718,1084.25 L346.5718,1091.3828 L336.5718,1101.3828 L282.1289,1101.3828 L282.1289,1084.25" fill="#EEEEEE" style="stroke:#000000;stroke-width:1.5;"/><rect fill="none" height="224.7344" style="stroke:#000000;stroke-width:1.5;" width="305.0552" x="282.1289" y="1084.25"/><text fill="#000000" font-family="sans-serif" font-size="13" font-weight="bold" lengthAdjust="spacing" textLength="19.4429" x="297.1289" y="1097.3169">alt</text><text fill="#000000" font-family="sans-serif" font-size="11" font-weight="bold" lengthAdjust="spacing" textLength="75.7217" x="361.5718" y="1096.4604">[cuotas &gt; 3]</text><line style="stroke:#000000;stroke-width:1;stroke-dasharray:2,2;" x1="282.1289" x2="587.1841" y1="1230.9141" y2="1230.9141"/><text fill="#000000" font-family="sans-serif" font-size="11" font-weight="bold" lengthAdjust="spacing" textLength="75.7217" x="287.1289" y="1243.1245">[cuotas &lt; 3]</text><path d="M303.1289,1116.3828 L303.1289,1156.3828 L566.1289,1156.3828 L566.1289,1126.3828 L556.1289,1116.3828 L303.1289,1116.3828" fill="#FEFFDD" style="stroke:#181818;stroke-width:0.5;"/><path d="M556.1289,1116.3828 L556.1289,1126.3828 L566.1289,1126.3828 L556.1289,1116.3828" fill="#FEFFDD" style="stroke:#181818;stroke-width:0.5;"/><text fill="#000000" font-family="sans-serif" font-size="13" lengthAdjust="spacing" textLength="242.0552" x="309.1289" y="1133.4497">recargo = total * (0.20 * (cuotas - 3))</text><text fill="#000000" font-family="sans-serif" font-size="13" lengthAdjust="spacing" textLength="226.7383" x="309.1289" y="1148.5825">totalConRecargo = total + recargo</text><polygon fill="#181818" points="547.0552,1178.7813,557.0552,1182.7813,547.0552,1186.7813,551.0552,1182.7813" style="stroke:#181818;stroke-width:1;"/><line style="stroke:#181818;stroke-width:1;" x1="298.1289" x2="553.0552" y1="1182.7813" y2="1182.7813"/><text fill="#000000" font-family="sans-serif" font-size="13" lengthAdjust="spacing" textLength="236.9263" x="305.1289" y="1177.7153">setTotal(totalConRecargo : Decimal)</text><polygon fill="#181818" points="309.1289,1207.9141,299.1289,1211.9141,309.1289,1215.9141,305.1289,1211.9141" style="stroke:#181818;stroke-width:1;"/><line style="stroke:#181818;stroke-width:1;stroke-dasharray:2,2;" x1="303.1289" x2="558.0552" y1="1211.9141" y2="1211.9141"/><text fill="#000000" font-family="sans-serif" font-size="13" lengthAdjust="spacing" textLength="49.6323" x="315.1289" y="1206.8481">&#171;NULL&#187;</text><polygon fill="#181818" points="547.0552,1267.8516,557.0552,1271.8516,547.0552,1275.8516,551.0552,1271.8516" style="stroke:#181818;stroke-width:1;"/><line style="stroke:#181818;stroke-width:1;" x1="298.1289" x2="553.0552" y1="1271.8516" y2="1271.8516"/><text fill="#000000" font-family="sans-serif" font-size="13" lengthAdjust="spacing" textLength="157.9614" x="305.1289" y="1266.7856">setTotal(total : Decimal)</text><polygon fill="#181818" points="309.1289,1296.9844,299.1289,1300.9844,309.1289,1304.9844,305.1289,1300.9844" style="stroke:#181818;stroke-width:1;"/><line style="stroke:#181818;stroke-width:1;stroke-dasharray:2,2;" x1="303.1289" x2="558.0552" y1="1300.9844" y2="1300.9844"/><text fill="#000000" font-family="sans-serif" font-size="13" lengthAdjust="spacing" textLength="49.6323" x="315.1289" y="1295.9185">&#171;NULL&#187;</text><polygon fill="#181818" points="547.0552,1354.1172,557.0552,1358.1172,547.0552,1362.1172,551.0552,1358.1172" style="stroke:#181818;stroke-width:1;"/><line style="stroke:#181818;stroke-width:1;" x1="298.1289" x2="553.0552" y1="1358.1172" y2="1358.1172"/><text fill="#000000" font-family="sans-serif" font-size="13" lengthAdjust="spacing" textLength="64.0605" x="305.1289" y="1353.0513">getTotal()</text><polygon fill="#181818" points="309.1289,1383.25,299.1289,1387.25,309.1289,1391.25,305.1289,1387.25" style="stroke:#181818;stroke-width:1;"/><line style="stroke:#181818;stroke-width:1;stroke-dasharray:2,2;" x1="303.1289" x2="558.0552" y1="1387.25" y2="1387.25"/><text fill="#000000" font-family="sans-serif" font-size="13" lengthAdjust="spacing" textLength="154.375" x="315.1289" y="1382.1841">&#171;montoFinal : Decimal&#187;</text><rect fill="#E2E2F0" height="30.2969" rx="2.5" ry="2.5" style="stroke:#181818;stroke-width:0.5;" width="88.1084" x="1714.4663" y="1395.25"/><text fill="#000000" font-family="sans-serif" font-size="14" lengthAdjust="spacing" textLength="74.1084" x="1721.4663" y="1415.2451">pago:Pago</text><polygon fill="#181818" points="1702.4663,1412.3828,1712.4663,1416.3828,1702.4663,1420.3828,1706.4663,1416.3828" style="stroke:#181818;stroke-width:1;"/><line style="stroke:#181818;stroke-width:1;" x1="298.1289" x2="1708.4663" y1="1416.3828" y2="1416.3828"/><text fill="#000000" font-family="sans-serif" font-size="13" lengthAdjust="spacing" textLength="604.9951" x="305.1289" y="1411.3169">CrearPago(vta : Object Type : Venta, medioPago : String, montoFinal : Decimal, cuotas : INT)</text><polygon fill="#181818" points="309.1289,1443.6797,299.1289,1447.6797,309.1289,1451.6797,305.1289,1447.6797" style="stroke:#181818;stroke-width:1;"/><line style="stroke:#181818;stroke-width:1;stroke-dasharray:2,2;" x1="303.1289" x2="1757.5205" y1="1447.6797" y2="1447.6797"/><text fill="#000000" font-family="sans-serif" font-size="13" lengthAdjust="spacing" textLength="206.083" x="315.1289" y="1442.6138">&#171;pagoObj : Object Type : Pago&#187;</text><polygon fill="#181818" points="1866.6987,1472.8125,1876.6987,1476.8125,1866.6987,1480.8125,1870.6987,1476.8125" style="stroke:#181818;stroke-width:1;"/><line style="stroke:#181818;stroke-width:1;" x1="298.1289" x2="1872.6987" y1="1476.8125" y2="1476.8125"/><text fill="#000000" font-family="sans-serif" font-size="13" lengthAdjust="spacing" textLength="288.6978" x="305.1289" y="1471.7466">procesarPago(PagoObj : Object Type : Pago)</text><polygon fill="#181818" points="309.1289,1501.9453,299.1289,1505.9453,309.1289,1509.9453,305.1289,1505.9453" style="stroke:#181818;stroke-width:1;"/><line style="stroke:#181818;stroke-width:1;stroke-dasharray:2,2;" x1="303.1289" x2="1877.6987" y1="1505.9453" y2="1505.9453"/><text fill="#000000" font-family="sans-serif" font-size="13" lengthAdjust="spacing" textLength="141.959" x="315.1289" y="1500.8794">&#171;estadoPago : Enum&#187;</text><polygon fill="#181818" points="1746.5205,1531.0781,1756.5205,1535.0781,1746.5205,1539.0781,1750.5205,1535.0781" style="stroke:#181818;stroke-width:1;"/><line style="stroke:#181818;stroke-width:1;" x1="298.1289" x2="1752.5205" y1="1535.0781" y2="1535.0781"/><text fill="#000000" font-family="sans-serif" font-size="13" lengthAdjust="spacing" textLength="150.3188" x="305.1289" y="1530.0122">setEstado(estadoPago)</text><polygon fill="#181818" points="309.1289,1560.2109,299.1289,1564.2109,309.1289,1568.2109,305.1289,1564.2109" style="stroke:#181818;stroke-width:1;"/><line style="stroke:#181818;stroke-width:1;stroke-dasharray:2,2;" x1="303.1289" x2="1757.5205" y1="1564.2109" y2="1564.2109"/><text fill="#000000" font-family="sans-serif" font-size="13" lengthAdjust="spacing" textLength="49.6323" x="315.1289" y="1559.145">&#171;NULL&#187;</text><path d="M44.8794,1576.2109 L109.3223,1576.2109 L109.3223,1583.3438 L99.3223,1593.3438 L44.8794,1593.3438 L44.8794,1576.2109" fill="#EEEEEE" style="stroke:#000000;stroke-width:1.5;"/><rect fill="none" height="701.0234" style="stroke:#000000;stroke-width:1.5;" width="2489.8384" x="44.8794" y="1576.2109"/><text fill="#000000" font-family="sans-serif" font-size="13" font-weight="bold" lengthAdjust="spacing" textLength="19.4429" x="59.8794" y="1589.2778">alt</text><text fill="#000000" font-family="sans-serif" font-size="11" font-weight="bold" lengthAdjust="spacing" textLength="168.1904" x="124.3223" y="1588.4214">[estadoPago == aprobado]</text><line style="stroke:#000000;stroke-width:1;stroke-dasharray:2,2;" x1="44.8794" x2="2534.7178" y1="2228.2969" y2="2228.2969"/><text fill="#000000" font-family="sans-serif" font-size="11" font-weight="bold" lengthAdjust="spacing" textLength="176.145" x="49.8794" y="2240.5073">[estadoPago == Rechazado]</text><polygon fill="#181818" points="1866.6987,1620.4766,1876.6987,1624.4766,1866.6987,1628.4766,1870.6987,1624.4766" style="stroke:#181818;stroke-width:1;"/><line style="stroke:#181818;stroke-width:1;" x1="298.1289" x2="1872.6987" y1="1624.4766" y2="1624.4766"/><text fill="#000000" font-family="sans-serif" font-size="13" lengthAdjust="spacing" textLength="228.96" x="305.1289" y="1619.4106">confirmarTransaccion(nroVta : INT)</text><polygon fill="#181818" points="309.1289,1649.6094,299.1289,1653.6094,309.1289,1657.6094,305.1289,1653.6094" style="stroke:#181818;stroke-width:1;"/><line style="stroke:#181818;stroke-width:1;stroke-dasharray:2,2;" x1="303.1289" x2="1877.6987" y1="1653.6094" y2="1653.6094"/><text fill="#000000" font-family="sans-serif" font-size="13" lengthAdjust="spacing" textLength="141.083" x="315.1289" y="1648.5435">&#171;numTicketPos : INT&#187;</text><polygon fill="#181818" points="1746.5205,1678.7422,1756.5205,1682.7422,1746.5205,1686.7422,1750.5205,1682.7422" style="stroke:#181818;stroke-width:1;"/><line style="stroke:#181818;stroke-width:1;" x1="298.1289" x2="1752.5205" y1="1682.7422" y2="1682.7422"/><text fill="#000000" font-family="sans-serif" font-size="13" lengthAdjust="spacing" textLength="264.145" x="305.1289" y="1677.6763">setNumTransaccion(numTicketPos : INT)</text><polygon fill="#181818" points="309.1289,1707.875,299.1289,1711.875,309.1289,1715.875,305.1289,1711.875" style="stroke:#181818;stroke-width:1;"/><line style="stroke:#181818;stroke-width:1;stroke-dasharray:2,2;" x1="303.1289" x2="1757.5205" y1="1711.875" y2="1711.875"/><text fill="#000000" font-family="sans-serif" font-size="13" lengthAdjust="spacing" textLength="49.6323" x="315.1289" y="1706.8091">&#171;NULL&#187;</text><polygon fill="#181818" points="547.0552,1737.0078,557.0552,1741.0078,547.0552,1745.0078,551.0552,1741.0078" style="stroke:#181818;stroke-width:1;"/><line style="stroke:#181818;stroke-width:1;" x1="298.1289" x2="553.0552" y1="1741.0078" y2="1741.0078"/><text fill="#000000" font-family="sans-serif" font-size="13" lengthAdjust="spacing" textLength="187.4907" x="305.1289" y="1735.9419">setEstadoVenta(Concretado)</text><polygon fill="#181818" points="309.1289,1766.1406,299.1289,1770.1406,309.1289,1774.1406,305.1289,1770.1406" style="stroke:#181818;stroke-width:1;"/><line style="stroke:#181818;stroke-width:1;stroke-dasharray:2,2;" x1="303.1289" x2="558.0552" y1="1770.1406" y2="1770.1406"/><text fill="#000000" font-family="sans-serif" font-size="13" lengthAdjust="spacing" textLength="49.6323" x="315.1289" y="1765.0747">&#171;NULL&#187;</text><polygon fill="#181818" points="2016.4355,1795.2734,2026.4355,1799.2734,2016.4355,1803.2734,2020.4355,1799.2734" style="stroke:#181818;stroke-width:1;"/><line style="stroke:#181818;stroke-width:1;" x1="298.1289" x2="2022.4355" y1="1799.2734" y2="1799.2734"/><text fill="#000000" font-family="sans-serif" font-size="13" lengthAdjust="spacing" textLength="266.665" x="305.1289" y="1794.2075">registrarVenta(vta : Object Type : Venta)</text><polygon fill="#181818" points="2269.2983,1824.4063,2279.2983,1828.4063,2269.2983,1832.4063,2273.2983,1828.4063" style="stroke:#181818;stroke-width:1;"/><line style="stroke:#181818;stroke-width:1;" x1="2038.4355" x2="2275.2983" y1="1828.4063" y2="1828.4063"/><text fill="#000000" font-family="sans-serif" font-size="13" lengthAdjust="spacing" textLength="223.8628" x="2045.4355" y="1823.3403">agregar(vta : Object Type : Venta)</text><polygon fill="#181818" points="2049.4355,1853.5391,2039.4355,1857.5391,2049.4355,1861.5391,2045.4355,1857.5391" style="stroke:#181818;stroke-width:1;"/><line style="stroke:#181818;stroke-width:1;stroke-dasharray:2,2;" x1="2043.4355" x2="2280.2983" y1="1857.5391" y2="1857.5391"/><text fill="#000000" font-family="sans-serif" font-size="13" lengthAdjust="spacing" textLength="49.6323" x="2055.4355" y="1852.4731">&#171;NULL&#187;</text><polygon fill="#181818" points="309.1289,1882.6719,299.1289,1886.6719,309.1289,1890.6719,305.1289,1886.6719" style="stroke:#181818;stroke-width:1;"/><line style="stroke:#181818;stroke-width:1;stroke-dasharray:2,2;" x1="303.1289" x2="2027.4355" y1="1886.6719" y2="1886.6719"/><text fill="#000000" font-family="sans-serif" font-size="13" lengthAdjust="spacing" textLength="49.6323" x="315.1289" y="1881.606">&#171;NULL&#187;</text><rect fill="#E2E2F0" height="30.2969" rx="2.5" ry="2.5" style="stroke:#181818;stroke-width:0.5;" width="80.1514" x="2346.7583" y="1894.6719"/><text fill="#000000" font-family="sans-serif" font-size="14" lengthAdjust="spacing" textLength="66.1514" x="2353.7583" y="1914.667">tkt:Ticket</text><polygon fill="#181818" points="2334.7583,1911.8047,2344.7583,1915.8047,2334.7583,1919.8047,2338.7583,1915.8047" style="stroke:#181818;stroke-width:1;"/><line style="stroke:#181818;stroke-width:1;" x1="298.1289" x2="2340.7583" y1="1915.8047" y2="1915.8047"/><text fill="#000000" font-family="sans-serif" font-size="13" lengthAdjust="spacing" textLength="247.7935" x="305.1289" y="1910.7388">CrearTicket(vta : Object Type : Venta)</text><polygon fill="#181818" points="309.1289,1943.1016,299.1289,1947.1016,309.1289,1951.1016,305.1289,1947.1016" style="stroke:#181818;stroke-width:1;"/><line style="stroke:#181818;stroke-width:1;stroke-dasharray:2,2;" x1="303.1289" x2="2385.834" y1="1947.1016" y2="1947.1016"/><text fill="#000000" font-family="sans-serif" font-size="13" lengthAdjust="spacing" textLength="176.5981" x="315.1289" y="1942.0356">&#171;tkt : Object Type : Ticket&#187;</text><polygon fill="#181818" points="547.0552,1972.2344,557.0552,1976.2344,547.0552,1980.2344,551.0552,1976.2344" style="stroke:#181818;stroke-width:1;"/><line style="stroke:#181818;stroke-width:1;" x1="298.1289" x2="553.0552" y1="1976.2344" y2="1976.2344"/><text fill="#000000" font-family="sans-serif" font-size="13" lengthAdjust="spacing" textLength="100.6929" x="305.1289" y="1971.1685">getClienteDNI()</text><polygon fill="#181818" points="309.1289,2001.3672,299.1289,2005.3672,309.1289,2009.3672,305.1289,2005.3672" style="stroke:#181818;stroke-width:1;"/><line style="stroke:#181818;stroke-width:1;stroke-dasharray:2,2;" x1="303.1289" x2="558.0552" y1="2005.3672" y2="2005.3672"/><text fill="#000000" font-family="sans-serif" font-size="13" lengthAdjust="spacing" textLength="79.2314" x="315.1289" y="2000.3013">&#171;dniC : INT&#187;</text><polygon fill="#181818" points="1124.1123,2030.5,1134.1123,2034.5,1124.1123,2038.5,1128.1123,2034.5" style="stroke:#181818;stroke-width:1;"/><line style="stroke:#181818;stroke-width:1;" x1="298.1289" x2="1130.1123" y1="2034.5" y2="2034.5"/><text fill="#000000" font-family="sans-serif" font-size="13" lengthAdjust="spacing" textLength="67.5581" x="305.1289" y="2029.4341">getEmail()</text><polygon fill="#181818" points="309.1289,2059.6328,299.1289,2063.6328,309.1289,2067.6328,305.1289,2063.6328" style="stroke:#181818;stroke-width:1;"/><line style="stroke:#181818;stroke-width:1;stroke-dasharray:2,2;" x1="303.1289" x2="1135.1123" y1="2063.6328" y2="2063.6328"/><text fill="#000000" font-family="sans-serif" font-size="13" lengthAdjust="spacing" textLength="103.2002" x="315.1289" y="2058.5669">&#171;email : String&#187;</text><polygon fill="#181818" points="1124.1123,2088.7656,1134.1123,2092.7656,1124.1123,2096.7656,1128.1123,2092.7656" style="stroke:#181818;stroke-width:1;"/><line style="stroke:#181818;stroke-width:1;" x1="298.1289" x2="1130.1123" y1="2092.7656" y2="2092.7656"/><text fill="#000000" font-family="sans-serif" font-size="13" lengthAdjust="spacing" textLength="81.6689" x="305.1289" y="2087.6997">getNumTel()</text><polygon fill="#181818" points="309.1289,2117.8984,299.1289,2121.8984,309.1289,2125.8984,305.1289,2121.8984" style="stroke:#181818;stroke-width:1;"/><line style="stroke:#181818;stroke-width:1;stroke-dasharray:2,2;" x1="303.1289" x2="1135.1123" y1="2121.8984" y2="2121.8984"/><text fill="#000000" font-family="sans-serif" font-size="13" lengthAdjust="spacing" textLength="84.0557" x="315.1289" y="2116.8325">&#171;tel : String&#187;</text><polygon fill="#181818" points="2496.7178,2147.0313,2506.7178,2151.0313,2496.7178,2155.0313,2500.7178,2151.0313" style="stroke:#181818;stroke-width:1;"/><line style="stroke:#181818;stroke-width:1;" x1="298.1289" x2="2502.7178" y1="2151.0313" y2="2151.0313"/><text fill="#000000" font-family="sans-serif" font-size="13" lengthAdjust="spacing" textLength="465.1436" x="305.1289" y="2145.9653">enviarTicketDigital(tkt : Object Type : Ticket, email : String, tel : String)</text><polygon fill="#181818" points="309.1289,2176.1641,299.1289,2180.1641,309.1289,2184.1641,305.1289,2180.1641" style="stroke:#181818;stroke-width:1;"/><line style="stroke:#181818;stroke-width:1;stroke-dasharray:2,2;" x1="303.1289" x2="2507.7178" y1="2180.1641" y2="2180.1641"/><text fill="#000000" font-family="sans-serif" font-size="13" lengthAdjust="spacing" textLength="49.6323" x="315.1289" y="2175.0981">&#171;NULL&#187;</text><polygon fill="#181818" points="71.8794,2205.2969,61.8794,2209.2969,71.8794,2213.2969,67.8794,2209.2969" style="stroke:#181818;stroke-width:1;"/><line style="stroke:#181818;stroke-width:1;stroke-dasharray:2,2;" x1="65.8794" x2="297.1289" y1="2209.2969" y2="2209.2969"/><text fill="#000000" font-family="sans-serif" font-size="13" lengthAdjust="spacing" textLength="213.2495" x="77.8794" y="2204.231">"Venta Finalizada Exitosamente"</text><polygon fill="#181818" points="71.8794,2265.2344,61.8794,2269.2344,71.8794,2273.2344,67.8794,2269.2344" style="stroke:#181818;stroke-width:1;"/><line style="stroke:#181818;stroke-width:1;stroke-dasharray:2,2;" x1="65.8794" x2="297.1289" y1="2269.2344" y2="2269.2344"/><text fill="#000000" font-family="sans-serif" font-size="13" lengthAdjust="spacing" textLength="160.1958" x="77.8794" y="2264.1685">"Error: Pago Rechazado"</text><!--SRC=[jLZDSjis4BxhARQwM4fjnKtQYqRn32qn6NSKIoF9lYGvG1GY8oO95GGrRjwX3z5ZfzDJZht5BzR57mbILAoCNHyIWTpzzjiVB1RyOIF8EY4WAVyCKkIqTSDM53voBfVyhYMPZ2bCoPgtMYIIN42R9fj-c6nYIbQy3IG3VD3Q425Pn3OabT2EjlqXJwNWCOg8QvfAacd9Q5iLt4hIrw_rMrnLNt_zEybZoVZo4vNywx_lqnML98vfrX-P7wLkp59AiXgDg3yOp5cwZb4zFJjxdmu9gl4r7yOCDQab5LNLOfP9Cdp7FlIjc9PYaYQuhbc8MKKesX4OqMml2_KkHrrkUQXr0vNHkziF_GNRbF85eLsDbRAtAwmUJvQVgh8Rp6fVfLQBgDMEIBRfpwdOufehGKCqgwURo6jCv1ul_VHhmGTolDNoNbdezmQbgYfl9ReQtLAfvQJ-MUCV5Vo7N0ZgGgr_jrefbnJubWfLmyVkCU3VLD28fojKlF-IzY6CbOGkUM0fFYL0OuWOHGKCBiG4DEzUYwOhKB2jrX6yUiGVgl_KWs4m7bwDWnai9ejW3EUpgyNaiS3H5axEr6Q3FcOaZlAOY0N7P7MwQekpBS6WgBseuX1pli7I40H5LmHMG5Dmkr0Bg3-5XP1c3oBgcifvlfGMqqaLs7QlkkTMxQGWDHXaLXiN8ngnXCHdPuNyYZOXOTnR1HU4GYyLqYwCfwwSh8GZez94egPM2qpDnkNLUDm0_EZyl-X1C1rV337zi_3DE9X3fsmPm6568o9mKtOVQwf5OWa9NPbDZbWGlWw7YulhYGxf4So2jm44_UAnYjYKPso9PqD1ISlwqSGoiCrnT7bX2s6dm6gnNALcg-FYud9XirwFR6aeYb1mcMSO26kgKqMeMSLUNrJr3S7c2YWUff4whTJUHjUTVb5lQ0CjsVvlt2hzgQ2xCyAzS3edZgdsh-9QpJqVmLMqiby6AD8Si57JICBYzmt5bNLzDrhehXyiHvzchx6zvJfSzG1Puv6ZRQnw6hW-dqp63SPGrO1XDVaA6DJ5x2ei0shOgC8fibTKKQTjlO42eDqGQdDO5Ysap6V2KK8diW6eKD0qD06RMai6W_DM0tZftKbnnRJBim7p_1eCB9K-pAN0az7BU4FMAw0kzHvDRukOitod2YgdVdDvcQZL4b7YeVTJBY9L_PzeKu6xCQA4DgeUkmq2FDIs7KpnJf_3Wgrl9F2FQahq0vNcTCjrMuPNO1hp2TWE_GoqlUVmq-bfrm-VFOEhdjQQl0ViTVeTfxTUBsZk_0qkEYMLoHQDCrhjhujWzcku2FpsUjvtJ_tkQdiyTCxW9KGvaiswnIOpQy1NXqLIM30NncVGEUszE5N_MwWJUDcjLhwMn6b-LjFzqQ5zRzJhWFzVw5NKhLy3BqI77VXFNmQw51uz5BpigM7WOhwOuLWm3TvCe7EHOkDBSIOLc9Mfu17DYEW-vPYuTc7wzY2Ku37ANxFqWOdh288k30Kb2OunE3bZls4hijAtJEZCw1flFKBDsPAAb7TR4OgYhhkW669sfKu_V2sKRiUGhNP5VPOVUxlFjMDyra3ts5MCdHuAvkNroDZrMrv1fMfQcQkwxq0m1ETT6CSaqJ500fczfG2zqrv3PpgPFp_7jAe0Q8-p3M9kR7grlzDl6FQeutqDTIkdkSHXnqOZJFEaoXBbaU2m2q4aSnAppus9mfb9tO44pV1-Xd0xUS6z5Mf3dTBUOG7T7QYBm9dPeg2FhPHWI9RAljfdjg7E6LuQDUlVSgfO5k5DkReCRtCQRodaAQI2BmH9CnBXsnGw94-jIdB_b-GMzaXTUwv_wRr0VHmsq6d9HOe1kTl4z_z4J994pHV7I0tY-ozh5d7bFjOb2cTCmIaFy9-CT7iMCiZoX3cEsAhuKkAyeax7M0LNOYLmlN3aUzuifui1fJuoaU3rhNIXWnvT5zClLASxpAnQLwi1yszkqNZcx1kxLKcKnYivlaHrt_mEMct2TAbK3_VdlcQ_oBy9tQWBUjzYQGeef_LQPpVLfrztyC31DgBMXzr3ccaKjmyyiqsRGljO6aCYx_zK7plyQLj_x40muIGDaxrDgZw9cuyb6j108QZtBGJLo1gnYJWOql-IebxuQ2S-vNt-rm4SiOVYPdsneJFrOG1CQvVU4nqyyy0rTwDmi9iUciNnFmZSoeR9MKdjqlQ0BFL7dQW6ukSUX9VNztzCO1J2SF9sEfkS1vUByAaiFC4DVFYjstSHZTgbCam8Ym-zJYhP-iMeTfNSPqVr6tge8Kc_rup-18WwDDqoLtaZjcPwIDnREzZvAouTWs-vphNyp6ZDFRo1x0TBHnJbQQAEWBRvrk6wuOf0UCSapyo1r3PNZ-g1YOFt3VdiJimgMYW45sQ0AENQPdJrwMp_0m00]--></g></svg>