<?xml version="1.0" encoding="us-ascii" standalone="no"?><svg xmlns="http://www.w3.org/2000/svg" xmlns:xlink="http://www.w3.org/1999/xlink" contentStyleType="text/css" height="1716px" preserveAspectRatio="none" style="width:1336px;height:1716px;background:#FFFFFF;" version="1.1" viewBox="0 0 1336 1716" width="1336px" zoomAndPan="magnify"><defs/><g><rect fill="#FFFFFF" height="177.1094" style="stroke:#181818;stroke-width:1.0;" width="10" x="530.5" y="159.3125"/><rect fill="#FFFFFF" height="91.0547" style="stroke:#181818;stroke-width:1.0;" width="10" x="530.5" y="523.1797"/><rect fill="#FFFFFF" height="267.8125" style="stroke:#181818;stroke-width:1.0;" width="10" x="530.5" y="739.6406"/><rect fill="#FFFFFF" height="91.0547" style="stroke:#181818;stroke-width:1.0;" width="10" x="530.5" y="1045.6406"/><rect fill="#FFFFFF" height="60.7031" style="stroke:#181818;stroke-width:1.0;" width="10" x="977.5" y="387.7734"/><rect fill="#FFFFFF" height="104.0547" style="stroke:#181818;stroke-width:1.0;" width="10" x="977.5" y="1255.75"/><rect fill="#FFFFFF" height="30.3516" style="stroke:#181818;stroke-width:1.0;" width="10" x="977.5" y="1450.8594"/><rect fill="#FFFFFF" height="30.3516" style="stroke:#181818;stroke-width:1.0;" width="10" x="977.5" y="1511.5625"/><rect fill="#FFFFFF" height="30.3516" style="stroke:#181818;stroke-width:1.0;" width="10" x="1074.5" y="189.6641"/><rect fill="#FFFFFF" height="30.3516" style="stroke:#181818;stroke-width:1.0;" width="10" x="1264.5" y="1390.1563"/><rect fill="none" height="123.4063" style="stroke:#000000;stroke-width:1.5;" width="988" x="30" y="235.0156"/><rect fill="none" height="478.1094" style="stroke:#000000;stroke-width:1.5;" width="1214.5" x="10" y="673.5859"/><rect fill="none" height="445.7578" style="stroke:#000000;stroke-width:1.5;" width="1194.5" x="20" y="698.9375"/><rect fill="none" height="141.7578" style="stroke:#000000;stroke-width:1.5;" width="988" x="30" y="858.6953"/><line style="stroke:#181818;stroke-width:0.5;stroke-dasharray:5.0,5.0;" x1="74" x2="74" y1="82.6094" y2="1634.6172"/><line style="stroke:#181818;stroke-width:0.5;stroke-dasharray:5.0,5.0;" x1="535.5" x2="535.5" y1="82.6094" y2="1634.6172"/><line style="stroke:#181818;stroke-width:0.5;stroke-dasharray:5.0,5.0;" x1="982" x2="982" y1="82.6094" y2="1634.6172"/><line style="stroke:#181818;stroke-width:0.5;stroke-dasharray:5.0,5.0;" x1="1079.5" x2="1079.5" y1="82.6094" y2="1634.6172"/><line style="stroke:#181818;stroke-width:0.5;stroke-dasharray:5.0,5.0;" x1="1159.5" x2="1159.5" y1="82.6094" y2="1634.6172"/><line style="stroke:#181818;stroke-width:0.5;stroke-dasharray:5.0,5.0;" x1="1269.5" x2="1269.5" y1="82.6094" y2="1634.6172"/><text fill="#000000" font-family="sans-serif" font-size="14" lengthAdjust="spacing" textLength="63" x="40" y="79.5332">Empleado</text><ellipse cx="74.5" cy="13.5" fill="#E2E2F0" rx="8" ry="8" style="stroke:#181818;stroke-width:0.5;"/><path d="M74.5,21.5 L74.5,48.5 M61.5,29.5 L87.5,29.5 M74.5,48.5 L61.5,63.5 M74.5,48.5 L87.5,63.5 " fill="none" style="stroke:#181818;stroke-width:0.5;"/><text fill="#000000" font-family="sans-serif" font-size="14" lengthAdjust="spacing" textLength="63" x="40" y="1648.1504">Empleado</text><ellipse cx="74.5" cy="1659.7266" fill="#E2E2F0" rx="8" ry="8" style="stroke:#181818;stroke-width:0.5;"/><path d="M74.5,1667.7266 L74.5,1694.7266 M61.5,1675.7266 L87.5,1675.7266 M74.5,1694.7266 L61.5,1709.7266 M74.5,1694.7266 L87.5,1709.7266 " fill="none" style="stroke:#181818;stroke-width:0.5;"/><text fill="#000000" font-family="sans-serif" font-size="14" lengthAdjust="spacing" textLength="126" x="469.5" y="79.5332">NegocioControlador</text><ellipse cx="535.5" cy="49" fill="#E2E2F0" rx="12" ry="12" style="stroke:#181818;stroke-width:0.5;"/><polygon fill="#181818" points="531.5,37,537.5,32,535.5,37,537.5,42,531.5,37" style="stroke:#181818;stroke-width:1.0;"/><text fill="#000000" font-family="sans-serif" font-size="14" lengthAdjust="spacing" textLength="126" x="469.5" y="1648.1504">NegocioControlador</text><ellipse cx="535.5" cy="1667.2266" fill="#E2E2F0" rx="12" ry="12" style="stroke:#181818;stroke-width:0.5;"/><polygon fill="#181818" points="531.5,1655.2266,537.5,1650.2266,535.5,1655.2266,537.5,1660.2266,531.5,1655.2266" style="stroke:#181818;stroke-width:1.0;"/><rect fill="#E2E2F0" height="31.6094" rx="2.5" ry="2.5" style="stroke:#181818;stroke-width:0.5;" width="51" x="957" y="50"/><text fill="#000000" font-family="sans-serif" font-size="14" lengthAdjust="spacing" textLength="37" x="964" y="71.5332">Venta</text><rect fill="#E2E2F0" height="31.6094" rx="2.5" ry="2.5" style="stroke:#181818;stroke-width:0.5;" width="51" x="957" y="1633.6172"/><text fill="#000000" font-family="sans-serif" font-size="14" lengthAdjust="spacing" textLength="37" x="964" y="1655.1504">Venta</text><text fill="#000000" font-family="sans-serif" font-size="14" lengthAdjust="spacing" textLength="44" x="1054.5" y="79.5332">Cliente</text><ellipse cx="1079.5" cy="49" fill="#E2E2F0" rx="12" ry="12" style="stroke:#181818;stroke-width:0.5;"/><line style="stroke:#181818;stroke-width:0.5;" x1="1067.5" x2="1091.5" y1="63" y2="63"/><text fill="#000000" font-family="sans-serif" font-size="14" lengthAdjust="spacing" textLength="44" x="1054.5" y="1648.1504">Cliente</text><ellipse cx="1079.5" cy="1667.2266" fill="#E2E2F0" rx="12" ry="12" style="stroke:#181818;stroke-width:0.5;"/><line style="stroke:#181818;stroke-width:0.5;" x1="1067.5" x2="1091.5" y1="1681.2266" y2="1681.2266"/><text fill="#000000" font-family="sans-serif" font-size="14" lengthAdjust="spacing" textLength="84" x="1114.5" y="79.5332">Medicamento</text><ellipse cx="1159.5" cy="49" fill="#E2E2F0" rx="12" ry="12" style="stroke:#181818;stroke-width:0.5;"/><line style="stroke:#181818;stroke-width:0.5;" x1="1147.5" x2="1171.5" y1="63" y2="63"/><text fill="#000000" font-family="sans-serif" font-size="14" lengthAdjust="spacing" textLength="84" x="1114.5" y="1648.1504">Medicamento</text><ellipse cx="1159.5" cy="1667.2266" fill="#E2E2F0" rx="12" ry="12" style="stroke:#181818;stroke-width:0.5;"/><line style="stroke:#181818;stroke-width:0.5;" x1="1147.5" x2="1171.5" y1="1681.2266" y2="1681.2266"/><rect fill="#E2E2F0" height="31.6094" rx="2.5" ry="2.5" style="stroke:#181818;stroke-width:0.5;" width="110" x="1214.5" y="50"/><text fill="#000000" font-family="sans-serif" font-size="14" lengthAdjust="spacing" textLength="96" x="1221.5" y="71.5332">TipoDescuento</text><rect fill="#E2E2F0" height="31.6094" rx="2.5" ry="2.5" style="stroke:#181818;stroke-width:0.5;" width="110" x="1214.5" y="1633.6172"/><text fill="#000000" font-family="sans-serif" font-size="14" lengthAdjust="spacing" textLength="96" x="1221.5" y="1655.1504">TipoDescuento</text><rect fill="#FFFFFF" height="177.1094" style="stroke:#181818;stroke-width:1.0;" width="10" x="530.5" y="159.3125"/><rect fill="#FFFFFF" height="91.0547" style="stroke:#181818;stroke-width:1.0;" width="10" x="530.5" y="523.1797"/><rect fill="#FFFFFF" height="267.8125" style="stroke:#181818;stroke-width:1.0;" width="10" x="530.5" y="739.6406"/><rect fill="#FFFFFF" height="91.0547" style="stroke:#181818;stroke-width:1.0;" width="10" x="530.5" y="1045.6406"/><rect fill="#FFFFFF" height="60.7031" style="stroke:#181818;stroke-width:1.0;" width="10" x="977.5" y="387.7734"/><rect fill="#FFFFFF" height="104.0547" style="stroke:#181818;stroke-width:1.0;" width="10" x="977.5" y="1255.75"/><rect fill="#FFFFFF" height="30.3516" style="stroke:#181818;stroke-width:1.0;" width="10" x="977.5" y="1450.8594"/><rect fill="#FFFFFF" height="30.3516" style="stroke:#181818;stroke-width:1.0;" width="10" x="977.5" y="1511.5625"/><rect fill="#FFFFFF" height="30.3516" style="stroke:#181818;stroke-width:1.0;" width="10" x="1074.5" y="189.6641"/><rect fill="#FFFFFF" height="30.3516" style="stroke:#181818;stroke-width:1.0;" width="10" x="1264.5" y="1390.1563"/><rect fill="#EEEEEE" height="3" style="stroke:#EEEEEE;stroke-width:1.0;" width="1329.5" x="0" y="113.7852"/><line style="stroke:#000000;stroke-width:1.0;" x1="0" x2="1329.5" y1="113.7852" y2="113.7852"/><line style="stroke:#000000;stroke-width:1.0;" x1="0" x2="1329.5" y1="116.7852" y2="116.7852"/><rect fill="#EEEEEE" height="24.3516" style="stroke:#000000;stroke-width:2.0;" width="92" x="618.75" y="102.6094"/><text fill="#000000" font-family="sans-serif" font-size="13" font-weight="bold" lengthAdjust="spacing" textLength="74" x="624.75" y="120.1045">Crear venta</text><polygon fill="#181818" points="518.5,155.3125,528.5,159.3125,518.5,163.3125,522.5,159.3125" style="stroke:#181818;stroke-width:1.0;"/><line style="stroke:#181818;stroke-width:1.0;" x1="74.5" x2="524.5" y1="159.3125" y2="159.3125"/><text fill="#000000" font-family="sans-serif" font-size="13" lengthAdjust="spacing" textLength="179" x="81.5" y="154.4561">crearVenta(clienteDNI, tipoVta)</text><polygon fill="#181818" points="1062.5,185.6641,1072.5,189.6641,1062.5,193.6641,1066.5,189.6641" style="stroke:#181818;stroke-width:1.0;"/><line style="stroke:#181818;stroke-width:1.0;" x1="540.5" x2="1068.5" y1="189.6641" y2="189.6641"/><text fill="#000000" font-family="sans-serif" font-size="13" lengthAdjust="spacing" textLength="125" x="547.5" y="184.8076">getCliente(clienteDNI)</text><polygon fill="#181818" points="551.5,216.0156,541.5,220.0156,551.5,224.0156,547.5,220.0156" style="stroke:#181818;stroke-width:1.0;"/><line style="stroke:#181818;stroke-width:1.0;stroke-dasharray:2.0,2.0;" x1="545.5" x2="1078.5" y1="220.0156" y2="220.0156"/><text fill="#000000" font-family="sans-serif" font-size="13" lengthAdjust="spacing" textLength="100" x="557.5" y="215.1592">&#171;Object: Cliente&#187;</text><path d="M30,235.0156 L91,235.0156 L91,243.3672 L81,253.3672 L30,253.3672 L30,235.0156 " fill="#EEEEEE" style="stroke:#000000;stroke-width:1.5;"/><rect fill="none" height="123.4063" style="stroke:#000000;stroke-width:1.5;" width="988" x="30" y="235.0156"/><text fill="#000000" font-family="sans-serif" font-size="13" font-weight="bold" lengthAdjust="spacing" textLength="16" x="45" y="249.5107">alt</text><text fill="#000000" font-family="sans-serif" font-size="11" font-weight="bold" lengthAdjust="spacing" textLength="188" x="106" y="248.4346">[cliente provisto y deuda &gt;= 80000]</text><polygon fill="#181818" points="85.5,271.7188,75.5,275.7188,85.5,279.7188,81.5,275.7188" style="stroke:#181818;stroke-width:1.0;"/><line style="stroke:#181818;stroke-width:1.0;stroke-dasharray:2.0,2.0;" x1="79.5" x2="529.5" y1="275.7188" y2="275.7188"/><text fill="#000000" font-family="sans-serif" font-size="13" lengthAdjust="spacing" textLength="432" x="91.5" y="270.8623">&lt;Mostrar Mensaje: "Cliente con deuda &gt;= $80.000 - No se permite venta"&gt;</text><polygon fill="#181818" points="970.5,302.0703,980.5,306.0703,970.5,310.0703,974.5,306.0703" style="stroke:#181818;stroke-width:1.0;"/><line style="stroke:#181818;stroke-width:1.0;" x1="540.5" x2="976.5" y1="306.0703" y2="306.0703"/><text fill="#000000" font-family="sans-serif" font-size="13" lengthAdjust="spacing" textLength="128" x="547.5" y="301.2139">setEstado(Cancelado)</text><polygon fill="#181818" points="85.5,332.4219,75.5,336.4219,85.5,340.4219,81.5,336.4219" style="stroke:#181818;stroke-width:1.0;"/><line style="stroke:#181818;stroke-width:1.0;stroke-dasharray:2.0,2.0;" x1="79.5" x2="534.5" y1="336.4219" y2="336.4219"/><text fill="#000000" font-family="sans-serif" font-size="13" lengthAdjust="spacing" textLength="228" x="91.5" y="331.5654">&lt;Mostrar Mensaje: "Venta cancelada"&gt;</text><polygon fill="#181818" points="523.5,346.4219,533.5,350.4219,523.5,354.4219,527.5,350.4219" style="stroke:#181818;stroke-width:1.0;"/><line style="stroke:#181818;stroke-width:1.0;stroke-dasharray:2.0,2.0;" x1="74.5" x2="529.5" y1="350.4219" y2="350.4219"/><polygon fill="#181818" points="965.5,383.7734,975.5,387.7734,965.5,391.7734,969.5,387.7734" style="stroke:#181818;stroke-width:1.0;"/><line style="stroke:#181818;stroke-width:1.0;" x1="535.5" x2="971.5" y1="387.7734" y2="387.7734"/><text fill="#000000" font-family="sans-serif" font-size="13" lengthAdjust="spacing" textLength="243" x="542.5" y="382.917">new Venta(clienteDNI, tipoVta=sinReceta)</text><polygon fill="#181818" points="546.5,414.125,536.5,418.125,546.5,422.125,542.5,418.125" style="stroke:#181818;stroke-width:1.0;"/><line style="stroke:#181818;stroke-width:1.0;stroke-dasharray:2.0,2.0;" x1="540.5" x2="976.5" y1="418.125" y2="418.125"/><text fill="#000000" font-family="sans-serif" font-size="13" lengthAdjust="spacing" textLength="140" x="552.5" y="413.2686">&#171;Object: Venta(nroVta)&#187;</text><polygon fill="#181818" points="85.5,444.4766,75.5,448.4766,85.5,452.4766,81.5,448.4766" style="stroke:#181818;stroke-width:1.0;"/><line style="stroke:#181818;stroke-width:1.0;stroke-dasharray:2.0,2.0;" x1="79.5" x2="534.5" y1="448.4766" y2="448.4766"/><text fill="#000000" font-family="sans-serif" font-size="13" lengthAdjust="spacing" textLength="258" x="91.5" y="443.6201">&lt;Mostrar Mensaje: "Venta creada (nroVta)"&gt;</text><rect fill="#EEEEEE" height="3" style="stroke:#EEEEEE;stroke-width:1.0;" width="1329.5" x="0" y="477.6523"/><line style="stroke:#000000;stroke-width:1.0;" x1="0" x2="1329.5" y1="477.6523" y2="477.6523"/><line style="stroke:#000000;stroke-width:1.0;" x1="0" x2="1329.5" y1="480.6523" y2="480.6523"/><rect fill="#EEEEEE" height="24.3516" style="stroke:#000000;stroke-width:2.0;" width="257" x="536.25" y="466.4766"/><text fill="#000000" font-family="sans-serif" font-size="13" font-weight="bold" lengthAdjust="spacing" textLength="239" x="542.25" y="483.9717">Listado de medicamentos disponibles</text><polygon fill="#181818" points="518.5,519.1797,528.5,523.1797,518.5,527.1797,522.5,523.1797" style="stroke:#181818;stroke-width:1.0;"/><line style="stroke:#181818;stroke-width:1.0;" x1="74.5" x2="524.5" y1="523.1797" y2="523.1797"/><text fill="#000000" font-family="sans-serif" font-size="13" lengthAdjust="spacing" textLength="152" x="81.5" y="518.3232">filtrarMedicamentos(filtros)</text><polygon fill="#181818" points="1147.5,549.5313,1157.5,553.5313,1147.5,557.5313,1151.5,553.5313" style="stroke:#181818;stroke-width:1.0;"/><line style="stroke:#181818;stroke-width:1.0;" x1="540.5" x2="1153.5" y1="553.5313" y2="553.5313"/><text fill="#000000" font-family="sans-serif" font-size="13" lengthAdjust="spacing" textLength="149" x="547.5" y="548.6748">obtenerDisponibles(filtros)</text><polygon fill="#181818" points="551.5,579.8828,541.5,583.8828,551.5,587.8828,547.5,583.8828" style="stroke:#181818;stroke-width:1.0;"/><line style="stroke:#181818;stroke-width:1.0;stroke-dasharray:2.0,2.0;" x1="545.5" x2="1158.5" y1="583.8828" y2="583.8828"/><text fill="#000000" font-family="sans-serif" font-size="13" lengthAdjust="spacing" textLength="115" x="557.5" y="579.0264">List&lt;Medicamento&gt;</text><polygon fill="#181818" points="85.5,610.2344,75.5,614.2344,85.5,618.2344,81.5,614.2344" style="stroke:#181818;stroke-width:1.0;"/><line style="stroke:#181818;stroke-width:1.0;stroke-dasharray:2.0,2.0;" x1="79.5" x2="534.5" y1="614.2344" y2="614.2344"/><text fill="#000000" font-family="sans-serif" font-size="13" lengthAdjust="spacing" textLength="115" x="91.5" y="609.3779">List&lt;Medicamento&gt;</text><rect fill="#EEEEEE" height="3" style="stroke:#EEEEEE;stroke-width:1.0;" width="1329.5" x="0" y="643.4102"/><line style="stroke:#000000;stroke-width:1.0;" x1="0" x2="1329.5" y1="643.4102" y2="643.4102"/><line style="stroke:#000000;stroke-width:1.0;" x1="0" x2="1329.5" y1="646.4102" y2="646.4102"/><rect fill="#EEEEEE" height="24.3516" style="stroke:#000000;stroke-width:2.0;" width="128" x="600.75" y="632.2344"/><text fill="#000000" font-family="sans-serif" font-size="13" font-weight="bold" lengthAdjust="spacing" textLength="110" x="606.75" y="649.7295">Gesti&#243;n de l&#237;neas</text><path d="M10,673.5859 L83,673.5859 L83,681.9375 L73,691.9375 L10,691.9375 L10,673.5859 " fill="#EEEEEE" style="stroke:#000000;stroke-width:1.5;"/><rect fill="none" height="478.1094" style="stroke:#000000;stroke-width:1.5;" width="1214.5" x="10" y="673.5859"/><text fill="#000000" font-family="sans-serif" font-size="13" font-weight="bold" lengthAdjust="spacing" textLength="28" x="25" y="688.0811">loop</text><text fill="#000000" font-family="sans-serif" font-size="11" font-weight="bold" lengthAdjust="spacing" textLength="97" x="98" y="687.0049">[gestionar l&#237;neas]</text><path d="M20,698.9375 L81,698.9375 L81,707.2891 L71,717.2891 L20,717.2891 L20,698.9375 " fill="#EEEEEE" style="stroke:#000000;stroke-width:1.5;"/><rect fill="none" height="445.7578" style="stroke:#000000;stroke-width:1.5;" width="1194.5" x="20" y="698.9375"/><text fill="#000000" font-family="sans-serif" font-size="13" font-weight="bold" lengthAdjust="spacing" textLength="16" x="35" y="713.4326">alt</text><text fill="#000000" font-family="sans-serif" font-size="11" font-weight="bold" lengthAdjust="spacing" textLength="80" x="96" y="712.3564">[agregar l&#237;nea]</text><polygon fill="#181818" points="518.5,735.6406,528.5,739.6406,518.5,743.6406,522.5,739.6406" style="stroke:#181818;stroke-width:1.0;"/><line style="stroke:#181818;stroke-width:1.0;" x1="74.5" x2="524.5" y1="739.6406" y2="739.6406"/><text fill="#000000" font-family="sans-serif" font-size="13" lengthAdjust="spacing" textLength="237" x="81.5" y="734.7842">agregarLinea(nroVta, codBarra, cantidad)</text><polygon fill="#181818" points="1147.5,765.9922,1157.5,769.9922,1147.5,773.9922,1151.5,769.9922" style="stroke:#181818;stroke-width:1.0;"/><line style="stroke:#181818;stroke-width:1.0;" x1="540.5" x2="1153.5" y1="769.9922" y2="769.9922"/><text fill="#000000" font-family="sans-serif" font-size="13" lengthAdjust="spacing" textLength="181" x="547.5" y="765.1357">obtenerMedicamento(codBarra)</text><polygon fill="#181818" points="551.5,796.3438,541.5,800.3438,551.5,804.3438,547.5,800.3438" style="stroke:#181818;stroke-width:1.0;"/><line style="stroke:#181818;stroke-width:1.0;stroke-dasharray:2.0,2.0;" x1="545.5" x2="1158.5" y1="800.3438" y2="800.3438"/><text fill="#000000" font-family="sans-serif" font-size="13" lengthAdjust="spacing" textLength="78" x="557.5" y="795.4873">Medicamento</text><line style="stroke:#181818;stroke-width:1.0;" x1="540.5" x2="582.5" y1="830.6953" y2="830.6953"/><line style="stroke:#181818;stroke-width:1.0;" x1="582.5" x2="582.5" y1="830.6953" y2="843.6953"/><line style="stroke:#181818;stroke-width:1.0;" x1="541.5" x2="582.5" y1="843.6953" y2="843.6953"/><polygon fill="#181818" points="551.5,839.6953,541.5,843.6953,551.5,847.6953,547.5,843.6953" style="stroke:#181818;stroke-width:1.0;"/><text fill="#000000" font-family="sans-serif" font-size="13" lengthAdjust="spacing" textLength="423" x="547.5" y="825.8389">validarSinReceta(Medicamento.controlado, Medicamento.requiereReceta)</text><path d="M30,858.6953 L91,858.6953 L91,867.0469 L81,877.0469 L30,877.0469 L30,858.6953 " fill="#EEEEEE" style="stroke:#000000;stroke-width:1.5;"/><rect fill="none" height="141.7578" style="stroke:#000000;stroke-width:1.5;" width="988" x="30" y="858.6953"/><text fill="#000000" font-family="sans-serif" font-size="13" font-weight="bold" lengthAdjust="spacing" textLength="16" x="45" y="873.1904">alt</text><text fill="#000000" font-family="sans-serif" font-size="11" font-weight="bold" lengthAdjust="spacing" textLength="155" x="106" y="872.1143">[requiereReceta/controlado]</text><polygon fill="#181818" points="85.5,895.3984,75.5,899.3984,85.5,903.3984,81.5,899.3984" style="stroke:#181818;stroke-width:1.0;"/><line style="stroke:#181818;stroke-width:1.0;stroke-dasharray:2.0,2.0;" x1="79.5" x2="529.5" y1="899.3984" y2="899.3984"/><text fill="#000000" font-family="sans-serif" font-size="13" lengthAdjust="spacing" textLength="144" x="91.5" y="894.542">"No permitido sin receta"</text><line style="stroke:#000000;stroke-width:1.0;stroke-dasharray:2.0,2.0;" x1="30" x2="1018" y1="908.3984" y2="908.3984"/><polygon fill="#181818" points="970.5,927.75,980.5,931.75,970.5,935.75,974.5,931.75" style="stroke:#181818;stroke-width:1.0;"/><line style="stroke:#181818;stroke-width:1.0;" x1="540.5" x2="976.5" y1="931.75" y2="931.75"/><text fill="#000000" font-family="sans-serif" font-size="13" lengthAdjust="spacing" textLength="222" x="547.5" y="926.8936">agregarDetalle(Medicamento,cantidad)</text><polygon fill="#181818" points="551.5,958.1016,541.5,962.1016,551.5,966.1016,547.5,962.1016" style="stroke:#181818;stroke-width:1.0;"/><line style="stroke:#181818;stroke-width:1.0;stroke-dasharray:2.0,2.0;" x1="545.5" x2="981.5" y1="962.1016" y2="962.1016"/><text fill="#000000" font-family="sans-serif" font-size="13" lengthAdjust="spacing" textLength="93" x="557.5" y="957.2451">detalleAgregado</text><polygon fill="#181818" points="85.5,988.4531,75.5,992.4531,85.5,996.4531,81.5,992.4531" style="stroke:#181818;stroke-width:1.0;"/><line style="stroke:#181818;stroke-width:1.0;stroke-dasharray:2.0,2.0;" x1="79.5" x2="529.5" y1="992.4531" y2="992.4531"/><text fill="#000000" font-family="sans-serif" font-size="13" lengthAdjust="spacing" textLength="98" x="91.5" y="987.5967">"L&#237;nea agregada"</text><line style="stroke:#000000;stroke-width:1.0;stroke-dasharray:2.0,2.0;" x1="20" x2="1214.5" y1="1008.4531" y2="1008.4531"/><text fill="#000000" font-family="sans-serif" font-size="11" font-weight="bold" lengthAdjust="spacing" textLength="88" x="25" y="1019.8721">[editar/eliminar]</text><polygon fill="#181818" points="518.5,1041.6406,528.5,1045.6406,518.5,1049.6406,522.5,1045.6406" style="stroke:#181818;stroke-width:1.0;"/><line style="stroke:#181818;stroke-width:1.0;" x1="74.5" x2="524.5" y1="1045.6406" y2="1045.6406"/><text fill="#000000" font-family="sans-serif" font-size="13" lengthAdjust="spacing" textLength="279" x="81.5" y="1040.7842">editar/eliminar l&#237;nea (nroVta, codBarra, cantidad)</text><polygon fill="#181818" points="970.5,1071.9922,980.5,1075.9922,970.5,1079.9922,974.5,1075.9922" style="stroke:#181818;stroke-width:1.0;"/><line style="stroke:#181818;stroke-width:1.0;" x1="540.5" x2="976.5" y1="1075.9922" y2="1075.9922"/><text fill="#000000" font-family="sans-serif" font-size="13" lengthAdjust="spacing" textLength="258" x="547.5" y="1071.1357">modificar/eliminarDetalle(codBarra, cantidad)</text><polygon fill="#181818" points="551.5,1102.3438,541.5,1106.3438,551.5,1110.3438,547.5,1106.3438" style="stroke:#181818;stroke-width:1.0;"/><line style="stroke:#181818;stroke-width:1.0;stroke-dasharray:2.0,2.0;" x1="545.5" x2="981.5" y1="1106.3438" y2="1106.3438"/><text fill="#000000" font-family="sans-serif" font-size="13" lengthAdjust="spacing" textLength="14" x="557.5" y="1101.4873">ok</text><polygon fill="#181818" points="85.5,1132.6953,75.5,1136.6953,85.5,1140.6953,81.5,1136.6953" style="stroke:#181818;stroke-width:1.0;"/><line style="stroke:#181818;stroke-width:1.0;stroke-dasharray:2.0,2.0;" x1="79.5" x2="534.5" y1="1136.6953" y2="1136.6953"/><text fill="#000000" font-family="sans-serif" font-size="13" lengthAdjust="spacing" textLength="120" x="91.5" y="1131.8389">"Detalle actualizado"</text><rect fill="#EEEEEE" height="3" style="stroke:#EEEEEE;stroke-width:1.0;" width="1329.5" x="0" y="1179.8711"/><line style="stroke:#000000;stroke-width:1.0;" x1="0" x2="1329.5" y1="1179.8711" y2="1179.8711"/><line style="stroke:#000000;stroke-width:1.0;" x1="0" x2="1329.5" y1="1182.8711" y2="1182.8711"/><rect fill="#EEEEEE" height="24.3516" style="stroke:#000000;stroke-width:2.0;" width="213" x="558.25" y="1168.6953"/><text fill="#000000" font-family="sans-serif" font-size="13" font-weight="bold" lengthAdjust="spacing" textLength="195" x="564.25" y="1186.1904">Resumen: totales y descuentos</text><polygon fill="#181818" points="518.5,1221.3984,528.5,1225.3984,518.5,1229.3984,522.5,1225.3984" style="stroke:#181818;stroke-width:1.0;"/><line style="stroke:#181818;stroke-width:1.0;" x1="74.5" x2="524.5" y1="1225.3984" y2="1225.3984"/><text fill="#000000" font-family="sans-serif" font-size="13" lengthAdjust="spacing" textLength="146" x="81.5" y="1220.542">solicitarResumen(nroVta)</text><polygon fill="#181818" points="965.5,1251.75,975.5,1255.75,965.5,1259.75,969.5,1255.75" style="stroke:#181818;stroke-width:1.0;"/><line style="stroke:#181818;stroke-width:1.0;" x1="540.5" x2="971.5" y1="1255.75" y2="1255.75"/><text fill="#000000" font-family="sans-serif" font-size="13" lengthAdjust="spacing" textLength="112" x="547.5" y="1250.8936">calcularTotalBruto()</text><polygon fill="#181818" points="551.5,1282.1016,541.5,1286.1016,551.5,1290.1016,547.5,1286.1016" style="stroke:#181818;stroke-width:1.0;"/><line style="stroke:#181818;stroke-width:1.0;stroke-dasharray:2.0,2.0;" x1="545.5" x2="976.5" y1="1286.1016" y2="1286.1016"/><text fill="#000000" font-family="sans-serif" font-size="13" lengthAdjust="spacing" textLength="134" x="557.5" y="1281.2451">&#171;decimal: montoBruto&#187;</text><line style="stroke:#181818;stroke-width:1.0;" x1="987.5" x2="1029.5" y1="1316.4531" y2="1316.4531"/><line style="stroke:#181818;stroke-width:1.0;" x1="1029.5" x2="1029.5" y1="1316.4531" y2="1329.4531"/><line style="stroke:#181818;stroke-width:1.0;" x1="988.5" x2="1029.5" y1="1329.4531" y2="1329.4531"/><polygon fill="#181818" points="998.5,1325.4531,988.5,1329.4531,998.5,1333.4531,994.5,1329.4531" style="stroke:#181818;stroke-width:1.0;"/><text fill="#000000" font-family="sans-serif" font-size="13" lengthAdjust="spacing" textLength="73" x="994.5" y="1311.5967">getDetalles()</text><polygon fill="#181818" points="551.5,1355.8047,541.5,1359.8047,551.5,1363.8047,547.5,1359.8047" style="stroke:#181818;stroke-width:1.0;"/><line style="stroke:#181818;stroke-width:1.0;stroke-dasharray:2.0,2.0;" x1="545.5" x2="981.5" y1="1359.8047" y2="1359.8047"/><text fill="#000000" font-family="sans-serif" font-size="13" lengthAdjust="spacing" textLength="143" x="557.5" y="1354.9482">&lt;&lt;List&lt;DetalleVenta&gt;&gt;&gt;</text><polygon fill="#181818" points="1252.5,1386.1563,1262.5,1390.1563,1252.5,1394.1563,1256.5,1390.1563" style="stroke:#181818;stroke-width:1.0;"/><line style="stroke:#181818;stroke-width:1.0;" x1="540.5" x2="1258.5" y1="1390.1563" y2="1390.1563"/><text fill="#000000" font-family="sans-serif" font-size="13" lengthAdjust="spacing" textLength="180" x="547.5" y="1385.2998">esAplicable(nroVta, clienteDNI)</text><polygon fill="#181818" points="551.5,1416.5078,541.5,1420.5078,551.5,1424.5078,547.5,1420.5078" style="stroke:#181818;stroke-width:1.0;"/><line style="stroke:#181818;stroke-width:1.0;stroke-dasharray:2.0,2.0;" x1="545.5" x2="1268.5" y1="1420.5078" y2="1420.5078"/><text fill="#000000" font-family="sans-serif" font-size="13" lengthAdjust="spacing" textLength="333" x="557.5" y="1415.6514">&#171;Object: TipoDescuentoInfo(motivo, porcentaje, vigencia)&#187;</text><polygon fill="#181818" points="965.5,1446.8594,975.5,1450.8594,965.5,1454.8594,969.5,1450.8594" style="stroke:#181818;stroke-width:1.0;"/><line style="stroke:#181818;stroke-width:1.0;" x1="540.5" x2="971.5" y1="1450.8594" y2="1450.8594"/><text fill="#000000" font-family="sans-serif" font-size="13" lengthAdjust="spacing" textLength="145" x="547.5" y="1446.0029">aplicarDescuento(motivo)</text><polygon fill="#181818" points="551.5,1477.2109,541.5,1481.2109,551.5,1485.2109,547.5,1481.2109" style="stroke:#181818;stroke-width:1.0;"/><line style="stroke:#181818;stroke-width:1.0;stroke-dasharray:2.0,2.0;" x1="545.5" x2="981.5" y1="1481.2109" y2="1481.2109"/><text fill="#000000" font-family="sans-serif" font-size="13" lengthAdjust="spacing" textLength="122" x="557.5" y="1476.3545">&#171;Object: Descuento&#187;</text><polygon fill="#181818" points="965.5,1507.5625,975.5,1511.5625,965.5,1515.5625,969.5,1511.5625" style="stroke:#181818;stroke-width:1.0;"/><line style="stroke:#181818;stroke-width:1.0;" x1="540.5" x2="971.5" y1="1511.5625" y2="1511.5625"/><text fill="#000000" font-family="sans-serif" font-size="13" lengthAdjust="spacing" textLength="109" x="547.5" y="1506.7061">calcularTotalFinal()</text><polygon fill="#181818" points="551.5,1537.9141,541.5,1541.9141,551.5,1545.9141,547.5,1541.9141" style="stroke:#181818;stroke-width:1.0;"/><line style="stroke:#181818;stroke-width:1.0;stroke-dasharray:2.0,2.0;" x1="545.5" x2="981.5" y1="1541.9141" y2="1541.9141"/><text fill="#000000" font-family="sans-serif" font-size="13" lengthAdjust="spacing" textLength="120" x="557.5" y="1537.0576">&#171;decimal: totalFinal&#187;</text><rect fill="#EEEEEE" height="3" style="stroke:#EEEEEE;stroke-width:1.0;" width="1329.5" x="0" y="1571.0898"/><line style="stroke:#000000;stroke-width:1.0;" x1="0" x2="1329.5" y1="1571.0898" y2="1571.0898"/><line style="stroke:#000000;stroke-width:1.0;" x1="0" x2="1329.5" y1="1574.0898" y2="1574.0898"/><rect fill="#EEEEEE" height="24.3516" style="stroke:#000000;stroke-width:2.0;" width="92" x="618.75" y="1559.9141"/><text fill="#000000" font-family="sans-serif" font-size="13" font-weight="bold" lengthAdjust="spacing" textLength="74" x="624.75" y="1577.4092">Fin proceso</text><polygon fill="#181818" points="85.5,1612.6172,75.5,1616.6172,85.5,1620.6172,81.5,1616.6172" style="stroke:#181818;stroke-width:1.0;"/><line style="stroke:#181818;stroke-width:1.0;stroke-dasharray:2.0,2.0;" x1="79.5" x2="529.5" y1="1616.6172" y2="1616.6172"/><text fill="#000000" font-family="sans-serif" font-size="13" lengthAdjust="spacing" textLength="86" x="91.5" y="1611.7607">finalizarVenta()</text><!--SRC=[jLTBRjim4Dth58HHe3RWV9Q14Gj8xBG8aAH06cJFK6E3AIMg9EKYlLDNFK8krY55wfF8bkoWMXWIoNdpVSFnP_88cQ54yumeO82lOmsiW8nnEeaeCrAHgpGNG1CPHKncHab1xc0j6PUByXEtL9HJPJZZESrCYHdX3pSlP24ula7ul8M4CvhYbsp9FF1SBa5RrRWJpUTaeO0gid7spUTHi88SnHtwoOmmUzwf7hDIv_BkUaeC0Z-QqXc-eGQwhEy0H3NUTCHUW_4V3Um6P70oI1njC_By_DlJCp0p2o9n72Nm3YUYmX2lYUHARhWsahoG18g4adXEpaxnYGW-NQQZzYfSgFDMQgCmbhUGQVeCCp8ATc92QynFPwV7Y4gEo9qa6lM2IZaUSYaOnLkrnRw8PYXahhJ1rV62PWpi_kHm8qjKvf621OreTIJIdb1W2fLXmILHjDlU37wHhHKpHrBSEquq4bsMTYa_8CabUAPS1MAgFn87B6_CKm0RjUgcD6jtQ2odRhXB3mQHf3KHDKcupcN6dmJeGLnRSM6DR91PZzsQr8SGhO63uFB9G0PgMTjKOpTFRes_zVAySN98tD_Bz4VpAsZ3N_zQ2X7n-YS3wg8dfConO-2Up32HViULfgKrNIjOL-jksJwzCVToDnobV1LCaS399LNAlc4NvGbD9XLY7q-syxap7ut5SL1RAnkKc6Rptsr1f_Y62lHGVG-y73VmZbbrTDhKSwpWPy51GQ1o5HrCHNllf8QeJWrhNYDic6MtvFXTNwQZ2WU4XbxGkZ7vN2yHGmXe-ZbzdsVxz7Iaf0IwSB3xktVZIjLRbJJTmXuRtliRimq2GLSCLISWUCgH7iFh_usWvm_vprG86KbbmbUOXDg0a9nTUdlI8dz4UsJ1AxJE5CY4txWysYVwc2jt9zhMTG-wm7gQ4ICH5Bk-dItyz3Ni2j1IuEo66V5GuM8weFs763CgM26eUh0sNQe26yt-Lsy2ZATKs8oXBmu5BrulLkl2YSx7KwEINbHtFNW1TpYEEoxWBVwrPbjRoVeYn-1HlDhgwkqQAzj3SHjcmFJH4hZELdASIaJ61fbBnQp5pp0b6xukn_ssHsy6yfv-vVnHrNclwF31gKBQ8yoTPVG5gIe-KaQcGkaq1Rc4ctP6Pw2bPKu_arSM3Vdh_wrCedy0]--></g></svg>