<?xml version="1.0" encoding="us-ascii" standalone="no"?><svg xmlns="http://www.w3.org/2000/svg" xmlns:xlink="http://www.w3.org/1999/xlink" contentStyleType="text/css" height="2337px" preserveAspectRatio="none" style="width:1434px;height:2337px;background:#FFFFFF;" version="1.1" viewBox="0 0 1434 2337" width="1434px" zoomAndPan="magnify"><defs/><g><rect fill="#FFFFFF" height="159.7578" style="stroke:#181818;stroke-width:1.0;" width="10" x="431.5" y="159.3125"/><rect fill="#FFFFFF" height="146.7578" style="stroke:#181818;stroke-width:1.0;" width="10" x="431.5" y="521.6641"/><rect fill="#FFFFFF" height="91.0547" style="stroke:#181818;stroke-width:1.0;" width="10" x="431.5" y="1097.9609"/><rect fill="#FFFFFF" height="281.6484" style="stroke:#181818;stroke-width:1.0;" width="10" x="431.5" y="1270.0703"/><rect fill="#FFFFFF" height="91.0547" style="stroke:#181818;stroke-width:1.0;" width="10" x="431.5" y="1589.9063"/><rect fill="#FFFFFF" height="91.0547" style="stroke:#181818;stroke-width:1.0;" width="10" x="431.5" y="1727.1484"/><rect fill="#FFFFFF" height="255.8125" style="stroke:#181818;stroke-width:1.0;" width="10" x="431.5" y="1906.9063"/><rect fill="#FFFFFF" height="60.7031" style="stroke:#181818;stroke-width:1.0;" width="10" x="895" y="379.2578"/><rect fill="none" height="169.5938" style="stroke:#000000;stroke-width:1.5;" width="905.5" x="30" y="278.3672"/><rect fill="none" height="426.8906" style="stroke:#000000;stroke-width:1.5;" width="1293.5" x="20" y="597.3672"/><rect fill="none" height="169.5938" style="stroke:#000000;stroke-width:1.5;" width="905.5" x="30" y="847.6641"/><rect fill="none" height="629.1875" style="stroke:#000000;stroke-width:1.5;" width="1035.5" x="10" y="1204.0156"/><rect fill="none" height="596.8359" style="stroke:#000000;stroke-width:1.5;" width="1015.5" x="20" y="1229.3672"/><rect fill="none" height="155.5938" style="stroke:#000000;stroke-width:1.5;" width="905.5" x="30" y="1389.125"/><line style="stroke:#181818;stroke-width:0.5;stroke-dasharray:5.0,5.0;" x1="74" x2="74" y1="82.6094" y2="2255.4219"/><line style="stroke:#181818;stroke-width:0.5;stroke-dasharray:5.0,5.0;" x1="436.5" x2="436.5" y1="82.6094" y2="2255.4219"/><line style="stroke:#181818;stroke-width:0.5;stroke-dasharray:5.0,5.0;" x1="839.5" x2="839.5" y1="82.6094" y2="2255.4219"/><line style="stroke:#181818;stroke-width:0.5;stroke-dasharray:5.0,5.0;" x1="899.5" x2="899.5" y1="82.6094" y2="2255.4219"/><line style="stroke:#181818;stroke-width:0.5;stroke-dasharray:5.0,5.0;" x1="980.5" x2="980.5" y1="82.6094" y2="2255.4219"/><line style="stroke:#181818;stroke-width:0.5;stroke-dasharray:5.0,5.0;" x1="1090.5" x2="1090.5" y1="82.6094" y2="2255.4219"/><line style="stroke:#181818;stroke-width:0.5;stroke-dasharray:5.0,5.0;" x1="1229.5" x2="1229.5" y1="82.6094" y2="2255.4219"/><line style="stroke:#181818;stroke-width:0.5;stroke-dasharray:5.0,5.0;" x1="1336.5" x2="1336.5" y1="82.6094" y2="2255.4219"/><line style="stroke:#181818;stroke-width:0.5;stroke-dasharray:5.0,5.0;" x1="1396.5" x2="1396.5" y1="82.6094" y2="2255.4219"/><text fill="#000000" font-family="sans-serif" font-size="14" lengthAdjust="spacing" textLength="63" x="40" y="79.5332">Empleado</text><ellipse cx="74.5" cy="13.5" fill="#E2E2F0" rx="8" ry="8" style="stroke:#181818;stroke-width:0.5;"/><path d="M74.5,21.5 L74.5,48.5 M61.5,29.5 L87.5,29.5 M74.5,48.5 L61.5,63.5 M74.5,48.5 L87.5,63.5 " fill="none" style="stroke:#181818;stroke-width:0.5;"/><text fill="#000000" font-family="sans-serif" font-size="14" lengthAdjust="spacing" textLength="63" x="40" y="2268.9551">Empleado</text><ellipse cx="74.5" cy="2280.5313" fill="#E2E2F0" rx="8" ry="8" style="stroke:#181818;stroke-width:0.5;"/><path d="M74.5,2288.5313 L74.5,2315.5313 M61.5,2296.5313 L87.5,2296.5313 M74.5,2315.5313 L61.5,2330.5313 M74.5,2315.5313 L87.5,2330.5313 " fill="none" style="stroke:#181818;stroke-width:0.5;"/><text fill="#000000" font-family="sans-serif" font-size="14" lengthAdjust="spacing" textLength="126" x="370.5" y="79.5332">NegocioControlador</text><ellipse cx="436.5" cy="49" fill="#E2E2F0" rx="12" ry="12" style="stroke:#181818;stroke-width:0.5;"/><polygon fill="#181818" points="432.5,37,438.5,32,436.5,37,438.5,42,432.5,37" style="stroke:#181818;stroke-width:1.0;"/><text fill="#000000" font-family="sans-serif" font-size="14" lengthAdjust="spacing" textLength="126" x="370.5" y="2268.9551">NegocioControlador</text><ellipse cx="436.5" cy="2288.0313" fill="#E2E2F0" rx="12" ry="12" style="stroke:#181818;stroke-width:0.5;"/><polygon fill="#181818" points="432.5,2276.0313,438.5,2271.0313,436.5,2276.0313,438.5,2281.0313,432.5,2276.0313" style="stroke:#181818;stroke-width:1.0;"/><text fill="#000000" font-family="sans-serif" font-size="14" lengthAdjust="spacing" textLength="44" x="814.5" y="79.5332">Cliente</text><ellipse cx="839.5" cy="49" fill="#E2E2F0" rx="12" ry="12" style="stroke:#181818;stroke-width:0.5;"/><line style="stroke:#181818;stroke-width:0.5;" x1="827.5" x2="851.5" y1="63" y2="63"/><text fill="#000000" font-family="sans-serif" font-size="14" lengthAdjust="spacing" textLength="44" x="814.5" y="2268.9551">Cliente</text><ellipse cx="839.5" cy="2288.0313" fill="#E2E2F0" rx="12" ry="12" style="stroke:#181818;stroke-width:0.5;"/><line style="stroke:#181818;stroke-width:0.5;" x1="827.5" x2="851.5" y1="2302.0313" y2="2302.0313"/><rect fill="#E2E2F0" height="31.6094" rx="2.5" ry="2.5" style="stroke:#181818;stroke-width:0.5;" width="51" x="874.5" y="50"/><text fill="#000000" font-family="sans-serif" font-size="14" lengthAdjust="spacing" textLength="37" x="881.5" y="71.5332">Venta</text><rect fill="#E2E2F0" height="31.6094" rx="2.5" ry="2.5" style="stroke:#181818;stroke-width:0.5;" width="51" x="874.5" y="2254.4219"/><text fill="#000000" font-family="sans-serif" font-size="14" lengthAdjust="spacing" textLength="37" x="881.5" y="2275.9551">Venta</text><text fill="#000000" font-family="sans-serif" font-size="14" lengthAdjust="spacing" textLength="84" x="935.5" y="79.5332">Medicamento</text><ellipse cx="980.5" cy="49" fill="#E2E2F0" rx="12" ry="12" style="stroke:#181818;stroke-width:0.5;"/><line style="stroke:#181818;stroke-width:0.5;" x1="968.5" x2="992.5" y1="63" y2="63"/><text fill="#000000" font-family="sans-serif" font-size="14" lengthAdjust="spacing" textLength="84" x="935.5" y="2268.9551">Medicamento</text><ellipse cx="980.5" cy="2288.0313" fill="#E2E2F0" rx="12" ry="12" style="stroke:#181818;stroke-width:0.5;"/><line style="stroke:#181818;stroke-width:0.5;" x1="968.5" x2="992.5" y1="2302.0313" y2="2302.0313"/><rect fill="#E2E2F0" height="31.6094" rx="2.5" ry="2.5" style="stroke:#181818;stroke-width:0.5;" width="110" x="1035.5" y="50"/><text fill="#000000" font-family="sans-serif" font-size="14" lengthAdjust="spacing" textLength="96" x="1042.5" y="71.5332">TipoDescuento</text><rect fill="#E2E2F0" height="31.6094" rx="2.5" ry="2.5" style="stroke:#181818;stroke-width:0.5;" width="110" x="1035.5" y="2254.4219"/><text fill="#000000" font-family="sans-serif" font-size="14" lengthAdjust="spacing" textLength="96" x="1042.5" y="2275.9551">TipoDescuento</text><text fill="#000000" font-family="sans-serif" font-size="14" lengthAdjust="spacing" textLength="142" x="1155.5" y="79.5332">ServicioObrasSociales</text><ellipse cx="1229.5" cy="49" fill="#E2E2F0" rx="12" ry="12" style="stroke:#181818;stroke-width:0.5;"/><polygon fill="#181818" points="1225.5,37,1231.5,32,1229.5,37,1231.5,42,1225.5,37" style="stroke:#181818;stroke-width:1.0;"/><text fill="#000000" font-family="sans-serif" font-size="14" lengthAdjust="spacing" textLength="142" x="1155.5" y="2268.9551">ServicioObrasSociales</text><ellipse cx="1229.5" cy="2288.0313" fill="#E2E2F0" rx="12" ry="12" style="stroke:#181818;stroke-width:0.5;"/><polygon fill="#181818" points="1225.5,2276.0313,1231.5,2271.0313,1229.5,2276.0313,1231.5,2281.0313,1225.5,2276.0313" style="stroke:#181818;stroke-width:1.0;"/><rect fill="#E2E2F0" height="31.6094" rx="2.5" ry="2.5" style="stroke:#181818;stroke-width:0.5;" width="47" x="1313.5" y="50"/><text fill="#000000" font-family="sans-serif" font-size="14" lengthAdjust="spacing" textLength="33" x="1320.5" y="71.5332">Pago</text><rect fill="#E2E2F0" height="31.6094" rx="2.5" ry="2.5" style="stroke:#181818;stroke-width:0.5;" width="47" x="1313.5" y="2254.4219"/><text fill="#000000" font-family="sans-serif" font-size="14" lengthAdjust="spacing" textLength="33" x="1320.5" y="2275.9551">Pago</text><rect fill="#E2E2F0" height="31.6094" rx="2.5" ry="2.5" style="stroke:#181818;stroke-width:0.5;" width="52" x="1370.5" y="50"/><text fill="#000000" font-family="sans-serif" font-size="14" lengthAdjust="spacing" textLength="38" x="1377.5" y="71.5332">Ticket</text><rect fill="#E2E2F0" height="31.6094" rx="2.5" ry="2.5" style="stroke:#181818;stroke-width:0.5;" width="52" x="1370.5" y="2254.4219"/><text fill="#000000" font-family="sans-serif" font-size="14" lengthAdjust="spacing" textLength="38" x="1377.5" y="2275.9551">Ticket</text><rect fill="#FFFFFF" height="159.7578" style="stroke:#181818;stroke-width:1.0;" width="10" x="431.5" y="159.3125"/><rect fill="#FFFFFF" height="146.7578" style="stroke:#181818;stroke-width:1.0;" width="10" x="431.5" y="521.6641"/><rect fill="#FFFFFF" height="91.0547" style="stroke:#181818;stroke-width:1.0;" width="10" x="431.5" y="1097.9609"/><rect fill="#FFFFFF" height="281.6484" style="stroke:#181818;stroke-width:1.0;" width="10" x="431.5" y="1270.0703"/><rect fill="#FFFFFF" height="91.0547" style="stroke:#181818;stroke-width:1.0;" width="10" x="431.5" y="1589.9063"/><rect fill="#FFFFFF" height="91.0547" style="stroke:#181818;stroke-width:1.0;" width="10" x="431.5" y="1727.1484"/><rect fill="#FFFFFF" height="255.8125" style="stroke:#181818;stroke-width:1.0;" width="10" x="431.5" y="1906.9063"/><rect fill="#FFFFFF" height="60.7031" style="stroke:#181818;stroke-width:1.0;" width="10" x="895" y="379.2578"/><rect fill="#EEEEEE" height="3" style="stroke:#EEEEEE;stroke-width:1.0;" width="1427.5" x="0" y="113.7852"/><line style="stroke:#000000;stroke-width:1.0;" x1="0" x2="1427.5" y1="113.7852" y2="113.7852"/><line style="stroke:#000000;stroke-width:1.0;" x1="0" x2="1427.5" y1="116.7852" y2="116.7852"/><rect fill="#EEEEEE" height="24.3516" style="stroke:#000000;stroke-width:2.0;" width="207" x="610.25" y="102.6094"/><text fill="#000000" font-family="sans-serif" font-size="13" font-weight="bold" lengthAdjust="spacing" textLength="189" x="616.25" y="120.1045">Inicio: creaci&#243;n y elegibilidad</text><polygon fill="#181818" points="419.5,155.3125,429.5,159.3125,419.5,163.3125,423.5,159.3125" style="stroke:#181818;stroke-width:1.0;"/><line style="stroke:#181818;stroke-width:1.0;" x1="74.5" x2="425.5" y1="159.3125" y2="159.3125"/><text fill="#000000" font-family="sans-serif" font-size="13" lengthAdjust="spacing" textLength="303" x="81.5" y="154.4561">iniciarVenta(clienteId, tipoVta=conReceta, usuarioId)</text><polygon fill="#181818" points="827.5,185.6641,837.5,189.6641,827.5,193.6641,831.5,189.6641" style="stroke:#181818;stroke-width:1.0;"/><line style="stroke:#181818;stroke-width:1.0;" x1="441.5" x2="833.5" y1="189.6641" y2="189.6641"/><text fill="#000000" font-family="sans-serif" font-size="13" lengthAdjust="spacing" textLength="112" x="448.5" y="184.8076">obtenerCliente(DNI)</text><polygon fill="#181818" points="452.5,216.0156,442.5,220.0156,452.5,224.0156,448.5,220.0156" style="stroke:#181818;stroke-width:1.0;"/><line style="stroke:#181818;stroke-width:1.0;stroke-dasharray:2.0,2.0;" x1="446.5" x2="838.5" y1="220.0156" y2="220.0156"/><text fill="#000000" font-family="sans-serif" font-size="13" lengthAdjust="spacing" textLength="40" x="458.5" y="215.1592">Cliente</text><line style="stroke:#181818;stroke-width:1.0;" x1="441.5" x2="483.5" y1="250.3672" y2="250.3672"/><line style="stroke:#181818;stroke-width:1.0;" x1="483.5" x2="483.5" y1="250.3672" y2="263.3672"/><line style="stroke:#181818;stroke-width:1.0;" x1="442.5" x2="483.5" y1="263.3672" y2="263.3672"/><polygon fill="#181818" points="452.5,259.3672,442.5,263.3672,452.5,267.3672,448.5,263.3672" style="stroke:#181818;stroke-width:1.0;"/><text fill="#000000" font-family="sans-serif" font-size="13" lengthAdjust="spacing" textLength="184" x="448.5" y="245.5107">validarElegibilidadVenta(Cliente)</text><path d="M30,278.3672 L91,278.3672 L91,286.7188 L81,296.7188 L30,296.7188 L30,278.3672 " fill="#EEEEEE" style="stroke:#000000;stroke-width:1.5;"/><rect fill="none" height="169.5938" style="stroke:#000000;stroke-width:1.5;" width="905.5" x="30" y="278.3672"/><text fill="#000000" font-family="sans-serif" font-size="13" font-weight="bold" lengthAdjust="spacing" textLength="16" x="45" y="292.8623">alt</text><text fill="#000000" font-family="sans-serif" font-size="11" font-weight="bold" lengthAdjust="spacing" textLength="210" x="106" y="291.7861">[cliente frecuente con deuda &gt;= 80000]</text><polygon fill="#181818" points="85.5,315.0703,75.5,319.0703,85.5,323.0703,81.5,319.0703" style="stroke:#181818;stroke-width:1.0;"/><line style="stroke:#181818;stroke-width:1.0;stroke-dasharray:2.0,2.0;" x1="79.5" x2="435.5" y1="319.0703" y2="319.0703"/><text fill="#000000" font-family="sans-serif" font-size="13" lengthAdjust="spacing" textLength="282" x="91.5" y="314.2139">"Cliente con deuda &gt;= 80.000. Venta bloqueada"</text><polygon fill="#181818" points="424.5,329.0703,434.5,333.0703,424.5,337.0703,428.5,333.0703" style="stroke:#181818;stroke-width:1.0;"/><line style="stroke:#181818;stroke-width:1.0;stroke-dasharray:2.0,2.0;" x1="74.5" x2="430.5" y1="333.0703" y2="333.0703"/><line style="stroke:#000000;stroke-width:1.0;stroke-dasharray:2.0,2.0;" x1="30" x2="935.5" y1="342.0703" y2="342.0703"/><text fill="#000000" font-family="sans-serif" font-size="11" font-weight="bold" lengthAdjust="spacing" textLength="52" x="35" y="353.4893">[elegible]</text><polygon fill="#181818" points="883,375.2578,893,379.2578,883,383.2578,887,379.2578" style="stroke:#181818;stroke-width:1.0;"/><line style="stroke:#181818;stroke-width:1.0;" x1="436.5" x2="889" y1="379.2578" y2="379.2578"/><text fill="#000000" font-family="sans-serif" font-size="13" lengthAdjust="spacing" textLength="255" x="443.5" y="374.4014">crearVenta(Cliente, tipoVta, nombreUsuario)</text><polygon fill="#181818" points="447.5,405.6094,437.5,409.6094,447.5,413.6094,443.5,409.6094" style="stroke:#181818;stroke-width:1.0;"/><line style="stroke:#181818;stroke-width:1.0;stroke-dasharray:2.0,2.0;" x1="441.5" x2="894" y1="409.6094" y2="409.6094"/><text fill="#000000" font-family="sans-serif" font-size="13" lengthAdjust="spacing" textLength="38" x="453.5" y="404.7529">nroVta</text><polygon fill="#181818" points="85.5,435.9609,75.5,439.9609,85.5,443.9609,81.5,439.9609" style="stroke:#181818;stroke-width:1.0;"/><line style="stroke:#181818;stroke-width:1.0;stroke-dasharray:2.0,2.0;" x1="79.5" x2="435.5" y1="439.9609" y2="439.9609"/><text fill="#000000" font-family="sans-serif" font-size="13" lengthAdjust="spacing" textLength="137" x="91.5" y="435.1045">"Venta creada (nroVta)"</text><rect fill="#EEEEEE" height="3" style="stroke:#EEEEEE;stroke-width:1.0;" width="1427.5" x="0" y="476.1367"/><line style="stroke:#000000;stroke-width:1.0;" x1="0" x2="1427.5" y1="476.1367" y2="476.1367"/><line style="stroke:#000000;stroke-width:1.0;" x1="0" x2="1427.5" y1="479.1367" y2="479.1367"/><rect fill="#EEEEEE" height="24.3516" style="stroke:#000000;stroke-width:2.0;" width="333" x="547.25" y="464.9609"/><text fill="#000000" font-family="sans-serif" font-size="13" font-weight="bold" lengthAdjust="spacing" textLength="315" x="553.25" y="482.4561">Validaci&#243;n de afiliaci&#243;n y receta (solo con receta)</text><polygon fill="#181818" points="419.5,517.6641,429.5,521.6641,419.5,525.6641,423.5,521.6641" style="stroke:#181818;stroke-width:1.0;"/><line style="stroke:#181818;stroke-width:1.0;" x1="74.5" x2="425.5" y1="521.6641" y2="521.6641"/><text fill="#000000" font-family="sans-serif" font-size="13" lengthAdjust="spacing" textLength="242" x="81.5" y="516.8076">validarAfiliacion(obraSocialId, numAfiliado)</text><polygon fill="#181818" points="1217.5,548.0156,1227.5,552.0156,1217.5,556.0156,1221.5,552.0156" style="stroke:#181818;stroke-width:1.0;"/><line style="stroke:#181818;stroke-width:1.0;" x1="441.5" x2="1223.5" y1="552.0156" y2="552.0156"/><text fill="#000000" font-family="sans-serif" font-size="13" lengthAdjust="spacing" textLength="242" x="448.5" y="547.1592">validarAfiliacion(obraSocialId, numAfiliado)</text><polygon fill="#181818" points="452.5,578.3672,442.5,582.3672,452.5,586.3672,448.5,582.3672" style="stroke:#181818;stroke-width:1.0;"/><line style="stroke:#181818;stroke-width:1.0;stroke-dasharray:2.0,2.0;" x1="446.5" x2="1228.5" y1="582.3672" y2="582.3672"/><text fill="#000000" font-family="sans-serif" font-size="13" lengthAdjust="spacing" textLength="122" x="458.5" y="577.5107">afiliacionValida (bool)</text><path d="M20,597.3672 L81,597.3672 L81,605.7188 L71,615.7188 L20,615.7188 L20,597.3672 " fill="#EEEEEE" style="stroke:#000000;stroke-width:1.5;"/><rect fill="none" height="426.8906" style="stroke:#000000;stroke-width:1.5;" width="1293.5" x="20" y="597.3672"/><text fill="#000000" font-family="sans-serif" font-size="13" font-weight="bold" lengthAdjust="spacing" textLength="16" x="35" y="611.8623">alt</text><text fill="#000000" font-family="sans-serif" font-size="11" font-weight="bold" lengthAdjust="spacing" textLength="128" x="96" y="610.7861">[afiliacionValida = false]</text><polygon fill="#181818" points="85.5,634.0703,75.5,638.0703,85.5,642.0703,81.5,638.0703" style="stroke:#181818;stroke-width:1.0;"/><line style="stroke:#181818;stroke-width:1.0;stroke-dasharray:2.0,2.0;" x1="79.5" x2="430.5" y1="638.0703" y2="638.0703"/><text fill="#000000" font-family="sans-serif" font-size="13" lengthAdjust="spacing" textLength="213" x="91.5" y="633.2139">"Afiliaci&#243;n inv&#225;lida. Venta cancelada"</text><polygon fill="#181818" points="888,664.4219,898,668.4219,888,672.4219,892,668.4219" style="stroke:#181818;stroke-width:1.0;"/><line style="stroke:#181818;stroke-width:1.0;" x1="436.5" x2="894" y1="668.4219" y2="668.4219"/><text fill="#000000" font-family="sans-serif" font-size="13" lengthAdjust="spacing" textLength="150" x="443.5" y="663.5654">marcarEstado(Cancelado)</text><polygon fill="#181818" points="447.5,678.4219,437.5,682.4219,447.5,686.4219,443.5,682.4219" style="stroke:#181818;stroke-width:1.0;"/><line style="stroke:#181818;stroke-width:1.0;stroke-dasharray:2.0,2.0;" x1="441.5" x2="899" y1="682.4219" y2="682.4219"/><line style="stroke:#000000;stroke-width:1.0;stroke-dasharray:2.0,2.0;" x1="20" x2="1313.5" y1="691.4219" y2="691.4219"/><text fill="#000000" font-family="sans-serif" font-size="11" font-weight="bold" lengthAdjust="spacing" textLength="90" x="25" y="702.8408">[afiliacion v&#225;lida]</text><polygon fill="#181818" points="424.5,724.6094,434.5,728.6094,424.5,732.6094,428.5,728.6094" style="stroke:#181818;stroke-width:1.0;"/><line style="stroke:#181818;stroke-width:1.0;" x1="74.5" x2="430.5" y1="728.6094" y2="728.6094"/><text fill="#000000" font-family="sans-serif" font-size="13" lengthAdjust="spacing" textLength="151" x="81.5" y="723.7529">verificarReceta(nroReceta)</text><polygon fill="#181818" points="1217.5,754.9609,1227.5,758.9609,1217.5,762.9609,1221.5,758.9609" style="stroke:#181818;stroke-width:1.0;"/><line style="stroke:#181818;stroke-width:1.0;" x1="436.5" x2="1223.5" y1="758.9609" y2="758.9609"/><text fill="#000000" font-family="sans-serif" font-size="13" lengthAdjust="spacing" textLength="216" x="443.5" y="754.1045">verificarRecetaElectronica(nroReceta)</text><polygon fill="#181818" points="447.5,785.3125,437.5,789.3125,447.5,793.3125,443.5,789.3125" style="stroke:#181818;stroke-width:1.0;"/><line style="stroke:#181818;stroke-width:1.0;stroke-dasharray:2.0,2.0;" x1="441.5" x2="1228.5" y1="789.3125" y2="789.3125"/><text fill="#000000" font-family="sans-serif" font-size="13" lengthAdjust="spacing" textLength="297" x="453.5" y="784.4561">recetaValida(bool), fechaPrescripcion, fechaValidez</text><line style="stroke:#181818;stroke-width:1.0;" x1="436.5" x2="478.5" y1="819.6641" y2="819.6641"/><line style="stroke:#181818;stroke-width:1.0;" x1="478.5" x2="478.5" y1="819.6641" y2="832.6641"/><line style="stroke:#181818;stroke-width:1.0;" x1="437.5" x2="478.5" y1="832.6641" y2="832.6641"/><polygon fill="#181818" points="447.5,828.6641,437.5,832.6641,447.5,836.6641,443.5,832.6641" style="stroke:#181818;stroke-width:1.0;"/><text fill="#000000" font-family="sans-serif" font-size="13" lengthAdjust="spacing" textLength="193" x="443.5" y="814.8076">validarVigenciaReceta(&lt;=15 d&#237;as)</text><path d="M30,847.6641 L91,847.6641 L91,856.0156 L81,866.0156 L30,866.0156 L30,847.6641 " fill="#EEEEEE" style="stroke:#000000;stroke-width:1.5;"/><rect fill="none" height="169.5938" style="stroke:#000000;stroke-width:1.5;" width="905.5" x="30" y="847.6641"/><text fill="#000000" font-family="sans-serif" font-size="13" font-weight="bold" lengthAdjust="spacing" textLength="16" x="45" y="862.1592">alt</text><text fill="#000000" font-family="sans-serif" font-size="11" font-weight="bold" lengthAdjust="spacing" textLength="142" x="106" y="861.083">[receta inv&#225;lida o vencida]</text><polygon fill="#181818" points="85.5,884.3672,75.5,888.3672,85.5,892.3672,81.5,888.3672" style="stroke:#181818;stroke-width:1.0;"/><line style="stroke:#181818;stroke-width:1.0;stroke-dasharray:2.0,2.0;" x1="79.5" x2="435.5" y1="888.3672" y2="888.3672"/><text fill="#000000" font-family="sans-serif" font-size="13" lengthAdjust="spacing" textLength="249" x="91.5" y="883.5107">"Receta inv&#225;lida/vencida. Venta cancelada"</text><polygon fill="#181818" points="888,914.7188,898,918.7188,888,922.7188,892,918.7188" style="stroke:#181818;stroke-width:1.0;"/><line style="stroke:#181818;stroke-width:1.0;" x1="436.5" x2="894" y1="918.7188" y2="918.7188"/><text fill="#000000" font-family="sans-serif" font-size="13" lengthAdjust="spacing" textLength="150" x="443.5" y="913.8623">marcarEstado(Cancelado)</text><polygon fill="#181818" points="447.5,928.7188,437.5,932.7188,447.5,936.7188,443.5,932.7188" style="stroke:#181818;stroke-width:1.0;"/><line style="stroke:#181818;stroke-width:1.0;stroke-dasharray:2.0,2.0;" x1="441.5" x2="899" y1="932.7188" y2="932.7188"/><line style="stroke:#000000;stroke-width:1.0;stroke-dasharray:2.0,2.0;" x1="30" x2="935.5" y1="941.7188" y2="941.7188"/><text fill="#000000" font-family="sans-serif" font-size="11" font-weight="bold" lengthAdjust="spacing" textLength="77" x="35" y="953.1377">[receta v&#225;lida]</text><polygon fill="#181818" points="85.5,974.9063,75.5,978.9063,85.5,982.9063,81.5,978.9063" style="stroke:#181818;stroke-width:1.0;"/><line style="stroke:#181818;stroke-width:1.0;stroke-dasharray:2.0,2.0;" x1="79.5" x2="435.5" y1="978.9063" y2="978.9063"/><text fill="#000000" font-family="sans-serif" font-size="13" lengthAdjust="spacing" textLength="87" x="91.5" y="974.0498">"Receta v&#225;lida"</text><polygon fill="#181818" points="888,1005.2578,898,1009.2578,888,1013.2578,892,1009.2578" style="stroke:#181818;stroke-width:1.0;"/><line style="stroke:#181818;stroke-width:1.0;" x1="436.5" x2="894" y1="1009.2578" y2="1009.2578"/><text fill="#000000" font-family="sans-serif" font-size="13" lengthAdjust="spacing" textLength="304" x="443.5" y="1004.4014">asociarReceta(nroReceta, obraSocialId, numAfiliado)</text><rect fill="#EEEEEE" height="3" style="stroke:#EEEEEE;stroke-width:1.0;" width="1427.5" x="0" y="1052.4336"/><line style="stroke:#000000;stroke-width:1.0;" x1="0" x2="1427.5" y1="1052.4336" y2="1052.4336"/><line style="stroke:#000000;stroke-width:1.0;" x1="0" x2="1427.5" y1="1055.4336" y2="1055.4336"/><rect fill="#EEEEEE" height="24.3516" style="stroke:#000000;stroke-width:2.0;" width="334" x="546.75" y="1041.2578"/><text fill="#000000" font-family="sans-serif" font-size="13" font-weight="bold" lengthAdjust="spacing" textLength="316" x="552.75" y="1058.7529">Navegar y agregar medicamentos (solo con stock)</text><polygon fill="#181818" points="419.5,1093.9609,429.5,1097.9609,419.5,1101.9609,423.5,1097.9609" style="stroke:#181818;stroke-width:1.0;"/><line style="stroke:#181818;stroke-width:1.0;" x1="74.5" x2="425.5" y1="1097.9609" y2="1097.9609"/><text fill="#000000" font-family="sans-serif" font-size="13" lengthAdjust="spacing" textLength="152" x="81.5" y="1093.1045">filtrarMedicamentos(filtros)</text><polygon fill="#181818" points="968.5,1124.3125,978.5,1128.3125,968.5,1132.3125,972.5,1128.3125" style="stroke:#181818;stroke-width:1.0;"/><line style="stroke:#181818;stroke-width:1.0;" x1="441.5" x2="974.5" y1="1128.3125" y2="1128.3125"/><text fill="#000000" font-family="sans-serif" font-size="13" lengthAdjust="spacing" textLength="149" x="448.5" y="1123.4561">obtenerDisponibles(filtros)</text><polygon fill="#181818" points="452.5,1154.6641,442.5,1158.6641,452.5,1162.6641,448.5,1158.6641" style="stroke:#181818;stroke-width:1.0;"/><line style="stroke:#181818;stroke-width:1.0;stroke-dasharray:2.0,2.0;" x1="446.5" x2="979.5" y1="1158.6641" y2="1158.6641"/><text fill="#000000" font-family="sans-serif" font-size="13" lengthAdjust="spacing" textLength="115" x="458.5" y="1153.8076">List&lt;Medicamento&gt;</text><polygon fill="#181818" points="85.5,1185.0156,75.5,1189.0156,85.5,1193.0156,81.5,1189.0156" style="stroke:#181818;stroke-width:1.0;"/><line style="stroke:#181818;stroke-width:1.0;stroke-dasharray:2.0,2.0;" x1="79.5" x2="435.5" y1="1189.0156" y2="1189.0156"/><text fill="#000000" font-family="sans-serif" font-size="13" lengthAdjust="spacing" textLength="115" x="91.5" y="1184.1592">List&lt;Medicamento&gt;</text><path d="M10,1204.0156 L83,1204.0156 L83,1212.3672 L73,1222.3672 L10,1222.3672 L10,1204.0156 " fill="#EEEEEE" style="stroke:#000000;stroke-width:1.5;"/><rect fill="none" height="629.1875" style="stroke:#000000;stroke-width:1.5;" width="1035.5" x="10" y="1204.0156"/><text fill="#000000" font-family="sans-serif" font-size="13" font-weight="bold" lengthAdjust="spacing" textLength="28" x="25" y="1218.5107">loop</text><text fill="#000000" font-family="sans-serif" font-size="11" font-weight="bold" lengthAdjust="spacing" textLength="97" x="98" y="1217.4346">[gestionar l&#237;neas]</text><path d="M20,1229.3672 L81,1229.3672 L81,1237.7188 L71,1247.7188 L20,1247.7188 L20,1229.3672 " fill="#EEEEEE" style="stroke:#000000;stroke-width:1.5;"/><rect fill="none" height="596.8359" style="stroke:#000000;stroke-width:1.5;" width="1015.5" x="20" y="1229.3672"/><text fill="#000000" font-family="sans-serif" font-size="13" font-weight="bold" lengthAdjust="spacing" textLength="16" x="35" y="1243.8623">alt</text><text fill="#000000" font-family="sans-serif" font-size="11" font-weight="bold" lengthAdjust="spacing" textLength="80" x="96" y="1242.7861">[agregar l&#237;nea]</text><polygon fill="#181818" points="419.5,1266.0703,429.5,1270.0703,419.5,1274.0703,423.5,1270.0703" style="stroke:#181818;stroke-width:1.0;"/><line style="stroke:#181818;stroke-width:1.0;" x1="74.5" x2="425.5" y1="1270.0703" y2="1270.0703"/><text fill="#000000" font-family="sans-serif" font-size="13" lengthAdjust="spacing" textLength="237" x="81.5" y="1265.2139">agregarLinea(nroVta, codBarra, cantidad)</text><polygon fill="#181818" points="968.5,1296.4219,978.5,1300.4219,968.5,1304.4219,972.5,1300.4219" style="stroke:#181818;stroke-width:1.0;"/><line style="stroke:#181818;stroke-width:1.0;" x1="441.5" x2="974.5" y1="1300.4219" y2="1300.4219"/><text fill="#000000" font-family="sans-serif" font-size="13" lengthAdjust="spacing" textLength="181" x="448.5" y="1295.5654">obtenerMedicamento(codBarra)</text><polygon fill="#181818" points="452.5,1326.7734,442.5,1330.7734,452.5,1334.7734,448.5,1330.7734" style="stroke:#181818;stroke-width:1.0;"/><line style="stroke:#181818;stroke-width:1.0;stroke-dasharray:2.0,2.0;" x1="446.5" x2="979.5" y1="1330.7734" y2="1330.7734"/><text fill="#000000" font-family="sans-serif" font-size="13" lengthAdjust="spacing" textLength="78" x="458.5" y="1325.917">Medicamento</text><line style="stroke:#181818;stroke-width:1.0;" x1="441.5" x2="483.5" y1="1361.125" y2="1361.125"/><line style="stroke:#181818;stroke-width:1.0;" x1="483.5" x2="483.5" y1="1361.125" y2="1374.125"/><line style="stroke:#181818;stroke-width:1.0;" x1="442.5" x2="483.5" y1="1374.125" y2="1374.125"/><polygon fill="#181818" points="452.5,1370.125,442.5,1374.125,452.5,1378.125,448.5,1374.125" style="stroke:#181818;stroke-width:1.0;"/><text fill="#000000" font-family="sans-serif" font-size="13" lengthAdjust="spacing" textLength="276" x="448.5" y="1356.2686">validarControladoYReceta(Medicamento, Venta)</text><path d="M30,1389.125 L91,1389.125 L91,1397.4766 L81,1407.4766 L30,1407.4766 L30,1389.125 " fill="#EEEEEE" style="stroke:#000000;stroke-width:1.5;"/><rect fill="none" height="155.5938" style="stroke:#000000;stroke-width:1.5;" width="905.5" x="30" y="1389.125"/><text fill="#000000" font-family="sans-serif" font-size="13" font-weight="bold" lengthAdjust="spacing" textLength="16" x="45" y="1403.6201">alt</text><text fill="#000000" font-family="sans-serif" font-size="11" font-weight="bold" lengthAdjust="spacing" textLength="264" x="106" y="1402.5439">[requiereReceta/controlado sin receta asociada]</text><polygon fill="#181818" points="85.5,1425.8281,75.5,1429.8281,85.5,1433.8281,81.5,1429.8281" style="stroke:#181818;stroke-width:1.0;"/><line style="stroke:#181818;stroke-width:1.0;stroke-dasharray:2.0,2.0;" x1="79.5" x2="430.5" y1="1429.8281" y2="1429.8281"/><text fill="#000000" font-family="sans-serif" font-size="13" lengthAdjust="spacing" textLength="278" x="91.5" y="1424.9717">"Medicamento controlado requiere receta v&#225;lida"</text><line style="stroke:#000000;stroke-width:1.0;stroke-dasharray:2.0,2.0;" x1="30" x2="935.5" y1="1438.8281" y2="1438.8281"/><text fill="#000000" font-family="sans-serif" font-size="11" font-weight="bold" lengthAdjust="spacing" textLength="22" x="35" y="1450.2471">[ok]</text><polygon fill="#181818" points="888,1472.0156,898,1476.0156,888,1480.0156,892,1476.0156" style="stroke:#181818;stroke-width:1.0;"/><line style="stroke:#181818;stroke-width:1.0;" x1="441.5" x2="894" y1="1476.0156" y2="1476.0156"/><text fill="#000000" font-family="sans-serif" font-size="13" lengthAdjust="spacing" textLength="226" x="448.5" y="1471.1592">agregarDetalle(Medicamento, cantidad)</text><polygon fill="#181818" points="452.5,1502.3672,442.5,1506.3672,452.5,1510.3672,448.5,1506.3672" style="stroke:#181818;stroke-width:1.0;"/><line style="stroke:#181818;stroke-width:1.0;stroke-dasharray:2.0,2.0;" x1="446.5" x2="899" y1="1506.3672" y2="1506.3672"/><text fill="#000000" font-family="sans-serif" font-size="13" lengthAdjust="spacing" textLength="129" x="458.5" y="1501.5107">detalleAgregado (bool)</text><polygon fill="#181818" points="85.5,1532.7188,75.5,1536.7188,85.5,1540.7188,81.5,1536.7188" style="stroke:#181818;stroke-width:1.0;"/><line style="stroke:#181818;stroke-width:1.0;stroke-dasharray:2.0,2.0;" x1="79.5" x2="430.5" y1="1536.7188" y2="1536.7188"/><text fill="#000000" font-family="sans-serif" font-size="13" lengthAdjust="spacing" textLength="98" x="91.5" y="1531.8623">"L&#237;nea agregada"</text><line style="stroke:#000000;stroke-width:1.0;stroke-dasharray:2.0,2.0;" x1="20" x2="1035.5" y1="1552.7188" y2="1552.7188"/><text fill="#000000" font-family="sans-serif" font-size="11" font-weight="bold" lengthAdjust="spacing" textLength="69" x="25" y="1564.1377">[editar l&#237;nea]</text><polygon fill="#181818" points="419.5,1585.9063,429.5,1589.9063,419.5,1593.9063,423.5,1589.9063" style="stroke:#181818;stroke-width:1.0;"/><line style="stroke:#181818;stroke-width:1.0;" x1="74.5" x2="425.5" y1="1589.9063" y2="1589.9063"/><text fill="#000000" font-family="sans-serif" font-size="13" lengthAdjust="spacing" textLength="261" x="81.5" y="1585.0498">editarLinea(nroVta, codBarra, nuevaCantidad)</text><polygon fill="#181818" points="888,1616.2578,898,1620.2578,888,1624.2578,892,1620.2578" style="stroke:#181818;stroke-width:1.0;"/><line style="stroke:#181818;stroke-width:1.0;" x1="441.5" x2="894" y1="1620.2578" y2="1620.2578"/><text fill="#000000" font-family="sans-serif" font-size="13" lengthAdjust="spacing" textLength="295" x="448.5" y="1615.4014">modificarCantidadDetalle(codBarra, nuevaCantidad)</text><polygon fill="#181818" points="452.5,1646.6094,442.5,1650.6094,452.5,1654.6094,448.5,1650.6094" style="stroke:#181818;stroke-width:1.0;"/><line style="stroke:#181818;stroke-width:1.0;stroke-dasharray:2.0,2.0;" x1="446.5" x2="899" y1="1650.6094" y2="1650.6094"/><text fill="#000000" font-family="sans-serif" font-size="13" lengthAdjust="spacing" textLength="136" x="458.5" y="1645.7529">detalleModificado (bool)</text><polygon fill="#181818" points="85.5,1676.9609,75.5,1680.9609,85.5,1684.9609,81.5,1680.9609" style="stroke:#181818;stroke-width:1.0;"/><line style="stroke:#181818;stroke-width:1.0;stroke-dasharray:2.0,2.0;" x1="79.5" x2="435.5" y1="1680.9609" y2="1680.9609"/><text fill="#000000" font-family="sans-serif" font-size="13" lengthAdjust="spacing" textLength="107" x="91.5" y="1676.1045">"L&#237;nea modificada"</text><line style="stroke:#000000;stroke-width:1.0;stroke-dasharray:2.0,2.0;" x1="20" x2="1035.5" y1="1689.9609" y2="1689.9609"/><text fill="#000000" font-family="sans-serif" font-size="11" font-weight="bold" lengthAdjust="spacing" textLength="82" x="25" y="1701.3799">[eliminar l&#237;nea]</text><polygon fill="#181818" points="419.5,1723.1484,429.5,1727.1484,419.5,1731.1484,423.5,1727.1484" style="stroke:#181818;stroke-width:1.0;"/><line style="stroke:#181818;stroke-width:1.0;" x1="74.5" x2="425.5" y1="1727.1484" y2="1727.1484"/><text fill="#000000" font-family="sans-serif" font-size="13" lengthAdjust="spacing" textLength="182" x="81.5" y="1722.292">eliminarLinea(nroVta, codBarra)</text><polygon fill="#181818" points="888,1753.5,898,1757.5,888,1761.5,892,1757.5" style="stroke:#181818;stroke-width:1.0;"/><line style="stroke:#181818;stroke-width:1.0;" x1="441.5" x2="894" y1="1757.5" y2="1757.5"/><text fill="#000000" font-family="sans-serif" font-size="13" lengthAdjust="spacing" textLength="205" x="448.5" y="1752.6436">eliminarDetallePorCodigo(codBarra)</text><polygon fill="#181818" points="452.5,1783.8516,442.5,1787.8516,452.5,1791.8516,448.5,1787.8516" style="stroke:#181818;stroke-width:1.0;"/><line style="stroke:#181818;stroke-width:1.0;stroke-dasharray:2.0,2.0;" x1="446.5" x2="899" y1="1787.8516" y2="1787.8516"/><text fill="#000000" font-family="sans-serif" font-size="13" lengthAdjust="spacing" textLength="131" x="458.5" y="1782.9951">detalleEliminado (bool)</text><polygon fill="#181818" points="85.5,1814.2031,75.5,1818.2031,85.5,1822.2031,81.5,1818.2031" style="stroke:#181818;stroke-width:1.0;"/><line style="stroke:#181818;stroke-width:1.0;stroke-dasharray:2.0,2.0;" x1="79.5" x2="435.5" y1="1818.2031" y2="1818.2031"/><text fill="#000000" font-family="sans-serif" font-size="13" lengthAdjust="spacing" textLength="100" x="91.5" y="1813.3467">"L&#237;nea eliminada"</text><rect fill="#EEEEEE" height="3" style="stroke:#EEEEEE;stroke-width:1.0;" width="1427.5" x="0" y="1861.3789"/><line style="stroke:#000000;stroke-width:1.0;" x1="0" x2="1427.5" y1="1861.3789" y2="1861.3789"/><line style="stroke:#000000;stroke-width:1.0;" x1="0" x2="1427.5" y1="1864.3789" y2="1864.3789"/><rect fill="#EEEEEE" height="24.3516" style="stroke:#000000;stroke-width:2.0;" width="204" x="611.75" y="1850.2031"/><text fill="#000000" font-family="sans-serif" font-size="13" font-weight="bold" lengthAdjust="spacing" textLength="186" x="617.75" y="1867.6982">Resumen y c&#225;lculo de totales</text><polygon fill="#181818" points="419.5,1902.9063,429.5,1906.9063,419.5,1910.9063,423.5,1906.9063" style="stroke:#181818;stroke-width:1.0;"/><line style="stroke:#181818;stroke-width:1.0;" x1="74.5" x2="425.5" y1="1906.9063" y2="1906.9063"/><text fill="#000000" font-family="sans-serif" font-size="13" lengthAdjust="spacing" textLength="146" x="81.5" y="1902.0498">solicitarResumen(nroVta)</text><polygon fill="#181818" points="888,1933.2578,898,1937.2578,888,1941.2578,892,1937.2578" style="stroke:#181818;stroke-width:1.0;"/><line style="stroke:#181818;stroke-width:1.0;" x1="441.5" x2="894" y1="1937.2578" y2="1937.2578"/><text fill="#000000" font-family="sans-serif" font-size="13" lengthAdjust="spacing" textLength="112" x="448.5" y="1932.4014">calcularTotalBruto()</text><polygon fill="#181818" points="452.5,1963.6094,442.5,1967.6094,452.5,1971.6094,448.5,1967.6094" style="stroke:#181818;stroke-width:1.0;"/><line style="stroke:#181818;stroke-width:1.0;stroke-dasharray:2.0,2.0;" x1="446.5" x2="899" y1="1967.6094" y2="1967.6094"/><text fill="#000000" font-family="sans-serif" font-size="13" lengthAdjust="spacing" textLength="120" x="458.5" y="1962.7529">montoBruto, detalles</text><polygon fill="#181818" points="1217.5,1993.9609,1227.5,1997.9609,1217.5,2001.9609,1221.5,1997.9609" style="stroke:#181818;stroke-width:1.0;"/><line style="stroke:#181818;stroke-width:1.0;" x1="441.5" x2="1223.5" y1="1997.9609" y2="1997.9609"/><text fill="#000000" font-family="sans-serif" font-size="13" lengthAdjust="spacing" textLength="248" x="448.5" y="1993.1045">aplicarCoberturaReceta(nroVta, nroReceta)</text><polygon fill="#181818" points="452.5,2024.3125,442.5,2028.3125,452.5,2032.3125,448.5,2028.3125" style="stroke:#181818;stroke-width:1.0;"/><line style="stroke:#181818;stroke-width:1.0;stroke-dasharray:2.0,2.0;" x1="446.5" x2="1228.5" y1="2028.3125" y2="2028.3125"/><text fill="#000000" font-family="sans-serif" font-size="13" lengthAdjust="spacing" textLength="210" x="458.5" y="2023.4561">montoConCobertura, itemsCubiertos</text><polygon fill="#181818" points="1078.5,2054.6641,1088.5,2058.6641,1078.5,2062.6641,1082.5,2058.6641" style="stroke:#181818;stroke-width:1.0;"/><line style="stroke:#181818;stroke-width:1.0;" x1="441.5" x2="1084.5" y1="2058.6641" y2="2058.6641"/><text fill="#000000" font-family="sans-serif" font-size="13" lengthAdjust="spacing" textLength="206" x="448.5" y="2053.8076">obtenerDescuentoAplicable(Cliente)</text><polygon fill="#181818" points="452.5,2085.0156,442.5,2089.0156,452.5,2093.0156,448.5,2089.0156" style="stroke:#181818;stroke-width:1.0;"/><line style="stroke:#181818;stroke-width:1.0;stroke-dasharray:2.0,2.0;" x1="446.5" x2="1089.5" y1="2089.0156" y2="2089.0156"/><text fill="#000000" font-family="sans-serif" font-size="13" lengthAdjust="spacing" textLength="173" x="458.5" y="2084.1592">descuento (porcentaje/motivo)</text><line style="stroke:#181818;stroke-width:1.0;" x1="441.5" x2="483.5" y1="2119.3672" y2="2119.3672"/><line style="stroke:#181818;stroke-width:1.0;" x1="483.5" x2="483.5" y1="2119.3672" y2="2132.3672"/><line style="stroke:#181818;stroke-width:1.0;" x1="442.5" x2="483.5" y1="2132.3672" y2="2132.3672"/><polygon fill="#181818" points="452.5,2128.3672,442.5,2132.3672,452.5,2136.3672,448.5,2132.3672" style="stroke:#181818;stroke-width:1.0;"/><text fill="#000000" font-family="sans-serif" font-size="13" lengthAdjust="spacing" textLength="379" x="448.5" y="2114.5107">calcularTotalFinal(montoBruto, cobertura, descuento, medioPago)</text><polygon fill="#181818" points="85.5,2158.7188,75.5,2162.7188,85.5,2166.7188,81.5,2162.7188" style="stroke:#181818;stroke-width:1.0;"/><line style="stroke:#181818;stroke-width:1.0;stroke-dasharray:2.0,2.0;" x1="79.5" x2="435.5" y1="2162.7188" y2="2162.7188"/><text fill="#000000" font-family="sans-serif" font-size="13" lengthAdjust="spacing" textLength="333" x="91.5" y="2157.8623">ResumenVenta(totalFinal, detalles, cobertura, descuento)</text><rect fill="#EEEEEE" height="3" style="stroke:#EEEEEE;stroke-width:1.0;" width="1427.5" x="0" y="2191.8945"/><line style="stroke:#000000;stroke-width:1.0;" x1="0" x2="1427.5" y1="2191.8945" y2="2191.8945"/><line style="stroke:#000000;stroke-width:1.0;" x1="0" x2="1427.5" y1="2194.8945" y2="2194.8945"/><rect fill="#EEEEEE" height="24.3516" style="stroke:#000000;stroke-width:2.0;" width="92" x="667.75" y="2180.7188"/><text fill="#000000" font-family="sans-serif" font-size="13" font-weight="bold" lengthAdjust="spacing" textLength="74" x="673.75" y="2198.2139">Fin proceso</text><polygon fill="#181818" points="85.5,2233.4219,75.5,2237.4219,85.5,2241.4219,81.5,2237.4219" style="stroke:#181818;stroke-width:1.0;"/><line style="stroke:#181818;stroke-width:1.0;stroke-dasharray:2.0,2.0;" x1="79.5" x2="435.5" y1="2237.4219" y2="2237.4219"/><text fill="#000000" font-family="sans-serif" font-size="13" lengthAdjust="spacing" textLength="86" x="91.5" y="2232.5654">finalizarVenta()</text><!--SRC=[hLZDRjiu4BxhAOYU9C1jkeS55a4T87MoG80q6wJT07kagR7BZIIg96MWVPjzW9xs4V9Y7Vv9T2p9abkVR8hyvkVxPZWMPLf8SbtM1T1S94nKMeg2tC5MC2vMxYS-aGbKckklP5Lm_0P9JQNcZDUqqkGHLsZOy05opcY9lyJUfa-y5bUWM6EV14CVGUvmX_XhBQdwY3Pf0Mhlt3tTlWHYJw2JPBaaDvKvUqwO1Chuy_yL-KgWW2rVyuBdD2VBPH9Y8wylUi8YvuGR42fj42bpuTta2wBHuKTDb-Zg0p3GT44QrL39nKsU9PHflgCQ-bBLOmQD-yoXHR7MK87q2-dLtKsMXAUlXzmCYHz0xpspeoODyZfAYGlJWs4OXIO-PhAHODa1WY6J79gSaeib-UCjVXA2dpxBQBhDy3bv5S9uWV068TuudP1r8Ruqk9- -ig0vZANIx92W6rabK2Zmx1OmwC-5j-948VV2RJbTa4gKQmb_EpupYzQwuUHibXpK82MLD61JK-F0Z5UObTITpGvo46efJyOJO-J_QEbrmi-1q0rItDQ1j9ebgHA5i7IuXMnIJNZXN7f4KQK22zJLfwcDgYdTiroSKWgzLJ_NR3_885cq1NLf8-bQY29BR0aSF5oI3KMzJUNsCaezhtRF_ncG87X6AmP5A_XnrPPKCgnOfV51kl8dlKBdbKeN4_4EsIt7kGV9DzZ2fUjwHgdkMpRY_Y2Z-s3OYHWUmuvxW3kJJgTcnvPZSa4sm3xJUucNZEIr2TmlsLtmRSJziI9uv5keq1sVZdVBttud-VDtgdpRGFduMckP9m83npC-vHD5zF02vSnZ3EZevxGqJK-HfinNgoiVRAofUG7warEZeCg8uK2D2pBI6wops4EdzT4xkeCjbTWqwLRQRsKtnAYeXIejsDEq3egkQ4bbD0sfrAu9TKh7Z72w0UAAgnfh2Q_323lUELWzjrpfTz7EY-GuVOTdZcIs4A8cMr0QAn5pMZn_hu2gjcX2hjrwAuQZcVNdRZcUyjVe0jd9trCfpJUS4SsWqybyYiXdP3rQJ8FPpjYazCSpyhW7OusfM_p75qU4kt3r4sN1zgal3GS9RliPQm68uc50yFKMLVR4weuZZv23pHTzewj-srJ4qr5pKKTm2hX2kAA0_QWFwPymoEKEwTBYeiz-D9YPW5ihPE_TNeJOXQRtN3VdvboVK1lks51fL0tiwEeNraTxqOZStV81F51prFOqOZvu_4DgfjCIV8o9cKf6mKjUdKA7FzXFoAza85ZoYRyNs1rolkthKDDIVkq0VoRZtgUP2VUtjhcN7q0rMDPuBpDi6gp1MnZ_vcYXxMWuvHR6cnjdIcsc1miL_dQTS0EtVokfyOJAJyQDzxB1Mo1BZkIqn5_2xbs4_AfavdyZMXUsmiGQ90vaj9k7t1_QRfgUEKbRvt2fHLuGhg5KgsQDVHldbY5FzzxeH5D9MBgq7kDqqhrks3yoei6m9Qs5P2Qv_y9PAP0p7Excl07PO-jFL6EHncImBkRMvi9EVyAyTyecZ4LUMUv5WsxDT4JtMyacpAK8H6ef62XXr7xSbusnpB-5rnvPyWC0]--></g></svg>