<?xml version="1.0" encoding="us-ascii" standalone="no"?><svg xmlns="http://www.w3.org/2000/svg" xmlns:xlink="http://www.w3.org/1999/xlink" contentStyleType="text/css" height="2240px" preserveAspectRatio="none" style="width:2043px;height:2240px;background:#FFFFFF;" version="1.1" viewBox="0 0 2043 2240" width="2043px" zoomAndPan="magnify"><defs/><g><rect fill="#FFFFFF" height="399.7031" style="stroke:#181818;stroke-width:1.0;" width="10" x="542.5" y="159.3125"/><rect fill="#FFFFFF" height="60.7031" style="stroke:#181818;stroke-width:1.0;" width="10" x="542.5" y="922.3672"/><rect fill="#FFFFFF" height="60.7031" style="stroke:#181818;stroke-width:1.0;" width="10" x="542.5" y="2058.6641"/><rect fill="#FFFFFF" height="73.7031" style="stroke:#181818;stroke-width:1.0;" width="10" x="875.5" y="1266.7188"/><rect fill="#FFFFFF" height="237.8125" style="stroke:#181818;stroke-width:1.0;" width="10" x="1054.5" y="745.2578"/><rect fill="#FFFFFF" height="30.3516" style="stroke:#181818;stroke-width:1.0;" width="10" x="1416.5" y="1951.7734"/><rect fill="#FFFFFF" height="91.0547" style="stroke:#181818;stroke-width:1.0;" width="10" x="1477.5" y="1494.1797"/><rect fill="#FFFFFF" height="30.3516" style="stroke:#181818;stroke-width:1.0;" width="10" x="1729.5" y="1524.5313"/><rect fill="#FFFFFF" height="30.3516" style="stroke:#181818;stroke-width:1.0;" width="10" x="1829.5" y="1687.125"/><rect fill="#FFFFFF" height="30.3516" style="stroke:#181818;stroke-width:1.0;" width="10" x="1942" y="1396.125"/><rect fill="none" height="120.8906" style="stroke:#000000;stroke-width:1.5;" width="340" x="471.5" y="235.0156"/><rect fill="none" height="183.5938" style="stroke:#000000;stroke-width:1.5;" width="876" x="40" y="487.9609"/><rect fill="none" height="169.5938" style="stroke:#000000;stroke-width:1.5;" width="1077.5" x="40" y="881.6641"/><rect fill="none" height="1031.7578" style="stroke:#000000;stroke-width:1.5;" width="2016" x="10" y="1109.6094"/><rect fill="none" height="908.3516" style="stroke:#000000;stroke-width:1.5;" width="1996" x="20" y="1226.0156"/><rect fill="none" height="79.0547" style="stroke:#000000;stroke-width:1.5;" width="1534.5" x="471.5" y="1355.4219"/><rect fill="none" height="220.2969" style="stroke:#000000;stroke-width:1.5;" width="1868" x="30" y="1600.2344"/><rect fill="none" height="81.0547" style="stroke:#000000;stroke-width:1.5;" width="583.5" x="40" y="1732.4766"/><rect fill="none" height="246.6484" style="stroke:#000000;stroke-width:1.5;" width="1420.5" x="40" y="1880.7188"/><line style="stroke:#181818;stroke-width:0.5;stroke-dasharray:5.0,5.0;" x1="84" x2="84" y1="82.6094" y2="2158.3672"/><line style="stroke:#181818;stroke-width:0.5;stroke-dasharray:5.0,5.0;" x1="547.5" x2="547.5" y1="82.6094" y2="2158.3672"/><line style="stroke:#181818;stroke-width:0.5;stroke-dasharray:5.0,5.0;" x1="880" x2="880" y1="82.6094" y2="2158.3672"/><line style="stroke:#181818;stroke-width:0.5;stroke-dasharray:5.0,5.0;" x1="1059.5" x2="1059.5" y1="82.6094" y2="2158.3672"/><line style="stroke:#181818;stroke-width:0.5;stroke-dasharray:5.0,5.0;" x1="1360" x2="1360" y1="82.6094" y2="2158.3672"/><line style="stroke:#181818;stroke-width:0.5;stroke-dasharray:5.0,5.0;" x1="1421.5" x2="1421.5" y1="82.6094" y2="2158.3672"/><line style="stroke:#181818;stroke-width:0.5;stroke-dasharray:5.0,5.0;" x1="1482.5" x2="1482.5" y1="82.6094" y2="2158.3672"/><line style="stroke:#181818;stroke-width:0.5;stroke-dasharray:5.0,5.0;" x1="1734" x2="1734" y1="82.6094" y2="2158.3672"/><line style="stroke:#181818;stroke-width:0.5;stroke-dasharray:5.0,5.0;" x1="1834" x2="1834" y1="82.6094" y2="2158.3672"/><line style="stroke:#181818;stroke-width:0.5;stroke-dasharray:5.0,5.0;" x1="1947" x2="1947" y1="82.6094" y2="2158.3672"/><text fill="#000000" font-family="sans-serif" font-size="14" lengthAdjust="spacing" textLength="63" x="50" y="79.5332">Empleado</text><ellipse cx="84.5" cy="13.5" fill="#E2E2F0" rx="8" ry="8" style="stroke:#181818;stroke-width:0.5;"/><path d="M84.5,21.5 L84.5,48.5 M71.5,29.5 L97.5,29.5 M84.5,48.5 L71.5,63.5 M84.5,48.5 L97.5,63.5 " fill="none" style="stroke:#181818;stroke-width:0.5;"/><text fill="#000000" font-family="sans-serif" font-size="14" lengthAdjust="spacing" textLength="63" x="50" y="2171.9004">Empleado</text><ellipse cx="84.5" cy="2183.4766" fill="#E2E2F0" rx="8" ry="8" style="stroke:#181818;stroke-width:0.5;"/><path d="M84.5,2191.4766 L84.5,2218.4766 M71.5,2199.4766 L97.5,2199.4766 M84.5,2218.4766 L71.5,2233.4766 M84.5,2218.4766 L97.5,2233.4766 " fill="none" style="stroke:#181818;stroke-width:0.5;"/><text fill="#000000" font-family="sans-serif" font-size="14" lengthAdjust="spacing" textLength="126" x="481.5" y="79.5332">NegocioControlador</text><ellipse cx="547.5" cy="49" fill="#E2E2F0" rx="12" ry="12" style="stroke:#181818;stroke-width:0.5;"/><polygon fill="#181818" points="543.5,37,549.5,32,547.5,37,549.5,42,543.5,37" style="stroke:#181818;stroke-width:1.0;"/><text fill="#000000" font-family="sans-serif" font-size="14" lengthAdjust="spacing" textLength="126" x="481.5" y="2171.9004">NegocioControlador</text><ellipse cx="547.5" cy="2190.9766" fill="#E2E2F0" rx="12" ry="12" style="stroke:#181818;stroke-width:0.5;"/><polygon fill="#181818" points="543.5,2178.9766,549.5,2173.9766,547.5,2178.9766,549.5,2183.9766,543.5,2178.9766" style="stroke:#181818;stroke-width:1.0;"/><rect fill="#E2E2F0" height="31.6094" rx="2.5" ry="2.5" style="stroke:#181818;stroke-width:0.5;" width="51" x="855" y="50"/><text fill="#000000" font-family="sans-serif" font-size="14" lengthAdjust="spacing" textLength="37" x="862" y="71.5332">Venta</text><rect fill="#E2E2F0" height="31.6094" rx="2.5" ry="2.5" style="stroke:#181818;stroke-width:0.5;" width="51" x="855" y="2157.3672"/><text fill="#000000" font-family="sans-serif" font-size="14" lengthAdjust="spacing" textLength="37" x="862" y="2178.9004">Venta</text><text fill="#000000" font-family="sans-serif" font-size="14" lengthAdjust="spacing" textLength="90" x="1011.5" y="79.5332">ServicioPagos</text><ellipse cx="1059.5" cy="49" fill="#E2E2F0" rx="12" ry="12" style="stroke:#181818;stroke-width:0.5;"/><polygon fill="#181818" points="1055.5,37,1061.5,32,1059.5,37,1061.5,42,1055.5,37" style="stroke:#181818;stroke-width:1.0;"/><text fill="#000000" font-family="sans-serif" font-size="14" lengthAdjust="spacing" textLength="90" x="1011.5" y="2171.9004">ServicioPagos</text><ellipse cx="1059.5" cy="2190.9766" fill="#E2E2F0" rx="12" ry="12" style="stroke:#181818;stroke-width:0.5;"/><polygon fill="#181818" points="1055.5,2178.9766,1061.5,2173.9766,1059.5,2178.9766,1061.5,2183.9766,1055.5,2178.9766" style="stroke:#181818;stroke-width:1.0;"/><text fill="#000000" font-family="sans-serif" font-size="14" lengthAdjust="spacing" textLength="33" x="1341" y="79.5332">Pago</text><ellipse cx="1360.5" cy="49" fill="#E2E2F0" rx="12" ry="12" style="stroke:#181818;stroke-width:0.5;"/><line style="stroke:#181818;stroke-width:0.5;" x1="1348.5" x2="1372.5" y1="63" y2="63"/><text fill="#000000" font-family="sans-serif" font-size="14" lengthAdjust="spacing" textLength="33" x="1341" y="2171.9004">Pago</text><ellipse cx="1360.5" cy="2190.9766" fill="#E2E2F0" rx="12" ry="12" style="stroke:#181818;stroke-width:0.5;"/><line style="stroke:#181818;stroke-width:0.5;" x1="1348.5" x2="1372.5" y1="2204.9766" y2="2204.9766"/><rect fill="#E2E2F0" height="31.6094" rx="2.5" ry="2.5" style="stroke:#181818;stroke-width:0.5;" width="58" x="1392.5" y="50"/><text fill="#000000" font-family="sans-serif" font-size="14" lengthAdjust="spacing" textLength="44" x="1399.5" y="71.5332">Posnet</text><rect fill="#E2E2F0" height="31.6094" rx="2.5" ry="2.5" style="stroke:#181818;stroke-width:0.5;" width="58" x="1392.5" y="2157.3672"/><text fill="#000000" font-family="sans-serif" font-size="14" lengthAdjust="spacing" textLength="44" x="1399.5" y="2178.9004">Posnet</text><text fill="#000000" font-family="sans-serif" font-size="14" lengthAdjust="spacing" textLength="38" x="1460.5" y="79.5332">Ticket</text><ellipse cx="1482.5" cy="49" fill="#E2E2F0" rx="12" ry="12" style="stroke:#181818;stroke-width:0.5;"/><line style="stroke:#181818;stroke-width:0.5;" x1="1470.5" x2="1494.5" y1="63" y2="63"/><text fill="#000000" font-family="sans-serif" font-size="14" lengthAdjust="spacing" textLength="38" x="1460.5" y="2171.9004">Ticket</text><ellipse cx="1482.5" cy="2190.9766" fill="#E2E2F0" rx="12" ry="12" style="stroke:#181818;stroke-width:0.5;"/><line style="stroke:#181818;stroke-width:0.5;" x1="1470.5" x2="1494.5" y1="2204.9766" y2="2204.9766"/><rect fill="#E2E2F0" height="31.6094" rx="2.5" ry="2.5" style="stroke:#181818;stroke-width:0.5;" width="73" x="1698" y="50"/><text fill="#000000" font-family="sans-serif" font-size="14" lengthAdjust="spacing" textLength="59" x="1705" y="71.5332">Ticketera</text><rect fill="#E2E2F0" height="31.6094" rx="2.5" ry="2.5" style="stroke:#181818;stroke-width:0.5;" width="73" x="1698" y="2157.3672"/><text fill="#000000" font-family="sans-serif" font-size="14" lengthAdjust="spacing" textLength="59" x="1705" y="2178.9004">Ticketera</text><text fill="#000000" font-family="sans-serif" font-size="14" lengthAdjust="spacing" textLength="101" x="1781" y="79.5332">ServicioCorreos</text><ellipse cx="1834.5" cy="49" fill="#E2E2F0" rx="12" ry="12" style="stroke:#181818;stroke-width:0.5;"/><polygon fill="#181818" points="1830.5,37,1836.5,32,1834.5,37,1836.5,42,1830.5,37" style="stroke:#181818;stroke-width:1.0;"/><text fill="#000000" font-family="sans-serif" font-size="14" lengthAdjust="spacing" textLength="101" x="1781" y="2171.9004">ServicioCorreos</text><ellipse cx="1834.5" cy="2190.9766" fill="#E2E2F0" rx="12" ry="12" style="stroke:#181818;stroke-width:0.5;"/><polygon fill="#181818" points="1830.5,2178.9766,1836.5,2173.9766,1834.5,2178.9766,1836.5,2183.9766,1830.5,2178.9766" style="stroke:#181818;stroke-width:1.0;"/><rect fill="#E2E2F0" height="31.6094" rx="2.5" ry="2.5" style="stroke:#181818;stroke-width:0.5;" width="98" x="1898" y="50"/><text fill="#000000" font-family="sans-serif" font-size="14" lengthAdjust="spacing" textLength="84" x="1905" y="71.5332">Medicamento</text><rect fill="#E2E2F0" height="31.6094" rx="2.5" ry="2.5" style="stroke:#181818;stroke-width:0.5;" width="98" x="1898" y="2157.3672"/><text fill="#000000" font-family="sans-serif" font-size="14" lengthAdjust="spacing" textLength="84" x="1905" y="2178.9004">Medicamento</text><rect fill="#FFFFFF" height="399.7031" style="stroke:#181818;stroke-width:1.0;" width="10" x="542.5" y="159.3125"/><rect fill="#FFFFFF" height="60.7031" style="stroke:#181818;stroke-width:1.0;" width="10" x="542.5" y="922.3672"/><rect fill="#FFFFFF" height="60.7031" style="stroke:#181818;stroke-width:1.0;" width="10" x="542.5" y="2058.6641"/><rect fill="#FFFFFF" height="73.7031" style="stroke:#181818;stroke-width:1.0;" width="10" x="875.5" y="1266.7188"/><rect fill="#FFFFFF" height="237.8125" style="stroke:#181818;stroke-width:1.0;" width="10" x="1054.5" y="745.2578"/><rect fill="#FFFFFF" height="30.3516" style="stroke:#181818;stroke-width:1.0;" width="10" x="1416.5" y="1951.7734"/><rect fill="#FFFFFF" height="91.0547" style="stroke:#181818;stroke-width:1.0;" width="10" x="1477.5" y="1494.1797"/><rect fill="#FFFFFF" height="30.3516" style="stroke:#181818;stroke-width:1.0;" width="10" x="1729.5" y="1524.5313"/><rect fill="#FFFFFF" height="30.3516" style="stroke:#181818;stroke-width:1.0;" width="10" x="1829.5" y="1687.125"/><rect fill="#FFFFFF" height="30.3516" style="stroke:#181818;stroke-width:1.0;" width="10" x="1942" y="1396.125"/><rect fill="#EEEEEE" height="3" style="stroke:#EEEEEE;stroke-width:1.0;" width="2036" x="0" y="113.7852"/><line style="stroke:#000000;stroke-width:1.0;" x1="0" x2="2036" y1="113.7852" y2="113.7852"/><line style="stroke:#000000;stroke-width:1.0;" x1="0" x2="2036" y1="116.7852" y2="116.7852"/><rect fill="#EEEEEE" height="24.3516" style="stroke:#000000;stroke-width:2.0;" width="328" x="854" y="102.6094"/><text fill="#000000" font-family="sans-serif" font-size="13" font-weight="bold" lengthAdjust="spacing" textLength="310" x="860" y="120.1045">Selecci&#243;n de TipoPago de pago y total aplicable</text><polygon fill="#181818" points="530.5,155.3125,540.5,159.3125,530.5,163.3125,534.5,159.3125" style="stroke:#181818;stroke-width:1.0;"/><line style="stroke:#181818;stroke-width:1.0;" x1="84.5" x2="536.5" y1="159.3125" y2="159.3125"/><text fill="#000000" font-family="sans-serif" font-size="13" lengthAdjust="spacing" textLength="259" x="91.5" y="154.4561">elegirMetodoPago(nroVta, TipoPago, cuotas)</text><polygon fill="#181818" points="868.5,185.6641,878.5,189.6641,868.5,193.6641,872.5,189.6641" style="stroke:#181818;stroke-width:1.0;"/><line style="stroke:#181818;stroke-width:1.0;" x1="552.5" x2="874.5" y1="189.6641" y2="189.6641"/><text fill="#000000" font-family="sans-serif" font-size="13" lengthAdjust="spacing" textLength="238" x="559.5" y="184.8076">obtenerTotalBrutoYDescuentosPosibles()</text><polygon fill="#181818" points="563.5,216.0156,553.5,220.0156,563.5,224.0156,559.5,220.0156" style="stroke:#181818;stroke-width:1.0;"/><line style="stroke:#181818;stroke-width:1.0;stroke-dasharray:2.0,2.0;" x1="557.5" x2="879.5" y1="220.0156" y2="220.0156"/><text fill="#000000" font-family="sans-serif" font-size="13" lengthAdjust="spacing" textLength="304" x="569.5" y="215.1592">montoBruto, descuentoPosible(requiere=EFECTIVO)</text><path d="M471.5,235.0156 L532.5,235.0156 L532.5,243.3672 L522.5,253.3672 L471.5,253.3672 L471.5,235.0156 " fill="#EEEEEE" style="stroke:#000000;stroke-width:1.5;"/><rect fill="none" height="120.8906" style="stroke:#000000;stroke-width:1.5;" width="340" x="471.5" y="235.0156"/><text fill="#000000" font-family="sans-serif" font-size="13" font-weight="bold" lengthAdjust="spacing" textLength="16" x="486.5" y="249.5107">alt</text><text fill="#000000" font-family="sans-serif" font-size="11" font-weight="bold" lengthAdjust="spacing" textLength="126" x="547.5" y="248.4346">[TipoPago != EFECTIVO]</text><line style="stroke:#181818;stroke-width:1.0;" x1="552.5" x2="594.5" y1="275.7188" y2="275.7188"/><line style="stroke:#181818;stroke-width:1.0;" x1="594.5" x2="594.5" y1="275.7188" y2="288.7188"/><line style="stroke:#181818;stroke-width:1.0;" x1="553.5" x2="594.5" y1="288.7188" y2="288.7188"/><polygon fill="#181818" points="563.5,284.7188,553.5,288.7188,563.5,292.7188,559.5,288.7188" style="stroke:#181818;stroke-width:1.0;"/><text fill="#000000" font-family="sans-serif" font-size="13" lengthAdjust="spacing" textLength="240" x="559.5" y="270.8623">recalcularTotalSinDescuento(montoBruto)</text><line style="stroke:#000000;stroke-width:1.0;stroke-dasharray:2.0,2.0;" x1="471.5" x2="811.5" y1="297.7188" y2="297.7188"/><text fill="#000000" font-family="sans-serif" font-size="11" font-weight="bold" lengthAdjust="spacing" textLength="123" x="476.5" y="309.1377">[TipoPago = EFECTIVO]</text><line style="stroke:#181818;stroke-width:1.0;" x1="552.5" x2="594.5" y1="334.9063" y2="334.9063"/><line style="stroke:#181818;stroke-width:1.0;" x1="594.5" x2="594.5" y1="334.9063" y2="347.9063"/><line style="stroke:#181818;stroke-width:1.0;" x1="553.5" x2="594.5" y1="347.9063" y2="347.9063"/><polygon fill="#181818" points="563.5,343.9063,553.5,347.9063,563.5,351.9063,559.5,347.9063" style="stroke:#181818;stroke-width:1.0;"/><text fill="#000000" font-family="sans-serif" font-size="13" lengthAdjust="spacing" textLength="193" x="559.5" y="330.0498">aplicarDescuentoSiCorresponde()</text><polygon fill="#181818" points="95.5,381.2578,85.5,385.2578,95.5,389.2578,91.5,385.2578" style="stroke:#181818;stroke-width:1.0;"/><line style="stroke:#181818;stroke-width:1.0;stroke-dasharray:2.0,2.0;" x1="89.5" x2="541.5" y1="385.2578" y2="385.2578"/><text fill="#000000" font-family="sans-serif" font-size="13" lengthAdjust="spacing" textLength="82" x="101.5" y="380.4014">totalParaPago</text><rect fill="#EEEEEE" height="3" style="stroke:#EEEEEE;stroke-width:1.0;" width="2036" x="0" y="414.4336"/><line style="stroke:#000000;stroke-width:1.0;" x1="0" x2="2036" y1="414.4336" y2="414.4336"/><line style="stroke:#000000;stroke-width:1.0;" x1="0" x2="2036" y1="417.4336" y2="417.4336"/><rect fill="#EEEEEE" height="24.3516" style="stroke:#000000;stroke-width:2.0;" width="163" x="936.5" y="403.2578"/><text fill="#000000" font-family="sans-serif" font-size="13" font-weight="bold" lengthAdjust="spacing" textLength="145" x="942.5" y="420.7529">Validaci&#243;n de pol&#237;ticas</text><line style="stroke:#181818;stroke-width:1.0;" x1="552.5" x2="594.5" y1="459.9609" y2="459.9609"/><line style="stroke:#181818;stroke-width:1.0;" x1="594.5" x2="594.5" y1="459.9609" y2="472.9609"/><line style="stroke:#181818;stroke-width:1.0;" x1="553.5" x2="594.5" y1="472.9609" y2="472.9609"/><polygon fill="#181818" points="563.5,468.9609,553.5,472.9609,563.5,476.9609,559.5,472.9609" style="stroke:#181818;stroke-width:1.0;"/><text fill="#000000" font-family="sans-serif" font-size="13" lengthAdjust="spacing" textLength="284" x="559.5" y="455.1045">validar(TipoPago, cuotas, totalParaPago, tipoVta)</text><path d="M40,487.9609 L101,487.9609 L101,496.3125 L91,506.3125 L40,506.3125 L40,487.9609 " fill="#EEEEEE" style="stroke:#000000;stroke-width:1.5;"/><rect fill="none" height="183.5938" style="stroke:#000000;stroke-width:1.5;" width="876" x="40" y="487.9609"/><text fill="#000000" font-family="sans-serif" font-size="13" font-weight="bold" lengthAdjust="spacing" textLength="16" x="55" y="502.4561">alt</text><text fill="#000000" font-family="sans-serif" font-size="11" font-weight="bold" lengthAdjust="spacing" textLength="178" x="116" y="501.3799">[tarjeta y totalParaPago &gt; 100000]</text><polygon fill="#181818" points="95.5,524.6641,85.5,528.6641,95.5,532.6641,91.5,528.6641" style="stroke:#181818;stroke-width:1.0;"/><line style="stroke:#181818;stroke-width:1.0;stroke-dasharray:2.0,2.0;" x1="89.5" x2="541.5" y1="528.6641" y2="528.6641"/><text fill="#000000" font-family="sans-serif" font-size="13" lengthAdjust="spacing" textLength="186" x="101.5" y="523.8076">"Tarjeta no aceptada &gt; 100.000"</text><polygon fill="#181818" points="868.5,555.0156,878.5,559.0156,868.5,563.0156,872.5,559.0156" style="stroke:#181818;stroke-width:1.0;"/><line style="stroke:#181818;stroke-width:1.0;" x1="547.5" x2="874.5" y1="559.0156" y2="559.0156"/><text fill="#000000" font-family="sans-serif" font-size="13" lengthAdjust="spacing" textLength="150" x="554.5" y="554.1592">marcarEstado(Cancelado)</text><polygon fill="#181818" points="558.5,569.0156,548.5,573.0156,558.5,577.0156,554.5,573.0156" style="stroke:#181818;stroke-width:1.0;"/><line style="stroke:#181818;stroke-width:1.0;stroke-dasharray:2.0,2.0;" x1="552.5" x2="879.5" y1="573.0156" y2="573.0156"/><line style="stroke:#000000;stroke-width:1.0;stroke-dasharray:2.0,2.0;" x1="40" x2="916" y1="582.0156" y2="582.0156"/><text fill="#000000" font-family="sans-serif" font-size="11" font-weight="bold" lengthAdjust="spacing" textLength="279" x="45" y="593.4346">[tipoVta=conReceta y TipoPago=cr&#233;dito y cuotas&gt;1]</text><polygon fill="#181818" points="95.5,615.2031,85.5,619.2031,95.5,623.2031,91.5,619.2031" style="stroke:#181818;stroke-width:1.0;"/><line style="stroke:#181818;stroke-width:1.0;stroke-dasharray:2.0,2.0;" x1="89.5" x2="546.5" y1="619.2031" y2="619.2031"/><text fill="#000000" font-family="sans-serif" font-size="13" lengthAdjust="spacing" textLength="236" x="101.5" y="614.3467">"Obra social no permite m&#250;ltiples pagos"</text><polygon fill="#181818" points="868.5,645.5547,878.5,649.5547,868.5,653.5547,872.5,649.5547" style="stroke:#181818;stroke-width:1.0;"/><line style="stroke:#181818;stroke-width:1.0;" x1="547.5" x2="874.5" y1="649.5547" y2="649.5547"/><text fill="#000000" font-family="sans-serif" font-size="13" lengthAdjust="spacing" textLength="150" x="554.5" y="644.6982">marcarEstado(Cancelado)</text><polygon fill="#181818" points="558.5,659.5547,548.5,663.5547,558.5,667.5547,554.5,663.5547" style="stroke:#181818;stroke-width:1.0;"/><line style="stroke:#181818;stroke-width:1.0;stroke-dasharray:2.0,2.0;" x1="552.5" x2="879.5" y1="663.5547" y2="663.5547"/><rect fill="#EEEEEE" height="3" style="stroke:#EEEEEE;stroke-width:1.0;" width="2036" x="0" y="699.7305"/><line style="stroke:#000000;stroke-width:1.0;" x1="0" x2="2036" y1="699.7305" y2="699.7305"/><line style="stroke:#000000;stroke-width:1.0;" x1="0" x2="2036" y1="702.7305" y2="702.7305"/><rect fill="#EEEEEE" height="24.3516" style="stroke:#000000;stroke-width:2.0;" width="222" x="907" y="688.5547"/><text fill="#000000" font-family="sans-serif" font-size="13" font-weight="bold" lengthAdjust="spacing" textLength="204" x="913" y="706.0498">Crear pago e iniciar transacci&#243;n</text><polygon fill="#181818" points="1042.5,741.2578,1052.5,745.2578,1042.5,749.2578,1046.5,745.2578" style="stroke:#181818;stroke-width:1.0;"/><line style="stroke:#181818;stroke-width:1.0;" x1="547.5" x2="1048.5" y1="745.2578" y2="745.2578"/><text fill="#000000" font-family="sans-serif" font-size="13" lengthAdjust="spacing" textLength="304" x="554.5" y="740.4014">crearPago(nroVta, TipoPago, totalParaPago, cuotas)</text><polygon fill="#181818" points="1348.5,771.6094,1358.5,775.6094,1348.5,779.6094,1352.5,775.6094" style="stroke:#181818;stroke-width:1.0;"/><line style="stroke:#181818;stroke-width:1.0;" x1="1064.5" x2="1354.5" y1="775.6094" y2="775.6094"/><text fill="#000000" font-family="sans-serif" font-size="13" lengthAdjust="spacing" textLength="56" x="1071.5" y="770.7529">setPago()</text><polygon fill="#181818" points="1075.5,801.9609,1065.5,805.9609,1075.5,809.9609,1071.5,805.9609" style="stroke:#181818;stroke-width:1.0;"/><line style="stroke:#181818;stroke-width:1.0;stroke-dasharray:2.0,2.0;" x1="1069.5" x2="1359.5" y1="805.9609" y2="805.9609"/><text fill="#000000" font-family="sans-serif" font-size="13" lengthAdjust="spacing" textLength="55" x="1081.5" y="801.1045">numPago</text><polygon fill="#181818" points="1409.5,832.3125,1419.5,836.3125,1409.5,840.3125,1413.5,836.3125" style="stroke:#181818;stroke-width:1.0;"/><line style="stroke:#181818;stroke-width:1.0;" x1="1064.5" x2="1415.5" y1="836.3125" y2="836.3125"/><text fill="#000000" font-family="sans-serif" font-size="13" lengthAdjust="spacing" textLength="327" x="1071.5" y="831.4561">iniciarTransaccion(numPago, totalParaPago, datosPago)</text><polygon fill="#181818" points="1075.5,862.6641,1065.5,866.6641,1075.5,870.6641,1071.5,866.6641" style="stroke:#181818;stroke-width:1.0;"/><line style="stroke:#181818;stroke-width:1.0;stroke-dasharray:2.0,2.0;" x1="1069.5" x2="1420.5" y1="866.6641" y2="866.6641"/><text fill="#000000" font-family="sans-serif" font-size="13" lengthAdjust="spacing" textLength="205" x="1081.5" y="861.8076">respuestaInicial(iniciado|rechazado)</text><path d="M40,881.6641 L101,881.6641 L101,890.0156 L91,900.0156 L40,900.0156 L40,881.6641 " fill="#EEEEEE" style="stroke:#000000;stroke-width:1.5;"/><rect fill="none" height="169.5938" style="stroke:#000000;stroke-width:1.5;" width="1077.5" x="40" y="881.6641"/><text fill="#000000" font-family="sans-serif" font-size="13" font-weight="bold" lengthAdjust="spacing" textLength="16" x="55" y="896.1592">alt</text><text fill="#000000" font-family="sans-serif" font-size="11" font-weight="bold" lengthAdjust="spacing" textLength="65" x="116" y="895.083">[rechazado]</text><polygon fill="#181818" points="563.5,918.3672,553.5,922.3672,563.5,926.3672,559.5,922.3672" style="stroke:#181818;stroke-width:1.0;"/><line style="stroke:#181818;stroke-width:1.0;" x1="557.5" x2="1053.5" y1="922.3672" y2="922.3672"/><text fill="#000000" font-family="sans-serif" font-size="13" lengthAdjust="spacing" textLength="284" x="569.5" y="917.5107">procesarRespuestaPago(nroVta, rechazado, null)</text><polygon fill="#181818" points="868.5,948.7188,878.5,952.7188,868.5,956.7188,872.5,952.7188" style="stroke:#181818;stroke-width:1.0;"/><line style="stroke:#181818;stroke-width:1.0;" x1="552.5" x2="874.5" y1="952.7188" y2="952.7188"/><text fill="#000000" font-family="sans-serif" font-size="13" lengthAdjust="spacing" textLength="150" x="559.5" y="947.8623">marcarEstado(Cancelado)</text><polygon fill="#181818" points="95.5,979.0703,85.5,983.0703,95.5,987.0703,91.5,983.0703" style="stroke:#181818;stroke-width:1.0;"/><line style="stroke:#181818;stroke-width:1.0;stroke-dasharray:2.0,2.0;" x1="89.5" x2="546.5" y1="983.0703" y2="983.0703"/><text fill="#000000" font-family="sans-serif" font-size="13" lengthAdjust="spacing" textLength="107" x="101.5" y="978.2139">"Venta cancelada"</text><polygon fill="#181818" points="535.5,993.0703,545.5,997.0703,535.5,1001.0703,539.5,997.0703" style="stroke:#181818;stroke-width:1.0;"/><line style="stroke:#181818;stroke-width:1.0;stroke-dasharray:2.0,2.0;" x1="84.5" x2="541.5" y1="997.0703" y2="997.0703"/><line style="stroke:#000000;stroke-width:1.0;stroke-dasharray:2.0,2.0;" x1="40" x2="1117.5" y1="1006.0703" y2="1006.0703"/><text fill="#000000" font-family="sans-serif" font-size="11" font-weight="bold" lengthAdjust="spacing" textLength="50" x="45" y="1017.4893">[iniciado]</text><polygon fill="#181818" points="95.5,1039.2578,85.5,1043.2578,95.5,1047.2578,91.5,1043.2578" style="stroke:#181818;stroke-width:1.0;"/><line style="stroke:#181818;stroke-width:1.0;stroke-dasharray:2.0,2.0;" x1="89.5" x2="1058.5" y1="1043.2578" y2="1043.2578"/><text fill="#000000" font-family="sans-serif" font-size="13" lengthAdjust="spacing" textLength="88" x="101.5" y="1038.4014">"Pago iniciado"</text><rect fill="#EEEEEE" height="3" style="stroke:#EEEEEE;stroke-width:1.0;" width="2036" x="0" y="1079.4336"/><line style="stroke:#000000;stroke-width:1.0;" x1="0" x2="2036" y1="1079.4336" y2="1079.4336"/><line style="stroke:#000000;stroke-width:1.0;" x1="0" x2="2036" y1="1082.4336" y2="1082.4336"/><rect fill="#EEEEEE" height="24.3516" style="stroke:#000000;stroke-width:2.0;" width="154" x="941" y="1068.2578"/><text fill="#000000" font-family="sans-serif" font-size="13" font-weight="bold" lengthAdjust="spacing" textLength="136" x="947" y="1085.7529">Callback y resoluci&#243;n</text><path d="M10,1109.6094 L83,1109.6094 L83,1117.9609 L73,1127.9609 L10,1127.9609 L10,1109.6094 " fill="#EEEEEE" style="stroke:#000000;stroke-width:1.5;"/><rect fill="none" height="1031.7578" style="stroke:#000000;stroke-width:1.5;" width="2016" x="10" y="1109.6094"/><text fill="#000000" font-family="sans-serif" font-size="13" font-weight="bold" lengthAdjust="spacing" textLength="28" x="25" y="1124.1045">loop</text><text fill="#000000" font-family="sans-serif" font-size="11" font-weight="bold" lengthAdjust="spacing" textLength="151" x="98" y="1123.0283">[hasta aprobado/cancelado]</text><polygon fill="#181818" points="1070.5,1146.3125,1060.5,1150.3125,1070.5,1154.3125,1066.5,1150.3125" style="stroke:#181818;stroke-width:1.0;"/><line style="stroke:#181818;stroke-width:1.0;" x1="1064.5" x2="1420.5" y1="1150.3125" y2="1150.3125"/><text fill="#000000" font-family="sans-serif" font-size="13" lengthAdjust="spacing" textLength="228" x="1076.5" y="1145.4561">callback(numTransaccion, estadoPago)</text><polygon fill="#181818" points="1348.5,1176.6641,1358.5,1180.6641,1348.5,1184.6641,1352.5,1180.6641" style="stroke:#181818;stroke-width:1.0;"/><line style="stroke:#181818;stroke-width:1.0;" x1="1059.5" x2="1354.5" y1="1180.6641" y2="1180.6641"/><text fill="#000000" font-family="sans-serif" font-size="13" lengthAdjust="spacing" textLength="277" x="1066.5" y="1175.8076">actualizarEstado(estadoPago, numTransaccion)</text><polygon fill="#181818" points="558.5,1207.0156,548.5,1211.0156,558.5,1215.0156,554.5,1211.0156" style="stroke:#181818;stroke-width:1.0;"/><line style="stroke:#181818;stroke-width:1.0;" x1="552.5" x2="1058.5" y1="1211.0156" y2="1211.0156"/><text fill="#000000" font-family="sans-serif" font-size="13" lengthAdjust="spacing" textLength="368" x="564.5" y="1206.1592">procesarRespuestaPago(nroVta, estadoPago, numTransaccion)</text><path d="M20,1226.0156 L81,1226.0156 L81,1234.3672 L71,1244.3672 L20,1244.3672 L20,1226.0156 " fill="#EEEEEE" style="stroke:#000000;stroke-width:1.5;"/><rect fill="none" height="908.3516" style="stroke:#000000;stroke-width:1.5;" width="1996" x="20" y="1226.0156"/><text fill="#000000" font-family="sans-serif" font-size="13" font-weight="bold" lengthAdjust="spacing" textLength="16" x="35" y="1240.5107">alt</text><text fill="#000000" font-family="sans-serif" font-size="11" font-weight="bold" lengthAdjust="spacing" textLength="143" x="96" y="1239.4346">[estadoPago == aprobado]</text><polygon fill="#181818" points="863.5,1262.7188,873.5,1266.7188,863.5,1270.7188,867.5,1266.7188" style="stroke:#181818;stroke-width:1.0;"/><line style="stroke:#181818;stroke-width:1.0;" x1="547.5" x2="869.5" y1="1266.7188" y2="1266.7188"/><text fill="#000000" font-family="sans-serif" font-size="13" lengthAdjust="spacing" textLength="186" x="554.5" y="1261.8623">confirmarPago(numTransaccion)</text><line style="stroke:#181818;stroke-width:1.0;" x1="885.5" x2="927.5" y1="1297.0703" y2="1297.0703"/><line style="stroke:#181818;stroke-width:1.0;" x1="927.5" x2="927.5" y1="1297.0703" y2="1310.0703"/><line style="stroke:#181818;stroke-width:1.0;" x1="886.5" x2="927.5" y1="1310.0703" y2="1310.0703"/><polygon fill="#181818" points="896.5,1306.0703,886.5,1310.0703,896.5,1314.0703,892.5,1310.0703" style="stroke:#181818;stroke-width:1.0;"/><text fill="#000000" font-family="sans-serif" font-size="13" lengthAdjust="spacing" textLength="155" x="892.5" y="1292.2139">marcarEstado(Concretado)</text><polygon fill="#181818" points="558.5,1336.4219,548.5,1340.4219,558.5,1344.4219,554.5,1340.4219" style="stroke:#181818;stroke-width:1.0;"/><line style="stroke:#181818;stroke-width:1.0;stroke-dasharray:2.0,2.0;" x1="552.5" x2="879.5" y1="1340.4219" y2="1340.4219"/><text fill="#000000" font-family="sans-serif" font-size="13" lengthAdjust="spacing" textLength="62" x="564.5" y="1335.5654">&#171;Bool: ok&#187;</text><path d="M471.5,1355.4219 L544.5,1355.4219 L544.5,1363.7734 L534.5,1373.7734 L471.5,1373.7734 L471.5,1355.4219 " fill="#EEEEEE" style="stroke:#000000;stroke-width:1.5;"/><rect fill="none" height="79.0547" style="stroke:#000000;stroke-width:1.5;" width="1534.5" x="471.5" y="1355.4219"/><text fill="#000000" font-family="sans-serif" font-size="13" font-weight="bold" lengthAdjust="spacing" textLength="28" x="486.5" y="1369.917">loop</text><text fill="#000000" font-family="sans-serif" font-size="11" font-weight="bold" lengthAdjust="spacing" textLength="132" x="559.5" y="1368.8408">[por cada detalle oculto]</text><polygon fill="#181818" points="1930,1392.125,1940,1396.125,1930,1400.125,1934,1396.125" style="stroke:#181818;stroke-width:1.0;"/><line style="stroke:#181818;stroke-width:1.0;" x1="547.5" x2="1936" y1="1396.125" y2="1396.125"/><text fill="#000000" font-family="sans-serif" font-size="13" lengthAdjust="spacing" textLength="203" x="554.5" y="1391.2686">disminuirStock(codBarra, cantidad)</text><polygon fill="#181818" points="558.5,1422.4766,548.5,1426.4766,558.5,1430.4766,554.5,1426.4766" style="stroke:#181818;stroke-width:1.0;"/><line style="stroke:#181818;stroke-width:1.0;stroke-dasharray:2.0,2.0;" x1="552.5" x2="1946" y1="1426.4766" y2="1426.4766"/><text fill="#000000" font-family="sans-serif" font-size="13" lengthAdjust="spacing" textLength="62" x="564.5" y="1421.6201">&#171;Bool: ok&#187;</text><polygon fill="#181818" points="1047.5,1459.8281,1057.5,1463.8281,1047.5,1467.8281,1051.5,1463.8281" style="stroke:#181818;stroke-width:1.0;"/><line style="stroke:#181818;stroke-width:1.0;" x1="547.5" x2="1053.5" y1="1463.8281" y2="1463.8281"/><text fill="#000000" font-family="sans-serif" font-size="13" lengthAdjust="spacing" textLength="327" x="554.5" y="1458.9717">registrarTransaccion(nroVta, numTransaccion, aprobado)</text><polygon fill="#181818" points="1465.5,1490.1797,1475.5,1494.1797,1465.5,1498.1797,1469.5,1494.1797" style="stroke:#181818;stroke-width:1.0;"/><line style="stroke:#181818;stroke-width:1.0;" x1="547.5" x2="1471.5" y1="1494.1797" y2="1494.1797"/><text fill="#000000" font-family="sans-serif" font-size="13" lengthAdjust="spacing" textLength="124" x="554.5" y="1489.3232">generarTicket(nroVta)</text><polygon fill="#181818" points="1717.5,1520.5313,1727.5,1524.5313,1717.5,1528.5313,1721.5,1524.5313" style="stroke:#181818;stroke-width:1.0;"/><line style="stroke:#181818;stroke-width:1.0;" x1="1487.5" x2="1723.5" y1="1524.5313" y2="1524.5313"/><text fill="#000000" font-family="sans-serif" font-size="13" lengthAdjust="spacing" textLength="173" x="1494.5" y="1519.6748">imprimir(nroVta, pdf/objTicket)</text><polygon fill="#181818" points="1498.5,1550.8828,1488.5,1554.8828,1498.5,1558.8828,1494.5,1554.8828" style="stroke:#181818;stroke-width:1.0;"/><line style="stroke:#181818;stroke-width:1.0;stroke-dasharray:2.0,2.0;" x1="1492.5" x2="1733.5" y1="1554.8828" y2="1554.8828"/><text fill="#000000" font-family="sans-serif" font-size="13" lengthAdjust="spacing" textLength="218" x="1504.5" y="1550.0264">&#171;string: resultadoImpresion (ok|error)&#187;</text><polygon fill="#181818" points="558.5,1581.2344,548.5,1585.2344,558.5,1589.2344,554.5,1585.2344" style="stroke:#181818;stroke-width:1.0;"/><line style="stroke:#181818;stroke-width:1.0;stroke-dasharray:2.0,2.0;" x1="552.5" x2="1481.5" y1="1585.2344" y2="1585.2344"/><text fill="#000000" font-family="sans-serif" font-size="13" lengthAdjust="spacing" textLength="232" x="564.5" y="1580.3779">&#171;Object: pdfPath or resultadoImpresion&#187;</text><path d="M30,1600.2344 L91,1600.2344 L91,1608.5859 L81,1618.5859 L30,1618.5859 L30,1600.2344 " fill="#EEEEEE" style="stroke:#000000;stroke-width:1.5;"/><rect fill="none" height="220.2969" style="stroke:#000000;stroke-width:1.5;" width="1868" x="30" y="1600.2344"/><text fill="#000000" font-family="sans-serif" font-size="13" font-weight="bold" lengthAdjust="spacing" textLength="16" x="45" y="1614.7295">alt</text><text fill="#000000" font-family="sans-serif" font-size="11" font-weight="bold" lengthAdjust="spacing" textLength="97" x="106" y="1613.6533">[impresion == ok]</text><polygon fill="#181818" points="95.5,1636.9375,85.5,1640.9375,95.5,1644.9375,91.5,1640.9375" style="stroke:#181818;stroke-width:1.0;"/><line style="stroke:#181818;stroke-width:1.0;stroke-dasharray:2.0,2.0;" x1="89.5" x2="546.5" y1="1640.9375" y2="1640.9375"/><text fill="#000000" font-family="sans-serif" font-size="13" lengthAdjust="spacing" textLength="315" x="101.5" y="1636.0811">&lt;Mostrar Mensaje: "Pago aprobado. Ticket impreso."&gt;</text><line style="stroke:#000000;stroke-width:1.0;stroke-dasharray:2.0,2.0;" x1="30" x2="1898" y1="1649.9375" y2="1649.9375"/><text fill="#000000" font-family="sans-serif" font-size="11" font-weight="bold" lengthAdjust="spacing" textLength="112" x="35" y="1661.3564">[impresion == error]</text><polygon fill="#181818" points="1817.5,1683.125,1827.5,1687.125,1817.5,1691.125,1821.5,1687.125" style="stroke:#181818;stroke-width:1.0;"/><line style="stroke:#181818;stroke-width:1.0;" x1="547.5" x2="1823.5" y1="1687.125" y2="1687.125"/><text fill="#000000" font-family="sans-serif" font-size="13" lengthAdjust="spacing" textLength="254" x="554.5" y="1682.2686">enviarComprobante(nroVta, clienteContacto)</text><polygon fill="#181818" points="558.5,1713.4766,548.5,1717.4766,558.5,1721.4766,554.5,1717.4766" style="stroke:#181818;stroke-width:1.0;"/><line style="stroke:#181818;stroke-width:1.0;stroke-dasharray:2.0,2.0;" x1="552.5" x2="1833.5" y1="1717.4766" y2="1717.4766"/><text fill="#000000" font-family="sans-serif" font-size="13" lengthAdjust="spacing" textLength="157" x="564.5" y="1712.6201">&#171;string: envioOk|falloEnvio&#187;</text><path d="M40,1732.4766 L101,1732.4766 L101,1740.8281 L91,1750.8281 L40,1750.8281 L40,1732.4766 " fill="#EEEEEE" style="stroke:#000000;stroke-width:1.5;"/><rect fill="none" height="81.0547" style="stroke:#000000;stroke-width:1.5;" width="583.5" x="40" y="1732.4766"/><text fill="#000000" font-family="sans-serif" font-size="13" font-weight="bold" lengthAdjust="spacing" textLength="16" x="55" y="1746.9717">alt</text><text fill="#000000" font-family="sans-serif" font-size="11" font-weight="bold" lengthAdjust="spacing" textLength="53" x="116" y="1745.8955">[envioOk]</text><polygon fill="#181818" points="95.5,1769.1797,85.5,1773.1797,95.5,1777.1797,91.5,1773.1797" style="stroke:#181818;stroke-width:1.0;"/><line style="stroke:#181818;stroke-width:1.0;stroke-dasharray:2.0,2.0;" x1="89.5" x2="546.5" y1="1773.1797" y2="1773.1797"/><text fill="#000000" font-family="sans-serif" font-size="13" lengthAdjust="spacing" textLength="439" x="101.5" y="1768.3232">&lt;Mostrar Mensaje: "Pago aprobado. Ticket enviado por correo/WhatsApp."&gt;</text><line style="stroke:#000000;stroke-width:1.0;stroke-dasharray:2.0,2.0;" x1="40" x2="623.5" y1="1782.1797" y2="1782.1797"/><polygon fill="#181818" points="95.5,1801.5313,85.5,1805.5313,95.5,1809.5313,91.5,1805.5313" style="stroke:#181818;stroke-width:1.0;"/><line style="stroke:#181818;stroke-width:1.0;stroke-dasharray:2.0,2.0;" x1="89.5" x2="546.5" y1="1805.5313" y2="1805.5313"/><text fill="#000000" font-family="sans-serif" font-size="13" lengthAdjust="spacing" textLength="371" x="101.5" y="1800.6748">&lt;Mostrar Mensaje: "Pago aprobado. Impresi&#243;n y env&#237;o fallaron"&gt;</text><line style="stroke:#000000;stroke-width:1.0;stroke-dasharray:2.0,2.0;" x1="20" x2="2016" y1="1828.5313" y2="1828.5313"/><text fill="#000000" font-family="sans-serif" font-size="11" font-weight="bold" lengthAdjust="spacing" textLength="148" x="25" y="1839.9502">[estadoPago == rechazado]</text><polygon fill="#181818" points="95.5,1861.7188,85.5,1865.7188,95.5,1869.7188,91.5,1865.7188" style="stroke:#181818;stroke-width:1.0;"/><line style="stroke:#181818;stroke-width:1.0;stroke-dasharray:2.0,2.0;" x1="89.5" x2="1058.5" y1="1865.7188" y2="1865.7188"/><text fill="#000000" font-family="sans-serif" font-size="13" lengthAdjust="spacing" textLength="476" x="101.5" y="1860.8623">&lt;Mostrar Mensaje: "Pago rechazado. &#191;Reintentar transacci&#243;n o cancelar venta?"&gt;</text><path d="M40,1880.7188 L101,1880.7188 L101,1889.0703 L91,1899.0703 L40,1899.0703 L40,1880.7188 " fill="#EEEEEE" style="stroke:#000000;stroke-width:1.5;"/><rect fill="none" height="246.6484" style="stroke:#000000;stroke-width:1.5;" width="1420.5" x="40" y="1880.7188"/><text fill="#000000" font-family="sans-serif" font-size="13" font-weight="bold" lengthAdjust="spacing" textLength="16" x="55" y="1895.2139">alt</text><text fill="#000000" font-family="sans-serif" font-size="11" font-weight="bold" lengthAdjust="spacing" textLength="150" x="116" y="1894.1377">[Empleado elige reintentar]</text><polygon fill="#181818" points="1047.5,1917.4219,1057.5,1921.4219,1047.5,1925.4219,1051.5,1921.4219" style="stroke:#181818;stroke-width:1.0;"/><line style="stroke:#181818;stroke-width:1.0;" x1="84.5" x2="1053.5" y1="1921.4219" y2="1921.4219"/><text fill="#000000" font-family="sans-serif" font-size="13" lengthAdjust="spacing" textLength="199" x="91.5" y="1916.5654">retryTransaccion(numTransaccion)</text><polygon fill="#181818" points="1404.5,1947.7734,1414.5,1951.7734,1404.5,1955.7734,1408.5,1951.7734" style="stroke:#181818;stroke-width:1.0;"/><line style="stroke:#181818;stroke-width:1.0;" x1="1059.5" x2="1410.5" y1="1951.7734" y2="1951.7734"/><text fill="#000000" font-family="sans-serif" font-size="13" lengthAdjust="spacing" textLength="338" x="1066.5" y="1946.917">iniciarTransaccion(numTransaccion, totalFinal, datosPago)</text><polygon fill="#181818" points="1070.5,1978.125,1060.5,1982.125,1070.5,1986.125,1066.5,1982.125" style="stroke:#181818;stroke-width:1.0;"/><line style="stroke:#181818;stroke-width:1.0;stroke-dasharray:2.0,2.0;" x1="1064.5" x2="1420.5" y1="1982.125" y2="1982.125"/><text fill="#000000" font-family="sans-serif" font-size="13" lengthAdjust="spacing" textLength="263" x="1076.5" y="1977.2686">&#171;string: respuestaInicial (iniciado|rechazado)&#187;</text><line style="stroke:#000000;stroke-width:1.0;stroke-dasharray:2.0,2.0;" x1="40" x2="1460.5" y1="1991.125" y2="1991.125"/><text fill="#000000" font-family="sans-serif" font-size="11" font-weight="bold" lengthAdjust="spacing" textLength="141" x="45" y="2002.5439">[Empleado elige cancelar]</text><polygon fill="#181818" points="1047.5,2024.3125,1057.5,2028.3125,1047.5,2032.3125,1051.5,2028.3125" style="stroke:#181818;stroke-width:1.0;"/><line style="stroke:#181818;stroke-width:1.0;" x1="84.5" x2="1053.5" y1="2028.3125" y2="2028.3125"/><text fill="#000000" font-family="sans-serif" font-size="13" lengthAdjust="spacing" textLength="222" x="91.5" y="2023.4561">cancelarTransaccion(numTransaccion)</text><polygon fill="#181818" points="563.5,2054.6641,553.5,2058.6641,563.5,2062.6641,559.5,2058.6641" style="stroke:#181818;stroke-width:1.0;"/><line style="stroke:#181818;stroke-width:1.0;" x1="557.5" x2="1058.5" y1="2058.6641" y2="2058.6641"/><text fill="#000000" font-family="sans-serif" font-size="13" lengthAdjust="spacing" textLength="359" x="569.5" y="2053.8076">procesarRespuestaPago(nroVta, rechazado, numTransaccion)</text><polygon fill="#181818" points="868.5,2085.0156,878.5,2089.0156,868.5,2093.0156,872.5,2089.0156" style="stroke:#181818;stroke-width:1.0;"/><line style="stroke:#181818;stroke-width:1.0;" x1="552.5" x2="874.5" y1="2089.0156" y2="2089.0156"/><text fill="#000000" font-family="sans-serif" font-size="13" lengthAdjust="spacing" textLength="150" x="559.5" y="2084.1592">marcarEstado(Cancelado)</text><polygon fill="#181818" points="95.5,2115.3672,85.5,2119.3672,95.5,2123.3672,91.5,2119.3672" style="stroke:#181818;stroke-width:1.0;"/><line style="stroke:#181818;stroke-width:1.0;stroke-dasharray:2.0,2.0;" x1="89.5" x2="546.5" y1="2119.3672" y2="2119.3672"/><text fill="#000000" font-family="sans-serif" font-size="13" lengthAdjust="spacing" textLength="322" x="101.5" y="2114.5107">&lt;Mostrar Mensaje: "Venta cancelada por el operador."&gt;</text><!--SRC=[lLYzRYCt4ExtAHWr9m6odMiDIq6i-00NZespuI0bnQLbMXHdmwK4-E2NIPdYgkkk2H2zM8RaabgkTYMTVOaQYRkSR_w-6Gv5cG5DBXQ5v3I7Z84o6YJvbS-02PZu9RxHMK6r4KmKL1bopvMXSVCjrojy0pTq1cM6huHv9dQHoDn0gRW9h-y4c-Egli4_udeRU09QSuJEHYDy9ZbZOlr5aPoZJE7Ksj-5_Nuc1WoLX1PIC3gLd8n6MN2F78rRF2Ed135dGbzn0xc3woiDzuOE8_wGi2NYbeECCYDMrF2s4BLWeqONB5G2KyCLrtVMldEzDF3xBxnaItmB9GP7eB5bVv3vxKTTfYvm1KvyY4vNyfLuN_C_be9hFhhuS36vkxo_7cGPbMOJfXz69BpA27xQBMvLh3cZaYqbzHxS2XNDxs-C6cHSbhMyl5wVpw2EIcw5eq5PWCevnechl3NWY1VpVUhPS4CrTNoq1BgdKkGqCgW0kVwC7AIbPSetsBToEBhVfCWmrObBt81a6hXC6AgVEERtETr5nkJzZ_RJ6QNKhTvTXQE0KCOBGtFgCOuHfBSZre6D2wenkXSbIa9_GXNZTil0IUPy5ylj3itDKYkVwyg_4LRjHywySo4e8wRNV-N2sCBquHc_FzJ5wwccfCHTMCxePi7rGg15Y_LNYIgnM5p5b_-ViqWuIw29vbJxRiE9KDYWS6aqLIMj6bCdaP9EYNOn2zNHS1eiske_QTTDaL6LOzKfARbn-8FCFJXgCK8j5xuujZ5SoyOjbPTtmKbG_KfgoywSsdQ6Fr6Z5s_JQUjuoJ4VbmvPzhs675wmpJpIJouxhc3YsgLYoyJMqYmqC5vI_J5eIK8S4OVekfIU1Viuy7f-7S1q3yCgETexa9Ur7IaPcXKQWjiMmeOfZYLXVs_3UIhbbB8vbZ6c3kGo4bq25EIHeklOiJLCKUmaUE8L1XgqqBz2jMIgSMj8k8kaPr5hsYjse_zBRCEVOkmtWZQvTT31T-FFBXqPiPpTxC08nR0u0_Pp2TleWz2Bq1TQd4ZuwaUnyBWQ7hgO2GexZedKh4bqXUBix1n0ul0o7u-ZJ8ruNdryuzXGe2Ip1rAEkYIEO81ZWzdutns3AvxZIRomnptgpaMv46efzAq190c3_9ngZHb0VXayU_D10Xbjgg4a6-het-Pmm-as1QvITdkttGHdeiI38-sh5SkQ9H5ODDYdnO_H23-pqoQ2ktM5sqAWQX8Fpoln28GGzW1O55eiX8xc5Vd32KoV_9vEL3lCfy0MxgXkvTaPXa2ecJiJa2RenYKguoLwJVemV-5QWnwqiwzBowxqNa-VE3EdreCRQXu9FjxMl4lT9W6sraKq5aiTvdj9dlRRiojm341AOQgVUEZ08Tl7mI6l1evx6yDyQw-hTw4weCmQzofx0L8hFDydi71wbU4nqKmAv3ct21W7w2YvvasjlgcfRKTk0XMiEN0zVtd0zW4NTj5TZ5kNnCH0suqzMFByEsV7XGz5NETpTfpyzaXD-NDHr3CMilQVc59nrnxBpzQWzMSWDdvKWshQWBsgjM_jdpdivnrv4EeqghQCAYcs-PnBTm1aaPtfGPYESdjdaIwN8ymn-UVlZrmWEv6RZH4SmZYboSg-_gatFj3BfBgZELoA6KVLGLiIp_h_2zjDtkZdnk3SUgAtppcx9_3aX723-0UXg4ocyDPwhVwCgR_RCQqdFJgPsqdRuDvTgorgtv5ILDuDoGhaYklrdt4ojDT6mIJOgSW8jVvAq_RNo4_8-S7P2GAlJj1Rxn_TgWwfnBVTJDxKVHft5jVwiFu1h-aMeTds3kiiUsyrDTQulr-gMTCPuGe_Q_Ou- -rwN2VkJjF-1G00]--></g></svg>