<svg xmlns="http://www.w3.org/2000/svg" xmlns:xlink="http://www.w3.org/1999/xlink" contentStyleType="text/css" data-diagram-type="SEQUENCE" height="695px" preserveAspectRatio="none" style="width:976px;height:695px;background:#FFFFFF;" version="1.1" viewBox="0 0 976 695" width="976px" zoomAndPan="magnify"><title>Venta Con Receta</title><defs/><g><text fill="#000000" font-family="sans-serif" font-size="14" font-weight="bold" lengthAdjust="spacing" textLength="140.2529" x="417.3506" y="27.9951">Venta Con Receta</text><g><title>emp.Empleado</title><rect fill="#000000" fill-opacity="0.00000" height="569.7344" width="8" x="57.3794" y="118.5938"/><line style="stroke:#181818;stroke-width:0.5;stroke-dasharray:5,5;" x1="60.8794" x2="60.8794" y1="118.5938" y2="688.3281"/></g><g><title>cv.ControladorVentas</title><rect fill="#000000" fill-opacity="0.00000" height="569.7344" width="8" x="339.9619" y="118.5938"/><line style="stroke:#181818;stroke-width:0.5;stroke-dasharray:5,5;" x1="343.4619" x2="343.4619" y1="118.5938" y2="688.3281"/></g><g><title/><rect fill="#FFFFFF" height="485.3359" style="stroke:#181818;stroke-width:1;" width="10" x="338.4619" y="197.9922"/></g><g><title>vta.Venta</title><rect fill="#000000" fill-opacity="0.00000" height="569.7344" width="8" x="517.2686" y="118.5938"/><line style="stroke:#181818;stroke-width:0.5;stroke-dasharray:5,5;" x1="520.7686" x2="520.7686" y1="118.5938" y2="688.3281"/></g><g><title/><rect fill="#FFFFFF" height="29.1328" style="stroke:#181818;stroke-width:1;" width="10" x="515.7686" y="464.1875"/></g><g><title>sos.ServicioObrasSociales</title><rect fill="#000000" fill-opacity="0.00000" height="569.7344" width="8" x="869.2524" y="118.5938"/><line style="stroke:#181818;stroke-width:0.5;stroke-dasharray:5,5;" x1="872.7524" x2="872.7524" y1="118.5938" y2="688.3281"/></g><g><title/><rect fill="#FFFFFF" height="29.1328" style="stroke:#181818;stroke-width:1;" width="10" x="867.7524" y="227.125"/></g><g><title/><rect fill="#FFFFFF" height="29.1328" style="stroke:#181818;stroke-width:1;" width="10" x="867.7524" y="316.5234"/></g><g><title/><rect fill="#FFFFFF" height="29.1328" style="stroke:#181818;stroke-width:1;" width="10" x="867.7524" y="405.9219"/></g><text fill="#000000" font-family="sans-serif" font-size="14" lengthAdjust="spacing" textLength="105.7588" x="5" y="115.292">emp:Empleado</text><ellipse cx="60.8794" cy="50.7969" fill="#E2E2F0" rx="8" ry="8" style="stroke:#181818;stroke-width:0.5;"/><path d="M60.8794,58.7969 L60.8794,85.7969 M47.8794,66.7969 L73.8794,66.7969 M60.8794,85.7969 L47.8794,100.7969 M60.8794,85.7969 L73.8794,100.7969" fill="none" style="stroke:#181818;stroke-width:0.5;"/><rect fill="#E2E2F0" height="30.2969" rx="2.5" ry="2.5" style="stroke:#181818;stroke-width:0.5;" width="165.8262" x="260.5488" y="87.2969"/><text fill="#000000" font-family="sans-serif" font-size="14" lengthAdjust="spacing" textLength="151.8262" x="267.5488" y="107.292">cv:ControladorVentas</text><rect fill="#E2E2F0" height="30.2969" rx="2.5" ry="2.5" style="stroke:#181818;stroke-width:0.5;" width="82.2021" x="479.6675" y="87.2969"/><text fill="#000000" font-family="sans-serif" font-size="14" lengthAdjust="spacing" textLength="68.2021" x="486.6675" y="107.292">vta:Venta</text><rect fill="#E2E2F0" height="30.2969" rx="2.5" ry="2.5" style="stroke:#181818;stroke-width:0.5;" width="196.4033" x="774.5508" y="87.2969"/><text fill="#000000" font-family="sans-serif" font-size="14" lengthAdjust="spacing" textLength="182.4033" x="781.5508" y="107.292">sos:ServicioObrasSociales</text><path d="M-11.1611,131.5938 L-11.1611,171.5938 L943.8389,171.5938 L943.8389,141.5938 L933.8389,131.5938 L-11.1611,131.5938" fill="#FEFFDD" style="stroke:#181818;stroke-width:0.5;"/><path d="M933.8389,131.5938 L933.8389,141.5938 L943.8389,141.5938 L933.8389,131.5938" fill="#FEFFDD" style="stroke:#181818;stroke-width:0.5;"/><text fill="#000000" font-family="sans-serif" font-size="13" lengthAdjust="spacing" textLength="392.52" x="263.9897" y="148.6606">Precondici&#243;n: Se ha iniciado una venta y se ha seleccionado</text><text fill="#000000" font-family="sans-serif" font-size="13" lengthAdjust="spacing" textLength="214.5127" x="263.9897" y="163.7935">la opci&#243;n de "Venta con Receta".</text><polygon fill="#181818" points="326.4619,193.9922,336.4619,197.9922,326.4619,201.9922,330.4619,197.9922" style="stroke:#181818;stroke-width:1;"/><line style="stroke:#181818;stroke-width:1;" x1="60.8794" x2="332.4619" y1="197.9922" y2="197.9922"/><text fill="#000000" font-family="sans-serif" font-size="13" lengthAdjust="spacing" textLength="250.7451" x="67.8794" y="192.9263">validarReglasNegocio(dniCliente : INT)</text><polygon fill="#181818" points="855.7524,223.125,865.7524,227.125,855.7524,231.125,859.7524,227.125" style="stroke:#181818;stroke-width:1;"/><line style="stroke:#181818;stroke-width:1;" x1="348.4619" x2="861.7524" y1="227.125" y2="227.125"/><text fill="#000000" font-family="sans-serif" font-size="13" lengthAdjust="spacing" textLength="405.2788" x="355.4619" y="222.0591">validarAfiliacion(obraSocialNombre : String, numAfiliado : INT)</text><polygon fill="#181818" points="359.4619,252.2578,349.4619,256.2578,359.4619,260.2578,355.4619,256.2578" style="stroke:#181818;stroke-width:1;"/><line style="stroke:#181818;stroke-width:1;stroke-dasharray:2,2;" x1="353.4619" x2="866.7524" y1="256.2578" y2="256.2578"/><text fill="#000000" font-family="sans-serif" font-size="13" lengthAdjust="spacing" textLength="120.2373" x="365.4619" y="251.1919">&#171;esValido : BOOL&#187;</text><path d="M25.8794,268.2578 L90.3223,268.2578 L90.3223,275.3906 L80.3223,285.3906 L25.8794,285.3906 L25.8794,268.2578" fill="#EEEEEE" style="stroke:#000000;stroke-width:1.5;"/><rect fill="none" height="396.0703" style="stroke:#000000;stroke-width:1.5;" width="892.873" x="25.8794" y="268.2578"/><text fill="#000000" font-family="sans-serif" font-size="13" font-weight="bold" lengthAdjust="spacing" textLength="19.4429" x="40.8794" y="281.3247">alt</text><text fill="#000000" font-family="sans-serif" font-size="11" font-weight="bold" lengthAdjust="spacing" textLength="121.4834" x="105.3223" y="280.4683">[esValido == TRUE]</text><line style="stroke:#000000;stroke-width:1;stroke-dasharray:2,2;" x1="25.8794" x2="918.7524" y1="615.3906" y2="615.3906"/><text fill="#000000" font-family="sans-serif" font-size="11" font-weight="bold" lengthAdjust="spacing" textLength="127.5366" x="30.8794" y="627.6011">[esValido == FALSE]</text><polygon fill="#181818" points="855.7524,312.5234,865.7524,316.5234,855.7524,320.5234,859.7524,316.5234" style="stroke:#181818;stroke-width:1;"/><line style="stroke:#181818;stroke-width:1;" x1="348.4619" x2="861.7524" y1="316.5234" y2="316.5234"/><text fill="#000000" font-family="sans-serif" font-size="13" lengthAdjust="spacing" textLength="281.9312" x="355.4619" y="311.4575">verificarRecetaElectronica(nroReceta : INT)</text><polygon fill="#181818" points="359.4619,341.6563,349.4619,345.6563,359.4619,349.6563,355.4619,345.6563" style="stroke:#181818;stroke-width:1;"/><line style="stroke:#181818;stroke-width:1;stroke-dasharray:2,2;" x1="353.4619" x2="866.7524" y1="345.6563" y2="345.6563"/><text fill="#000000" font-family="sans-serif" font-size="13" lengthAdjust="spacing" textLength="125.4868" x="365.4619" y="340.5903">&#171;recetaOK : BOOL&#187;</text><path d="M44.8794,357.6563 L109.3223,357.6563 L109.3223,364.7891 L99.3223,374.7891 L44.8794,374.7891 L44.8794,357.6563" fill="#EEEEEE" style="stroke:#000000;stroke-width:1.5;"/><rect fill="none" height="232.7344" style="stroke:#000000;stroke-width:1.5;" width="848.873" x="44.8794" y="357.6563"/><text fill="#000000" font-family="sans-serif" font-size="13" font-weight="bold" lengthAdjust="spacing" textLength="19.4429" x="59.8794" y="370.7231">alt</text><text fill="#000000" font-family="sans-serif" font-size="11" font-weight="bold" lengthAdjust="spacing" textLength="125.9897" x="124.3223" y="369.8667">[recetaOK == TRUE]</text><line style="stroke:#000000;stroke-width:1;stroke-dasharray:2,2;" x1="44.8794" x2="893.7524" y1="541.4531" y2="541.4531"/><text fill="#000000" font-family="sans-serif" font-size="11" font-weight="bold" lengthAdjust="spacing" textLength="132.043" x="49.8794" y="553.6636">[recetaOK == FALSE]</text><polygon fill="#181818" points="855.7524,401.9219,865.7524,405.9219,855.7524,409.9219,859.7524,405.9219" style="stroke:#181818;stroke-width:1;"/><line style="stroke:#181818;stroke-width:1;" x1="348.4619" x2="861.7524" y1="405.9219" y2="405.9219"/><text fill="#000000" font-family="sans-serif" font-size="13" lengthAdjust="spacing" textLength="500.2905" x="355.4619" y="400.856">autorizarCobertura(nroVta : INT, obraSocialNombre : String, nroReceta : INT)</text><polygon fill="#181818" points="359.4619,431.0547,349.4619,435.0547,359.4619,439.0547,355.4619,435.0547" style="stroke:#181818;stroke-width:1;"/><line style="stroke:#181818;stroke-width:1;stroke-dasharray:2,2;" x1="353.4619" x2="866.7524" y1="435.0547" y2="435.0547"/><text fill="#000000" font-family="sans-serif" font-size="13" lengthAdjust="spacing" textLength="103.873" x="365.4619" y="429.9888">&#171;codAuth : INT&#187;</text><polygon fill="#181818" points="503.7686,460.1875,513.7686,464.1875,503.7686,468.1875,507.7686,464.1875" style="stroke:#181818;stroke-width:1;"/><line style="stroke:#181818;stroke-width:1;" x1="348.4619" x2="509.7686" y1="464.1875" y2="464.1875"/><text fill="#000000" font-family="sans-serif" font-size="13" lengthAdjust="spacing" textLength="148.3066" x="355.4619" y="459.1216">setTipoVta(conReceta)</text><polygon fill="#181818" points="359.4619,489.3203,349.4619,493.3203,359.4619,497.3203,355.4619,493.3203" style="stroke:#181818;stroke-width:1;"/><line style="stroke:#181818;stroke-width:1;stroke-dasharray:2,2;" x1="353.4619" x2="514.7686" y1="493.3203" y2="493.3203"/><text fill="#000000" font-family="sans-serif" font-size="13" lengthAdjust="spacing" textLength="49.6323" x="365.4619" y="488.2544">&#171;NULL&#187;</text><polygon fill="#181818" points="71.8794,518.4531,61.8794,522.4531,71.8794,526.4531,67.8794,522.4531" style="stroke:#181818;stroke-width:1;"/><line style="stroke:#181818;stroke-width:1;stroke-dasharray:2,2;" x1="65.8794" x2="337.4619" y1="522.4531" y2="522.4531"/><text fill="#000000" font-family="sans-serif" font-size="13" lengthAdjust="spacing" textLength="253.5825" x="77.8794" y="517.3872">"Receta V&#225;lida. Cobertura Autorizada."</text><polygon fill="#181818" points="71.8794,578.3906,61.8794,582.3906,71.8794,586.3906,67.8794,582.3906" style="stroke:#181818;stroke-width:1;"/><line style="stroke:#181818;stroke-width:1;stroke-dasharray:2,2;" x1="65.8794" x2="337.4619" y1="582.3906" y2="582.3906"/><text fill="#000000" font-family="sans-serif" font-size="13" lengthAdjust="spacing" textLength="220.124" x="77.8794" y="577.3247">"Error: Receta inv&#225;lida o vencida"</text><polygon fill="#181818" points="71.8794,652.3281,61.8794,656.3281,71.8794,660.3281,67.8794,656.3281" style="stroke:#181818;stroke-width:1;"/><line style="stroke:#181818;stroke-width:1;stroke-dasharray:2,2;" x1="65.8794" x2="337.4619" y1="656.3281" y2="656.3281"/><text fill="#000000" font-family="sans-serif" font-size="13" lengthAdjust="spacing" textLength="166.9814" x="77.8794" y="651.2622">"Error: Afiliaci&#243;n inv&#225;lida"</text><!--SRC=[VLHBZXen4Dtx59NU394Of7nMhHaaWeWq2e8HCEoDkm17njLokrl9t2Pdo17cOYdRq3I82IjSzUhLUsLNVoYTt1qaUAHNyAv6iTS5mfR8R-YNyDeRX3LQBs5C5XQeq4iXfFBa8CD3cKyEfK5PK0Qo0Ww8KZglbIwbzP2f9kSwxyWmn4MYAY9LSmbilCnZEcRvT9ckgCgNw1eEq7pZPBKafQN1HCPP8Inv16hG1HNz60F-FJjKP0ikVFjhSrWYx2LeosTM1BMLq4Hxlw6AgGeDAkvYGpeo60bKndBWqMHf6ggTHZOGQ0i8xONWrd0_P7UGGoEDBgHRuCx8QeOxLaozmkgnqKo1Z7YQhJw6MUf6yfb78kxWqm3MgH16MssqZ9q5Cp8lcpeJdz9aUyGZIHEPqM7Z0lVIEsrtVR3r8G7PpdN7CAD0UN-I_F20LUmUiD_cy-bmA0gym0jfFBIenqTOBLucSKvty9crezDRhLZzyQs4p8Nu4o3b9pnjVXvy7x9d7QNWIMYelMWU0bU2NQoO_pWB3g0hqI6Ks5XyMz4Ldmny6S2evgUjNzd0c3ReVEra2-Zwa2TS2mlwroVnVVZVdTmoUjFi3SEA2jQuJwL7k-zORcqdTr_PdV8rtromXmPMJy_pyARJ1g0DCThyH4zfvw-CDr5mXNwbo-2qnqkGVDnmq7JAGs77mUnbEhqjl5jqqPoBmshba1q7jtxx4vPWSBwbzkOuciLYDBpItTl-Ffek9-_mJfmZbnzVBNyWcjG0A4n7yRyZfor4vEskm9dt9cTdZy_4MVXgYEvsgUOV]--></g></svg>