<svg xmlns="http://www.w3.org/2000/svg" xmlns:xlink="http://www.w3.org/1999/xlink" contentStyleType="text/css" data-diagram-type="SEQUENCE" height="1089px" preserveAspectRatio="none" style="width:1976px;height:1089px;background:#FFFFFF;" version="1.1" viewBox="0 0 1976 1089" width="1976px" zoomAndPan="magnify"><title>Venta Con Receta</title><defs/><g><text fill="#000000" font-family="sans-serif" font-size="14" font-weight="bold" lengthAdjust="spacing" textLength="140.2529" x="919.0706" y="27.9951">Venta Con Receta</text><g><title>Interfaz. NegocioControlador</title><rect fill="#FFFFFF" height="936.25" style="stroke:#181818;stroke-width:1;" width="10" x="529.7285" y="128.5938"/></g><g><title>Venta. objVenta</title><rect fill="#FFFFFF" height="29.1328" style="stroke:#181818;stroke-width:1;" width="10" x="864.0483" y="722.5781"/></g><g><title>Venta. objVenta</title><rect fill="#FFFFFF" height="29.1328" style="stroke:#181818;stroke-width:1;" width="10" x="864.0483" y="780.8438"/></g><g><title>Venta. objVenta</title><rect fill="#FFFFFF" height="29.1328" style="stroke:#181818;stroke-width:1;" width="10" x="864.0483" y="839.1094"/></g><g><title>Receta. objReceta</title><rect fill="#FFFFFF" height="31.2969" style="stroke:#181818;stroke-width:1;" width="10" x="1446.9063" y="188.8594"/></g><g><title>Receta. objReceta</title><rect fill="#FFFFFF" height="29.1328" style="stroke:#181818;stroke-width:1;" width="10" x="1446.9063" y="307.5547"/></g><g><title>Cobertura. objCobertura</title><rect fill="#FFFFFF" height="31.2969" style="stroke:#181818;stroke-width:1;" width="10" x="1620.4287" y="463.2188"/></g><g><title>Cobertura. objCobertura</title><rect fill="#FFFFFF" height="29.1328" style="stroke:#181818;stroke-width:1;" width="10" x="1620.4287" y="523.6484"/></g><g><title>Cobertura. objCobertura</title><rect fill="#FFFFFF" height="29.1328" style="stroke:#181818;stroke-width:1;" width="10" x="1620.4287" y="640.1797"/></g><g><title>Interfaz. ServicioObrasSociales</title><rect fill="#FFFFFF" height="29.1328" style="stroke:#181818;stroke-width:1;" width="10" x="1838.6855" y="365.8203"/></g><g><title>Interfaz. ServicioObrasSociales</title><rect fill="#FFFFFF" height="29.1328" style="stroke:#181818;stroke-width:1;" width="10" x="1838.6855" y="581.9141"/></g><g><title>Interfaz. ServicioObrasSociales</title><rect fill="#FFFFFF" height="29.1328" style="stroke:#181818;stroke-width:1;" width="10" x="1838.6855" y="897.375"/></g><rect fill="none" height="352.3984" style="stroke:#000000;stroke-width:1.5;" width="1959.394" x="10" y="684.3125"/><g><title>Empleado</title><rect fill="#000000" fill-opacity="0.00000" height="964.25" width="8" x="53.9521" y="118.5938"/><line style="stroke:#181818;stroke-width:0.5;stroke-dasharray:5,5;" x1="57" x2="57" y1="118.5938" y2="1082.8438"/></g><g><title>Interfaz. NegocioControlador</title><rect fill="#000000" fill-opacity="0.00000" height="964.25" width="8" x="530.7285" y="118.5938"/><line style="stroke:#181818;stroke-width:0.5;stroke-dasharray:5,5;" x1="534.5908" x2="534.5908" y1="118.5938" y2="1082.8438"/></g><g><title>Cliente. objCliente</title><rect fill="#000000" fill-opacity="0.00000" height="964.25" width="8" x="720.2642" y="118.5938"/><line style="stroke:#181818;stroke-width:0.5;stroke-dasharray:5,5;" x1="723.8662" x2="723.8662" y1="118.5938" y2="1082.8438"/></g><g><title>Venta. objVenta</title><rect fill="#000000" fill-opacity="0.00000" height="964.25" width="8" x="865.0483" y="118.5938"/><line style="stroke:#181818;stroke-width:0.5;stroke-dasharray:5,5;" x1="868.6621" x2="868.6621" y1="118.5938" y2="1082.8438"/></g><g><title>Receta. objReceta</title><rect fill="#000000" fill-opacity="0.00000" height="894.4688" width="8" x="1447.9063" y="188.375"/><line style="stroke:#181818;stroke-width:0.5;stroke-dasharray:5,5;" x1="1450.9321" x2="1450.9321" y1="188.375" y2="1082.8438"/></g><g><title>Cobertura. objCobertura</title><rect fill="#000000" fill-opacity="0.00000" height="620.1094" width="8" x="1621.4287" y="462.7344"/><line style="stroke:#181818;stroke-width:0.5;stroke-dasharray:5,5;" x1="1624.8804" x2="1624.8804" y1="462.7344" y2="1082.8438"/></g><g><title>Interfaz. ServicioObrasSociales</title><rect fill="#000000" fill-opacity="0.00000" height="964.25" width="8" x="1839.6855" y="118.5938"/><line style="stroke:#181818;stroke-width:0.5;stroke-dasharray:5,5;" x1="1842.9771" x2="1842.9771" y1="118.5938" y2="1082.8438"/></g><g class="participant participant-head" data-participant="emp"><text fill="#000000" font-family="sans-serif" font-size="14" lengthAdjust="spacing" textLength="69.9043" x="20" y="115.292">Empleado</text><ellipse cx="57.9521" cy="50.7969" fill="#E2E2F0" rx="8" ry="8" style="stroke:#181818;stroke-width:0.5;"/><path d="M57.9521,58.7969 L57.9521,85.7969 M44.9521,66.7969 L70.9521,66.7969 M57.9521,85.7969 L44.9521,100.7969 M57.9521,85.7969 L70.9521,100.7969" fill="none" style="stroke:#181818;stroke-width:0.5;"/></g><g class="participant participant-head" data-participant="NegCtrl"><rect fill="#E2E2F0" height="30.2969" rx="2.5" ry="2.5" style="stroke:#181818;stroke-width:0.5;" width="216.2754" x="426.5908" y="87.2969"/><text fill="#000000" font-family="sans-serif" font-size="14" lengthAdjust="spacing" textLength="202.2754" x="433.5908" y="107.292">Interfaz: NegocioControlador</text></g><g class="participant participant-head" data-participant="cli"><rect fill="#E2E2F0" height="30.2969" rx="2.5" ry="2.5" style="stroke:#181818;stroke-width:0.5;" width="142.7959" x="652.8662" y="87.2969"/><text fill="#000000" font-family="sans-serif" font-size="14" lengthAdjust="spacing" textLength="128.7959" x="659.8662" y="107.292">Cliente: objCliente</text></g><g class="participant participant-head" data-participant="venta"><rect fill="#E2E2F0" height="30.2969" rx="2.5" ry="2.5" style="stroke:#181818;stroke-width:0.5;" width="126.7725" x="805.6621" y="87.2969"/><text fill="#000000" font-family="sans-serif" font-size="14" lengthAdjust="spacing" textLength="112.7725" x="812.6621" y="107.292">Venta: objVenta</text></g><g class="participant participant-head" data-participant="srvOS"><rect fill="#E2E2F0" height="30.2969" rx="2.5" ry="2.5" style="stroke:#181818;stroke-width:0.5;" width="231.417" x="1727.9771" y="87.2969"/><text fill="#000000" font-family="sans-serif" font-size="14" lengthAdjust="spacing" textLength="217.417" x="1734.9771" y="107.292">Interfaz: ServicioObrasSociales</text></g><g><title>Interfaz. NegocioControlador</title><rect fill="#FFFFFF" height="936.25" style="stroke:#181818;stroke-width:1;" width="10" x="529.7285" y="128.5938"/></g><g><title>Venta. objVenta</title><rect fill="#FFFFFF" height="29.1328" style="stroke:#181818;stroke-width:1;" width="10" x="864.0483" y="722.5781"/></g><g><title>Venta. objVenta</title><rect fill="#FFFFFF" height="29.1328" style="stroke:#181818;stroke-width:1;" width="10" x="864.0483" y="780.8438"/></g><g><title>Venta. objVenta</title><rect fill="#FFFFFF" height="29.1328" style="stroke:#181818;stroke-width:1;" width="10" x="864.0483" y="839.1094"/></g><g><title>Receta. objReceta</title><rect fill="#FFFFFF" height="31.2969" style="stroke:#181818;stroke-width:1;" width="10" x="1446.9063" y="188.8594"/></g><g><title>Receta. objReceta</title><rect fill="#FFFFFF" height="29.1328" style="stroke:#181818;stroke-width:1;" width="10" x="1446.9063" y="307.5547"/></g><g><title>Cobertura. objCobertura</title><rect fill="#FFFFFF" height="31.2969" style="stroke:#181818;stroke-width:1;" width="10" x="1620.4287" y="463.2188"/></g><g><title>Cobertura. objCobertura</title><rect fill="#FFFFFF" height="29.1328" style="stroke:#181818;stroke-width:1;" width="10" x="1620.4287" y="523.6484"/></g><g><title>Cobertura. objCobertura</title><rect fill="#FFFFFF" height="29.1328" style="stroke:#181818;stroke-width:1;" width="10" x="1620.4287" y="640.1797"/></g><g><title>Interfaz. ServicioObrasSociales</title><rect fill="#FFFFFF" height="29.1328" style="stroke:#181818;stroke-width:1;" width="10" x="1838.6855" y="365.8203"/></g><g><title>Interfaz. ServicioObrasSociales</title><rect fill="#FFFFFF" height="29.1328" style="stroke:#181818;stroke-width:1;" width="10" x="1838.6855" y="581.9141"/></g><g><title>Interfaz. ServicioObrasSociales</title><rect fill="#FFFFFF" height="29.1328" style="stroke:#181818;stroke-width:1;" width="10" x="1838.6855" y="897.375"/></g><g class="message" data-participant-1="emp" data-participant-2="NegCtrl"><polygon fill="#181818" points="517.7285,145.7266,527.7285,149.7266,517.7285,153.7266,521.7285,149.7266" style="stroke:#181818;stroke-width:1;"/><line style="stroke:#181818;stroke-width:1;" x1="57.9521" x2="523.7285" y1="149.7266" y2="149.7266"/><text fill="#000000" font-family="sans-serif" font-size="13" lengthAdjust="spacing" textLength="447.7764" x="64.9521" y="144.6606">ingresarDatosReceta(nroReceta: String, medico: String, fecha: Date)</text></g><g class="message" data-participant-1="NegCtrl" data-participant-2="receta"><polygon fill="#181818" points="1368.9321,174.8594,1378.9321,178.8594,1368.9321,182.8594,1372.9321,178.8594" style="stroke:#181818;stroke-width:1;"/><line style="stroke:#181818;stroke-width:1;" x1="539.7285" x2="1374.9321" y1="178.8594" y2="178.8594"/><text fill="#000000" font-family="sans-serif" font-size="13" lengthAdjust="spacing" textLength="817.2036" x="546.7285" y="173.7935">create(nroReceta : int, fechaPrescripcion : DateTime, fechaValidez : DateTime, tipoReceta : string, obraSocialNombre: string)</text></g><rect fill="#E2E2F0" height="30.2969" rx="2.5" ry="2.5" style="stroke:#181818;stroke-width:0.5;" width="141.9482" x="1380.9321" y="157.7266"/><text fill="#000000" font-family="sans-serif" font-size="14" lengthAdjust="spacing" textLength="127.9482" x="1387.9321" y="177.7217">Receta: objReceta</text><g class="message" data-participant-1="receta" data-participant-2="NegCtrl"><polygon fill="#181818" points="550.7285,216.1563,540.7285,220.1563,550.7285,224.1563,546.7285,220.1563" style="stroke:#181818;stroke-width:1;"/><line style="stroke:#181818;stroke-width:1;stroke-dasharray:2,2;" x1="544.7285" x2="1450.9063" y1="220.1563" y2="220.1563"/><text fill="#000000" font-family="sans-serif" font-size="13" lengthAdjust="spacing" textLength="80.9644" x="556.7285" y="215.0903">&#171;objReceta&#187;</text></g><g class="message" data-participant-1="NegCtrl" data-participant-2="venta"><polygon fill="#181818" points="857.0483,245.2891,867.0483,249.2891,857.0483,253.2891,861.0483,249.2891" style="stroke:#181818;stroke-width:1;"/><line style="stroke:#181818;stroke-width:1;" x1="539.7285" x2="863.0483" y1="249.2891" y2="249.2891"/><text fill="#000000" font-family="sans-serif" font-size="13" lengthAdjust="spacing" textLength="162.1953" x="546.7285" y="244.2231">setTipoVta("ConReceta")</text></g><g class="message" data-participant-1="NegCtrl" data-participant-2="venta"><polygon fill="#181818" points="857.0483,274.4219,867.0483,278.4219,857.0483,282.4219,861.0483,278.4219" style="stroke:#181818;stroke-width:1;"/><line style="stroke:#181818;stroke-width:1;" x1="539.7285" x2="863.0483" y1="278.4219" y2="278.4219"/><text fill="#000000" font-family="sans-serif" font-size="13" lengthAdjust="spacing" textLength="196.6694" x="546.7285" y="273.356">setFechaVta(DateTime.Now())</text></g><g class="message" data-participant-1="NegCtrl" data-participant-2="receta"><polygon fill="#181818" points="1434.9063,303.5547,1444.9063,307.5547,1434.9063,311.5547,1438.9063,307.5547" style="stroke:#181818;stroke-width:1;"/><line style="stroke:#181818;stroke-width:1;" x1="539.7285" x2="1440.9063" y1="307.5547" y2="307.5547"/><text fill="#000000" font-family="sans-serif" font-size="13" lengthAdjust="spacing" textLength="249.939" x="546.7285" y="302.4888">setDetalles(nroReceta, medico, fecha)</text></g><g class="message" data-participant-1="receta" data-participant-2="NegCtrl"><polygon fill="#181818" points="550.7285,332.6875,540.7285,336.6875,550.7285,340.6875,546.7285,336.6875" style="stroke:#181818;stroke-width:1;"/><line style="stroke:#181818;stroke-width:1;stroke-dasharray:2,2;" x1="544.7285" x2="1450.9063" y1="336.6875" y2="336.6875"/><text fill="#000000" font-family="sans-serif" font-size="13" lengthAdjust="spacing" textLength="49.6323" x="556.7285" y="331.6216">&#171;NULL&#187;</text></g><g class="message" data-participant-1="NegCtrl" data-participant-2="srvOS"><polygon fill="#181818" points="1826.6855,361.8203,1836.6855,365.8203,1826.6855,369.8203,1830.6855,365.8203" style="stroke:#181818;stroke-width:1;"/><line style="stroke:#181818;stroke-width:1;" x1="539.7285" x2="1832.6855" y1="365.8203" y2="365.8203"/><text fill="#000000" font-family="sans-serif" font-size="13" lengthAdjust="spacing" textLength="247.7871" x="546.7285" y="360.7544">verificarRecetaElectronica(nroReceta)</text></g><g class="message" data-participant-1="srvOS" data-participant-2="NegCtrl"><polygon fill="#181818" points="550.7285,390.9531,540.7285,394.9531,550.7285,398.9531,546.7285,394.9531" style="stroke:#181818;stroke-width:1;"/><line style="stroke:#181818;stroke-width:1;stroke-dasharray:2,2;" x1="544.7285" x2="1842.6855" y1="394.9531" y2="394.9531"/><text fill="#000000" font-family="sans-serif" font-size="13" lengthAdjust="spacing" textLength="136.2651" x="556.7285" y="389.8872">&#171;esValida : Boolean&#187;</text></g><g class="message" data-participant-1="emp" data-participant-2="NegCtrl"><polygon fill="#181818" points="517.7285,420.0859,527.7285,424.0859,517.7285,428.0859,521.7285,424.0859" style="stroke:#181818;stroke-width:1;"/><line style="stroke:#181818;stroke-width:1;" x1="57.9521" x2="523.7285" y1="424.0859" y2="424.0859"/><text fill="#000000" font-family="sans-serif" font-size="13" lengthAdjust="spacing" textLength="402.1367" x="64.9521" y="419.02">cargarDatosObraSocial(nombreOS: String, nroAfiliado: String)</text></g><g class="message" data-participant-1="NegCtrl" data-participant-2="cob"><polygon fill="#181818" points="1520.8804,449.2188,1530.8804,453.2188,1520.8804,457.2188,1524.8804,453.2188" style="stroke:#181818;stroke-width:1;"/><line style="stroke:#181818;stroke-width:1;" x1="539.7285" x2="1526.8804" y1="453.2188" y2="453.2188"/><text fill="#000000" font-family="sans-serif" font-size="13" lengthAdjust="spacing" textLength="333.6582" x="546.7285" y="448.1528">create(numAfiliado : int, descuentoPorcentaje : int)</text></g><rect fill="#E2E2F0" height="30.2969" rx="2.5" ry="2.5" style="stroke:#181818;stroke-width:0.5;" width="185.0967" x="1532.8804" y="432.0859"/><text fill="#000000" font-family="sans-serif" font-size="14" lengthAdjust="spacing" textLength="171.0967" x="1539.8804" y="452.0811">Cobertura: objCobertura</text><g class="message" data-participant-1="cob" data-participant-2="NegCtrl"><polygon fill="#181818" points="550.7285,490.5156,540.7285,494.5156,550.7285,498.5156,546.7285,494.5156" style="stroke:#181818;stroke-width:1;"/><line style="stroke:#181818;stroke-width:1;stroke-dasharray:2,2;" x1="544.7285" x2="1624.4287" y1="494.5156" y2="494.5156"/><text fill="#000000" font-family="sans-serif" font-size="13" lengthAdjust="spacing" textLength="100.9976" x="556.7285" y="489.4497">&#171;objCobertura&#187;</text></g><g class="message" data-participant-1="NegCtrl" data-participant-2="cob"><polygon fill="#181818" points="1608.4287,519.6484,1618.4287,523.6484,1608.4287,527.6484,1612.4287,523.6484" style="stroke:#181818;stroke-width:1;"/><line style="stroke:#181818;stroke-width:1;" x1="539.7285" x2="1614.4287" y1="523.6484" y2="523.6484"/><text fill="#000000" font-family="sans-serif" font-size="13" lengthAdjust="spacing" textLength="137.8267" x="546.7285" y="518.5825">setDatos(nroAfiliado)</text></g><g class="message" data-participant-1="cob" data-participant-2="NegCtrl"><polygon fill="#181818" points="550.7285,548.7813,540.7285,552.7813,550.7285,556.7813,546.7285,552.7813" style="stroke:#181818;stroke-width:1;"/><line style="stroke:#181818;stroke-width:1;stroke-dasharray:2,2;" x1="544.7285" x2="1624.4287" y1="552.7813" y2="552.7813"/><text fill="#000000" font-family="sans-serif" font-size="13" lengthAdjust="spacing" textLength="49.6323" x="556.7285" y="547.7153">&#171;NULL&#187;</text></g><g class="message" data-participant-1="NegCtrl" data-participant-2="srvOS"><polygon fill="#181818" points="1826.6855,577.9141,1836.6855,581.9141,1826.6855,585.9141,1830.6855,581.9141" style="stroke:#181818;stroke-width:1;"/><line style="stroke:#181818;stroke-width:1;" x1="539.7285" x2="1832.6855" y1="581.9141" y2="581.9141"/><text fill="#000000" font-family="sans-serif" font-size="13" lengthAdjust="spacing" textLength="261.0283" x="546.7285" y="576.8481">validarAfiliacion(nombreOS, nroAfiliado)</text></g><g class="message" data-participant-1="srvOS" data-participant-2="NegCtrl"><polygon fill="#181818" points="550.7285,607.0469,540.7285,611.0469,550.7285,615.0469,546.7285,611.0469" style="stroke:#181818;stroke-width:1;"/><line style="stroke:#181818;stroke-width:1;stroke-dasharray:2,2;" x1="544.7285" x2="1842.6855" y1="611.0469" y2="611.0469"/><text fill="#000000" font-family="sans-serif" font-size="13" lengthAdjust="spacing" textLength="130.2666" x="556.7285" y="605.981">&#171;porcentaje : Float&#187;</text></g><g class="message" data-participant-1="NegCtrl" data-participant-2="cob"><polygon fill="#181818" points="1608.4287,636.1797,1618.4287,640.1797,1608.4287,644.1797,1612.4287,640.1797" style="stroke:#181818;stroke-width:1;"/><line style="stroke:#181818;stroke-width:1;" x1="539.7285" x2="1614.4287" y1="640.1797" y2="640.1797"/><text fill="#000000" font-family="sans-serif" font-size="13" lengthAdjust="spacing" textLength="238.272" x="546.7285" y="635.1138">setDescuentoPorcentaje(porcentaje)</text></g><g class="message" data-participant-1="cob" data-participant-2="NegCtrl"><polygon fill="#181818" points="550.7285,665.3125,540.7285,669.3125,550.7285,673.3125,546.7285,669.3125" style="stroke:#181818;stroke-width:1;"/><line style="stroke:#181818;stroke-width:1;stroke-dasharray:2,2;" x1="544.7285" x2="1624.4287" y1="669.3125" y2="669.3125"/><text fill="#000000" font-family="sans-serif" font-size="13" lengthAdjust="spacing" textLength="49.6323" x="556.7285" y="664.2466">&#171;NULL&#187;</text></g><path d="M10,684.3125 L74.4429,684.3125 L74.4429,691.4453 L64.4429,701.4453 L10,701.4453 L10,684.3125" fill="#EEEEEE" style="stroke:#000000;stroke-width:1.5;"/><rect fill="none" height="352.3984" style="stroke:#000000;stroke-width:1.5;" width="1959.394" x="10" y="684.3125"/><text fill="#000000" font-family="sans-serif" font-size="13" font-weight="bold" lengthAdjust="spacing" textLength="19.4429" x="25" y="697.3794">alt</text><text fill="#000000" font-family="sans-serif" font-size="11" font-weight="bold" lengthAdjust="spacing" textLength="240.5229" x="89.4429" y="696.5229">[esValida == true AND porcentaje &gt; 0]</text><g class="message" data-participant-1="NegCtrl" data-participant-2="venta"><polygon fill="#181818" points="852.0483,718.5781,862.0483,722.5781,852.0483,726.5781,856.0483,722.5781" style="stroke:#181818;stroke-width:1;"/><line style="stroke:#181818;stroke-width:1;" x1="539.7285" x2="858.0483" y1="722.5781" y2="722.5781"/><text fill="#000000" font-family="sans-serif" font-size="13" lengthAdjust="spacing" textLength="140.3086" x="546.7285" y="717.5122">setReceta(objReceta)</text></g><g class="message" data-participant-1="venta" data-participant-2="NegCtrl"><polygon fill="#181818" points="550.7285,747.7109,540.7285,751.7109,550.7285,755.7109,546.7285,751.7109" style="stroke:#181818;stroke-width:1;"/><line style="stroke:#181818;stroke-width:1;stroke-dasharray:2,2;" x1="544.7285" x2="868.0483" y1="751.7109" y2="751.7109"/><text fill="#000000" font-family="sans-serif" font-size="13" lengthAdjust="spacing" textLength="49.6323" x="556.7285" y="746.645">&#171;NULL&#187;</text></g><g class="message" data-participant-1="NegCtrl" data-participant-2="venta"><polygon fill="#181818" points="852.0483,776.8438,862.0483,780.8438,852.0483,784.8438,856.0483,780.8438" style="stroke:#181818;stroke-width:1;"/><line style="stroke:#181818;stroke-width:1;" x1="539.7285" x2="858.0483" y1="780.8438" y2="780.8438"/><text fill="#000000" font-family="sans-serif" font-size="13" lengthAdjust="spacing" textLength="180.375" x="546.7285" y="775.7778">setCobertura(objCobertura)</text></g><g class="message" data-participant-1="venta" data-participant-2="NegCtrl"><polygon fill="#181818" points="550.7285,805.9766,540.7285,809.9766,550.7285,813.9766,546.7285,809.9766" style="stroke:#181818;stroke-width:1;"/><line style="stroke:#181818;stroke-width:1;stroke-dasharray:2,2;" x1="544.7285" x2="868.0483" y1="809.9766" y2="809.9766"/><text fill="#000000" font-family="sans-serif" font-size="13" lengthAdjust="spacing" textLength="49.6323" x="556.7285" y="804.9106">&#171;NULL&#187;</text></g><g class="message" data-participant-1="NegCtrl" data-participant-2="venta"><polygon fill="#181818" points="852.0483,835.1094,862.0483,839.1094,852.0483,843.1094,856.0483,839.1094" style="stroke:#181818;stroke-width:1;"/><line style="stroke:#181818;stroke-width:1;" x1="539.7285" x2="858.0483" y1="839.1094" y2="839.1094"/><text fill="#000000" font-family="sans-serif" font-size="13" lengthAdjust="spacing" textLength="76.4702" x="546.7285" y="834.0435">getNroVta()</text></g><g class="message" data-participant-1="venta" data-participant-2="NegCtrl"><polygon fill="#181818" points="550.7285,864.2422,540.7285,868.2422,550.7285,872.2422,546.7285,868.2422" style="stroke:#181818;stroke-width:1;"/><line style="stroke:#181818;stroke-width:1;stroke-dasharray:2,2;" x1="544.7285" x2="868.0483" y1="868.2422" y2="868.2422"/><text fill="#000000" font-family="sans-serif" font-size="13" lengthAdjust="spacing" textLength="89.2163" x="556.7285" y="863.1763">&#171;nroVta : Int&#187;</text></g><g class="message" data-participant-1="NegCtrl" data-participant-2="srvOS"><polygon fill="#181818" points="1826.6855,893.375,1836.6855,897.375,1826.6855,901.375,1830.6855,897.375" style="stroke:#181818;stroke-width:1;"/><line style="stroke:#181818;stroke-width:1;" x1="539.7285" x2="1832.6855" y1="897.375" y2="897.375"/><text fill="#000000" font-family="sans-serif" font-size="13" lengthAdjust="spacing" textLength="284.2988" x="546.7285" y="892.3091">registrarRecetaEnVenta(nroReceta, nroVta)</text></g><g class="message" data-participant-1="srvOS" data-participant-2="NegCtrl"><polygon fill="#181818" points="550.7285,922.5078,540.7285,926.5078,550.7285,930.5078,546.7285,926.5078" style="stroke:#181818;stroke-width:1;"/><line style="stroke:#181818;stroke-width:1;stroke-dasharray:2,2;" x1="544.7285" x2="1842.6855" y1="926.5078" y2="926.5078"/><text fill="#000000" font-family="sans-serif" font-size="13" lengthAdjust="spacing" textLength="49.6323" x="556.7285" y="921.4419">&#171;NULL&#187;</text></g><g class="message" data-participant-1="NegCtrl" data-participant-2="emp"><polygon fill="#181818" points="68.9521,951.6406,58.9521,955.6406,68.9521,959.6406,64.9521,955.6406" style="stroke:#181818;stroke-width:1;"/><line style="stroke:#181818;stroke-width:1;stroke-dasharray:2,2;" x1="62.9521" x2="528.7285" y1="955.6406" y2="955.6406"/><text fill="#000000" font-family="sans-serif" font-size="13" lengthAdjust="spacing" textLength="49.6323" x="74.9521" y="950.5747">&#171;NULL&#187;</text></g><line style="stroke:#000000;stroke-width:1;stroke-dasharray:2,2;" x1="10" x2="1969.394" y1="964.6406" y2="964.6406"/><text fill="#000000" font-family="sans-serif" font-size="11" font-weight="bold" lengthAdjust="spacing" textLength="105.8374" x="15" y="974.8511">[Datos Inv&#225;lidos]</text><g class="message" data-participant-1="NegCtrl" data-participant-2="venta"><polygon fill="#181818" points="857.0483,995.5781,867.0483,999.5781,857.0483,1003.5781,861.0483,999.5781" style="stroke:#181818;stroke-width:1;"/><line style="stroke:#181818;stroke-width:1;" x1="539.7285" x2="863.0483" y1="999.5781" y2="999.5781"/><text fill="#000000" font-family="sans-serif" font-size="13" lengthAdjust="spacing" textLength="166.2515" x="546.7285" y="994.5122">setEstado("CANCELADA")</text></g><g class="message" data-participant-1="NegCtrl" data-participant-2="emp"><polygon fill="#181818" points="68.9521,1024.7109,58.9521,1028.7109,68.9521,1032.7109,64.9521,1028.7109" style="stroke:#181818;stroke-width:1;"/><line style="stroke:#181818;stroke-width:1;stroke-dasharray:2,2;" x1="62.9521" x2="528.7285" y1="1028.7109" y2="1028.7109"/><text fill="#000000" font-family="sans-serif" font-size="13" lengthAdjust="spacing" textLength="49.6323" x="74.9521" y="1023.645">&#171;NULL&#187;</text></g><g class="message" data-participant-1="NegCtrl" data-participant-2="emp"><polygon fill="#181818" points="68.9521,1060.8438,58.9521,1064.8438,68.9521,1068.8438,64.9521,1064.8438" style="stroke:#181818;stroke-width:1;"/><line style="stroke:#181818;stroke-width:1;stroke-dasharray:2,2;" x1="62.9521" x2="533.7285" y1="1064.8438" y2="1064.8438"/><text fill="#000000" font-family="sans-serif" font-size="13" lengthAdjust="spacing" textLength="49.6323" x="74.9521" y="1059.7778">&#171;NULL&#187;</text></g><!--SRC=[jLNRRXen47tdAooUsAYf-XmbI1I8L0ajKKbvDyj077djrQoXLVwctz8VwtYyTnPIgfO7vBNdSixC6Tiffq6imJWffjQ8hv20auF1Yzg2s5dhDlR7O20JPr4CvsccGMxjKCXSG9eDCebE9IgJnedX5-C0T_BjJiImjuco5C-XrUI0x47RKuUwxJNLYfB3dR2RrsBDnebMRKF6o6QyOgEZNxND0W6s2qisn42hdTbk0Dq1Wt7r5RBRpJboAy0ZRTlb1cM-8fvIGyvEEHwNAowMEae75T-1e1-LIzoEoprn9vJP8-GIPzBPF40T6RGb_fL3ilWWKjYgnDRVEqXUw9Yy8EB0_5U6fGo1ghYveHm90jdLOJcjAu8yKVe4LKPSZ0WHdrKAnUbQQfB0M-l0gQmEb1U0BDKXb26swGQXF0degc8K7V1x1SBRLZdkx-kMYV6O3RVGvzubp2BmWC0z4y0rrP5wQuhkHnVC7vaesPSKFyRs-oYApfIKVMQqqjJnkgXbZuh2NSqx_hPOd2NSXS8Q8xSZeDgfH6B0CDUGqAmPsgc1TP04UVgj4EIa_f1pqptHpzRIf9kUHXGYxvKqmTaNWbvMgXWPbiLoLMkO44vsIYkw6ShDVYtJ6BQ5V4XBnrBAMnBnWLfgdomclhMl48uwxFr4-mqViazvrVptSFQ-VT2283pTKOFI5OdxMz-NhkexTmX3BZ-vLNbRPRsszLcpU8_QIdUvzRs5EEt4g8xxxweYjQkb-l0W71v0JE9PayHOV6BRyxDVtBZLdHDLzbN6yBgKsy7t0jOEtk3z3efATQEc1FyJblBW4gOzk1Zv3lrB45w5Qmv5JwQujZIbp17sYfwHwdep_EOtxzoGfWTahVNpUZzVgOR6Mz0eWB_kEiwWSn1y0H3Ruw-V94cRlzFoUUveGEc9ciJJ-M8ocmoZFqvdjftnExLhS2ciVWC0]--></g></svg>