<svg xmlns="http://www.w3.org/2000/svg" xmlns:xlink="http://www.w3.org/1999/xlink" contentStyleType="text/css" data-diagram-type="SEQUENCE" height="1648px" preserveAspectRatio="none" style="width:1980px;height:1648px;background:#FFFFFF;" version="1.1" viewBox="0 0 1980 1648" width="1980px" zoomAndPan="magnify"><title>Venta Sin Receta</title><defs/><g><text fill="#000000" font-family="sans-serif" font-size="14" font-weight="bold" lengthAdjust="spacing" textLength="135.2422" x="921.6907" y="27.9951">Venta Sin Receta</text><g><title>emp.Empleado</title><rect fill="#000000" fill-opacity="0.00000" height="1522.9141" width="8" x="57.3794" y="118.5938"/><line style="stroke:#181818;stroke-width:0.5;stroke-dasharray:5,5;" x1="60.8794" x2="60.8794" y1="118.5938" y2="1641.5078"/></g><g><title>cv.ControladorVentas</title><rect fill="#000000" fill-opacity="0.00000" height="1522.9141" width="8" x="450.1572" y="118.5938"/><line style="stroke:#181818;stroke-width:0.5;stroke-dasharray:5,5;" x1="453.6572" x2="453.6572" y1="118.5938" y2="1641.5078"/></g><g><title/><rect fill="#FFFFFF" height="340.1641" style="stroke:#181818;stroke-width:1;" width="10" x="448.6572" y="147.7266"/></g><g><title/><rect fill="#FFFFFF" height="485.8281" style="stroke:#181818;stroke-width:1;" width="10" x="448.6572" y="504.0234"/></g><g><title/><rect fill="#FFFFFF" height="294.1953" style="stroke:#181818;stroke-width:1;" width="10" x="448.6572" y="1005.9844"/></g><g><title/><rect fill="#FFFFFF" height="294.1953" style="stroke:#181818;stroke-width:1;" width="10" x="448.6572" y="1329.3125"/></g><g><title>cc...Singleton..</title><rect fill="#000000" fill-opacity="0.00000" height="1522.9141" width="8" x="715.9355" y="118.5938"/><line style="stroke:#181818;stroke-width:0.5;stroke-dasharray:5,5;" x1="719.4355" x2="719.4355" y1="118.5938" y2="1641.5078"/></g><g><title/><rect fill="#FFFFFF" height="132.5313" style="stroke:#181818;stroke-width:1;" width="10" x="714.4355" y="176.8594"/></g><g><title>listaC.i..Cliente</title><rect fill="#000000" fill-opacity="0.00000" height="1522.9141" width="8" x="884.1377" y="118.5938"/><line style="stroke:#181818;stroke-width:0.5;stroke-dasharray:5,5;" x1="887.6377" x2="887.6377" y1="118.5938" y2="1641.5078"/></g><g><title/><rect fill="#FFFFFF" height="29.1328" style="stroke:#181818;stroke-width:1;" width="10" x="882.6377" y="237.125"/></g><g><title>cli.Cliente</title><rect fill="#000000" fill-opacity="0.00000" height="1522.9141" width="8" x="996.6016" y="118.5938"/><line style="stroke:#181818;stroke-width:0.5;stroke-dasharray:5,5;" x1="1000.1016" x2="1000.1016" y1="118.5938" y2="1641.5078"/></g><g><title>vta.Venta</title><rect fill="#000000" fill-opacity="0.00000" height="1233.0469" width="8" x="1089.3711" y="408.4609"/><line style="stroke:#181818;stroke-width:0.5;stroke-dasharray:5,5;" x1="1092.8711" x2="1092.8711" y1="408.4609" y2="1641.5078"/></g><g><title/><rect fill="#FFFFFF" height="31.2969" style="stroke:#181818;stroke-width:1;" width="10" x="1087.8711" y="429.5938"/></g><g><title/><rect fill="#FFFFFF" height="147.8281" style="stroke:#181818;stroke-width:1;" width="10" x="1087.8711" y="785.8906"/></g><g><title/><rect fill="#FFFFFF" height="235.9297" style="stroke:#181818;stroke-width:1;" width="10" x="1087.8711" y="1035.1172"/></g><g><title/><rect fill="#FFFFFF" height="235.9297" style="stroke:#181818;stroke-width:1;" width="10" x="1087.8711" y="1358.4453"/></g><g><title>cm...Singleton..</title><rect fill="#000000" fill-opacity="0.00000" height="1522.9141" width="8" x="1229.7461" y="118.5938"/><line style="stroke:#181818;stroke-width:0.5;stroke-dasharray:5,5;" x1="1233.2461" x2="1233.2461" y1="118.5938" y2="1641.5078"/></g><g><title/><rect fill="#FFFFFF" height="132.5313" style="stroke:#181818;stroke-width:1;" width="10" x="1228.2461" y="533.1563"/></g><g><title>listaM.j..Medicamento</title><rect fill="#000000" fill-opacity="0.00000" height="1522.9141" width="8" x="1413.8574" y="118.5938"/><line style="stroke:#181818;stroke-width:0.5;stroke-dasharray:5,5;" x1="1417.3574" x2="1417.3574" y1="118.5938" y2="1641.5078"/></g><g><title/><rect fill="#FFFFFF" height="29.1328" style="stroke:#181818;stroke-width:1;" width="10" x="1412.3574" y="593.4219"/></g><g><title>med.Medicamento</title><rect fill="#000000" fill-opacity="0.00000" height="1522.9141" width="8" x="1581.084" y="118.5938"/><line style="stroke:#181818;stroke-width:0.5;stroke-dasharray:5,5;" x1="1584.584" x2="1584.584" y1="118.5938" y2="1641.5078"/></g><g><title>det.DetalleVenta</title><rect fill="#000000" fill-opacity="0.00000" height="847.6172" width="8" x="1729.8193" y="793.8906"/><line style="stroke:#181818;stroke-width:0.5;stroke-dasharray:5,5;" x1="1733.3193" x2="1733.3193" y1="793.8906" y2="1641.5078"/></g><g><title/><rect fill="#FFFFFF" height="31.2969" style="stroke:#181818;stroke-width:1;" width="10" x="1728.3193" y="815.0234"/></g><g><title>.multiobjeto.</title><rect fill="#000000" fill-opacity="0.00000" height="1522.9141" width="8" x="1888.6445" y="118.5938"/><line style="stroke:#181818;stroke-width:0.5;stroke-dasharray:5,5;" x1="1892.1445" x2="1892.1445" y1="118.5938" y2="1641.5078"/></g><g><title/><rect fill="#FFFFFF" height="29.1328" style="stroke:#181818;stroke-width:1;" width="10" x="1887.1445" y="875.4531"/></g><g><title/><rect fill="#FFFFFF" height="29.1328" style="stroke:#181818;stroke-width:1;" width="10" x="1887.1445" y="1095.3828"/></g><g><title/><rect fill="#FFFFFF" height="29.1328" style="stroke:#181818;stroke-width:1;" width="10" x="1887.1445" y="1184.7813"/></g><g><title/><rect fill="#FFFFFF" height="29.1328" style="stroke:#181818;stroke-width:1;" width="10" x="1887.1445" y="1418.7109"/></g><g><title/><rect fill="#FFFFFF" height="29.1328" style="stroke:#181818;stroke-width:1;" width="10" x="1887.1445" y="1508.1094"/></g><text fill="#000000" font-family="sans-serif" font-size="14" lengthAdjust="spacing" textLength="105.7588" x="5" y="115.292">emp:Empleado</text><ellipse cx="60.8794" cy="50.7969" fill="#E2E2F0" rx="8" ry="8" style="stroke:#181818;stroke-width:0.5;"/><path d="M60.8794,58.7969 L60.8794,85.7969 M47.8794,66.7969 L73.8794,66.7969 M60.8794,85.7969 L47.8794,100.7969 M60.8794,85.7969 L73.8794,100.7969" fill="none" style="stroke:#181818;stroke-width:0.5;"/><rect fill="#E2E2F0" height="30.2969" rx="2.5" ry="2.5" style="stroke:#181818;stroke-width:0.5;" width="165.8262" x="370.7441" y="87.2969"/><text fill="#000000" font-family="sans-serif" font-size="14" lengthAdjust="spacing" textLength="151.8262" x="377.7441" y="107.292">cv:ControladorVentas</text><rect fill="#E2E2F0" height="46.5938" rx="2.5" ry="2.5" style="stroke:#181818;stroke-width:0.5;" width="132.7676" x="653.0518" y="71"/><text fill="#000000" font-family="sans-serif" font-size="14" lengthAdjust="spacing" textLength="103.209" x="667.8311" y="90.9951">cc:&#171;Singleton&#187;</text><text fill="#000000" font-family="sans-serif" font-size="14" lengthAdjust="spacing" textLength="118.7676" x="660.0518" y="107.292">CatalogoClientes</text><rect fill="#E2E2F0" height="30.2969" rx="2.5" ry="2.5" style="stroke:#181818;stroke-width:0.5;" width="121.5908" x="826.8423" y="87.2969"/><text fill="#000000" font-family="sans-serif" font-size="14" lengthAdjust="spacing" textLength="107.5908" x="833.8423" y="107.292">listaC[i]:Cliente</text><rect fill="#E2E2F0" height="30.2969" rx="2.5" ry="2.5" style="stroke:#181818;stroke-width:0.5;" width="83.3369" x="958.4331" y="87.2969"/><text fill="#000000" font-family="sans-serif" font-size="14" lengthAdjust="spacing" textLength="69.3369" x="965.4331" y="107.292">cli:Cliente</text><rect fill="#E2E2F0" height="46.5938" rx="2.5" ry="2.5" style="stroke:#181818;stroke-width:0.5;" width="178.5479" x="1143.9722" y="71"/><text fill="#000000" font-family="sans-serif" font-size="14" lengthAdjust="spacing" textLength="109.1494" x="1178.6714" y="90.9951">cm:&#171;Singleton&#187;</text><text fill="#000000" font-family="sans-serif" font-size="14" lengthAdjust="spacing" textLength="164.5479" x="1150.9722" y="107.292">CatalogoMedicamentos</text><rect fill="#E2E2F0" height="30.2969" rx="2.5" ry="2.5" style="stroke:#181818;stroke-width:0.5;" width="169.6748" x="1332.52" y="87.2969"/><text fill="#000000" font-family="sans-serif" font-size="14" lengthAdjust="spacing" textLength="155.6748" x="1339.52" y="107.292">listaM[j]:Medicamento</text><rect fill="#E2E2F0" height="30.2969" rx="2.5" ry="2.5" style="stroke:#181818;stroke-width:0.5;" width="144.7783" x="1512.1948" y="87.2969"/><text fill="#000000" font-family="sans-serif" font-size="14" lengthAdjust="spacing" textLength="130.7783" x="1519.1948" y="107.292">med:Medicamento</text><rect fill="#E2E2F0" height="46.5938" rx="2.5" ry="2.5" style="stroke:#181818;stroke-width:0.5;" width="164.958" x="1809.6655" y="71"/><text fill="#000000" font-family="sans-serif" font-size="14" lengthAdjust="spacing" textLength="96.9199" x="1843.6846" y="90.9951">&#171;multiobjeto&#187;</text><text fill="#000000" font-family="sans-serif" font-size="14" lengthAdjust="spacing" textLength="150.958" x="1816.6655" y="107.292">detalles:DetalleVenta</text><polygon fill="#181818" points="436.6572,143.7266,446.6572,147.7266,436.6572,151.7266,440.6572,147.7266" style="stroke:#181818;stroke-width:1;"/><line style="stroke:#181818;stroke-width:1;" x1="60.8794" x2="442.6572" y1="147.7266" y2="147.7266"/><text fill="#000000" font-family="sans-serif" font-size="13" lengthAdjust="spacing" textLength="229.3726" x="67.8794" y="142.6606">iniciarNuevaVenta(dniCliente : INT)</text><polygon fill="#181818" points="702.4355,172.8594,712.4355,176.8594,702.4355,180.8594,706.4355,176.8594" style="stroke:#181818;stroke-width:1;"/><line style="stroke:#181818;stroke-width:1;" x1="458.6572" x2="708.4355" y1="176.8594" y2="176.8594"/><text fill="#000000" font-family="sans-serif" font-size="13" lengthAdjust="spacing" textLength="199.3799" x="465.6572" y="171.7935">buscarCliente(dniCliente : INT)</text><path d="M703.4355,188.8594 L780.0596,188.8594 L780.0596,195.9922 L770.0596,205.9922 L703.4355,205.9922 L703.4355,188.8594" fill="#EEEEEE" style="stroke:#000000;stroke-width:1.5;"/><rect fill="none" height="85.3984" style="stroke:#000000;stroke-width:1.5;" width="325.0942" x="703.4355" y="188.8594"/><text fill="#000000" font-family="sans-serif" font-size="13" font-weight="bold" lengthAdjust="spacing" textLength="31.624" x="718.4355" y="201.9263">loop</text><text fill="#000000" font-family="sans-serif" font-size="11" font-weight="bold" lengthAdjust="spacing" textLength="217.4702" x="795.0596" y="201.0698">[hasta dniGuardado == dniCliente]</text><polygon fill="#181818" points="870.6377,233.125,880.6377,237.125,870.6377,241.125,874.6377,237.125" style="stroke:#181818;stroke-width:1;"/><line style="stroke:#181818;stroke-width:1;" x1="724.4355" x2="876.6377" y1="237.125" y2="237.125"/><text fill="#000000" font-family="sans-serif" font-size="13" lengthAdjust="spacing" textLength="77.124" x="731.4355" y="232.0591">getCliente()</text><polygon fill="#181818" points="735.4355,262.2578,725.4355,266.2578,735.4355,270.2578,731.4355,266.2578" style="stroke:#181818;stroke-width:1;"/><line style="stroke:#181818;stroke-width:1;stroke-dasharray:2,2;" x1="729.4355" x2="881.6377" y1="266.2578" y2="266.2578"/><text fill="#000000" font-family="sans-serif" font-size="13" lengthAdjust="spacing" textLength="134.2021" x="741.4355" y="261.1919">&#171;dniGuardado : INT&#187;</text><polygon fill="#181818" points="469.6572,305.3906,459.6572,309.3906,469.6572,313.3906,465.6572,309.3906" style="stroke:#181818;stroke-width:1;"/><line style="stroke:#181818;stroke-width:1;stroke-dasharray:2,2;" x1="463.6572" x2="713.4355" y1="309.3906" y2="309.3906"/><text fill="#000000" font-family="sans-serif" font-size="13" lengthAdjust="spacing" textLength="231.7783" x="475.6572" y="304.3247">&#171;NULL O cli : Object Type : Cliente&#187;</text><path d="M44.8794,321.3906 L109.3223,321.3906 L109.3223,328.5234 L99.3223,338.5234 L44.8794,338.5234 L44.8794,321.3906" fill="#EEEEEE" style="stroke:#000000;stroke-width:1.5;"/><rect fill="none" height="147.5" style="stroke:#000000;stroke-width:1.5;" width="1068.9917" x="44.8794" y="321.3906"/><text fill="#000000" font-family="sans-serif" font-size="13" font-weight="bold" lengthAdjust="spacing" textLength="19.4429" x="59.8794" y="334.4575">alt</text><text fill="#000000" font-family="sans-serif" font-size="11" font-weight="bold" lengthAdjust="spacing" textLength="82.3657" x="124.3223" y="333.6011">[cli == NULL]</text><line style="stroke:#000000;stroke-width:1;stroke-dasharray:2,2;" x1="44.8794" x2="1113.8711" y1="388.6563" y2="388.6563"/><text fill="#000000" font-family="sans-serif" font-size="11" font-weight="bold" lengthAdjust="spacing" textLength="78.1655" x="49.8794" y="400.8667">[cli != NULL]</text><polygon fill="#181818" points="71.8794,365.6563,61.8794,369.6563,71.8794,373.6563,67.8794,369.6563" style="stroke:#181818;stroke-width:1;"/><line style="stroke:#181818;stroke-width:1;stroke-dasharray:2,2;" x1="65.8794" x2="447.6572" y1="369.6563" y2="369.6563"/><text fill="#000000" font-family="sans-serif" font-size="13" lengthAdjust="spacing" textLength="188.8618" x="77.8794" y="364.5903">&#171;"El cliente no se encontr&#243;"&#187;</text><rect fill="#E2E2F0" height="30.2969" rx="2.5" ry="2.5" style="stroke:#181818;stroke-width:0.5;" width="82.2021" x="1046.77" y="408.4609"/><text fill="#000000" font-family="sans-serif" font-size="14" lengthAdjust="spacing" textLength="68.2021" x="1053.77" y="428.4561">vta:Venta</text><polygon fill="#181818" points="1034.77,425.5938,1044.77,429.5938,1034.77,433.5938,1038.77,429.5938" style="stroke:#181818;stroke-width:1;"/><line style="stroke:#181818;stroke-width:1;" x1="458.6572" x2="1040.77" y1="429.5938" y2="429.5938"/><text fill="#000000" font-family="sans-serif" font-size="13" lengthAdjust="spacing" textLength="250.7832" x="465.6572" y="424.5278">CrearVenta(nroVta, cli, usuario, fecha)</text><polygon fill="#181818" points="469.6572,456.8906,459.6572,460.8906,469.6572,464.8906,465.6572,460.8906" style="stroke:#181818;stroke-width:1;"/><line style="stroke:#181818;stroke-width:1;stroke-dasharray:2,2;" x1="463.6572" x2="1086.8711" y1="460.8906" y2="460.8906"/><text fill="#000000" font-family="sans-serif" font-size="13" lengthAdjust="spacing" textLength="49.6323" x="475.6572" y="455.8247">&#171;NULL&#187;</text><polygon fill="#181818" points="436.6572,500.0234,446.6572,504.0234,436.6572,508.0234,440.6572,504.0234" style="stroke:#181818;stroke-width:1;"/><line style="stroke:#181818;stroke-width:1;" x1="60.8794" x2="442.6572" y1="504.0234" y2="504.0234"/><text fill="#000000" font-family="sans-serif" font-size="13" lengthAdjust="spacing" textLength="319.3823" x="67.8794" y="498.9575">escanearProducto(codBarra : INT, cantidad : INT)</text><polygon fill="#181818" points="1216.2461,529.1563,1226.2461,533.1563,1216.2461,537.1563,1220.2461,533.1563" style="stroke:#181818;stroke-width:1;"/><line style="stroke:#181818;stroke-width:1;" x1="458.6572" x2="1222.2461" y1="533.1563" y2="533.1563"/><text fill="#000000" font-family="sans-serif" font-size="13" lengthAdjust="spacing" textLength="235.0474" x="465.6572" y="528.0903">buscarMedicamento(codBarra : INT)</text><path d="M1217.2461,545.1563 L1293.8701,545.1563 L1293.8701,552.2891 L1283.8701,562.2891 L1217.2461,562.2891 L1217.2461,545.1563" fill="#EEEEEE" style="stroke:#000000;stroke-width:1.5;"/><rect fill="none" height="85.3984" style="stroke:#000000;stroke-width:1.5;" width="260.0664" x="1217.2461" y="545.1563"/><text fill="#000000" font-family="sans-serif" font-size="13" font-weight="bold" lengthAdjust="spacing" textLength="31.624" x="1232.2461" y="558.2231">loop</text><text fill="#000000" font-family="sans-serif" font-size="11" font-weight="bold" lengthAdjust="spacing" textLength="152.4424" x="1308.8701" y="557.3667">[hasta cod == codBarra]</text><polygon fill="#181818" points="1400.3574,589.4219,1410.3574,593.4219,1400.3574,597.4219,1404.3574,593.4219" style="stroke:#181818;stroke-width:1;"/><line style="stroke:#181818;stroke-width:1;" x1="1238.2461" x2="1406.3574" y1="593.4219" y2="593.4219"/><text fill="#000000" font-family="sans-serif" font-size="13" lengthAdjust="spacing" textLength="112.1313" x="1245.2461" y="588.356">getCodigoBarra()</text><polygon fill="#181818" points="1249.2461,618.5547,1239.2461,622.5547,1249.2461,626.5547,1245.2461,622.5547" style="stroke:#181818;stroke-width:1;"/><line style="stroke:#181818;stroke-width:1;stroke-dasharray:2,2;" x1="1243.2461" x2="1411.3574" y1="622.5547" y2="622.5547"/><text fill="#000000" font-family="sans-serif" font-size="13" lengthAdjust="spacing" textLength="73.4043" x="1255.2461" y="617.4888">&#171;cod : INT&#187;</text><polygon fill="#181818" points="469.6572,661.6875,459.6572,665.6875,469.6572,669.6875,465.6572,665.6875" style="stroke:#181818;stroke-width:1;"/><line style="stroke:#181818;stroke-width:1;stroke-dasharray:2,2;" x1="463.6572" x2="1227.2461" y1="665.6875" y2="665.6875"/><text fill="#000000" font-family="sans-serif" font-size="13" lengthAdjust="spacing" textLength="288.8311" x="475.6572" y="660.6216">&#171;NULL O med : Object Type : Medicamento&#187;</text><path d="M44.8794,677.6875 L109.3223,677.6875 L109.3223,684.8203 L99.3223,694.8203 L44.8794,694.8203 L44.8794,677.6875" fill="#EEEEEE" style="stroke:#000000;stroke-width:1.5;"/><rect fill="none" height="293.1641" style="stroke:#000000;stroke-width:1.5;" width="1868.2651" x="44.8794" y="677.6875"/><text fill="#000000" font-family="sans-serif" font-size="13" font-weight="bold" lengthAdjust="spacing" textLength="19.4429" x="59.8794" y="690.7544">alt</text><text fill="#000000" font-family="sans-serif" font-size="11" font-weight="bold" lengthAdjust="spacing" textLength="95.1006" x="124.3223" y="689.8979">[med == NULL]</text><line style="stroke:#000000;stroke-width:1;stroke-dasharray:2,2;" x1="44.8794" x2="1913.1445" y1="744.9531" y2="744.9531"/><text fill="#000000" font-family="sans-serif" font-size="11" font-weight="bold" lengthAdjust="spacing" textLength="90.9004" x="49.8794" y="757.1636">[med != NULL]</text><polygon fill="#181818" points="71.8794,721.9531,61.8794,725.9531,71.8794,729.9531,67.8794,725.9531" style="stroke:#181818;stroke-width:1;"/><line style="stroke:#181818;stroke-width:1;stroke-dasharray:2,2;" x1="65.8794" x2="447.6572" y1="725.9531" y2="725.9531"/><text fill="#000000" font-family="sans-serif" font-size="13" lengthAdjust="spacing" textLength="214.6587" x="77.8794" y="720.8872">&#171;"Medicamento no encontrado"&#187;</text><polygon fill="#181818" points="1075.8711,781.8906,1085.8711,785.8906,1075.8711,789.8906,1079.8711,785.8906" style="stroke:#181818;stroke-width:1;"/><line style="stroke:#181818;stroke-width:1;" x1="458.6572" x2="1081.8711" y1="785.8906" y2="785.8906"/><text fill="#000000" font-family="sans-serif" font-size="13" lengthAdjust="spacing" textLength="427.2036" x="465.6572" y="780.8247">agregarDetalle(med : Object Type : Medicamento, cantidad : INT)</text><rect fill="#E2E2F0" height="30.2969" rx="2.5" ry="2.5" style="stroke:#181818;stroke-width:0.5;" width="132.6924" x="1661.9731" y="793.8906"/><text fill="#000000" font-family="sans-serif" font-size="14" lengthAdjust="spacing" textLength="118.6924" x="1668.9731" y="813.8857">det:DetalleVenta</text><polygon fill="#181818" points="1649.9731,811.0234,1659.9731,815.0234,1649.9731,819.0234,1653.9731,815.0234" style="stroke:#181818;stroke-width:1;"/><line style="stroke:#181818;stroke-width:1;" x1="1097.8711" x2="1655.9731" y1="815.0234" y2="815.0234"/><text fill="#000000" font-family="sans-serif" font-size="13" lengthAdjust="spacing" textLength="450.0044" x="1104.8711" y="809.9575">CrearDetalleVenta(med : Object Type : Medicamento, cantidad : INT)</text><polygon fill="#181818" points="1108.8711,842.3203,1098.8711,846.3203,1108.8711,850.3203,1104.8711,846.3203" style="stroke:#181818;stroke-width:1;"/><line style="stroke:#181818;stroke-width:1;stroke-dasharray:2,2;" x1="1102.8711" x2="1727.3193" y1="846.3203" y2="846.3203"/><text fill="#000000" font-family="sans-serif" font-size="13" lengthAdjust="spacing" textLength="225.3862" x="1114.8711" y="841.2544">&#171;det : Object Type : DetalleVenta&#187;</text><polygon fill="#181818" points="1875.1445,871.4531,1885.1445,875.4531,1875.1445,879.4531,1879.1445,875.4531" style="stroke:#181818;stroke-width:1;"/><line style="stroke:#181818;stroke-width:1;" x1="1097.8711" x2="1881.1445" y1="875.4531" y2="875.4531"/><text fill="#000000" font-family="sans-serif" font-size="13" lengthAdjust="spacing" textLength="270.7466" x="1104.8711" y="870.3872">agregar(det : Object Type : DetalleVenta)</text><polygon fill="#181818" points="1108.8711,900.5859,1098.8711,904.5859,1108.8711,908.5859,1104.8711,904.5859" style="stroke:#181818;stroke-width:1;"/><line style="stroke:#181818;stroke-width:1;stroke-dasharray:2,2;" x1="1102.8711" x2="1886.1445" y1="904.5859" y2="904.5859"/><text fill="#000000" font-family="sans-serif" font-size="13" lengthAdjust="spacing" textLength="49.6323" x="1114.8711" y="899.52">&#171;NULL&#187;</text><polygon fill="#181818" points="469.6572,929.7188,459.6572,933.7188,469.6572,937.7188,465.6572,933.7188" style="stroke:#181818;stroke-width:1;"/><line style="stroke:#181818;stroke-width:1;stroke-dasharray:2,2;" x1="463.6572" x2="1086.8711" y1="933.7188" y2="933.7188"/><text fill="#000000" font-family="sans-serif" font-size="13" lengthAdjust="spacing" textLength="49.6323" x="475.6572" y="928.6528">&#171;NULL&#187;</text><polygon fill="#181818" points="71.8794,958.8516,61.8794,962.8516,71.8794,966.8516,67.8794,962.8516" style="stroke:#181818;stroke-width:1;"/><line style="stroke:#181818;stroke-width:1;stroke-dasharray:2,2;" x1="65.8794" x2="447.6572" y1="962.8516" y2="962.8516"/><text fill="#000000" font-family="sans-serif" font-size="13" lengthAdjust="spacing" textLength="135.9033" x="77.8794" y="957.7856">"Producto agregado"</text><polygon fill="#181818" points="436.6572,1001.9844,446.6572,1005.9844,436.6572,1009.9844,440.6572,1005.9844" style="stroke:#181818;stroke-width:1;"/><line style="stroke:#181818;stroke-width:1;" x1="60.8794" x2="442.6572" y1="1005.9844" y2="1005.9844"/><text fill="#000000" font-family="sans-serif" font-size="13" lengthAdjust="spacing" textLength="363.7778" x="67.8794" y="1000.9185">modificarCantidad(codBarra : INT, nuevaCantidad : INT)</text><polygon fill="#181818" points="1075.8711,1031.1172,1085.8711,1035.1172,1075.8711,1039.1172,1079.8711,1035.1172" style="stroke:#181818;stroke-width:1;"/><line style="stroke:#181818;stroke-width:1;" x1="458.6572" x2="1081.8711" y1="1035.1172" y2="1035.1172"/><text fill="#000000" font-family="sans-serif" font-size="13" lengthAdjust="spacing" textLength="410.0713" x="465.6572" y="1030.0513">modificarCantidadDetalle(codBarra : INT, nuevaCantidad : INT)</text><path d="M1057.8711,1047.1172 L1134.4951,1047.1172 L1134.4951,1054.25 L1124.4951,1064.25 L1057.8711,1064.25 L1057.8711,1047.1172" fill="#EEEEEE" style="stroke:#000000;stroke-width:1.5;"/><rect fill="none" height="188.7969" style="stroke:#000000;stroke-width:1.5;" width="880.2734" x="1057.8711" y="1047.1172"/><text fill="#000000" font-family="sans-serif" font-size="13" font-weight="bold" lengthAdjust="spacing" textLength="31.624" x="1072.8711" y="1060.1841">loop</text><text fill="#000000" font-family="sans-serif" font-size="11" font-weight="bold" lengthAdjust="spacing" textLength="155.4878" x="1149.4951" y="1059.3276">[para cada d en detalles]</text><polygon fill="#181818" points="1875.1445,1091.3828,1885.1445,1095.3828,1875.1445,1099.3828,1879.1445,1095.3828" style="stroke:#181818;stroke-width:1;"/><line style="stroke:#181818;stroke-width:1;" x1="1097.8711" x2="1881.1445" y1="1095.3828" y2="1095.3828"/><text fill="#000000" font-family="sans-serif" font-size="13" lengthAdjust="spacing" textLength="112.1313" x="1104.8711" y="1090.3169">getCodigoBarra()</text><polygon fill="#181818" points="1108.8711,1120.5156,1098.8711,1124.5156,1108.8711,1128.5156,1104.8711,1124.5156" style="stroke:#181818;stroke-width:1;"/><line style="stroke:#181818;stroke-width:1;stroke-dasharray:2,2;" x1="1102.8711" x2="1886.1445" y1="1124.5156" y2="1124.5156"/><text fill="#000000" font-family="sans-serif" font-size="13" lengthAdjust="spacing" textLength="119.6978" x="1114.8711" y="1119.4497">&#171;codDetalle : INT&#187;</text><path d="M1076.8711,1136.5156 L1141.314,1136.5156 L1141.314,1143.6484 L1131.314,1153.6484 L1076.8711,1153.6484 L1076.8711,1136.5156" fill="#EEEEEE" style="stroke:#000000;stroke-width:1.5;"/><rect fill="none" height="85.3984" style="stroke:#000000;stroke-width:1.5;" width="836.2734" x="1076.8711" y="1136.5156"/><text fill="#000000" font-family="sans-serif" font-size="13" font-weight="bold" lengthAdjust="spacing" textLength="19.4429" x="1091.8711" y="1149.5825">alt</text><text fill="#000000" font-family="sans-serif" font-size="11" font-weight="bold" lengthAdjust="spacing" textLength="158.4043" x="1156.314" y="1148.7261">[codDetalle == codBarra]</text><polygon fill="#181818" points="1875.1445,1180.7813,1885.1445,1184.7813,1875.1445,1188.7813,1879.1445,1184.7813" style="stroke:#181818;stroke-width:1;"/><line style="stroke:#181818;stroke-width:1;" x1="1097.8711" x2="1881.1445" y1="1184.7813" y2="1184.7813"/><text fill="#000000" font-family="sans-serif" font-size="13" lengthAdjust="spacing" textLength="221.2158" x="1104.8711" y="1179.7153">setCantidad(nuevaCantidad : INT)</text><polygon fill="#181818" points="1108.8711,1209.9141,1098.8711,1213.9141,1108.8711,1217.9141,1104.8711,1213.9141" style="stroke:#181818;stroke-width:1;"/><line style="stroke:#181818;stroke-width:1;stroke-dasharray:2,2;" x1="1102.8711" x2="1886.1445" y1="1213.9141" y2="1213.9141"/><text fill="#000000" font-family="sans-serif" font-size="13" lengthAdjust="spacing" textLength="49.6323" x="1114.8711" y="1208.8481">&#171;NULL&#187;</text><polygon fill="#181818" points="469.6572,1267.0469,459.6572,1271.0469,469.6572,1275.0469,465.6572,1271.0469" style="stroke:#181818;stroke-width:1;"/><line style="stroke:#181818;stroke-width:1;stroke-dasharray:2,2;" x1="463.6572" x2="1086.8711" y1="1271.0469" y2="1271.0469"/><text fill="#000000" font-family="sans-serif" font-size="13" lengthAdjust="spacing" textLength="49.6323" x="475.6572" y="1265.981">&#171;NULL&#187;</text><polygon fill="#181818" points="71.8794,1296.1797,61.8794,1300.1797,71.8794,1304.1797,67.8794,1300.1797" style="stroke:#181818;stroke-width:1;"/><line style="stroke:#181818;stroke-width:1;stroke-dasharray:2,2;" x1="65.8794" x2="447.6572" y1="1300.1797" y2="1300.1797"/><text fill="#000000" font-family="sans-serif" font-size="13" lengthAdjust="spacing" textLength="145.1074" x="77.8794" y="1295.1138">"Cantidad Modificada"</text><polygon fill="#181818" points="436.6572,1325.3125,446.6572,1329.3125,436.6572,1333.3125,440.6572,1329.3125" style="stroke:#181818;stroke-width:1;"/><line style="stroke:#181818;stroke-width:1;" x1="60.8794" x2="442.6572" y1="1329.3125" y2="1329.3125"/><text fill="#000000" font-family="sans-serif" font-size="13" lengthAdjust="spacing" textLength="199.5195" x="67.8794" y="1324.2466">quitarProducto(codBarra : INT)</text><polygon fill="#181818" points="1075.8711,1354.4453,1085.8711,1358.4453,1075.8711,1362.4453,1079.8711,1358.4453" style="stroke:#181818;stroke-width:1;"/><line style="stroke:#181818;stroke-width:1;" x1="458.6572" x2="1081.8711" y1="1358.4453" y2="1358.4453"/><text fill="#000000" font-family="sans-serif" font-size="13" lengthAdjust="spacing" textLength="268.7598" x="465.6572" y="1353.3794">eliminarDetallePorCodigo(codBarra : INT)</text><path d="M1057.8711,1370.4453 L1134.4951,1370.4453 L1134.4951,1377.5781 L1124.4951,1387.5781 L1057.8711,1387.5781 L1057.8711,1370.4453" fill="#EEEEEE" style="stroke:#000000;stroke-width:1.5;"/><rect fill="none" height="188.7969" style="stroke:#000000;stroke-width:1.5;" width="880.2734" x="1057.8711" y="1370.4453"/><text fill="#000000" font-family="sans-serif" font-size="13" font-weight="bold" lengthAdjust="spacing" textLength="31.624" x="1072.8711" y="1383.5122">loop</text><text fill="#000000" font-family="sans-serif" font-size="11" font-weight="bold" lengthAdjust="spacing" textLength="155.4878" x="1149.4951" y="1382.6558">[para cada d en detalles]</text><polygon fill="#181818" points="1875.1445,1414.7109,1885.1445,1418.7109,1875.1445,1422.7109,1879.1445,1418.7109" style="stroke:#181818;stroke-width:1;"/><line style="stroke:#181818;stroke-width:1;" x1="1097.8711" x2="1881.1445" y1="1418.7109" y2="1418.7109"/><text fill="#000000" font-family="sans-serif" font-size="13" lengthAdjust="spacing" textLength="112.1313" x="1104.8711" y="1413.645">getCodigoBarra()</text><polygon fill="#181818" points="1108.8711,1443.8438,1098.8711,1447.8438,1108.8711,1451.8438,1104.8711,1447.8438" style="stroke:#181818;stroke-width:1;"/><line style="stroke:#181818;stroke-width:1;stroke-dasharray:2,2;" x1="1102.8711" x2="1886.1445" y1="1447.8438" y2="1447.8438"/><text fill="#000000" font-family="sans-serif" font-size="13" lengthAdjust="spacing" textLength="119.6978" x="1114.8711" y="1442.7778">&#171;codDetalle : INT&#187;</text><path d="M1076.8711,1459.8438 L1141.314,1459.8438 L1141.314,1466.9766 L1131.314,1476.9766 L1076.8711,1476.9766 L1076.8711,1459.8438" fill="#EEEEEE" style="stroke:#000000;stroke-width:1.5;"/><rect fill="none" height="85.3984" style="stroke:#000000;stroke-width:1.5;" width="836.2734" x="1076.8711" y="1459.8438"/><text fill="#000000" font-family="sans-serif" font-size="13" font-weight="bold" lengthAdjust="spacing" textLength="19.4429" x="1091.8711" y="1472.9106">alt</text><text fill="#000000" font-family="sans-serif" font-size="11" font-weight="bold" lengthAdjust="spacing" textLength="158.4043" x="1156.314" y="1472.0542">[codDetalle == codBarra]</text><polygon fill="#181818" points="1875.1445,1504.1094,1885.1445,1508.1094,1875.1445,1512.1094,1879.1445,1508.1094" style="stroke:#181818;stroke-width:1;"/><line style="stroke:#181818;stroke-width:1;" x1="1097.8711" x2="1881.1445" y1="1508.1094" y2="1508.1094"/><text fill="#000000" font-family="sans-serif" font-size="13" lengthAdjust="spacing" textLength="259.5747" x="1104.8711" y="1503.0435">eliminar(d : Object Type : DetalleVenta)</text><polygon fill="#181818" points="1108.8711,1533.2422,1098.8711,1537.2422,1108.8711,1541.2422,1104.8711,1537.2422" style="stroke:#181818;stroke-width:1;"/><line style="stroke:#181818;stroke-width:1;stroke-dasharray:2,2;" x1="1102.8711" x2="1886.1445" y1="1537.2422" y2="1537.2422"/><text fill="#000000" font-family="sans-serif" font-size="13" lengthAdjust="spacing" textLength="49.6323" x="1114.8711" y="1532.1763">&#171;NULL&#187;</text><polygon fill="#181818" points="469.6572,1590.375,459.6572,1594.375,469.6572,1598.375,465.6572,1594.375" style="stroke:#181818;stroke-width:1;"/><line style="stroke:#181818;stroke-width:1;stroke-dasharray:2,2;" x1="463.6572" x2="1086.8711" y1="1594.375" y2="1594.375"/><text fill="#000000" font-family="sans-serif" font-size="13" lengthAdjust="spacing" textLength="49.6323" x="475.6572" y="1589.3091">&#171;NULL&#187;</text><polygon fill="#181818" points="71.8794,1619.5078,61.8794,1623.5078,71.8794,1627.5078,67.8794,1623.5078" style="stroke:#181818;stroke-width:1;"/><line style="stroke:#181818;stroke-width:1;stroke-dasharray:2,2;" x1="65.8794" x2="447.6572" y1="1623.5078" y2="1623.5078"/><text fill="#000000" font-family="sans-serif" font-size="13" lengthAdjust="spacing" textLength="138.0425" x="77.8794" y="1618.4419">"Producto Eliminado"</text><!--SRC=[vLPDRzj64BtpLunrgGBO1jhc9AW2L4er25YIeIe6YYI7DRcMDzZbAikLqEPlv6Vqs6DloH_hp99BBqbzE8XzgWusIBrvCxFxtepEDeQj5GFBzIUmPikZ1v5nkDVQtka_8okiv73BSylWTv73agVSiYXYgTK6Ubnj1bEraPnbkWUi07mHRPYn8XKRbblefRj1h7Dhj4I8SKI5GwQx5Z0T38UOOYsvrVbez2wFcMLIhtKi1ORnAYnjXabHM1Q_5Uy75SoXXEKAdriPf6Y0qZPWPzd0LUY-ngTMl3fKuOnd8cKAGtLLfTfJvUpjX_U305fNYk-QSCMp3b2rGHctWmbUXfJyiMXysKHz-LjjfHNwxWCM_UNVTtbMXXJTM2bopeee-W5- -TuFSlnu2SayYPC5_07nSZgEaw-Vvp2PmkrqlXe_In8K6roCK4am095ZoypCjtp7N4lzB1VLRUFNoNprYaGhTWoVKNiHHb5iYb_UROkKcGfyD2wDfDORU61udO30goqp6GeRcu77k0ZmWyp8NmaHcTRS-Wol7A1czMAbbnv_uMiR3iCqhg3Ho44ptc7WUHPHNdyem-7ypVKrB4Zg-BX04QGMLdzjgBMg6cGBcB33Y4dh0h0d2Y-xsJbMEd6YxKqbGTmXvHeA3ZnFoUPV_-aX8PVuXYZEGWh3AGFPoZEEw8bAmQ_AsT3FZRwrx9oYps5ROED2dyCzJnzOwzWy4L6qEkwU487fTC9MTyybzPykONord5wDbt2pN4pUnAl5i-kReqJHdkR6w6oBmxUVwknNPWmhDO47XdONA99ZObUrs8Ffqc8A8rKeTuIH93owl4JbHOw4bSXr9jRQGVO9dMQT5ph5NFYwXaDAS4JW5Ea4hiBhXahXokLlAZneigLoLQgSWewfF20WcLSQfrtdHKuCPoq6hsgsDdpDJ3Ld-oSgxDxWNhMxFt5f9HhsjGD6zEYz5Cxsxqpian3xHTqRZYMNhSaQfkrU8Z65zPRxvl6W-gSeMvLL-uhULLHXVVldG13pRSEZZcXefEVjMFM0odYvCVFp9SmMa-It9CP14u_dgsGodZpxe57ettj1-x1IHMVIvBHZuoFZfcs43gMtn9EOEpOeRvm64_xImRd4Cjp5Q4xmFsqSO9_GzewdGvewe2kikIg_CQmEwwnMZaj4k_MHeJrF3nLUOE7-EWuUqgbcJXlbT2Caxl3_D_cdQPswXLabZuprNiOuhozXUftCalbBBkYFMs4FhkVMEcuRX4kXH5wFxHjjIfbsMFwFNkXKxa-hdprXMpp95K-qnKluujXEcPQDqb9f-E8_]--></g></svg>