<svg xmlns="http://www.w3.org/2000/svg" xmlns:xlink="http://www.w3.org/1999/xlink" contentStyleType="text/css" data-diagram-type="SEQUENCE" height="661px" preserveAspectRatio="none" style="width:1322px;height:661px;background:#FFFFFF;" version="1.1" viewBox="0 0 1322 661" width="1322px" zoomAndPan="magnify"><title>Carga Cliente</title><defs/><g><text fill="#000000" font-family="sans-serif" font-size="14" font-weight="bold" lengthAdjust="spacing" textLength="106.4902" x="609.0156" y="27.9951">Carga Cliente</text><g><title>NegocioControlador. Interfaz</title><rect fill="#FFFFFF" height="494.7656" style="stroke:#181818;stroke-width:1;" width="10" x="608.5698" y="149.7266"/></g><g><title>List.Cliente.. clientes</title><rect fill="#FFFFFF" height="157.6641" style="stroke:#181818;stroke-width:1;" width="10" x="884.373" y="246.9297"/></g><g><title>List.Cliente.. clientes</title><rect fill="#FFFFFF" height="29.1328" style="stroke:#181818;stroke-width:1;" width="10" x="884.373" y="564.2266"/></g><g><title>Cliente. objClient</title><rect fill="#FFFFFF" height="29.1328" style="stroke:#181818;stroke-width:1;" width="10" x="1048.7661" y="300.1953"/></g><g><title>Cliente. nuevoCliente</title><rect fill="#FFFFFF" height="31.2969" style="stroke:#181818;stroke-width:1;" width="10" x="1208.1895" y="503.7969"/></g><rect fill="none" height="472.7656" style="stroke:#000000;stroke-width:1.5;" width="1305.5215" x="10" y="164.7266"/><rect fill="none" height="135.6641" style="stroke:#000000;stroke-width:1.5;" width="645.4253" x="485.4321" y="261.9297"/><rect fill="none" height="46.2656" style="stroke:#000000;stroke-width:1.5;" width="491.2427" x="495.4321" y="344.3281"/><rect fill="none" height="218.8984" style="stroke:#000000;stroke-width:1.5;" width="1285.5215" x="20" y="411.5938"/><g><title>Empleado.Vendedor</title><rect fill="#000000" fill-opacity="0.00000" height="535.8984" width="8" x="100.1963" y="118.5938"/><line style="stroke:#181818;stroke-width:0.5;stroke-dasharray:5,5;" x1="104" x2="104" y1="118.5938" y2="654.4922"/></g><g><title>NegocioControlador. Interfaz</title><rect fill="#000000" fill-opacity="0.00000" height="535.8984" width="8" x="609.5698" y="118.5938"/><line style="stroke:#181818;stroke-width:0.5;stroke-dasharray:5,5;" x1="613.4321" x2="613.4321" y1="118.5938" y2="654.4922"/></g><g><title>List.Cliente.. clientes</title><rect fill="#000000" fill-opacity="0.00000" height="535.8984" width="8" x="885.373" y="118.5938"/><line style="stroke:#181818;stroke-width:0.5;stroke-dasharray:5,5;" x1="889.0713" x2="889.0713" y1="118.5938" y2="654.4922"/></g><g><title>Cliente. objClient</title><rect fill="#000000" fill-opacity="0.00000" height="535.8984" width="8" x="1049.7661" y="118.5938"/><line style="stroke:#181818;stroke-width:0.5;stroke-dasharray:5,5;" x1="1053.6748" x2="1053.6748" y1="118.5938" y2="654.4922"/></g><g><title>Cliente. nuevoCliente</title><rect fill="#000000" fill-opacity="0.00000" height="151.1797" width="8" x="1209.1895" y="503.3125"/><line style="stroke:#181818;stroke-width:0.5;stroke-dasharray:5,5;" x1="1212.8574" x2="1212.8574" y1="503.3125" y2="654.4922"/></g><g class="participant participant-head" data-participant="user"><text fill="#000000" font-family="sans-serif" font-size="14" lengthAdjust="spacing" textLength="142.3926" x="30" y="115.292">Empleado:Vendedor</text><ellipse cx="104.1963" cy="50.7969" fill="#E2E2F0" rx="8" ry="8" style="stroke:#181818;stroke-width:0.5;"/><path d="M104.1963,58.7969 L104.1963,85.7969 M91.1963,66.7969 L117.1963,66.7969 M104.1963,85.7969 L91.1963,100.7969 M104.1963,85.7969 L117.1963,100.7969" fill="none" style="stroke:#181818;stroke-width:0.5;"/></g><g class="participant participant-head" data-participant="NegCtrl"><rect fill="#E2E2F0" height="30.2969" rx="2.5" ry="2.5" style="stroke:#181818;stroke-width:0.5;" width="216.2754" x="505.4321" y="87.2969"/><text fill="#000000" font-family="sans-serif" font-size="14" lengthAdjust="spacing" textLength="202.2754" x="512.4321" y="107.292">NegocioControlador: Interfaz</text></g><g class="participant participant-head" data-participant="listaClientes"><rect fill="#E2E2F0" height="30.2969" rx="2.5" ry="2.5" style="stroke:#181818;stroke-width:0.5;" width="174.6035" x="802.0713" y="87.2969"/><text fill="#000000" font-family="sans-serif" font-size="14" lengthAdjust="spacing" textLength="160.6035" x="809.0713" y="107.292">List&lt;Cliente&gt;: clientes</text></g><g class="participant participant-head" data-participant="cliente"><rect fill="#E2E2F0" height="30.2969" rx="2.5" ry="2.5" style="stroke:#181818;stroke-width:0.5;" width="134.1826" x="986.6748" y="87.2969"/><text fill="#000000" font-family="sans-serif" font-size="14" lengthAdjust="spacing" textLength="120.1826" x="993.6748" y="107.292">Cliente: objClient</text></g><g><title>NegocioControlador. Interfaz</title><rect fill="#FFFFFF" height="494.7656" style="stroke:#181818;stroke-width:1;" width="10" x="608.5698" y="149.7266"/></g><g><title>List.Cliente.. clientes</title><rect fill="#FFFFFF" height="157.6641" style="stroke:#181818;stroke-width:1;" width="10" x="884.373" y="246.9297"/></g><g><title>List.Cliente.. clientes</title><rect fill="#FFFFFF" height="29.1328" style="stroke:#181818;stroke-width:1;" width="10" x="884.373" y="564.2266"/></g><g><title>Cliente. objClient</title><rect fill="#FFFFFF" height="29.1328" style="stroke:#181818;stroke-width:1;" width="10" x="1048.7661" y="300.1953"/></g><g><title>Cliente. nuevoCliente</title><rect fill="#FFFFFF" height="31.2969" style="stroke:#181818;stroke-width:1;" width="10" x="1208.1895" y="503.7969"/></g><g class="message" data-participant-1="user" data-participant-2="NegCtrl"><polygon fill="#181818" points="596.5698,145.7266,606.5698,149.7266,596.5698,153.7266,600.5698,149.7266" style="stroke:#181818;stroke-width:1;"/><line style="stroke:#181818;stroke-width:1;" x1="104.1963" x2="602.5698" y1="149.7266" y2="149.7266"/><text fill="#000000" font-family="sans-serif" font-size="13" lengthAdjust="spacing" textLength="485.3735" x="111.1963" y="144.6606">registrarCliente(dni: String, nombre: String, email: String, telefono: String)</text></g><path d="M10,164.7266 L74.4429,164.7266 L74.4429,171.8594 L64.4429,181.8594 L10,181.8594 L10,164.7266" fill="#EEEEEE" style="stroke:#000000;stroke-width:1.5;"/><rect fill="none" height="472.7656" style="stroke:#000000;stroke-width:1.5;" width="1305.5215" x="10" y="164.7266"/><text fill="#000000" font-family="sans-serif" font-size="13" font-weight="bold" lengthAdjust="spacing" textLength="19.4429" x="25" y="177.7935">alt</text><text fill="#000000" font-family="sans-serif" font-size="11" font-weight="bold" lengthAdjust="spacing" textLength="217.1318" x="89.4429" y="176.937">[formato email o telefono invalido]</text><g class="message" data-participant-1="NegCtrl" data-participant-2="user"><polygon fill="#181818" points="115.1963,198.9922,105.1963,202.9922,115.1963,206.9922,111.1963,202.9922" style="stroke:#181818;stroke-width:1;"/><line style="stroke:#181818;stroke-width:1;stroke-dasharray:2,2;" x1="109.1963" x2="607.5698" y1="202.9922" y2="202.9922"/><text fill="#000000" font-family="sans-serif" font-size="13" lengthAdjust="spacing" textLength="49.6323" x="121.1963" y="197.9263">&#171;NULL&#187;</text></g><line style="stroke:#000000;stroke-width:1;stroke-dasharray:2,2;" x1="10" x2="1315.5215" y1="211.9922" y2="211.9922"/><text fill="#000000" font-family="sans-serif" font-size="11" font-weight="bold" lengthAdjust="spacing" textLength="92.6567" x="15" y="222.2026">[datos v&#225;lidos]</text><g class="message" data-participant-1="NegCtrl" data-participant-2="listaClientes"><polygon fill="#181818" points="872.373,242.9297,882.373,246.9297,872.373,250.9297,876.373,246.9297" style="stroke:#181818;stroke-width:1;"/><line style="stroke:#181818;stroke-width:1;" x1="618.5698" x2="878.373" y1="246.9297" y2="246.9297"/><text fill="#000000" font-family="sans-serif" font-size="13" lengthAdjust="spacing" textLength="166.9116" x="625.5698" y="241.8638">buscarCliente(dni: String)</text></g><path d="M485.4321,261.9297 L562.0562,261.9297 L562.0562,269.0625 L552.0562,279.0625 L485.4321,279.0625 L485.4321,261.9297" fill="#EEEEEE" style="stroke:#000000;stroke-width:1.5;"/><rect fill="none" height="135.6641" style="stroke:#000000;stroke-width:1.5;" width="645.4253" x="485.4321" y="261.9297"/><text fill="#000000" font-family="sans-serif" font-size="13" font-weight="bold" lengthAdjust="spacing" textLength="31.624" x="500.4321" y="274.9966">loop</text><a href="para" target="_top" title="para" xlink:actuate="onRequest" xlink:href="para" xlink:show="new" xlink:title="para" xlink:type="simple"><text fill="#0000FF" font-family="sans-serif" font-size="11" font-weight="bold" lengthAdjust="spacing" text-decoration="underline" textLength="160.0049" x="577.0562" y="274.1401">cada objClient en clientes</text></a><g class="message" data-participant-1="listaClientes" data-participant-2="cliente"><polygon fill="#181818" points="1036.7661,296.1953,1046.7661,300.1953,1036.7661,304.1953,1040.7661,300.1953" style="stroke:#181818;stroke-width:1;"/><line style="stroke:#181818;stroke-width:1;" x1="894.373" x2="1042.7661" y1="300.1953" y2="300.1953"/><text fill="#000000" font-family="sans-serif" font-size="13" lengthAdjust="spacing" textLength="55.0596" x="901.373" y="295.1294">getDNI()</text></g><g class="message" data-participant-1="cliente" data-participant-2="listaClientes"><polygon fill="#181818" points="905.373,325.3281,895.373,329.3281,905.373,333.3281,901.373,329.3281" style="stroke:#181818;stroke-width:1;"/><line style="stroke:#181818;stroke-width:1;stroke-dasharray:2,2;" x1="899.373" x2="1052.7661" y1="329.3281" y2="329.3281"/><text fill="#000000" font-family="sans-serif" font-size="13" lengthAdjust="spacing" textLength="128.4067" x="911.373" y="324.2622">&#171;dniActual : String&#187;</text></g><path d="M495.4321,344.3281 L559.875,344.3281 L559.875,351.4609 L549.875,361.4609 L495.4321,361.4609 L495.4321,344.3281" fill="#EEEEEE" style="stroke:#000000;stroke-width:1.5;"/><rect fill="none" height="46.2656" style="stroke:#000000;stroke-width:1.5;" width="491.2427" x="495.4321" y="344.3281"/><text fill="#000000" font-family="sans-serif" font-size="13" font-weight="bold" lengthAdjust="spacing" textLength="19.4429" x="510.4321" y="357.395">alt</text><text fill="#000000" font-family="sans-serif" font-size="11" font-weight="bold" lengthAdjust="spacing" textLength="114.415" x="574.875" y="356.5386">[dni == dniActual]</text><g class="message" data-participant-1="listaClientes" data-participant-2="NegCtrl"><polygon fill="#181818" points="629.5698,378.5938,619.5698,382.5938,629.5698,386.5938,625.5698,382.5938" style="stroke:#181818;stroke-width:1;"/><line style="stroke:#181818;stroke-width:1;stroke-dasharray:2,2;" x1="623.5698" x2="883.373" y1="382.5938" y2="382.5938"/><text fill="#000000" font-family="sans-serif" font-size="13" lengthAdjust="spacing" textLength="131.6377" x="635.5698" y="377.5278">&#171;objClient : Cliente&#187;</text></g><path d="M20,411.5938 L84.4429,411.5938 L84.4429,418.7266 L74.4429,428.7266 L20,428.7266 L20,411.5938" fill="#EEEEEE" style="stroke:#000000;stroke-width:1.5;"/><rect fill="none" height="218.8984" style="stroke:#000000;stroke-width:1.5;" width="1285.5215" x="20" y="411.5938"/><text fill="#000000" font-family="sans-serif" font-size="13" font-weight="bold" lengthAdjust="spacing" textLength="19.4429" x="35" y="424.6606">alt</text><text fill="#000000" font-family="sans-serif" font-size="11" font-weight="bold" lengthAdjust="spacing" textLength="126.6934" x="99.4429" y="423.8042">[cliente encontrado]</text><g class="message" data-participant-1="NegCtrl" data-participant-2="user"><polygon fill="#181818" points="115.1963,445.8594,105.1963,449.8594,115.1963,453.8594,111.1963,449.8594" style="stroke:#181818;stroke-width:1;"/><line style="stroke:#181818;stroke-width:1;stroke-dasharray:2,2;" x1="109.1963" x2="607.5698" y1="449.8594" y2="449.8594"/><text fill="#000000" font-family="sans-serif" font-size="13" lengthAdjust="spacing" textLength="49.6323" x="121.1963" y="444.7935">&#171;NULL&#187;</text></g><line style="stroke:#000000;stroke-width:1;stroke-dasharray:2,2;" x1="20" x2="1305.5215" y1="458.8594" y2="458.8594"/><text fill="#000000" font-family="sans-serif" font-size="11" font-weight="bold" lengthAdjust="spacing" textLength="145.9111" x="25" y="469.0698">[cliente no encontrado]</text><g class="message" data-participant-1="NegCtrl" data-participant-2="NewClient"><polygon fill="#181818" points="1118.8574,489.7969,1128.8574,493.7969,1118.8574,497.7969,1122.8574,493.7969" style="stroke:#181818;stroke-width:1;"/><line style="stroke:#181818;stroke-width:1;" x1="618.5698" x2="1124.8574" y1="493.7969" y2="493.7969"/><text fill="#000000" font-family="sans-serif" font-size="13" lengthAdjust="spacing" textLength="463.4424" x="625.5698" y="488.731">crearCliente(dni: String, nombre: String, email: String, telefono: String)</text></g><rect fill="#E2E2F0" height="30.2969" rx="2.5" ry="2.5" style="stroke:#181818;stroke-width:0.5;" width="164.6641" x="1130.8574" y="472.6641"/><text fill="#000000" font-family="sans-serif" font-size="14" lengthAdjust="spacing" textLength="150.6641" x="1137.8574" y="492.6592">Cliente: nuevoCliente</text><g class="message" data-participant-1="NewClient" data-participant-2="NegCtrl"><polygon fill="#181818" points="629.5698,531.0938,619.5698,535.0938,629.5698,539.0938,625.5698,535.0938" style="stroke:#181818;stroke-width:1;"/><line style="stroke:#181818;stroke-width:1;stroke-dasharray:2,2;" x1="623.5698" x2="1212.1895" y1="535.0938" y2="535.0938"/><text fill="#000000" font-family="sans-serif" font-size="13" lengthAdjust="spacing" textLength="159.9419" x="635.5698" y="530.0278">&#171;nuevoCliente : Cliente&#187;</text></g><g class="message" data-participant-1="NegCtrl" data-participant-2="listaClientes"><polygon fill="#181818" points="872.373,560.2266,882.373,564.2266,872.373,568.2266,876.373,564.2266" style="stroke:#181818;stroke-width:1;"/><line style="stroke:#181818;stroke-width:1;" x1="618.5698" x2="878.373" y1="564.2266" y2="564.2266"/><text fill="#000000" font-family="sans-serif" font-size="13" lengthAdjust="spacing" textLength="246.8032" x="625.5698" y="559.1606">agregarCliente(nuevoCliente: Cliente)</text></g><g class="message" data-participant-1="listaClientes" data-participant-2="NegCtrl"><polygon fill="#181818" points="629.5698,589.3594,619.5698,593.3594,629.5698,597.3594,625.5698,593.3594" style="stroke:#181818;stroke-width:1;"/><line style="stroke:#181818;stroke-width:1;stroke-dasharray:2,2;" x1="623.5698" x2="888.373" y1="593.3594" y2="593.3594"/><text fill="#000000" font-family="sans-serif" font-size="13" lengthAdjust="spacing" textLength="125.2329" x="635.5698" y="588.2935">&#171;estado : Boolean&#187;</text></g><g class="message" data-participant-1="NegCtrl" data-participant-2="user"><polygon fill="#181818" points="115.1963,618.4922,105.1963,622.4922,115.1963,626.4922,111.1963,622.4922" style="stroke:#181818;stroke-width:1;"/><line style="stroke:#181818;stroke-width:1;stroke-dasharray:2,2;" x1="109.1963" x2="607.5698" y1="622.4922" y2="622.4922"/><text fill="#000000" font-family="sans-serif" font-size="13" lengthAdjust="spacing" textLength="49.6323" x="121.1963" y="617.4263">&#171;NULL&#187;</text></g><!--SRC=[hLHBZjim3Dth54HMaq5p0SDZe4rdCK2GpQ3T55qmDkEgKCH0LjAYj-bPUh7I7zdIZ3tDebv95ldq7laehxqXsAAh4RP6a_Mar3TT4HoP_O5_AeMbPmUhnzFP45QSVIPRKSLk1TZ0fI6dpkYyBlKPhOVLdcekDM_PUiT64bm6JmBhZlYhIv60hNScpThfnkS3WIA3ibyrNOAHCnpEcZHj-9i17xxtwovZI5-8jHUwyh0R6FtejqgrUc1J19AGWQDQxdVeXeoxokeCdhtJjdu7bay7HzEUJgZDjFLawCYMmvzrMqrzHKzZ6HJ8XyPBmTq9FVSGm6CkQ7j5eolk8jjlN0IM6s7SCSyWp_UVThkYI8F9D0ILe3Tm_VEx1MlKF5AHbbiG3vUcd5M_7hD7KMchNl4rp6Vu8br1AB72gMj0Tkpvrp6yIqdO2BqXJ8ZLv3_kd-xMIVn89NWWFWovcncPUGwYxNtfBzYslPS8KI7Rhw8tyLCcqbD1X8U72JW9c96NE4yOJGNAmdY-f2JJgERM4TMqAoec62f2jcm75YENtMgmH7Xdj00gtlqNRZ4D7zpV2tpfw7-DsgmjfbbF-GGIhreGlnRBNOYg7Rqc2v9VMWzhUMGcrV6DuuKBSkO7xWPdaPnMBEiFpFAkspS4BTZdLd_4fbJXXqeAre7y1G00]--></g></svg>