<svg xmlns="http://www.w3.org/2000/svg" xmlns:xlink="http://www.w3.org/1999/xlink" contentStyleType="text/css" data-diagram-type="SEQUENCE" height="808px" preserveAspectRatio="none" style="width:868px;height:808px;background:#FFFFFF;" version="1.1" viewBox="0 0 868 808" width="868px" zoomAndPan="magnify"><title>DSD - Registro de Cliente</title><defs/><g><text fill="#000000" font-family="sans-serif" font-size="14" font-weight="bold" lengthAdjust="spacing" textLength="200.3135" x="330.2705" y="27.9951">DSD - Registro de Cliente</text><g><title>Cliente</title><rect fill="#FFFFFF" height="29.1328" style="stroke:#181818;stroke-width:1;" width="10" x="726.8931" y="503.7969"/></g><g><title>Sistema</title><rect fill="#FFFFFF" height="29.1328" style="stroke:#181818;stroke-width:1;" width="10" x="795.6597" y="251.125"/></g><g><title>Sistema</title><rect fill="#FFFFFF" height="29.1328" style="stroke:#181818;stroke-width:1;" width="10" x="795.6597" y="377.4609"/></g><g><title>Sistema</title><rect fill="#FFFFFF" height="29.1328" style="stroke:#181818;stroke-width:1;" width="10" x="795.6597" y="562.0625"/></g><rect fill="none" height="415.1406" style="stroke:#000000;stroke-width:1.5;" width="841.8545" x="10" y="295.2578"/><rect fill="none" height="281.8047" style="stroke:#000000;stroke-width:1.5;" width="821.8545" x="20" y="421.5938"/><rect fill="none" height="90.2031" style="stroke:#000000;stroke-width:1.5;" width="486.3828" x="30" y="606.1953"/><g><title>Empleado</title><rect fill="#000000" fill-opacity="0.00000" height="608.8047" width="8" x="73.9521" y="118.5938"/><line style="stroke:#181818;stroke-width:0.5;stroke-dasharray:5,5;" x1="77" x2="77" y1="118.5938" y2="727.3984"/></g><g><title>ControladorNegocio</title><rect fill="#000000" fill-opacity="0.00000" height="608.8047" width="8" x="429.687" y="118.5938"/><line style="stroke:#181818;stroke-width:0.5;stroke-dasharray:5,5;" x1="432.9912" x2="432.9912" y1="118.5938" y2="727.3984"/></g><g><title>Cliente</title><rect fill="#000000" fill-opacity="0.00000" height="608.8047" width="8" x="727.8931" y="118.5938"/><line style="stroke:#181818;stroke-width:0.5;stroke-dasharray:5,5;" x1="731.3213" x2="731.3213" y1="118.5938" y2="727.3984"/></g><g><title>Sistema</title><rect fill="#000000" fill-opacity="0.00000" height="608.8047" width="8" x="796.6597" y="118.5938"/><line style="stroke:#181818;stroke-width:0.5;stroke-dasharray:5,5;" x1="800.4648" x2="800.4648" y1="118.5938" y2="727.3984"/></g><g class="participant participant-head" data-participant="Empleado"><text fill="#000000" font-family="sans-serif" font-size="14" lengthAdjust="spacing" textLength="69.9043" x="40" y="115.292">Empleado</text><ellipse cx="77.9521" cy="50.7969" fill="#E2E2F0" rx="8" ry="8" style="stroke:#181818;stroke-width:0.5;"/><path d="M77.9521,58.7969 L77.9521,85.7969 M64.9521,66.7969 L90.9521,66.7969 M77.9521,85.7969 L64.9521,100.7969 M77.9521,85.7969 L90.9521,100.7969" fill="none" style="stroke:#181818;stroke-width:0.5;"/></g><g class="participant participant-tail" data-participant="Empleado"><text fill="#000000" font-family="sans-serif" font-size="14" lengthAdjust="spacing" textLength="69.9043" x="40" y="739.3936">Empleado</text><ellipse cx="77.9521" cy="751.1953" fill="#E2E2F0" rx="8" ry="8" style="stroke:#181818;stroke-width:0.5;"/><path d="M77.9521,759.1953 L77.9521,786.1953 M64.9521,767.1953 L90.9521,767.1953 M77.9521,786.1953 L64.9521,801.1953 M77.9521,786.1953 L90.9521,801.1953" fill="none" style="stroke:#181818;stroke-width:0.5;"/></g><g class="participant participant-head" data-participant="ControladorNegocio"><text fill="#000000" font-family="sans-serif" font-size="14" lengthAdjust="spacing" textLength="139.3916" x="360.9912" y="115.292">ControladorNegocio</text><ellipse cx="433.687" cy="86.2969" fill="#E2E2F0" rx="12" ry="12" style="stroke:#181818;stroke-width:0.5;"/><polygon fill="#181818" points="429.687,74.2969,435.687,69.2969,433.687,74.2969,435.687,79.2969,429.687,74.2969" style="stroke:#181818;stroke-width:1;"/></g><g class="participant participant-tail" data-participant="ControladorNegocio"><text fill="#000000" font-family="sans-serif" font-size="14" lengthAdjust="spacing" textLength="139.3916" x="360.9912" y="739.3936">ControladorNegocio</text><ellipse cx="433.687" cy="758.6953" fill="#E2E2F0" rx="12" ry="12" style="stroke:#181818;stroke-width:0.5;"/><polygon fill="#181818" points="429.687,746.6953,435.687,741.6953,433.687,746.6953,435.687,751.6953,429.687,746.6953" style="stroke:#181818;stroke-width:1;"/></g><g class="participant participant-head" data-participant="Cliente"><text fill="#000000" font-family="sans-serif" font-size="14" lengthAdjust="spacing" textLength="49.1436" x="704.3213" y="115.292">Cliente</text><ellipse cx="731.8931" cy="86.2969" fill="#E2E2F0" rx="12" ry="12" style="stroke:#181818;stroke-width:0.5;"/><line style="stroke:#181818;stroke-width:0.5;" x1="719.8931" x2="743.8931" y1="100.2969" y2="100.2969"/></g><g class="participant participant-tail" data-participant="Cliente"><text fill="#000000" font-family="sans-serif" font-size="14" lengthAdjust="spacing" textLength="49.1436" x="704.3213" y="739.3936">Cliente</text><ellipse cx="731.8931" cy="758.6953" fill="#E2E2F0" rx="12" ry="12" style="stroke:#181818;stroke-width:0.5;"/><line style="stroke:#181818;stroke-width:0.5;" x1="719.8931" x2="743.8931" y1="772.6953" y2="772.6953"/></g><g class="participant participant-head" data-participant="Sistema"><text fill="#000000" font-family="sans-serif" font-size="14" lengthAdjust="spacing" textLength="56.3896" x="769.4648" y="115.292">Sistema</text><ellipse cx="800.6597" cy="86.2969" fill="#E2E2F0" rx="12" ry="12" style="stroke:#181818;stroke-width:0.5;"/><line style="stroke:#181818;stroke-width:0.5;" x1="788.6597" x2="812.6597" y1="100.2969" y2="100.2969"/></g><g class="participant participant-tail" data-participant="Sistema"><text fill="#000000" font-family="sans-serif" font-size="14" lengthAdjust="spacing" textLength="56.3896" x="769.4648" y="739.3936">Sistema</text><ellipse cx="800.6597" cy="758.6953" fill="#E2E2F0" rx="12" ry="12" style="stroke:#181818;stroke-width:0.5;"/><line style="stroke:#181818;stroke-width:0.5;" x1="788.6597" x2="812.6597" y1="772.6953" y2="772.6953"/></g><g><title>Cliente</title><rect fill="#FFFFFF" height="29.1328" style="stroke:#181818;stroke-width:1;" width="10" x="726.8931" y="503.7969"/></g><g><title>Sistema</title><rect fill="#FFFFFF" height="29.1328" style="stroke:#181818;stroke-width:1;" width="10" x="795.6597" y="251.125"/></g><g><title>Sistema</title><rect fill="#FFFFFF" height="29.1328" style="stroke:#181818;stroke-width:1;" width="10" x="795.6597" y="377.4609"/></g><g><title>Sistema</title><rect fill="#FFFFFF" height="29.1328" style="stroke:#181818;stroke-width:1;" width="10" x="795.6597" y="562.0625"/></g><rect fill="#EEEEEE" height="3" style="stroke:#EEEEEE;stroke-width:1;" width="861.8545" x="0" y="149.1602"/><line style="stroke:#000000;stroke-width:1;" x1="0" x2="861.8545" y1="149.1602" y2="149.1602"/><line style="stroke:#000000;stroke-width:1;" x1="0" x2="861.8545" y1="152.1602" y2="152.1602"/><rect fill="#EEEEEE" height="23.1328" style="stroke:#000000;stroke-width:2;" width="58.167" x="401.8438" y="138.5938"/><text fill="#000000" font-family="sans-serif" font-size="13" font-weight="bold" lengthAdjust="spacing" textLength="39.6411" x="407.8438" y="154.6606">Inicio</text><g class="message" data-participant-1="Empleado" data-participant-2="ControladorNegocio"><polygon fill="#181818" points="421.687,188.8594,431.687,192.8594,421.687,196.8594,425.687,192.8594" style="stroke:#181818;stroke-width:1;"/><line style="stroke:#181818;stroke-width:1;" x1="77.9521" x2="427.687" y1="192.8594" y2="192.8594"/><text fill="#000000" font-family="sans-serif" font-size="13" lengthAdjust="spacing" textLength="161.6304" x="84.9521" y="187.7935">accederModuloClientes()</text></g><g class="message" data-participant-1="Empleado" data-participant-2="ControladorNegocio"><polygon fill="#181818" points="421.687,217.9922,431.687,221.9922,421.687,225.9922,425.687,221.9922" style="stroke:#181818;stroke-width:1;"/><line style="stroke:#181818;stroke-width:1;" x1="77.9521" x2="427.687" y1="221.9922" y2="221.9922"/><text fill="#000000" font-family="sans-serif" font-size="13" lengthAdjust="spacing" textLength="331.7349" x="84.9521" y="216.9263">ingresarDatosCliente(dni, nombre, email, telefono)</text></g><g class="message" data-participant-1="ControladorNegocio" data-participant-2="Sistema"><polygon fill="#181818" points="783.6597,247.125,793.6597,251.125,783.6597,255.125,787.6597,251.125" style="stroke:#181818;stroke-width:1;"/><line style="stroke:#181818;stroke-width:1;" x1="433.687" x2="789.6597" y1="251.125" y2="251.125"/><text fill="#000000" font-family="sans-serif" font-size="13" lengthAdjust="spacing" textLength="213.3638" x="440.687" y="246.0591">validarFormatos(email, telefono)</text></g><g class="message" data-participant-1="Sistema" data-participant-2="ControladorNegocio"><polygon fill="#181818" points="444.687,276.2578,434.687,280.2578,444.687,284.2578,440.687,280.2578" style="stroke:#181818;stroke-width:1;"/><line style="stroke:#181818;stroke-width:1;stroke-dasharray:2,2;" x1="438.687" x2="799.6597" y1="280.2578" y2="280.2578"/><text fill="#000000" font-family="sans-serif" font-size="13" lengthAdjust="spacing" textLength="58.3286" x="450.687" y="275.1919">formatos</text></g><path d="M10,295.2578 L74.4429,295.2578 L74.4429,302.3906 L64.4429,312.3906 L10,312.3906 L10,295.2578" fill="#EEEEEE" style="stroke:#000000;stroke-width:1.5;"/><rect fill="none" height="415.1406" style="stroke:#000000;stroke-width:1.5;" width="841.8545" x="10" y="295.2578"/><text fill="#000000" font-family="sans-serif" font-size="13" font-weight="bold" lengthAdjust="spacing" textLength="19.4429" x="25" y="308.3247">alt</text><text fill="#000000" font-family="sans-serif" font-size="11" font-weight="bold" lengthAdjust="spacing" textLength="115.2476" x="89.4429" y="307.4683">[Formato inv&#225;lido]</text><g class="message" data-participant-1="ControladorNegocio" data-participant-2="Empleado"><polygon fill="#181818" points="88.9521,329.5234,78.9521,333.5234,88.9521,337.5234,84.9521,333.5234" style="stroke:#181818;stroke-width:1;"/><line style="stroke:#181818;stroke-width:1;" x1="82.9521" x2="432.687" y1="333.5234" y2="333.5234"/><text fill="#000000" font-family="sans-serif" font-size="13" lengthAdjust="spacing" textLength="300.7012" x="94.9521" y="328.4575">mensaje("Formato inv&#225;lido. Corrija los datos")</text></g><line style="stroke:#000000;stroke-width:1;stroke-dasharray:2,2;" x1="10" x2="851.8545" y1="342.5234" y2="342.5234"/><text fill="#000000" font-family="sans-serif" font-size="11" font-weight="bold" lengthAdjust="spacing" textLength="117.8042" x="15" y="352.7339">[Formato correcto]</text><g class="message" data-participant-1="ControladorNegocio" data-participant-2="Sistema"><polygon fill="#181818" points="783.6597,373.4609,793.6597,377.4609,783.6597,381.4609,787.6597,377.4609" style="stroke:#181818;stroke-width:1;"/><line style="stroke:#181818;stroke-width:1;" x1="433.687" x2="789.6597" y1="377.4609" y2="377.4609"/><text fill="#000000" font-family="sans-serif" font-size="13" lengthAdjust="spacing" textLength="210.2788" x="440.687" y="372.395">verificarDuplicado(dni, telefono)</text></g><g class="message" data-participant-1="Sistema" data-participant-2="ControladorNegocio"><polygon fill="#181818" points="444.687,402.5938,434.687,406.5938,444.687,410.5938,440.687,406.5938" style="stroke:#181818;stroke-width:1;"/><line style="stroke:#181818;stroke-width:1;stroke-dasharray:2,2;" x1="438.687" x2="799.6597" y1="406.5938" y2="406.5938"/><text fill="#000000" font-family="sans-serif" font-size="13" lengthAdjust="spacing" textLength="39.1714" x="450.687" y="401.5278">existe</text></g><path d="M20,421.5938 L84.4429,421.5938 L84.4429,428.7266 L74.4429,438.7266 L20,438.7266 L20,421.5938" fill="#EEEEEE" style="stroke:#000000;stroke-width:1.5;"/><rect fill="none" height="281.8047" style="stroke:#000000;stroke-width:1.5;" width="821.8545" x="20" y="421.5938"/><text fill="#000000" font-family="sans-serif" font-size="13" font-weight="bold" lengthAdjust="spacing" textLength="19.4429" x="35" y="434.6606">alt</text><text fill="#000000" font-family="sans-serif" font-size="11" font-weight="bold" lengthAdjust="spacing" textLength="140.5454" x="99.4429" y="433.8042">[Cliente ya registrado]</text><g class="message" data-participant-1="ControladorNegocio" data-participant-2="Empleado"><polygon fill="#181818" points="88.9521,455.8594,78.9521,459.8594,88.9521,463.8594,84.9521,459.8594" style="stroke:#181818;stroke-width:1;"/><line style="stroke:#181818;stroke-width:1;" x1="82.9521" x2="432.687" y1="459.8594" y2="459.8594"/><text fill="#000000" font-family="sans-serif" font-size="13" lengthAdjust="spacing" textLength="213.5034" x="94.9521" y="454.7935">mensaje("Cliente ya registrado")</text></g><line style="stroke:#000000;stroke-width:1;stroke-dasharray:2,2;" x1="20" x2="841.8545" y1="468.8594" y2="468.8594"/><text fill="#000000" font-family="sans-serif" font-size="11" font-weight="bold" lengthAdjust="spacing" textLength="95.3584" x="25" y="479.0698">[Cliente nuevo]</text><g class="message" data-participant-1="ControladorNegocio" data-participant-2="Cliente"><polygon fill="#181818" points="714.8931,499.7969,724.8931,503.7969,714.8931,507.7969,718.8931,503.7969" style="stroke:#181818;stroke-width:1;"/><line style="stroke:#181818;stroke-width:1;" x1="433.687" x2="720.8931" y1="503.7969" y2="503.7969"/><text fill="#000000" font-family="sans-serif" font-size="13" lengthAdjust="spacing" textLength="274.2061" x="440.687" y="498.731">crearCliente(dni, nombre, email, telefono)</text></g><g class="message" data-participant-1="Cliente" data-participant-2="ControladorNegocio"><polygon fill="#181818" points="444.687,528.9297,434.687,532.9297,444.687,536.9297,440.687,532.9297" style="stroke:#181818;stroke-width:1;"/><line style="stroke:#181818;stroke-width:1;stroke-dasharray:2,2;" x1="438.687" x2="730.8931" y1="532.9297" y2="532.9297"/><text fill="#000000" font-family="sans-serif" font-size="13" lengthAdjust="spacing" textLength="43.7036" x="450.687" y="527.8638">cliente</text></g><g class="message" data-participant-1="ControladorNegocio" data-participant-2="Sistema"><polygon fill="#181818" points="783.6597,558.0625,793.6597,562.0625,783.6597,566.0625,787.6597,562.0625" style="stroke:#181818;stroke-width:1;"/><line style="stroke:#181818;stroke-width:1;" x1="433.687" x2="789.6597" y1="562.0625" y2="562.0625"/><text fill="#000000" font-family="sans-serif" font-size="13" lengthAdjust="spacing" textLength="150.8457" x="440.687" y="556.9966">guardarCliente(cliente)</text></g><g class="message" data-participant-1="Sistema" data-participant-2="ControladorNegocio"><polygon fill="#181818" points="444.687,587.1953,434.687,591.1953,444.687,595.1953,440.687,591.1953" style="stroke:#181818;stroke-width:1;"/><line style="stroke:#181818;stroke-width:1;stroke-dasharray:2,2;" x1="438.687" x2="799.6597" y1="591.1953" y2="591.1953"/><text fill="#000000" font-family="sans-serif" font-size="13" lengthAdjust="spacing" textLength="62.2261" x="450.687" y="586.1294">guardado</text></g><path d="M30,606.1953 L94.4429,606.1953 L94.4429,613.3281 L84.4429,623.3281 L30,623.3281 L30,606.1953" fill="#EEEEEE" style="stroke:#000000;stroke-width:1.5;"/><rect fill="none" height="90.2031" style="stroke:#000000;stroke-width:1.5;" width="486.3828" x="30" y="606.1953"/><text fill="#000000" font-family="sans-serif" font-size="13" font-weight="bold" lengthAdjust="spacing" textLength="19.4429" x="45" y="619.2622">alt</text><text fill="#000000" font-family="sans-serif" font-size="11" font-weight="bold" lengthAdjust="spacing" textLength="120.0171" x="109.4429" y="618.4058">[Error de conexi&#243;n]</text><g class="message" data-participant-1="ControladorNegocio" data-participant-2="Empleado"><polygon fill="#181818" points="88.9521,640.4609,78.9521,644.4609,88.9521,648.4609,84.9521,644.4609" style="stroke:#181818;stroke-width:1;"/><line style="stroke:#181818;stroke-width:1;" x1="82.9521" x2="432.687" y1="644.4609" y2="644.4609"/><text fill="#000000" font-family="sans-serif" font-size="13" lengthAdjust="spacing" textLength="320.9121" x="94.9521" y="639.395">mensaje("Error. Intente nuevamente m&#225;s tarde")</text></g><line style="stroke:#000000;stroke-width:1;stroke-dasharray:2,2;" x1="30" x2="516.3828" y1="653.4609" y2="653.4609"/><text fill="#000000" font-family="sans-serif" font-size="11" font-weight="bold" lengthAdjust="spacing" textLength="111.4932" x="35" y="663.6714">[Registro exitoso]</text><g class="message" data-participant-1="ControladorNegocio" data-participant-2="Empleado"><polygon fill="#181818" points="88.9521,684.3984,78.9521,688.3984,88.9521,692.3984,84.9521,688.3984" style="stroke:#181818;stroke-width:1;"/><line style="stroke:#181818;stroke-width:1;" x1="82.9521" x2="432.687" y1="688.3984" y2="688.3984"/><text fill="#000000" font-family="sans-serif" font-size="13" lengthAdjust="spacing" textLength="293.8394" x="94.9521" y="683.3325">mensaje("Cliente registrado correctamente")</text></g><!--SRC=[dLHRRjim4FpdAHR-SW0x1p3W_iGfq8_sepd1bbmR32XkiAADv3WvGuxWYtKbaPHHoNdKW45PtfqPpf2RV0e4kuSThE4t7NoRXC4Ht0LFCP4nQ1CBt3TFWT2niHor8i3TiEeh-KK7jfwDrllqKZlppmU5f0QDsMxXH_HQ2DkjCGKGrjzci3Q0rf8Z-Sdk63X3jikRZnjzF0YrA3jCtER6fOj-1P6RFq8hK3K-h21He3r7LimfJeUUbM_WXC4xbEyiJGUwd02eH_w4YUfcymhhAoBt6SeuclGQ30aob-xcT7vLTZQWdtcTnP4DD1HRVAJbOj9-gxqY_X4XS0kkurxS60ejLIgh1QHXctUeHaj8_DvRjVdu57HrF7WyUjA1JFRMlVp86thk2lhIENTwN7KeHmil23ASMymkVScfMHYrfaVg_IaLyKYdRCvrXboy0Ik4yhdZLn3hNiiDgbHPmJN7x3_r5xRLQ_o-x9hhuOZYHk4PUKRZPQAVINK0laZeMhObttiHdJiwYNJYw94ulyNwzvS2xd5kTVIacY8s_MDpVcqXgInQZ1li8w-3K8drfl3_CPVOndDLxjWWu98rEbDM_Vu5]--></g></svg>