<?plantuml 1.2026.3beta3?><svg xmlns="http://www.w3.org/2000/svg" xmlns:xlink="http://www.w3.org/1999/xlink" contentStyleType="text/css" data-diagram-type="SEQUENCE" height="1074px" preserveAspectRatio="none" style="width:1849px;height:1074px;background:#FFFFFF;" version="1.1" viewBox="0 0 1849 1074" width="1849px" zoomAndPan="magnify"><defs/><g><g class="title" data-source-line="1"><text fill="#000000" font-family="sans-serif" font-size="14" font-weight="bold" lengthAdjust="spacing" textLength="138.9883" x="851.6553" y="27.9951">Control e Informe</text></g><g><title>gc.FarmaciaControlador</title><rect fill="#FFFFFF" height="884.7422" style="stroke:#181818;stroke-width:1;" width="10" x="491.2168" y="149.7266"/></g><g><title>catV...Singleton..</title><rect fill="#FFFFFF" height="118.5313" style="stroke:#181818;stroke-width:1;" width="10" x="797.3599" y="202.9922"/></g><g><title>listaVenta.i.. Venta</title><rect fill="#FFFFFF" height="29.1328" style="stroke:#181818;stroke-width:1;" width="10" x="993.0728" y="256.2578"/></g><g><title>catM...Singleton..</title><rect fill="#FFFFFF" height="118.5313" style="stroke:#181818;stroke-width:1;" width="10" x="1167.0396" y="469.6641"/></g><g><title>listaMed.k.. Medicamento</title><rect fill="#FFFFFF" height="29.1328" style="stroke:#181818;stroke-width:1;" width="10" x="1364.2349" y="522.9297"/></g><g><title>gen.GeneradorReportes</title><rect fill="#FFFFFF" height="29.1328" style="stroke:#181818;stroke-width:1;" width="10" x="1563.4194" y="781.7969"/></g><g><title>sc.ServicioCorreos</title><rect fill="#FFFFFF" height="29.1328" style="stroke:#181818;stroke-width:1;" width="10" x="1736.4907" y="908.1328"/></g><rect fill="none" height="535.6719" style="stroke:#000000;stroke-width:1.5;" width="1467.1563" x="20" y="164.7266"/><rect fill="none" height="75.3984" style="stroke:#000000;stroke-width:1.5;" width="356.9844" x="725.7813" y="217.9922"/><rect fill="none" height="90.2031" style="stroke:#000000;stroke-width:1.5;" width="567.603" x="30" y="336.5234"/><rect fill="none" height="75.3984" style="stroke:#000000;stroke-width:1.5;" width="404.3906" x="1072.7656" y="484.6641"/><rect fill="none" height="90.2031" style="stroke:#000000;stroke-width:1.5;" width="567.603" x="30" y="603.1953"/><rect fill="none" height="342.0703" style="stroke:#000000;stroke-width:1.5;" width="1823.2988" x="10" y="714.3984"/><rect fill="none" height="223.5391" style="stroke:#000000;stroke-width:1.5;" width="1803.2988" x="20" y="825.9297"/><rect fill="none" height="90.2031" style="stroke:#000000;stroke-width:1.5;" width="567.603" x="30" y="952.2656"/><g class="participant-lifeline" data-entity-uid="part1" data-qualified-name="admin" id="part1-lifeline"><g><title>Administrador</title><rect fill="#000000" fill-opacity="0.00000" height="954.875" width="8" x="88.54" y="118.5938"/><line style="stroke:#181818;stroke-width:0.5;stroke-dasharray:5,5;" x1="92" x2="92" y1="118.5938" y2="1073.4688"/></g></g><g class="participant-lifeline" data-entity-uid="part2" data-qualified-name="ctrl" id="part2-lifeline"><g><title>gc.FarmaciaControlador</title><rect fill="#000000" fill-opacity="0.00000" height="954.875" width="8" x="492.2168" y="118.5938"/><line style="stroke:#181818;stroke-width:0.5;stroke-dasharray:5,5;" x1="495.8306" x2="495.8306" y1="118.5938" y2="1073.4688"/></g></g><g class="participant-lifeline" data-entity-uid="part3" data-qualified-name="cat_ventas" id="part3-lifeline"><g><title>catV...Singleton..</title><rect fill="#000000" fill-opacity="0.00000" height="954.875" width="8" x="798.3599" y="118.5938"/><line style="stroke:#181818;stroke-width:0.5;stroke-dasharray:5,5;" x1="801.7813" x2="801.7813" y1="118.5938" y2="1073.4688"/></g></g><g class="participant-lifeline" data-entity-uid="part4" data-qualified-name="venta" id="part4-lifeline"><g><title>listaVenta.i.. Venta</title><rect fill="#000000" fill-opacity="0.00000" height="954.875" width="8" x="994.0728" y="118.5938"/><line style="stroke:#181818;stroke-width:0.5;stroke-dasharray:5,5;" x1="997.3799" x2="997.3799" y1="118.5938" y2="1073.4688"/></g></g><g class="participant-lifeline" data-entity-uid="part5" data-qualified-name="cat_med" id="part5-lifeline"><g><title>catM...Singleton..</title><rect fill="#000000" fill-opacity="0.00000" height="954.875" width="8" x="1168.0396" y="118.5938"/><line style="stroke:#181818;stroke-width:0.5;stroke-dasharray:5,5;" x1="1171.7656" x2="1171.7656" y1="118.5938" y2="1073.4688"/></g></g><g class="participant-lifeline" data-entity-uid="part6" data-qualified-name="med" id="part6-lifeline"><g><title>listaMed.k.. Medicamento</title><rect fill="#000000" fill-opacity="0.00000" height="954.875" width="8" x="1365.2349" y="118.5938"/><line style="stroke:#181818;stroke-width:0.5;stroke-dasharray:5,5;" x1="1368.3135" x2="1368.3135" y1="118.5938" y2="1073.4688"/></g></g><g class="participant-lifeline" data-entity-uid="part7" data-qualified-name="gen" id="part7-lifeline"><g><title>gen.GeneradorReportes</title><rect fill="#000000" fill-opacity="0.00000" height="954.875" width="8" x="1564.4194" y="118.5938"/><line style="stroke:#181818;stroke-width:0.5;stroke-dasharray:5,5;" x1="1568.1563" x2="1568.1563" y1="118.5938" y2="1073.4688"/></g></g><g class="participant-lifeline" data-entity-uid="part8" data-qualified-name="srv_mail" id="part8-lifeline"><g><title>sc.ServicioCorreos</title><rect fill="#000000" fill-opacity="0.00000" height="954.875" width="8" x="1737.4907" y="118.5938"/><line style="stroke:#181818;stroke-width:0.5;stroke-dasharray:5,5;" x1="1740.6826" x2="1740.6826" y1="118.5938" y2="1073.4688"/></g></g><g class="participant participant-head" data-entity-uid="part1" data-qualified-name="admin" id="part1-head"><text fill="#000000" font-family="sans-serif" font-size="14" lengthAdjust="spacing" textLength="99.0801" x="40" y="115.292">Administrador</text><ellipse cx="92.54" cy="50.7969" fill="#E2E2F0" rx="8" ry="8" style="stroke:#181818;stroke-width:0.5;"/><path d="M92.54,58.7969 L92.54,85.7969 M79.54,66.7969 L105.54,66.7969 M92.54,85.7969 L79.54,100.7969 M92.54,85.7969 L105.54,100.7969" fill="none" style="stroke:#181818;stroke-width:0.5;"/></g><g class="participant participant-head" data-entity-uid="part2" data-qualified-name="ctrl" id="part2-head"><rect fill="#E2E2F0" height="30.2969" rx="2.5" ry="2.5" style="stroke:#181818;stroke-width:0.5;" width="182.7725" x="404.8306" y="87.2969"/><text fill="#000000" font-family="sans-serif" font-size="14" lengthAdjust="spacing" textLength="168.7725" x="411.8306" y="107.292">gc:FarmaciaControlador</text></g><g class="participant participant-head" data-entity-uid="part3" data-qualified-name="cat_ventas" id="part3-head"><rect fill="#E2E2F0" height="46.5938" rx="2.5" ry="2.5" style="stroke:#181818;stroke-width:0.5;" width="133.1572" x="735.7813" y="71"/><text fill="#000000" font-family="sans-serif" font-size="14" lengthAdjust="spacing" textLength="119.1572" x="742.7813" y="90.9951">catV:&#171;Singleton&#187;</text><text fill="#000000" font-family="sans-serif" font-size="14" lengthAdjust="spacing" textLength="110.7559" x="746.9819" y="107.292">CatalogoVentas</text></g><g class="participant participant-head" data-entity-uid="part4" data-qualified-name="venta" id="part4-head"><rect fill="#E2E2F0" height="30.2969" rx="2.5" ry="2.5" style="stroke:#181818;stroke-width:0.5;" width="149.3857" x="923.3799" y="87.2969"/><text fill="#000000" font-family="sans-serif" font-size="14" lengthAdjust="spacing" textLength="135.3857" x="930.3799" y="107.292">listaVenta[i]: Venta</text></g><g class="participant participant-head" data-entity-uid="part5" data-qualified-name="cat_med" id="part5-head"><rect fill="#E2E2F0" height="46.5938" rx="2.5" ry="2.5" style="stroke:#181818;stroke-width:0.5;" width="178.5479" x="1082.7656" y="71"/><text fill="#000000" font-family="sans-serif" font-size="14" lengthAdjust="spacing" textLength="121.6592" x="1111.21" y="90.9951">catM:&#171;Singleton&#187;</text><text fill="#000000" font-family="sans-serif" font-size="14" lengthAdjust="spacing" textLength="164.5479" x="1089.7656" y="107.292">CatalogoMedicamentos</text></g><g class="participant participant-head" data-entity-uid="part6" data-qualified-name="med" id="part6-head"><rect fill="#E2E2F0" height="30.2969" rx="2.5" ry="2.5" style="stroke:#181818;stroke-width:0.5;" width="195.8428" x="1271.3135" y="87.2969"/><text fill="#000000" font-family="sans-serif" font-size="14" lengthAdjust="spacing" textLength="181.8428" x="1278.3135" y="107.292">listaMed[k]: Medicamento</text></g><g class="participant participant-head" data-entity-uid="part7" data-qualified-name="gen" id="part7-head"><rect fill="#E2E2F0" height="30.2969" rx="2.5" ry="2.5" style="stroke:#181818;stroke-width:0.5;" width="182.5264" x="1477.1563" y="87.2969"/><text fill="#000000" font-family="sans-serif" font-size="14" lengthAdjust="spacing" textLength="168.5264" x="1484.1563" y="107.292">gen:GeneradorReportes</text></g><g class="participant participant-head" data-entity-uid="part8" data-qualified-name="srv_mail" id="part8-head"><rect fill="#E2E2F0" height="30.2969" rx="2.5" ry="2.5" style="stroke:#181818;stroke-width:0.5;" width="143.6162" x="1669.6826" y="87.2969"/><text fill="#000000" font-family="sans-serif" font-size="14" lengthAdjust="spacing" textLength="129.6162" x="1676.6826" y="107.292">sc:ServicioCorreos</text></g><g><title>gc.FarmaciaControlador</title><rect fill="#FFFFFF" height="884.7422" style="stroke:#181818;stroke-width:1;" width="10" x="491.2168" y="149.7266"/></g><g><title>catV...Singleton..</title><rect fill="#FFFFFF" height="118.5313" style="stroke:#181818;stroke-width:1;" width="10" x="797.3599" y="202.9922"/></g><g><title>listaVenta.i.. Venta</title><rect fill="#FFFFFF" height="29.1328" style="stroke:#181818;stroke-width:1;" width="10" x="993.0728" y="256.2578"/></g><g><title>catM...Singleton..</title><rect fill="#FFFFFF" height="118.5313" style="stroke:#181818;stroke-width:1;" width="10" x="1167.0396" y="469.6641"/></g><g><title>listaMed.k.. Medicamento</title><rect fill="#FFFFFF" height="29.1328" style="stroke:#181818;stroke-width:1;" width="10" x="1364.2349" y="522.9297"/></g><g><title>gen.GeneradorReportes</title><rect fill="#FFFFFF" height="29.1328" style="stroke:#181818;stroke-width:1;" width="10" x="1563.4194" y="781.7969"/></g><g><title>sc.ServicioCorreos</title><rect fill="#FFFFFF" height="29.1328" style="stroke:#181818;stroke-width:1;" width="10" x="1736.4907" y="908.1328"/></g><g class="message" data-entity-1="part1" data-entity-2="part2" id="msg1"><polygon fill="#181818" points="479.2168,145.7266,489.2168,149.7266,479.2168,153.7266,483.2168,149.7266" style="stroke:#181818;stroke-width:1;"/><line style="stroke:#181818;stroke-width:1;" x1="92.54" x2="485.2168" y1="149.7266" y2="149.7266"/><text fill="#000000" font-family="sans-serif" font-size="13" lengthAdjust="spacing" textLength="320.4741" x="99.54" y="144.6606">solicitarInforme(tipoInforme: String, filtro: String)</text></g><path d="M20,164.7266 L84.4429,164.7266 L84.4429,171.8594 L74.4429,181.8594 L20,181.8594 L20,164.7266" fill="#EEEEEE" style="stroke:#000000;stroke-width:1.5;"/><rect fill="none" height="535.6719" style="stroke:#000000;stroke-width:1.5;" width="1467.1563" x="20" y="164.7266"/><text fill="#000000" font-family="sans-serif" font-size="13" font-weight="bold" lengthAdjust="spacing" textLength="19.4429" x="35" y="177.7935">alt</text><text fill="#000000" font-family="sans-serif" font-size="11" font-weight="bold" lengthAdjust="spacing" textLength="121.2417" x="99.4429" y="176.937">[tipo == "VENTAS"]</text><g class="message" data-entity-1="part2" data-entity-2="part3" id="msg2"><polygon fill="#181818" points="785.3599,198.9922,795.3599,202.9922,785.3599,206.9922,789.3599,202.9922" style="stroke:#181818;stroke-width:1;"/><line style="stroke:#181818;stroke-width:1;" x1="501.2168" x2="791.3599" y1="202.9922" y2="202.9922"/><text fill="#000000" font-family="sans-serif" font-size="13" lengthAdjust="spacing" textLength="241.4712" x="508.2168" y="197.9263">obtenerVentasPorFecha(fecha: Date)</text></g><path d="M725.7813,217.9922 L802.4053,217.9922 L802.4053,225.125 L792.4053,235.125 L725.7813,235.125 L725.7813,217.9922" fill="#EEEEEE" style="stroke:#000000;stroke-width:1.5;"/><rect fill="none" height="75.3984" style="stroke:#000000;stroke-width:1.5;" width="356.9844" x="725.7813" y="217.9922"/><text fill="#000000" font-family="sans-serif" font-size="13" font-weight="bold" lengthAdjust="spacing" textLength="31.624" x="740.7813" y="231.0591">loop</text><text fill="#000000" font-family="sans-serif" font-size="11" font-weight="bold" lengthAdjust="spacing" textLength="197.9785" x="817.4053" y="230.2026">[Para cada Venta en listaVenta]</text><g class="message" data-entity-1="part3" data-entity-2="part4" id="msg3"><polygon fill="#181818" points="981.0728,252.2578,991.0728,256.2578,981.0728,260.2578,985.0728,256.2578" style="stroke:#181818;stroke-width:1;"/><line style="stroke:#181818;stroke-width:1;" x1="807.3599" x2="987.0728" y1="256.2578" y2="256.2578"/><text fill="#000000" font-family="sans-serif" font-size="13" lengthAdjust="spacing" textLength="70.3193" x="814.3599" y="251.1919">getFecha()</text></g><g class="message" data-entity-1="part4" data-entity-2="part3" id="msg4"><polygon fill="#181818" points="818.3599,281.3906,808.3599,285.3906,818.3599,289.3906,814.3599,285.3906" style="stroke:#181818;stroke-width:1;"/><line style="stroke:#181818;stroke-width:1;stroke-dasharray:2,2;" x1="812.3599" x2="997.0728" y1="285.3906" y2="285.3906"/><text fill="#000000" font-family="sans-serif" font-size="13" lengthAdjust="spacing" textLength="161.7129" x="824.3599" y="280.3247">&#171;fechaRegistrada: Date&#187;</text></g><g class="message" data-entity-1="part3" data-entity-2="part2" id="msg5"><polygon fill="#181818" points="512.2168,317.5234,502.2168,321.5234,512.2168,325.5234,508.2168,321.5234" style="stroke:#181818;stroke-width:1;"/><line style="stroke:#181818;stroke-width:1;stroke-dasharray:2,2;" x1="506.2168" x2="801.3599" y1="321.5234" y2="321.5234"/><text fill="#000000" font-family="sans-serif" font-size="13" lengthAdjust="spacing" textLength="272.1431" x="518.2168" y="316.4575">&lt;&lt; ventasEncontradas : List&lt;Venta&gt; &gt;&gt;</text></g><path d="M30,336.5234 L94.4429,336.5234 L94.4429,343.6563 L84.4429,353.6563 L30,353.6563 L30,336.5234" fill="#EEEEEE" style="stroke:#000000;stroke-width:1.5;"/><rect fill="none" height="90.2031" style="stroke:#000000;stroke-width:1.5;" width="567.603" x="30" y="336.5234"/><text fill="#000000" font-family="sans-serif" font-size="13" font-weight="bold" lengthAdjust="spacing" textLength="19.4429" x="45" y="349.5903">alt</text><text fill="#000000" font-family="sans-serif" font-size="11" font-weight="bold" lengthAdjust="spacing" textLength="293.9868" x="109.4429" y="348.7339">[No se pudo encontrar las Ventas (Lista Vacia)]</text><g class="message" data-entity-1="part2" data-entity-2="part1" id="msg6"><polygon fill="#181818" points="103.54,370.7891,93.54,374.7891,103.54,378.7891,99.54,374.7891" style="stroke:#181818;stroke-width:1;"/><line style="stroke:#181818;stroke-width:1;stroke-dasharray:2,2;" x1="97.54" x2="490.2168" y1="374.7891" y2="374.7891"/><text fill="#000000" font-family="sans-serif" font-size="13" lengthAdjust="spacing" textLength="210.6089" x="109.54" y="369.7231">&lt;&lt; listaVentas: List&lt;NULL&gt; &gt;&gt;</text></g><line style="stroke:#000000;stroke-width:1;stroke-dasharray:2,2;" x1="30" x2="597.603" y1="383.7891" y2="383.7891"/><text fill="#000000" font-family="sans-serif" font-size="11" font-weight="bold" lengthAdjust="spacing" textLength="173.8193" x="35" y="393.9995">[Se encontraron las Ventas]</text><g class="message" data-entity-1="part2" data-entity-2="part1" id="msg7"><polygon fill="#181818" points="103.54,414.7266,93.54,418.7266,103.54,422.7266,99.54,418.7266" style="stroke:#181818;stroke-width:1;"/><line style="stroke:#181818;stroke-width:1;stroke-dasharray:2,2;" x1="97.54" x2="490.2168" y1="418.7266" y2="418.7266"/><text fill="#000000" font-family="sans-serif" font-size="13" lengthAdjust="spacing" textLength="215.0776" x="109.54" y="413.6606">&lt;&lt; listaVentas: List&lt;Venta&gt; &gt;&gt;</text></g><line style="stroke:#000000;stroke-width:1;stroke-dasharray:2,2;" x1="20" x2="1487.1563" y1="434.7266" y2="434.7266"/><text fill="#000000" font-family="sans-serif" font-size="11" font-weight="bold" lengthAdjust="spacing" textLength="113.4429" x="25" y="444.937">[tipo == "STOCK"]</text><g class="message" data-entity-1="part2" data-entity-2="part5" id="msg8"><polygon fill="#181818" points="1155.0396,465.6641,1165.0396,469.6641,1155.0396,473.6641,1159.0396,469.6641" style="stroke:#181818;stroke-width:1;"/><line style="stroke:#181818;stroke-width:1;" x1="501.2168" x2="1161.0396" y1="469.6641" y2="469.6641"/><text fill="#000000" font-family="sans-serif" font-size="13" lengthAdjust="spacing" textLength="226.2876" x="508.2168" y="464.5981">buscarMedicamentos(filtro: String)</text></g><path d="M1072.7656,484.6641 L1149.3896,484.6641 L1149.3896,491.7969 L1139.3896,501.7969 L1072.7656,501.7969 L1072.7656,484.6641" fill="#EEEEEE" style="stroke:#000000;stroke-width:1.5;"/><rect fill="none" height="75.3984" style="stroke:#000000;stroke-width:1.5;" width="404.3906" x="1072.7656" y="484.6641"/><text fill="#000000" font-family="sans-serif" font-size="13" font-weight="bold" lengthAdjust="spacing" textLength="31.624" x="1087.7656" y="497.731">loop</text><text fill="#000000" font-family="sans-serif" font-size="11" font-weight="bold" lengthAdjust="spacing" textLength="143.4189" x="1164.3896" y="496.8745">[hasta filtro = nombre]</text><g class="message" data-entity-1="part5" data-entity-2="part6" id="msg9"><polygon fill="#181818" points="1352.2349,518.9297,1362.2349,522.9297,1352.2349,526.9297,1356.2349,522.9297" style="stroke:#181818;stroke-width:1;"/><line style="stroke:#181818;stroke-width:1;" x1="1177.0396" x2="1358.2349" y1="522.9297" y2="522.9297"/><text fill="#000000" font-family="sans-serif" font-size="13" lengthAdjust="spacing" textLength="83.4272" x="1184.0396" y="517.8638">getNombre()</text></g><g class="message" data-entity-1="part6" data-entity-2="part5" id="msg10"><polygon fill="#181818" points="1188.0396,548.0625,1178.0396,552.0625,1188.0396,556.0625,1184.0396,552.0625" style="stroke:#181818;stroke-width:1;"/><line style="stroke:#181818;stroke-width:1;stroke-dasharray:2,2;" x1="1182.0396" x2="1368.2349" y1="552.0625" y2="552.0625"/><text fill="#000000" font-family="sans-serif" font-size="13" lengthAdjust="spacing" textLength="113.6675" x="1194.0396" y="546.9966">&#171;nombre: String&#187;</text></g><g class="message" data-entity-1="part5" data-entity-2="part2" id="msg11"><polygon fill="#181818" points="512.2168,584.1953,502.2168,588.1953,512.2168,592.1953,508.2168,588.1953" style="stroke:#181818;stroke-width:1;"/><line style="stroke:#181818;stroke-width:1;stroke-dasharray:2,2;" x1="506.2168" x2="1171.0396" y1="588.1953" y2="588.1953"/><text fill="#000000" font-family="sans-serif" font-size="13" lengthAdjust="spacing" textLength="374.6768" x="518.2168" y="583.1294">&lt;&lt; medicamentosEncontrados : List&lt;Medicamento&gt; &gt;&gt;</text></g><path d="M30,603.1953 L94.4429,603.1953 L94.4429,610.3281 L84.4429,620.3281 L30,620.3281 L30,603.1953" fill="#EEEEEE" style="stroke:#000000;stroke-width:1.5;"/><rect fill="none" height="90.2031" style="stroke:#000000;stroke-width:1.5;" width="567.603" x="30" y="603.1953"/><text fill="#000000" font-family="sans-serif" font-size="13" font-weight="bold" lengthAdjust="spacing" textLength="19.4429" x="45" y="616.2622">alt</text><text fill="#000000" font-family="sans-serif" font-size="11" font-weight="bold" lengthAdjust="spacing" textLength="227.3154" x="109.4429" y="615.4058">[medicamentosEncontrados == null]</text><g class="message" data-entity-1="part2" data-entity-2="part1" id="msg12"><polygon fill="#181818" points="103.54,637.4609,93.54,641.4609,103.54,645.4609,99.54,641.4609" style="stroke:#181818;stroke-width:1;"/><line style="stroke:#181818;stroke-width:1;stroke-dasharray:2,2;" x1="97.54" x2="490.2168" y1="641.4609" y2="641.4609"/><text fill="#000000" font-family="sans-serif" font-size="13" lengthAdjust="spacing" textLength="120.1104" x="109.54" y="636.395">&#171;"Sin resultados"&#187;</text></g><line style="stroke:#000000;stroke-width:1;stroke-dasharray:2,2;" x1="30" x2="597.603" y1="650.4609" y2="650.4609"/><text fill="#000000" font-family="sans-serif" font-size="11" font-weight="bold" lengthAdjust="spacing" textLength="223.1152" x="35" y="660.6714">[medicamentosEncontrados != null]</text><g class="message" data-entity-1="part2" data-entity-2="part1" id="msg13"><polygon fill="#181818" points="103.54,681.3984,93.54,685.3984,103.54,689.3984,99.54,685.3984" style="stroke:#181818;stroke-width:1;"/><line style="stroke:#181818;stroke-width:1;stroke-dasharray:2,2;" x1="97.54" x2="490.2168" y1="685.3984" y2="685.3984"/><text fill="#000000" font-family="sans-serif" font-size="13" lengthAdjust="spacing" textLength="374.6768" x="109.54" y="680.3325">&lt;&lt; medicamentosEncontrados : List&lt;Medicamento&gt; &gt;&gt;</text></g><path d="M10,714.3984 L79.4512,714.3984 L79.4512,721.5313 L69.4512,731.5313 L10,731.5313 L10,714.3984" fill="#EEEEEE" style="stroke:#000000;stroke-width:1.5;"/><rect fill="none" height="342.0703" style="stroke:#000000;stroke-width:1.5;" width="1823.2988" x="10" y="714.3984"/><text fill="#000000" font-family="sans-serif" font-size="13" font-weight="bold" lengthAdjust="spacing" textLength="24.4512" x="25" y="727.4653">opt</text><text fill="#000000" font-family="sans-serif" font-size="11" font-weight="bold" lengthAdjust="spacing" textLength="214.9458" x="94.4512" y="726.6089">[El administrador decide exportar]</text><g class="message" data-entity-1="part1" data-entity-2="part2" id="msg14"><polygon fill="#181818" points="479.2168,748.6641,489.2168,752.6641,479.2168,756.6641,483.2168,752.6641" style="stroke:#181818;stroke-width:1;"/><line style="stroke:#181818;stroke-width:1;" x1="92.54" x2="485.2168" y1="752.6641" y2="752.6641"/><text fill="#000000" font-family="sans-serif" font-size="13" lengthAdjust="spacing" textLength="311.27" x="99.54" y="747.5981">procesarInforme(listaDatos: List, accion: String)</text></g><g class="message" data-entity-1="part2" data-entity-2="part7" id="msg15"><polygon fill="#181818" points="1551.4194,777.7969,1561.4194,781.7969,1551.4194,785.7969,1555.4194,781.7969" style="stroke:#181818;stroke-width:1;"/><line style="stroke:#181818;stroke-width:1;" x1="501.2168" x2="1557.4194" y1="781.7969" y2="781.7969"/><text fill="#000000" font-family="sans-serif" font-size="13" lengthAdjust="spacing" textLength="182.7109" x="508.2168" y="776.731">generarPDF(listaDatos: List)</text></g><g class="message" data-entity-1="part7" data-entity-2="part2" id="msg16"><polygon fill="#181818" points="512.2168,806.9297,502.2168,810.9297,512.2168,814.9297,508.2168,810.9297" style="stroke:#181818;stroke-width:1;"/><line style="stroke:#181818;stroke-width:1;stroke-dasharray:2,2;" x1="506.2168" x2="1567.4194" y1="810.9297" y2="810.9297"/><text fill="#000000" font-family="sans-serif" font-size="13" lengthAdjust="spacing" textLength="158.9009" x="518.2168" y="805.8638">&#171;archivoGenerado: File&#187;</text></g><path d="M20,825.9297 L84.4429,825.9297 L84.4429,833.0625 L74.4429,843.0625 L20,843.0625 L20,825.9297" fill="#EEEEEE" style="stroke:#000000;stroke-width:1.5;"/><rect fill="none" height="223.5391" style="stroke:#000000;stroke-width:1.5;" width="1803.2988" x="20" y="825.9297"/><text fill="#000000" font-family="sans-serif" font-size="13" font-weight="bold" lengthAdjust="spacing" textLength="19.4429" x="35" y="838.9966">alt</text><text fill="#000000" font-family="sans-serif" font-size="11" font-weight="bold" lengthAdjust="spacing" textLength="148.2905" x="99.4429" y="838.1401">[accion == "GUARDAR"]</text><g class="message" data-entity-1="part2" data-entity-2="part1" id="msg17"><polygon fill="#181818" points="103.54,860.1953,93.54,864.1953,103.54,868.1953,99.54,864.1953" style="stroke:#181818;stroke-width:1;"/><line style="stroke:#181818;stroke-width:1;stroke-dasharray:2,2;" x1="97.54" x2="490.2168" y1="864.1953" y2="864.1953"/><text fill="#000000" font-family="sans-serif" font-size="13" lengthAdjust="spacing" textLength="316.145" x="109.54" y="859.1294">&#171;"&#201;xito: Se ha guardado el archivo localmente"&#187;</text></g><line style="stroke:#000000;stroke-width:1;stroke-dasharray:2,2;" x1="20" x2="1823.2988" y1="873.1953" y2="873.1953"/><text fill="#000000" font-family="sans-serif" font-size="11" font-weight="bold" lengthAdjust="spacing" textLength="215.4185" x="25" y="883.4058">[accion == "ENVIAR_PROVEEDOR"]</text><g class="message" data-entity-1="part2" data-entity-2="part8" id="msg18"><polygon fill="#181818" points="1724.4907,904.1328,1734.4907,908.1328,1724.4907,912.1328,1728.4907,908.1328" style="stroke:#181818;stroke-width:1;"/><line style="stroke:#181818;stroke-width:1;" x1="501.2168" x2="1730.4907" y1="908.1328" y2="908.1328"/><text fill="#000000" font-family="sans-serif" font-size="13" lengthAdjust="spacing" textLength="357.9189" x="508.2168" y="903.0669">enviarCorreo(archivoGenerado: File, emailProv: String)</text></g><g class="message" data-entity-1="part8" data-entity-2="part2" id="msg19"><polygon fill="#181818" points="512.2168,933.2656,502.2168,937.2656,512.2168,941.2656,508.2168,937.2656" style="stroke:#181818;stroke-width:1;"/><line style="stroke:#181818;stroke-width:1;stroke-dasharray:2,2;" x1="506.2168" x2="1740.4907" y1="937.2656" y2="937.2656"/><text fill="#000000" font-family="sans-serif" font-size="13" lengthAdjust="spacing" textLength="124.8965" x="518.2168" y="932.1997">&#171;respuesta :  bool&#187;</text></g><path d="M30,952.2656 L94.4429,952.2656 L94.4429,959.3984 L84.4429,969.3984 L30,969.3984 L30,952.2656" fill="#EEEEEE" style="stroke:#000000;stroke-width:1.5;"/><rect fill="none" height="90.2031" style="stroke:#000000;stroke-width:1.5;" width="567.603" x="30" y="952.2656"/><text fill="#000000" font-family="sans-serif" font-size="13" font-weight="bold" lengthAdjust="spacing" textLength="19.4429" x="45" y="965.3325">alt</text><text fill="#000000" font-family="sans-serif" font-size="11" font-weight="bold" lengthAdjust="spacing" textLength="118.7441" x="109.4429" y="964.4761">[respuesta = false]</text><g class="message" data-entity-1="part2" data-entity-2="part1" id="msg20"><polygon fill="#181818" points="103.54,986.5313,93.54,990.5313,103.54,994.5313,99.54,990.5313" style="stroke:#181818;stroke-width:1;"/><line style="stroke:#181818;stroke-width:1;stroke-dasharray:2,2;" x1="97.54" x2="490.2168" y1="990.5313" y2="990.5313"/><text fill="#000000" font-family="sans-serif" font-size="13" lengthAdjust="spacing" textLength="154.5718" x="109.54" y="985.4653">&#171;"Error: Fall&#243; el env&#237;o"&#187;</text></g><line style="stroke:#000000;stroke-width:1;stroke-dasharray:2,2;" x1="30" x2="597.603" y1="999.5313" y2="999.5313"/><text fill="#000000" font-family="sans-serif" font-size="11" font-weight="bold" lengthAdjust="spacing" textLength="114.7319" x="35" y="1009.7417">[respuesta = true]</text><g class="message" data-entity-1="part2" data-entity-2="part1" id="msg21"><polygon fill="#181818" points="103.54,1030.4688,93.54,1034.4688,103.54,1038.4688,99.54,1034.4688" style="stroke:#181818;stroke-width:1;"/><line style="stroke:#181818;stroke-width:1;stroke-dasharray:2,2;" x1="97.54" x2="495.2168" y1="1034.4688" y2="1034.4688"/><text fill="#000000" font-family="sans-serif" font-size="13" lengthAdjust="spacing" textLength="175.4048" x="109.54" y="1029.4028">&#171;"&#201;xito: Informe enviado"&#187;</text></g><?plantuml-src dLPBRXin3DtFATXPEK1wWO5Zm4YSecZg67RhJLi4z0pj29N5WKOsSeKUfgiU8HSh9Nb-_XHjlJ3Y6V8zyl5HYbDE4zooSPOr4BmtQxPRIf9dLH2icTsANv84SySMqd6nLKPLpcB1DWMi0FsJf4JhLAvAD0xIJPxTezrYhl20sqJdpkf-S8vkcGs72sKscXoRqUYhkKM7cZUy9EEmYededlRXPpzTIp4OuhweRnc4lq9228OJhe-Nk3vIeNBSIXQtZ5igpj19w9VlGjP92HadqHiosJio5DIQKydMKGIND_tGAiyMPFVocs_PMZeKKTdzqnQLbW5udU7jA4W86LIi9TYXFGniu5J9XxypM3WhJLx3McdHl_vzvSUezkWe3Y91xS3dmSqDfCl9zDDuaIOWdq3YoHhPXP9NpZSJfp9ZUq_vCmxM_Zk3Eq6z2hajHpip_pnyQUOIPcXHtXOOvmLae9rZ20irjDnIIPnd9igvo7lL13Q4-rv-p7XxtCLm2A7aEMsYaG_5msZKf1Pq1fDCaHpNrSv3OEF3YSczwGNNipq8np3qDQe9Ek172lbnJ1agWd9Ni11690jQiABiCF288fpVhbQ2E2-f9jeabDDAMXtgc7v-U6ZA82qy2sfPs7Hu_X6vtw5NAWduZRaMdnvlFvnwIrP685UxAaVRtS31iN5FZEMNhU-gP_J2n4Iu0SFRbQMUcpoR44TICT8qX9npKetkFo6hLwz84D7h-YvufqO9UlIAwFbcsscySGytxkdeSib3dgXnq2Ku6OFPQVt7oQPoDeAbQgUTpqbxPha4_EOlWF-ZHwzQK8vB1nCTqUgxHnJ8_GL5B_vKHHkxFpeZIyivLUqH6Nmhkyu7srxBmEN0DQtDUWQLGphun1_WTdPtVv9_P4j_gFi7Fgy_ORJvizfpVHTaSAyqdPcbHsZc66iBs_FkytX-DvwdVvxTwuyNvVpEaEm2R7Pe2_J7YAxvPKzor5vbIZkERIVSePnCb-_7ywVP_74vcTmzdd2Fchj9sCdi5TfuSGtEDdiDv6DdblVzfUufs5ntzPk6ew-dEBJSKHKk15Yn_EDoVW5Fy5fA4RX5kO4rIl_DsuiIJwnbAnsXrg-_lBBI-UjFJhlyGSakjhExlu2kftSmQzIqw4CVhxw_n1jQKnnDDExFRm00?></g></svg>