<svg xmlns="http://www.w3.org/2000/svg" xmlns:xlink="http://www.w3.org/1999/xlink" contentStyleType="text/css" data-diagram-type="SEQUENCE" height="1167px" preserveAspectRatio="none" style="width:1652px;height:1167px;background:#FFFFFF;" version="1.1" viewBox="0 0 1652 1167" width="1652px" zoomAndPan="magnify"><title>Control e Informe</title><defs/><g><text fill="#000000" font-family="sans-serif" font-size="14" font-weight="bold" lengthAdjust="spacing" textLength="138.9883" x="758.4854" y="27.9951">Control e Informe</text><g><title>gc.GestionControlador</title><rect fill="#FFFFFF" height="1001.1406" style="stroke:#181818;stroke-width:1;" width="10" x="432.0142" y="149.7266"/></g><g><title>catV...Singleton..</title><rect fill="#FFFFFF" height="259.8672" style="stroke:#181818;stroke-width:1;" width="10" x="710.2104" y="202.9922"/></g><g><title>v.Venta</title><rect fill="#FFFFFF" height="29.1328" style="stroke:#181818;stroke-width:1;" width="10" x="905.9233" y="256.2578"/></g><g><title>catM...Singleton..</title><rect fill="#FFFFFF" height="259.8672" style="stroke:#181818;stroke-width:1;" width="10" x="1039.2642" y="498.7969"/></g><g><title>m.Medicamento</title><rect fill="#FFFFFF" height="29.1328" style="stroke:#181818;stroke-width:1;" width="10" x="1202.1772" y="552.0625"/></g><g><title>gen.GeneradorReportes</title><rect fill="#FFFFFF" height="29.1328" style="stroke:#181818;stroke-width:1;" width="10" x="1367.0796" y="840.0625"/></g><g><title>sc.ServicioCorreos</title><rect fill="#FFFFFF" height="170.4688" style="stroke:#181818;stroke-width:1;" width="10" x="1540.1509" y="966.3984"/></g><rect fill="none" height="593.9375" style="stroke:#000000;stroke-width:1.5;" width="1270.8164" x="20" y="164.7266"/><rect fill="none" height="75.3984" style="stroke:#000000;stroke-width:1.5;" width="316.3584" x="638.6318" y="217.9922"/><rect fill="none" height="148.4688" style="stroke:#000000;stroke-width:1.5;" width="761.7891" x="30" y="307.3906"/><rect fill="none" height="75.3984" style="stroke:#000000;stroke-width:1.5;" width="335.8262" x="944.9902" y="513.7969"/><rect fill="none" height="148.4688" style="stroke:#000000;stroke-width:1.5;" width="1113.5381" x="30" y="603.1953"/><rect fill="none" height="371.2031" style="stroke:#000000;stroke-width:1.5;" width="1636.959" x="10" y="772.6641"/><rect fill="none" height="252.6719" style="stroke:#000000;stroke-width:1.5;" width="1616.959" x="20" y="884.1953"/><rect fill="none" height="148.4688" style="stroke:#000000;stroke-width:1.5;" width="1596.959" x="30" y="981.3984"/><g class="participant-lifeline" data-entity-uid="part1" data-qualified-name="admin" id="part1-lifeline"><g><title>Administrador</title><rect fill="#000000" fill-opacity="0.00000" height="1042.2734" width="8" x="88.54" y="118.5938"/><line style="stroke:#181818;stroke-width:0.5;stroke-dasharray:5,5;" x1="92" x2="92" y1="118.5938" y2="1160.8672"/></g></g><g class="participant-lifeline" data-entity-uid="part2" data-qualified-name="ctrl" id="part2-lifeline"><g><title>gc.GestionControlador</title><rect fill="#000000" fill-opacity="0.00000" height="1042.2734" width="8" x="433.0142" y="118.5938"/><line style="stroke:#181818;stroke-width:0.5;stroke-dasharray:5,5;" x1="436.2266" x2="436.2266" y1="118.5938" y2="1160.8672"/></g></g><g class="participant-lifeline" data-entity-uid="part3" data-qualified-name="cat_ventas" id="part3-lifeline"><g><title>catV...Singleton..</title><rect fill="#000000" fill-opacity="0.00000" height="1042.2734" width="8" x="711.2104" y="118.5938"/><line style="stroke:#181818;stroke-width:0.5;stroke-dasharray:5,5;" x1="714.6318" x2="714.6318" y1="118.5938" y2="1160.8672"/></g></g><g class="participant-lifeline" data-entity-uid="part4" data-qualified-name="venta" id="part4-lifeline"><g><title>v.Venta</title><rect fill="#000000" fill-opacity="0.00000" height="1042.2734" width="8" x="906.9233" y="118.5938"/><line style="stroke:#181818;stroke-width:0.5;stroke-dasharray:5,5;" x1="910.8564" x2="910.8564" y1="118.5938" y2="1160.8672"/></g></g><g class="participant-lifeline" data-entity-uid="part5" data-qualified-name="cat_med" id="part5-lifeline"><g><title>catM...Singleton..</title><rect fill="#000000" fill-opacity="0.00000" height="1042.2734" width="8" x="1040.2642" y="118.5938"/><line style="stroke:#181818;stroke-width:0.5;stroke-dasharray:5,5;" x1="1043.9902" x2="1043.9902" y1="118.5938" y2="1160.8672"/></g></g><g class="participant-lifeline" data-entity-uid="part6" data-qualified-name="med" id="part6-lifeline"><g><title>m.Medicamento</title><rect fill="#000000" fill-opacity="0.00000" height="1042.2734" width="8" x="1203.1772" y="118.5938"/><line style="stroke:#181818;stroke-width:0.5;stroke-dasharray:5,5;" x1="1206.5381" x2="1206.5381" y1="118.5938" y2="1160.8672"/></g></g><g class="participant-lifeline" data-entity-uid="part7" data-qualified-name="gen" id="part7-lifeline"><g><title>gen.GeneradorReportes</title><rect fill="#000000" fill-opacity="0.00000" height="1042.2734" width="8" x="1368.0796" y="118.5938"/><line style="stroke:#181818;stroke-width:0.5;stroke-dasharray:5,5;" x1="1371.8164" x2="1371.8164" y1="118.5938" y2="1160.8672"/></g></g><g class="participant-lifeline" data-entity-uid="part8" data-qualified-name="srv_mail" id="part8-lifeline"><g><title>sc.ServicioCorreos</title><rect fill="#000000" fill-opacity="0.00000" height="1042.2734" width="8" x="1541.1509" y="118.5938"/><line style="stroke:#181818;stroke-width:0.5;stroke-dasharray:5,5;" x1="1544.3428" x2="1544.3428" y1="118.5938" y2="1160.8672"/></g></g><g class="participant participant-head" data-entity-uid="part1" data-qualified-name="admin" id="part1-head"><text fill="#000000" font-family="sans-serif" font-size="14" lengthAdjust="spacing" textLength="99.0801" x="40" y="115.292">Administrador</text><ellipse cx="92.54" cy="50.7969" fill="#E2E2F0" rx="8" ry="8" style="stroke:#181818;stroke-width:0.5;"/><path d="M92.54,58.7969 L92.54,85.7969 M79.54,66.7969 L105.54,66.7969 M92.54,85.7969 L79.54,100.7969 M92.54,85.7969 L105.54,100.7969" fill="none" style="stroke:#181818;stroke-width:0.5;"/></g><g class="participant participant-head" data-entity-uid="part2" data-qualified-name="ctrl" id="part2-head"><rect fill="#E2E2F0" height="30.2969" rx="2.5" ry="2.5" style="stroke:#181818;stroke-width:0.5;" width="171.5752" x="351.2266" y="87.2969"/><text fill="#000000" font-family="sans-serif" font-size="14" lengthAdjust="spacing" textLength="157.5752" x="358.2266" y="107.292">gc:GestionControlador</text></g><g class="participant participant-head" data-entity-uid="part3" data-qualified-name="cat_ventas" id="part3-head"><rect fill="#E2E2F0" height="46.5938" rx="2.5" ry="2.5" style="stroke:#181818;stroke-width:0.5;" width="133.1572" x="648.6318" y="71"/><text fill="#000000" font-family="sans-serif" font-size="14" lengthAdjust="spacing" textLength="119.1572" x="655.6318" y="90.9951">catV:&#171;Singleton&#187;</text><text fill="#000000" font-family="sans-serif" font-size="14" lengthAdjust="spacing" textLength="110.7559" x="659.8325" y="107.292">CatalogoVentas</text></g><g class="participant participant-head" data-entity-uid="part4" data-qualified-name="venta" id="part4-head"><rect fill="#E2E2F0" height="30.2969" rx="2.5" ry="2.5" style="stroke:#181818;stroke-width:0.5;" width="68.1338" x="876.8564" y="87.2969"/><text fill="#000000" font-family="sans-serif" font-size="14" lengthAdjust="spacing" textLength="54.1338" x="883.8564" y="107.292">v:Venta</text></g><g class="participant participant-head" data-entity-uid="part5" data-qualified-name="cat_med" id="part5-head"><rect fill="#E2E2F0" height="46.5938" rx="2.5" ry="2.5" style="stroke:#181818;stroke-width:0.5;" width="178.5479" x="954.9902" y="71"/><text fill="#000000" font-family="sans-serif" font-size="14" lengthAdjust="spacing" textLength="121.6592" x="983.4346" y="90.9951">catM:&#171;Singleton&#187;</text><text fill="#000000" font-family="sans-serif" font-size="14" lengthAdjust="spacing" textLength="164.5479" x="961.9902" y="107.292">CatalogoMedicamentos</text></g><g class="participant participant-head" data-entity-uid="part6" data-qualified-name="med" id="part6-head"><rect fill="#E2E2F0" height="30.2969" rx="2.5" ry="2.5" style="stroke:#181818;stroke-width:0.5;" width="127.2783" x="1143.5381" y="87.2969"/><text fill="#000000" font-family="sans-serif" font-size="14" lengthAdjust="spacing" textLength="113.2783" x="1150.5381" y="107.292">m:Medicamento</text></g><g class="participant participant-head" data-entity-uid="part7" data-qualified-name="gen" id="part7-head"><rect fill="#E2E2F0" height="30.2969" rx="2.5" ry="2.5" style="stroke:#181818;stroke-width:0.5;" width="182.5264" x="1280.8164" y="87.2969"/><text fill="#000000" font-family="sans-serif" font-size="14" lengthAdjust="spacing" textLength="168.5264" x="1287.8164" y="107.292">gen:GeneradorReportes</text></g><g class="participant participant-head" data-entity-uid="part8" data-qualified-name="srv_mail" id="part8-head"><rect fill="#E2E2F0" height="30.2969" rx="2.5" ry="2.5" style="stroke:#181818;stroke-width:0.5;" width="143.6162" x="1473.3428" y="87.2969"/><text fill="#000000" font-family="sans-serif" font-size="14" lengthAdjust="spacing" textLength="129.6162" x="1480.3428" y="107.292">sc:ServicioCorreos</text></g><g><title>gc.GestionControlador</title><rect fill="#FFFFFF" height="1001.1406" style="stroke:#181818;stroke-width:1;" width="10" x="432.0142" y="149.7266"/></g><g><title>catV...Singleton..</title><rect fill="#FFFFFF" height="259.8672" style="stroke:#181818;stroke-width:1;" width="10" x="710.2104" y="202.9922"/></g><g><title>v.Venta</title><rect fill="#FFFFFF" height="29.1328" style="stroke:#181818;stroke-width:1;" width="10" x="905.9233" y="256.2578"/></g><g><title>catM...Singleton..</title><rect fill="#FFFFFF" height="259.8672" style="stroke:#181818;stroke-width:1;" width="10" x="1039.2642" y="498.7969"/></g><g><title>m.Medicamento</title><rect fill="#FFFFFF" height="29.1328" style="stroke:#181818;stroke-width:1;" width="10" x="1202.1772" y="552.0625"/></g><g><title>gen.GeneradorReportes</title><rect fill="#FFFFFF" height="29.1328" style="stroke:#181818;stroke-width:1;" width="10" x="1367.0796" y="840.0625"/></g><g><title>sc.ServicioCorreos</title><rect fill="#FFFFFF" height="170.4688" style="stroke:#181818;stroke-width:1;" width="10" x="1540.1509" y="966.3984"/></g><g class="message" data-entity-1="part1" data-entity-2="part2" id="msg1"><polygon fill="#181818" points="420.0142,145.7266,430.0142,149.7266,420.0142,153.7266,424.0142,149.7266" style="stroke:#181818;stroke-width:1;"/><line style="stroke:#181818;stroke-width:1;" x1="92.54" x2="426.0142" y1="149.7266" y2="149.7266"/><text fill="#000000" font-family="sans-serif" font-size="13" lengthAdjust="spacing" textLength="320.4741" x="99.54" y="144.6606">solicitarInforme(tipoInforme: String, filtro: String)</text></g><path d="M20,164.7266 L84.4429,164.7266 L84.4429,171.8594 L74.4429,181.8594 L20,181.8594 L20,164.7266" fill="#EEEEEE" style="stroke:#000000;stroke-width:1.5;"/><rect fill="none" height="593.9375" style="stroke:#000000;stroke-width:1.5;" width="1270.8164" x="20" y="164.7266"/><text fill="#000000" font-family="sans-serif" font-size="13" font-weight="bold" lengthAdjust="spacing" textLength="19.4429" x="35" y="177.7935">alt</text><text fill="#000000" font-family="sans-serif" font-size="11" font-weight="bold" lengthAdjust="spacing" textLength="121.2417" x="99.4429" y="176.937">[tipo == "VENTAS"]</text><g class="message" data-entity-1="part2" data-entity-2="part3" id="msg2"><polygon fill="#181818" points="698.2104,198.9922,708.2104,202.9922,698.2104,206.9922,702.2104,202.9922" style="stroke:#181818;stroke-width:1;"/><line style="stroke:#181818;stroke-width:1;" x1="442.0142" x2="704.2104" y1="202.9922" y2="202.9922"/><text fill="#000000" font-family="sans-serif" font-size="13" lengthAdjust="spacing" textLength="249.1963" x="449.0142" y="197.9263">obtenerVentasPorFecha(fecha: String)</text></g><path d="M638.6318,217.9922 L715.2559,217.9922 L715.2559,225.125 L705.2559,235.125 L638.6318,235.125 L638.6318,217.9922" fill="#EEEEEE" style="stroke:#000000;stroke-width:1.5;"/><rect fill="none" height="75.3984" style="stroke:#000000;stroke-width:1.5;" width="316.3584" x="638.6318" y="217.9922"/><text fill="#000000" font-family="sans-serif" font-size="13" font-weight="bold" lengthAdjust="spacing" textLength="31.624" x="653.6318" y="231.0591">loop</text><text fill="#000000" font-family="sans-serif" font-size="11" font-weight="bold" lengthAdjust="spacing" textLength="175.1729" x="730.2559" y="230.2026">[Para cada venta en la lista]</text><g class="message" data-entity-1="part3" data-entity-2="part4" id="msg3"><polygon fill="#181818" points="893.9233,252.2578,903.9233,256.2578,893.9233,260.2578,897.9233,256.2578" style="stroke:#181818;stroke-width:1;"/><line style="stroke:#181818;stroke-width:1;" x1="720.2104" x2="899.9233" y1="256.2578" y2="256.2578"/><text fill="#000000" font-family="sans-serif" font-size="13" lengthAdjust="spacing" textLength="70.3193" x="727.2104" y="251.1919">getFecha()</text></g><g class="message" data-entity-1="part4" data-entity-2="part3" id="msg4"><polygon fill="#181818" points="731.2104,281.3906,721.2104,285.3906,731.2104,289.3906,727.2104,285.3906" style="stroke:#181818;stroke-width:1;"/><line style="stroke:#181818;stroke-width:1;stroke-dasharray:2,2;" x1="725.2104" x2="909.9233" y1="285.3906" y2="285.3906"/><text fill="#000000" font-family="sans-serif" font-size="13" lengthAdjust="spacing" textLength="161.7129" x="737.2104" y="280.3247">&#171;fechaRegistrada: Date&#187;</text></g><path d="M30,307.3906 L94.4429,307.3906 L94.4429,314.5234 L84.4429,324.5234 L30,324.5234 L30,307.3906" fill="#EEEEEE" style="stroke:#000000;stroke-width:1.5;"/><rect fill="none" height="148.4688" style="stroke:#000000;stroke-width:1.5;" width="761.7891" x="30" y="307.3906"/><text fill="#000000" font-family="sans-serif" font-size="13" font-weight="bold" lengthAdjust="spacing" textLength="19.4429" x="45" y="320.4575">alt</text><text fill="#000000" font-family="sans-serif" font-size="11" font-weight="bold" lengthAdjust="spacing" textLength="102.1475" x="109.4429" y="319.6011">[Sin Resultados]</text><g class="message" data-entity-1="part3" data-entity-2="part2" id="msg5"><polygon fill="#181818" points="453.0142,341.6563,443.0142,345.6563,453.0142,349.6563,449.0142,345.6563" style="stroke:#181818;stroke-width:1;"/><line style="stroke:#181818;stroke-width:1;stroke-dasharray:2,2;" x1="447.0142" x2="709.2104" y1="345.6563" y2="345.6563"/><text fill="#000000" font-family="sans-serif" font-size="13" lengthAdjust="spacing" textLength="39.6094" x="459.0142" y="340.5903">&#171;null&#187;</text></g><g class="message" data-entity-1="part2" data-entity-2="part1" id="msg6"><polygon fill="#181818" points="103.54,370.7891,93.54,374.7891,103.54,378.7891,99.54,374.7891" style="stroke:#181818;stroke-width:1;"/><line style="stroke:#181818;stroke-width:1;stroke-dasharray:2,2;" x1="97.54" x2="431.0142" y1="374.7891" y2="374.7891"/><text fill="#000000" font-family="sans-serif" font-size="13" lengthAdjust="spacing" textLength="120.1104" x="109.54" y="369.7231">&#171;"Sin resultados"&#187;</text></g><line style="stroke:#000000;stroke-width:1;stroke-dasharray:2,2;" x1="30" x2="791.7891" y1="383.7891" y2="383.7891"/><text fill="#000000" font-family="sans-serif" font-size="11" font-weight="bold" lengthAdjust="spacing" textLength="114.5493" x="35" y="393.9995">[Lista Encontrada]</text><g class="message" data-entity-1="part3" data-entity-2="part2" id="msg7"><polygon fill="#181818" points="453.0142,414.7266,443.0142,418.7266,453.0142,422.7266,449.0142,418.7266" style="stroke:#181818;stroke-width:1;"/><line style="stroke:#181818;stroke-width:1;stroke-dasharray:2,2;" x1="447.0142" x2="709.2104" y1="418.7266" y2="418.7266"/><text fill="#000000" font-family="sans-serif" font-size="13" lengthAdjust="spacing" textLength="215.0776" x="459.0142" y="413.6606">&lt;&lt; listaVentas: List&lt;Venta&gt; &gt;&gt;</text></g><g class="message" data-entity-1="part2" data-entity-2="part1" id="msg8"><polygon fill="#181818" points="103.54,443.8594,93.54,447.8594,103.54,451.8594,99.54,447.8594" style="stroke:#181818;stroke-width:1;"/><line style="stroke:#181818;stroke-width:1;stroke-dasharray:2,2;" x1="97.54" x2="431.0142" y1="447.8594" y2="447.8594"/><text fill="#000000" font-family="sans-serif" font-size="13" lengthAdjust="spacing" textLength="215.0776" x="109.54" y="442.7935">&lt;&lt; listaVentas: List&lt;Venta&gt; &gt;&gt;</text></g><line style="stroke:#000000;stroke-width:1;stroke-dasharray:2,2;" x1="20" x2="1290.8164" y1="463.8594" y2="463.8594"/><text fill="#000000" font-family="sans-serif" font-size="11" font-weight="bold" lengthAdjust="spacing" textLength="113.4429" x="25" y="474.0698">[tipo == "STOCK"]</text><g class="message" data-entity-1="part2" data-entity-2="part5" id="msg9"><polygon fill="#181818" points="1027.2642,494.7969,1037.2642,498.7969,1027.2642,502.7969,1031.2642,498.7969" style="stroke:#181818;stroke-width:1;"/><line style="stroke:#181818;stroke-width:1;" x1="442.0142" x2="1033.2642" y1="498.7969" y2="498.7969"/><text fill="#000000" font-family="sans-serif" font-size="13" lengthAdjust="spacing" textLength="226.2876" x="449.0142" y="493.731">buscarMedicamentos(filtro: String)</text></g><path d="M944.9902,513.7969 L1021.6143,513.7969 L1021.6143,520.9297 L1011.6143,530.9297 L944.9902,530.9297 L944.9902,513.7969" fill="#EEEEEE" style="stroke:#000000;stroke-width:1.5;"/><rect fill="none" height="75.3984" style="stroke:#000000;stroke-width:1.5;" width="335.8262" x="944.9902" y="513.7969"/><text fill="#000000" font-family="sans-serif" font-size="13" font-weight="bold" lengthAdjust="spacing" textLength="31.624" x="959.9902" y="526.8638">loop</text><text fill="#000000" font-family="sans-serif" font-size="11" font-weight="bold" lengthAdjust="spacing" textLength="224.1089" x="1036.6143" y="526.0073">[Para cada medicamento en la lista]</text><g class="message" data-entity-1="part5" data-entity-2="part6" id="msg10"><polygon fill="#181818" points="1190.1772,548.0625,1200.1772,552.0625,1190.1772,556.0625,1194.1772,552.0625" style="stroke:#181818;stroke-width:1;"/><line style="stroke:#181818;stroke-width:1;" x1="1049.2642" x2="1196.1772" y1="552.0625" y2="552.0625"/><text fill="#000000" font-family="sans-serif" font-size="13" lengthAdjust="spacing" textLength="83.4272" x="1056.2642" y="546.9966">getNombre()</text></g><g class="message" data-entity-1="part6" data-entity-2="part5" id="msg11"><polygon fill="#181818" points="1060.2642,577.1953,1050.2642,581.1953,1060.2642,585.1953,1056.2642,581.1953" style="stroke:#181818;stroke-width:1;"/><line style="stroke:#181818;stroke-width:1;stroke-dasharray:2,2;" x1="1054.2642" x2="1206.1772" y1="581.1953" y2="581.1953"/><text fill="#000000" font-family="sans-serif" font-size="13" lengthAdjust="spacing" textLength="113.6675" x="1066.2642" y="576.1294">&#171;nombre: String&#187;</text></g><path d="M30,603.1953 L94.4429,603.1953 L94.4429,610.3281 L84.4429,620.3281 L30,620.3281 L30,603.1953" fill="#EEEEEE" style="stroke:#000000;stroke-width:1.5;"/><rect fill="none" height="148.4688" style="stroke:#000000;stroke-width:1.5;" width="1113.5381" x="30" y="603.1953"/><text fill="#000000" font-family="sans-serif" font-size="13" font-weight="bold" lengthAdjust="spacing" textLength="19.4429" x="45" y="616.2622">alt</text><text fill="#000000" font-family="sans-serif" font-size="11" font-weight="bold" lengthAdjust="spacing" textLength="102.1475" x="109.4429" y="615.4058">[Sin Resultados]</text><g class="message" data-entity-1="part5" data-entity-2="part2" id="msg12"><polygon fill="#181818" points="453.0142,637.4609,443.0142,641.4609,453.0142,645.4609,449.0142,641.4609" style="stroke:#181818;stroke-width:1;"/><line style="stroke:#181818;stroke-width:1;stroke-dasharray:2,2;" x1="447.0142" x2="1038.2642" y1="641.4609" y2="641.4609"/><text fill="#000000" font-family="sans-serif" font-size="13" lengthAdjust="spacing" textLength="39.6094" x="459.0142" y="636.395">&#171;null&#187;</text></g><g class="message" data-entity-1="part2" data-entity-2="part1" id="msg13"><polygon fill="#181818" points="103.54,666.5938,93.54,670.5938,103.54,674.5938,99.54,670.5938" style="stroke:#181818;stroke-width:1;"/><line style="stroke:#181818;stroke-width:1;stroke-dasharray:2,2;" x1="97.54" x2="431.0142" y1="670.5938" y2="670.5938"/><text fill="#000000" font-family="sans-serif" font-size="13" lengthAdjust="spacing" textLength="120.1104" x="109.54" y="665.5278">&#171;"Sin resultados"&#187;</text></g><line style="stroke:#000000;stroke-width:1;stroke-dasharray:2,2;" x1="30" x2="1143.5381" y1="679.5938" y2="679.5938"/><text fill="#000000" font-family="sans-serif" font-size="11" font-weight="bold" lengthAdjust="spacing" textLength="114.5493" x="35" y="689.8042">[Lista Encontrada]</text><g class="message" data-entity-1="part5" data-entity-2="part2" id="msg14"><polygon fill="#181818" points="453.0142,710.5313,443.0142,714.5313,453.0142,718.5313,449.0142,714.5313" style="stroke:#181818;stroke-width:1;"/><line style="stroke:#181818;stroke-width:1;stroke-dasharray:2,2;" x1="447.0142" x2="1038.2642" y1="714.5313" y2="714.5313"/><text fill="#000000" font-family="sans-serif" font-size="13" lengthAdjust="spacing" textLength="247.5269" x="459.0142" y="709.4653">&lt;&lt; listaMed: List&lt;Medicamento&gt; &gt;&gt;</text></g><g class="message" data-entity-1="part2" data-entity-2="part1" id="msg15"><polygon fill="#181818" points="103.54,739.6641,93.54,743.6641,103.54,747.6641,99.54,743.6641" style="stroke:#181818;stroke-width:1;"/><line style="stroke:#181818;stroke-width:1;stroke-dasharray:2,2;" x1="97.54" x2="431.0142" y1="743.6641" y2="743.6641"/><text fill="#000000" font-family="sans-serif" font-size="13" lengthAdjust="spacing" textLength="247.5269" x="109.54" y="738.5981">&lt;&lt; listaMed: List&lt;Medicamento&gt; &gt;&gt;</text></g><path d="M10,772.6641 L79.4512,772.6641 L79.4512,779.7969 L69.4512,789.7969 L10,789.7969 L10,772.6641" fill="#EEEEEE" style="stroke:#000000;stroke-width:1.5;"/><rect fill="none" height="371.2031" style="stroke:#000000;stroke-width:1.5;" width="1636.959" x="10" y="772.6641"/><text fill="#000000" font-family="sans-serif" font-size="13" font-weight="bold" lengthAdjust="spacing" textLength="24.4512" x="25" y="785.731">opt</text><text fill="#000000" font-family="sans-serif" font-size="11" font-weight="bold" lengthAdjust="spacing" textLength="214.9458" x="94.4512" y="784.8745">[El administrador decide exportar]</text><g class="message" data-entity-1="part1" data-entity-2="part2" id="msg16"><polygon fill="#181818" points="420.0142,806.9297,430.0142,810.9297,420.0142,814.9297,424.0142,810.9297" style="stroke:#181818;stroke-width:1;"/><line style="stroke:#181818;stroke-width:1;" x1="92.54" x2="426.0142" y1="810.9297" y2="810.9297"/><text fill="#000000" font-family="sans-serif" font-size="13" lengthAdjust="spacing" textLength="311.27" x="99.54" y="805.8638">procesarInforme(listaDatos: List, accion: String)</text></g><g class="message" data-entity-1="part2" data-entity-2="part7" id="msg17"><polygon fill="#181818" points="1355.0796,836.0625,1365.0796,840.0625,1355.0796,844.0625,1359.0796,840.0625" style="stroke:#181818;stroke-width:1;"/><line style="stroke:#181818;stroke-width:1;" x1="442.0142" x2="1361.0796" y1="840.0625" y2="840.0625"/><text fill="#000000" font-family="sans-serif" font-size="13" lengthAdjust="spacing" textLength="182.7109" x="449.0142" y="834.9966">generarPDF(listaDatos: List)</text></g><g class="message" data-entity-1="part7" data-entity-2="part2" id="msg18"><polygon fill="#181818" points="453.0142,865.1953,443.0142,869.1953,453.0142,873.1953,449.0142,869.1953" style="stroke:#181818;stroke-width:1;"/><line style="stroke:#181818;stroke-width:1;stroke-dasharray:2,2;" x1="447.0142" x2="1371.0796" y1="869.1953" y2="869.1953"/><text fill="#000000" font-family="sans-serif" font-size="13" lengthAdjust="spacing" textLength="158.9009" x="459.0142" y="864.1294">&#171;archivoGenerado: File&#187;</text></g><path d="M20,884.1953 L84.4429,884.1953 L84.4429,891.3281 L74.4429,901.3281 L20,901.3281 L20,884.1953" fill="#EEEEEE" style="stroke:#000000;stroke-width:1.5;"/><rect fill="none" height="252.6719" style="stroke:#000000;stroke-width:1.5;" width="1616.959" x="20" y="884.1953"/><text fill="#000000" font-family="sans-serif" font-size="13" font-weight="bold" lengthAdjust="spacing" textLength="19.4429" x="35" y="897.2622">alt</text><text fill="#000000" font-family="sans-serif" font-size="11" font-weight="bold" lengthAdjust="spacing" textLength="148.2905" x="99.4429" y="896.4058">[accion == "GUARDAR"]</text><g class="message" data-entity-1="part2" data-entity-2="part1" id="msg19"><polygon fill="#181818" points="103.54,918.4609,93.54,922.4609,103.54,926.4609,99.54,922.4609" style="stroke:#181818;stroke-width:1;"/><line style="stroke:#181818;stroke-width:1;stroke-dasharray:2,2;" x1="97.54" x2="431.0142" y1="922.4609" y2="922.4609"/><text fill="#000000" font-family="sans-serif" font-size="13" lengthAdjust="spacing" textLength="203.4233" x="109.54" y="917.395">&#171;Descarga (archivoGenerado)&#187;</text></g><line style="stroke:#000000;stroke-width:1;stroke-dasharray:2,2;" x1="20" x2="1636.959" y1="931.4609" y2="931.4609"/><text fill="#000000" font-family="sans-serif" font-size="11" font-weight="bold" lengthAdjust="spacing" textLength="215.4185" x="25" y="941.6714">[accion == "ENVIAR_PROVEEDOR"]</text><g class="message" data-entity-1="part2" data-entity-2="part8" id="msg20"><polygon fill="#181818" points="1528.1509,962.3984,1538.1509,966.3984,1528.1509,970.3984,1532.1509,966.3984" style="stroke:#181818;stroke-width:1;"/><line style="stroke:#181818;stroke-width:1;" x1="442.0142" x2="1534.1509" y1="966.3984" y2="966.3984"/><text fill="#000000" font-family="sans-serif" font-size="13" lengthAdjust="spacing" textLength="314.7612" x="449.0142" y="961.3325">enviarCorreo(archivoPdf: File, emailProv: String)</text></g><path d="M30,981.3984 L94.4429,981.3984 L94.4429,988.5313 L84.4429,998.5313 L30,998.5313 L30,981.3984" fill="#EEEEEE" style="stroke:#000000;stroke-width:1.5;"/><rect fill="none" height="148.4688" style="stroke:#000000;stroke-width:1.5;" width="1596.959" x="30" y="981.3984"/><text fill="#000000" font-family="sans-serif" font-size="13" font-weight="bold" lengthAdjust="spacing" textLength="19.4429" x="45" y="994.4653">alt</text><text fill="#000000" font-family="sans-serif" font-size="11" font-weight="bold" lengthAdjust="spacing" textLength="79.0195" x="109.4429" y="993.6089">[Error envio]</text><g class="message" data-entity-1="part8" data-entity-2="part2" id="msg21"><polygon fill="#181818" points="453.0142,1015.6641,443.0142,1019.6641,453.0142,1023.6641,449.0142,1019.6641" style="stroke:#181818;stroke-width:1;"/><line style="stroke:#181818;stroke-width:1;stroke-dasharray:2,2;" x1="447.0142" x2="1539.1509" y1="1019.6641" y2="1019.6641"/><text fill="#000000" font-family="sans-serif" font-size="13" lengthAdjust="spacing" textLength="46.833" x="459.0142" y="1014.5981">&#171;false&#187;</text></g><g class="message" data-entity-1="part2" data-entity-2="part1" id="msg22"><polygon fill="#181818" points="103.54,1044.7969,93.54,1048.7969,103.54,1052.7969,99.54,1048.7969" style="stroke:#181818;stroke-width:1;"/><line style="stroke:#181818;stroke-width:1;stroke-dasharray:2,2;" x1="97.54" x2="431.0142" y1="1048.7969" y2="1048.7969"/><text fill="#000000" font-family="sans-serif" font-size="13" lengthAdjust="spacing" textLength="154.5718" x="109.54" y="1043.731">&#171;"Error: Fall&#243; el env&#237;o"&#187;</text></g><line style="stroke:#000000;stroke-width:1;stroke-dasharray:2,2;" x1="30" x2="1626.959" y1="1057.7969" y2="1057.7969"/><text fill="#000000" font-family="sans-serif" font-size="11" font-weight="bold" lengthAdjust="spacing" textLength="93.0273" x="35" y="1068.0073">[Envio Exitoso]</text><g class="message" data-entity-1="part8" data-entity-2="part2" id="msg23"><polygon fill="#181818" points="453.0142,1088.7344,443.0142,1092.7344,453.0142,1096.7344,449.0142,1092.7344" style="stroke:#181818;stroke-width:1;"/><line style="stroke:#181818;stroke-width:1;stroke-dasharray:2,2;" x1="447.0142" x2="1539.1509" y1="1092.7344" y2="1092.7344"/><text fill="#000000" font-family="sans-serif" font-size="13" lengthAdjust="spacing" textLength="42.5864" x="459.0142" y="1087.6685">&#171;true&#187;</text></g><g class="message" data-entity-1="part2" data-entity-2="part1" id="msg24"><polygon fill="#181818" points="103.54,1117.8672,93.54,1121.8672,103.54,1125.8672,99.54,1121.8672" style="stroke:#181818;stroke-width:1;"/><line style="stroke:#181818;stroke-width:1;stroke-dasharray:2,2;" x1="97.54" x2="431.0142" y1="1121.8672" y2="1121.8672"/><text fill="#000000" font-family="sans-serif" font-size="13" lengthAdjust="spacing" textLength="175.4048" x="109.54" y="1116.8013">&#171;"&#201;xito: Informe enviado"&#187;</text></g><!--SRC=[lLR1Rjiu4BthAmQwD07Ym_Oek0Qyjb84tSHUk_LfWO2HnWu1YZGesiWlxA6VqbC_mJ-sCwH5INQSTW-j3aP4pSoRcVU64oUTGfWOxQnHW72dryPMc2JFiaHO6-EUp4kIYC8P2-cuhAIMjREYD3O5KOFWasGhh9E5t0hj8DqKsKUidJJw63OQ5ywglcqXt2eR3fTIRnGweqUZV_H4EA7CngnGEr47H-4Uz_wrxxxFl96tyT_XBFpzfV3tMCf2LEHbMf0Aotw4AklOURCpamrgAbYZRye2jyOw317fIz-qBh8bsZszcucn5e_8jTq_LaAg97a7Wy40vkFb3Fx8O6aKcRfT2MLaXWqIttKOZ7n78OCw60fxDBfoSckEVrCOPwa1Dx2MYkXetg-PLBaN3WClYL0Es0y-V81qbJzy7Y_J1EZn80mMMI18y-Iuva3ItDXRB9x5rPf_MmJsRb5Q4ldS_oXZjZ0NLj3NKXmvH0rAW2AT2M_aSsYnAPDWbr63NS2zZeOHpjl4u-0nEArYE0IVyW8tGTQK_9IzHwFeMk8hCL6NRHNSET8OBB3UAKSog5_Dk-MBOFLEgIvAQ3AP16wzJSf1RGoQDlQeQeI_k3-GwuA7Z1B_CQJlQ20iy-v3_pBgfl4E9kFxF-zcCFxxo-5hHYNHu6iH2O5IMYoSdmTyC_aVeJKTxBItev34rnZbkFmyctmwLoFD8e4zxUf2sEuyNvrA_Ko8FCMNL5YraIvgaP4fYP00oV31L4yMNzDXWyIFz-hbpahmhask5vJNHFa_kejelqbqvtY-RqJCKG0TYdwbwDu6lA0xRZ1_wbx1xpEOMrDWBIhfrS1thzawo5K0RLOX1IjuN-8Bt_x21dPEBkbj21NlQ9yhNJRcE1ytf1bQ3BfLRHAQCqM56r78mtSDMwzIYy8I8I1iyIptfZSNj7Iy97aXsVdqzWpdP1fuIV41-_NPEqPlTbi6jrB5cx7JFeuGzHXgy4FxySjuCHqlqZSPco8FxqR0rGdSTLSXhG8xyVE7rTruyJXVp5PvFfsT0OtYOYKer7ifRDYw3TIyN8UYRW3PZCZUz- -CNgVYckvbrHIUMqj2O1WJp_c9EVIRknPSJQV4Y_Fe0rEUGgd3TsQTC0xVJDfrzgt96Hlo5qbK_rGEpkv-BeN3lnmqY_-3-6QM9odeyhMBgzSqjl53rXq-0lmF]--></g></svg>