<svg xmlns="http://www.w3.org/2000/svg" xmlns:xlink="http://www.w3.org/1999/xlink" contentStyleType="text/css" data-diagram-type="SEQUENCE" height="1555px" preserveAspectRatio="none" style="width:1866px;height:1555px;background:#FFFFFF;" version="1.1" viewBox="0 0 1866 1555" width="1866px" zoomAndPan="magnify"><title>Control e Informe: Reportes y Pedidos</title><defs/><g><text fill="#000000" font-family="sans-serif" font-size="14" font-weight="bold" lengthAdjust="spacing" textLength="302.2236" x="788.804" y="27.9951">Control e Informe: Reportes y Pedidos</text><g><title>NegocioControlador</title><rect fill="#FFFFFF" height="29.1328" style="stroke:#181818;stroke-width:1;" width="10" x="400.5552" y="149.7266"/></g><g><title>NegocioControlador</title><rect fill="#FFFFFF" height="1330.4531" style="stroke:#181818;stroke-width:1;" width="10" x="400.5552" y="207.9922"/></g><g><title>List.Venta.. catalogoVentas</title><rect fill="#FFFFFF" height="118.5313" style="stroke:#181818;stroke-width:1;" width="10" x="709.8657" y="261.2578"/></g><g><title>Venta. v</title><rect fill="#FFFFFF" height="29.1328" style="stroke:#181818;stroke-width:1;" width="10" x="875.8525" y="314.5234"/></g><g><title>List.Medicamento.. catalogoMeds</title><rect fill="#FFFFFF" height="176.7969" style="stroke:#181818;stroke-width:1;" width="10" x="1053.7192" y="540.2578"/></g><g><title>Medicamento. m</title><rect fill="#FFFFFF" height="29.1328" style="stroke:#181818;stroke-width:1;" width="10" x="1261.1582" y="593.5234"/></g><g><title>Medicamento. m</title><rect fill="#FFFFFF" height="29.1328" style="stroke:#181818;stroke-width:1;" width="10" x="1261.1582" y="651.7891"/></g><g><title>List.Drogueria.. catalogoDrogs</title><rect fill="#FFFFFF" height="181.7969" style="stroke:#181818;stroke-width:1;" width="10" x="1458.1895" y="804.4531"/></g><g><title>Drogueria. d</title><rect fill="#FFFFFF" height="29.1328" style="stroke:#181818;stroke-width:1;" width="10" x="1650.9443" y="857.7188"/></g><g><title>Drogueria. d</title><rect fill="#FFFFFF" height="29.1328" style="stroke:#181818;stroke-width:1;" width="10" x="1650.9443" y="1007.3828"/></g><g><title>Drogueria. d</title><rect fill="#FFFFFF" height="29.1328" style="stroke:#181818;stroke-width:1;" width="10" x="1650.9443" y="1065.6484"/></g><g><title>Drogueria. d</title><rect fill="#FFFFFF" height="29.1328" style="stroke:#181818;stroke-width:1;" width="10" x="1650.9443" y="1123.9141"/></g><g><title>ServicioExterno</title><rect fill="#FFFFFF" height="29.1328" style="stroke:#181818;stroke-width:1;" width="10" x="1773.8262" y="467.1875"/></g><g><title>ServicioExterno</title><rect fill="#FFFFFF" height="29.1328" style="stroke:#181818;stroke-width:1;" width="10" x="1773.8262" y="1182.1797"/></g><g><title>ServicioExterno</title><rect fill="#FFFFFF" height="29.1328" style="stroke:#181818;stroke-width:1;" width="10" x="1773.8262" y="1264.5781"/></g><g><title>ServicioExterno</title><rect fill="#FFFFFF" height="29.1328" style="stroke:#181818;stroke-width:1;" width="10" x="1773.8262" y="1337.6484"/></g><g><title>ServicioExterno</title><rect fill="#FFFFFF" height="29.1328" style="stroke:#181818;stroke-width:1;" width="10" x="1773.8262" y="1427.0469"/></g><rect fill="none" height="75.3984" style="stroke:#000000;stroke-width:1.5;" width="332.7339" x="594.4106" y="276.2578"/><rect fill="none" height="133.6641" style="stroke:#000000;stroke-width:1.5;" width="424.8779" x="917.1445" y="555.2578"/><rect fill="none" height="711.9922" style="stroke:#000000;stroke-width:1.5;" width="1840.8315" x="20" y="819.4531"/><rect fill="none" height="77.3984" style="stroke:#000000;stroke-width:1.5;" width="1554.3564" x="40" y="901.8516"/><rect fill="none" height="17.1328" style="stroke:#000000;stroke-width:1.5;" width="91.9517" x="50" y="955.1172"/><rect fill="none" height="148.4688" style="stroke:#000000;stroke-width:1.5;" width="1531.9722" x="318.8594" y="1226.3125"/><rect fill="none" height="135.6641" style="stroke:#000000;stroke-width:1.5;" width="1820.8315" x="30" y="1388.7813"/><g><title>Administrador</title><rect fill="#000000" fill-opacity="0.00000" height="1429.8516" width="8" x="88.54" y="118.5938"/><line style="stroke:#181818;stroke-width:0.5;stroke-dasharray:5,5;" x1="92" x2="92" y1="118.5938" y2="1548.4453"/></g><g><title>NegocioControlador</title><rect fill="#000000" fill-opacity="0.00000" height="1429.8516" width="8" x="401.5552" y="118.5938"/><line style="stroke:#181818;stroke-width:0.5;stroke-dasharray:5,5;" x1="404.8594" x2="404.8594" y1="118.5938" y2="1548.4453"/></g><g><title>List.Venta.. catalogoVentas</title><rect fill="#000000" fill-opacity="0.00000" height="1429.8516" width="8" x="710.8657" y="118.5938"/><line style="stroke:#181818;stroke-width:0.5;stroke-dasharray:5,5;" x1="714.4106" x2="714.4106" y1="118.5938" y2="1548.4453"/></g><g><title>Venta. v</title><rect fill="#000000" fill-opacity="0.00000" height="1429.8516" width="8" x="876.8525" y="118.5938"/><line style="stroke:#181818;stroke-width:0.5;stroke-dasharray:5,5;" x1="880.5605" x2="880.5605" y1="118.5938" y2="1548.4453"/></g><g><title>List.Medicamento.. catalogoMeds</title><rect fill="#000000" fill-opacity="0.00000" height="1429.8516" width="8" x="1054.7192" y="118.5938"/><line style="stroke:#181818;stroke-width:0.5;stroke-dasharray:5,5;" x1="1058.1445" x2="1058.1445" y1="118.5938" y2="1548.4453"/></g><g><title>Medicamento. m</title><rect fill="#000000" fill-opacity="0.00000" height="1429.8516" width="8" x="1262.1582" y="118.5938"/><line style="stroke:#181818;stroke-width:0.5;stroke-dasharray:5,5;" x1="1265.2939" x2="1265.2939" y1="118.5938" y2="1548.4453"/></g><g><title>List.Drogueria.. catalogoDrogs</title><rect fill="#000000" fill-opacity="0.00000" height="1429.8516" width="8" x="1459.1895" y="118.5938"/><line style="stroke:#181818;stroke-width:0.5;stroke-dasharray:5,5;" x1="1463.0225" x2="1463.0225" y1="118.5938" y2="1548.4453"/></g><g><title>Drogueria. d</title><rect fill="#000000" fill-opacity="0.00000" height="1429.8516" width="8" x="1651.9443" y="118.5938"/><line style="stroke:#181818;stroke-width:0.5;stroke-dasharray:5,5;" x1="1655.0679" x2="1655.0679" y1="118.5938" y2="1548.4453"/></g><g><title>ServicioExterno</title><rect fill="#000000" fill-opacity="0.00000" height="1429.8516" width="8" x="1774.8262" y="118.5938"/><line style="stroke:#181818;stroke-width:0.5;stroke-dasharray:5,5;" x1="1778.8208" x2="1778.8208" y1="118.5938" y2="1548.4453"/></g><g class="participant participant-head" data-participant="admin"><text fill="#000000" font-family="sans-serif" font-size="14" lengthAdjust="spacing" textLength="99.0801" x="40" y="115.292">Administrador</text><ellipse cx="92.54" cy="50.7969" fill="#E2E2F0" rx="8" ry="8" style="stroke:#181818;stroke-width:0.5;"/><path d="M92.54,58.7969 L92.54,85.7969 M79.54,66.7969 L105.54,66.7969 M92.54,85.7969 L79.54,100.7969 M92.54,85.7969 L105.54,100.7969" fill="none" style="stroke:#181818;stroke-width:0.5;"/></g><g class="participant participant-head" data-participant="NegCtrl"><rect fill="#E2E2F0" height="30.2969" rx="2.5" ry="2.5" style="stroke:#181818;stroke-width:0.5;" width="153.3916" x="328.8594" y="87.2969"/><text fill="#000000" font-family="sans-serif" font-size="14" lengthAdjust="spacing" textLength="139.3916" x="335.8594" y="107.292">NegocioControlador</text></g><g class="participant participant-head" data-participant="listaVtas"><rect fill="#E2E2F0" height="30.2969" rx="2.5" ry="2.5" style="stroke:#181818;stroke-width:0.5;" width="220.9102" x="604.4106" y="87.2969"/><text fill="#000000" font-family="sans-serif" font-size="14" lengthAdjust="spacing" textLength="206.9102" x="611.4106" y="107.292">List&lt;Venta&gt;: catalogoVentas</text></g><g class="participant participant-head" data-participant="vta"><rect fill="#E2E2F0" height="30.2969" rx="2.5" ry="2.5" style="stroke:#181818;stroke-width:0.5;" width="72.584" x="844.5605" y="87.2969"/><text fill="#000000" font-family="sans-serif" font-size="14" lengthAdjust="spacing" textLength="58.584" x="851.5605" y="107.292">Venta: v</text></g><g class="participant participant-head" data-participant="listaMed"><rect fill="#E2E2F0" height="30.2969" rx="2.5" ry="2.5" style="stroke:#181818;stroke-width:0.5;" width="263.1494" x="927.1445" y="87.2969"/><text fill="#000000" font-family="sans-serif" font-size="14" lengthAdjust="spacing" textLength="249.1494" x="934.1445" y="107.292">List&lt;Medicamento&gt;: catalogoMeds</text></g><g class="participant participant-head" data-participant="med"><rect fill="#E2E2F0" height="30.2969" rx="2.5" ry="2.5" style="stroke:#181818;stroke-width:0.5;" width="131.7285" x="1200.2939" y="87.2969"/><text fill="#000000" font-family="sans-serif" font-size="14" lengthAdjust="spacing" textLength="117.7285" x="1207.2939" y="107.292">Medicamento: m</text></g><g class="participant participant-head" data-participant="listaDrogs"><rect fill="#E2E2F0" height="30.2969" rx="2.5" ry="2.5" style="stroke:#181818;stroke-width:0.5;" width="242.334" x="1342.0225" y="87.2969"/><text fill="#000000" font-family="sans-serif" font-size="14" lengthAdjust="spacing" textLength="228.334" x="1349.0225" y="107.292">List&lt;Drogueria&gt;: catalogoDrogs</text></g><g class="participant participant-head" data-participant="drog"><rect fill="#E2E2F0" height="30.2969" rx="2.5" ry="2.5" style="stroke:#181818;stroke-width:0.5;" width="101.7529" x="1605.0679" y="87.2969"/><text fill="#000000" font-family="sans-serif" font-size="14" lengthAdjust="spacing" textLength="87.7529" x="1612.0679" y="107.292">Drogueria: d</text></g><g class="participant participant-head" data-participant="srv"><rect fill="#E2E2F0" height="30.2969" rx="2.5" ry="2.5" style="stroke:#181818;stroke-width:0.5;" width="124.0107" x="1716.8208" y="87.2969"/><text fill="#000000" font-family="sans-serif" font-size="14" lengthAdjust="spacing" textLength="110.0107" x="1723.8208" y="107.292">ServicioExterno</text></g><g><title>NegocioControlador</title><rect fill="#FFFFFF" height="29.1328" style="stroke:#181818;stroke-width:1;" width="10" x="400.5552" y="149.7266"/></g><g><title>NegocioControlador</title><rect fill="#FFFFFF" height="1330.4531" style="stroke:#181818;stroke-width:1;" width="10" x="400.5552" y="207.9922"/></g><g><title>List.Venta.. catalogoVentas</title><rect fill="#FFFFFF" height="118.5313" style="stroke:#181818;stroke-width:1;" width="10" x="709.8657" y="261.2578"/></g><g><title>Venta. v</title><rect fill="#FFFFFF" height="29.1328" style="stroke:#181818;stroke-width:1;" width="10" x="875.8525" y="314.5234"/></g><g><title>List.Medicamento.. catalogoMeds</title><rect fill="#FFFFFF" height="176.7969" style="stroke:#181818;stroke-width:1;" width="10" x="1053.7192" y="540.2578"/></g><g><title>Medicamento. m</title><rect fill="#FFFFFF" height="29.1328" style="stroke:#181818;stroke-width:1;" width="10" x="1261.1582" y="593.5234"/></g><g><title>Medicamento. m</title><rect fill="#FFFFFF" height="29.1328" style="stroke:#181818;stroke-width:1;" width="10" x="1261.1582" y="651.7891"/></g><g><title>List.Drogueria.. catalogoDrogs</title><rect fill="#FFFFFF" height="181.7969" style="stroke:#181818;stroke-width:1;" width="10" x="1458.1895" y="804.4531"/></g><g><title>Drogueria. d</title><rect fill="#FFFFFF" height="29.1328" style="stroke:#181818;stroke-width:1;" width="10" x="1650.9443" y="857.7188"/></g><g><title>Drogueria. d</title><rect fill="#FFFFFF" height="29.1328" style="stroke:#181818;stroke-width:1;" width="10" x="1650.9443" y="1007.3828"/></g><g><title>Drogueria. d</title><rect fill="#FFFFFF" height="29.1328" style="stroke:#181818;stroke-width:1;" width="10" x="1650.9443" y="1065.6484"/></g><g><title>Drogueria. d</title><rect fill="#FFFFFF" height="29.1328" style="stroke:#181818;stroke-width:1;" width="10" x="1650.9443" y="1123.9141"/></g><g><title>ServicioExterno</title><rect fill="#FFFFFF" height="29.1328" style="stroke:#181818;stroke-width:1;" width="10" x="1773.8262" y="467.1875"/></g><g><title>ServicioExterno</title><rect fill="#FFFFFF" height="29.1328" style="stroke:#181818;stroke-width:1;" width="10" x="1773.8262" y="1182.1797"/></g><g><title>ServicioExterno</title><rect fill="#FFFFFF" height="29.1328" style="stroke:#181818;stroke-width:1;" width="10" x="1773.8262" y="1264.5781"/></g><g><title>ServicioExterno</title><rect fill="#FFFFFF" height="29.1328" style="stroke:#181818;stroke-width:1;" width="10" x="1773.8262" y="1337.6484"/></g><g><title>ServicioExterno</title><rect fill="#FFFFFF" height="29.1328" style="stroke:#181818;stroke-width:1;" width="10" x="1773.8262" y="1427.0469"/></g><g class="message" data-participant-1="admin" data-participant-2="NegCtrl"><polygon fill="#181818" points="388.5552,145.7266,398.5552,149.7266,388.5552,153.7266,392.5552,149.7266" style="stroke:#181818;stroke-width:1;"/><line style="stroke:#181818;stroke-width:1;" x1="92.54" x2="394.5552" y1="149.7266" y2="149.7266"/><text fill="#000000" font-family="sans-serif" font-size="13" lengthAdjust="spacing" textLength="156.5015" x="99.54" y="144.6606">accederModuloControl()</text></g><g class="message" data-participant-1="NegCtrl" data-participant-2="admin"><polygon fill="#181818" points="103.54,174.8594,93.54,178.8594,103.54,182.8594,99.54,178.8594" style="stroke:#181818;stroke-width:1;"/><line style="stroke:#181818;stroke-width:1;stroke-dasharray:2,2;" x1="97.54" x2="404.5552" y1="178.8594" y2="178.8594"/><text fill="#000000" font-family="sans-serif" font-size="13" lengthAdjust="spacing" textLength="99.6582" x="109.54" y="173.7935">&#171;Vista Control&#187;</text></g><g class="message" data-participant-1="admin" data-participant-2="NegCtrl"><polygon fill="#181818" points="388.5552,203.9922,398.5552,207.9922,388.5552,211.9922,392.5552,207.9922" style="stroke:#181818;stroke-width:1;"/><line style="stroke:#181818;stroke-width:1;" x1="92.54" x2="394.5552" y1="207.9922" y2="207.9922"/><text fill="#000000" font-family="sans-serif" font-size="13" lengthAdjust="spacing" textLength="289.0151" x="99.54" y="202.9263">seleccionarReporte(tipo: String, filtros: Map)</text></g><g class="message" data-participant-1="NegCtrl" data-participant-2="listaVtas"><polygon fill="#181818" points="697.8657,257.2578,707.8657,261.2578,697.8657,265.2578,701.8657,261.2578" style="stroke:#181818;stroke-width:1;"/><line style="stroke:#181818;stroke-width:1;" x1="410.5552" x2="703.8657" y1="261.2578" y2="261.2578"/><text fill="#000000" font-family="sans-serif" font-size="13" lengthAdjust="spacing" textLength="127.6323" x="417.5552" y="256.1919">filtrarVentas(filtros)</text></g><path d="M594.4106,276.2578 L671.0347,276.2578 L671.0347,283.3906 L661.0347,293.3906 L594.4106,293.3906 L594.4106,276.2578" fill="#EEEEEE" style="stroke:#000000;stroke-width:1.5;"/><rect fill="none" height="75.3984" style="stroke:#000000;stroke-width:1.5;" width="332.7339" x="594.4106" y="276.2578"/><text fill="#000000" font-family="sans-serif" font-size="13" font-weight="bold" lengthAdjust="spacing" textLength="31.624" x="609.4106" y="289.3247">loop</text><text fill="#000000" font-family="sans-serif" font-size="11" font-weight="bold" lengthAdjust="spacing" textLength="201.6362" x="686.0347" y="288.4683">[para cada v en catalogoVentas]</text><g class="message" data-participant-1="listaVtas" data-participant-2="vta"><polygon fill="#181818" points="863.8525,310.5234,873.8525,314.5234,863.8525,318.5234,867.8525,314.5234" style="stroke:#181818;stroke-width:1;"/><line style="stroke:#181818;stroke-width:1;" x1="719.8657" x2="869.8525" y1="314.5234" y2="314.5234"/><text fill="#000000" font-family="sans-serif" font-size="13" lengthAdjust="spacing" textLength="70.3193" x="726.8657" y="309.4575">getFecha()</text></g><g class="message" data-participant-1="vta" data-participant-2="listaVtas"><polygon fill="#181818" points="730.8657,339.6563,720.8657,343.6563,730.8657,347.6563,726.8657,343.6563" style="stroke:#181818;stroke-width:1;"/><line style="stroke:#181818;stroke-width:1;stroke-dasharray:2,2;" x1="724.8657" x2="879.8525" y1="343.6563" y2="343.6563"/><text fill="#000000" font-family="sans-serif" font-size="13" lengthAdjust="spacing" textLength="131.9868" x="736.8657" y="338.5903">&#171;date : fechaVenta&#187;</text></g><g class="message" data-participant-1="listaVtas" data-participant-2="NegCtrl"><polygon fill="#181818" points="421.5552,375.7891,411.5552,379.7891,421.5552,383.7891,417.5552,379.7891" style="stroke:#181818;stroke-width:1;"/><line style="stroke:#181818;stroke-width:1;stroke-dasharray:2,2;" x1="415.5552" x2="713.8657" y1="379.7891" y2="379.7891"/><text fill="#000000" font-family="sans-serif" font-size="13" lengthAdjust="spacing" textLength="275.3105" x="427.5552" y="374.7231">&lt;&lt; List&lt;Ventas&gt; : listaVentasFiltrada &gt;&gt;</text></g><g class="message" data-participant-1="NegCtrl" data-participant-2="admin"><polygon fill="#181818" points="103.54,404.9219,93.54,408.9219,103.54,412.9219,99.54,408.9219" style="stroke:#181818;stroke-width:1;"/><line style="stroke:#181818;stroke-width:1;stroke-dasharray:2,2;" x1="97.54" x2="399.5552" y1="408.9219" y2="408.9219"/><text fill="#000000" font-family="sans-serif" font-size="13" lengthAdjust="spacing" textLength="108.4116" x="109.54" y="403.856">&#171;Muestra Tabla&#187;</text></g><g class="message" data-participant-1="admin" data-participant-2="NegCtrl"><polygon fill="#181818" points="388.5552,434.0547,398.5552,438.0547,388.5552,442.0547,392.5552,438.0547" style="stroke:#181818;stroke-width:1;"/><line style="stroke:#181818;stroke-width:1;" x1="92.54" x2="394.5552" y1="438.0547" y2="438.0547"/><text fill="#000000" font-family="sans-serif" font-size="13" lengthAdjust="spacing" textLength="153.6895" x="99.54" y="432.9888">exportarInforme("PDF")</text></g><g class="message" data-participant-1="NegCtrl" data-participant-2="srv"><polygon fill="#181818" points="1761.8262,463.1875,1771.8262,467.1875,1761.8262,471.1875,1765.8262,467.1875" style="stroke:#181818;stroke-width:1;"/><line style="stroke:#181818;stroke-width:1;" x1="410.5552" x2="1767.8262" y1="467.1875" y2="467.1875"/><text fill="#000000" font-family="sans-serif" font-size="13" lengthAdjust="spacing" textLength="252.9351" x="417.5552" y="462.1216">generarPDFVentas(listaVentasFiltrada)</text></g><g class="message" data-participant-1="srv" data-participant-2="NegCtrl"><polygon fill="#181818" points="421.5552,492.3203,411.5552,496.3203,421.5552,500.3203,417.5552,496.3203" style="stroke:#181818;stroke-width:1;"/><line style="stroke:#181818;stroke-width:1;stroke-dasharray:2,2;" x1="415.5552" x2="1777.8262" y1="496.3203" y2="496.3203"/><text fill="#000000" font-family="sans-serif" font-size="13" lengthAdjust="spacing" textLength="124.5347" x="427.5552" y="491.2544">&#171;File : archivoPDF&#187;</text></g><g class="message" data-participant-1="NegCtrl" data-participant-2="listaMed"><polygon fill="#181818" points="1041.7192,536.2578,1051.7192,540.2578,1041.7192,544.2578,1045.7192,540.2578" style="stroke:#181818;stroke-width:1;"/><line style="stroke:#181818;stroke-width:1;" x1="410.5552" x2="1047.7192" y1="540.2578" y2="540.2578"/><text fill="#000000" font-family="sans-serif" font-size="13" lengthAdjust="spacing" textLength="125.4551" x="417.5552" y="535.1919">obtenerBajoStock()</text></g><path d="M917.1445,555.2578 L993.7686,555.2578 L993.7686,562.3906 L983.7686,572.3906 L917.1445,572.3906 L917.1445,555.2578" fill="#EEEEEE" style="stroke:#000000;stroke-width:1.5;"/><rect fill="none" height="133.6641" style="stroke:#000000;stroke-width:1.5;" width="424.8779" x="917.1445" y="555.2578"/><text fill="#000000" font-family="sans-serif" font-size="13" font-weight="bold" lengthAdjust="spacing" textLength="31.624" x="932.1445" y="568.3247">loop</text><text fill="#000000" font-family="sans-serif" font-size="11" font-weight="bold" lengthAdjust="spacing" textLength="195.7227" x="1008.7686" y="567.4683">[para cada m en catalogoMeds]</text><g class="message" data-participant-1="listaMed" data-participant-2="med"><polygon fill="#181818" points="1249.1582,589.5234,1259.1582,593.5234,1249.1582,597.5234,1253.1582,593.5234" style="stroke:#181818;stroke-width:1;"/><line style="stroke:#181818;stroke-width:1;" x1="1063.7192" x2="1255.1582" y1="593.5234" y2="593.5234"/><text fill="#000000" font-family="sans-serif" font-size="13" lengthAdjust="spacing" textLength="67.4692" x="1070.7192" y="588.4575">getStock()</text></g><g class="message" data-participant-1="med" data-participant-2="listaMed"><polygon fill="#181818" points="1074.7192,618.6563,1064.7192,622.6563,1074.7192,626.6563,1070.7192,622.6563" style="stroke:#181818;stroke-width:1;"/><line style="stroke:#181818;stroke-width:1;stroke-dasharray:2,2;" x1="1068.7192" x2="1265.1582" y1="622.6563" y2="622.6563"/><text fill="#000000" font-family="sans-serif" font-size="13" lengthAdjust="spacing" textLength="121.1768" x="1080.7192" y="617.5903">&#171;Int : stockActual&#187;</text></g><g class="message" data-participant-1="listaMed" data-participant-2="med"><polygon fill="#181818" points="1249.1582,647.7891,1259.1582,651.7891,1249.1582,655.7891,1253.1582,651.7891" style="stroke:#181818;stroke-width:1;"/><line style="stroke:#181818;stroke-width:1;" x1="1063.7192" x2="1255.1582" y1="651.7891" y2="651.7891"/><text fill="#000000" font-family="sans-serif" font-size="13" lengthAdjust="spacing" textLength="114.7656" x="1070.7192" y="646.7231">getStockMinimo()</text></g><g class="message" data-participant-1="med" data-participant-2="listaMed"><polygon fill="#181818" points="1074.7192,676.9219,1064.7192,680.9219,1074.7192,684.9219,1070.7192,680.9219" style="stroke:#181818;stroke-width:1;"/><line style="stroke:#181818;stroke-width:1;stroke-dasharray:2,2;" x1="1068.7192" x2="1265.1582" y1="680.9219" y2="680.9219"/><text fill="#000000" font-family="sans-serif" font-size="13" lengthAdjust="spacing" textLength="103.2891" x="1080.7192" y="675.856">&#171;Int : stockMin&#187;</text></g><g class="message" data-participant-1="listaMed" data-participant-2="NegCtrl"><polygon fill="#181818" points="421.5552,713.0547,411.5552,717.0547,421.5552,721.0547,417.5552,717.0547" style="stroke:#181818;stroke-width:1;"/><line style="stroke:#181818;stroke-width:1;stroke-dasharray:2,2;" x1="415.5552" x2="1057.7192" y1="717.0547" y2="717.0547"/><text fill="#000000" font-family="sans-serif" font-size="13" lengthAdjust="spacing" textLength="294.7661" x="427.5552" y="711.9888">&lt;&lt; List&lt;Medicamento&gt; : listaReposicion &gt;&gt;</text></g><g class="message" data-participant-1="NegCtrl" data-participant-2="admin"><polygon fill="#181818" points="103.54,742.1875,93.54,746.1875,103.54,750.1875,99.54,746.1875" style="stroke:#181818;stroke-width:1;"/><line style="stroke:#181818;stroke-width:1;stroke-dasharray:2,2;" x1="97.54" x2="399.5552" y1="746.1875" y2="746.1875"/><text fill="#000000" font-family="sans-serif" font-size="13" lengthAdjust="spacing" textLength="181.105" x="109.54" y="741.1216">&#171;Muestra Tabla Bajo Stock&#187;</text></g><g class="message" data-participant-1="admin" data-participant-2="NegCtrl"><polygon fill="#181818" points="388.5552,771.3203,398.5552,775.3203,388.5552,779.3203,392.5552,775.3203" style="stroke:#181818;stroke-width:1;"/><line style="stroke:#181818;stroke-width:1;" x1="92.54" x2="394.5552" y1="775.3203" y2="775.3203"/><text fill="#000000" font-family="sans-serif" font-size="13" lengthAdjust="spacing" textLength="276.4785" x="99.54" y="770.2544">confirmarPedido(items, nombreDrogueria)</text></g><g class="message" data-participant-1="NegCtrl" data-participant-2="listaDrogs"><polygon fill="#181818" points="1446.1895,800.4531,1456.1895,804.4531,1446.1895,808.4531,1450.1895,804.4531" style="stroke:#181818;stroke-width:1;"/><line style="stroke:#181818;stroke-width:1;" x1="410.5552" x2="1452.1895" y1="804.4531" y2="804.4531"/><text fill="#000000" font-family="sans-serif" font-size="13" lengthAdjust="spacing" textLength="233.7588" x="417.5552" y="799.3872">buscarDrogueria(nombreDrogueria)</text></g><path d="M20,819.4531 L96.624,819.4531 L96.624,826.5859 L86.624,836.5859 L20,836.5859 L20,819.4531" fill="#EEEEEE" style="stroke:#000000;stroke-width:1.5;"/><rect fill="none" height="711.9922" style="stroke:#000000;stroke-width:1.5;" width="1840.8315" x="20" y="819.4531"/><text fill="#000000" font-family="sans-serif" font-size="13" font-weight="bold" lengthAdjust="spacing" textLength="31.624" x="35" y="832.52">loop</text><text fill="#000000" font-family="sans-serif" font-size="11" font-weight="bold" lengthAdjust="spacing" textLength="195.8408" x="111.624" y="831.6636">[para cada d en catalogoDrogs]</text><g class="message" data-participant-1="listaDrogs" data-participant-2="drog"><polygon fill="#181818" points="1638.9443,853.7188,1648.9443,857.7188,1638.9443,861.7188,1642.9443,857.7188" style="stroke:#181818;stroke-width:1;"/><line style="stroke:#181818;stroke-width:1;" x1="1468.1895" x2="1644.9443" y1="857.7188" y2="857.7188"/><text fill="#000000" font-family="sans-serif" font-size="13" lengthAdjust="spacing" textLength="83.4272" x="1475.1895" y="852.6528">getNombre()</text></g><g class="message" data-participant-1="drog" data-participant-2="listaDrogs"><polygon fill="#181818" points="1479.1895,882.8516,1469.1895,886.8516,1479.1895,890.8516,1475.1895,886.8516" style="stroke:#181818;stroke-width:1;"/><line style="stroke:#181818;stroke-width:1;stroke-dasharray:2,2;" x1="1473.1895" x2="1654.9443" y1="886.8516" y2="886.8516"/><text fill="#000000" font-family="sans-serif" font-size="13" lengthAdjust="spacing" textLength="158.7549" x="1485.1895" y="881.7856">&#171;String : nombreActual&#187;</text></g><path d="M40,901.8516 L104.4429,901.8516 L104.4429,908.9844 L94.4429,918.9844 L40,918.9844 L40,901.8516" fill="#EEEEEE" style="stroke:#000000;stroke-width:1.5;"/><rect fill="none" height="77.3984" style="stroke:#000000;stroke-width:1.5;" width="1554.3564" x="40" y="901.8516"/><text fill="#000000" font-family="sans-serif" font-size="13" font-weight="bold" lengthAdjust="spacing" textLength="19.4429" x="55" y="914.9185">alt</text><text fill="#000000" font-family="sans-serif" font-size="11" font-weight="bold" lengthAdjust="spacing" textLength="232.5791" x="119.4429" y="914.062">[nombreActual == nombreDrogueria]</text><g class="message" data-participant-1="listaDrogs" data-participant-2="NegCtrl"><polygon fill="#181818" points="421.5552,936.1172,411.5552,940.1172,421.5552,944.1172,417.5552,940.1172" style="stroke:#181818;stroke-width:1;"/><line style="stroke:#181818;stroke-width:1;stroke-dasharray:2,2;" x1="415.5552" x2="1457.1895" y1="940.1172" y2="940.1172"/><text fill="#000000" font-family="sans-serif" font-size="13" lengthAdjust="spacing" textLength="118.1362" x="427.5552" y="935.0513">&#171;Object :objDrog&#187;</text></g><path d="M50,955.1172 L136.9517,955.1172 L136.9517,962.25 L126.9517,972.25 L50,972.25 L50,955.1172" fill="#EEEEEE" style="stroke:#000000;stroke-width:1.5;"/><rect fill="none" height="17.1328" style="stroke:#000000;stroke-width:1.5;" width="91.9517" x="50" y="955.1172"/><text fill="#000000" font-family="sans-serif" font-size="13" font-weight="bold" lengthAdjust="spacing" textLength="41.9517" x="65" y="968.1841">break</text><g class="message" data-participant-1="NegCtrl" data-participant-2="drog"><polygon fill="#181818" points="1638.9443,1003.3828,1648.9443,1007.3828,1638.9443,1011.3828,1642.9443,1007.3828" style="stroke:#181818;stroke-width:1;"/><line style="stroke:#181818;stroke-width:1;" x1="410.5552" x2="1644.9443" y1="1007.3828" y2="1007.3828"/><text fill="#000000" font-family="sans-serif" font-size="13" lengthAdjust="spacing" textLength="127.2705" x="417.5552" y="1002.3169">getCanalPreferido()</text></g><g class="message" data-participant-1="drog" data-participant-2="NegCtrl"><polygon fill="#181818" points="421.5552,1032.5156,411.5552,1036.5156,421.5552,1040.5156,417.5552,1036.5156" style="stroke:#181818;stroke-width:1;"/><line style="stroke:#181818;stroke-width:1;stroke-dasharray:2,2;" x1="415.5552" x2="1654.9443" y1="1036.5156" y2="1036.5156"/><text fill="#000000" font-family="sans-serif" font-size="13" lengthAdjust="spacing" textLength="50.8384" x="427.5552" y="1031.4497">&#171;canal&#187;</text></g><g class="message" data-participant-1="NegCtrl" data-participant-2="drog"><polygon fill="#181818" points="1638.9443,1061.6484,1648.9443,1065.6484,1638.9443,1069.6484,1642.9443,1065.6484" style="stroke:#181818;stroke-width:1;"/><line style="stroke:#181818;stroke-width:1;" x1="410.5552" x2="1644.9443" y1="1065.6484" y2="1065.6484"/><text fill="#000000" font-family="sans-serif" font-size="13" lengthAdjust="spacing" textLength="67.5581" x="417.5552" y="1060.5825">getEmail()</text></g><g class="message" data-participant-1="drog" data-participant-2="NegCtrl"><polygon fill="#181818" points="421.5552,1090.7813,411.5552,1094.7813,421.5552,1098.7813,417.5552,1094.7813" style="stroke:#181818;stroke-width:1;"/><line style="stroke:#181818;stroke-width:1;stroke-dasharray:2,2;" x1="415.5552" x2="1654.9443" y1="1094.7813" y2="1094.7813"/><text fill="#000000" font-family="sans-serif" font-size="13" lengthAdjust="spacing" textLength="51.7588" x="427.5552" y="1089.7153">&#171;email&#187;</text></g><g class="message" data-participant-1="NegCtrl" data-participant-2="drog"><polygon fill="#181818" points="1638.9443,1119.9141,1648.9443,1123.9141,1638.9443,1127.9141,1642.9443,1123.9141" style="stroke:#181818;stroke-width:1;"/><line style="stroke:#181818;stroke-width:1;" x1="410.5552" x2="1644.9443" y1="1123.9141" y2="1123.9141"/><text fill="#000000" font-family="sans-serif" font-size="13" lengthAdjust="spacing" textLength="87.7627" x="417.5552" y="1118.8481">getTelefono()</text></g><g class="message" data-participant-1="drog" data-participant-2="NegCtrl"><polygon fill="#181818" points="421.5552,1149.0469,411.5552,1153.0469,421.5552,1157.0469,417.5552,1153.0469" style="stroke:#181818;stroke-width:1;"/><line style="stroke:#181818;stroke-width:1;stroke-dasharray:2,2;" x1="415.5552" x2="1654.9443" y1="1153.0469" y2="1153.0469"/><text fill="#000000" font-family="sans-serif" font-size="13" lengthAdjust="spacing" textLength="69.3354" x="427.5552" y="1147.981">&#171;telefono&#187;</text></g><g class="message" data-participant-1="NegCtrl" data-participant-2="srv"><polygon fill="#181818" points="1761.8262,1178.1797,1771.8262,1182.1797,1761.8262,1186.1797,1765.8262,1182.1797" style="stroke:#181818;stroke-width:1;"/><line style="stroke:#181818;stroke-width:1;" x1="410.5552" x2="1767.8262" y1="1182.1797" y2="1182.1797"/><text fill="#000000" font-family="sans-serif" font-size="13" lengthAdjust="spacing" textLength="226.3066" x="417.5552" y="1177.1138">generarPDFPedido(items, objDrog)</text></g><g class="message" data-participant-1="srv" data-participant-2="NegCtrl"><polygon fill="#181818" points="421.5552,1207.3125,411.5552,1211.3125,421.5552,1215.3125,417.5552,1211.3125" style="stroke:#181818;stroke-width:1;"/><line style="stroke:#181818;stroke-width:1;stroke-dasharray:2,2;" x1="415.5552" x2="1777.8262" y1="1211.3125" y2="1211.3125"/><text fill="#000000" font-family="sans-serif" font-size="13" lengthAdjust="spacing" textLength="80.8945" x="427.5552" y="1206.2466">&#171;pdfPedido&#187;</text></g><path d="M318.8594,1226.3125 L383.3022,1226.3125 L383.3022,1233.4453 L373.3022,1243.4453 L318.8594,1243.4453 L318.8594,1226.3125" fill="#EEEEEE" style="stroke:#000000;stroke-width:1.5;"/><rect fill="none" height="148.4688" style="stroke:#000000;stroke-width:1.5;" width="1531.9722" x="318.8594" y="1226.3125"/><text fill="#000000" font-family="sans-serif" font-size="13" font-weight="bold" lengthAdjust="spacing" textLength="19.4429" x="333.8594" y="1239.3794">alt</text><text fill="#000000" font-family="sans-serif" font-size="11" font-weight="bold" lengthAdjust="spacing" textLength="144.0313" x="398.3022" y="1238.5229">[canal == "WhatsApp"]</text><g class="message" data-participant-1="NegCtrl" data-participant-2="srv"><polygon fill="#181818" points="1761.8262,1260.5781,1771.8262,1264.5781,1761.8262,1268.5781,1765.8262,1264.5781" style="stroke:#181818;stroke-width:1;"/><line style="stroke:#181818;stroke-width:1;" x1="410.5552" x2="1767.8262" y1="1264.5781" y2="1264.5781"/><text fill="#000000" font-family="sans-serif" font-size="13" lengthAdjust="spacing" textLength="244.0039" x="417.5552" y="1259.5122">enviarWhatsApp(pdfPedido, telefono)</text></g><g class="message" data-participant-1="srv" data-participant-2="NegCtrl"><polygon fill="#181818" points="421.5552,1289.7109,411.5552,1293.7109,421.5552,1297.7109,417.5552,1293.7109" style="stroke:#181818;stroke-width:1;"/><line style="stroke:#181818;stroke-width:1;stroke-dasharray:2,2;" x1="415.5552" x2="1777.8262" y1="1293.7109" y2="1293.7109"/><text fill="#000000" font-family="sans-serif" font-size="13" lengthAdjust="spacing" textLength="112.855" x="427.5552" y="1288.645">&#171;resultadoEnvio&#187;</text></g><line style="stroke:#000000;stroke-width:1;stroke-dasharray:2,2;" x1="318.8594" x2="1850.8315" y1="1302.7109" y2="1302.7109"/><text fill="#000000" font-family="sans-serif" font-size="11" font-weight="bold" lengthAdjust="spacing" textLength="114.5171" x="323.8594" y="1312.9214">[canal == "Email"]</text><g class="message" data-participant-1="NegCtrl" data-participant-2="srv"><polygon fill="#181818" points="1761.8262,1333.6484,1771.8262,1337.6484,1761.8262,1341.6484,1765.8262,1337.6484" style="stroke:#181818;stroke-width:1;"/><line style="stroke:#181818;stroke-width:1;" x1="410.5552" x2="1767.8262" y1="1337.6484" y2="1337.6484"/><text fill="#000000" font-family="sans-serif" font-size="13" lengthAdjust="spacing" textLength="203.7725" x="417.5552" y="1332.5825">enviarCorreo(pdfPedido, email)</text></g><g class="message" data-participant-1="srv" data-participant-2="NegCtrl"><polygon fill="#181818" points="421.5552,1362.7813,411.5552,1366.7813,421.5552,1370.7813,417.5552,1366.7813" style="stroke:#181818;stroke-width:1;"/><line style="stroke:#181818;stroke-width:1;stroke-dasharray:2,2;" x1="415.5552" x2="1777.8262" y1="1366.7813" y2="1366.7813"/><text fill="#000000" font-family="sans-serif" font-size="13" lengthAdjust="spacing" textLength="112.855" x="427.5552" y="1361.7153">&#171;resultadoEnvio&#187;</text></g><path d="M30,1388.7813 L94.4429,1388.7813 L94.4429,1395.9141 L84.4429,1405.9141 L30,1405.9141 L30,1388.7813" fill="#EEEEEE" style="stroke:#000000;stroke-width:1.5;"/><rect fill="none" height="135.6641" style="stroke:#000000;stroke-width:1.5;" width="1820.8315" x="30" y="1388.7813"/><text fill="#000000" font-family="sans-serif" font-size="13" font-weight="bold" lengthAdjust="spacing" textLength="19.4429" x="45" y="1401.8481">alt</text><text fill="#000000" font-family="sans-serif" font-size="11" font-weight="bold" lengthAdjust="spacing" textLength="167.6104" x="109.4429" y="1400.9917">[resultadoEnvio == FALSE]</text><g class="message" data-participant-1="NegCtrl" data-participant-2="srv"><polygon fill="#181818" points="1761.8262,1423.0469,1771.8262,1427.0469,1761.8262,1431.0469,1765.8262,1427.0469" style="stroke:#181818;stroke-width:1;"/><line style="stroke:#181818;stroke-width:1;" x1="410.5552" x2="1767.8262" y1="1427.0469" y2="1427.0469"/><text fill="#000000" font-family="sans-serif" font-size="13" lengthAdjust="spacing" textLength="292.2651" x="417.5552" y="1421.981">guardarArchivoLocal(pdfPedido, rutaBackup)</text></g><g class="message" data-participant-1="srv" data-participant-2="NegCtrl"><polygon fill="#181818" points="421.5552,1452.1797,411.5552,1456.1797,421.5552,1460.1797,417.5552,1456.1797" style="stroke:#181818;stroke-width:1;"/><line style="stroke:#181818;stroke-width:1;stroke-dasharray:2,2;" x1="415.5552" x2="1777.8262" y1="1456.1797" y2="1456.1797"/><text fill="#000000" font-family="sans-serif" font-size="13" lengthAdjust="spacing" textLength="34.6646" x="427.5552" y="1451.1138">&#171;OK&#187;</text></g><g class="message" data-participant-1="NegCtrl" data-participant-2="admin"><polygon fill="#181818" points="103.54,1481.3125,93.54,1485.3125,103.54,1489.3125,99.54,1485.3125" style="stroke:#181818;stroke-width:1;"/><line style="stroke:#181818;stroke-width:1;stroke-dasharray:2,2;" x1="97.54" x2="399.5552" y1="1485.3125" y2="1485.3125"/><text fill="#000000" font-family="sans-serif" font-size="13" lengthAdjust="spacing" textLength="198.104" x="109.54" y="1480.2466">&#171;Error envio. Guardado Local&#187;</text></g><line style="stroke:#000000;stroke-width:1;stroke-dasharray:2,2;" x1="30" x2="1850.8315" y1="1494.3125" y2="1494.3125"/><g class="message" data-participant-1="NegCtrl" data-participant-2="admin"><polygon fill="#181818" points="103.54,1512.4453,93.54,1516.4453,103.54,1520.4453,99.54,1516.4453" style="stroke:#181818;stroke-width:1;"/><line style="stroke:#181818;stroke-width:1;stroke-dasharray:2,2;" x1="97.54" x2="399.5552" y1="1516.4453" y2="1516.4453"/><text fill="#000000" font-family="sans-serif" font-size="13" lengthAdjust="spacing" textLength="115.8765" x="109.54" y="1511.3794">&#171;Pedido Enviado&#187;</text></g><!--SRC=[jLVRRk9847ttLvHu2P66hFRsWZ98Zd56x016cB3xsjWDSMAxKRj1cU_OJzbFc1_RghRTlc3dCglbWU1ErQbJLQUwG4Kgvk28L4aH0uTPkXSouMDOywEGYcVm3LOyZ4AHMTPZ57BO2w5suiMoMA24X84T9b4QPKgoKCW1i0mOdLX79bKKH4UMAXWi-K44aIZY64iyTfICcxPp1BlTybInoHW2fbWi3a8_Pzefnl-pBJurtRJ56CxQvgnO1-W24mbOWeQY1esdDM1yQdhMdCQGQCEaRQFHfr8SJbn6TTfqLWFNZqrNupM6K1k6UD0qyRayuuDmNnINgT1McJnZ1wZGC9gKTOGni23W8PSB4PxYijp3Q-fLT6QAcugN7YFqpc76S7iBMs9fv32PM26_SBMkq6i4i-NCcNamTS5tvwxZpBx_lQH_TB7AUCm3p21bij3LK4L7hAUlP9GUFi4-YZ5YDeO5EtQmjLYiW3pWysSO51g5GXEM1VWo2KqgWM1a3SnaRZeimbnh3nEb4XGTwxTOY2DW4nXsCcHm1fwsfAZDjAc9Xg5HTnZqmDKz3nxPyDfOcM2apFAGh4SjmjY4aEoGEa7eODI8qgVMa3gK-N05SmRnztyEA5gWSTK520NWA4Sf2OXHCZo6tIc8kVRZQLXBlSgdqKCaLarcDi6Jt58_tkTH3DCQowgwpJurXRSuSRf2OCDsiKQnycH8QUvVAs-ziTTQNRgObmhZBoGh9Wjj30UhwVtWkigg9WyS7TsZbACmqApGHaSsBPtGpD410LpK1dseQKm6Zz5P86n7AVJGMZpEU2NcSjPy9O9d-AcuR0Vr_EyUV0UplxF_yC3VUCvNKuYswF6kGWvYfoYvE_OaDEgmI-zqp_N9FQdBdQx7fjWf2aPCT33KUZr88r1InA0NMO-QFB5gCxpVy7eW03jG9nRtI9sGta5YWPie4V-P2iAymgDxOXO5wEN0rBTEEJLq2sPqfwTz4xCeCtxNm52l2marPsUrzXpNrzVqoftEfjvhGnI8T1_91AT2Yt0OAPvado0LoKvoiwXgKtK5Fz-KyiH8MzUTUkjEPUhDXo5sfonWqc0DEx6RbSYNPfzMmxfMArFJbpmmqg2zcajbgMDsgKJlNjDsSXYr4y3IvqiBF-VaNnLk0x4AYEkiuOmtGQiInlOYbRR8lDqJ3r2xOlT45dKY-eMexDaSbSej_xPrbvUmwEulD-3TRTobkuQflV7yTckhcZeiPV5AyZro3qNxnZ5LC3LjP12GSySW6BV-k6x2elY3uJZv_5Yu3NwHsOlqemcgmgqlQ57kNs_W2nNRNh-rive3MdJ-8-lg6EvpZBurbJFwxGRSvNQ6u-sxNnwMuDXBUswL4ixxHblipqUcClju71YTNP3dwJbYiZGS6WAVJ7Kw1hBCeJSFoRDJhF3xZOlmecS8woYv-6a5L-orYDwaxWWfkQWJrqBwNrcRKItwyViDREtvR8eDMRl-mtnZJptJZXOgPdPlptstFw_3YScGIJl_pZ8N0OlhwScJOdSiU3uTVoH7x-ixkj6pt5mfyQSbbLtWI6YMg5HDi0Ib5hu5KoYSoi4gfUjowhVB7pV_0W00]--></g></svg>