<svg xmlns="http://www.w3.org/2000/svg" xmlns:xlink="http://www.w3.org/1999/xlink" contentStyleType="text/css" data-diagram-type="SEQUENCE" height="837px" preserveAspectRatio="none" style="width:901px;height:837px;background:#FFFFFF;" version="1.1" viewBox="0 0 901 837" width="901px" zoomAndPan="magnify"><title>DSD - Eliminaci&#243;n de Medicamentos</title><defs/><g><text fill="#000000" font-family="sans-serif" font-size="14" font-weight="bold" lengthAdjust="spacing" textLength="283.4795" x="305.064" y="27.9951">DSD - Eliminaci&#243;n de Medicamentos</text><g><title>Medicamento</title><rect fill="#FFFFFF" height="29.1328" style="stroke:#181818;stroke-width:1;" width="10" x="746.7559" y="221.9922"/></g><g><title>Medicamento</title><rect fill="#FFFFFF" height="29.1328" style="stroke:#181818;stroke-width:1;" width="10" x="746.7559" y="591.1953"/></g><g><title>Sistema</title><rect fill="#FFFFFF" height="29.1328" style="stroke:#181818;stroke-width:1;" width="10" x="838.4126" y="464.8594"/></g><rect fill="none" height="473.4063" style="stroke:#000000;stroke-width:1.5;" width="874.6074" x="10" y="266.125"/><rect fill="none" height="223.5391" style="stroke:#000000;stroke-width:1.5;" width="792.2178" x="20" y="508.9922"/><rect fill="none" height="90.2031" style="stroke:#000000;stroke-width:1.5;" width="578.666" x="30" y="635.3281"/><g><title>Administrador</title><rect fill="#000000" fill-opacity="0.00000" height="637.9375" width="8" x="88.54" y="118.5938"/><line style="stroke:#181818;stroke-width:0.5;stroke-dasharray:5,5;" x1="92" x2="92" y1="118.5938" y2="756.5313"/></g><g><title>ControladorNegocio</title><rect fill="#000000" fill-opacity="0.00000" height="637.9375" width="8" x="521.9702" y="118.5938"/><line style="stroke:#181818;stroke-width:0.5;stroke-dasharray:5,5;" x1="525.2744" x2="525.2744" y1="118.5938" y2="756.5313"/></g><g><title>Medicamento</title><rect fill="#000000" fill-opacity="0.00000" height="637.9375" width="8" x="747.7559" y="118.5938"/><line style="stroke:#181818;stroke-width:0.5;stroke-dasharray:5,5;" x1="751.2939" x2="751.2939" y1="118.5938" y2="756.5313"/></g><g><title>Sistema</title><rect fill="#000000" fill-opacity="0.00000" height="637.9375" width="8" x="839.4126" y="118.5938"/><line style="stroke:#181818;stroke-width:0.5;stroke-dasharray:5,5;" x1="843.2178" x2="843.2178" y1="118.5938" y2="756.5313"/></g><g class="participant participant-head" data-participant="Administrador"><text fill="#000000" font-family="sans-serif" font-size="14" lengthAdjust="spacing" textLength="99.0801" x="40" y="115.292">Administrador</text><ellipse cx="92.54" cy="50.7969" fill="#E2E2F0" rx="8" ry="8" style="stroke:#181818;stroke-width:0.5;"/><path d="M92.54,58.7969 L92.54,85.7969 M79.54,66.7969 L105.54,66.7969 M92.54,85.7969 L79.54,100.7969 M92.54,85.7969 L105.54,100.7969" fill="none" style="stroke:#181818;stroke-width:0.5;"/></g><g class="participant participant-tail" data-participant="Administrador"><text fill="#000000" font-family="sans-serif" font-size="14" lengthAdjust="spacing" textLength="99.0801" x="40" y="768.5264">Administrador</text><ellipse cx="92.54" cy="780.3281" fill="#E2E2F0" rx="8" ry="8" style="stroke:#181818;stroke-width:0.5;"/><path d="M92.54,788.3281 L92.54,815.3281 M79.54,796.3281 L105.54,796.3281 M92.54,815.3281 L79.54,830.3281 M92.54,815.3281 L105.54,830.3281" fill="none" style="stroke:#181818;stroke-width:0.5;"/></g><g class="participant participant-head" data-participant="ControladorNegocio"><text fill="#000000" font-family="sans-serif" font-size="14" lengthAdjust="spacing" textLength="139.3916" x="453.2744" y="115.292">ControladorNegocio</text><ellipse cx="525.9702" cy="86.2969" fill="#E2E2F0" rx="12" ry="12" style="stroke:#181818;stroke-width:0.5;"/><polygon fill="#181818" points="521.9702,74.2969,527.9702,69.2969,525.9702,74.2969,527.9702,79.2969,521.9702,74.2969" style="stroke:#181818;stroke-width:1;"/></g><g class="participant participant-tail" data-participant="ControladorNegocio"><text fill="#000000" font-family="sans-serif" font-size="14" lengthAdjust="spacing" textLength="139.3916" x="453.2744" y="768.5264">ControladorNegocio</text><ellipse cx="525.9702" cy="787.8281" fill="#E2E2F0" rx="12" ry="12" style="stroke:#181818;stroke-width:0.5;"/><polygon fill="#181818" points="521.9702,775.8281,527.9702,770.8281,525.9702,775.8281,527.9702,780.8281,521.9702,775.8281" style="stroke:#181818;stroke-width:1;"/></g><g class="participant participant-head" data-participant="Medicamento"><text fill="#000000" font-family="sans-serif" font-size="14" lengthAdjust="spacing" textLength="94.9238" x="701.2939" y="115.292">Medicamento</text><ellipse cx="751.7559" cy="86.2969" fill="#E2E2F0" rx="12" ry="12" style="stroke:#181818;stroke-width:0.5;"/><line style="stroke:#181818;stroke-width:0.5;" x1="739.7559" x2="763.7559" y1="100.2969" y2="100.2969"/></g><g class="participant participant-tail" data-participant="Medicamento"><text fill="#000000" font-family="sans-serif" font-size="14" lengthAdjust="spacing" textLength="94.9238" x="701.2939" y="768.5264">Medicamento</text><ellipse cx="751.7559" cy="787.8281" fill="#E2E2F0" rx="12" ry="12" style="stroke:#181818;stroke-width:0.5;"/><line style="stroke:#181818;stroke-width:0.5;" x1="739.7559" x2="763.7559" y1="801.8281" y2="801.8281"/></g><g class="participant participant-head" data-participant="Sistema"><text fill="#000000" font-family="sans-serif" font-size="14" lengthAdjust="spacing" textLength="56.3896" x="812.2178" y="115.292">Sistema</text><ellipse cx="843.4126" cy="86.2969" fill="#E2E2F0" rx="12" ry="12" style="stroke:#181818;stroke-width:0.5;"/><line style="stroke:#181818;stroke-width:0.5;" x1="831.4126" x2="855.4126" y1="100.2969" y2="100.2969"/></g><g class="participant participant-tail" data-participant="Sistema"><text fill="#000000" font-family="sans-serif" font-size="14" lengthAdjust="spacing" textLength="56.3896" x="812.2178" y="768.5264">Sistema</text><ellipse cx="843.4126" cy="787.8281" fill="#E2E2F0" rx="12" ry="12" style="stroke:#181818;stroke-width:0.5;"/><line style="stroke:#181818;stroke-width:0.5;" x1="831.4126" x2="855.4126" y1="801.8281" y2="801.8281"/></g><g><title>Medicamento</title><rect fill="#FFFFFF" height="29.1328" style="stroke:#181818;stroke-width:1;" width="10" x="746.7559" y="221.9922"/></g><g><title>Medicamento</title><rect fill="#FFFFFF" height="29.1328" style="stroke:#181818;stroke-width:1;" width="10" x="746.7559" y="591.1953"/></g><g><title>Sistema</title><rect fill="#FFFFFF" height="29.1328" style="stroke:#181818;stroke-width:1;" width="10" x="838.4126" y="464.8594"/></g><rect fill="#EEEEEE" height="3" style="stroke:#EEEEEE;stroke-width:1;" width="894.6074" x="0" y="149.1602"/><line style="stroke:#000000;stroke-width:1;" x1="0" x2="894.6074" y1="149.1602" y2="149.1602"/><line style="stroke:#000000;stroke-width:1;" x1="0" x2="894.6074" y1="152.1602" y2="152.1602"/><rect fill="#EEEEEE" height="23.1328" style="stroke:#000000;stroke-width:2;" width="58.167" x="418.2202" y="138.5938"/><text fill="#000000" font-family="sans-serif" font-size="13" font-weight="bold" lengthAdjust="spacing" textLength="39.6411" x="424.2202" y="154.6606">Inicio</text><g class="message" data-participant-1="Administrador" data-participant-2="ControladorNegocio"><polygon fill="#181818" points="513.9702,188.8594,523.9702,192.8594,513.9702,196.8594,517.9702,192.8594" style="stroke:#181818;stroke-width:1;"/><line style="stroke:#181818;stroke-width:1;" x1="92.54" x2="519.9702" y1="192.8594" y2="192.8594"/><text fill="#000000" font-family="sans-serif" font-size="13" lengthAdjust="spacing" textLength="204.1406" x="99.54" y="187.7935">accederModuloMedicamentos()</text></g><g class="message" data-participant-1="ControladorNegocio" data-participant-2="Medicamento"><polygon fill="#181818" points="734.7559,217.9922,744.7559,221.9922,734.7559,225.9922,738.7559,221.9922" style="stroke:#181818;stroke-width:1;"/><line style="stroke:#181818;stroke-width:1;" x1="525.9702" x2="740.7559" y1="221.9922" y2="221.9922"/><text fill="#000000" font-family="sans-serif" font-size="13" lengthAdjust="spacing" textLength="186.1387" x="532.9702" y="216.9263">obtenerMedicamentos(filtro)</text></g><g class="message" data-participant-1="Medicamento" data-participant-2="ControladorNegocio"><polygon fill="#181818" points="536.9702,247.125,526.9702,251.125,536.9702,255.125,532.9702,251.125" style="stroke:#181818;stroke-width:1;"/><line style="stroke:#181818;stroke-width:1;stroke-dasharray:2,2;" x1="530.9702" x2="750.7559" y1="251.125" y2="251.125"/><text fill="#000000" font-family="sans-serif" font-size="13" lengthAdjust="spacing" textLength="121.9766" x="542.9702" y="246.0591">listaMedicamentos</text></g><path d="M10,266.125 L74.4429,266.125 L74.4429,273.2578 L64.4429,283.2578 L10,283.2578 L10,266.125" fill="#EEEEEE" style="stroke:#000000;stroke-width:1.5;"/><rect fill="none" height="473.4063" style="stroke:#000000;stroke-width:1.5;" width="874.6074" x="10" y="266.125"/><text fill="#000000" font-family="sans-serif" font-size="13" font-weight="bold" lengthAdjust="spacing" textLength="19.4429" x="25" y="279.1919">alt</text><text fill="#000000" font-family="sans-serif" font-size="11" font-weight="bold" lengthAdjust="spacing" textLength="203.5752" x="89.4429" y="278.3354">[Error al obtener medicamentos]</text><g class="message" data-participant-1="ControladorNegocio" data-participant-2="Administrador"><polygon fill="#181818" points="103.54,300.3906,93.54,304.3906,103.54,308.3906,99.54,304.3906" style="stroke:#181818;stroke-width:1;"/><line style="stroke:#181818;stroke-width:1;" x1="97.54" x2="524.9702" y1="304.3906" y2="304.3906"/><text fill="#000000" font-family="sans-serif" font-size="13" lengthAdjust="spacing" textLength="353.939" x="109.54" y="299.3247">mensaje("No se pudieron obtener los medicamentos")</text></g><line style="stroke:#000000;stroke-width:1;stroke-dasharray:2,2;" x1="10" x2="884.6074" y1="313.3906" y2="313.3906"/><text fill="#000000" font-family="sans-serif" font-size="11" font-weight="bold" lengthAdjust="spacing" textLength="98.9409" x="15" y="323.6011">[Lista obtenida]</text><g class="message" data-participant-1="ControladorNegocio" data-participant-2="Sistema"><polygon fill="#181818" points="831.4126,344.3281,841.4126,348.3281,831.4126,352.3281,835.4126,348.3281" style="stroke:#181818;stroke-width:1;"/><line style="stroke:#181818;stroke-width:1;" x1="525.9702" x2="837.4126" y1="348.3281" y2="348.3281"/><text fill="#000000" font-family="sans-serif" font-size="13" lengthAdjust="spacing" textLength="213.9541" x="532.9702" y="343.2622">mostrarLista(listaMedicamentos)</text></g><g class="message" data-participant-1="Sistema" data-participant-2="Administrador"><polygon fill="#181818" points="103.54,373.4609,93.54,377.4609,103.54,381.4609,99.54,377.4609" style="stroke:#181818;stroke-width:1;"/><line style="stroke:#181818;stroke-width:1;" x1="97.54" x2="842.4126" y1="377.4609" y2="377.4609"/><text fill="#000000" font-family="sans-serif" font-size="13" lengthAdjust="spacing" textLength="183.2632" x="109.54" y="372.395">mostrar(listaMedicamentos)</text></g><g class="message" data-participant-1="Administrador" data-participant-2="ControladorNegocio"><polygon fill="#181818" points="513.9702,402.5938,523.9702,406.5938,513.9702,410.5938,517.9702,406.5938" style="stroke:#181818;stroke-width:1;"/><line style="stroke:#181818;stroke-width:1;" x1="92.54" x2="519.9702" y1="406.5938" y2="406.5938"/><text fill="#000000" font-family="sans-serif" font-size="13" lengthAdjust="spacing" textLength="310.6733" x="99.54" y="401.5278">seleccionarMedicamento(nombreMedicamento)</text></g><g class="message" data-participant-1="Administrador" data-participant-2="ControladorNegocio"><polygon fill="#181818" points="513.9702,431.7266,523.9702,435.7266,513.9702,439.7266,517.9702,435.7266" style="stroke:#181818;stroke-width:1;"/><line style="stroke:#181818;stroke-width:1;" x1="92.54" x2="519.9702" y1="435.7266" y2="435.7266"/><text fill="#000000" font-family="sans-serif" font-size="13" lengthAdjust="spacing" textLength="147.8623" x="99.54" y="430.6606">confirmarEliminacion()</text></g><g class="message" data-participant-1="ControladorNegocio" data-participant-2="Sistema"><polygon fill="#181818" points="826.4126,460.8594,836.4126,464.8594,826.4126,468.8594,830.4126,464.8594" style="stroke:#181818;stroke-width:1;"/><line style="stroke:#181818;stroke-width:1;" x1="525.9702" x2="832.4126" y1="464.8594" y2="464.8594"/><text fill="#000000" font-family="sans-serif" font-size="13" lengthAdjust="spacing" textLength="286.1016" x="532.9702" y="459.7935">verificarAsociaciones(nombreMedicamento)</text></g><g class="message" data-participant-1="Sistema" data-participant-2="ControladorNegocio"><polygon fill="#181818" points="536.9702,489.9922,526.9702,493.9922,536.9702,497.9922,532.9702,493.9922" style="stroke:#181818;stroke-width:1;"/><line style="stroke:#181818;stroke-width:1;stroke-dasharray:2,2;" x1="530.9702" x2="842.4126" y1="493.9922" y2="493.9922"/><text fill="#000000" font-family="sans-serif" font-size="13" lengthAdjust="spacing" textLength="57.624" x="542.9702" y="488.9263">asociado</text></g><path d="M20,508.9922 L84.4429,508.9922 L84.4429,516.125 L74.4429,526.125 L20,526.125 L20,508.9922" fill="#EEEEEE" style="stroke:#000000;stroke-width:1.5;"/><rect fill="none" height="223.5391" style="stroke:#000000;stroke-width:1.5;" width="792.2178" x="20" y="508.9922"/><text fill="#000000" font-family="sans-serif" font-size="13" font-weight="bold" lengthAdjust="spacing" textLength="19.4429" x="35" y="522.0591">alt</text><text fill="#000000" font-family="sans-serif" font-size="11" font-weight="bold" lengthAdjust="spacing" textLength="261.8677" x="99.4429" y="521.2026">[Medicamento asociado a ventas/pedidos]</text><g class="message" data-participant-1="ControladorNegocio" data-participant-2="Administrador"><polygon fill="#181818" points="103.54,543.2578,93.54,547.2578,103.54,551.2578,99.54,547.2578" style="stroke:#181818;stroke-width:1;"/><line style="stroke:#181818;stroke-width:1;" x1="97.54" x2="524.9702" y1="547.2578" y2="547.2578"/><text fill="#000000" font-family="sans-serif" font-size="13" lengthAdjust="spacing" textLength="409.4302" x="109.54" y="542.1919">mensaje("No se puede eliminar: asociado a ventas o pedidos")</text></g><line style="stroke:#000000;stroke-width:1;stroke-dasharray:2,2;" x1="20" x2="812.2178" y1="556.2578" y2="556.2578"/><text fill="#000000" font-family="sans-serif" font-size="11" font-weight="bold" lengthAdjust="spacing" textLength="112.3364" x="25" y="566.4683">[Sin asociaciones]</text><g class="message" data-participant-1="ControladorNegocio" data-participant-2="Medicamento"><polygon fill="#181818" points="734.7559,587.1953,744.7559,591.1953,734.7559,595.1953,738.7559,591.1953" style="stroke:#181818;stroke-width:1;"/><line style="stroke:#181818;stroke-width:1;" x1="525.9702" x2="740.7559" y1="591.1953" y2="591.1953"/><text fill="#000000" font-family="sans-serif" font-size="13" lengthAdjust="spacing" textLength="201.7856" x="532.9702" y="586.1294">eliminar(nombreMedicamento)</text></g><g class="message" data-participant-1="Medicamento" data-participant-2="ControladorNegocio"><polygon fill="#181818" points="536.9702,616.3281,526.9702,620.3281,536.9702,624.3281,532.9702,620.3281" style="stroke:#181818;stroke-width:1;"/><line style="stroke:#181818;stroke-width:1;stroke-dasharray:2,2;" x1="530.9702" x2="750.7559" y1="620.3281" y2="620.3281"/><text fill="#000000" font-family="sans-serif" font-size="13" lengthAdjust="spacing" textLength="136.1064" x="542.9702" y="615.2622">resultadoEliminacion</text></g><path d="M30,635.3281 L94.4429,635.3281 L94.4429,642.4609 L84.4429,652.4609 L30,652.4609 L30,635.3281" fill="#EEEEEE" style="stroke:#000000;stroke-width:1.5;"/><rect fill="none" height="90.2031" style="stroke:#000000;stroke-width:1.5;" width="578.666" x="30" y="635.3281"/><text fill="#000000" font-family="sans-serif" font-size="13" font-weight="bold" lengthAdjust="spacing" textLength="19.4429" x="45" y="648.395">alt</text><text fill="#000000" font-family="sans-serif" font-size="11" font-weight="bold" lengthAdjust="spacing" textLength="120.0171" x="109.4429" y="647.5386">[Error de conexi&#243;n]</text><g class="message" data-participant-1="ControladorNegocio" data-participant-2="Administrador"><polygon fill="#181818" points="103.54,669.5938,93.54,673.5938,103.54,677.5938,99.54,673.5938" style="stroke:#181818;stroke-width:1;"/><line style="stroke:#181818;stroke-width:1;" x1="97.54" x2="524.9702" y1="673.5938" y2="673.5938"/><text fill="#000000" font-family="sans-serif" font-size="13" lengthAdjust="spacing" textLength="393.8022" x="109.54" y="668.5278">mensaje("Error al eliminar. Intente nuevamente m&#225;s tarde")</text></g><line style="stroke:#000000;stroke-width:1;stroke-dasharray:2,2;" x1="30" x2="608.666" y1="682.5938" y2="682.5938"/><text fill="#000000" font-family="sans-serif" font-size="11" font-weight="bold" lengthAdjust="spacing" textLength="130.2168" x="35" y="692.8042">[Eliminaci&#243;n exitosa]</text><g class="message" data-participant-1="ControladorNegocio" data-participant-2="Administrador"><polygon fill="#181818" points="103.54,713.5313,93.54,717.5313,103.54,721.5313,99.54,717.5313" style="stroke:#181818;stroke-width:1;"/><line style="stroke:#181818;stroke-width:1;" x1="97.54" x2="524.9702" y1="717.5313" y2="717.5313"/><text fill="#000000" font-family="sans-serif" font-size="13" lengthAdjust="spacing" textLength="333.6646" x="109.54" y="712.4653">mensaje("Medicamento eliminado correctamente")</text></g><!--SRC=[fLLTYjim47xNAOQyD7dOzZsGWkjemH0x48U-Qwr9KP6bHLP2UuwUe6Ve4NAnZkMVbOdJxhQ1O2FDVDytl_RAQuHjkOK7u5hLoeXANNyPa0WvIbM96est3MEYyjP18ib4DTu9QHshhF7EQaYxPtjMu1TRASl8I_dlCSPmL98xreAnpGOoeyWODXl69iZmy746T0sYgb2YowqyQnlhMwuOUqSuXBd_TEG5Fy0kAuy9R3daV9kbISwBuxuC9kmMkYMCyDPWdpmQOeevJagJswfDXRe8FyaGYzxXuOvyJV69ILebpe8neJrmvoWJGWzQe8uzWNxpSKmokIOlquYlk5mK5Xg4vxDKwAmPKRLj9iYB5KDDXhjMR6UbfFW3NrzGOh8jgGkEovjOLm6YDvxJsNdFEGRFlhmbt_4qpQu_2ghjBYvkLzlMz5MzrA36YjwCYAkyDBP-SXYTJEdJVV6O7VAaK_0sHXgNatArSEEaMRESmd_cX-oH0Zf0KkxJZ6Zs1IzVUFvIWGiwTIBXBcdeBX1WCnTIYpLstZ2Ha_hScy00B6qmZhftdEg0JDqRpyFW188K6Y-Q3yzqA_ik_lTEfbq0sENIhMzPm4BFi-WY3drTAjERTkbXeuY-1doNvLb19PZjhVjg9_jZa7Kl-PC2nAC_NBvcdpXipjhJKTHG8y2zrJAoZok6iaYjYT_QnJzUlxqguxuQOdzF-vss1mamPxm4VeJw-hC1Bvp4nKicGc4ctnzIGwCl_aDEdC1U4VL6PPt3odTYOWL6ik59_zy0]--></g></svg>