<svg xmlns="http://www.w3.org/2000/svg" xmlns:xlink="http://www.w3.org/1999/xlink" contentStyleType="text/css" data-diagram-type="SEQUENCE" height="876px" preserveAspectRatio="none" style="width:1387px;height:876px;background:#FFFFFF;" version="1.1" viewBox="0 0 1387 876" width="1387px" zoomAndPan="magnify"><title>Eliminaci&#243;n de Medicamento (L&#243;gica Correcta)</title><defs/><g><text fill="#000000" font-family="sans-serif" font-size="14" font-weight="bold" lengthAdjust="spacing" textLength="367.5479" x="521.697" y="27.9951">Eliminaci&#243;n de Medicamento (L&#243;gica Correcta)</text><g><title>NegocioControlador. Interfaz</title><rect fill="#FFFFFF" height="709.6641" style="stroke:#181818;stroke-width:1;" width="10" x="425.9102" y="149.7266"/></g><g><title>List.Medicamento.. medicamentos</title><rect fill="#FFFFFF" height="202.9297" style="stroke:#181818;stroke-width:1;" width="10" x="678.9482" y="178.8594"/></g><g><title>List.Medicamento.. medicamentos</title><rect fill="#FFFFFF" height="29.1328" style="stroke:#181818;stroke-width:1;" width="10" x="678.9482" y="779.125"/></g><g><title>Medicamento. objMed</title><rect fill="#FFFFFF" height="29.1328" style="stroke:#181818;stroke-width:1;" width="10" x="908.3545" y="232.125"/></g><g><title>List.Venta.. ventas</title><rect fill="#FFFFFF" height="202.9297" style="stroke:#181818;stroke-width:1;" width="10" x="1082.5435" y="478.9922"/></g><g><title>Venta. v</title><rect fill="#FFFFFF" height="29.1328" style="stroke:#181818;stroke-width:1;" width="10" x="1330.6499" y="532.2578"/></g><rect fill="none" height="77.3984" style="stroke:#000000;stroke-width:1.5;" width="778.8486" x="50" y="276.2578"/><rect fill="none" height="17.1328" style="stroke:#000000;stroke-width:1.5;" width="91.9517" x="60" y="329.5234"/><rect fill="none" height="358.3984" style="stroke:#000000;stroke-width:1.5;" width="1351.9419" x="30" y="493.9922"/><rect fill="none" height="77.3984" style="stroke:#000000;stroke-width:1.5;" width="1127.2266" x="50" y="576.3906"/><rect fill="none" height="17.1328" style="stroke:#000000;stroke-width:1.5;" width="91.9517" x="60" y="629.6563"/><rect fill="none" height="148.4688" style="stroke:#000000;stroke-width:1.5;" width="788.8486" x="40" y="696.9219"/><g><title>Administrador. Admin</title><rect fill="#000000" fill-opacity="0.00000" height="750.7969" width="8" x="125.5557" y="118.5938"/><line style="stroke:#181818;stroke-width:0.5;stroke-dasharray:5,5;" x1="129" x2="129" y1="118.5938" y2="869.3906"/></g><g><title>NegocioControlador. Interfaz</title><rect fill="#000000" fill-opacity="0.00000" height="750.7969" width="8" x="426.9102" y="118.5938"/><line style="stroke:#181818;stroke-width:0.5;stroke-dasharray:5,5;" x1="430.7725" x2="430.7725" y1="118.5938" y2="869.3906"/></g><g><title>List.Medicamento.. medicamentos</title><rect fill="#000000" fill-opacity="0.00000" height="750.7969" width="8" x="679.9482" y="118.5938"/><line style="stroke:#181818;stroke-width:0.5;stroke-dasharray:5,5;" x1="683.0479" x2="683.0479" y1="118.5938" y2="869.3906"/></g><g><title>Medicamento. objMed</title><rect fill="#000000" fill-opacity="0.00000" height="750.7969" width="8" x="909.3545" y="118.5938"/><line style="stroke:#181818;stroke-width:0.5;stroke-dasharray:5,5;" x1="912.8486" x2="912.8486" y1="118.5938" y2="869.3906"/></g><g><title>List.Venta.. ventas</title><rect fill="#000000" fill-opacity="0.00000" height="750.7969" width="8" x="1083.5435" y="118.5938"/><line style="stroke:#181818;stroke-width:0.5;stroke-dasharray:5,5;" x1="1086.8604" x2="1086.8604" y1="118.5938" y2="869.3906"/></g><g><title>Venta. v</title><rect fill="#000000" fill-opacity="0.00000" height="750.7969" width="8" x="1331.6499" y="118.5938"/><line style="stroke:#181818;stroke-width:0.5;stroke-dasharray:5,5;" x1="1335.3579" x2="1335.3579" y1="118.5938" y2="869.3906"/></g><g class="participant participant-head" data-participant="admin"><text fill="#000000" font-family="sans-serif" font-size="14" lengthAdjust="spacing" textLength="153.1113" x="50" y="115.292">Administrador: Admin</text><ellipse cx="129.5557" cy="50.7969" fill="#E2E2F0" rx="8" ry="8" style="stroke:#181818;stroke-width:0.5;"/><path d="M129.5557,58.7969 L129.5557,85.7969 M116.5557,66.7969 L142.5557,66.7969 M129.5557,85.7969 L116.5557,100.7969 M129.5557,85.7969 L142.5557,100.7969" fill="none" style="stroke:#181818;stroke-width:0.5;"/></g><g class="participant participant-head" data-participant="NegCtrl"><rect fill="#E2E2F0" height="30.2969" rx="2.5" ry="2.5" style="stroke:#181818;stroke-width:0.5;" width="216.2754" x="322.7725" y="87.2969"/><text fill="#000000" font-family="sans-serif" font-size="14" lengthAdjust="spacing" textLength="202.2754" x="329.7725" y="107.292">NegocioControlador: Interfaz</text></g><g class="participant participant-head" data-participant="listaMeds"><rect fill="#E2E2F0" height="30.2969" rx="2.5" ry="2.5" style="stroke:#181818;stroke-width:0.5;" width="269.8008" x="549.0479" y="87.2969"/><text fill="#000000" font-family="sans-serif" font-size="14" lengthAdjust="spacing" textLength="255.8008" x="556.0479" y="107.292">List&lt;Medicamento&gt;: medicamentos</text></g><g class="participant participant-head" data-participant="med"><rect fill="#E2E2F0" height="30.2969" rx="2.5" ry="2.5" style="stroke:#181818;stroke-width:0.5;" width="169.0117" x="828.8486" y="87.2969"/><text fill="#000000" font-family="sans-serif" font-size="14" lengthAdjust="spacing" textLength="155.0117" x="835.8486" y="107.292">Medicamento: objMed</text></g><g class="participant participant-head" data-participant="listaVentas"><rect fill="#E2E2F0" height="30.2969" rx="2.5" ry="2.5" style="stroke:#181818;stroke-width:0.5;" width="159.3662" x="1007.8604" y="87.2969"/><text fill="#000000" font-family="sans-serif" font-size="14" lengthAdjust="spacing" textLength="145.3662" x="1014.8604" y="107.292">List&lt;Venta&gt;: ventas</text></g><g class="participant participant-head" data-participant="venta"><rect fill="#E2E2F0" height="30.2969" rx="2.5" ry="2.5" style="stroke:#181818;stroke-width:0.5;" width="72.584" x="1299.3579" y="87.2969"/><text fill="#000000" font-family="sans-serif" font-size="14" lengthAdjust="spacing" textLength="58.584" x="1306.3579" y="107.292">Venta: v</text></g><g><title>NegocioControlador. Interfaz</title><rect fill="#FFFFFF" height="709.6641" style="stroke:#181818;stroke-width:1;" width="10" x="425.9102" y="149.7266"/></g><g><title>List.Medicamento.. medicamentos</title><rect fill="#FFFFFF" height="202.9297" style="stroke:#181818;stroke-width:1;" width="10" x="678.9482" y="178.8594"/></g><g><title>List.Medicamento.. medicamentos</title><rect fill="#FFFFFF" height="29.1328" style="stroke:#181818;stroke-width:1;" width="10" x="678.9482" y="779.125"/></g><g><title>Medicamento. objMed</title><rect fill="#FFFFFF" height="29.1328" style="stroke:#181818;stroke-width:1;" width="10" x="908.3545" y="232.125"/></g><g><title>List.Venta.. ventas</title><rect fill="#FFFFFF" height="202.9297" style="stroke:#181818;stroke-width:1;" width="10" x="1082.5435" y="478.9922"/></g><g><title>Venta. v</title><rect fill="#FFFFFF" height="29.1328" style="stroke:#181818;stroke-width:1;" width="10" x="1330.6499" y="532.2578"/></g><g class="message" data-participant-1="admin" data-participant-2="NegCtrl"><polygon fill="#181818" points="413.9102,145.7266,423.9102,149.7266,413.9102,153.7266,417.9102,149.7266" style="stroke:#181818;stroke-width:1;"/><line style="stroke:#181818;stroke-width:1;" x1="129.5557" x2="419.9102" y1="149.7266" y2="149.7266"/><text fill="#000000" font-family="sans-serif" font-size="13" lengthAdjust="spacing" textLength="277.3545" x="136.5557" y="144.6606">eliminarMedicamento(codigoBarra: String)</text></g><g class="message" data-participant-1="NegCtrl" data-participant-2="listaMeds"><polygon fill="#181818" points="666.9482,174.8594,676.9482,178.8594,666.9482,182.8594,670.9482,178.8594" style="stroke:#181818;stroke-width:1;"/><line style="stroke:#181818;stroke-width:1;" x1="435.9102" x2="672.9482" y1="178.8594" y2="178.8594"/><text fill="#000000" font-family="sans-serif" font-size="13" lengthAdjust="spacing" textLength="220.7207" x="442.9102" y="173.7935">buscarMedicamento(codigoBarra)</text></g><g class="message" data-participant-1="listaMeds" data-participant-2="med"><polygon fill="#181818" points="896.3545,228.125,906.3545,232.125,896.3545,236.125,900.3545,232.125" style="stroke:#181818;stroke-width:1;"/><line style="stroke:#181818;stroke-width:1;" x1="688.9482" x2="902.3545" y1="232.125" y2="232.125"/><text fill="#000000" font-family="sans-serif" font-size="13" lengthAdjust="spacing" textLength="112.1313" x="695.9482" y="227.0591">getCodigoBarra()</text></g><g class="message" data-participant-1="med" data-participant-2="listaMeds"><polygon fill="#181818" points="699.9482,257.2578,689.9482,261.2578,699.9482,265.2578,695.9482,261.2578" style="stroke:#181818;stroke-width:1;"/><line style="stroke:#181818;stroke-width:1;stroke-dasharray:2,2;" x1="693.9482" x2="912.3545" y1="261.2578" y2="261.2578"/><text fill="#000000" font-family="sans-serif" font-size="13" lengthAdjust="spacing" textLength="100.0327" x="705.9482" y="256.1919">&#171;codigoActual&#187;</text></g><path d="M50,276.2578 L114.4429,276.2578 L114.4429,283.3906 L104.4429,293.3906 L50,293.3906 L50,276.2578" fill="#EEEEEE" style="stroke:#000000;stroke-width:1.5;"/><rect fill="none" height="77.3984" style="stroke:#000000;stroke-width:1.5;" width="778.8486" x="50" y="276.2578"/><text fill="#000000" font-family="sans-serif" font-size="13" font-weight="bold" lengthAdjust="spacing" textLength="19.4429" x="65" y="289.3247">alt</text><text fill="#000000" font-family="sans-serif" font-size="11" font-weight="bold" lengthAdjust="spacing" textLength="191.8501" x="129.4429" y="288.4683">[codigoBarra == codigoActual]</text><g class="message" data-participant-1="listaMeds" data-participant-2="NegCtrl"><polygon fill="#181818" points="446.9102,310.5234,436.9102,314.5234,446.9102,318.5234,442.9102,314.5234" style="stroke:#181818;stroke-width:1;"/><line style="stroke:#181818;stroke-width:1;stroke-dasharray:2,2;" x1="440.9102" x2="677.9482" y1="314.5234" y2="314.5234"/><text fill="#000000" font-family="sans-serif" font-size="13" lengthAdjust="spacing" textLength="163.979" x="452.9102" y="309.4575">&#171;objMed : Medicamento&#187;</text></g><path d="M60,329.5234 L146.9517,329.5234 L146.9517,336.6563 L136.9517,346.6563 L60,346.6563 L60,329.5234" fill="#EEEEEE" style="stroke:#000000;stroke-width:1.5;"/><rect fill="none" height="17.1328" style="stroke:#000000;stroke-width:1.5;" width="91.9517" x="60" y="329.5234"/><text fill="#000000" font-family="sans-serif" font-size="13" font-weight="bold" lengthAdjust="spacing" textLength="41.9517" x="75" y="342.5903">break</text><g class="message" data-participant-1="listaMeds" data-participant-2="NegCtrl"><polygon fill="#181818" points="446.9102,377.7891,436.9102,381.7891,446.9102,385.7891,442.9102,381.7891" style="stroke:#181818;stroke-width:1;"/><line style="stroke:#181818;stroke-width:1;stroke-dasharray:2,2;" x1="440.9102" x2="682.9482" y1="381.7891" y2="381.7891"/><text fill="#000000" font-family="sans-serif" font-size="13" lengthAdjust="spacing" textLength="49.6323" x="452.9102" y="376.7231">&#171;NULL&#187;</text></g><g class="message" data-participant-1="NegCtrl" data-participant-2="admin"><polygon fill="#181818" points="140.5557,431.0547,130.5557,435.0547,140.5557,439.0547,136.5557,435.0547" style="stroke:#181818;stroke-width:1;"/><line style="stroke:#181818;stroke-width:1;stroke-dasharray:2,2;" x1="134.5557" x2="424.9102" y1="435.0547" y2="435.0547"/><text fill="#000000" font-family="sans-serif" font-size="13" lengthAdjust="spacing" textLength="225.7988" x="146.5557" y="429.9888">&#171;Error: El medicamento no existe&#187;</text></g><g class="message" data-participant-1="NegCtrl" data-participant-2="listaVentas"><polygon fill="#181818" points="1070.5435,474.9922,1080.5435,478.9922,1070.5435,482.9922,1074.5435,478.9922" style="stroke:#181818;stroke-width:1;"/><line style="stroke:#181818;stroke-width:1;" x1="435.9102" x2="1076.5435" y1="478.9922" y2="478.9922"/><text fill="#000000" font-family="sans-serif" font-size="13" lengthAdjust="spacing" textLength="196.3838" x="442.9102" y="473.9263">verificarUsoEnVentas(objMed)</text></g><path d="M30,493.9922 L106.624,493.9922 L106.624,501.125 L96.624,511.125 L30,511.125 L30,493.9922" fill="#EEEEEE" style="stroke:#000000;stroke-width:1.5;"/><rect fill="none" height="358.3984" style="stroke:#000000;stroke-width:1.5;" width="1351.9419" x="30" y="493.9922"/><text fill="#000000" font-family="sans-serif" font-size="13" font-weight="bold" lengthAdjust="spacing" textLength="31.624" x="45" y="507.0591">loop</text><a href="para" target="_top" title="para" xlink:actuate="onRequest" xlink:href="para" xlink:show="new" xlink:title="para" xlink:type="simple"><text fill="#0000FF" font-family="sans-serif" font-size="11" font-weight="bold" lengthAdjust="spacing" text-decoration="underline" textLength="104.8813" x="121.624" y="506.2026">cada v en ventas</text></a><g class="message" data-participant-1="listaVentas" data-participant-2="venta"><polygon fill="#181818" points="1318.6499,528.2578,1328.6499,532.2578,1318.6499,536.2578,1322.6499,532.2578" style="stroke:#181818;stroke-width:1;"/><line style="stroke:#181818;stroke-width:1;" x1="1092.5435" x2="1324.6499" y1="532.2578" y2="532.2578"/><text fill="#000000" font-family="sans-serif" font-size="13" lengthAdjust="spacing" textLength="201.8555" x="1099.5435" y="527.1919">contieneMedicamento(objMed)</text></g><g class="message" data-participant-1="venta" data-participant-2="listaVentas"><polygon fill="#181818" points="1103.5435,557.3906,1093.5435,561.3906,1103.5435,565.3906,1099.5435,561.3906" style="stroke:#181818;stroke-width:1;"/><line style="stroke:#181818;stroke-width:1;stroke-dasharray:2,2;" x1="1097.5435" x2="1334.6499" y1="561.3906" y2="561.3906"/><text fill="#000000" font-family="sans-serif" font-size="13" lengthAdjust="spacing" textLength="214.1064" x="1109.5435" y="556.3247">&#171;tieneElMedicamento : Boolean&#187;</text></g><path d="M50,576.3906 L114.4429,576.3906 L114.4429,583.5234 L104.4429,593.5234 L50,593.5234 L50,576.3906" fill="#EEEEEE" style="stroke:#000000;stroke-width:1.5;"/><rect fill="none" height="77.3984" style="stroke:#000000;stroke-width:1.5;" width="1127.2266" x="50" y="576.3906"/><text fill="#000000" font-family="sans-serif" font-size="13" font-weight="bold" lengthAdjust="spacing" textLength="19.4429" x="65" y="589.4575">alt</text><text fill="#000000" font-family="sans-serif" font-size="11" font-weight="bold" lengthAdjust="spacing" textLength="420.6479" x="129.4429" y="588.6011">[(tieneElMedicamento == true) AND (venta.estado == PENDIENTE)]</text><g class="message" data-participant-1="listaVentas" data-participant-2="NegCtrl"><polygon fill="#181818" points="446.9102,610.6563,436.9102,614.6563,446.9102,618.6563,442.9102,614.6563" style="stroke:#181818;stroke-width:1;"/><line style="stroke:#181818;stroke-width:1;stroke-dasharray:2,2;" x1="440.9102" x2="1081.5435" y1="614.6563" y2="614.6563"/><text fill="#000000" font-family="sans-serif" font-size="13" lengthAdjust="spacing" textLength="90.7461" x="452.9102" y="609.5903">&#171;CONFLICTO&#187;</text></g><path d="M60,629.6563 L146.9517,629.6563 L146.9517,636.7891 L136.9517,646.7891 L60,646.7891 L60,629.6563" fill="#EEEEEE" style="stroke:#000000;stroke-width:1.5;"/><rect fill="none" height="17.1328" style="stroke:#000000;stroke-width:1.5;" width="91.9517" x="60" y="629.6563"/><text fill="#000000" font-family="sans-serif" font-size="13" font-weight="bold" lengthAdjust="spacing" textLength="41.9517" x="75" y="642.7231">break</text><g class="message" data-participant-1="listaVentas" data-participant-2="NegCtrl"><polygon fill="#181818" points="446.9102,677.9219,436.9102,681.9219,446.9102,685.9219,442.9102,681.9219" style="stroke:#181818;stroke-width:1;"/><line style="stroke:#181818;stroke-width:1;stroke-dasharray:2,2;" x1="440.9102" x2="1086.5435" y1="681.9219" y2="681.9219"/><text fill="#000000" font-family="sans-serif" font-size="13" lengthAdjust="spacing" textLength="34.6646" x="452.9102" y="676.856">&#171;OK&#187;</text></g><path d="M40,696.9219 L104.4429,696.9219 L104.4429,704.0547 L94.4429,714.0547 L40,714.0547 L40,696.9219" fill="#EEEEEE" style="stroke:#000000;stroke-width:1.5;"/><rect fill="none" height="148.4688" style="stroke:#000000;stroke-width:1.5;" width="788.8486" x="40" y="696.9219"/><text fill="#000000" font-family="sans-serif" font-size="13" font-weight="bold" lengthAdjust="spacing" textLength="19.4429" x="55" y="709.9888">alt</text><text fill="#000000" font-family="sans-serif" font-size="11" font-weight="bold" lengthAdjust="spacing" textLength="145.6479" x="119.4429" y="709.1323">[Se recibi&#243; CONFLICTO]</text><g class="message" data-participant-1="NegCtrl" data-participant-2="admin"><polygon fill="#181818" points="140.5557,731.1875,130.5557,735.1875,140.5557,739.1875,136.5557,735.1875" style="stroke:#181818;stroke-width:1;"/><line style="stroke:#181818;stroke-width:1;stroke-dasharray:2,2;" x1="134.5557" x2="424.9102" y1="735.1875" y2="735.1875"/><text fill="#000000" font-family="sans-serif" font-size="13" lengthAdjust="spacing" textLength="238.2148" x="146.5557" y="730.1216">&#171;Error: Asociado a venta pendiente&#187;</text></g><line style="stroke:#000000;stroke-width:1;stroke-dasharray:2,2;" x1="40" x2="828.8486" y1="744.1875" y2="744.1875"/><text fill="#000000" font-family="sans-serif" font-size="11" font-weight="bold" lengthAdjust="spacing" textLength="227.4497" x="45" y="754.3979">[Se recibi&#243; OK (Eliminaci&#243;n Exitosa)]</text><g class="message" data-participant-1="NegCtrl" data-participant-2="listaMeds"><polygon fill="#181818" points="666.9482,775.125,676.9482,779.125,666.9482,783.125,670.9482,779.125" style="stroke:#181818;stroke-width:1;"/><line style="stroke:#181818;stroke-width:1;" x1="435.9102" x2="672.9482" y1="779.125" y2="779.125"/><text fill="#000000" font-family="sans-serif" font-size="13" lengthAdjust="spacing" textLength="184.082" x="442.9102" y="774.0591">quitarMedicamento(objMed)</text></g><g class="message" data-participant-1="listaMeds" data-participant-2="NegCtrl"><polygon fill="#181818" points="446.9102,804.2578,436.9102,808.2578,446.9102,812.2578,442.9102,808.2578" style="stroke:#181818;stroke-width:1;"/><line style="stroke:#181818;stroke-width:1;stroke-dasharray:2,2;" x1="440.9102" x2="682.9482" y1="808.2578" y2="808.2578"/><text fill="#000000" font-family="sans-serif" font-size="13" lengthAdjust="spacing" textLength="50.6099" x="452.9102" y="803.1919">&#171;TRUE&#187;</text></g><g class="message" data-participant-1="NegCtrl" data-participant-2="admin"><polygon fill="#181818" points="140.5557,833.3906,130.5557,837.3906,140.5557,841.3906,136.5557,837.3906" style="stroke:#181818;stroke-width:1;"/><line style="stroke:#181818;stroke-width:1;stroke-dasharray:2,2;" x1="134.5557" x2="424.9102" y1="837.3906" y2="837.3906"/><text fill="#000000" font-family="sans-serif" font-size="13" lengthAdjust="spacing" textLength="121.1133" x="146.5557" y="832.3247">&#171;&#201;xito: Eliminado&#187;</text></g><!--SRC=[ZLPBRjim4Dth58DiAY_I0nY90SLXWA2gqpPEDqKMj3HHsTAaIz51q1lqF3r2BjOXQKcavAJHmfQeDs_U_4XPOIK2as8h5A_4yry5DS97h4N5jwYiXhny_jlG4oorCLXPFikoxu903rhRZNxACbvPRU2ag8b3jDRmMfiv-CSJu2rmTvVjkB6Y4ZkkB9oiiD6Lq4kjhD4o65mhY-Q1__Os15XQ8rEhajZF8csBEMo7fzORIi9mmhIfQMGr1xtvGSyUJlP7V7mb72VsH_SVyVhr4RDV8wX7UGFAY8iOJXTT630732asaP2yqhLez0KtXWXkhH6gcRbiYaTkiKz11dHrHCJPHqYictrRlSWvyvOztv0Pj-n_fDOx-4RXSAXupM4Bg9AKtdkOX_PUIG91o7c3TZbuosSzjdVfijijEflJaVopCmXwYyhkkOJ5eeVNU9Hby24jHB72-Nb2rUD6sfEQaFlG2dGVjtmamrqRW_ndlu8ggEd-i_zuMDsLPSSO1JLK8-l2EMYXI9nDxx0lFJ67nlAyp1WtDKp61GEb0P-86kCWWbxPOW95LRdne-63d9N0obi6d-yON1NbkhWeXd9cKocBU1x03OeH3yHixbhDL5ZEGpn7sYAUfKbXnptvw7eo3EBzjAe71IJ8GqYA2qgWmdWenaeIDM5curU1wdGI9MNTKpCPTyiSBhIMoDMuRw9gJtsaMgZw-H5gQWLhzZY3OdK9kITvZwIezgy-iTNbDLkjMHhO93VZZbpUhAxAw-NwPYnusknneu_lipSvk_dmmbI_sWGk8RS8TDw83HrAW-H4sUkJKRHqnBXKyKD1TwIUSfpEHkBMpqZibzJdoU78dWHjYtnsN4Uwk_tQ2vjkpg_sORe_ls7lMd-XQNsvvuxplIM1ptzSbFFkiw1ETiH92z02l8ChuRuSPDX66j7GsOXP5iav-Fe7]--></g></svg>