<svg xmlns="http://www.w3.org/2000/svg" xmlns:xlink="http://www.w3.org/1999/xlink" contentStyleType="text/css" data-diagram-type="SEQUENCE" height="928px" preserveAspectRatio="none" style="width:2115px;height:928px;background:#FFFFFF;" version="1.1" viewBox="0 0 2115 928" width="2115px" zoomAndPan="magnify"><title>Eliminaci&#243;n de Medicamentos</title><defs/><g><text fill="#000000" font-family="sans-serif" font-size="14" font-weight="bold" lengthAdjust="spacing" textLength="234.5957" x="939.626" y="27.9951">Eliminaci&#243;n de Medicamentos</text><g><title>admin.Administrador</title><rect fill="#000000" fill-opacity="0.00000" height="802.9219" width="8" x="78.3315" y="118.5938"/><line style="stroke:#181818;stroke-width:0.5;stroke-dasharray:5,5;" x1="81.8315" x2="81.8315" y1="118.5938" y2="921.5156"/></g><g><title>gc.GestionControlador</title><rect fill="#000000" fill-opacity="0.00000" height="802.9219" width="8" x="611.7925" y="118.5938"/><line style="stroke:#181818;stroke-width:0.5;stroke-dasharray:5,5;" x1="615.2925" x2="615.2925" y1="118.5938" y2="921.5156"/></g><g><title/><rect fill="#FFFFFF" height="713.7891" style="stroke:#181818;stroke-width:1;" width="10" x="610.2925" y="147.7266"/></g><g><title>catMed...Singleton..</title><rect fill="#000000" fill-opacity="0.00000" height="802.9219" width="8" x="1087.2358" y="118.5938"/><line style="stroke:#181818;stroke-width:0.5;stroke-dasharray:5,5;" x1="1090.7358" x2="1090.7358" y1="118.5938" y2="921.5156"/></g><g><title/><rect fill="#FFFFFF" height="132.5313" style="stroke:#181818;stroke-width:1;" width="10" x="1085.7358" y="176.8594"/></g><g><title/><rect fill="#FFFFFF" height="87.3984" style="stroke:#181818;stroke-width:1;" width="10" x="1085.7358" y="744.9844"/></g><g><title>listaMed.i..Medicamento</title><rect fill="#000000" fill-opacity="0.00000" height="802.9219" width="8" x="1474.5356" y="118.5938"/><line style="stroke:#181818;stroke-width:0.5;stroke-dasharray:5,5;" x1="1478.0356" x2="1478.0356" y1="118.5938" y2="921.5156"/></g><g><title/><rect fill="#FFFFFF" height="29.1328" style="stroke:#181818;stroke-width:1;" width="10" x="1473.0356" y="237.125"/></g><g><title/><rect fill="#FFFFFF" height="29.1328" style="stroke:#181818;stroke-width:1;" width="10" x="1473.0356" y="774.1172"/></g><g><title>catVentas...Singleton..</title><rect fill="#000000" fill-opacity="0.00000" height="802.9219" width="8" x="1664.126" y="118.5938"/><line style="stroke:#181818;stroke-width:0.5;stroke-dasharray:5,5;" x1="1667.626" x2="1667.626" y1="118.5938" y2="921.5156"/></g><g><title>listaVentas.j..Venta</title><rect fill="#000000" fill-opacity="0.00000" height="802.9219" width="8" x="1836.2437" y="118.5938"/><line style="stroke:#181818;stroke-width:0.5;stroke-dasharray:5,5;" x1="1839.7437" x2="1839.7437" y1="118.5938" y2="921.5156"/></g><g><title>detalles.k..DetalleVenta</title><rect fill="#000000" fill-opacity="0.00000" height="802.9219" width="8" x="2014.353" y="118.5938"/><line style="stroke:#181818;stroke-width:0.5;stroke-dasharray:5,5;" x1="2017.853" x2="2017.853" y1="118.5938" y2="921.5156"/></g><g><title/><rect fill="#FFFFFF" height="29.1328" style="stroke:#181818;stroke-width:1;" width="10" x="2012.853" y="514.1875"/></g><text fill="#000000" font-family="sans-serif" font-size="14" lengthAdjust="spacing" textLength="147.6631" x="5" y="115.292">admin:Administrador</text><ellipse cx="81.8315" cy="50.7969" fill="#E2E2F0" rx="8" ry="8" style="stroke:#181818;stroke-width:0.5;"/><path d="M81.8315,58.7969 L81.8315,85.7969 M68.8315,66.7969 L94.8315,66.7969 M81.8315,85.7969 L68.8315,100.7969 M81.8315,85.7969 L94.8315,100.7969" fill="none" style="stroke:#181818;stroke-width:0.5;"/><rect fill="#E2E2F0" height="30.2969" rx="2.5" ry="2.5" style="stroke:#181818;stroke-width:0.5;" width="171.5752" x="529.5049" y="87.2969"/><text fill="#000000" font-family="sans-serif" font-size="14" lengthAdjust="spacing" textLength="157.5752" x="536.5049" y="107.292">gc:GestionControlador</text><rect fill="#E2E2F0" height="46.5938" rx="2.5" ry="2.5" style="stroke:#181818;stroke-width:0.5;" width="178.5479" x="1001.4619" y="71"/><text fill="#000000" font-family="sans-serif" font-size="14" lengthAdjust="spacing" textLength="139.1592" x="1021.1563" y="90.9951">catMed:&#171;Singleton&#187;</text><text fill="#000000" font-family="sans-serif" font-size="14" lengthAdjust="spacing" textLength="164.5479" x="1008.4619" y="107.292">CatalogoMedicamentos</text><rect fill="#E2E2F0" height="30.2969" rx="2.5" ry="2.5" style="stroke:#181818;stroke-width:0.5;" width="187.1748" x="1384.4482" y="87.2969"/><text fill="#000000" font-family="sans-serif" font-size="14" lengthAdjust="spacing" textLength="173.1748" x="1391.4482" y="107.292">listaMed[i]:Medicamento</text><rect fill="#E2E2F0" height="46.5938" rx="2.5" ry="2.5" style="stroke:#181818;stroke-width:0.5;" width="172.0059" x="1581.623" y="71"/><text fill="#000000" font-family="sans-serif" font-size="14" lengthAdjust="spacing" textLength="158.0059" x="1588.623" y="90.9951">catVentas:&#171;Singleton&#187;</text><text fill="#000000" font-family="sans-serif" font-size="14" lengthAdjust="spacing" textLength="110.7559" x="1612.248" y="107.292">CatalogoVentas</text><rect fill="#E2E2F0" height="30.2969" rx="2.5" ry="2.5" style="stroke:#181818;stroke-width:0.5;" width="152.2295" x="1763.6289" y="87.2969"/><text fill="#000000" font-family="sans-serif" font-size="14" lengthAdjust="spacing" textLength="138.2295" x="1770.6289" y="107.292">listaVentas[j]:Venta</text><rect fill="#E2E2F0" height="30.2969" rx="2.5" ry="2.5" style="stroke:#181818;stroke-width:0.5;" width="183.9893" x="1925.8584" y="87.2969"/><text fill="#000000" font-family="sans-serif" font-size="14" lengthAdjust="spacing" textLength="169.9893" x="1932.8584" y="107.292">detalles[k]:DetalleVenta</text><polygon fill="#181818" points="598.2925,143.7266,608.2925,147.7266,598.2925,151.7266,602.2925,147.7266" style="stroke:#181818;stroke-width:1;"/><line style="stroke:#181818;stroke-width:1;" x1="81.8315" x2="604.2925" y1="147.7266" y2="147.7266"/><text fill="#000000" font-family="sans-serif" font-size="13" lengthAdjust="spacing" textLength="244.3721" x="88.8315" y="142.6606">eliminarMedicamento(codBarra : INT)</text><polygon fill="#181818" points="1073.7358,172.8594,1083.7358,176.8594,1073.7358,180.8594,1077.7358,176.8594" style="stroke:#181818;stroke-width:1;"/><line style="stroke:#181818;stroke-width:1;" x1="620.2925" x2="1079.7358" y1="176.8594" y2="176.8594"/><text fill="#000000" font-family="sans-serif" font-size="13" lengthAdjust="spacing" textLength="235.0474" x="627.2925" y="171.7935">buscarMedicamento(codBarra : INT)</text><path d="M1074.7358,188.8594 L1151.3599,188.8594 L1151.3599,195.9922 L1141.3599,205.9922 L1074.7358,205.9922 L1074.7358,188.8594" fill="#EEEEEE" style="stroke:#000000;stroke-width:1.5;"/><rect fill="none" height="85.3984" style="stroke:#000000;stroke-width:1.5;" width="424.2998" x="1074.7358" y="188.8594"/><text fill="#000000" font-family="sans-serif" font-size="13" font-weight="bold" lengthAdjust="spacing" textLength="31.624" x="1089.7358" y="201.9263">loop</text><text fill="#000000" font-family="sans-serif" font-size="11" font-weight="bold" lengthAdjust="spacing" textLength="152.4424" x="1166.3599" y="201.0698">[hasta cod == codBarra]</text><polygon fill="#181818" points="1461.0356,233.125,1471.0356,237.125,1461.0356,241.125,1465.0356,237.125" style="stroke:#181818;stroke-width:1;"/><line style="stroke:#181818;stroke-width:1;" x1="1095.7358" x2="1467.0356" y1="237.125" y2="237.125"/><text fill="#000000" font-family="sans-serif" font-size="13" lengthAdjust="spacing" textLength="112.1313" x="1102.7358" y="232.0591">getCodigoBarra()</text><polygon fill="#181818" points="1106.7358,262.2578,1096.7358,266.2578,1106.7358,270.2578,1102.7358,266.2578" style="stroke:#181818;stroke-width:1;"/><line style="stroke:#181818;stroke-width:1;stroke-dasharray:2,2;" x1="1100.7358" x2="1472.0356" y1="266.2578" y2="266.2578"/><text fill="#000000" font-family="sans-serif" font-size="13" lengthAdjust="spacing" textLength="73.4043" x="1112.7358" y="261.1919">&#171;cod : INT&#187;</text><polygon fill="#181818" points="631.2925,305.3906,621.2925,309.3906,631.2925,313.3906,627.2925,309.3906" style="stroke:#181818;stroke-width:1;"/><line style="stroke:#181818;stroke-width:1;stroke-dasharray:2,2;" x1="625.2925" x2="1084.7358" y1="309.3906" y2="309.3906"/><text fill="#000000" font-family="sans-serif" font-size="13" lengthAdjust="spacing" textLength="363.2383" x="637.2925" y="304.3247">&#171;NULL O medEncontrado : Object Type : Medicamento&#187;</text><path d="M27.8315,321.3906 L92.2744,321.3906 L92.2744,328.5234 L82.2744,338.5234 L27.8315,338.5234 L27.8315,321.3906" fill="#EEEEEE" style="stroke:#000000;stroke-width:1.5;"/><rect fill="none" height="576.125" style="stroke:#000000;stroke-width:1.5;" width="2061.0215" x="27.8315" y="321.3906"/><text fill="#000000" font-family="sans-serif" font-size="13" font-weight="bold" lengthAdjust="spacing" textLength="19.4429" x="42.8315" y="334.4575">alt</text><text fill="#000000" font-family="sans-serif" font-size="11" font-weight="bold" lengthAdjust="spacing" textLength="81.3022" x="107.2744" y="333.6011">[cod == null]</text><line style="stroke:#000000;stroke-width:1;stroke-dasharray:2,2;" x1="27.8315" x2="2088.853" y1="388.6563" y2="388.6563"/><polygon fill="#181818" points="92.8315,365.6563,82.8315,369.6563,92.8315,373.6563,88.8315,369.6563" style="stroke:#181818;stroke-width:1;"/><line style="stroke:#181818;stroke-width:1;stroke-dasharray:2,2;" x1="86.8315" x2="609.2925" y1="369.6563" y2="369.6563"/><text fill="#000000" font-family="sans-serif" font-size="13" lengthAdjust="spacing" textLength="221.8506" x="98.8315" y="364.5903">"Error: El medicamento no existe"</text><path d="M625.2925,400.6563 L625.2925,425.6563 L784.2925,425.6563 L784.2925,410.6563 L774.2925,400.6563 L625.2925,400.6563" fill="#FEFFDD" style="stroke:#181818;stroke-width:0.5;"/><path d="M774.2925,400.6563 L774.2925,410.6563 L784.2925,410.6563 L774.2925,400.6563" fill="#FEFFDD" style="stroke:#181818;stroke-width:0.5;"/><text fill="#000000" font-family="sans-serif" font-size="13" lengthAdjust="spacing" textLength="138.5566" x="631.2925" y="417.7231">vtaAsociada = FALSE</text><path d="M46.8315,434.7891 L123.4556,434.7891 L123.4556,441.9219 L113.4556,451.9219 L46.8315,451.9219 L46.8315,434.7891" fill="#EEEEEE" style="stroke:#000000;stroke-width:1.5;"/><rect fill="none" height="448.7266" style="stroke:#000000;stroke-width:1.5;" width="2017.0215" x="46.8315" y="434.7891"/><text fill="#000000" font-family="sans-serif" font-size="13" font-weight="bold" lengthAdjust="spacing" textLength="31.624" x="61.8315" y="447.856">loop</text><text fill="#000000" font-family="sans-serif" font-size="11" font-weight="bold" lengthAdjust="spacing" textLength="175.0225" x="138.4556" y="446.9995">[para cada v en listaVentas]</text><path d="M585.2925,465.9219 L661.9165,465.9219 L661.9165,473.0547 L651.9165,483.0547 L585.2925,483.0547 L585.2925,465.9219" fill="#EEEEEE" style="stroke:#000000;stroke-width:1.5;"/><rect fill="none" height="165.6641" style="stroke:#000000;stroke-width:1.5;" width="1453.5605" x="585.2925" y="465.9219"/><text fill="#000000" font-family="sans-serif" font-size="13" font-weight="bold" lengthAdjust="spacing" textLength="31.624" x="600.2925" y="478.9888">loop</text><text fill="#000000" font-family="sans-serif" font-size="11" font-weight="bold" lengthAdjust="spacing" textLength="185.6519" x="676.9165" y="478.1323">[para cada d en detalles de v]</text><polygon fill="#181818" points="2000.853,510.1875,2010.853,514.1875,2000.853,518.1875,2004.853,514.1875" style="stroke:#181818;stroke-width:1;"/><line style="stroke:#181818;stroke-width:1;" x1="620.2925" x2="2006.853" y1="514.1875" y2="514.1875"/><text fill="#000000" font-family="sans-serif" font-size="13" lengthAdjust="spacing" textLength="112.1313" x="627.2925" y="509.1216">getCodigoBarra()</text><polygon fill="#181818" points="631.2925,539.3203,621.2925,543.3203,631.2925,547.3203,627.2925,543.3203" style="stroke:#181818;stroke-width:1;"/><line style="stroke:#181818;stroke-width:1;stroke-dasharray:2,2;" x1="625.2925" x2="2011.853" y1="543.3203" y2="543.3203"/><text fill="#000000" font-family="sans-serif" font-size="13" lengthAdjust="spacing" textLength="119.6978" x="637.2925" y="538.2544">&#171;codDetalle : INT&#187;</text><path d="M604.2925,555.3203 L668.7354,555.3203 L668.7354,562.4531 L658.7354,572.4531 L604.2925,572.4531 L604.2925,555.3203" fill="#EEEEEE" style="stroke:#000000;stroke-width:1.5;"/><rect fill="none" height="62.2656" style="stroke:#000000;stroke-width:1.5;" width="253.8472" x="604.2925" y="555.3203"/><text fill="#000000" font-family="sans-serif" font-size="13" font-weight="bold" lengthAdjust="spacing" textLength="19.4429" x="619.2925" y="568.3872">alt</text><text fill="#000000" font-family="sans-serif" font-size="11" font-weight="bold" lengthAdjust="spacing" textLength="158.4043" x="683.7354" y="567.5308">[codDetalle == codBarra]</text><path d="M625.2925,587.4531 L625.2925,612.4531 L779.2925,612.4531 L779.2925,597.4531 L769.2925,587.4531 L625.2925,587.4531" fill="#FEFFDD" style="stroke:#181818;stroke-width:0.5;"/><path d="M769.2925,587.4531 L769.2925,597.4531 L779.2925,597.4531 L769.2925,587.4531" fill="#FEFFDD" style="stroke:#181818;stroke-width:0.5;"/><text fill="#000000" font-family="sans-serif" font-size="13" lengthAdjust="spacing" textLength="133.1802" x="631.2925" y="604.52">vtaAsociada = TRUE</text><path d="M65.8315,649.5859 L130.2744,649.5859 L130.2744,656.7188 L120.2744,666.7188 L65.8315,666.7188 L65.8315,649.5859" fill="#EEEEEE" style="stroke:#000000;stroke-width:1.5;"/><rect fill="none" height="219.9297" style="stroke:#000000;stroke-width:1.5;" width="1433.2041" x="65.8315" y="649.5859"/><text fill="#000000" font-family="sans-serif" font-size="13" font-weight="bold" lengthAdjust="spacing" textLength="19.4429" x="80.8315" y="662.6528">alt</text><text fill="#000000" font-family="sans-serif" font-size="11" font-weight="bold" lengthAdjust="spacing" textLength="144.0474" x="145.2744" y="661.7964">[vtaAsociada == TRUE]</text><line style="stroke:#000000;stroke-width:1;stroke-dasharray:2,2;" x1="65.8315" x2="1499.0356" y1="716.8516" y2="716.8516"/><polygon fill="#181818" points="92.8315,693.8516,82.8315,697.8516,92.8315,701.8516,88.8315,697.8516" style="stroke:#181818;stroke-width:1;"/><line style="stroke:#181818;stroke-width:1;stroke-dasharray:2,2;" x1="86.8315" x2="609.2925" y1="697.8516" y2="697.8516"/><text fill="#000000" font-family="sans-serif" font-size="13" lengthAdjust="spacing" textLength="504.4609" x="98.8315" y="692.7856">"Error: No se puede eliminar porque el medicamento tiene ventas asociadas"</text><polygon fill="#181818" points="1073.7358,740.9844,1083.7358,744.9844,1073.7358,748.9844,1077.7358,744.9844" style="stroke:#181818;stroke-width:1;"/><line style="stroke:#181818;stroke-width:1;" x1="620.2925" x2="1079.7358" y1="744.9844" y2="744.9844"/><text fill="#000000" font-family="sans-serif" font-size="13" lengthAdjust="spacing" textLength="446.4434" x="627.2925" y="739.9185">eliminarMedicamento(medEncontrado : Object Type : Medicamento)</text><polygon fill="#181818" points="1461.0356,770.1172,1471.0356,774.1172,1461.0356,778.1172,1465.0356,774.1172" style="stroke:#181818;stroke-width:1;"/><line style="stroke:#181818;stroke-width:1;" x1="1095.7358" x2="1467.0356" y1="774.1172" y2="774.1172"/><text fill="#000000" font-family="sans-serif" font-size="13" lengthAdjust="spacing" textLength="358.2998" x="1102.7358" y="769.0513">eliminar(medEncontrado : Object Type : Medicamento)</text><polygon fill="#181818" points="1106.7358,799.25,1096.7358,803.25,1106.7358,807.25,1102.7358,803.25" style="stroke:#181818;stroke-width:1;"/><line style="stroke:#181818;stroke-width:1;stroke-dasharray:2,2;" x1="1100.7358" x2="1472.0356" y1="803.25" y2="803.25"/><text fill="#000000" font-family="sans-serif" font-size="13" lengthAdjust="spacing" textLength="49.6323" x="1112.7358" y="798.1841">&#171;NULL&#187;</text><polygon fill="#181818" points="631.2925,828.3828,621.2925,832.3828,631.2925,836.3828,627.2925,832.3828" style="stroke:#181818;stroke-width:1;"/><line style="stroke:#181818;stroke-width:1;stroke-dasharray:2,2;" x1="625.2925" x2="1084.7358" y1="832.3828" y2="832.3828"/><text fill="#000000" font-family="sans-serif" font-size="13" lengthAdjust="spacing" textLength="49.6323" x="637.2925" y="827.3169">&#171;NULL&#187;</text><polygon fill="#181818" points="92.8315,857.5156,82.8315,861.5156,92.8315,865.5156,88.8315,861.5156" style="stroke:#181818;stroke-width:1;"/><line style="stroke:#181818;stroke-width:1;stroke-dasharray:2,2;" x1="86.8315" x2="609.2925" y1="861.5156" y2="861.5156"/><text fill="#000000" font-family="sans-serif" font-size="13" lengthAdjust="spacing" textLength="261.3647" x="98.8315" y="856.4497">"Medicamento eliminado exitosamente"</text><!--SRC=[hLPDSjem5Dxx5AziIXPqfZyh3s76CMx77J0P86pIB1HRE4gDvCY2INgD7gL7oCNw95kE3QQJQT02szBxVz_xnBjSadH3G57n2vJSKkUE9HJMGgXRyUWefZ8AGSOsZ9EOFV_XWATJch2OR2XNed0S4YiXeKSIb74z_SiA9KaYP0z80MRVoObKB6OvuGfwQUn-euLYWlk2AocoMZYDsv8nKUZC7GuNZASPLOAFHZ-uJnJ9H2gQSHZrKhnj8iDe2EvUinkteL369YLvEj10AoiK8SKnl-MfzLX-TJWj3wxlRrppzkAnIoEXQ3kZnVNF6tTSlkzfLRjOyVTm_jQ5Di8ezCFPIOoP7iDWXFq35sW95zceTZyMoONE0e_3Q7ccGSDsH57TSGnXyDQ5DYwznGm-kd1njV2zEGGJc0RZqFUcGRISGV-IeFTOy3MJ6oBXOKk1FcARwDb9_6Fcc7y9G4poTbl4hwn01Le7S6L2v71743mOQeAT0QjcZlMgNA0pYrwqc5BbYuIbmiZspshfsaiDzVh4QW-QSG-7sgy9SJIgPHFQROVoycbZiWWO3Y6wcanW1XkQ13pMKuupZYUpstiQArW-vHI_6lMfl3KyLNKv8JW-kR3o9k7OyyFdtn7qv_G1ldmWC80LbMoDeKYSDX6pYkemRYXdzJGO8PcoRUNRB3C9QzpeNfe9Sg4NI2caYvIhIsUB0rnKOEqvD2keqUG2YoHPUgT0hFKSsMxj5F5C5Wc1S_ZgJHQ1xPPHUa5QRcP2o-tm51giLHlRaqkqdEKgVHViQacRpQXDL_z2vo52Qv9hYRJiDL26nQos3o3R1TjkusLJh9skaRFhQCMRgrtzvVmgE11hDQ8vH_fvGhn_HXnDmcaO8HqEO1oiPfDLC4TQZ1RUzm0t89ZFP_EJORkLUYFt8nYF11GKyYr56Dax0t8X3JMtyQyOvOWr0yrgH1EyWL-6OOz-kwwWLrDHYSzz7ZhAlTRNVpjeKUenMjPyUiYHBTL35kvMQYIqtvb6a3Qln50F_iCosqX0UzPm312sVm40]--></g></svg>