<svg xmlns="http://www.w3.org/2000/svg" xmlns:xlink="http://www.w3.org/1999/xlink" contentStyleType="text/css" data-diagram-type="SEQUENCE" height="745px" preserveAspectRatio="none" style="width:1153px;height:745px;background:#FFFFFF;" version="1.1" viewBox="0 0 1153 745" width="1153px" zoomAndPan="magnify"><title>DSD - Carga de Clientes Frecuentes</title><defs/><g><text fill="#000000" font-family="sans-serif" font-size="14" font-weight="bold" lengthAdjust="spacing" textLength="281.1826" x="432.1492" y="27.9951">DSD - Carga de Clientes Frecuentes</text><g><title>ClienteFrecuente</title><rect fill="#FFFFFF" height="29.1328" style="stroke:#181818;stroke-width:1;" width="10" x="986.229" y="523.125"/></g><g><title>Sistema</title><rect fill="#FFFFFF" height="29.1328" style="stroke:#181818;stroke-width:1;" width="10" x="1090.2861" y="221.9922"/></g><g><title>Sistema</title><rect fill="#FFFFFF" height="29.1328" style="stroke:#181818;stroke-width:1;" width="10" x="1090.2861" y="396.7891"/></g><g><title>Sistema</title><rect fill="#FFFFFF" height="29.1328" style="stroke:#181818;stroke-width:1;" width="10" x="1090.2861" y="581.3906"/></g><rect fill="none" height="206.7344" style="stroke:#000000;stroke-width:1.5;" width="1126.481" x="10" y="440.9219"/><g><title>Administrador</title><rect fill="#000000" fill-opacity="0.00000" height="546.0625" width="8" x="68.54" y="118.5938"/><line style="stroke:#181818;stroke-width:0.5;stroke-dasharray:5,5;" x1="72" x2="72" y1="118.5938" y2="664.6563"/></g><g><title>ControladorNegocio</title><rect fill="#000000" fill-opacity="0.00000" height="546.0625" width="8" x="526.5293" y="118.5938"/><line style="stroke:#181818;stroke-width:0.5;stroke-dasharray:5,5;" x1="529.8335" x2="529.8335" y1="118.5938" y2="664.6563"/></g><g><title>ClienteFrecuente</title><rect fill="#000000" fill-opacity="0.00000" height="546.0625" width="8" x="987.229" y="118.5938"/><line style="stroke:#181818;stroke-width:0.5;stroke-dasharray:5,5;" x1="990.3667" x2="990.3667" y1="118.5938" y2="664.6563"/></g><g><title>Sistema</title><rect fill="#000000" fill-opacity="0.00000" height="546.0625" width="8" x="1091.2861" y="118.5938"/><line style="stroke:#181818;stroke-width:0.5;stroke-dasharray:5,5;" x1="1095.0913" x2="1095.0913" y1="118.5938" y2="664.6563"/></g><g class="participant participant-head" data-participant="Administrador"><text fill="#000000" font-family="sans-serif" font-size="14" lengthAdjust="spacing" textLength="99.0801" x="20" y="115.292">Administrador</text><ellipse cx="72.54" cy="50.7969" fill="#E2E2F0" rx="8" ry="8" style="stroke:#181818;stroke-width:0.5;"/><path d="M72.54,58.7969 L72.54,85.7969 M59.54,66.7969 L85.54,66.7969 M72.54,85.7969 L59.54,100.7969 M72.54,85.7969 L85.54,100.7969" fill="none" style="stroke:#181818;stroke-width:0.5;"/></g><g class="participant participant-tail" data-participant="Administrador"><text fill="#000000" font-family="sans-serif" font-size="14" lengthAdjust="spacing" textLength="99.0801" x="20" y="676.6514">Administrador</text><ellipse cx="72.54" cy="688.4531" fill="#E2E2F0" rx="8" ry="8" style="stroke:#181818;stroke-width:0.5;"/><path d="M72.54,696.4531 L72.54,723.4531 M59.54,704.4531 L85.54,704.4531 M72.54,723.4531 L59.54,738.4531 M72.54,723.4531 L85.54,738.4531" fill="none" style="stroke:#181818;stroke-width:0.5;"/></g><g class="participant participant-head" data-participant="ControladorNegocio"><text fill="#000000" font-family="sans-serif" font-size="14" lengthAdjust="spacing" textLength="139.3916" x="457.8335" y="115.292">ControladorNegocio</text><ellipse cx="530.5293" cy="86.2969" fill="#E2E2F0" rx="12" ry="12" style="stroke:#181818;stroke-width:0.5;"/><polygon fill="#181818" points="526.5293,74.2969,532.5293,69.2969,530.5293,74.2969,532.5293,79.2969,526.5293,74.2969" style="stroke:#181818;stroke-width:1;"/></g><g class="participant participant-tail" data-participant="ControladorNegocio"><text fill="#000000" font-family="sans-serif" font-size="14" lengthAdjust="spacing" textLength="139.3916" x="457.8335" y="676.6514">ControladorNegocio</text><ellipse cx="530.5293" cy="695.9531" fill="#E2E2F0" rx="12" ry="12" style="stroke:#181818;stroke-width:0.5;"/><polygon fill="#181818" points="526.5293,683.9531,532.5293,678.9531,530.5293,683.9531,532.5293,688.9531,526.5293,683.9531" style="stroke:#181818;stroke-width:1;"/></g><g class="participant participant-head" data-participant="ClienteFrecuente"><text fill="#000000" font-family="sans-serif" font-size="14" lengthAdjust="spacing" textLength="119.7246" x="928.3667" y="115.292">ClienteFrecuente</text><ellipse cx="991.229" cy="86.2969" fill="#E2E2F0" rx="12" ry="12" style="stroke:#181818;stroke-width:0.5;"/><line style="stroke:#181818;stroke-width:0.5;" x1="979.229" x2="1003.229" y1="100.2969" y2="100.2969"/></g><g class="participant participant-tail" data-participant="ClienteFrecuente"><text fill="#000000" font-family="sans-serif" font-size="14" lengthAdjust="spacing" textLength="119.7246" x="928.3667" y="676.6514">ClienteFrecuente</text><ellipse cx="991.229" cy="695.9531" fill="#E2E2F0" rx="12" ry="12" style="stroke:#181818;stroke-width:0.5;"/><line style="stroke:#181818;stroke-width:0.5;" x1="979.229" x2="1003.229" y1="709.9531" y2="709.9531"/></g><g class="participant participant-head" data-participant="Sistema"><text fill="#000000" font-family="sans-serif" font-size="14" lengthAdjust="spacing" textLength="56.3896" x="1064.0913" y="115.292">Sistema</text><ellipse cx="1095.2861" cy="86.2969" fill="#E2E2F0" rx="12" ry="12" style="stroke:#181818;stroke-width:0.5;"/><line style="stroke:#181818;stroke-width:0.5;" x1="1083.2861" x2="1107.2861" y1="100.2969" y2="100.2969"/></g><g class="participant participant-tail" data-participant="Sistema"><text fill="#000000" font-family="sans-serif" font-size="14" lengthAdjust="spacing" textLength="56.3896" x="1064.0913" y="676.6514">Sistema</text><ellipse cx="1095.2861" cy="695.9531" fill="#E2E2F0" rx="12" ry="12" style="stroke:#181818;stroke-width:0.5;"/><line style="stroke:#181818;stroke-width:0.5;" x1="1083.2861" x2="1107.2861" y1="709.9531" y2="709.9531"/></g><g><title>ClienteFrecuente</title><rect fill="#FFFFFF" height="29.1328" style="stroke:#181818;stroke-width:1;" width="10" x="986.229" y="523.125"/></g><g><title>Sistema</title><rect fill="#FFFFFF" height="29.1328" style="stroke:#181818;stroke-width:1;" width="10" x="1090.2861" y="221.9922"/></g><g><title>Sistema</title><rect fill="#FFFFFF" height="29.1328" style="stroke:#181818;stroke-width:1;" width="10" x="1090.2861" y="396.7891"/></g><g><title>Sistema</title><rect fill="#FFFFFF" height="29.1328" style="stroke:#181818;stroke-width:1;" width="10" x="1090.2861" y="581.3906"/></g><rect fill="#EEEEEE" height="3" style="stroke:#EEEEEE;stroke-width:1;" width="1146.481" x="0" y="149.1602"/><line style="stroke:#000000;stroke-width:1;" x1="0" x2="1146.481" y1="149.1602" y2="149.1602"/><line style="stroke:#000000;stroke-width:1;" x1="0" x2="1146.481" y1="152.1602" y2="152.1602"/><rect fill="#EEEEEE" height="23.1328" style="stroke:#000000;stroke-width:2;" width="58.167" x="544.157" y="138.5938"/><text fill="#000000" font-family="sans-serif" font-size="13" font-weight="bold" lengthAdjust="spacing" textLength="39.6411" x="550.157" y="154.6606">Inicio</text><g class="message" data-participant-1="Administrador" data-participant-2="ControladorNegocio"><polygon fill="#181818" points="518.5293,188.8594,528.5293,192.8594,518.5293,196.8594,522.5293,192.8594" style="stroke:#181818;stroke-width:1;"/><line style="stroke:#181818;stroke-width:1;" x1="72.54" x2="524.5293" y1="192.8594" y2="192.8594"/><text fill="#000000" font-family="sans-serif" font-size="13" lengthAdjust="spacing" textLength="211.377" x="79.54" y="187.7935">accederModuloGestionClientes()</text></g><g class="message" data-participant-1="ControladorNegocio" data-participant-2="Sistema"><polygon fill="#181818" points="1078.2861,217.9922,1088.2861,221.9922,1078.2861,225.9922,1082.2861,221.9922" style="stroke:#181818;stroke-width:1;"/><line style="stroke:#181818;stroke-width:1;" x1="530.5293" x2="1084.2861" y1="221.9922" y2="221.9922"/><text fill="#000000" font-family="sans-serif" font-size="13" lengthAdjust="spacing" textLength="121.4941" x="537.5293" y="216.9263">mostrarOpciones()</text></g><g class="message" data-participant-1="Sistema" data-participant-2="ControladorNegocio"><polygon fill="#181818" points="541.5293,247.125,531.5293,251.125,541.5293,255.125,537.5293,251.125" style="stroke:#181818;stroke-width:1;"/><line style="stroke:#181818;stroke-width:1;stroke-dasharray:2,2;" x1="535.5293" x2="1094.2861" y1="251.125" y2="251.125"/><text fill="#000000" font-family="sans-serif" font-size="13" lengthAdjust="spacing" textLength="57.9287" x="547.5293" y="246.0591">opciones</text></g><g class="message" data-participant-1="ControladorNegocio" data-participant-2="Administrador"><polygon fill="#181818" points="83.54,276.2578,73.54,280.2578,83.54,284.2578,79.54,280.2578" style="stroke:#181818;stroke-width:1;"/><line style="stroke:#181818;stroke-width:1;" x1="77.54" x2="529.5293" y1="280.2578" y2="280.2578"/><text fill="#000000" font-family="sans-serif" font-size="13" lengthAdjust="spacing" textLength="121.4941" x="89.54" y="275.1919">mostrarOpciones()</text></g><g class="message" data-participant-1="Administrador" data-participant-2="ControladorNegocio"><polygon fill="#181818" points="518.5293,305.3906,528.5293,309.3906,518.5293,313.3906,522.5293,309.3906" style="stroke:#181818;stroke-width:1;"/><line style="stroke:#181818;stroke-width:1;" x1="72.54" x2="524.5293" y1="309.3906" y2="309.3906"/><text fill="#000000" font-family="sans-serif" font-size="13" lengthAdjust="spacing" textLength="254.5283" x="79.54" y="304.3247">seleccionarRegistrarClienteFrecuente()</text></g><g class="message" data-participant-1="Administrador" data-participant-2="ControladorNegocio"><polygon fill="#181818" points="518.5293,334.5234,528.5293,338.5234,518.5293,342.5234,522.5293,338.5234" style="stroke:#181818;stroke-width:1;"/><line style="stroke:#181818;stroke-width:1;" x1="72.54" x2="524.5293" y1="338.5234" y2="338.5234"/><text fill="#000000" font-family="sans-serif" font-size="13" lengthAdjust="spacing" textLength="433.9893" x="79.54" y="333.4575">ingresarDatos(Nombre, Mail, Telefono, DNI, DetallesPedido, Saldo)</text></g><g class="message" data-participant-1="Administrador" data-participant-2="ControladorNegocio"><polygon fill="#181818" points="518.5293,363.6563,528.5293,367.6563,518.5293,371.6563,522.5293,367.6563" style="stroke:#181818;stroke-width:1;"/><line style="stroke:#181818;stroke-width:1;" x1="72.54" x2="524.5293" y1="367.6563" y2="367.6563"/><text fill="#000000" font-family="sans-serif" font-size="13" lengthAdjust="spacing" textLength="110.792" x="79.54" y="362.5903">confirmarDatos()</text></g><g class="message" data-participant-1="ControladorNegocio" data-participant-2="Sistema"><polygon fill="#181818" points="1078.2861,392.7891,1088.2861,396.7891,1078.2861,400.7891,1082.2861,396.7891" style="stroke:#181818;stroke-width:1;"/><line style="stroke:#181818;stroke-width:1;" x1="530.5293" x2="1084.2861" y1="396.7891" y2="396.7891"/><text fill="#000000" font-family="sans-serif" font-size="13" lengthAdjust="spacing" textLength="214.5127" x="537.5293" y="391.7231">validarDuplicados(DNI, Telefono)</text></g><g class="message" data-participant-1="Sistema" data-participant-2="ControladorNegocio"><polygon fill="#181818" points="541.5293,421.9219,531.5293,425.9219,541.5293,429.9219,537.5293,425.9219" style="stroke:#181818;stroke-width:1;"/><line style="stroke:#181818;stroke-width:1;stroke-dasharray:2,2;" x1="535.5293" x2="1094.2861" y1="425.9219" y2="425.9219"/><text fill="#000000" font-family="sans-serif" font-size="13" lengthAdjust="spacing" textLength="63.2861" x="547.5293" y="420.856">duplicado</text></g><path d="M10,440.9219 L74.4429,440.9219 L74.4429,448.0547 L64.4429,458.0547 L10,458.0547 L10,440.9219" fill="#EEEEEE" style="stroke:#000000;stroke-width:1.5;"/><rect fill="none" height="206.7344" style="stroke:#000000;stroke-width:1.5;" width="1126.481" x="10" y="440.9219"/><text fill="#000000" font-family="sans-serif" font-size="13" font-weight="bold" lengthAdjust="spacing" textLength="19.4429" x="25" y="453.9888">alt</text><text fill="#000000" font-family="sans-serif" font-size="11" font-weight="bold" lengthAdjust="spacing" textLength="165.9507" x="89.4429" y="453.1323">[DNI o Tel&#233;fono duplicado]</text><g class="message" data-participant-1="ControladorNegocio" data-participant-2="Administrador"><polygon fill="#181818" points="83.54,475.1875,73.54,479.1875,83.54,483.1875,79.54,479.1875" style="stroke:#181818;stroke-width:1;"/><line style="stroke:#181818;stroke-width:1;" x1="77.54" x2="529.5293" y1="479.1875" y2="479.1875"/><text fill="#000000" font-family="sans-serif" font-size="13" lengthAdjust="spacing" textLength="213.5034" x="89.54" y="474.1216">mensaje("Cliente ya registrado")</text></g><line style="stroke:#000000;stroke-width:1;stroke-dasharray:2,2;" x1="10" x2="1136.481" y1="488.1875" y2="488.1875"/><text fill="#000000" font-family="sans-serif" font-size="11" font-weight="bold" lengthAdjust="spacing" textLength="100.4502" x="15" y="498.3979">[Sin duplicados]</text><g class="message" data-participant-1="ControladorNegocio" data-participant-2="ClienteFrecuente"><polygon fill="#181818" points="974.229,519.125,984.229,523.125,974.229,527.125,978.229,523.125" style="stroke:#181818;stroke-width:1;"/><line style="stroke:#181818;stroke-width:1;" x1="530.5293" x2="980.229" y1="523.125" y2="523.125"/><text fill="#000000" font-family="sans-serif" font-size="13" lengthAdjust="spacing" textLength="436.6997" x="537.5293" y="518.0591">IngresaCliente(Nombre, Mail, Telefono, DNI, DetallesPedido, Saldo)</text></g><g class="message" data-participant-1="ClienteFrecuente" data-participant-2="ControladorNegocio"><polygon fill="#181818" points="541.5293,548.2578,531.5293,552.2578,541.5293,556.2578,537.5293,552.2578" style="stroke:#181818;stroke-width:1;"/><line style="stroke:#181818;stroke-width:1;stroke-dasharray:2,2;" x1="535.5293" x2="990.229" y1="552.2578" y2="552.2578"/><text fill="#000000" font-family="sans-serif" font-size="13" lengthAdjust="spacing" textLength="43.7036" x="547.5293" y="547.1919">cliente</text></g><g class="message" data-participant-1="ControladorNegocio" data-participant-2="Sistema"><polygon fill="#181818" points="1078.2861,577.3906,1088.2861,581.3906,1078.2861,585.3906,1082.2861,581.3906" style="stroke:#181818;stroke-width:1;"/><line style="stroke:#181818;stroke-width:1;" x1="530.5293" x2="1084.2861" y1="581.3906" y2="581.3906"/><text fill="#000000" font-family="sans-serif" font-size="13" lengthAdjust="spacing" textLength="220.7524" x="537.5293" y="576.3247">registrarClienteFrecuente(cliente)</text></g><g class="message" data-participant-1="Sistema" data-participant-2="ControladorNegocio"><polygon fill="#181818" points="541.5293,606.5234,531.5293,610.5234,541.5293,614.5234,537.5293,610.5234" style="stroke:#181818;stroke-width:1;"/><line style="stroke:#181818;stroke-width:1;stroke-dasharray:2,2;" x1="535.5293" x2="1094.2861" y1="610.5234" y2="610.5234"/><text fill="#000000" font-family="sans-serif" font-size="13" lengthAdjust="spacing" textLength="97.6714" x="547.5293" y="605.4575">registroExitoso</text></g><g class="message" data-participant-1="ControladorNegocio" data-participant-2="Administrador"><polygon fill="#181818" points="83.54,635.6563,73.54,639.6563,83.54,643.6563,79.54,639.6563" style="stroke:#181818;stroke-width:1;"/><line style="stroke:#181818;stroke-width:1;" x1="77.54" x2="529.5293" y1="639.6563" y2="639.6563"/><text fill="#000000" font-family="sans-serif" font-size="13" lengthAdjust="spacing" textLength="360.6104" x="89.54" y="634.5903">mensaje("Cliente frecuente registrado correctamente")</text></g><!--SRC=[dLDHJiCm3FtFAIo-XhHTODAGq0Q83mPYNC0atXIKniZ941o9St0ndD8Mw5QOre-sSkptdlsSx7CWMAmMC84voWR14So3fvWfmQMGtTQ_ng3DB73kAXzzoeAEnLYEMJZ0_EjROalQiFLijChdjnQg0shZAyMW2esPpU0wUgs0sSoON_0mETk3F0MqbXp93Rjju2jAsNDi9OzEZTcjAKWDunGgBlXo-wm7iQxGrlmBPkfKDL-O32ZWfjOusgaTeF_LsJuHX_MUA90jDIZtjAcpfJ_ZWy5yt0Wbb0LcJgCbLuz2OxX17yRme4HhZZo6nV9QNvGn14ftvBpJu0g3uzF3Q7HBrbwgbaVL_MVH2mRlD7_x7BpLf3IgHRIQZd3CjL1xBSEGIvl0XUBZlN3yg01z3ZELOi8d6fqqZi0RWZGkEJxHnYcaGXk_qVLc3UFtdPtgNQajQmwEygpGTIFOkP-rc5vmSAhsAx4k-Z7N7T0_Mkmyby5rRbXwoblpIl0_znjildZrke7SrzljmV5EhxjPVHkkYoyQpbYL0xMVeli4]--></g></svg>