<svg xmlns="http://www.w3.org/2000/svg" xmlns:xlink="http://www.w3.org/1999/xlink" contentStyleType="text/css" data-diagram-type="SEQUENCE" height="645px" preserveAspectRatio="none" style="width:938px;height:645px;background:#FFFFFF;" version="1.1" viewBox="0 0 938 645" width="938px" zoomAndPan="magnify"><title>DSD - Inicio de Sesi&#243;n</title><defs/><g><text fill="#000000" font-family="sans-serif" font-size="14" font-weight="bold" lengthAdjust="spacing" textLength="173.1338" x="378.5151" y="27.9951">DSD - Inicio de Sesi&#243;n</text><g><title>Usuario</title><rect fill="#FFFFFF" height="29.1328" style="stroke:#181818;stroke-width:1;" width="10" x="794.1724" y="290.0625"/></g><g><title>Sistema</title><rect fill="#FFFFFF" height="29.1328" style="stroke:#181818;stroke-width:1;" width="10" x="864.9692" y="348.3281"/></g><g><title>Sistema</title><rect fill="#FFFFFF" height="29.1328" style="stroke:#181818;stroke-width:1;" width="10" x="864.9692" y="474.6641"/></g><rect fill="none" height="340.0703" style="stroke:#000000;stroke-width:1.5;" width="911.1641" x="10" y="207.8594"/><rect fill="none" height="148.4688" style="stroke:#000000;stroke-width:1.5;" width="891.1641" x="20" y="392.4609"/><g><title>Persona</title><rect fill="#000000" fill-opacity="0.00000" height="446.3359" width="8" x="57.0615" y="118.5938"/><line style="stroke:#181818;stroke-width:0.5;stroke-dasharray:5,5;" x1="61" x2="61" y1="118.5938" y2="564.9297"/></g><g><title>ControladorNegocio</title><rect fill="#000000" fill-opacity="0.00000" height="446.3359" width="8" x="431.9219" y="118.5938"/><line style="stroke:#181818;stroke-width:0.5;stroke-dasharray:5,5;" x1="435.2261" x2="435.2261" y1="118.5938" y2="564.9297"/></g><g><title>Usuario</title><rect fill="#000000" fill-opacity="0.00000" height="446.3359" width="8" x="795.1724" y="118.5938"/><line style="stroke:#181818;stroke-width:0.5;stroke-dasharray:5,5;" x1="798.5703" x2="798.5703" y1="118.5938" y2="564.9297"/></g><g><title>Sistema</title><rect fill="#000000" fill-opacity="0.00000" height="446.3359" width="8" x="865.9692" y="118.5938"/><line style="stroke:#181818;stroke-width:0.5;stroke-dasharray:5,5;" x1="869.7744" x2="869.7744" y1="118.5938" y2="564.9297"/></g><g class="participant participant-head" data-participant="Persona"><text fill="#000000" font-family="sans-serif" font-size="14" lengthAdjust="spacing" textLength="56.123" x="30" y="115.292">Persona</text><ellipse cx="61.0615" cy="50.7969" fill="#E2E2F0" rx="8" ry="8" style="stroke:#181818;stroke-width:0.5;"/><path d="M61.0615,58.7969 L61.0615,85.7969 M48.0615,66.7969 L74.0615,66.7969 M61.0615,85.7969 L48.0615,100.7969 M61.0615,85.7969 L74.0615,100.7969" fill="none" style="stroke:#181818;stroke-width:0.5;"/></g><g class="participant participant-tail" data-participant="Persona"><text fill="#000000" font-family="sans-serif" font-size="14" lengthAdjust="spacing" textLength="56.123" x="30" y="576.9248">Persona</text><ellipse cx="61.0615" cy="588.7266" fill="#E2E2F0" rx="8" ry="8" style="stroke:#181818;stroke-width:0.5;"/><path d="M61.0615,596.7266 L61.0615,623.7266 M48.0615,604.7266 L74.0615,604.7266 M61.0615,623.7266 L48.0615,638.7266 M61.0615,623.7266 L74.0615,638.7266" fill="none" style="stroke:#181818;stroke-width:0.5;"/></g><g class="participant participant-head" data-participant="ControladorNegocio"><text fill="#000000" font-family="sans-serif" font-size="14" lengthAdjust="spacing" textLength="139.3916" x="363.2261" y="115.292">ControladorNegocio</text><ellipse cx="435.9219" cy="86.2969" fill="#E2E2F0" rx="12" ry="12" style="stroke:#181818;stroke-width:0.5;"/><polygon fill="#181818" points="431.9219,74.2969,437.9219,69.2969,435.9219,74.2969,437.9219,79.2969,431.9219,74.2969" style="stroke:#181818;stroke-width:1;"/></g><g class="participant participant-tail" data-participant="ControladorNegocio"><text fill="#000000" font-family="sans-serif" font-size="14" lengthAdjust="spacing" textLength="139.3916" x="363.2261" y="576.9248">ControladorNegocio</text><ellipse cx="435.9219" cy="596.2266" fill="#E2E2F0" rx="12" ry="12" style="stroke:#181818;stroke-width:0.5;"/><polygon fill="#181818" points="431.9219,584.2266,437.9219,579.2266,435.9219,584.2266,437.9219,589.2266,431.9219,584.2266" style="stroke:#181818;stroke-width:1;"/></g><g class="participant participant-head" data-participant="Usuario"><text fill="#000000" font-family="sans-serif" font-size="14" lengthAdjust="spacing" textLength="53.2041" x="769.5703" y="115.292">Usuario</text><ellipse cx="799.1724" cy="86.2969" fill="#E2E2F0" rx="12" ry="12" style="stroke:#181818;stroke-width:0.5;"/><line style="stroke:#181818;stroke-width:0.5;" x1="787.1724" x2="811.1724" y1="100.2969" y2="100.2969"/></g><g class="participant participant-tail" data-participant="Usuario"><text fill="#000000" font-family="sans-serif" font-size="14" lengthAdjust="spacing" textLength="53.2041" x="769.5703" y="576.9248">Usuario</text><ellipse cx="799.1724" cy="596.2266" fill="#E2E2F0" rx="12" ry="12" style="stroke:#181818;stroke-width:0.5;"/><line style="stroke:#181818;stroke-width:0.5;" x1="787.1724" x2="811.1724" y1="610.2266" y2="610.2266"/></g><g class="participant participant-head" data-participant="Sistema"><text fill="#000000" font-family="sans-serif" font-size="14" lengthAdjust="spacing" textLength="56.3896" x="838.7744" y="115.292">Sistema</text><ellipse cx="869.9692" cy="86.2969" fill="#E2E2F0" rx="12" ry="12" style="stroke:#181818;stroke-width:0.5;"/><line style="stroke:#181818;stroke-width:0.5;" x1="857.9692" x2="881.9692" y1="100.2969" y2="100.2969"/></g><g class="participant participant-tail" data-participant="Sistema"><text fill="#000000" font-family="sans-serif" font-size="14" lengthAdjust="spacing" textLength="56.3896" x="838.7744" y="576.9248">Sistema</text><ellipse cx="869.9692" cy="596.2266" fill="#E2E2F0" rx="12" ry="12" style="stroke:#181818;stroke-width:0.5;"/><line style="stroke:#181818;stroke-width:0.5;" x1="857.9692" x2="881.9692" y1="610.2266" y2="610.2266"/></g><g><title>Usuario</title><rect fill="#FFFFFF" height="29.1328" style="stroke:#181818;stroke-width:1;" width="10" x="794.1724" y="290.0625"/></g><g><title>Sistema</title><rect fill="#FFFFFF" height="29.1328" style="stroke:#181818;stroke-width:1;" width="10" x="864.9692" y="348.3281"/></g><g><title>Sistema</title><rect fill="#FFFFFF" height="29.1328" style="stroke:#181818;stroke-width:1;" width="10" x="864.9692" y="474.6641"/></g><rect fill="#EEEEEE" height="3" style="stroke:#EEEEEE;stroke-width:1;" width="931.1641" x="0" y="149.1602"/><line style="stroke:#000000;stroke-width:1;" x1="0" x2="931.1641" y1="149.1602" y2="149.1602"/><line style="stroke:#000000;stroke-width:1;" x1="0" x2="931.1641" y1="152.1602" y2="152.1602"/><rect fill="#EEEEEE" height="23.1328" style="stroke:#000000;stroke-width:2;" width="58.167" x="436.4985" y="138.5938"/><text fill="#000000" font-family="sans-serif" font-size="13" font-weight="bold" lengthAdjust="spacing" textLength="39.6411" x="442.4985" y="154.6606">Inicio</text><g class="message" data-participant-1="Persona" data-participant-2="ControladorNegocio"><polygon fill="#181818" points="423.9219,188.8594,433.9219,192.8594,423.9219,196.8594,427.9219,192.8594" style="stroke:#181818;stroke-width:1;"/><line style="stroke:#181818;stroke-width:1;" x1="61.0615" x2="429.9219" y1="192.8594" y2="192.8594"/><text fill="#000000" font-family="sans-serif" font-size="13" lengthAdjust="spacing" textLength="350.8604" x="68.0615" y="187.7935">iniciarSesion(usuarioIngresado, contrase&#241;aIngresada)</text></g><path d="M10,207.8594 L74.4429,207.8594 L74.4429,214.9922 L64.4429,224.9922 L10,224.9922 L10,207.8594" fill="#EEEEEE" style="stroke:#000000;stroke-width:1.5;"/><rect fill="none" height="340.0703" style="stroke:#000000;stroke-width:1.5;" width="911.1641" x="10" y="207.8594"/><text fill="#000000" font-family="sans-serif" font-size="13" font-weight="bold" lengthAdjust="spacing" textLength="19.4429" x="25" y="220.9263">alt</text><text fill="#000000" font-family="sans-serif" font-size="11" font-weight="bold" lengthAdjust="spacing" textLength="101.8091" x="89.4429" y="220.0698">[Campos vac&#237;os]</text><g class="message" data-participant-1="ControladorNegocio" data-participant-2="Persona"><polygon fill="#181818" points="72.0615,242.125,62.0615,246.125,72.0615,250.125,68.0615,246.125" style="stroke:#181818;stroke-width:1;"/><line style="stroke:#181818;stroke-width:1;" x1="66.0615" x2="434.9219" y1="246.125" y2="246.125"/><text fill="#000000" font-family="sans-serif" font-size="13" lengthAdjust="spacing" textLength="299.2983" x="78.0615" y="241.0591">mensaje("Debe completar todos los campos")</text></g><line style="stroke:#000000;stroke-width:1;stroke-dasharray:2,2;" x1="10" x2="921.1641" y1="255.125" y2="255.125"/><text fill="#000000" font-family="sans-serif" font-size="11" font-weight="bold" lengthAdjust="spacing" textLength="113.8081" x="15" y="265.3354">[Datos completos]</text><g class="message" data-participant-1="ControladorNegocio" data-participant-2="Usuario"><polygon fill="#181818" points="782.1724,286.0625,792.1724,290.0625,782.1724,294.0625,786.1724,290.0625" style="stroke:#181818;stroke-width:1;"/><line style="stroke:#181818;stroke-width:1;" x1="435.9219" x2="788.1724" y1="290.0625" y2="290.0625"/><text fill="#000000" font-family="sans-serif" font-size="13" lengthAdjust="spacing" textLength="339.2505" x="442.9219" y="284.9966">getUsuario(usuarioIngresado, contrase&#241;aIngresada)</text></g><g class="message" data-participant-1="Usuario" data-participant-2="ControladorNegocio"><polygon fill="#181818" points="446.9219,315.1953,436.9219,319.1953,446.9219,323.1953,442.9219,319.1953" style="stroke:#181818;stroke-width:1;"/><line style="stroke:#181818;stroke-width:1;stroke-dasharray:2,2;" x1="440.9219" x2="798.1724" y1="319.1953" y2="319.1953"/><text fill="#000000" font-family="sans-serif" font-size="13" lengthAdjust="spacing" textLength="48.1279" x="452.9219" y="314.1294">usuario</text></g><g class="message" data-participant-1="ControladorNegocio" data-participant-2="Sistema"><polygon fill="#181818" points="852.9692,344.3281,862.9692,348.3281,852.9692,352.3281,856.9692,348.3281" style="stroke:#181818;stroke-width:1;"/><line style="stroke:#181818;stroke-width:1;" x1="435.9219" x2="858.9692" y1="348.3281" y2="348.3281"/><text fill="#000000" font-family="sans-serif" font-size="13" lengthAdjust="spacing" textLength="195.584" x="442.9219" y="343.2622">verificarCredenciales(usuario)</text></g><g class="message" data-participant-1="Sistema" data-participant-2="ControladorNegocio"><polygon fill="#181818" points="446.9219,373.4609,436.9219,377.4609,446.9219,381.4609,442.9219,377.4609" style="stroke:#181818;stroke-width:1;"/><line style="stroke:#181818;stroke-width:1;stroke-dasharray:2,2;" x1="440.9219" x2="868.9692" y1="377.4609" y2="377.4609"/><text fill="#000000" font-family="sans-serif" font-size="13" lengthAdjust="spacing" textLength="129.1621" x="452.9219" y="372.395">credencialesValidas</text></g><path d="M20,392.4609 L84.4429,392.4609 L84.4429,399.5938 L74.4429,409.5938 L20,409.5938 L20,392.4609" fill="#EEEEEE" style="stroke:#000000;stroke-width:1.5;"/><rect fill="none" height="148.4688" style="stroke:#000000;stroke-width:1.5;" width="891.1641" x="20" y="392.4609"/><text fill="#000000" font-family="sans-serif" font-size="13" font-weight="bold" lengthAdjust="spacing" textLength="19.4429" x="35" y="405.5278">alt</text><text fill="#000000" font-family="sans-serif" font-size="11" font-weight="bold" lengthAdjust="spacing" textLength="163.2383" x="99.4429" y="404.6714">[Credenciales incorrectas]</text><g class="message" data-participant-1="ControladorNegocio" data-participant-2="Persona"><polygon fill="#181818" points="72.0615,426.7266,62.0615,430.7266,72.0615,434.7266,68.0615,430.7266" style="stroke:#181818;stroke-width:1;"/><line style="stroke:#181818;stroke-width:1;" x1="66.0615" x2="434.9219" y1="430.7266" y2="430.7266"/><text fill="#000000" font-family="sans-serif" font-size="13" lengthAdjust="spacing" textLength="238.126" x="78.0615" y="425.6606">mensaje("Credenciales incorrectas")</text></g><line style="stroke:#000000;stroke-width:1;stroke-dasharray:2,2;" x1="20" x2="911.1641" y1="439.7266" y2="439.7266"/><text fill="#000000" font-family="sans-serif" font-size="11" font-weight="bold" lengthAdjust="spacing" textLength="151.6367" x="25" y="449.937">[Credenciales correctas]</text><g class="message" data-participant-1="ControladorNegocio" data-participant-2="Sistema"><polygon fill="#181818" points="852.9692,470.6641,862.9692,474.6641,852.9692,478.6641,856.9692,474.6641" style="stroke:#181818;stroke-width:1;"/><line style="stroke:#181818;stroke-width:1;" x1="435.9219" x2="858.9692" y1="474.6641" y2="474.6641"/><text fill="#000000" font-family="sans-serif" font-size="13" lengthAdjust="spacing" textLength="164.2646" x="442.9219" y="469.5981">concederAcceso(usuario)</text></g><g class="message" data-participant-1="Sistema" data-participant-2="ControladorNegocio"><polygon fill="#181818" points="446.9219,499.7969,436.9219,503.7969,446.9219,507.7969,442.9219,503.7969" style="stroke:#181818;stroke-width:1;"/><line style="stroke:#181818;stroke-width:1;stroke-dasharray:2,2;" x1="440.9219" x2="868.9692" y1="503.7969" y2="503.7969"/><text fill="#000000" font-family="sans-serif" font-size="13" lengthAdjust="spacing" textLength="107.3579" x="452.9219" y="498.731">accesoPermitido</text></g><g class="message" data-participant-1="ControladorNegocio" data-participant-2="Persona"><polygon fill="#181818" points="72.0615,528.9297,62.0615,532.9297,72.0615,536.9297,68.0615,532.9297" style="stroke:#181818;stroke-width:1;"/><line style="stroke:#181818;stroke-width:1;" x1="66.0615" x2="434.9219" y1="532.9297" y2="532.9297"/><text fill="#000000" font-family="sans-serif" font-size="13" lengthAdjust="spacing" textLength="169.2095" x="78.0615" y="527.8638">mostrarPantallaPrincipal()</text></g><!--SRC=[bLFBQiCm4BphAvQUKcX-mE12IIwvb41exrjf6rHaAKYRG3-gXz9Fo8zrPSjkNWwfmLXUTcT6Cn9RTWJprHociF1Msm26O4N9xdyyA8MQGuGbnHGyAXqyn-1WrdtHXFXCwo1JYZnR_eINjCNuzxkoYQb1fUgwXwzhfGeUJ1ylG5LWSoV6h2BuoRQ3NFXrf2Hz3z3Am4JxR-ohU2zQ7SCCcqr8i4Ez_mf9WJpd39ctIAYW8P_mWoPtSteZWMusZXWZS302vEJLBUQTC91BOXPoBdQDmd65fBXHmPguh6_UJaOLz-qEcGPRSx6iOJhYtlQWrz0Pn1Mv9QqATXJjkzKOPv4CUGd3KUgLdqZh8yx5iXwLfW_WNj5PW-bKvd1YMfASwC6Cd0mTOYJDPV0_-Ou1vM0pJXlkKTEjN8DlagIM-VYaDQLmRDYeQRSOXosWxAcnR4qOviQCkyMNaEJKnILwHkTm6SKIkq4twUIID-eqculNtlm2]--></g></svg>