<svg xmlns="http://www.w3.org/2000/svg" xmlns:xlink="http://www.w3.org/1999/xlink" contentStyleType="text/css" data-diagram-type="SEQUENCE" height="926px" preserveAspectRatio="none" style="width:1051px;height:926px;background:#FFFFFF;" version="1.1" viewBox="0 0 1051 926" width="1051px" zoomAndPan="magnify"><title>DSD - Asistencia de empleados</title><defs/><g><text fill="#000000" font-family="sans-serif" font-size="14" font-weight="bold" lengthAdjust="spacing" textLength="244.9658" x="399.5005" y="27.9951">DSD - Asistencia de empleados</text><g><title>Empleado</title><rect fill="#FFFFFF" height="29.1328" style="stroke:#181818;stroke-width:1;" width="10" x="660.9355" y="221.9922"/></g><g><title>Asistencia</title><rect fill="#FFFFFF" height="29.1328" style="stroke:#181818;stroke-width:1;" width="10" x="898.979" y="615.3281"/></g><g><title>Sistema</title><rect fill="#FFFFFF" height="29.1328" style="stroke:#181818;stroke-width:1;" width="10" x="978.772" y="348.3281"/></g><g><title>Sistema</title><rect fill="#FFFFFF" height="29.1328" style="stroke:#181818;stroke-width:1;" width="10" x="978.772" y="488.9922"/></g><g><title>Sistema</title><rect fill="#FFFFFF" height="29.1328" style="stroke:#181818;stroke-width:1;" width="10" x="978.772" y="687.5938"/></g><rect fill="none" height="562.8047" style="stroke:#000000;stroke-width:1.5;" width="1024.9668" x="10" y="266.125"/><rect fill="none" height="237.8672" style="stroke:#000000;stroke-width:1.5;" width="1004.9668" x="20" y="421.5938"/><rect fill="none" height="119.3359" style="stroke:#000000;stroke-width:1.5;" width="922.5771" x="30" y="533.125"/><rect fill="none" height="90.2031" style="stroke:#000000;stroke-width:1.5;" width="561.9209" x="30" y="731.7266"/><g><title>Administrador</title><rect fill="#000000" fill-opacity="0.00000" height="727.3359" width="8" x="88.54" y="118.5938"/><line style="stroke:#181818;stroke-width:0.5;stroke-dasharray:5,5;" x1="92" x2="92" y1="118.5938" y2="845.9297"/></g><g><title>ControladorNegocio</title><rect fill="#000000" fill-opacity="0.00000" height="727.3359" width="8" x="505.2251" y="118.5938"/><line style="stroke:#181818;stroke-width:0.5;stroke-dasharray:5,5;" x1="508.5293" x2="508.5293" y1="118.5938" y2="845.9297"/></g><g><title>Empleado</title><rect fill="#000000" fill-opacity="0.00000" height="727.3359" width="8" x="661.9355" y="118.5938"/><line style="stroke:#181818;stroke-width:0.5;stroke-dasharray:5,5;" x1="664.9834" x2="664.9834" y1="118.5938" y2="845.9297"/></g><g><title>Asistencia</title><rect fill="#000000" fill-opacity="0.00000" height="727.3359" width="8" x="899.979" y="118.5938"/><line style="stroke:#181818;stroke-width:0.5;stroke-dasharray:5,5;" x1="903.3809" x2="903.3809" y1="118.5938" y2="845.9297"/></g><g><title>Sistema</title><rect fill="#000000" fill-opacity="0.00000" height="727.3359" width="8" x="979.772" y="118.5938"/><line style="stroke:#181818;stroke-width:0.5;stroke-dasharray:5,5;" x1="983.5771" x2="983.5771" y1="118.5938" y2="845.9297"/></g><g class="participant participant-head" data-participant="Administrador"><text fill="#000000" font-family="sans-serif" font-size="14" lengthAdjust="spacing" textLength="99.0801" x="40" y="115.292">Administrador</text><ellipse cx="92.54" cy="50.7969" fill="#E2E2F0" rx="8" ry="8" style="stroke:#181818;stroke-width:0.5;"/><path d="M92.54,58.7969 L92.54,85.7969 M79.54,66.7969 L105.54,66.7969 M92.54,85.7969 L79.54,100.7969 M92.54,85.7969 L105.54,100.7969" fill="none" style="stroke:#181818;stroke-width:0.5;"/></g><g class="participant participant-tail" data-participant="Administrador"><text fill="#000000" font-family="sans-serif" font-size="14" lengthAdjust="spacing" textLength="99.0801" x="40" y="857.9248">Administrador</text><ellipse cx="92.54" cy="869.7266" fill="#E2E2F0" rx="8" ry="8" style="stroke:#181818;stroke-width:0.5;"/><path d="M92.54,877.7266 L92.54,904.7266 M79.54,885.7266 L105.54,885.7266 M92.54,904.7266 L79.54,919.7266 M92.54,904.7266 L105.54,919.7266" fill="none" style="stroke:#181818;stroke-width:0.5;"/></g><g class="participant participant-head" data-participant="ControladorNegocio"><text fill="#000000" font-family="sans-serif" font-size="14" lengthAdjust="spacing" textLength="139.3916" x="436.5293" y="115.292">ControladorNegocio</text><ellipse cx="509.2251" cy="86.2969" fill="#E2E2F0" rx="12" ry="12" style="stroke:#181818;stroke-width:0.5;"/><polygon fill="#181818" points="505.2251,74.2969,511.2251,69.2969,509.2251,74.2969,511.2251,79.2969,505.2251,74.2969" style="stroke:#181818;stroke-width:1;"/></g><g class="participant participant-tail" data-participant="ControladorNegocio"><text fill="#000000" font-family="sans-serif" font-size="14" lengthAdjust="spacing" textLength="139.3916" x="436.5293" y="857.9248">ControladorNegocio</text><ellipse cx="509.2251" cy="877.2266" fill="#E2E2F0" rx="12" ry="12" style="stroke:#181818;stroke-width:0.5;"/><polygon fill="#181818" points="505.2251,865.2266,511.2251,860.2266,509.2251,865.2266,511.2251,870.2266,505.2251,865.2266" style="stroke:#181818;stroke-width:1;"/></g><g class="participant participant-head" data-participant="Empleado"><text fill="#000000" font-family="sans-serif" font-size="14" lengthAdjust="spacing" textLength="69.9043" x="627.9834" y="115.292">Empleado</text><ellipse cx="665.9355" cy="86.2969" fill="#E2E2F0" rx="12" ry="12" style="stroke:#181818;stroke-width:0.5;"/><line style="stroke:#181818;stroke-width:0.5;" x1="653.9355" x2="677.9355" y1="100.2969" y2="100.2969"/></g><g class="participant participant-tail" data-participant="Empleado"><text fill="#000000" font-family="sans-serif" font-size="14" lengthAdjust="spacing" textLength="69.9043" x="627.9834" y="857.9248">Empleado</text><ellipse cx="665.9355" cy="877.2266" fill="#E2E2F0" rx="12" ry="12" style="stroke:#181818;stroke-width:0.5;"/><line style="stroke:#181818;stroke-width:0.5;" x1="653.9355" x2="677.9355" y1="891.2266" y2="891.2266"/></g><g class="participant participant-head" data-participant="Asistencia"><text fill="#000000" font-family="sans-serif" font-size="14" lengthAdjust="spacing" textLength="71.1963" x="865.3809" y="115.292">Asistencia</text><ellipse cx="903.979" cy="86.2969" fill="#E2E2F0" rx="12" ry="12" style="stroke:#181818;stroke-width:0.5;"/><line style="stroke:#181818;stroke-width:0.5;" x1="891.979" x2="915.979" y1="100.2969" y2="100.2969"/></g><g class="participant participant-tail" data-participant="Asistencia"><text fill="#000000" font-family="sans-serif" font-size="14" lengthAdjust="spacing" textLength="71.1963" x="865.3809" y="857.9248">Asistencia</text><ellipse cx="903.979" cy="877.2266" fill="#E2E2F0" rx="12" ry="12" style="stroke:#181818;stroke-width:0.5;"/><line style="stroke:#181818;stroke-width:0.5;" x1="891.979" x2="915.979" y1="891.2266" y2="891.2266"/></g><g class="participant participant-head" data-participant="Sistema"><text fill="#000000" font-family="sans-serif" font-size="14" lengthAdjust="spacing" textLength="56.3896" x="952.5771" y="115.292">Sistema</text><ellipse cx="983.772" cy="86.2969" fill="#E2E2F0" rx="12" ry="12" style="stroke:#181818;stroke-width:0.5;"/><line style="stroke:#181818;stroke-width:0.5;" x1="971.772" x2="995.772" y1="100.2969" y2="100.2969"/></g><g class="participant participant-tail" data-participant="Sistema"><text fill="#000000" font-family="sans-serif" font-size="14" lengthAdjust="spacing" textLength="56.3896" x="952.5771" y="857.9248">Sistema</text><ellipse cx="983.772" cy="877.2266" fill="#E2E2F0" rx="12" ry="12" style="stroke:#181818;stroke-width:0.5;"/><line style="stroke:#181818;stroke-width:0.5;" x1="971.772" x2="995.772" y1="891.2266" y2="891.2266"/></g><g><title>Empleado</title><rect fill="#FFFFFF" height="29.1328" style="stroke:#181818;stroke-width:1;" width="10" x="660.9355" y="221.9922"/></g><g><title>Asistencia</title><rect fill="#FFFFFF" height="29.1328" style="stroke:#181818;stroke-width:1;" width="10" x="898.979" y="615.3281"/></g><g><title>Sistema</title><rect fill="#FFFFFF" height="29.1328" style="stroke:#181818;stroke-width:1;" width="10" x="978.772" y="348.3281"/></g><g><title>Sistema</title><rect fill="#FFFFFF" height="29.1328" style="stroke:#181818;stroke-width:1;" width="10" x="978.772" y="488.9922"/></g><g><title>Sistema</title><rect fill="#FFFFFF" height="29.1328" style="stroke:#181818;stroke-width:1;" width="10" x="978.772" y="687.5938"/></g><rect fill="#EEEEEE" height="3" style="stroke:#EEEEEE;stroke-width:1;" width="1044.9668" x="0" y="149.1602"/><line style="stroke:#000000;stroke-width:1;" x1="0" x2="1044.9668" y1="149.1602" y2="149.1602"/><line style="stroke:#000000;stroke-width:1;" x1="0" x2="1044.9668" y1="152.1602" y2="152.1602"/><rect fill="#EEEEEE" height="23.1328" style="stroke:#000000;stroke-width:2;" width="58.167" x="493.3999" y="138.5938"/><text fill="#000000" font-family="sans-serif" font-size="13" font-weight="bold" lengthAdjust="spacing" textLength="39.6411" x="499.3999" y="154.6606">Inicio</text><g class="message" data-participant-1="Administrador" data-participant-2="ControladorNegocio"><polygon fill="#181818" points="497.2251,188.8594,507.2251,192.8594,497.2251,196.8594,501.2251,192.8594" style="stroke:#181818;stroke-width:1;"/><line style="stroke:#181818;stroke-width:1;" x1="92.54" x2="503.2251" y1="192.8594" y2="192.8594"/><text fill="#000000" font-family="sans-serif" font-size="13" lengthAdjust="spacing" textLength="175.335" x="99.54" y="187.7935">accederModuloAsistencia()</text></g><g class="message" data-participant-1="ControladorNegocio" data-participant-2="Empleado"><polygon fill="#181818" points="648.9355,217.9922,658.9355,221.9922,648.9355,225.9922,652.9355,221.9922" style="stroke:#181818;stroke-width:1;"/><line style="stroke:#181818;stroke-width:1;" x1="509.2251" x2="654.9355" y1="221.9922" y2="221.9922"/><text fill="#000000" font-family="sans-serif" font-size="13" lengthAdjust="spacing" textLength="132.7104" x="516.2251" y="216.9263">obtenerEmpleados()</text></g><g class="message" data-participant-1="Empleado" data-participant-2="ControladorNegocio"><polygon fill="#181818" points="520.2251,247.125,510.2251,251.125,520.2251,255.125,516.2251,251.125" style="stroke:#181818;stroke-width:1;"/><line style="stroke:#181818;stroke-width:1;stroke-dasharray:2,2;" x1="514.2251" x2="664.9355" y1="251.125" y2="251.125"/><text fill="#000000" font-family="sans-serif" font-size="13" lengthAdjust="spacing" textLength="98.7441" x="526.2251" y="246.0591">listaEmpleados</text></g><path d="M10,266.125 L74.4429,266.125 L74.4429,273.2578 L64.4429,283.2578 L10,283.2578 L10,266.125" fill="#EEEEEE" style="stroke:#000000;stroke-width:1.5;"/><rect fill="none" height="562.8047" style="stroke:#000000;stroke-width:1.5;" width="1024.9668" x="10" y="266.125"/><text fill="#000000" font-family="sans-serif" font-size="13" font-weight="bold" lengthAdjust="spacing" textLength="19.4429" x="25" y="279.1919">alt</text><text fill="#000000" font-family="sans-serif" font-size="11" font-weight="bold" lengthAdjust="spacing" textLength="180.3774" x="89.4429" y="278.3354">[Error al obtener empleados]</text><g class="message" data-participant-1="ControladorNegocio" data-participant-2="Administrador"><polygon fill="#181818" points="103.54,300.3906,93.54,304.3906,103.54,308.3906,99.54,304.3906" style="stroke:#181818;stroke-width:1;"/><line style="stroke:#181818;stroke-width:1;" x1="97.54" x2="508.2251" y1="304.3906" y2="304.3906"/><text fill="#000000" font-family="sans-serif" font-size="13" lengthAdjust="spacing" textLength="255.8804" x="109.54" y="299.3247">mensaje("Error al obtener empleados")</text></g><line style="stroke:#000000;stroke-width:1;stroke-dasharray:2,2;" x1="10" x2="1034.9668" y1="313.3906" y2="313.3906"/><text fill="#000000" font-family="sans-serif" font-size="11" font-weight="bold" lengthAdjust="spacing" textLength="98.9409" x="15" y="323.6011">[Lista obtenida]</text><g class="message" data-participant-1="ControladorNegocio" data-participant-2="Sistema"><polygon fill="#181818" points="966.772,344.3281,976.772,348.3281,966.772,352.3281,970.772,348.3281" style="stroke:#181818;stroke-width:1;"/><line style="stroke:#181818;stroke-width:1;" x1="509.2251" x2="972.772" y1="348.3281" y2="348.3281"/><text fill="#000000" font-family="sans-serif" font-size="13" lengthAdjust="spacing" textLength="262.4058" x="516.2251" y="343.2622">mostrarListaEmpleados(listaEmpleados)</text></g><g class="message" data-participant-1="Sistema" data-participant-2="Administrador"><polygon fill="#181818" points="103.54,373.4609,93.54,377.4609,103.54,381.4609,99.54,377.4609" style="stroke:#181818;stroke-width:1;"/><line style="stroke:#181818;stroke-width:1;" x1="97.54" x2="982.772" y1="377.4609" y2="377.4609"/><text fill="#000000" font-family="sans-serif" font-size="13" lengthAdjust="spacing" textLength="160.0308" x="109.54" y="372.395">mostrar(listaEmpleados)</text></g><g class="message" data-participant-1="Administrador" data-participant-2="ControladorNegocio"><polygon fill="#181818" points="497.2251,402.5938,507.2251,406.5938,497.2251,410.5938,501.2251,406.5938" style="stroke:#181818;stroke-width:1;"/><line style="stroke:#181818;stroke-width:1;" x1="92.54" x2="503.2251" y1="406.5938" y2="406.5938"/><text fill="#000000" font-family="sans-serif" font-size="13" lengthAdjust="spacing" textLength="275.5835" x="99.54" y="401.5278">seleccionarEmpleados(listaSeleccionados)</text></g><path d="M20,421.5938 L96.624,421.5938 L96.624,428.7266 L86.624,438.7266 L20,438.7266 L20,421.5938" fill="#EEEEEE" style="stroke:#000000;stroke-width:1.5;"/><rect fill="none" height="237.8672" style="stroke:#000000;stroke-width:1.5;" width="1004.9668" x="20" y="421.5938"/><text fill="#000000" font-family="sans-serif" font-size="13" font-weight="bold" lengthAdjust="spacing" textLength="31.624" x="35" y="434.6606">loop</text><text fill="#000000" font-family="sans-serif" font-size="11" font-weight="bold" lengthAdjust="spacing" textLength="220.29" x="111.624" y="433.8042">[Para cada empleado seleccionado]</text><g class="message" data-participant-1="Administrador" data-participant-2="ControladorNegocio"><polygon fill="#181818" points="497.2251,455.8594,507.2251,459.8594,497.2251,463.8594,501.2251,459.8594" style="stroke:#181818;stroke-width:1;"/><line style="stroke:#181818;stroke-width:1;" x1="92.54" x2="503.2251" y1="459.8594" y2="459.8594"/><text fill="#000000" font-family="sans-serif" font-size="13" lengthAdjust="spacing" textLength="392.6851" x="99.54" y="454.7935">registrarAsistencia(Fecha, HoraEntrada, HoraSalida, Estado)</text></g><g class="message" data-participant-1="ControladorNegocio" data-participant-2="Sistema"><polygon fill="#181818" points="966.772,484.9922,976.772,488.9922,966.772,492.9922,970.772,488.9922" style="stroke:#181818;stroke-width:1;"/><line style="stroke:#181818;stroke-width:1;" x1="509.2251" x2="972.772" y1="488.9922" y2="488.9922"/><text fill="#000000" font-family="sans-serif" font-size="13" lengthAdjust="spacing" textLength="353.0884" x="516.2251" y="483.9263">validarDatos(Fecha, HoraEntrada, HoraSalida, Estado)</text></g><g class="message" data-participant-1="Sistema" data-participant-2="ControladorNegocio"><polygon fill="#181818" points="520.2251,514.125,510.2251,518.125,520.2251,522.125,516.2251,518.125" style="stroke:#181818;stroke-width:1;"/><line style="stroke:#181818;stroke-width:1;stroke-dasharray:2,2;" x1="514.2251" x2="982.772" y1="518.125" y2="518.125"/><text fill="#000000" font-family="sans-serif" font-size="13" lengthAdjust="spacing" textLength="105.4219" x="526.2251" y="513.0591">datosCompletos</text></g><path d="M30,533.125 L94.4429,533.125 L94.4429,540.2578 L84.4429,550.2578 L30,550.2578 L30,533.125" fill="#EEEEEE" style="stroke:#000000;stroke-width:1.5;"/><rect fill="none" height="119.3359" style="stroke:#000000;stroke-width:1.5;" width="922.5771" x="30" y="533.125"/><text fill="#000000" font-family="sans-serif" font-size="13" font-weight="bold" lengthAdjust="spacing" textLength="19.4429" x="45" y="546.1919">alt</text><text fill="#000000" font-family="sans-serif" font-size="11" font-weight="bold" lengthAdjust="spacing" textLength="125.4097" x="109.4429" y="545.3354">[Datos incompletos]</text><g class="message" data-participant-1="ControladorNegocio" data-participant-2="Administrador"><polygon fill="#181818" points="103.54,567.3906,93.54,571.3906,103.54,575.3906,99.54,571.3906" style="stroke:#181818;stroke-width:1;"/><line style="stroke:#181818;stroke-width:1;" x1="97.54" x2="508.2251" y1="571.3906" y2="571.3906"/><text fill="#000000" font-family="sans-serif" font-size="13" lengthAdjust="spacing" textLength="331.4238" x="109.54" y="566.3247">mensaje("Complete todos los campos requeridos")</text></g><line style="stroke:#000000;stroke-width:1;stroke-dasharray:2,2;" x1="30" x2="952.5771" y1="580.3906" y2="580.3906"/><text fill="#000000" font-family="sans-serif" font-size="11" font-weight="bold" lengthAdjust="spacing" textLength="113.8081" x="35" y="590.6011">[Datos completos]</text><g class="message" data-participant-1="ControladorNegocio" data-participant-2="Asistencia"><polygon fill="#181818" points="886.979,611.3281,896.979,615.3281,886.979,619.3281,890.979,615.3281" style="stroke:#181818;stroke-width:1;"/><line style="stroke:#181818;stroke-width:1;" x1="509.2251" x2="892.979" y1="615.3281" y2="615.3281"/><text fill="#000000" font-family="sans-serif" font-size="13" lengthAdjust="spacing" textLength="370.7539" x="516.2251" y="610.2622">crearAsistencia(Fecha, HoraEntrada, HoraSalida, Estado)</text></g><g class="message" data-participant-1="Asistencia" data-participant-2="ControladorNegocio"><polygon fill="#181818" points="520.2251,640.4609,510.2251,644.4609,520.2251,648.4609,516.2251,644.4609" style="stroke:#181818;stroke-width:1;"/><line style="stroke:#181818;stroke-width:1;stroke-dasharray:2,2;" x1="514.2251" x2="902.979" y1="644.4609" y2="644.4609"/><text fill="#000000" font-family="sans-serif" font-size="13" lengthAdjust="spacing" textLength="65.1841" x="526.2251" y="639.395">asistencia</text></g><g class="message" data-participant-1="ControladorNegocio" data-participant-2="Sistema"><polygon fill="#181818" points="966.772,683.5938,976.772,687.5938,966.772,691.5938,970.772,687.5938" style="stroke:#181818;stroke-width:1;"/><line style="stroke:#181818;stroke-width:1;" x1="509.2251" x2="972.772" y1="687.5938" y2="687.5938"/><text fill="#000000" font-family="sans-serif" font-size="13" lengthAdjust="spacing" textLength="199.5767" x="516.2251" y="682.5278">guardarAsistencias(asistencia)</text></g><g class="message" data-participant-1="Sistema" data-participant-2="ControladorNegocio"><polygon fill="#181818" points="520.2251,712.7266,510.2251,716.7266,520.2251,720.7266,516.2251,716.7266" style="stroke:#181818;stroke-width:1;"/><line style="stroke:#181818;stroke-width:1;stroke-dasharray:2,2;" x1="514.2251" x2="982.772" y1="716.7266" y2="716.7266"/><text fill="#000000" font-family="sans-serif" font-size="13" lengthAdjust="spacing" textLength="62.2261" x="526.2251" y="711.6606">guardado</text></g><path d="M30,731.7266 L94.4429,731.7266 L94.4429,738.8594 L84.4429,748.8594 L30,748.8594 L30,731.7266" fill="#EEEEEE" style="stroke:#000000;stroke-width:1.5;"/><rect fill="none" height="90.2031" style="stroke:#000000;stroke-width:1.5;" width="561.9209" x="30" y="731.7266"/><text fill="#000000" font-family="sans-serif" font-size="13" font-weight="bold" lengthAdjust="spacing" textLength="19.4429" x="45" y="744.7935">alt</text><text fill="#000000" font-family="sans-serif" font-size="11" font-weight="bold" lengthAdjust="spacing" textLength="122.2031" x="109.4429" y="743.937">[Faltan asistencias]</text><g class="message" data-participant-1="ControladorNegocio" data-participant-2="Administrador"><polygon fill="#181818" points="103.54,765.9922,93.54,769.9922,103.54,773.9922,99.54,769.9922" style="stroke:#181818;stroke-width:1;"/><line style="stroke:#181818;stroke-width:1;" x1="97.54" x2="508.2251" y1="769.9922" y2="769.9922"/><text fill="#000000" font-family="sans-serif" font-size="13" lengthAdjust="spacing" textLength="383.646" x="109.54" y="764.9263">mensaje("Complete la asistencia de todos los empleados")</text></g><line style="stroke:#000000;stroke-width:1;stroke-dasharray:2,2;" x1="30" x2="591.9209" y1="778.9922" y2="778.9922"/><text fill="#000000" font-family="sans-serif" font-size="11" font-weight="bold" lengthAdjust="spacing" textLength="111.4932" x="35" y="789.2026">[Registro exitoso]</text><g class="message" data-participant-1="ControladorNegocio" data-participant-2="Administrador"><polygon fill="#181818" points="103.54,809.9297,93.54,813.9297,103.54,817.9297,99.54,813.9297" style="stroke:#181818;stroke-width:1;"/><line style="stroke:#181818;stroke-width:1;" x1="97.54" x2="508.2251" y1="813.9297" y2="813.9297"/><text fill="#000000" font-family="sans-serif" font-size="13" lengthAdjust="spacing" textLength="314.3296" x="109.54" y="808.8638">mensaje("Asistencia registrada correctamente")</text></g><!--SRC=[fLN_Qjim4FvVJt7qhnIM5mXaK9gK3RfIbYUuIKUc8alPMIdRs-zaIxQosCNj38daa-xxxiSdEThe27Q77QpXhhLj9AyjWY6WvkG8JMX1ATGnCDoPndhPmc9bfOEF71pSzsEoFT4nQ1iK-MZZ7zXdXF8-uXVB8HaQL6gxXQ_UYYzijqfT4C7wymJ71b1hCiJVWZcxC4AlRfMwtfv0IZWR23zaBt4njE8Z6TfNZ3G6NIQmdWd02IKE6ChGDOP25s7FB5cWAxHZPHN8CntiHGasq91lyOLMD_DWDv8ukPRWCSNLhrk3Rt3awWjwI4JyU97GwZA_smveIB5qBXdpV2hi7dWIgghN88DaNzJybXnfcNdaVm8-32iTKmVfGZZ1CpA2HeD3oIeKwHNaPn4_qx7RmfNm7aZ_n4_m9J3kVNBFBmTqDitt4fq9EQG5NNdj_7Y7KN9R2bwm9njrqQoPp4oYkm-fH34hzArkTLmYyYvAi5vVURvVuvcT88Pq_JZvQMnECZ3zEXFRhFQ2tgc-3-1Tz4FhDg2PFjJBccKeK7NFrUlLzJfNV9psh8e_WKtUg38kEUt7CxAfisrN8- -IOpuJV8-RJzASNf9M7kGFVPLig_vJA0uhjFJn6fLJtu-3MBxtnpS0_ROYbl11_ggZvKAGwqK7Pj8HPLkambfwKzLbyiDf_W80]--></g></svg>