<svg xmlns="http://www.w3.org/2000/svg" xmlns:xlink="http://www.w3.org/1999/xlink" contentStyleType="text/css" data-diagram-type="SEQUENCE" height="719px" preserveAspectRatio="none" style="width:1608px;height:719px;background:#FFFFFF;" version="1.1" viewBox="0 0 1608 719" width="1608px" zoomAndPan="magnify"><title>Registrar Proveedor (Droguer&#237;a)</title><defs/><g><text fill="#000000" font-family="sans-serif" font-size="14" font-weight="bold" lengthAdjust="spacing" textLength="256.1426" x="677.28" y="27.9951">Registrar Proveedor (Droguer&#237;a)</text><g><title>Interfaz. NegocioControlador</title><rect fill="#FFFFFF" height="553.0313" style="stroke:#181818;stroke-width:1;" width="10" x="699.6128" y="149.7266"/></g><g><title>List.Drogueria.. ListaProveedores</title><rect fill="#FFFFFF" height="215.9297" style="stroke:#181818;stroke-width:1;" width="10" x="1036.3853" y="246.9297"/></g><g><title>List.Drogueria.. ListaProveedores</title><rect fill="#FFFFFF" height="29.1328" style="stroke:#181818;stroke-width:1;" width="10" x="1036.3853" y="622.4922"/></g><g><title>Drogueria. objDrogueria</title><rect fill="#FFFFFF" height="29.1328" style="stroke:#181818;stroke-width:1;" width="10" x="1268.96" y="300.1953"/></g><g><title>Drogueria. objDrogueria</title><rect fill="#FFFFFF" height="29.1328" style="stroke:#181818;stroke-width:1;" width="10" x="1268.96" y="358.4609"/></g><g><title>Drogueria. nuevaDrogueria</title><rect fill="#FFFFFF" height="31.2969" style="stroke:#181818;stroke-width:1;" width="10" x="1473.8081" y="562.0625"/></g><rect fill="none" height="531.0313" style="stroke:#000000;stroke-width:1.5;" width="1591.7026" x="10" y="164.7266"/><rect fill="none" height="193.9297" style="stroke:#000000;stroke-width:1.5;" width="799.4385" x="576.4751" y="261.9297"/><rect fill="none" height="46.2656" style="stroke:#000000;stroke-width:1.5;" width="595.5313" x="586.4751" y="402.5938"/><rect fill="none" height="218.8984" style="stroke:#000000;stroke-width:1.5;" width="1571.7026" x="20" y="469.8594"/><g><title>Administrador.Admin</title><rect fill="#000000" fill-opacity="0.00000" height="594.1641" width="8" x="103.3306" y="118.5938"/><line style="stroke:#181818;stroke-width:0.5;stroke-dasharray:5,5;" x1="107" x2="107" y1="118.5938" y2="712.7578"/></g><g><title>Interfaz. NegocioControlador</title><rect fill="#000000" fill-opacity="0.00000" height="594.1641" width="8" x="700.6128" y="118.5938"/><line style="stroke:#181818;stroke-width:0.5;stroke-dasharray:5,5;" x1="704.4751" x2="704.4751" y1="118.5938" y2="712.7578"/></g><g><title>List.Drogueria.. ListaProveedores</title><rect fill="#000000" fill-opacity="0.00000" height="594.1641" width="8" x="1037.3853" y="118.5938"/><line style="stroke:#181818;stroke-width:0.5;stroke-dasharray:5,5;" x1="1040.7642" x2="1040.7642" y1="118.5938" y2="712.7578"/></g><g><title>Drogueria. objDrogueria</title><rect fill="#000000" fill-opacity="0.00000" height="594.1641" width="8" x="1269.96" y="118.5938"/><line style="stroke:#181818;stroke-width:0.5;stroke-dasharray:5,5;" x1="1273.0063" x2="1273.0063" y1="118.5938" y2="712.7578"/></g><g><title>Drogueria. nuevaDrogueria</title><rect fill="#000000" fill-opacity="0.00000" height="151.1797" width="8" x="1474.8081" y="561.5781"/><line style="stroke:#181818;stroke-width:0.5;stroke-dasharray:5,5;" x1="1477.9136" x2="1477.9136" y1="561.5781" y2="712.7578"/></g><g class="participant participant-head" data-participant="admin"><text fill="#000000" font-family="sans-serif" font-size="14" lengthAdjust="spacing" textLength="148.6611" x="30" y="115.292">Administrador:Admin</text><ellipse cx="107.3306" cy="50.7969" fill="#E2E2F0" rx="8" ry="8" style="stroke:#181818;stroke-width:0.5;"/><path d="M107.3306,58.7969 L107.3306,85.7969 M94.3306,66.7969 L120.3306,66.7969 M107.3306,85.7969 L94.3306,100.7969 M107.3306,85.7969 L120.3306,100.7969" fill="none" style="stroke:#181818;stroke-width:0.5;"/></g><g class="participant participant-head" data-participant="NegCtrl"><rect fill="#E2E2F0" height="30.2969" rx="2.5" ry="2.5" style="stroke:#181818;stroke-width:0.5;" width="216.2754" x="596.4751" y="87.2969"/><text fill="#000000" font-family="sans-serif" font-size="14" lengthAdjust="spacing" textLength="202.2754" x="603.4751" y="107.292">Interfaz: NegocioControlador</text></g><g class="participant participant-head" data-participant="lista"><rect fill="#E2E2F0" height="30.2969" rx="2.5" ry="2.5" style="stroke:#181818;stroke-width:0.5;" width="261.2422" x="910.7642" y="87.2969"/><text fill="#000000" font-family="sans-serif" font-size="14" lengthAdjust="spacing" textLength="247.2422" x="917.7642" y="107.292">List&lt;Drogueria&gt;: ListaProveedores</text></g><g class="participant participant-head" data-participant="drog"><rect fill="#E2E2F0" height="30.2969" rx="2.5" ry="2.5" style="stroke:#181818;stroke-width:0.5;" width="183.9072" x="1182.0063" y="87.2969"/><text fill="#000000" font-family="sans-serif" font-size="14" lengthAdjust="spacing" textLength="169.9072" x="1189.0063" y="107.292">Drogueria: objDrogueria</text></g><g><title>Interfaz. NegocioControlador</title><rect fill="#FFFFFF" height="553.0313" style="stroke:#181818;stroke-width:1;" width="10" x="699.6128" y="149.7266"/></g><g><title>List.Drogueria.. ListaProveedores</title><rect fill="#FFFFFF" height="215.9297" style="stroke:#181818;stroke-width:1;" width="10" x="1036.3853" y="246.9297"/></g><g><title>List.Drogueria.. ListaProveedores</title><rect fill="#FFFFFF" height="29.1328" style="stroke:#181818;stroke-width:1;" width="10" x="1036.3853" y="622.4922"/></g><g><title>Drogueria. objDrogueria</title><rect fill="#FFFFFF" height="29.1328" style="stroke:#181818;stroke-width:1;" width="10" x="1268.96" y="300.1953"/></g><g><title>Drogueria. objDrogueria</title><rect fill="#FFFFFF" height="29.1328" style="stroke:#181818;stroke-width:1;" width="10" x="1268.96" y="358.4609"/></g><g><title>Drogueria. nuevaDrogueria</title><rect fill="#FFFFFF" height="31.2969" style="stroke:#181818;stroke-width:1;" width="10" x="1473.8081" y="562.0625"/></g><g class="message" data-participant-1="admin" data-participant-2="NegCtrl"><polygon fill="#181818" points="687.6128,145.7266,697.6128,149.7266,687.6128,153.7266,691.6128,149.7266" style="stroke:#181818;stroke-width:1;"/><line style="stroke:#181818;stroke-width:1;" x1="107.3306" x2="693.6128" y1="149.7266" y2="149.7266"/><text fill="#000000" font-family="sans-serif" font-size="13" lengthAdjust="spacing" textLength="573.2822" x="114.3306" y="144.6606">registrarProveedor(nombre: String, email: String, telefono: String, formatoEnvio: String)</text></g><path d="M10,164.7266 L74.4429,164.7266 L74.4429,171.8594 L64.4429,181.8594 L10,181.8594 L10,164.7266" fill="#EEEEEE" style="stroke:#000000;stroke-width:1.5;"/><rect fill="none" height="531.0313" style="stroke:#000000;stroke-width:1.5;" width="1591.7026" x="10" y="164.7266"/><text fill="#000000" font-family="sans-serif" font-size="13" font-weight="bold" lengthAdjust="spacing" textLength="19.4429" x="25" y="177.7935">alt</text><text fill="#000000" font-family="sans-serif" font-size="11" font-weight="bold" lengthAdjust="spacing" textLength="236.2959" x="89.4429" y="176.937">[formato de email o telefono invalido]</text><g class="message" data-participant-1="NegCtrl" data-participant-2="admin"><polygon fill="#181818" points="118.3306,198.9922,108.3306,202.9922,118.3306,206.9922,114.3306,202.9922" style="stroke:#181818;stroke-width:1;"/><line style="stroke:#181818;stroke-width:1;stroke-dasharray:2,2;" x1="112.3306" x2="698.6128" y1="202.9922" y2="202.9922"/><text fill="#000000" font-family="sans-serif" font-size="13" lengthAdjust="spacing" textLength="49.6323" x="124.3306" y="197.9263">&#171;NULL&#187;</text></g><line style="stroke:#000000;stroke-width:1;stroke-dasharray:2,2;" x1="10" x2="1601.7026" y1="211.9922" y2="211.9922"/><text fill="#000000" font-family="sans-serif" font-size="11" font-weight="bold" lengthAdjust="spacing" textLength="114.0122" x="15" y="222.2026">[formatos v&#225;lidos]</text><g class="message" data-participant-1="NegCtrl" data-participant-2="lista"><polygon fill="#181818" points="1024.3853,242.9297,1034.3853,246.9297,1024.3853,250.9297,1028.3853,246.9297" style="stroke:#181818;stroke-width:1;"/><line style="stroke:#181818;stroke-width:1;" x1="709.6128" x2="1030.3853" y1="246.9297" y2="246.9297"/><text fill="#000000" font-family="sans-serif" font-size="13" lengthAdjust="spacing" textLength="307.7725" x="716.6128" y="241.8638">buscarDrogueria(nombre: String, email: String)</text></g><path d="M576.4751,261.9297 L653.0991,261.9297 L653.0991,269.0625 L643.0991,279.0625 L576.4751,279.0625 L576.4751,261.9297" fill="#EEEEEE" style="stroke:#000000;stroke-width:1.5;"/><rect fill="none" height="193.9297" style="stroke:#000000;stroke-width:1.5;" width="799.4385" x="576.4751" y="261.9297"/><text fill="#000000" font-family="sans-serif" font-size="13" font-weight="bold" lengthAdjust="spacing" textLength="31.624" x="591.4751" y="274.9966">loop</text><a href="para" target="_top" title="para" xlink:actuate="onRequest" xlink:href="para" xlink:show="new" xlink:title="para" xlink:type="simple"><text fill="#0000FF" font-family="sans-serif" font-size="11" font-weight="bold" lengthAdjust="spacing" text-decoration="underline" textLength="175.7314" x="668.0991" y="274.1401">cada d en  ListaProveedores</text></a><g class="message" data-participant-1="lista" data-participant-2="drog"><polygon fill="#181818" points="1256.96,296.1953,1266.96,300.1953,1256.96,304.1953,1260.96,300.1953" style="stroke:#181818;stroke-width:1;"/><line style="stroke:#181818;stroke-width:1;" x1="1046.3853" x2="1262.96" y1="300.1953" y2="300.1953"/><text fill="#000000" font-family="sans-serif" font-size="13" lengthAdjust="spacing" textLength="83.4272" x="1053.3853" y="295.1294">getNombre()</text></g><g class="message" data-participant-1="drog" data-participant-2="lista"><polygon fill="#181818" points="1057.3853,325.3281,1047.3853,329.3281,1057.3853,333.3281,1053.3853,329.3281" style="stroke:#181818;stroke-width:1;"/><line style="stroke:#181818;stroke-width:1;stroke-dasharray:2,2;" x1="1051.3853" x2="1272.96" y1="329.3281" y2="329.3281"/><text fill="#000000" font-family="sans-serif" font-size="13" lengthAdjust="spacing" textLength="158.7549" x="1063.3853" y="324.2622">&#171;nombreActual : String&#187;</text></g><g class="message" data-participant-1="lista" data-participant-2="drog"><polygon fill="#181818" points="1256.96,354.4609,1266.96,358.4609,1256.96,362.4609,1260.96,358.4609" style="stroke:#181818;stroke-width:1;"/><line style="stroke:#181818;stroke-width:1;" x1="1046.3853" x2="1262.96" y1="358.4609" y2="358.4609"/><text fill="#000000" font-family="sans-serif" font-size="13" lengthAdjust="spacing" textLength="67.5581" x="1053.3853" y="353.395">getEmail()</text></g><g class="message" data-participant-1="drog" data-participant-2="lista"><polygon fill="#181818" points="1057.3853,383.5938,1047.3853,387.5938,1057.3853,391.5938,1053.3853,387.5938" style="stroke:#181818;stroke-width:1;"/><line style="stroke:#181818;stroke-width:1;stroke-dasharray:2,2;" x1="1051.3853" x2="1272.96" y1="387.5938" y2="387.5938"/><text fill="#000000" font-family="sans-serif" font-size="13" lengthAdjust="spacing" textLength="144.1553" x="1063.3853" y="382.5278">&#171;emailActual : String&#187;</text></g><path d="M586.4751,402.5938 L650.918,402.5938 L650.918,409.7266 L640.918,419.7266 L586.4751,419.7266 L586.4751,402.5938" fill="#EEEEEE" style="stroke:#000000;stroke-width:1.5;"/><rect fill="none" height="46.2656" style="stroke:#000000;stroke-width:1.5;" width="595.5313" x="586.4751" y="402.5938"/><text fill="#000000" font-family="sans-serif" font-size="13" font-weight="bold" lengthAdjust="spacing" textLength="19.4429" x="601.4751" y="415.6606">alt</text><text fill="#000000" font-family="sans-serif" font-size="11" font-weight="bold" lengthAdjust="spacing" textLength="339.668" x="665.918" y="414.8042">[(nombre == nombreActual) || (email == emailActual)]</text><g class="message" data-participant-1="lista" data-participant-2="NegCtrl"><polygon fill="#181818" points="720.6128,436.8594,710.6128,440.8594,720.6128,444.8594,716.6128,440.8594" style="stroke:#181818;stroke-width:1;"/><line style="stroke:#181818;stroke-width:1;stroke-dasharray:2,2;" x1="714.6128" x2="1035.3853" y1="440.8594" y2="440.8594"/><text fill="#000000" font-family="sans-serif" font-size="13" lengthAdjust="spacing" textLength="177.8105" x="726.6128" y="435.7935">&#171;objDrogueria : Drogueria&#187;</text></g><path d="M20,469.8594 L84.4429,469.8594 L84.4429,476.9922 L74.4429,486.9922 L20,486.9922 L20,469.8594" fill="#EEEEEE" style="stroke:#000000;stroke-width:1.5;"/><rect fill="none" height="218.8984" style="stroke:#000000;stroke-width:1.5;" width="1571.7026" x="20" y="469.8594"/><text fill="#000000" font-family="sans-serif" font-size="13" font-weight="bold" lengthAdjust="spacing" textLength="19.4429" x="35" y="482.9263">alt</text><text fill="#000000" font-family="sans-serif" font-size="11" font-weight="bold" lengthAdjust="spacing" textLength="165.7197" x="99.4429" y="482.0698">[objDrogueria encontrado]</text><g class="message" data-participant-1="NegCtrl" data-participant-2="admin"><polygon fill="#181818" points="118.3306,504.125,108.3306,508.125,118.3306,512.125,114.3306,508.125" style="stroke:#181818;stroke-width:1;"/><line style="stroke:#181818;stroke-width:1;stroke-dasharray:2,2;" x1="112.3306" x2="698.6128" y1="508.125" y2="508.125"/><text fill="#000000" font-family="sans-serif" font-size="13" lengthAdjust="spacing" textLength="49.6323" x="124.3306" y="503.0591">&#171;NULL&#187;</text></g><line style="stroke:#000000;stroke-width:1;stroke-dasharray:2,2;" x1="20" x2="1591.7026" y1="517.125" y2="517.125"/><text fill="#000000" font-family="sans-serif" font-size="11" font-weight="bold" lengthAdjust="spacing" textLength="184.9375" x="25" y="527.3354">[objDrogueria no encontrado]</text><g class="message" data-participant-1="NegCtrl" data-participant-2="nuevoProv"><polygon fill="#181818" points="1363.9136,548.0625,1373.9136,552.0625,1363.9136,556.0625,1367.9136,552.0625" style="stroke:#181818;stroke-width:1;"/><line style="stroke:#181818;stroke-width:1;" x1="709.6128" x2="1369.9136" y1="552.0625" y2="552.0625"/><text fill="#000000" font-family="sans-serif" font-size="13" lengthAdjust="spacing" textLength="551.3511" x="716.6128" y="546.9966">crearProveedor(nombre: String, email: String, telefono: String, formatoEnvio: String)</text></g><rect fill="#E2E2F0" height="30.2969" rx="2.5" ry="2.5" style="stroke:#181818;stroke-width:0.5;" width="205.7891" x="1375.9136" y="530.9297"/><text fill="#000000" font-family="sans-serif" font-size="14" lengthAdjust="spacing" textLength="191.7891" x="1382.9136" y="550.9248">Drogueria: nuevaDrogueria</text><g class="message" data-participant-1="nuevoProv" data-participant-2="NegCtrl"><polygon fill="#181818" points="720.6128,589.3594,710.6128,593.3594,720.6128,597.3594,716.6128,593.3594" style="stroke:#181818;stroke-width:1;"/><line style="stroke:#181818;stroke-width:1;stroke-dasharray:2,2;" x1="714.6128" x2="1477.8081" y1="593.3594" y2="593.3594"/><text fill="#000000" font-family="sans-serif" font-size="13" lengthAdjust="spacing" textLength="198.1294" x="726.6128" y="588.2935">&#171;nuevaDrogueria : Drogueria&#187;</text></g><g class="message" data-participant-1="NegCtrl" data-participant-2="lista"><polygon fill="#181818" points="1024.3853,618.4922,1034.3853,622.4922,1024.3853,626.4922,1028.3853,622.4922" style="stroke:#181818;stroke-width:1;"/><line style="stroke:#181818;stroke-width:1;" x1="709.6128" x2="1030.3853" y1="622.4922" y2="622.4922"/><text fill="#000000" font-family="sans-serif" font-size="13" lengthAdjust="spacing" textLength="304.0781" x="716.6128" y="617.4263">agregarDrogueria(nuevaDrogueria: Drogueria)</text></g><g class="message" data-participant-1="lista" data-participant-2="NegCtrl"><polygon fill="#181818" points="720.6128,647.625,710.6128,651.625,720.6128,655.625,716.6128,651.625" style="stroke:#181818;stroke-width:1;"/><line style="stroke:#181818;stroke-width:1;stroke-dasharray:2,2;" x1="714.6128" x2="1040.3853" y1="651.625" y2="651.625"/><text fill="#000000" font-family="sans-serif" font-size="13" lengthAdjust="spacing" textLength="125.2329" x="726.6128" y="646.5591">&#171;estado : Boolean&#187;</text></g><g class="message" data-participant-1="NegCtrl" data-participant-2="admin"><polygon fill="#181818" points="118.3306,676.7578,108.3306,680.7578,118.3306,684.7578,114.3306,680.7578" style="stroke:#181818;stroke-width:1;"/><line style="stroke:#181818;stroke-width:1;stroke-dasharray:2,2;" x1="112.3306" x2="698.6128" y1="680.7578" y2="680.7578"/><text fill="#000000" font-family="sans-serif" font-size="13" lengthAdjust="spacing" textLength="49.6323" x="124.3306" y="675.6919">&#171;NULL&#187;</text></g><!--SRC=[jLJ1Rjim3BthAuYUacBv0ICrq7Kz30Y2OSDEmmwCpNWQ736G5MCO-ZFxW7r5VsoK7CjIqwGTXlaaK-JZ8_b4frrBy94QtJcB5ZvOxebgjZ1xPxava7tyZNEblkcQOCliDln3AQoSU5pTrZjjGg045E7l2h03z2UrH-jqfVTe75ozDuxi5dyMiAQ6AyrtR9pbraU6637VETlcKIi1NnvvQ2mBy0QC7AaBeQqtve4nfW3UV8z_mRsMlxFUva0zvlxUn3wdai9zPR0eHxfGW1rx5sdD3EysbWhuvAmspHkW7Ufs-dNKqfODJvOjsnqwlZUzZjQvxxBkqL7iZGBvi7MZFyXC0ZPm10LjUcnrpS7PVoFLXT0U-1UmNAu_hrPb6PoexMY4xA1__EN3kt1r2b8ExHQCpQ6hqCPUNQvw7f5YLSFOHdCyjCnx-2BpGQYmHgY139mC_clq3p61ad3pinLg3RbrO3ERPtunTz10UXC25qbrooKC1TrMxe1-q4CXS6nQ3AGSz2LUzxuh_qGhzFKlMQLtUMfHqt5oS7EJbJo7XmUO3VgIgoHjpZufD7iOGZLzUsAPpa_eagdLS-UaZ44jAkMTePEf_4R1HFYl4lz9Ly9hoA3bKRs4NavR0gwl9KTbwJziX6T5C-sdz7hYSpALVCTTcalI_sGBdkd0A55iP2LcYo7BbwGxKr2-62x8YyHQivpVChU4vWBz9_9vjJHIDQhHe1BW8yeV]--></g></svg>