<?xml version="1.0" encoding="us-ascii" standalone="no"?><svg xmlns="http://www.w3.org/2000/svg" xmlns:xlink="http://www.w3.org/1999/xlink" contentStyleType="text/css" height="1856px" preserveAspectRatio="none" style="width:1157px;height:1856px;background:#FFFFFF;" version="1.1" viewBox="0 0 1157 1856" width="1157px" zoomAndPan="magnify"><defs/><g><!--class TipoUsuario--><g id="elem_TipoUsuario"><rect codeLine="4" fill="#F1F1F1" height="83.2188" id="TipoUsuario" rx="2.5" ry="2.5" style="stroke:#181818;stroke-width:0.5;" width="108" x="303" y="42.5"/><ellipse cx="318" cy="58.5" fill="#EB937F" rx="11" ry="11" style="stroke:#181818;stroke-width:1.0;"/><path d="M316.8594,59.2969 L316.8594,61.7969 L321.1875,61.7969 L321.1875,60.875 Q321.1875,60.2656 321.4219,60 Q321.6719,59.7344 322.0469,59.7344 Q322.4219,59.7344 322.6563,60 Q322.8906,60.2656 322.8906,60.875 L322.8906,63.5 L314.8906,63.5 Q314.2656,63.5 314,63.2656 Q313.75,63.0313 313.75,62.6406 Q313.75,62.2656 314.0156,62.0313 Q314.2813,61.7969 314.8906,61.7969 L315.1563,61.7969 L315.1563,55.1406 L314.8906,55.1406 Q314.2656,55.1406 314,54.9063 Q313.75,54.6719 313.75,54.2813 Q313.75,53.9063 314,53.6719 Q314.2656,53.4375 314.8906,53.4375 L322.5156,53.4375 L322.5156,56.0313 Q322.5156,56.6406 322.2813,56.9063 Q322.0625,57.1563 321.6719,57.1563 Q321.2969,57.1563 321.0625,56.9063 Q320.8281,56.6406 320.8281,56.0313 L320.8281,55.1406 L316.8594,55.1406 L316.8594,57.5938 L318.3438,57.5938 Q318.3438,56.9375 318.4688,56.75 Q318.7344,56.3438 319.2031,56.3438 Q319.5781,56.3438 319.8125,56.6094 Q320.0469,56.8594 320.0469,57.4688 L320.0469,59.4375 Q320.0469,59.9844 319.9219,60.1719 Q319.6563,60.5625 319.2031,60.5625 Q318.7344,60.5625 318.4688,60.1563 Q318.3438,59.9688 318.3438,59.2969 L316.8594,59.2969 Z " fill="#000000"/><text fill="#000000" font-family="sans-serif" font-size="14" lengthAdjust="spacing" textLength="76" x="332" y="64.2285">TipoUsuario</text><line style="stroke:#181818;stroke-width:0.5;" x1="304" x2="410" y1="74.5" y2="74.5"/><text fill="#000000" font-family="sans-serif" font-size="14" lengthAdjust="spacing" textLength="87" x="309" y="93.0332">Administrador</text><text fill="#000000" font-family="sans-serif" font-size="14" lengthAdjust="spacing" textLength="63" x="309" y="110.6426">Empleado</text><line style="stroke:#181818;stroke-width:0.5;" x1="304" x2="410" y1="117.7188" y2="117.7188"/></g><!--class TipoVenta--><g id="elem_TipoVenta"><rect codeLine="8" fill="#F1F1F1" height="83.2188" id="TipoVenta" rx="2.5" ry="2.5" style="stroke:#181818;stroke-width:0.5;" width="97" x="446.5" y="42.5"/><ellipse cx="461.5" cy="58.5" fill="#EB937F" rx="11" ry="11" style="stroke:#181818;stroke-width:1.0;"/><path d="M460.3594,59.2969 L460.3594,61.7969 L464.6875,61.7969 L464.6875,60.875 Q464.6875,60.2656 464.9219,60 Q465.1719,59.7344 465.5469,59.7344 Q465.9219,59.7344 466.1563,60 Q466.3906,60.2656 466.3906,60.875 L466.3906,63.5 L458.3906,63.5 Q457.7656,63.5 457.5,63.2656 Q457.25,63.0313 457.25,62.6406 Q457.25,62.2656 457.5156,62.0313 Q457.7813,61.7969 458.3906,61.7969 L458.6563,61.7969 L458.6563,55.1406 L458.3906,55.1406 Q457.7656,55.1406 457.5,54.9063 Q457.25,54.6719 457.25,54.2813 Q457.25,53.9063 457.5,53.6719 Q457.7656,53.4375 458.3906,53.4375 L466.0156,53.4375 L466.0156,56.0313 Q466.0156,56.6406 465.7813,56.9063 Q465.5625,57.1563 465.1719,57.1563 Q464.7969,57.1563 464.5625,56.9063 Q464.3281,56.6406 464.3281,56.0313 L464.3281,55.1406 L460.3594,55.1406 L460.3594,57.5938 L461.8438,57.5938 Q461.8438,56.9375 461.9688,56.75 Q462.2344,56.3438 462.7031,56.3438 Q463.0781,56.3438 463.3125,56.6094 Q463.5469,56.8594 463.5469,57.4688 L463.5469,59.4375 Q463.5469,59.9844 463.4219,60.1719 Q463.1563,60.5625 462.7031,60.5625 Q462.2344,60.5625 461.9688,60.1563 Q461.8438,59.9688 461.8438,59.2969 L460.3594,59.2969 Z " fill="#000000"/><text fill="#000000" font-family="sans-serif" font-size="14" lengthAdjust="spacing" textLength="65" x="475.5" y="64.2285">TipoVenta</text><line style="stroke:#181818;stroke-width:0.5;" x1="447.5" x2="542.5" y1="74.5" y2="74.5"/><text fill="#000000" font-family="sans-serif" font-size="14" lengthAdjust="spacing" textLength="60" x="452.5" y="93.0332">Particular</text><text fill="#000000" font-family="sans-serif" font-size="14" lengthAdjust="spacing" textLength="70" x="452.5" y="110.6426">ObraSocial</text><line style="stroke:#181818;stroke-width:0.5;" x1="447.5" x2="542.5" y1="117.7188" y2="117.7188"/></g><!--class TipoPago--><g id="elem_TipoPago"><rect codeLine="12" fill="#F1F1F1" height="136.0469" id="TipoPago" rx="2.5" ry="2.5" style="stroke:#181818;stroke-width:0.5;" width="103" x="305.5" y="238.5"/><ellipse cx="325" cy="254.5" fill="#EB937F" rx="11" ry="11" style="stroke:#181818;stroke-width:1.0;"/><path d="M323.8594,255.2969 L323.8594,257.7969 L328.1875,257.7969 L328.1875,256.875 Q328.1875,256.2656 328.4219,256 Q328.6719,255.7344 329.0469,255.7344 Q329.4219,255.7344 329.6563,256 Q329.8906,256.2656 329.8906,256.875 L329.8906,259.5 L321.8906,259.5 Q321.2656,259.5 321,259.2656 Q320.75,259.0313 320.75,258.6406 Q320.75,258.2656 321.0156,258.0313 Q321.2813,257.7969 321.8906,257.7969 L322.1563,257.7969 L322.1563,251.1406 L321.8906,251.1406 Q321.2656,251.1406 321,250.9063 Q320.75,250.6719 320.75,250.2813 Q320.75,249.9063 321,249.6719 Q321.2656,249.4375 321.8906,249.4375 L329.5156,249.4375 L329.5156,252.0313 Q329.5156,252.6406 329.2813,252.9063 Q329.0625,253.1563 328.6719,253.1563 Q328.2969,253.1563 328.0625,252.9063 Q327.8281,252.6406 327.8281,252.0313 L327.8281,251.1406 L323.8594,251.1406 L323.8594,253.5938 L325.3438,253.5938 Q325.3438,252.9375 325.4688,252.75 Q325.7344,252.3438 326.2031,252.3438 Q326.5781,252.3438 326.8125,252.6094 Q327.0469,252.8594 327.0469,253.4688 L327.0469,255.4375 Q327.0469,255.9844 326.9219,256.1719 Q326.6563,256.5625 326.2031,256.5625 Q325.7344,256.5625 325.4688,256.1563 Q325.3438,255.9688 325.3438,255.2969 L323.8594,255.2969 Z " fill="#000000"/><text fill="#000000" font-family="sans-serif" font-size="14" lengthAdjust="spacing" textLength="61" x="340" y="260.2285">TipoPago</text><line style="stroke:#181818;stroke-width:0.5;" x1="306.5" x2="407.5" y1="270.5" y2="270.5"/><text fill="#000000" font-family="sans-serif" font-size="14" lengthAdjust="spacing" textLength="50" x="311.5" y="289.0332">Efectivo</text><text fill="#000000" font-family="sans-serif" font-size="14" lengthAdjust="spacing" textLength="41" x="311.5" y="306.6426">Debito</text><text fill="#000000" font-family="sans-serif" font-size="14" lengthAdjust="spacing" textLength="46" x="311.5" y="324.252">Credito</text><text fill="#000000" font-family="sans-serif" font-size="14" lengthAdjust="spacing" textLength="88" x="311.5" y="341.8613">Transferencia</text><text fill="#000000" font-family="sans-serif" font-size="14" lengthAdjust="spacing" textLength="91" x="311.5" y="359.4707">BilleteraVirtual</text><line style="stroke:#181818;stroke-width:0.5;" x1="306.5" x2="407.5" y1="366.5469" y2="366.5469"/></g><!--class EstadoAsistencia--><g id="elem_EstadoAsistencia"><rect codeLine="19" fill="#F1F1F1" height="118.4375" id="EstadoAsistencia" rx="2.5" ry="2.5" style="stroke:#181818;stroke-width:0.5;" width="140" x="444" y="247.5"/><ellipse cx="459" cy="263.5" fill="#EB937F" rx="11" ry="11" style="stroke:#181818;stroke-width:1.0;"/><path d="M457.8594,264.2969 L457.8594,266.7969 L462.1875,266.7969 L462.1875,265.875 Q462.1875,265.2656 462.4219,265 Q462.6719,264.7344 463.0469,264.7344 Q463.4219,264.7344 463.6563,265 Q463.8906,265.2656 463.8906,265.875 L463.8906,268.5 L455.8906,268.5 Q455.2656,268.5 455,268.2656 Q454.75,268.0313 454.75,267.6406 Q454.75,267.2656 455.0156,267.0313 Q455.2813,266.7969 455.8906,266.7969 L456.1563,266.7969 L456.1563,260.1406 L455.8906,260.1406 Q455.2656,260.1406 455,259.9063 Q454.75,259.6719 454.75,259.2813 Q454.75,258.9063 455,258.6719 Q455.2656,258.4375 455.8906,258.4375 L463.5156,258.4375 L463.5156,261.0313 Q463.5156,261.6406 463.2813,261.9063 Q463.0625,262.1563 462.6719,262.1563 Q462.2969,262.1563 462.0625,261.9063 Q461.8281,261.6406 461.8281,261.0313 L461.8281,260.1406 L457.8594,260.1406 L457.8594,262.5938 L459.3438,262.5938 Q459.3438,261.9375 459.4688,261.75 Q459.7344,261.3438 460.2031,261.3438 Q460.5781,261.3438 460.8125,261.6094 Q461.0469,261.8594 461.0469,262.4688 L461.0469,264.4375 Q461.0469,264.9844 460.9219,265.1719 Q460.6563,265.5625 460.2031,265.5625 Q459.7344,265.5625 459.4688,265.1563 Q459.3438,264.9688 459.3438,264.2969 L457.8594,264.2969 Z " fill="#000000"/><text fill="#000000" font-family="sans-serif" font-size="14" lengthAdjust="spacing" textLength="108" x="473" y="269.2285">EstadoAsistencia</text><line style="stroke:#181818;stroke-width:0.5;" x1="445" x2="583" y1="279.5" y2="279.5"/><text fill="#000000" font-family="sans-serif" font-size="14" lengthAdjust="spacing" textLength="57" x="450" y="298.0332">Presente</text><text fill="#000000" font-family="sans-serif" font-size="14" lengthAdjust="spacing" textLength="52" x="450" y="315.6426">Ausente</text><text fill="#000000" font-family="sans-serif" font-size="14" lengthAdjust="spacing" textLength="38" x="450" y="333.252">Tarde</text><text fill="#000000" font-family="sans-serif" font-size="14" lengthAdjust="spacing" textLength="52" x="450" y="350.8613">Licencia</text><line style="stroke:#181818;stroke-width:0.5;" x1="445" x2="583" y1="357.9375" y2="357.9375"/></g><!--class Usuario--><g id="elem_Usuario"><rect codeLine="29" fill="#F1F1F1" height="153.6563" id="Usuario" rx="2.5" ry="2.5" style="stroke:#181818;stroke-width:0.5;" width="330" x="592" y="7"/><ellipse cx="728.75" cy="23" fill="#ADD1B2" rx="11" ry="11" style="stroke:#181818;stroke-width:1.0;"/><path d="M731.5156,18.875 Q731.6719,18.6563 731.8594,18.5469 Q732.0469,18.4375 732.2656,18.4375 Q732.6406,18.4375 732.875,18.7031 Q733.1094,18.9531 733.1094,19.5625 L733.1094,21.0156 Q733.1094,21.625 732.875,21.8906 Q732.6406,22.1563 732.2656,22.1563 Q731.9219,22.1563 731.7188,21.9531 Q731.5156,21.7656 731.4063,21.25 Q731.3594,20.8906 731.1719,20.7031 Q730.8438,20.3281 730.2344,20.1094 Q729.625,19.8906 729,19.8906 Q728.2344,19.8906 727.5938,20.2188 Q726.9688,20.5469 726.4688,21.2969 Q725.9844,22.0469 725.9844,23.0781 L725.9844,24.1719 Q725.9844,25.4063 726.875,26.2344 Q727.7656,27.0469 729.3594,27.0469 Q730.2969,27.0469 730.9531,26.7969 Q731.3438,26.6406 731.7656,26.2031 Q732.0313,25.9375 732.1719,25.8594 Q732.3281,25.7813 732.5313,25.7813 Q732.8594,25.7813 733.1094,26.0469 Q733.375,26.2969 733.375,26.6406 Q733.375,26.9844 733.0313,27.3906 Q732.5313,27.9688 731.7344,28.2969 Q730.6563,28.75 729.3594,28.75 Q727.8438,28.75 726.6406,28.125 Q725.6563,27.625 724.9688,26.5625 Q724.2813,25.4844 724.2813,24.2031 L724.2813,23.0469 Q724.2813,21.7188 724.8906,20.5781 Q725.5156,19.4219 726.6094,18.8125 Q727.7031,18.1875 728.9375,18.1875 Q729.6719,18.1875 730.3125,18.3594 Q730.9688,18.5156 731.5156,18.875 Z " fill="#000000"/><text fill="#000000" font-family="sans-serif" font-size="14" lengthAdjust="spacing" textLength="48" x="749.25" y="28.7285">Usuario</text><line style="stroke:#181818;stroke-width:0.5;" x1="593" x2="921" y1="39" y2="39"/><rect fill="none" height="6" style="stroke:#C82930;stroke-width:1.0;" width="6" x="600" y="50.3047"/><text fill="#000000" font-family="sans-serif" font-size="14" lengthAdjust="spacing" textLength="145" x="612" y="57.5332">nombreUsuario : String</text><rect fill="none" height="6" style="stroke:#C82930;stroke-width:1.0;" width="6" x="600" y="67.9141"/><text fill="#000000" font-family="sans-serif" font-size="14" lengthAdjust="spacing" textLength="120" x="612" y="75.1426">contrasena : String</text><rect fill="none" height="6" style="stroke:#C82930;stroke-width:1.0;" width="6" x="600" y="85.5234"/><text fill="#000000" font-family="sans-serif" font-size="14" lengthAdjust="spacing" textLength="111" x="612" y="92.752">tipo : TipoUsuario</text><rect fill="none" height="6" style="stroke:#C82930;stroke-width:1.0;" width="6" x="600" y="103.1328"/><text fill="#000000" font-family="sans-serif" font-size="14" lengthAdjust="spacing" textLength="185" x="612" y="110.3613">montoTotalVendido : Decimal</text><line style="stroke:#181818;stroke-width:0.5;" x1="593" x2="921" y1="117.4375" y2="117.4375"/><ellipse cx="603" cy="131.7422" fill="#84BE84" rx="3" ry="3" style="stroke:#038048;stroke-width:1.0;"/><text fill="#000000" font-family="sans-serif" font-size="14" lengthAdjust="spacing" textLength="304" x="612" y="135.9707">iniciarSesion(nombreUsuario, contrasena) : bool</text><ellipse cx="603" cy="149.3516" fill="#84BE84" rx="3" ry="3" style="stroke:#038048;stroke-width:1.0;"/><text fill="#000000" font-family="sans-serif" font-size="14" lengthAdjust="spacing" textLength="129" x="612" y="153.5801">cerrarSesion() : void</text></g><!--class Empleado--><g id="elem_Empleado"><rect codeLine="38" fill="#F1F1F1" height="171.2656" id="Empleado" rx="2.5" ry="2.5" style="stroke:#181818;stroke-width:0.5;" width="275" x="619.5" y="221"/><ellipse cx="721.25" cy="237" fill="#ADD1B2" rx="11" ry="11" style="stroke:#181818;stroke-width:1.0;"/><path d="M724.0156,232.875 Q724.1719,232.6563 724.3594,232.5469 Q724.5469,232.4375 724.7656,232.4375 Q725.1406,232.4375 725.375,232.7031 Q725.6094,232.9531 725.6094,233.5625 L725.6094,235.0156 Q725.6094,235.625 725.375,235.8906 Q725.1406,236.1563 724.7656,236.1563 Q724.4219,236.1563 724.2188,235.9531 Q724.0156,235.7656 723.9063,235.25 Q723.8594,234.8906 723.6719,234.7031 Q723.3438,234.3281 722.7344,234.1094 Q722.125,233.8906 721.5,233.8906 Q720.7344,233.8906 720.0938,234.2188 Q719.4688,234.5469 718.9688,235.2969 Q718.4844,236.0469 718.4844,237.0781 L718.4844,238.1719 Q718.4844,239.4063 719.375,240.2344 Q720.2656,241.0469 721.8594,241.0469 Q722.7969,241.0469 723.4531,240.7969 Q723.8438,240.6406 724.2656,240.2031 Q724.5313,239.9375 724.6719,239.8594 Q724.8281,239.7813 725.0313,239.7813 Q725.3594,239.7813 725.6094,240.0469 Q725.875,240.2969 725.875,240.6406 Q725.875,240.9844 725.5313,241.3906 Q725.0313,241.9688 724.2344,242.2969 Q723.1563,242.75 721.8594,242.75 Q720.3438,242.75 719.1406,242.125 Q718.1563,241.625 717.4688,240.5625 Q716.7813,239.4844 716.7813,238.2031 L716.7813,237.0469 Q716.7813,235.7188 717.3906,234.5781 Q718.0156,233.4219 719.1094,232.8125 Q720.2031,232.1875 721.4375,232.1875 Q722.1719,232.1875 722.8125,232.3594 Q723.4688,232.5156 724.0156,232.875 Z " fill="#000000"/><text fill="#000000" font-family="sans-serif" font-size="14" lengthAdjust="spacing" textLength="63" x="741.75" y="242.7285">Empleado</text><line style="stroke:#181818;stroke-width:0.5;" x1="620.5" x2="893.5" y1="253" y2="253"/><rect fill="none" height="6" style="stroke:#C82930;stroke-width:1.0;" width="6" x="627.5" y="264.3047"/><text fill="#000000" font-family="sans-serif" font-size="14" lengthAdjust="spacing" textLength="101" x="639.5" y="271.5332">idEmpleado : int</text><rect fill="none" height="6" style="stroke:#C82930;stroke-width:1.0;" width="6" x="627.5" y="281.9141"/><text fill="#000000" font-family="sans-serif" font-size="14" lengthAdjust="spacing" textLength="97" x="639.5" y="289.1426">nombre : String</text><rect fill="none" height="6" style="stroke:#C82930;stroke-width:1.0;" width="6" x="627.5" y="299.5234"/><text fill="#000000" font-family="sans-serif" font-size="14" lengthAdjust="spacing" textLength="98" x="639.5" y="306.752">apellido : String</text><rect fill="none" height="6" style="stroke:#C82930;stroke-width:1.0;" width="6" x="627.5" y="317.1328"/><text fill="#000000" font-family="sans-serif" font-size="14" lengthAdjust="spacing" textLength="104" x="639.5" y="324.3613">sueldo : Decimal</text><rect fill="none" height="6" style="stroke:#C82930;stroke-width:1.0;" width="6" x="627.5" y="334.7422"/><text fill="#000000" font-family="sans-serif" font-size="14" lengthAdjust="spacing" textLength="185" x="639.5" y="341.9707">montoTotalVendido : Decimal</text><line style="stroke:#181818;stroke-width:0.5;" x1="620.5" x2="893.5" y1="349.0469" y2="349.0469"/><ellipse cx="630.5" cy="363.3516" fill="#84BE84" rx="3" ry="3" style="stroke:#038048;stroke-width:1.0;"/><text fill="#000000" font-family="sans-serif" font-size="14" lengthAdjust="spacing" textLength="249" x="639.5" y="367.5801">registrarAsistencia(a : Asistencia) : void</text><ellipse cx="630.5" cy="380.9609" fill="#84BE84" rx="3" ry="3" style="stroke:#038048;stroke-width:1.0;"/><text fill="#000000" font-family="sans-serif" font-size="14" lengthAdjust="spacing" textLength="194" x="639.5" y="385.1895">registrarVenta(v : Venta) : void</text></g><!--class Cliente--><g id="elem_Cliente"><rect codeLine="48" fill="#F1F1F1" height="294.5313" id="Cliente" rx="2.5" ry="2.5" style="stroke:#181818;stroke-width:0.5;" width="510" x="7" y="736"/><ellipse cx="235.75" cy="752" fill="#ADD1B2" rx="11" ry="11" style="stroke:#181818;stroke-width:1.0;"/><path d="M238.5156,747.875 Q238.6719,747.6563 238.8594,747.5469 Q239.0469,747.4375 239.2656,747.4375 Q239.6406,747.4375 239.875,747.7031 Q240.1094,747.9531 240.1094,748.5625 L240.1094,750.0156 Q240.1094,750.625 239.875,750.8906 Q239.6406,751.1563 239.2656,751.1563 Q238.9219,751.1563 238.7188,750.9531 Q238.5156,750.7656 238.4063,750.25 Q238.3594,749.8906 238.1719,749.7031 Q237.8438,749.3281 237.2344,749.1094 Q236.625,748.8906 236,748.8906 Q235.2344,748.8906 234.5938,749.2188 Q233.9688,749.5469 233.4688,750.2969 Q232.9844,751.0469 232.9844,752.0781 L232.9844,753.1719 Q232.9844,754.4063 233.875,755.2344 Q234.7656,756.0469 236.3594,756.0469 Q237.2969,756.0469 237.9531,755.7969 Q238.3438,755.6406 238.7656,755.2031 Q239.0313,754.9375 239.1719,754.8594 Q239.3281,754.7813 239.5313,754.7813 Q239.8594,754.7813 240.1094,755.0469 Q240.375,755.2969 240.375,755.6406 Q240.375,755.9844 240.0313,756.3906 Q239.5313,756.9688 238.7344,757.2969 Q237.6563,757.75 236.3594,757.75 Q234.8438,757.75 233.6406,757.125 Q232.6563,756.625 231.9688,755.5625 Q231.2813,754.4844 231.2813,753.2031 L231.2813,752.0469 Q231.2813,750.7188 231.8906,749.5781 Q232.5156,748.4219 233.6094,747.8125 Q234.7031,747.1875 235.9375,747.1875 Q236.6719,747.1875 237.3125,747.3594 Q237.9688,747.5156 238.5156,747.875 Z " fill="#000000"/><text fill="#000000" font-family="sans-serif" font-size="14" lengthAdjust="spacing" textLength="44" x="256.25" y="757.7285">Cliente</text><line style="stroke:#181818;stroke-width:0.5;" x1="8" x2="516" y1="768" y2="768"/><rect fill="none" height="6" style="stroke:#C82930;stroke-width:1.0;" width="6" x="15" y="779.3047"/><text fill="#000000" font-family="sans-serif" font-size="14" lengthAdjust="spacing" textLength="82" x="27" y="786.5332">idCliente : int</text><rect fill="none" height="6" style="stroke:#C82930;stroke-width:1.0;" width="6" x="15" y="796.9141"/><text fill="#000000" font-family="sans-serif" font-size="14" lengthAdjust="spacing" textLength="97" x="27" y="804.1426">nombre : String</text><rect fill="none" height="6" style="stroke:#C82930;stroke-width:1.0;" width="6" x="15" y="814.5234"/><text fill="#000000" font-family="sans-serif" font-size="14" lengthAdjust="spacing" textLength="98" x="27" y="821.752">apellido : String</text><rect fill="none" height="6" style="stroke:#C82930;stroke-width:1.0;" width="6" x="15" y="832.1328"/><text fill="#000000" font-family="sans-serif" font-size="14" lengthAdjust="spacing" textLength="68" x="27" y="839.3613">dni : String</text><rect fill="none" height="6" style="stroke:#C82930;stroke-width:1.0;" width="6" x="15" y="849.7422"/><text fill="#000000" font-family="sans-serif" font-size="14" lengthAdjust="spacing" textLength="144" x="27" y="856.9707">esFrecuente : Boolean</text><rect fill="none" height="6" style="stroke:#C82930;stroke-width:1.0;" width="6" x="15" y="867.3516"/><text fill="#000000" font-family="sans-serif" font-size="14" lengthAdjust="spacing" textLength="82" x="27" y="874.5801">email : String</text><rect fill="none" height="6" style="stroke:#C82930;stroke-width:1.0;" width="6" x="15" y="884.9609"/><text fill="#000000" font-family="sans-serif" font-size="14" lengthAdjust="spacing" textLength="100" x="27" y="892.1895">telefono : String</text><rect fill="none" height="6" style="stroke:#C82930;stroke-width:1.0;" width="6" x="15" y="902.5703"/><text fill="#000000" font-family="sans-serif" font-size="14" lengthAdjust="spacing" textLength="201" x="27" y="909.7988">saldoCuentaCorriente : Decimal</text><line style="stroke:#181818;stroke-width:0.5;" x1="8" x2="516" y1="916.875" y2="916.875"/><ellipse cx="18" cy="931.1797" fill="#84BE84" rx="3" ry="3" style="stroke:#038048;stroke-width:1.0;"/><text fill="#000000" font-family="sans-serif" font-size="14" lengthAdjust="spacing" textLength="484" x="27" y="935.4082">actualizarDatosCliente(idCliente, nombre, apellido, dni, email, telefono) : void</text><ellipse cx="18" cy="948.7891" fill="#84BE84" rx="3" ry="3" style="stroke:#038048;stroke-width:1.0;"/><text fill="#000000" font-family="sans-serif" font-size="14" lengthAdjust="spacing" textLength="226" x="27" y="953.0176">agregarClienteFrecuente(dni) : void</text><ellipse cx="18" cy="966.3984" fill="#84BE84" rx="3" ry="3" style="stroke:#038048;stroke-width:1.0;"/><text fill="#000000" font-family="sans-serif" font-size="14" lengthAdjust="spacing" textLength="288" x="27" y="970.627">buscarCliente(nombre : String) : List&lt;Cliente&gt;</text><ellipse cx="18" cy="984.0078" fill="#84BE84" rx="3" ry="3" style="stroke:#038048;stroke-width:1.0;"/><text fill="#000000" font-family="sans-serif" font-size="14" lengthAdjust="spacing" textLength="374" x="27" y="988.2363">agreagrCliente(nombre, apellido, dni, email, telefono) : void</text><ellipse cx="18" cy="1001.6172" fill="#84BE84" rx="3" ry="3" style="stroke:#038048;stroke-width:1.0;"/><text fill="#000000" font-family="sans-serif" font-size="14" lengthAdjust="spacing" textLength="196" x="27" y="1005.8457">eliminarCliente(idCliente) : void</text><ellipse cx="18" cy="1019.2266" fill="#84BE84" rx="3" ry="3" style="stroke:#038048;stroke-width:1.0;"/><text fill="#000000" font-family="sans-serif" font-size="14" lengthAdjust="spacing" textLength="337" x="27" y="1023.4551">listarClientesFrecuentes(esFrecuente) : List&lt;Cliente&gt;</text></g><!--class ObraSocial--><g id="elem_ObraSocial"><rect codeLine="66" fill="#F1F1F1" height="136.0469" id="ObraSocial" rx="2.5" ry="2.5" style="stroke:#181818;stroke-width:0.5;" width="134" x="195" y="1091"/><ellipse cx="224.4" cy="1107" fill="#ADD1B2" rx="11" ry="11" style="stroke:#181818;stroke-width:1.0;"/><path d="M227.1656,1102.875 Q227.3219,1102.6563 227.5094,1102.5469 Q227.6969,1102.4375 227.9156,1102.4375 Q228.2906,1102.4375 228.525,1102.7031 Q228.7594,1102.9531 228.7594,1103.5625 L228.7594,1105.0156 Q228.7594,1105.625 228.525,1105.8906 Q228.2906,1106.1563 227.9156,1106.1563 Q227.5719,1106.1563 227.3688,1105.9531 Q227.1656,1105.7656 227.0563,1105.25 Q227.0094,1104.8906 226.8219,1104.7031 Q226.4938,1104.3281 225.8844,1104.1094 Q225.275,1103.8906 224.65,1103.8906 Q223.8844,1103.8906 223.2438,1104.2188 Q222.6188,1104.5469 222.1188,1105.2969 Q221.6344,1106.0469 221.6344,1107.0781 L221.6344,1108.1719 Q221.6344,1109.4063 222.525,1110.2344 Q223.4156,1111.0469 225.0094,1111.0469 Q225.9469,1111.0469 226.6031,1110.7969 Q226.9938,1110.6406 227.4156,1110.2031 Q227.6813,1109.9375 227.8219,1109.8594 Q227.9781,1109.7813 228.1813,1109.7813 Q228.5094,1109.7813 228.7594,1110.0469 Q229.025,1110.2969 229.025,1110.6406 Q229.025,1110.9844 228.6813,1111.3906 Q228.1813,1111.9688 227.3844,1112.2969 Q226.3063,1112.75 225.0094,1112.75 Q223.4938,1112.75 222.2906,1112.125 Q221.3063,1111.625 220.6188,1110.5625 Q219.9313,1109.4844 219.9313,1108.2031 L219.9313,1107.0469 Q219.9313,1105.7188 220.5406,1104.5781 Q221.1656,1103.4219 222.2594,1102.8125 Q223.3531,1102.1875 224.5875,1102.1875 Q225.3219,1102.1875 225.9625,1102.3594 Q226.6188,1102.5156 227.1656,1102.875 Z " fill="#000000"/><text fill="#000000" font-family="sans-serif" font-size="14" lengthAdjust="spacing" textLength="70" x="241.6" y="1112.7285">ObraSocial</text><line style="stroke:#181818;stroke-width:0.5;" x1="196" x2="328" y1="1123" y2="1123"/><rect fill="none" height="6" style="stroke:#C82930;stroke-width:1.0;" width="6" x="203" y="1134.3047"/><text fill="#000000" font-family="sans-serif" font-size="14" lengthAdjust="spacing" textLength="108" x="215" y="1141.5332">idObraSocial : int</text><rect fill="none" height="6" style="stroke:#C82930;stroke-width:1.0;" width="6" x="203" y="1151.9141"/><text fill="#000000" font-family="sans-serif" font-size="14" lengthAdjust="spacing" textLength="97" x="215" y="1159.1426">nombre : String</text><rect fill="none" height="6" style="stroke:#C82930;stroke-width:1.0;" width="6" x="203" y="1169.5234"/><text fill="#000000" font-family="sans-serif" font-size="14" lengthAdjust="spacing" textLength="71" x="215" y="1176.752">cuit : String</text><rect fill="none" height="6" style="stroke:#C82930;stroke-width:1.0;" width="6" x="203" y="1187.1328"/><text fill="#000000" font-family="sans-serif" font-size="14" lengthAdjust="spacing" textLength="106" x="215" y="1194.3613">direccion : String</text><rect fill="none" height="6" style="stroke:#C82930;stroke-width:1.0;" width="6" x="203" y="1204.7422"/><text fill="#000000" font-family="sans-serif" font-size="14" lengthAdjust="spacing" textLength="100" x="215" y="1211.9707">telefono : String</text><line style="stroke:#181818;stroke-width:0.5;" x1="196" x2="328" y1="1219.0469" y2="1219.0469"/></g><!--class Receta--><g id="elem_Receta"><rect codeLine="74" fill="#F1F1F1" height="118.4375" id="Receta" rx="2.5" ry="2.5" style="stroke:#181818;stroke-width:0.5;" width="181" x="291.5" y="1287"/><ellipse cx="355.25" cy="1303" fill="#ADD1B2" rx="11" ry="11" style="stroke:#181818;stroke-width:1.0;"/><path d="M358.0156,1298.875 Q358.1719,1298.6563 358.3594,1298.5469 Q358.5469,1298.4375 358.7656,1298.4375 Q359.1406,1298.4375 359.375,1298.7031 Q359.6094,1298.9531 359.6094,1299.5625 L359.6094,1301.0156 Q359.6094,1301.625 359.375,1301.8906 Q359.1406,1302.1563 358.7656,1302.1563 Q358.4219,1302.1563 358.2188,1301.9531 Q358.0156,1301.7656 357.9063,1301.25 Q357.8594,1300.8906 357.6719,1300.7031 Q357.3438,1300.3281 356.7344,1300.1094 Q356.125,1299.8906 355.5,1299.8906 Q354.7344,1299.8906 354.0938,1300.2188 Q353.4688,1300.5469 352.9688,1301.2969 Q352.4844,1302.0469 352.4844,1303.0781 L352.4844,1304.1719 Q352.4844,1305.4063 353.375,1306.2344 Q354.2656,1307.0469 355.8594,1307.0469 Q356.7969,1307.0469 357.4531,1306.7969 Q357.8438,1306.6406 358.2656,1306.2031 Q358.5313,1305.9375 358.6719,1305.8594 Q358.8281,1305.7813 359.0313,1305.7813 Q359.3594,1305.7813 359.6094,1306.0469 Q359.875,1306.2969 359.875,1306.6406 Q359.875,1306.9844 359.5313,1307.3906 Q359.0313,1307.9688 358.2344,1308.2969 Q357.1563,1308.75 355.8594,1308.75 Q354.3438,1308.75 353.1406,1308.125 Q352.1563,1307.625 351.4688,1306.5625 Q350.7813,1305.4844 350.7813,1304.2031 L350.7813,1303.0469 Q350.7813,1301.7188 351.3906,1300.5781 Q352.0156,1299.4219 353.1094,1298.8125 Q354.2031,1298.1875 355.4375,1298.1875 Q356.1719,1298.1875 356.8125,1298.3594 Q357.4688,1298.5156 358.0156,1298.875 Z " fill="#000000"/><text fill="#000000" font-family="sans-serif" font-size="14" lengthAdjust="spacing" textLength="45" x="375.75" y="1308.7285">Receta</text><line style="stroke:#181818;stroke-width:0.5;" x1="292.5" x2="471.5" y1="1319" y2="1319"/><rect fill="none" height="6" style="stroke:#C82930;stroke-width:1.0;" width="6" x="299.5" y="1330.3047"/><text fill="#000000" font-family="sans-serif" font-size="14" lengthAdjust="spacing" textLength="83" x="311.5" y="1337.5332">idReceta : int</text><rect fill="none" height="6" style="stroke:#C82930;stroke-width:1.0;" width="6" x="299.5" y="1347.9141"/><text fill="#000000" font-family="sans-serif" font-size="14" lengthAdjust="spacing" textLength="155" x="311.5" y="1355.1426">fechaPrescripcion : Date</text><rect fill="none" height="6" style="stroke:#C82930;stroke-width:1.0;" width="6" x="299.5" y="1365.5234"/><text fill="#000000" font-family="sans-serif" font-size="14" lengthAdjust="spacing" textLength="151" x="311.5" y="1372.752">matriculaMedico : String</text><rect fill="none" height="6" style="stroke:#C82930;stroke-width:1.0;" width="6" x="299.5" y="1383.1328"/><text fill="#000000" font-family="sans-serif" font-size="14" lengthAdjust="spacing" textLength="103" x="311.5" y="1390.3613">usada : Boolean</text><line style="stroke:#181818;stroke-width:0.5;" x1="292.5" x2="471.5" y1="1397.4375" y2="1397.4375"/></g><!--class Producto--><g id="elem_Producto"><rect codeLine="81" fill="#F1F1F1" height="188.875" id="Producto" rx="2.5" ry="2.5" style="stroke:#181818;stroke-width:0.5;" width="403" x="180.5" y="1661"/><ellipse cx="349.25" cy="1677" fill="#ADD1B2" rx="11" ry="11" style="stroke:#181818;stroke-width:1.0;"/><path d="M352.0156,1672.875 Q352.1719,1672.6563 352.3594,1672.5469 Q352.5469,1672.4375 352.7656,1672.4375 Q353.1406,1672.4375 353.375,1672.7031 Q353.6094,1672.9531 353.6094,1673.5625 L353.6094,1675.0156 Q353.6094,1675.625 353.375,1675.8906 Q353.1406,1676.1563 352.7656,1676.1563 Q352.4219,1676.1563 352.2188,1675.9531 Q352.0156,1675.7656 351.9063,1675.25 Q351.8594,1674.8906 351.6719,1674.7031 Q351.3438,1674.3281 350.7344,1674.1094 Q350.125,1673.8906 349.5,1673.8906 Q348.7344,1673.8906 348.0938,1674.2188 Q347.4688,1674.5469 346.9688,1675.2969 Q346.4844,1676.0469 346.4844,1677.0781 L346.4844,1678.1719 Q346.4844,1679.4063 347.375,1680.2344 Q348.2656,1681.0469 349.8594,1681.0469 Q350.7969,1681.0469 351.4531,1680.7969 Q351.8438,1680.6406 352.2656,1680.2031 Q352.5313,1679.9375 352.6719,1679.8594 Q352.8281,1679.7813 353.0313,1679.7813 Q353.3594,1679.7813 353.6094,1680.0469 Q353.875,1680.2969 353.875,1680.6406 Q353.875,1680.9844 353.5313,1681.3906 Q353.0313,1681.9688 352.2344,1682.2969 Q351.1563,1682.75 349.8594,1682.75 Q348.3438,1682.75 347.1406,1682.125 Q346.1563,1681.625 345.4688,1680.5625 Q344.7813,1679.4844 344.7813,1678.2031 L344.7813,1677.0469 Q344.7813,1675.7188 345.3906,1674.5781 Q346.0156,1673.4219 347.1094,1672.8125 Q348.2031,1672.1875 349.4375,1672.1875 Q350.1719,1672.1875 350.8125,1672.3594 Q351.4688,1672.5156 352.0156,1672.875 Z " fill="#000000"/><text fill="#000000" font-family="sans-serif" font-size="14" lengthAdjust="spacing" textLength="57" x="369.75" y="1682.7285">Producto</text><line style="stroke:#181818;stroke-width:0.5;" x1="181.5" x2="582.5" y1="1693" y2="1693"/><rect fill="none" height="6" style="stroke:#C82930;stroke-width:1.0;" width="6" x="188.5" y="1704.3047"/><text fill="#000000" font-family="sans-serif" font-size="14" lengthAdjust="spacing" textLength="95" x="200.5" y="1711.5332">idProducto : int</text><rect fill="none" height="6" style="stroke:#C82930;stroke-width:1.0;" width="6" x="188.5" y="1721.9141"/><text fill="#000000" font-family="sans-serif" font-size="14" lengthAdjust="spacing" textLength="97" x="200.5" y="1729.1426">nombre : String</text><rect fill="none" height="6" style="stroke:#C82930;stroke-width:1.0;" width="6" x="188.5" y="1739.5234"/><text fill="#000000" font-family="sans-serif" font-size="14" lengthAdjust="spacing" textLength="101" x="200.5" y="1746.752">precio : Decimal</text><rect fill="none" height="6" style="stroke:#C82930;stroke-width:1.0;" width="6" x="188.5" y="1757.1328"/><text fill="#000000" font-family="sans-serif" font-size="14" lengthAdjust="spacing" textLength="60" x="200.5" y="1764.3613">stock : int</text><line style="stroke:#181818;stroke-width:0.5;" x1="181.5" x2="582.5" y1="1771.4375" y2="1771.4375"/><ellipse cx="191.5" cy="1785.7422" fill="#84BE84" rx="3" ry="3" style="stroke:#038048;stroke-width:1.0;"/><text fill="#000000" font-family="sans-serif" font-size="14" lengthAdjust="spacing" textLength="282" x="200.5" y="1789.9707">cargarProducto(nombre, precio, stock) : void</text><ellipse cx="191.5" cy="1803.3516" fill="#84BE84" rx="3" ry="3" style="stroke:#038048;stroke-width:1.0;"/><text fill="#000000" font-family="sans-serif" font-size="14" lengthAdjust="spacing" textLength="377" x="200.5" y="1807.5801">actualizarProducto(idProducto, nombre, precio, stock) : void</text><ellipse cx="191.5" cy="1820.9609" fill="#84BE84" rx="3" ry="3" style="stroke:#038048;stroke-width:1.0;"/><text fill="#000000" font-family="sans-serif" font-size="14" lengthAdjust="spacing" textLength="222" x="200.5" y="1825.1895">eliminarProducto(idProducto) : void</text><ellipse cx="191.5" cy="1838.5703" fill="#84BE84" rx="3" ry="3" style="stroke:#038048;stroke-width:1.0;"/><text fill="#000000" font-family="sans-serif" font-size="14" lengthAdjust="spacing" textLength="314" x="200.5" y="1842.7988">buscarProducto(nombre : String) : List&lt;Producto&gt;</text></g><!--class DetalleVenta--><g id="elem_DetalleVenta"><rect codeLine="92" fill="#F1F1F1" height="136.0469" id="DetalleVenta" rx="2.5" ry="2.5" style="stroke:#181818;stroke-width:0.5;" width="199" x="282.5" y="1465"/><ellipse cx="337.25" cy="1481" fill="#ADD1B2" rx="11" ry="11" style="stroke:#181818;stroke-width:1.0;"/><path d="M340.0156,1476.875 Q340.1719,1476.6563 340.3594,1476.5469 Q340.5469,1476.4375 340.7656,1476.4375 Q341.1406,1476.4375 341.375,1476.7031 Q341.6094,1476.9531 341.6094,1477.5625 L341.6094,1479.0156 Q341.6094,1479.625 341.375,1479.8906 Q341.1406,1480.1563 340.7656,1480.1563 Q340.4219,1480.1563 340.2188,1479.9531 Q340.0156,1479.7656 339.9063,1479.25 Q339.8594,1478.8906 339.6719,1478.7031 Q339.3438,1478.3281 338.7344,1478.1094 Q338.125,1477.8906 337.5,1477.8906 Q336.7344,1477.8906 336.0938,1478.2188 Q335.4688,1478.5469 334.9688,1479.2969 Q334.4844,1480.0469 334.4844,1481.0781 L334.4844,1482.1719 Q334.4844,1483.4063 335.375,1484.2344 Q336.2656,1485.0469 337.8594,1485.0469 Q338.7969,1485.0469 339.4531,1484.7969 Q339.8438,1484.6406 340.2656,1484.2031 Q340.5313,1483.9375 340.6719,1483.8594 Q340.8281,1483.7813 341.0313,1483.7813 Q341.3594,1483.7813 341.6094,1484.0469 Q341.875,1484.2969 341.875,1484.6406 Q341.875,1484.9844 341.5313,1485.3906 Q341.0313,1485.9688 340.2344,1486.2969 Q339.1563,1486.75 337.8594,1486.75 Q336.3438,1486.75 335.1406,1486.125 Q334.1563,1485.625 333.4688,1484.5625 Q332.7813,1483.4844 332.7813,1482.2031 L332.7813,1481.0469 Q332.7813,1479.7188 333.3906,1478.5781 Q334.0156,1477.4219 335.1094,1476.8125 Q336.2031,1476.1875 337.4375,1476.1875 Q338.1719,1476.1875 338.8125,1476.3594 Q339.4688,1476.5156 340.0156,1476.875 Z " fill="#000000"/><text fill="#000000" font-family="sans-serif" font-size="14" lengthAdjust="spacing" textLength="81" x="357.75" y="1486.7285">DetalleVenta</text><line style="stroke:#181818;stroke-width:0.5;" x1="283.5" x2="480.5" y1="1497" y2="1497"/><rect fill="none" height="6" style="stroke:#C82930;stroke-width:1.0;" width="6" x="290.5" y="1508.3047"/><text fill="#000000" font-family="sans-serif" font-size="14" lengthAdjust="spacing" textLength="82" x="302.5" y="1515.5332">idDetalle : int</text><rect fill="none" height="6" style="stroke:#C82930;stroke-width:1.0;" width="6" x="290.5" y="1525.9141"/><text fill="#000000" font-family="sans-serif" font-size="14" lengthAdjust="spacing" textLength="81" x="302.5" y="1533.1426">cantidad : int</text><rect fill="none" height="6" style="stroke:#C82930;stroke-width:1.0;" width="6" x="290.5" y="1543.5234"/><text fill="#000000" font-family="sans-serif" font-size="14" lengthAdjust="spacing" textLength="149" x="302.5" y="1550.752">precioUnitario : Decimal</text><rect fill="none" height="6" style="stroke:#C82930;stroke-width:1.0;" width="6" x="290.5" y="1561.1328"/><text fill="#000000" font-family="sans-serif" font-size="14" lengthAdjust="spacing" textLength="112" x="302.5" y="1568.3613">subtotal : Decimal</text><line style="stroke:#181818;stroke-width:0.5;" x1="283.5" x2="480.5" y1="1575.4375" y2="1575.4375"/><ellipse cx="293.5" cy="1589.7422" fill="#84BE84" rx="3" ry="3" style="stroke:#038048;stroke-width:1.0;"/><text fill="#000000" font-family="sans-serif" font-size="14" lengthAdjust="spacing" textLength="173" x="302.5" y="1593.9707">calcularSubtotal() : Decimal</text></g><!--class Venta--><g id="elem_Venta"><rect codeLine="100" fill="#F1F1F1" height="188.875" id="Venta" rx="2.5" ry="2.5" style="stroke:#181818;stroke-width:0.5;" width="269" x="435.5" y="469.5"/><ellipse cx="547.25" cy="485.5" fill="#ADD1B2" rx="11" ry="11" style="stroke:#181818;stroke-width:1.0;"/><path d="M550.0156,481.375 Q550.1719,481.1563 550.3594,481.0469 Q550.5469,480.9375 550.7656,480.9375 Q551.1406,480.9375 551.375,481.2031 Q551.6094,481.4531 551.6094,482.0625 L551.6094,483.5156 Q551.6094,484.125 551.375,484.3906 Q551.1406,484.6563 550.7656,484.6563 Q550.4219,484.6563 550.2188,484.4531 Q550.0156,484.2656 549.9063,483.75 Q549.8594,483.3906 549.6719,483.2031 Q549.3438,482.8281 548.7344,482.6094 Q548.125,482.3906 547.5,482.3906 Q546.7344,482.3906 546.0938,482.7188 Q545.4688,483.0469 544.9688,483.7969 Q544.4844,484.5469 544.4844,485.5781 L544.4844,486.6719 Q544.4844,487.9063 545.375,488.7344 Q546.2656,489.5469 547.8594,489.5469 Q548.7969,489.5469 549.4531,489.2969 Q549.8438,489.1406 550.2656,488.7031 Q550.5313,488.4375 550.6719,488.3594 Q550.8281,488.2813 551.0313,488.2813 Q551.3594,488.2813 551.6094,488.5469 Q551.875,488.7969 551.875,489.1406 Q551.875,489.4844 551.5313,489.8906 Q551.0313,490.4688 550.2344,490.7969 Q549.1563,491.25 547.8594,491.25 Q546.3438,491.25 545.1406,490.625 Q544.1563,490.125 543.4688,489.0625 Q542.7813,487.9844 542.7813,486.7031 L542.7813,485.5469 Q542.7813,484.2188 543.3906,483.0781 Q544.0156,481.9219 545.1094,481.3125 Q546.2031,480.6875 547.4375,480.6875 Q548.1719,480.6875 548.8125,480.8594 Q549.4688,481.0156 550.0156,481.375 Z " fill="#000000"/><text fill="#000000" font-family="sans-serif" font-size="14" lengthAdjust="spacing" textLength="37" x="567.75" y="491.2285">Venta</text><line style="stroke:#181818;stroke-width:0.5;" x1="436.5" x2="703.5" y1="501.5" y2="501.5"/><rect fill="none" height="6" style="stroke:#C82930;stroke-width:1.0;" width="6" x="443.5" y="512.8047"/><text fill="#000000" font-family="sans-serif" font-size="14" lengthAdjust="spacing" textLength="75" x="455.5" y="520.0332">idVenta : int</text><rect fill="none" height="6" style="stroke:#C82930;stroke-width:1.0;" width="6" x="443.5" y="530.4141"/><text fill="#000000" font-family="sans-serif" font-size="14" lengthAdjust="spacing" textLength="100" x="455.5" y="537.6426">tipo : TipoVenta</text><rect fill="none" height="6" style="stroke:#C82930;stroke-width:1.0;" width="6" x="443.5" y="548.0234"/><text fill="#000000" font-family="sans-serif" font-size="14" lengthAdjust="spacing" textLength="138" x="455.5" y="555.252">fechaHora : DateTime</text><rect fill="none" height="6" style="stroke:#C82930;stroke-width:1.0;" width="6" x="443.5" y="565.6328"/><text fill="#000000" font-family="sans-serif" font-size="14" lengthAdjust="spacing" textLength="133" x="455.5" y="572.8613">montoTotal : Decimal</text><rect fill="none" height="6" style="stroke:#C82930;stroke-width:1.0;" width="6" x="443.5" y="583.2422"/><text fill="#000000" font-family="sans-serif" font-size="14" lengthAdjust="spacing" textLength="129" x="455.5" y="590.4707">tipoPago : TipoPago</text><rect fill="none" height="6" style="stroke:#C82930;stroke-width:1.0;" width="6" x="443.5" y="600.8516"/><text fill="#000000" font-family="sans-serif" font-size="14" lengthAdjust="spacing" textLength="69" x="455.5" y="608.0801">cuotas : int</text><line style="stroke:#181818;stroke-width:0.5;" x1="436.5" x2="703.5" y1="615.1563" y2="615.1563"/><ellipse cx="446.5" cy="629.4609" fill="#84BE84" rx="3" ry="3" style="stroke:#038048;stroke-width:1.0;"/><text fill="#000000" font-family="sans-serif" font-size="14" lengthAdjust="spacing" textLength="153" x="455.5" y="633.6895">calcularTotal() : Decimal</text><ellipse cx="446.5" cy="647.0703" fill="#84BE84" rx="3" ry="3" style="stroke:#038048;stroke-width:1.0;"/><text fill="#000000" font-family="sans-serif" font-size="14" lengthAdjust="spacing" textLength="243" x="455.5" y="651.2988">agregarDetalle(d : DetalleVenta) : void</text></g><!--class Ticket--><g id="elem_Ticket"><rect codeLine="111" fill="#F1F1F1" height="153.6563" id="Ticket" rx="2.5" ry="2.5" style="stroke:#181818;stroke-width:0.5;" width="225" x="623.5" y="806.5"/><ellipse cx="712.75" cy="822.5" fill="#ADD1B2" rx="11" ry="11" style="stroke:#181818;stroke-width:1.0;"/><path d="M715.5156,818.375 Q715.6719,818.1563 715.8594,818.0469 Q716.0469,817.9375 716.2656,817.9375 Q716.6406,817.9375 716.875,818.2031 Q717.1094,818.4531 717.1094,819.0625 L717.1094,820.5156 Q717.1094,821.125 716.875,821.3906 Q716.6406,821.6563 716.2656,821.6563 Q715.9219,821.6563 715.7188,821.4531 Q715.5156,821.2656 715.4063,820.75 Q715.3594,820.3906 715.1719,820.2031 Q714.8438,819.8281 714.2344,819.6094 Q713.625,819.3906 713,819.3906 Q712.2344,819.3906 711.5938,819.7188 Q710.9688,820.0469 710.4688,820.7969 Q709.9844,821.5469 709.9844,822.5781 L709.9844,823.6719 Q709.9844,824.9063 710.875,825.7344 Q711.7656,826.5469 713.3594,826.5469 Q714.2969,826.5469 714.9531,826.2969 Q715.3438,826.1406 715.7656,825.7031 Q716.0313,825.4375 716.1719,825.3594 Q716.3281,825.2813 716.5313,825.2813 Q716.8594,825.2813 717.1094,825.5469 Q717.375,825.7969 717.375,826.1406 Q717.375,826.4844 717.0313,826.8906 Q716.5313,827.4688 715.7344,827.7969 Q714.6563,828.25 713.3594,828.25 Q711.8438,828.25 710.6406,827.625 Q709.6563,827.125 708.9688,826.0625 Q708.2813,824.9844 708.2813,823.7031 L708.2813,822.5469 Q708.2813,821.2188 708.8906,820.0781 Q709.5156,818.9219 710.6094,818.3125 Q711.7031,817.6875 712.9375,817.6875 Q713.6719,817.6875 714.3125,817.8594 Q714.9688,818.0156 715.5156,818.375 Z " fill="#000000"/><text fill="#000000" font-family="sans-serif" font-size="14" lengthAdjust="spacing" textLength="38" x="733.25" y="828.2285">Ticket</text><line style="stroke:#181818;stroke-width:0.5;" x1="624.5" x2="847.5" y1="838.5" y2="838.5"/><rect fill="none" height="6" style="stroke:#C82930;stroke-width:1.0;" width="6" x="631.5" y="849.8047"/><text fill="#000000" font-family="sans-serif" font-size="14" lengthAdjust="spacing" textLength="76" x="643.5" y="857.0332">idTicket : int</text><rect fill="none" height="6" style="stroke:#C82930;stroke-width:1.0;" width="6" x="631.5" y="867.4141"/><text fill="#000000" font-family="sans-serif" font-size="14" lengthAdjust="spacing" textLength="156" x="643.5" y="874.6426">nombreFarmacia : String</text><rect fill="none" height="6" style="stroke:#C82930;stroke-width:1.0;" width="6" x="631.5" y="885.0234"/><text fill="#000000" font-family="sans-serif" font-size="14" lengthAdjust="spacing" textLength="106" x="643.5" y="892.252">direccion : String</text><rect fill="none" height="6" style="stroke:#C82930;stroke-width:1.0;" width="6" x="631.5" y="902.6328"/><text fill="#000000" font-family="sans-serif" font-size="14" lengthAdjust="spacing" textLength="100" x="643.5" y="909.8613">telefono : String</text><rect fill="none" height="6" style="stroke:#C82930;stroke-width:1.0;" width="6" x="631.5" y="920.2422"/><text fill="#000000" font-family="sans-serif" font-size="14" lengthAdjust="spacing" textLength="199" x="643.5" y="927.4707">fechaHoraImpresion : DateTime</text><line style="stroke:#181818;stroke-width:0.5;" x1="624.5" x2="847.5" y1="934.5469" y2="934.5469"/><ellipse cx="634.5" cy="948.8516" fill="#84BE84" rx="3" ry="3" style="stroke:#038048;stroke-width:1.0;"/><text fill="#000000" font-family="sans-serif" font-size="14" lengthAdjust="spacing" textLength="97" x="643.5" y="953.0801">imprimir() : void</text></g><!--class Asistencia--><g id="elem_Asistencia"><rect codeLine="120" fill="#F1F1F1" height="224.0938" id="Asistencia" rx="2.5" ry="2.5" style="stroke:#181818;stroke-width:0.5;" width="411" x="739.5" y="452"/><ellipse cx="908.75" cy="468" fill="#ADD1B2" rx="11" ry="11" style="stroke:#181818;stroke-width:1.0;"/><path d="M911.5156,463.875 Q911.6719,463.6563 911.8594,463.5469 Q912.0469,463.4375 912.2656,463.4375 Q912.6406,463.4375 912.875,463.7031 Q913.1094,463.9531 913.1094,464.5625 L913.1094,466.0156 Q913.1094,466.625 912.875,466.8906 Q912.6406,467.1563 912.2656,467.1563 Q911.9219,467.1563 911.7188,466.9531 Q911.5156,466.7656 911.4063,466.25 Q911.3594,465.8906 911.1719,465.7031 Q910.8438,465.3281 910.2344,465.1094 Q909.625,464.8906 909,464.8906 Q908.2344,464.8906 907.5938,465.2188 Q906.9688,465.5469 906.4688,466.2969 Q905.9844,467.0469 905.9844,468.0781 L905.9844,469.1719 Q905.9844,470.4063 906.875,471.2344 Q907.7656,472.0469 909.3594,472.0469 Q910.2969,472.0469 910.9531,471.7969 Q911.3438,471.6406 911.7656,471.2031 Q912.0313,470.9375 912.1719,470.8594 Q912.3281,470.7813 912.5313,470.7813 Q912.8594,470.7813 913.1094,471.0469 Q913.375,471.2969 913.375,471.6406 Q913.375,471.9844 913.0313,472.3906 Q912.5313,472.9688 911.7344,473.2969 Q910.6563,473.75 909.3594,473.75 Q907.8438,473.75 906.6406,473.125 Q905.6563,472.625 904.9688,471.5625 Q904.2813,470.4844 904.2813,469.2031 L904.2813,468.0469 Q904.2813,466.7188 904.8906,465.5781 Q905.5156,464.4219 906.6094,463.8125 Q907.7031,463.1875 908.9375,463.1875 Q909.6719,463.1875 910.3125,463.3594 Q910.9688,463.5156 911.5156,463.875 Z " fill="#000000"/><text fill="#000000" font-family="sans-serif" font-size="14" lengthAdjust="spacing" textLength="64" x="929.25" y="473.7285">Asistencia</text><line style="stroke:#181818;stroke-width:0.5;" x1="740.5" x2="1149.5" y1="484" y2="484"/><rect fill="none" height="6" style="stroke:#C82930;stroke-width:1.0;" width="6" x="747.5" y="495.3047"/><text fill="#000000" font-family="sans-serif" font-size="14" lengthAdjust="spacing" textLength="102" x="759.5" y="502.5332">idAsistencia : int</text><rect fill="none" height="6" style="stroke:#C82930;stroke-width:1.0;" width="6" x="747.5" y="512.9141"/><text fill="#000000" font-family="sans-serif" font-size="14" lengthAdjust="spacing" textLength="77" x="759.5" y="520.1426">fecha : Date</text><rect fill="none" height="6" style="stroke:#C82930;stroke-width:1.0;" width="6" x="747.5" y="530.5234"/><text fill="#000000" font-family="sans-serif" font-size="14" lengthAdjust="spacing" textLength="163" x="759.5" y="537.752">estado : EstadoAsistencia</text><rect fill="none" height="6" style="stroke:#C82930;stroke-width:1.0;" width="6" x="747.5" y="548.1328"/><text fill="#000000" font-family="sans-serif" font-size="14" lengthAdjust="spacing" textLength="122" x="759.5" y="555.3613">horaEntrada : Time</text><rect fill="none" height="6" style="stroke:#C82930;stroke-width:1.0;" width="6" x="747.5" y="565.7422"/><text fill="#000000" font-family="sans-serif" font-size="14" lengthAdjust="spacing" textLength="111" x="759.5" y="572.9707">horaSalida : Time</text><line style="stroke:#181818;stroke-width:0.5;" x1="740.5" x2="1149.5" y1="580.0469" y2="580.0469"/><ellipse cx="750.5" cy="594.3516" fill="#84BE84" rx="3" ry="3" style="stroke:#038048;stroke-width:1.0;"/><text fill="#000000" font-family="sans-serif" font-size="14" lengthAdjust="spacing" textLength="165" x="759.5" y="598.5801">registrarAsistencia() : void</text><ellipse cx="750.5" cy="611.9609" fill="#84BE84" rx="3" ry="3" style="stroke:#038048;stroke-width:1.0;"/><text fill="#000000" font-family="sans-serif" font-size="14" lengthAdjust="spacing" textLength="140" x="759.5" y="616.1895">registrarSalida() : void</text><ellipse cx="750.5" cy="629.5703" fill="#84BE84" rx="3" ry="3" style="stroke:#038048;stroke-width:1.0;"/><text fill="#000000" font-family="sans-serif" font-size="14" lengthAdjust="spacing" textLength="295" x="759.5" y="633.7988">filtrarPorFecha(fecha : Date) : List&lt;Asistencia&gt;</text><ellipse cx="750.5" cy="647.1797" fill="#84BE84" rx="3" ry="3" style="stroke:#038048;stroke-width:1.0;"/><text fill="#000000" font-family="sans-serif" font-size="14" lengthAdjust="spacing" textLength="341" x="759.5" y="651.4082">filtrarPorEmpleado(empleadoId : int) : List&lt;Asistencia&gt;</text><ellipse cx="750.5" cy="664.7891" fill="#84BE84" rx="3" ry="3" style="stroke:#038048;stroke-width:1.0;"/><text fill="#000000" font-family="sans-serif" font-size="14" lengthAdjust="spacing" textLength="385" x="759.5" y="669.0176">filtrarPorEstado(estado : EstadoAsistencia) : List&lt;Asistencia&gt;</text></g><!--reverse link Usuario to Empleado--><g id="link_Usuario_Empleado"><path codeLine="138" d="M757,173.19 C757,192.36 757,201.06 757,220.62 " fill="none" id="Usuario-backto-Empleado" style="stroke:#181818;stroke-width:1.0;"/><polygon fill="none" points="757,161.19,753,167.19,757,173.19,761,167.19,757,161.19" style="stroke:#181818;stroke-width:1.0;"/><text fill="#000000" font-family="sans-serif" font-size="13" lengthAdjust="spacing" textLength="7" x="749.6992" y="182.036">1</text><text fill="#000000" font-family="sans-serif" font-size="13" lengthAdjust="spacing" textLength="22" x="734.0547" y="210.051">0..1</text></g><!--reverse link Empleado to Asistencia--><g id="link_Empleado_Asistencia"><path codeLine="141" d="M826.4511,401.886 C840.4511,420.916 848.41,431.72 863.07,451.65 " fill="none" id="Empleado-backto-Asistencia" style="stroke:#181818;stroke-width:1.0;"/><polygon fill="#181818" points="819.34,392.22,819.6735,399.4234,826.4511,401.886,826.1176,394.6826,819.34,392.22" style="stroke:#181818;stroke-width:1.0;"/><text fill="#000000" font-family="sans-serif" font-size="13" lengthAdjust="spacing" textLength="7" x="817.3966" y="413.7729">1</text><text fill="#000000" font-family="sans-serif" font-size="13" lengthAdjust="spacing" textLength="22" x="834.8263" y="441.0678">0..x</text></g><!--link Empleado to Venta--><g id="link_Empleado_Venta"><path codeLine="144" d="M694.99,392.22 C676.92,416.92 657.07,444.04 638.61,469.26 " fill="none" id="Empleado-Venta" style="stroke:#181818;stroke-width:1.0;"/><text fill="#000000" font-family="sans-serif" font-size="13" lengthAdjust="spacing" textLength="7" x="682.3602" y="413.7729">1</text><text fill="#000000" font-family="sans-serif" font-size="13" lengthAdjust="spacing" textLength="22" x="621.2008" y="458.587">0..X</text></g><!--reverse link Venta to DetalleVenta--><g id="link_Venta_DetalleVenta"><path codeLine="147" d="M580.3118,670.4753 C592.5218,830.7053 599.86,1152.85 490,1405 C480.69,1426.36 466.56,1446.84 451.56,1464.89 " fill="none" id="Venta-backto-DetalleVenta" style="stroke:#181818;stroke-width:1.0;"/><polygon fill="#181818" points="579.4,658.51,575.8675,664.7966,580.3118,670.4753,583.8443,664.1887,579.4,658.51" style="stroke:#181818;stroke-width:1.0;"/><text fill="#000000" font-family="sans-serif" font-size="13" lengthAdjust="spacing" textLength="7" x="572.8517" y="679.8718">1</text><text fill="#000000" font-family="sans-serif" font-size="13" lengthAdjust="spacing" textLength="22" x="435.965" y="1454.0772">1..X</text></g><!--link DetalleVenta to Producto--><g id="link_DetalleVenta_Producto"><path codeLine="150" d="M382,1601.06 C382,1619.93 382,1634.82 382,1654.95 " fill="none" id="DetalleVenta-to-Producto" style="stroke:#181818;stroke-width:1.0;"/><polygon fill="#181818" points="382,1660.95,386,1651.95,382,1655.95,378,1651.95,382,1660.95" style="stroke:#181818;stroke-width:1.0;"/><text fill="#000000" font-family="sans-serif" font-size="13" lengthAdjust="spacing" textLength="7" x="374.6391" y="1622.4145">1</text><text fill="#000000" font-family="sans-serif" font-size="13" lengthAdjust="spacing" textLength="26" x="354.9641" y="1650.2922">1...X</text></g><!--link Venta to Cliente--><g id="link_Venta_Cliente"><path codeLine="153" d="M479.26,658.54 C455.74,682.78 429.85,709.47 404.39,735.72 " fill="none" id="Venta-Cliente" style="stroke:#181818;stroke-width:1.0;"/><text fill="#000000" font-family="sans-serif" font-size="13" lengthAdjust="spacing" textLength="20" x="451.5471" y="679.9041">0..*</text><text fill="#000000" font-family="sans-serif" font-size="13" lengthAdjust="spacing" textLength="22" x="389.1648" y="725.2039">0..1</text></g><!--reverse link Cliente to Receta--><g id="link_Cliente_Receta"><path codeLine="156" d="M330.8346,1042.3089 C338.1146,1062.1989 340.68,1071.29 346,1091 C363.78,1156.9 373.18,1234.92 377.85,1286.94 " fill="none" id="Cliente-backto-Receta" style="stroke:#181818;stroke-width:1.0;"/><polygon fill="#181818" points="326.71,1031.04,325.016,1038.0493,330.8346,1042.3089,332.5286,1035.2996,326.71,1031.04" style="stroke:#181818;stroke-width:1.0;"/><text fill="#000000" font-family="sans-serif" font-size="13" lengthAdjust="spacing" textLength="7" x="322.6749" y="1052.089">1</text><text fill="#000000" font-family="sans-serif" font-size="13" lengthAdjust="spacing" textLength="22" x="354.0036" y="1276.2569">0..X</text></g><!--link Receta to DetalleVenta--><g id="link_Receta_DetalleVenta"><path codeLine="159" d="M370.07,1405.03 C369.13,1424 369,1445.22 369.68,1464.81 " fill="none" id="Receta-DetalleVenta" style="stroke:#181818;stroke-width:1.0;"/><text fill="#000000" font-family="sans-serif" font-size="13" lengthAdjust="spacing" textLength="7" x="361.093" y="1427.1078">1</text><text fill="#000000" font-family="sans-serif" font-size="13" lengthAdjust="spacing" textLength="22" x="345.1294" y="1453.9885">0..X</text></g><!--link DetalleVenta to Receta--><g id="link_DetalleVenta_Receta"><path codeLine="160" d="M395.04,1464.81 C395.77,1445.22 395.63,1424 394.63,1405.03 " fill="none" id="DetalleVenta-Receta" style="stroke:#181818;stroke-width:1.0;"/><text fill="#000000" font-family="sans-serif" font-size="13" lengthAdjust="spacing" textLength="22" x="373.2631" y="1453.9885">0..1</text><text fill="#000000" font-family="sans-serif" font-size="13" lengthAdjust="spacing" textLength="7" x="388.7998" y="1427.1078">1</text></g><!--link ObraSocial to Receta--><g id="link_ObraSocial_Receta"><path codeLine="163" d="M305.49,1227.05 C318.17,1246.59 331.91,1267.78 344.21,1286.74 " fill="none" id="ObraSocial-Receta" style="stroke:#181818;stroke-width:1.0;"/><text fill="#000000" font-family="sans-serif" font-size="13" lengthAdjust="spacing" textLength="22" x="286.8405" y="1248.4035">0..1</text><text fill="#000000" font-family="sans-serif" font-size="13" lengthAdjust="spacing" textLength="22" x="316.2637" y="1276.0326">0..X</text></g><!--link Cliente to ObraSocial--><g id="link_Cliente_ObraSocial"><path codeLine="166" d="M262,1031.26 C262,1052.04 262,1072.51 262,1090.74 " fill="none" id="Cliente-ObraSocial" style="stroke:#181818;stroke-width:1.0;"/><text fill="#000000" font-family="sans-serif" font-size="13" lengthAdjust="spacing" textLength="22" x="239.5016" y="1051.8316">0..1</text><text fill="#000000" font-family="sans-serif" font-size="13" lengthAdjust="spacing" textLength="22" x="238.7969" y="1079.9108">0..X</text></g><!--reverse link Venta to Ticket--><g id="link_Venta_Ticket"><path codeLine="169" d="M624.469,669.1747 C649.089,716.2747 673.01,762.02 696.22,806.42 " fill="none" id="Venta-backto-Ticket" style="stroke:#181818;stroke-width:1.0;"/><polygon fill="#181818" points="618.91,658.54,618.1446,665.7104,624.469,669.1747,625.2344,662.0044,618.91,658.54" style="stroke:#181818;stroke-width:1.0;"/><text fill="#000000" font-family="sans-serif" font-size="13" lengthAdjust="spacing" textLength="7" x="615.3867" y="679.9041">1</text><text fill="#000000" font-family="sans-serif" font-size="13" lengthAdjust="spacing" textLength="22" x="669.2213" y="795.5743">0..1</text></g><!--SRC=[dLTTRXmt37xVKmX-yJXT1_MhKHX8R0SDaA96l0dwgjLmrq8qeuMaCVg37APdw15oiPBwbxnEsWG8F998YlpuYUIUilCZ_rQdx7PU9Z1SI3s3PSDEcucpQL5EAZa3PnRsY-5dA7dK0A0wsyY3_c0NRgHcVwqOUpLESfRM6JvgW-lRwQ00lrUVY_n7c1ttqdVSE2aMnKdqrwtXzrf8hchXExuFbczt89nyrFXv0rlfwEFQm1Y-DeRFTWS6PZI0wzTIAN0OtKTft59Ctbg7thoowA8N3MuOiEWJaFzB-jfmCzBVTr84evzNpo5noguLjuGXTqPk5wSjCt08LZavRPz5KQ2cPJM4vspMqzP0shjazsXrtliZeMV45ktoTjyXLBXJfSDlJoYkDzfnXQ2FSYIP6n1oGaGO-u5XhZ0qSmyMIJ0qzwwhkyvGRQjrq15WJ5QXaqSjHq8dX98o7cEHOzwunEjS5M0R0J-0Ki73QjSke3gllnsLWRsde2bv7WYliinkD-AUcCCZdlclfx5TAqdioA6bzVT4DiwotG3xne1Oei7N23VmEPnCNAektw1Wf-SUBOvWNPC9VgsDISxLs711pq7-oSqDHvx628OSopg6iCvkhydLTN1YdIzk4EHxn92RQ2A7CQ1Y8xTThCXYGuSLIRx3HFmKpw-oQVpVwlmlvq19h4dbsXng8wNmvYnJCc67Ql7KmqADKhqoEwgjhnD4BD9rv91u9nNcRsKzt_yU1CIgIdV7PRaNg-S3fq8dZ3n4oyW020-AwXRLuL-mdegEL8lb8wyOcQ-yCtfSX2ilFMzyFLmiZ4BsRzewBJvbHQmot22ZaiMSzw2x3k8j1pEnirBngB3wUGE99qVKZv2uy-mfYvF0LG7i1bE2RQdqFm8jRbQO2JuxEVAnsWfUVvYbYosXWMxPEYg6tKiNNFdMUX-FVQrE0jcdrfcmAlTMRSKV5Ihzh0sF5Dh82Rgwt7deKYE_p3qz4X-5RPFruFFcYSDLcOc83QC_Bf0-hTSRAJw1oz75PS_EDnm77ve5lky9Df2ydQZjb-SLiS5EYmV8BtEaOtRJ27bQRNLFk7wsu8SPtEcd6d_wWExSKWVthpSdYRRlyQ7KkyTRvl4c6NJRmvrKT7IdpHloSQWzpG-YMBxgbDA4C43yU1kv_rzqVUZ3ir0SDV6rKUuzg3GI_n6cuOF28GdV8mruLYlTxpuxs-5-6k8cUjCm0-AOfbIS5ZsVXVpoptp6U9cLazB9nGdJv-VivCUNB_4pdzFideQgb1V6Stpefj3JGLiPJA-oC1by4Gt-Vb8HhpFfwoXxf4TbM-se_Dj9A1oa5se63Oi-mAR8DOwmtGB6mIMx2APPKC1gCS6C8_C56uFksIfePtSl_8srPRgukQd2bPVED71B3JZYq2Y4QAwySRAUT4f8XmL6TCzRC1QOzdsJgycFLPmjSne8ax-8p8kC4TfFn_uNGfZ6GioXFNU9kiGWmlQ8eaRZ7yKUC4NQq0n1An4dbrKoLsSKWmXsLvx6VW08COXbQwIXoLqpegzuq5qtQe6Aoct26_XRA4EqFbEr3zK05FmmyMrvE94noSl1IloroNRKmudAJACcynwfirLbfhgf3pWX4cwYUc1Yxf2wb2nEeN_vEungbWMBO0kKlUtg1sdcn1wpXwwrL40YnDRIybt9FT0Fw8xDuPwWiLhz2m00]--></g></svg>