<svg xmlns="http://www.w3.org/2000/svg" xmlns:xlink="http://www.w3.org/1999/xlink" contentStyleType="text/css" data-diagram-type="SEQUENCE" height="808px" preserveAspectRatio="none" style="width:1129px;height:808px;background:#FFFFFF;" version="1.1" viewBox="0 0 1129 808" width="1129px" zoomAndPan="magnify"><title>DSD - Carga de Proveedores</title><defs/><g><text fill="#000000" font-family="sans-serif" font-size="14" font-weight="bold" lengthAdjust="spacing" textLength="223.5146" x="448.8916" y="27.9951">DSD - Carga de Proveedores</text><g><title>Proveedor</title><rect fill="#FFFFFF" height="29.1328" style="stroke:#181818;stroke-width:1;" width="10" x="976.1665" y="503.7969"/></g><g><title>Sistema</title><rect fill="#FFFFFF" height="29.1328" style="stroke:#181818;stroke-width:1;" width="10" x="1056.103" y="251.125"/></g><g><title>Sistema</title><rect fill="#FFFFFF" height="29.1328" style="stroke:#181818;stroke-width:1;" width="10" x="1056.103" y="377.4609"/></g><g><title>Sistema</title><rect fill="#FFFFFF" height="29.1328" style="stroke:#181818;stroke-width:1;" width="10" x="1056.103" y="562.0625"/></g><rect fill="none" height="415.1406" style="stroke:#000000;stroke-width:1.5;" width="1102.2979" x="10" y="295.2578"/><rect fill="none" height="281.8047" style="stroke:#000000;stroke-width:1.5;" width="1082.2979" x="20" y="421.5938"/><rect fill="none" height="90.2031" style="stroke:#000000;stroke-width:1.5;" width="647.7476" x="30" y="606.1953"/><g><title>Administrador</title><rect fill="#000000" fill-opacity="0.00000" height="608.8047" width="8" x="88.54" y="118.5938"/><line style="stroke:#181818;stroke-width:0.5;stroke-dasharray:5,5;" x1="92" x2="92" y1="118.5938" y2="727.3984"/></g><g><title>ControladorNegocio</title><rect fill="#000000" fill-opacity="0.00000" height="608.8047" width="8" x="591.0518" y="118.5938"/><line style="stroke:#181818;stroke-width:0.5;stroke-dasharray:5,5;" x1="594.356" x2="594.356" y1="118.5938" y2="727.3984"/></g><g><title>Proveedor</title><rect fill="#000000" fill-opacity="0.00000" height="608.8047" width="8" x="977.1665" y="118.5938"/><line style="stroke:#181818;stroke-width:0.5;stroke-dasharray:5,5;" x1="980.4248" x2="980.4248" y1="118.5938" y2="727.3984"/></g><g><title>Sistema</title><rect fill="#000000" fill-opacity="0.00000" height="608.8047" width="8" x="1057.103" y="118.5938"/><line style="stroke:#181818;stroke-width:0.5;stroke-dasharray:5,5;" x1="1060.9082" x2="1060.9082" y1="118.5938" y2="727.3984"/></g><g class="participant participant-head" data-participant="Administrador"><text fill="#000000" font-family="sans-serif" font-size="14" lengthAdjust="spacing" textLength="99.0801" x="40" y="115.292">Administrador</text><ellipse cx="92.54" cy="50.7969" fill="#E2E2F0" rx="8" ry="8" style="stroke:#181818;stroke-width:0.5;"/><path d="M92.54,58.7969 L92.54,85.7969 M79.54,66.7969 L105.54,66.7969 M92.54,85.7969 L79.54,100.7969 M92.54,85.7969 L105.54,100.7969" fill="none" style="stroke:#181818;stroke-width:0.5;"/></g><g class="participant participant-tail" data-participant="Administrador"><text fill="#000000" font-family="sans-serif" font-size="14" lengthAdjust="spacing" textLength="99.0801" x="40" y="739.3936">Administrador</text><ellipse cx="92.54" cy="751.1953" fill="#E2E2F0" rx="8" ry="8" style="stroke:#181818;stroke-width:0.5;"/><path d="M92.54,759.1953 L92.54,786.1953 M79.54,767.1953 L105.54,767.1953 M92.54,786.1953 L79.54,801.1953 M92.54,786.1953 L105.54,801.1953" fill="none" style="stroke:#181818;stroke-width:0.5;"/></g><g class="participant participant-head" data-participant="ControladorNegocio"><text fill="#000000" font-family="sans-serif" font-size="14" lengthAdjust="spacing" textLength="139.3916" x="522.356" y="115.292">ControladorNegocio</text><ellipse cx="595.0518" cy="86.2969" fill="#E2E2F0" rx="12" ry="12" style="stroke:#181818;stroke-width:0.5;"/><polygon fill="#181818" points="591.0518,74.2969,597.0518,69.2969,595.0518,74.2969,597.0518,79.2969,591.0518,74.2969" style="stroke:#181818;stroke-width:1;"/></g><g class="participant participant-tail" data-participant="ControladorNegocio"><text fill="#000000" font-family="sans-serif" font-size="14" lengthAdjust="spacing" textLength="139.3916" x="522.356" y="739.3936">ControladorNegocio</text><ellipse cx="595.0518" cy="758.6953" fill="#E2E2F0" rx="12" ry="12" style="stroke:#181818;stroke-width:0.5;"/><polygon fill="#181818" points="591.0518,746.6953,597.0518,741.6953,595.0518,746.6953,597.0518,751.6953,591.0518,746.6953" style="stroke:#181818;stroke-width:1;"/></g><g class="participant participant-head" data-participant="Proveedor"><text fill="#000000" font-family="sans-serif" font-size="14" lengthAdjust="spacing" textLength="71.4834" x="942.4248" y="115.292">Proveedor</text><ellipse cx="981.1665" cy="86.2969" fill="#E2E2F0" rx="12" ry="12" style="stroke:#181818;stroke-width:0.5;"/><line style="stroke:#181818;stroke-width:0.5;" x1="969.1665" x2="993.1665" y1="100.2969" y2="100.2969"/></g><g class="participant participant-tail" data-participant="Proveedor"><text fill="#000000" font-family="sans-serif" font-size="14" lengthAdjust="spacing" textLength="71.4834" x="942.4248" y="739.3936">Proveedor</text><ellipse cx="981.1665" cy="758.6953" fill="#E2E2F0" rx="12" ry="12" style="stroke:#181818;stroke-width:0.5;"/><line style="stroke:#181818;stroke-width:0.5;" x1="969.1665" x2="993.1665" y1="772.6953" y2="772.6953"/></g><g class="participant participant-head" data-participant="Sistema"><text fill="#000000" font-family="sans-serif" font-size="14" lengthAdjust="spacing" textLength="56.3896" x="1029.9082" y="115.292">Sistema</text><ellipse cx="1061.103" cy="86.2969" fill="#E2E2F0" rx="12" ry="12" style="stroke:#181818;stroke-width:0.5;"/><line style="stroke:#181818;stroke-width:0.5;" x1="1049.103" x2="1073.103" y1="100.2969" y2="100.2969"/></g><g class="participant participant-tail" data-participant="Sistema"><text fill="#000000" font-family="sans-serif" font-size="14" lengthAdjust="spacing" textLength="56.3896" x="1029.9082" y="739.3936">Sistema</text><ellipse cx="1061.103" cy="758.6953" fill="#E2E2F0" rx="12" ry="12" style="stroke:#181818;stroke-width:0.5;"/><line style="stroke:#181818;stroke-width:0.5;" x1="1049.103" x2="1073.103" y1="772.6953" y2="772.6953"/></g><g><title>Proveedor</title><rect fill="#FFFFFF" height="29.1328" style="stroke:#181818;stroke-width:1;" width="10" x="976.1665" y="503.7969"/></g><g><title>Sistema</title><rect fill="#FFFFFF" height="29.1328" style="stroke:#181818;stroke-width:1;" width="10" x="1056.103" y="251.125"/></g><g><title>Sistema</title><rect fill="#FFFFFF" height="29.1328" style="stroke:#181818;stroke-width:1;" width="10" x="1056.103" y="377.4609"/></g><g><title>Sistema</title><rect fill="#FFFFFF" height="29.1328" style="stroke:#181818;stroke-width:1;" width="10" x="1056.103" y="562.0625"/></g><rect fill="#EEEEEE" height="3" style="stroke:#EEEEEE;stroke-width:1;" width="1122.2979" x="0" y="149.1602"/><line style="stroke:#000000;stroke-width:1;" x1="0" x2="1122.2979" y1="149.1602" y2="149.1602"/><line style="stroke:#000000;stroke-width:1;" x1="0" x2="1122.2979" y1="152.1602" y2="152.1602"/><rect fill="#EEEEEE" height="23.1328" style="stroke:#000000;stroke-width:2;" width="58.167" x="532.0654" y="138.5938"/><text fill="#000000" font-family="sans-serif" font-size="13" font-weight="bold" lengthAdjust="spacing" textLength="39.6411" x="538.0654" y="154.6606">Inicio</text><g class="message" data-participant-1="Administrador" data-participant-2="ControladorNegocio"><polygon fill="#181818" points="583.0518,188.8594,593.0518,192.8594,583.0518,196.8594,587.0518,192.8594" style="stroke:#181818;stroke-width:1;"/><line style="stroke:#181818;stroke-width:1;" x1="92.54" x2="589.0518" y1="192.8594" y2="192.8594"/><text fill="#000000" font-family="sans-serif" font-size="13" lengthAdjust="spacing" textLength="190.3726" x="99.54" y="187.7935">accederModuloProveedores()</text></g><g class="message" data-participant-1="Administrador" data-participant-2="ControladorNegocio"><polygon fill="#181818" points="583.0518,217.9922,593.0518,221.9922,583.0518,225.9922,587.0518,221.9922" style="stroke:#181818;stroke-width:1;"/><line style="stroke:#181818;stroke-width:1;" x1="92.54" x2="589.0518" y1="221.9922" y2="221.9922"/><text fill="#000000" font-family="sans-serif" font-size="13" lengthAdjust="spacing" textLength="419.6436" x="99.54" y="216.9263">ingresarDatosProveedor(nombre, email, telefono, formatoEnvio)</text></g><g class="message" data-participant-1="ControladorNegocio" data-participant-2="Sistema"><polygon fill="#181818" points="1044.103,247.125,1054.103,251.125,1044.103,255.125,1048.103,251.125" style="stroke:#181818;stroke-width:1;"/><line style="stroke:#181818;stroke-width:1;" x1="595.0518" x2="1050.103" y1="251.125" y2="251.125"/><text fill="#000000" font-family="sans-serif" font-size="13" lengthAdjust="spacing" textLength="344.1826" x="602.0518" y="246.0591">validarDatos(nombre, email, telefono, formatoEnvio)</text></g><g class="message" data-participant-1="Sistema" data-participant-2="ControladorNegocio"><polygon fill="#181818" points="606.0518,276.2578,596.0518,280.2578,606.0518,284.2578,602.0518,280.2578" style="stroke:#181818;stroke-width:1;"/><line style="stroke:#181818;stroke-width:1;stroke-dasharray:2,2;" x1="600.0518" x2="1060.103" y1="280.2578" y2="280.2578"/><text fill="#000000" font-family="sans-serif" font-size="13" lengthAdjust="spacing" textLength="36.042" x="612.0518" y="275.1919">datos</text></g><path d="M10,295.2578 L74.4429,295.2578 L74.4429,302.3906 L64.4429,312.3906 L10,312.3906 L10,295.2578" fill="#EEEEEE" style="stroke:#000000;stroke-width:1.5;"/><rect fill="none" height="415.1406" style="stroke:#000000;stroke-width:1.5;" width="1102.2979" x="10" y="295.2578"/><text fill="#000000" font-family="sans-serif" font-size="13" font-weight="bold" lengthAdjust="spacing" textLength="19.4429" x="25" y="308.3247">alt</text><text fill="#000000" font-family="sans-serif" font-size="11" font-weight="bold" lengthAdjust="spacing" textLength="223.2388" x="89.4429" y="307.4683">[Datos faltantes o formato inv&#225;lido]</text><g class="message" data-participant-1="ControladorNegocio" data-participant-2="Administrador"><polygon fill="#181818" points="103.54,329.5234,93.54,333.5234,103.54,337.5234,99.54,333.5234" style="stroke:#181818;stroke-width:1;"/><line style="stroke:#181818;stroke-width:1;" x1="97.54" x2="594.0518" y1="333.5234" y2="333.5234"/><text fill="#000000" font-family="sans-serif" font-size="13" lengthAdjust="spacing" textLength="242.3218" x="109.54" y="328.4575">mensaje("Datos inv&#225;lidos. Corregir.")</text></g><line style="stroke:#000000;stroke-width:1;stroke-dasharray:2,2;" x1="10" x2="1112.2979" y1="342.5234" y2="342.5234"/><text fill="#000000" font-family="sans-serif" font-size="11" font-weight="bold" lengthAdjust="spacing" textLength="108.0718" x="15" y="352.7339">[Datos correctos]</text><g class="message" data-participant-1="ControladorNegocio" data-participant-2="Sistema"><polygon fill="#181818" points="1044.103,373.4609,1054.103,377.4609,1044.103,381.4609,1048.103,377.4609" style="stroke:#181818;stroke-width:1;"/><line style="stroke:#181818;stroke-width:1;" x1="595.0518" x2="1050.103" y1="377.4609" y2="377.4609"/><text fill="#000000" font-family="sans-serif" font-size="13" lengthAdjust="spacing" textLength="226.0273" x="602.0518" y="372.395">verificarDuplicado(email, telefono)</text></g><g class="message" data-participant-1="Sistema" data-participant-2="ControladorNegocio"><polygon fill="#181818" points="606.0518,402.5938,596.0518,406.5938,606.0518,410.5938,602.0518,406.5938" style="stroke:#181818;stroke-width:1;"/><line style="stroke:#181818;stroke-width:1;stroke-dasharray:2,2;" x1="600.0518" x2="1060.103" y1="406.5938" y2="406.5938"/><text fill="#000000" font-family="sans-serif" font-size="13" lengthAdjust="spacing" textLength="39.1714" x="612.0518" y="401.5278">existe</text></g><path d="M20,421.5938 L84.4429,421.5938 L84.4429,428.7266 L74.4429,438.7266 L20,438.7266 L20,421.5938" fill="#EEEEEE" style="stroke:#000000;stroke-width:1.5;"/><rect fill="none" height="281.8047" style="stroke:#000000;stroke-width:1.5;" width="1082.2979" x="20" y="421.5938"/><text fill="#000000" font-family="sans-serif" font-size="13" font-weight="bold" lengthAdjust="spacing" textLength="19.4429" x="35" y="434.6606">alt</text><text fill="#000000" font-family="sans-serif" font-size="11" font-weight="bold" lengthAdjust="spacing" textLength="160.9126" x="99.4429" y="433.8042">[Proveedor ya registrado]</text><g class="message" data-participant-1="ControladorNegocio" data-participant-2="Administrador"><polygon fill="#181818" points="103.54,455.8594,93.54,459.8594,103.54,463.8594,99.54,459.8594" style="stroke:#181818;stroke-width:1;"/><line style="stroke:#181818;stroke-width:1;" x1="97.54" x2="594.0518" y1="459.8594" y2="459.8594"/><text fill="#000000" font-family="sans-serif" font-size="13" lengthAdjust="spacing" textLength="234.2476" x="109.54" y="454.7935">mensaje("Proveedor ya registrado")</text></g><line style="stroke:#000000;stroke-width:1;stroke-dasharray:2,2;" x1="20" x2="1102.2979" y1="468.8594" y2="468.8594"/><text fill="#000000" font-family="sans-serif" font-size="11" font-weight="bold" lengthAdjust="spacing" textLength="115.7256" x="25" y="479.0698">[Proveedor nuevo]</text><g class="message" data-participant-1="ControladorNegocio" data-participant-2="Proveedor"><polygon fill="#181818" points="964.1665,499.7969,974.1665,503.7969,964.1665,507.7969,968.1665,503.7969" style="stroke:#181818;stroke-width:1;"/><line style="stroke:#181818;stroke-width:1;" x1="595.0518" x2="970.1665" y1="503.7969" y2="503.7969"/><text fill="#000000" font-family="sans-serif" font-size="13" lengthAdjust="spacing" textLength="362.1147" x="602.0518" y="498.731">crearProveedor(nombre, email, telefono, formatoEnvio)</text></g><g class="message" data-participant-1="Proveedor" data-participant-2="ControladorNegocio"><polygon fill="#181818" points="606.0518,528.9297,596.0518,532.9297,606.0518,536.9297,602.0518,532.9297" style="stroke:#181818;stroke-width:1;"/><line style="stroke:#181818;stroke-width:1;stroke-dasharray:2,2;" x1="600.0518" x2="980.1665" y1="532.9297" y2="532.9297"/><text fill="#000000" font-family="sans-serif" font-size="13" lengthAdjust="spacing" textLength="66.79" x="612.0518" y="527.8638">proveedor</text></g><g class="message" data-participant-1="ControladorNegocio" data-participant-2="Sistema"><polygon fill="#181818" points="1044.103,558.0625,1054.103,562.0625,1044.103,566.0625,1048.103,562.0625" style="stroke:#181818;stroke-width:1;"/><line style="stroke:#181818;stroke-width:1;" x1="595.0518" x2="1050.103" y1="562.0625" y2="562.0625"/><text fill="#000000" font-family="sans-serif" font-size="13" lengthAdjust="spacing" textLength="194.6763" x="602.0518" y="556.9966">guardarProveedor(proveedor)</text></g><g class="message" data-participant-1="Sistema" data-participant-2="ControladorNegocio"><polygon fill="#181818" points="606.0518,587.1953,596.0518,591.1953,606.0518,595.1953,602.0518,591.1953" style="stroke:#181818;stroke-width:1;"/><line style="stroke:#181818;stroke-width:1;stroke-dasharray:2,2;" x1="600.0518" x2="1060.103" y1="591.1953" y2="591.1953"/><text fill="#000000" font-family="sans-serif" font-size="13" lengthAdjust="spacing" textLength="61.2358" x="612.0518" y="586.1294">resultado</text></g><path d="M30,606.1953 L94.4429,606.1953 L94.4429,613.3281 L84.4429,623.3281 L30,623.3281 L30,606.1953" fill="#EEEEEE" style="stroke:#000000;stroke-width:1.5;"/><rect fill="none" height="90.2031" style="stroke:#000000;stroke-width:1.5;" width="647.7476" x="30" y="606.1953"/><text fill="#000000" font-family="sans-serif" font-size="13" font-weight="bold" lengthAdjust="spacing" textLength="19.4429" x="45" y="619.2622">alt</text><text fill="#000000" font-family="sans-serif" font-size="11" font-weight="bold" lengthAdjust="spacing" textLength="120.0171" x="109.4429" y="618.4058">[Error de conexi&#243;n]</text><g class="message" data-participant-1="ControladorNegocio" data-participant-2="Administrador"><polygon fill="#181818" points="103.54,640.4609,93.54,644.4609,103.54,648.4609,99.54,644.4609" style="stroke:#181818;stroke-width:1;"/><line style="stroke:#181818;stroke-width:1;" x1="97.54" x2="594.0518" y1="644.4609" y2="644.4609"/><text fill="#000000" font-family="sans-serif" font-size="13" lengthAdjust="spacing" textLength="478.5117" x="109.54" y="639.395">mensaje("Error al agregar al proveedor. Intente nuevamente m&#225;s tarde")</text></g><line style="stroke:#000000;stroke-width:1;stroke-dasharray:2,2;" x1="30" x2="677.7476" y1="653.4609" y2="653.4609"/><text fill="#000000" font-family="sans-serif" font-size="11" font-weight="bold" lengthAdjust="spacing" textLength="111.4932" x="35" y="663.6714">[Registro exitoso]</text><g class="message" data-participant-1="ControladorNegocio" data-participant-2="Administrador"><polygon fill="#181818" points="103.54,684.3984,93.54,688.3984,103.54,692.3984,99.54,688.3984" style="stroke:#181818;stroke-width:1;"/><line style="stroke:#181818;stroke-width:1;" x1="97.54" x2="594.0518" y1="688.3984" y2="688.3984"/><text fill="#000000" font-family="sans-serif" font-size="13" lengthAdjust="spacing" textLength="314.5835" x="109.54" y="683.3325">mensaje("Proveedor registrado correctamente")</text></g><!--SRC=[fPHVYjim4CRVTOeXByr2aWC4KZ2sAO5q4vpklglMnAZOqY8hfdkEdc3Fq2FaOXt9iUpTn6n20qP2VxwP-UNJM6bBX6IVm1nYRWeE0c5dT8CejC6QCPvRRI0IbLIojeRJCikriaQN4BUZMtl4GkTICrHMsjTUeblOqsMiE6Eh5QoLfAEmMZ7sJXVcNwz8Be7dEGeqtxKubdgGtFJXHW6f2ZhEJSAjheF0LEdgfy4PK5wod8754WzQwHaSjAdeQAeQgId65qgLqdwEDkiaYjUdFu-Gf914FxPxlyCkOxfCpYKleU6b5EVejmObxBBX5WEuymZpaHg5KsS2BouoNbhmiU50Kwuirg2xSCIcERrHVfe1_QvNyWxo4YfKDV-5qqch6XJg1Tqt1Wjf5XFYXcMDvyYvMyzTXZxCTQAxRFkSfiasW-Hfjrd7KR9j-OvdrZD68myo9yh7bv96eQSV23zucGiyRl4pjlZR7V17hm7skWGvE0jUEJWCBJ6_Vp_S4JK7rebvkFqPTSH6in3g33ZEqe1tC-0Rg8wd5QINa1lavkvdqya7NdrFwBRwzCV8lrpS6Vm1lU37khyzHLdYx7DtsS5GnP4RCImxf7AbjA6PRZ4KTQCZFSM1DyPyrNahDOOmKNEctajsFFrLOVj-QxLYl0HEVR7WVXhAMr1_jjIrqNkALtvQdTvgi4G49ttvte9Pwqpj7WczR_qVQVLswEtUTOusZs5m9LWtqlSF]--></g></svg>