<svg xmlns="http://www.w3.org/2000/svg" xmlns:xlink="http://www.w3.org/1999/xlink" contentStyleType="text/css" data-diagram-type="SEQUENCE" height="762px" preserveAspectRatio="none" style="width:909px;height:762px;background:#FFFFFF;" version="1.1" viewBox="0 0 909 762" width="909px" zoomAndPan="magnify"><title>DSD - Eliminaci&#243;n de Proveedor</title><defs/><g><text fill="#000000" font-family="sans-serif" font-size="14" font-weight="bold" lengthAdjust="spacing" textLength="250.2363" x="325.7073" y="27.9951">DSD - Eliminaci&#243;n de Proveedor</text><g><title>Proveedor</title><rect fill="#FFFFFF" height="29.1328" style="stroke:#181818;stroke-width:1;" width="10" x="781.5195" y="221.9922"/></g><g><title>Proveedor</title><rect fill="#FFFFFF" height="29.1328" style="stroke:#181818;stroke-width:1;" width="10" x="781.5195" y="523.125"/></g><g><title>Sistema</title><rect fill="#FFFFFF" height="29.1328" style="stroke:#181818;stroke-width:1;" width="10" x="861.4561" y="396.7891"/></g><rect fill="none" height="223.5391" style="stroke:#000000;stroke-width:1.5;" width="825.2612" x="10" y="440.9219"/><rect fill="none" height="90.2031" style="stroke:#000000;stroke-width:1.5;" width="578.8184" x="20" y="567.2578"/><g><title>Administrador</title><rect fill="#000000" fill-opacity="0.00000" height="562.8672" width="8" x="78.54" y="118.5938"/><line style="stroke:#181818;stroke-width:0.5;stroke-dasharray:5,5;" x1="82" x2="82" y1="118.5938" y2="681.4609"/></g><g><title>ControladorNegocio</title><rect fill="#000000" fill-opacity="0.00000" height="562.8672" width="8" x="512.1226" y="118.5938"/><line style="stroke:#181818;stroke-width:0.5;stroke-dasharray:5,5;" x1="515.4268" x2="515.4268" y1="118.5938" y2="681.4609"/></g><g><title>Proveedor</title><rect fill="#000000" fill-opacity="0.00000" height="562.8672" width="8" x="782.5195" y="118.5938"/><line style="stroke:#181818;stroke-width:0.5;stroke-dasharray:5,5;" x1="785.7778" x2="785.7778" y1="118.5938" y2="681.4609"/></g><g><title>Sistema</title><rect fill="#000000" fill-opacity="0.00000" height="562.8672" width="8" x="862.4561" y="118.5938"/><line style="stroke:#181818;stroke-width:0.5;stroke-dasharray:5,5;" x1="866.2612" x2="866.2612" y1="118.5938" y2="681.4609"/></g><g class="participant participant-head" data-participant="Administrador"><text fill="#000000" font-family="sans-serif" font-size="14" lengthAdjust="spacing" textLength="99.0801" x="30" y="115.292">Administrador</text><ellipse cx="82.54" cy="50.7969" fill="#E2E2F0" rx="8" ry="8" style="stroke:#181818;stroke-width:0.5;"/><path d="M82.54,58.7969 L82.54,85.7969 M69.54,66.7969 L95.54,66.7969 M82.54,85.7969 L69.54,100.7969 M82.54,85.7969 L95.54,100.7969" fill="none" style="stroke:#181818;stroke-width:0.5;"/></g><g class="participant participant-tail" data-participant="Administrador"><text fill="#000000" font-family="sans-serif" font-size="14" lengthAdjust="spacing" textLength="99.0801" x="30" y="693.4561">Administrador</text><ellipse cx="82.54" cy="705.2578" fill="#E2E2F0" rx="8" ry="8" style="stroke:#181818;stroke-width:0.5;"/><path d="M82.54,713.2578 L82.54,740.2578 M69.54,721.2578 L95.54,721.2578 M82.54,740.2578 L69.54,755.2578 M82.54,740.2578 L95.54,755.2578" fill="none" style="stroke:#181818;stroke-width:0.5;"/></g><g class="participant participant-head" data-participant="ControladorNegocio"><text fill="#000000" font-family="sans-serif" font-size="14" lengthAdjust="spacing" textLength="139.3916" x="443.4268" y="115.292">ControladorNegocio</text><ellipse cx="516.1226" cy="86.2969" fill="#E2E2F0" rx="12" ry="12" style="stroke:#181818;stroke-width:0.5;"/><polygon fill="#181818" points="512.1226,74.2969,518.1226,69.2969,516.1226,74.2969,518.1226,79.2969,512.1226,74.2969" style="stroke:#181818;stroke-width:1;"/></g><g class="participant participant-tail" data-participant="ControladorNegocio"><text fill="#000000" font-family="sans-serif" font-size="14" lengthAdjust="spacing" textLength="139.3916" x="443.4268" y="693.4561">ControladorNegocio</text><ellipse cx="516.1226" cy="712.7578" fill="#E2E2F0" rx="12" ry="12" style="stroke:#181818;stroke-width:0.5;"/><polygon fill="#181818" points="512.1226,700.7578,518.1226,695.7578,516.1226,700.7578,518.1226,705.7578,512.1226,700.7578" style="stroke:#181818;stroke-width:1;"/></g><g class="participant participant-head" data-participant="Proveedor"><text fill="#000000" font-family="sans-serif" font-size="14" lengthAdjust="spacing" textLength="71.4834" x="747.7778" y="115.292">Proveedor</text><ellipse cx="786.5195" cy="86.2969" fill="#E2E2F0" rx="12" ry="12" style="stroke:#181818;stroke-width:0.5;"/><line style="stroke:#181818;stroke-width:0.5;" x1="774.5195" x2="798.5195" y1="100.2969" y2="100.2969"/></g><g class="participant participant-tail" data-participant="Proveedor"><text fill="#000000" font-family="sans-serif" font-size="14" lengthAdjust="spacing" textLength="71.4834" x="747.7778" y="693.4561">Proveedor</text><ellipse cx="786.5195" cy="712.7578" fill="#E2E2F0" rx="12" ry="12" style="stroke:#181818;stroke-width:0.5;"/><line style="stroke:#181818;stroke-width:0.5;" x1="774.5195" x2="798.5195" y1="726.7578" y2="726.7578"/></g><g class="participant participant-head" data-participant="Sistema"><text fill="#000000" font-family="sans-serif" font-size="14" lengthAdjust="spacing" textLength="56.3896" x="835.2612" y="115.292">Sistema</text><ellipse cx="866.4561" cy="86.2969" fill="#E2E2F0" rx="12" ry="12" style="stroke:#181818;stroke-width:0.5;"/><line style="stroke:#181818;stroke-width:0.5;" x1="854.4561" x2="878.4561" y1="100.2969" y2="100.2969"/></g><g class="participant participant-tail" data-participant="Sistema"><text fill="#000000" font-family="sans-serif" font-size="14" lengthAdjust="spacing" textLength="56.3896" x="835.2612" y="693.4561">Sistema</text><ellipse cx="866.4561" cy="712.7578" fill="#E2E2F0" rx="12" ry="12" style="stroke:#181818;stroke-width:0.5;"/><line style="stroke:#181818;stroke-width:0.5;" x1="854.4561" x2="878.4561" y1="726.7578" y2="726.7578"/></g><g><title>Proveedor</title><rect fill="#FFFFFF" height="29.1328" style="stroke:#181818;stroke-width:1;" width="10" x="781.5195" y="221.9922"/></g><g><title>Proveedor</title><rect fill="#FFFFFF" height="29.1328" style="stroke:#181818;stroke-width:1;" width="10" x="781.5195" y="523.125"/></g><g><title>Sistema</title><rect fill="#FFFFFF" height="29.1328" style="stroke:#181818;stroke-width:1;" width="10" x="861.4561" y="396.7891"/></g><rect fill="#EEEEEE" height="3" style="stroke:#EEEEEE;stroke-width:1;" width="902.6509" x="0" y="149.1602"/><line style="stroke:#000000;stroke-width:1;" x1="0" x2="902.6509" y1="149.1602" y2="149.1602"/><line style="stroke:#000000;stroke-width:1;" x1="0" x2="902.6509" y1="152.1602" y2="152.1602"/><rect fill="#EEEEEE" height="23.1328" style="stroke:#000000;stroke-width:2;" width="58.167" x="422.2419" y="138.5938"/><text fill="#000000" font-family="sans-serif" font-size="13" font-weight="bold" lengthAdjust="spacing" textLength="39.6411" x="428.2419" y="154.6606">Inicio</text><g class="message" data-participant-1="Administrador" data-participant-2="ControladorNegocio"><polygon fill="#181818" points="504.1226,188.8594,514.1226,192.8594,504.1226,196.8594,508.1226,192.8594" style="stroke:#181818;stroke-width:1;"/><line style="stroke:#181818;stroke-width:1;" x1="82.54" x2="510.1226" y1="192.8594" y2="192.8594"/><text fill="#000000" font-family="sans-serif" font-size="13" lengthAdjust="spacing" textLength="190.3726" x="89.54" y="187.7935">accederModuloProveedores()</text></g><g class="message" data-participant-1="ControladorNegocio" data-participant-2="Proveedor"><polygon fill="#181818" points="769.5195,217.9922,779.5195,221.9922,769.5195,225.9922,773.5195,221.9922" style="stroke:#181818;stroke-width:1;"/><line style="stroke:#181818;stroke-width:1;" x1="516.1226" x2="775.5195" y1="221.9922" y2="221.9922"/><text fill="#000000" font-family="sans-serif" font-size="13" lengthAdjust="spacing" textLength="172.3706" x="523.1226" y="216.9263">obtenerProveedores(filtro)</text></g><g class="message" data-participant-1="Proveedor" data-participant-2="ControladorNegocio"><polygon fill="#181818" points="527.1226,247.125,517.1226,251.125,527.1226,255.125,523.1226,251.125" style="stroke:#181818;stroke-width:1;"/><line style="stroke:#181818;stroke-width:1;stroke-dasharray:2,2;" x1="521.1226" x2="785.5195" y1="251.125" y2="251.125"/><text fill="#000000" font-family="sans-serif" font-size="13" lengthAdjust="spacing" textLength="108.2085" x="533.1226" y="246.0591">listaProveedores</text></g><g class="message" data-participant-1="ControladorNegocio" data-participant-2="Sistema"><polygon fill="#181818" points="854.4561,276.2578,864.4561,280.2578,854.4561,284.2578,858.4561,280.2578" style="stroke:#181818;stroke-width:1;"/><line style="stroke:#181818;stroke-width:1;" x1="516.1226" x2="860.4561" y1="280.2578" y2="280.2578"/><text fill="#000000" font-family="sans-serif" font-size="13" lengthAdjust="spacing" textLength="200.186" x="523.1226" y="275.1919">mostrarLista(listaProveedores)</text></g><g class="message" data-participant-1="Sistema" data-participant-2="Administrador"><polygon fill="#181818" points="93.54,305.3906,83.54,309.3906,93.54,313.3906,89.54,309.3906" style="stroke:#181818;stroke-width:1;"/><line style="stroke:#181818;stroke-width:1;" x1="87.54" x2="865.4561" y1="309.3906" y2="309.3906"/><text fill="#000000" font-family="sans-serif" font-size="13" lengthAdjust="spacing" textLength="169.4951" x="99.54" y="304.3247">mostrar(listaProveedores)</text></g><g class="message" data-participant-1="Administrador" data-participant-2="ControladorNegocio"><polygon fill="#181818" points="504.1226,334.5234,514.1226,338.5234,504.1226,342.5234,508.1226,338.5234" style="stroke:#181818;stroke-width:1;"/><line style="stroke:#181818;stroke-width:1;" x1="82.54" x2="510.1226" y1="338.5234" y2="338.5234"/><text fill="#000000" font-family="sans-serif" font-size="13" lengthAdjust="spacing" textLength="267.1411" x="89.54" y="333.4575">seleccionarProveedor(nombreProveedor)</text></g><g class="message" data-participant-1="Administrador" data-participant-2="ControladorNegocio"><polygon fill="#181818" points="504.1226,363.6563,514.1226,367.6563,504.1226,371.6563,508.1226,367.6563" style="stroke:#181818;stroke-width:1;"/><line style="stroke:#181818;stroke-width:1;" x1="82.54" x2="510.1226" y1="367.6563" y2="367.6563"/><text fill="#000000" font-family="sans-serif" font-size="13" lengthAdjust="spacing" textLength="147.8623" x="89.54" y="362.5903">confirmarEliminacion()</text></g><g class="message" data-participant-1="ControladorNegocio" data-participant-2="Sistema"><polygon fill="#181818" points="849.4561,392.7891,859.4561,396.7891,849.4561,400.7891,853.4561,396.7891" style="stroke:#181818;stroke-width:1;"/><line style="stroke:#181818;stroke-width:1;" x1="516.1226" x2="855.4561" y1="396.7891" y2="396.7891"/><text fill="#000000" font-family="sans-serif" font-size="13" lengthAdjust="spacing" textLength="310.1909" x="523.1226" y="391.7231">verificarProductosAsociados(nombreProveedor)</text></g><g class="message" data-participant-1="Sistema" data-participant-2="ControladorNegocio"><polygon fill="#181818" points="527.1226,421.9219,517.1226,425.9219,527.1226,429.9219,523.1226,425.9219" style="stroke:#181818;stroke-width:1;"/><line style="stroke:#181818;stroke-width:1;stroke-dasharray:2,2;" x1="521.1226" x2="865.4561" y1="425.9219" y2="425.9219"/><text fill="#000000" font-family="sans-serif" font-size="13" lengthAdjust="spacing" textLength="57.624" x="533.1226" y="420.856">asociado</text></g><path d="M10,440.9219 L74.4429,440.9219 L74.4429,448.0547 L64.4429,458.0547 L10,458.0547 L10,440.9219" fill="#EEEEEE" style="stroke:#000000;stroke-width:1.5;"/><rect fill="none" height="223.5391" style="stroke:#000000;stroke-width:1.5;" width="825.2612" x="10" y="440.9219"/><text fill="#000000" font-family="sans-serif" font-size="13" font-weight="bold" lengthAdjust="spacing" textLength="19.4429" x="25" y="453.9888">alt</text><text fill="#000000" font-family="sans-serif" font-size="11" font-weight="bold" lengthAdjust="spacing" textLength="240.9795" x="89.4429" y="453.1323">[Proveedor tiene productos asociados]</text><g class="message" data-participant-1="ControladorNegocio" data-participant-2="Administrador"><polygon fill="#181818" points="93.54,475.1875,83.54,479.1875,93.54,483.1875,89.54,479.1875" style="stroke:#181818;stroke-width:1;"/><line style="stroke:#181818;stroke-width:1;" x1="87.54" x2="515.1226" y1="479.1875" y2="479.1875"/><text fill="#000000" font-family="sans-serif" font-size="13" lengthAdjust="spacing" textLength="409.5825" x="99.54" y="474.1216">mensaje("No se puede eliminar: existen productos asociados")</text></g><line style="stroke:#000000;stroke-width:1;stroke-dasharray:2,2;" x1="10" x2="835.2612" y1="488.1875" y2="488.1875"/><text fill="#000000" font-family="sans-serif" font-size="11" font-weight="bold" lengthAdjust="spacing" textLength="160.9019" x="15" y="498.3979">[Sin productos asociados]</text><g class="message" data-participant-1="ControladorNegocio" data-participant-2="Proveedor"><polygon fill="#181818" points="769.5195,519.125,779.5195,523.125,769.5195,527.125,773.5195,523.125" style="stroke:#181818;stroke-width:1;"/><line style="stroke:#181818;stroke-width:1;" x1="516.1226" x2="775.5195" y1="523.125" y2="523.125"/><text fill="#000000" font-family="sans-serif" font-size="13" lengthAdjust="spacing" textLength="246.397" x="523.1226" y="518.0591">eliminarProveedor(nombreProveedor)</text></g><g class="message" data-participant-1="Proveedor" data-participant-2="ControladorNegocio"><polygon fill="#181818" points="527.1226,548.2578,517.1226,552.2578,527.1226,556.2578,523.1226,552.2578" style="stroke:#181818;stroke-width:1;"/><line style="stroke:#181818;stroke-width:1;stroke-dasharray:2,2;" x1="521.1226" x2="785.5195" y1="552.2578" y2="552.2578"/><text fill="#000000" font-family="sans-serif" font-size="13" lengthAdjust="spacing" textLength="61.2358" x="533.1226" y="547.1919">resultado</text></g><path d="M20,567.2578 L84.4429,567.2578 L84.4429,574.3906 L74.4429,584.3906 L20,584.3906 L20,567.2578" fill="#EEEEEE" style="stroke:#000000;stroke-width:1.5;"/><rect fill="none" height="90.2031" style="stroke:#000000;stroke-width:1.5;" width="578.8184" x="20" y="567.2578"/><text fill="#000000" font-family="sans-serif" font-size="13" font-weight="bold" lengthAdjust="spacing" textLength="19.4429" x="35" y="580.3247">alt</text><text fill="#000000" font-family="sans-serif" font-size="11" font-weight="bold" lengthAdjust="spacing" textLength="120.0171" x="99.4429" y="579.4683">[Error de conexi&#243;n]</text><g class="message" data-participant-1="ControladorNegocio" data-participant-2="Administrador"><polygon fill="#181818" points="93.54,601.5234,83.54,605.5234,93.54,609.5234,89.54,605.5234" style="stroke:#181818;stroke-width:1;"/><line style="stroke:#181818;stroke-width:1;" x1="87.54" x2="515.1226" y1="605.5234" y2="605.5234"/><text fill="#000000" font-family="sans-serif" font-size="13" lengthAdjust="spacing" textLength="393.8022" x="99.54" y="600.4575">mensaje("Error al eliminar. Intente nuevamente m&#225;s tarde")</text></g><line style="stroke:#000000;stroke-width:1;stroke-dasharray:2,2;" x1="20" x2="598.8184" y1="614.5234" y2="614.5234"/><text fill="#000000" font-family="sans-serif" font-size="11" font-weight="bold" lengthAdjust="spacing" textLength="130.2168" x="25" y="624.7339">[Eliminaci&#243;n exitosa]</text><g class="message" data-participant-1="ControladorNegocio" data-participant-2="Administrador"><polygon fill="#181818" points="93.54,645.4609,83.54,649.4609,93.54,653.4609,89.54,649.4609" style="stroke:#181818;stroke-width:1;"/><line style="stroke:#181818;stroke-width:1;" x1="87.54" x2="515.1226" y1="649.4609" y2="649.4609"/><text fill="#000000" font-family="sans-serif" font-size="13" lengthAdjust="spacing" textLength="311.8984" x="99.54" y="644.395">mensaje("Proveedor eliminado correctamente")</text></g><!--SRC=[dLHBRjim4Dtp50DlOY_S0nXm0LLc006s54X1zemq3bXGP43HHdgEdg1dw15yiGxreML7JjDwOugSUVFcyGsTT0fXKsnW2Lp9McfHojDl3HN2WpL7nCfOnaJfZ8MeedFPE2lyPccqiqP1tFtxlHHVJ2aDG-sa-p42w3SAIiPQCBPUGw8bXS9wpTW5BYo_Ja2kG9GbLcXtfZee4v2ncIyOkoCOWio-FVAKvx1DYiS8DXmUyko9yqsMywADOE-1VRc0jWBpx52Z7UFlfQASXTT07eKRwn9MiBp1Mb5ROeJ6Afp0kS6hbsi5jV7YsAq7crz3BbWVvrCkf0o94pc3PWNVyZXEJZzJ4cnxLgpJwrCtqw32abPQd7MRQrC_MmpVvu9nbjud-IuQQWBV9hiaxRy_NvNijvUs5ZROrkYH5vvudjmdSPH3L6HnGl1P-h4BWjf7j78loxQRwa3ERwA6WYYyUTzMkCt1s-4oRlcunnex8So5KEvi2t2Il0Yl0ukGsZ2WttGNrmP0tOZlE9-bXku9NWyqGu2TOdICRxwodgenMp1KZUSsUSnQ3htO_HNcr_QvJNCqSWER3xpZSIR6nc__VGJ9xWVblE8-Vdh-sWAaFRUMa4WYSXTfGmzXU_JlSdT0GeNklj23HqfJMNt0ewZRPNtwrO0Jji9PrsIh-CKxJ2n8T_6VDCxgz3mgGwrPYwNhA0nrTKLlTFK7]--></g></svg>