<svg xmlns="http://www.w3.org/2000/svg" xmlns:xlink="http://www.w3.org/1999/xlink" contentStyleType="text/css" data-diagram-type="SEQUENCE" height="876px" preserveAspectRatio="none" style="width:1342px;height:876px;background:#FFFFFF;" version="1.1" viewBox="0 0 1342 876" width="1342px" zoomAndPan="magnify"><title>Eliminaci&#243;n de Proveedor (Droguer&#237;a)</title><defs/><g><text fill="#000000" font-family="sans-serif" font-size="14" font-weight="bold" lengthAdjust="spacing" textLength="297.8008" x="533.7747" y="27.9951">Eliminaci&#243;n de Proveedor (Droguer&#237;a)</text><g><title>NegocioControlador. Interfaz</title><rect fill="#FFFFFF" height="709.6641" style="stroke:#181818;stroke-width:1;" width="10" x="395.4775" y="149.7266"/></g><g><title>List.Drogueria.. droguerias</title><rect fill="#FFFFFF" height="202.9297" style="stroke:#181818;stroke-width:1;" width="10" x="621.5649" y="178.8594"/></g><g><title>List.Drogueria.. droguerias</title><rect fill="#FFFFFF" height="29.1328" style="stroke:#181818;stroke-width:1;" width="10" x="621.5649" y="779.125"/></g><g><title>Drogueria. objDrog</title><rect fill="#FFFFFF" height="29.1328" style="stroke:#181818;stroke-width:1;" width="10" x="813.6128" y="232.125"/></g><g><title>List.Medicamento.. medicamentos</title><rect fill="#FFFFFF" height="202.9297" style="stroke:#181818;stroke-width:1;" width="10" x="1032.6113" y="478.9922"/></g><g><title>Medicamento. m</title><rect fill="#FFFFFF" height="29.1328" style="stroke:#181818;stroke-width:1;" width="10" x="1255.4858" y="532.2578"/></g><rect fill="none" height="77.3984" style="stroke:#000000;stroke-width:1.5;" width="694.5146" x="50" y="276.2578"/><rect fill="none" height="17.1328" style="stroke:#000000;stroke-width:1.5;" width="91.9517" x="60" y="329.5234"/><rect fill="none" height="358.3984" style="stroke:#000000;stroke-width:1.5;" width="1306.3501" x="30" y="493.9922"/><rect fill="none" height="77.3984" style="stroke:#000000;stroke-width:1.5;" width="1132.5117" x="50" y="576.3906"/><rect fill="none" height="17.1328" style="stroke:#000000;stroke-width:1.5;" width="91.9517" x="60" y="629.6563"/><rect fill="none" height="148.4688" style="stroke:#000000;stroke-width:1.5;" width="704.5146" x="40" y="696.9219"/><g><title>Administrador. Admin</title><rect fill="#000000" fill-opacity="0.00000" height="750.7969" width="8" x="125.5557" y="118.5938"/><line style="stroke:#181818;stroke-width:0.5;stroke-dasharray:5,5;" x1="129" x2="129" y1="118.5938" y2="869.3906"/></g><g><title>NegocioControlador. Interfaz</title><rect fill="#000000" fill-opacity="0.00000" height="750.7969" width="8" x="396.4775" y="118.5938"/><line style="stroke:#181818;stroke-width:0.5;stroke-dasharray:5,5;" x1="400.3398" x2="400.3398" y1="118.5938" y2="869.3906"/></g><g><title>List.Drogueria.. droguerias</title><rect fill="#000000" fill-opacity="0.00000" height="750.7969" width="8" x="622.5649" y="118.5938"/><line style="stroke:#181818;stroke-width:0.5;stroke-dasharray:5,5;" x1="625.6152" x2="625.6152" y1="118.5938" y2="869.3906"/></g><g><title>Drogueria. objDrog</title><rect fill="#000000" fill-opacity="0.00000" height="750.7969" width="8" x="814.6128" y="118.5938"/><line style="stroke:#181818;stroke-width:0.5;stroke-dasharray:5,5;" x1="818.5146" x2="818.5146" y1="118.5938" y2="869.3906"/></g><g><title>List.Medicamento.. medicamentos</title><rect fill="#000000" fill-opacity="0.00000" height="750.7969" width="8" x="1033.6113" y="118.5938"/><line style="stroke:#181818;stroke-width:0.5;stroke-dasharray:5,5;" x1="1036.7109" x2="1036.7109" y1="118.5938" y2="869.3906"/></g><g><title>Medicamento. m</title><rect fill="#000000" fill-opacity="0.00000" height="750.7969" width="8" x="1256.4858" y="118.5938"/><line style="stroke:#181818;stroke-width:0.5;stroke-dasharray:5,5;" x1="1259.6216" x2="1259.6216" y1="118.5938" y2="869.3906"/></g><g class="participant participant-head" data-participant="admin"><text fill="#000000" font-family="sans-serif" font-size="14" lengthAdjust="spacing" textLength="153.1113" x="50" y="115.292">Administrador: Admin</text><ellipse cx="129.5557" cy="50.7969" fill="#E2E2F0" rx="8" ry="8" style="stroke:#181818;stroke-width:0.5;"/><path d="M129.5557,58.7969 L129.5557,85.7969 M116.5557,66.7969 L142.5557,66.7969 M129.5557,85.7969 L116.5557,100.7969 M129.5557,85.7969 L142.5557,100.7969" fill="none" style="stroke:#181818;stroke-width:0.5;"/></g><g class="participant participant-head" data-participant="NegCtrl"><rect fill="#E2E2F0" height="30.2969" rx="2.5" ry="2.5" style="stroke:#181818;stroke-width:0.5;" width="216.2754" x="292.3398" y="87.2969"/><text fill="#000000" font-family="sans-serif" font-size="14" lengthAdjust="spacing" textLength="202.2754" x="299.3398" y="107.292">NegocioControlador: Interfaz</text></g><g class="participant participant-head" data-participant="listaDrogs"><rect fill="#E2E2F0" height="30.2969" rx="2.5" ry="2.5" style="stroke:#181818;stroke-width:0.5;" width="215.8994" x="518.6152" y="87.2969"/><text fill="#000000" font-family="sans-serif" font-size="14" lengthAdjust="spacing" textLength="201.8994" x="525.6152" y="107.292">List&lt;Drogueria&gt;: droguerias</text></g><g class="participant participant-head" data-participant="drog"><rect fill="#E2E2F0" height="30.2969" rx="2.5" ry="2.5" style="stroke:#181818;stroke-width:0.5;" width="148.1963" x="744.5146" y="87.2969"/><text fill="#000000" font-family="sans-serif" font-size="14" lengthAdjust="spacing" textLength="134.1963" x="751.5146" y="107.292">Drogueria: objDrog</text></g><g class="participant participant-head" data-participant="listaMeds"><rect fill="#E2E2F0" height="30.2969" rx="2.5" ry="2.5" style="stroke:#181818;stroke-width:0.5;" width="269.8008" x="902.7109" y="87.2969"/><text fill="#000000" font-family="sans-serif" font-size="14" lengthAdjust="spacing" textLength="255.8008" x="909.7109" y="107.292">List&lt;Medicamento&gt;: medicamentos</text></g><g class="participant participant-head" data-participant="med"><rect fill="#E2E2F0" height="30.2969" rx="2.5" ry="2.5" style="stroke:#181818;stroke-width:0.5;" width="131.7285" x="1194.6216" y="87.2969"/><text fill="#000000" font-family="sans-serif" font-size="14" lengthAdjust="spacing" textLength="117.7285" x="1201.6216" y="107.292">Medicamento: m</text></g><g><title>NegocioControlador. Interfaz</title><rect fill="#FFFFFF" height="709.6641" style="stroke:#181818;stroke-width:1;" width="10" x="395.4775" y="149.7266"/></g><g><title>List.Drogueria.. droguerias</title><rect fill="#FFFFFF" height="202.9297" style="stroke:#181818;stroke-width:1;" width="10" x="621.5649" y="178.8594"/></g><g><title>List.Drogueria.. droguerias</title><rect fill="#FFFFFF" height="29.1328" style="stroke:#181818;stroke-width:1;" width="10" x="621.5649" y="779.125"/></g><g><title>Drogueria. objDrog</title><rect fill="#FFFFFF" height="29.1328" style="stroke:#181818;stroke-width:1;" width="10" x="813.6128" y="232.125"/></g><g><title>List.Medicamento.. medicamentos</title><rect fill="#FFFFFF" height="202.9297" style="stroke:#181818;stroke-width:1;" width="10" x="1032.6113" y="478.9922"/></g><g><title>Medicamento. m</title><rect fill="#FFFFFF" height="29.1328" style="stroke:#181818;stroke-width:1;" width="10" x="1255.4858" y="532.2578"/></g><g class="message" data-participant-1="admin" data-participant-2="NegCtrl"><polygon fill="#181818" points="383.4775,145.7266,393.4775,149.7266,383.4775,153.7266,387.4775,149.7266" style="stroke:#181818;stroke-width:1;"/><line style="stroke:#181818;stroke-width:1;" x1="129.5557" x2="389.4775" y1="149.7266" y2="149.7266"/><text fill="#000000" font-family="sans-serif" font-size="13" lengthAdjust="spacing" textLength="225.6719" x="136.5557" y="144.6606">eliminarDrogueria(nombre: String)</text></g><g class="message" data-participant-1="NegCtrl" data-participant-2="listaDrogs"><polygon fill="#181818" points="609.5649,174.8594,619.5649,178.8594,609.5649,182.8594,613.5649,178.8594" style="stroke:#181818;stroke-width:1;"/><line style="stroke:#181818;stroke-width:1;" x1="405.4775" x2="615.5649" y1="178.8594" y2="178.8594"/><text fill="#000000" font-family="sans-serif" font-size="13" lengthAdjust="spacing" textLength="169.0381" x="412.4775" y="173.7935">buscarDrogueria(nombre)</text></g><g class="message" data-participant-1="listaDrogs" data-participant-2="drog"><polygon fill="#181818" points="801.6128,228.125,811.6128,232.125,801.6128,236.125,805.6128,232.125" style="stroke:#181818;stroke-width:1;"/><line style="stroke:#181818;stroke-width:1;" x1="631.5649" x2="807.6128" y1="232.125" y2="232.125"/><text fill="#000000" font-family="sans-serif" font-size="13" lengthAdjust="spacing" textLength="83.4272" x="638.5649" y="227.0591">getNombre()</text></g><g class="message" data-participant-1="drog" data-participant-2="listaDrogs"><polygon fill="#181818" points="642.5649,257.2578,632.5649,261.2578,642.5649,265.2578,638.5649,261.2578" style="stroke:#181818;stroke-width:1;"/><line style="stroke:#181818;stroke-width:1;stroke-dasharray:2,2;" x1="636.5649" x2="817.6128" y1="261.2578" y2="261.2578"/><text fill="#000000" font-family="sans-serif" font-size="13" lengthAdjust="spacing" textLength="107.3135" x="648.5649" y="256.1919">&#171;nombreActual&#187;</text></g><path d="M50,276.2578 L114.4429,276.2578 L114.4429,283.3906 L104.4429,293.3906 L50,293.3906 L50,276.2578" fill="#EEEEEE" style="stroke:#000000;stroke-width:1.5;"/><rect fill="none" height="77.3984" style="stroke:#000000;stroke-width:1.5;" width="694.5146" x="50" y="276.2578"/><text fill="#000000" font-family="sans-serif" font-size="13" font-weight="bold" lengthAdjust="spacing" textLength="19.4429" x="65" y="289.3247">alt</text><text fill="#000000" font-family="sans-serif" font-size="11" font-weight="bold" lengthAdjust="spacing" textLength="170.6826" x="129.4429" y="288.4683">[nombre == nombreActual]</text><g class="message" data-participant-1="listaDrogs" data-participant-2="NegCtrl"><polygon fill="#181818" points="416.4775,310.5234,406.4775,314.5234,416.4775,318.5234,412.4775,314.5234" style="stroke:#181818;stroke-width:1;"/><line style="stroke:#181818;stroke-width:1;stroke-dasharray:2,2;" x1="410.4775" x2="620.5649" y1="314.5234" y2="314.5234"/><text fill="#000000" font-family="sans-serif" font-size="13" lengthAdjust="spacing" textLength="144.6504" x="422.4775" y="309.4575">&#171;objDrog : Drogueria&#187;</text></g><path d="M60,329.5234 L146.9517,329.5234 L146.9517,336.6563 L136.9517,346.6563 L60,346.6563 L60,329.5234" fill="#EEEEEE" style="stroke:#000000;stroke-width:1.5;"/><rect fill="none" height="17.1328" style="stroke:#000000;stroke-width:1.5;" width="91.9517" x="60" y="329.5234"/><text fill="#000000" font-family="sans-serif" font-size="13" font-weight="bold" lengthAdjust="spacing" textLength="41.9517" x="75" y="342.5903">break</text><g class="message" data-participant-1="listaDrogs" data-participant-2="NegCtrl"><polygon fill="#181818" points="416.4775,377.7891,406.4775,381.7891,416.4775,385.7891,412.4775,381.7891" style="stroke:#181818;stroke-width:1;"/><line style="stroke:#181818;stroke-width:1;stroke-dasharray:2,2;" x1="410.4775" x2="625.5649" y1="381.7891" y2="381.7891"/><text fill="#000000" font-family="sans-serif" font-size="13" lengthAdjust="spacing" textLength="49.6323" x="422.4775" y="376.7231">&#171;NULL&#187;</text></g><g class="message" data-participant-1="NegCtrl" data-participant-2="admin"><polygon fill="#181818" points="140.5557,431.0547,130.5557,435.0547,140.5557,439.0547,136.5557,435.0547" style="stroke:#181818;stroke-width:1;"/><line style="stroke:#181818;stroke-width:1;stroke-dasharray:2,2;" x1="134.5557" x2="394.4775" y1="435.0547" y2="435.0547"/><text fill="#000000" font-family="sans-serif" font-size="13" lengthAdjust="spacing" textLength="202.998" x="146.5557" y="429.9888">&#171;Error: El proveedor no existe&#187;</text></g><g class="message" data-participant-1="NegCtrl" data-participant-2="listaMeds"><polygon fill="#181818" points="1020.6113,474.9922,1030.6113,478.9922,1020.6113,482.9922,1024.6113,478.9922" style="stroke:#181818;stroke-width:1;"/><line style="stroke:#181818;stroke-width:1;" x1="405.4775" x2="1026.6113" y1="478.9922" y2="478.9922"/><text fill="#000000" font-family="sans-serif" font-size="13" lengthAdjust="spacing" textLength="243.8135" x="412.4775" y="473.9263">verificarProductosAsociados(nombre)</text></g><path d="M30,493.9922 L106.624,493.9922 L106.624,501.125 L96.624,511.125 L30,511.125 L30,493.9922" fill="#EEEEEE" style="stroke:#000000;stroke-width:1.5;"/><rect fill="none" height="358.3984" style="stroke:#000000;stroke-width:1.5;" width="1306.3501" x="30" y="493.9922"/><text fill="#000000" font-family="sans-serif" font-size="13" font-weight="bold" lengthAdjust="spacing" textLength="31.624" x="45" y="507.0591">loop</text><a href="para" target="_top" title="para" xlink:actuate="onRequest" xlink:href="para" xlink:show="new" xlink:title="para" xlink:type="simple"><text fill="#0000FF" font-family="sans-serif" font-size="11" font-weight="bold" lengthAdjust="spacing" text-decoration="underline" textLength="158.1089" x="121.624" y="506.2026">cada m en medicamentos</text></a><g class="message" data-participant-1="listaMeds" data-participant-2="med"><polygon fill="#181818" points="1243.4858,528.2578,1253.4858,532.2578,1243.4858,536.2578,1247.4858,532.2578" style="stroke:#181818;stroke-width:1;"/><line style="stroke:#181818;stroke-width:1;" x1="1042.6113" x2="1249.4858" y1="532.2578" y2="532.2578"/><text fill="#000000" font-family="sans-serif" font-size="13" lengthAdjust="spacing" textLength="148.1479" x="1049.6113" y="527.1919">getDrogueriaNombre()</text></g><g class="message" data-participant-1="med" data-participant-2="listaMeds"><polygon fill="#181818" points="1053.6113,557.3906,1043.6113,561.3906,1053.6113,565.3906,1049.6113,561.3906" style="stroke:#181818;stroke-width:1;"/><line style="stroke:#181818;stroke-width:1;stroke-dasharray:2,2;" x1="1047.6113" x2="1259.4858" y1="561.3906" y2="561.3906"/><text fill="#000000" font-family="sans-serif" font-size="13" lengthAdjust="spacing" textLength="188.8745" x="1059.6113" y="556.3247">&#171;drogueriaAsociada : String&#187;</text></g><path d="M50,576.3906 L114.4429,576.3906 L114.4429,583.5234 L104.4429,593.5234 L50,593.5234 L50,576.3906" fill="#EEEEEE" style="stroke:#000000;stroke-width:1.5;"/><rect fill="none" height="77.3984" style="stroke:#000000;stroke-width:1.5;" width="1132.5117" x="50" y="576.3906"/><text fill="#000000" font-family="sans-serif" font-size="13" font-weight="bold" lengthAdjust="spacing" textLength="19.4429" x="65" y="589.4575">alt</text><text fill="#000000" font-family="sans-serif" font-size="11" font-weight="bold" lengthAdjust="spacing" textLength="200.0249" x="129.4429" y="588.6011">[drogueriaAsociada == nombre]</text><g class="message" data-participant-1="listaMeds" data-participant-2="NegCtrl"><polygon fill="#181818" points="416.4775,610.6563,406.4775,614.6563,416.4775,618.6563,412.4775,614.6563" style="stroke:#181818;stroke-width:1;"/><line style="stroke:#181818;stroke-width:1;stroke-dasharray:2,2;" x1="410.4775" x2="1031.6113" y1="614.6563" y2="614.6563"/><text fill="#000000" font-family="sans-serif" font-size="13" lengthAdjust="spacing" textLength="90.7461" x="422.4775" y="609.5903">&#171;CONFLICTO&#187;</text></g><path d="M60,629.6563 L146.9517,629.6563 L146.9517,636.7891 L136.9517,646.7891 L60,646.7891 L60,629.6563" fill="#EEEEEE" style="stroke:#000000;stroke-width:1.5;"/><rect fill="none" height="17.1328" style="stroke:#000000;stroke-width:1.5;" width="91.9517" x="60" y="629.6563"/><text fill="#000000" font-family="sans-serif" font-size="13" font-weight="bold" lengthAdjust="spacing" textLength="41.9517" x="75" y="642.7231">break</text><g class="message" data-participant-1="listaMeds" data-participant-2="NegCtrl"><polygon fill="#181818" points="416.4775,677.9219,406.4775,681.9219,416.4775,685.9219,412.4775,681.9219" style="stroke:#181818;stroke-width:1;"/><line style="stroke:#181818;stroke-width:1;stroke-dasharray:2,2;" x1="410.4775" x2="1036.6113" y1="681.9219" y2="681.9219"/><text fill="#000000" font-family="sans-serif" font-size="13" lengthAdjust="spacing" textLength="34.6646" x="422.4775" y="676.856">&#171;OK&#187;</text></g><path d="M40,696.9219 L104.4429,696.9219 L104.4429,704.0547 L94.4429,714.0547 L40,714.0547 L40,696.9219" fill="#EEEEEE" style="stroke:#000000;stroke-width:1.5;"/><rect fill="none" height="148.4688" style="stroke:#000000;stroke-width:1.5;" width="704.5146" x="40" y="696.9219"/><text fill="#000000" font-family="sans-serif" font-size="13" font-weight="bold" lengthAdjust="spacing" textLength="19.4429" x="55" y="709.9888">alt</text><text fill="#000000" font-family="sans-serif" font-size="11" font-weight="bold" lengthAdjust="spacing" textLength="145.6479" x="119.4429" y="709.1323">[Se recibi&#243; CONFLICTO]</text><g class="message" data-participant-1="NegCtrl" data-participant-2="admin"><polygon fill="#181818" points="140.5557,731.1875,130.5557,735.1875,140.5557,739.1875,136.5557,735.1875" style="stroke:#181818;stroke-width:1;"/><line style="stroke:#181818;stroke-width:1;stroke-dasharray:2,2;" x1="134.5557" x2="394.4775" y1="735.1875" y2="735.1875"/><text fill="#000000" font-family="sans-serif" font-size="13" lengthAdjust="spacing" textLength="241.9219" x="146.5557" y="730.1216">&#171;Error: Existen productos asociados&#187;</text></g><line style="stroke:#000000;stroke-width:1;stroke-dasharray:2,2;" x1="40" x2="744.5146" y1="744.1875" y2="744.1875"/><text fill="#000000" font-family="sans-serif" font-size="11" font-weight="bold" lengthAdjust="spacing" textLength="138.4292" x="45" y="754.3979">[Se recibi&#243; OK (&#201;xito)]</text><g class="message" data-participant-1="NegCtrl" data-participant-2="listaDrogs"><polygon fill="#181818" points="609.5649,775.125,619.5649,779.125,609.5649,783.125,613.5649,779.125" style="stroke:#181818;stroke-width:1;"/><line style="stroke:#181818;stroke-width:1;" x1="405.4775" x2="615.5649" y1="779.125" y2="779.125"/><text fill="#000000" font-family="sans-serif" font-size="13" lengthAdjust="spacing" textLength="164.7534" x="412.4775" y="774.0591">quitarDrogueria(objDrog)</text></g><g class="message" data-participant-1="listaDrogs" data-participant-2="NegCtrl"><polygon fill="#181818" points="416.4775,804.2578,406.4775,808.2578,416.4775,812.2578,412.4775,808.2578" style="stroke:#181818;stroke-width:1;"/><line style="stroke:#181818;stroke-width:1;stroke-dasharray:2,2;" x1="410.4775" x2="625.5649" y1="808.2578" y2="808.2578"/><text fill="#000000" font-family="sans-serif" font-size="13" lengthAdjust="spacing" textLength="50.6099" x="422.4775" y="803.1919">&#171;TRUE&#187;</text></g><g class="message" data-participant-1="NegCtrl" data-participant-2="admin"><polygon fill="#181818" points="140.5557,833.3906,130.5557,837.3906,140.5557,841.3906,136.5557,837.3906" style="stroke:#181818;stroke-width:1;"/><line style="stroke:#181818;stroke-width:1;stroke-dasharray:2,2;" x1="134.5557" x2="394.4775" y1="837.3906" y2="837.3906"/><text fill="#000000" font-family="sans-serif" font-size="13" lengthAdjust="spacing" textLength="191.4072" x="146.5557" y="832.3247">&#171;&#201;xito: Proveedor eliminado&#187;</text></g><!--SRC=[ZLR1Zjem4BtxAqPS2WT-86AH4CrAgwQm0lPKxS4aXhfDREeOXFe7_PYU-WdyMCTEuZZEPfSS8B7dpRoPUUD4SvqpY7DUS45JVlid86FmhEI5iKmg67zMydXcwlQNJWZvpd7p8ANUooiXDDLeCLfaYEMbLXG14TZ74T0IgBaZ9weqJ_c92WsZ5JlAbCkb55h9l08y2StKWVws63HOQfLtKGbwdzL4E9r7a3NtfGNbk4_DVjd5EKW4Sl_3F5bpWtuZm5UMyPGMJ6Y98OhsoGk2Da4C3uKWQubGB8v97gRp9YE8W5LLLexMMCXYhrW4MwsuE4vCHVc5QkRAG02lnWCwQpD5V_jpcVQzJIp6UV9gOzRjJoxb2RvX6XHIcb78W0clfg_Mo1gsuJ2uiS2mHwPNDj9uuWnTE5lRPjK2fY7jsGmgfejKdsaEytaBO6yxQkFakWR3mqF7ZJC9UNTQWB5h9U23gvnFmLpebFvqAqnanFyd7qLOlIH9uzBBoEj4rLUJJCC6ip4m5zJr79rNKhAkOwNCoCGvdDo82WdiYhwPdqR5E2-PPyX4QkOEfmx6SG9nietXURFUnSlTUbFralG9p5lb8uSBrkk0WbTuH6HdF03AHOaJZJxBZlxw6hIZqsjeACN2ID6VlTT-OoqLv8LcbHnT8tkwxD0mS-bl6Fmqo0zhx0QXpen2Cw2XJhpcXhwx3B3HVQzEm1tR8CjGMylrwZ5vmeQ5NFgwzJKRtfCxGgs_38ncsqxI6Smj0yLIliUtICkpG-S3LLiL2wFOIbfucDRQ2hDjap8IzmCZw_7jpvLhEHbkoD29-klCjN-YrjCveAVWQBtdyDbjNk9tL3JWyPuQLZb7tgkxVjtWj0yMBrG4Bi0dUEJc8o37KwQqdmAQcHSz8HxHciH_]--></g></svg>