<svg xmlns="http://www.w3.org/2000/svg" xmlns:xlink="http://www.w3.org/1999/xlink" contentStyleType="text/css" data-diagram-type="SEQUENCE" height="883px" preserveAspectRatio="none" style="width:1760px;height:883px;background:#FFFFFF;" version="1.1" viewBox="0 0 1760 883" width="1760px" zoomAndPan="magnify"><title>Eliminaci&#243;n de Proveedores</title><defs/><g><text fill="#000000" font-family="sans-serif" font-size="14" font-weight="bold" lengthAdjust="spacing" textLength="219.1807" x="769.8496" y="27.9951">Eliminaci&#243;n de Proveedores</text><g><title>admin.Administrador</title><rect fill="#000000" fill-opacity="0.00000" height="757.7891" width="8" x="78.3315" y="118.5938"/><line style="stroke:#181818;stroke-width:0.5;stroke-dasharray:5,5;" x1="81.8315" x2="81.8315" y1="118.5938" y2="876.3828"/></g><g><title>gc.GestionControlador</title><rect fill="#000000" fill-opacity="0.00000" height="757.7891" width="8" x="484.4966" y="118.5938"/><line style="stroke:#181818;stroke-width:0.5;stroke-dasharray:5,5;" x1="487.9966" x2="487.9966" y1="118.5938" y2="876.3828"/></g><g><title/><rect fill="#FFFFFF" height="682.6563" style="stroke:#181818;stroke-width:1;" width="10" x="482.9966" y="147.7266"/></g><g><title>catProv...Singleton..</title><rect fill="#000000" fill-opacity="0.00000" height="757.7891" width="8" x="917.4106" y="118.5938"/><line style="stroke:#181818;stroke-width:0.5;stroke-dasharray:5,5;" x1="920.9106" x2="920.9106" y1="118.5938" y2="876.3828"/></g><g><title/><rect fill="#FFFFFF" height="132.5313" style="stroke:#181818;stroke-width:1;" width="10" x="915.9106" y="176.8594"/></g><g><title/><rect fill="#FFFFFF" height="87.3984" style="stroke:#181818;stroke-width:1;" width="10" x="915.9106" y="713.8516"/></g><g><title>listaProv.i..Drogueria</title><rect fill="#000000" fill-opacity="0.00000" height="757.7891" width="8" x="1283.9473" y="118.5938"/><line style="stroke:#181818;stroke-width:0.5;stroke-dasharray:5,5;" x1="1287.4473" x2="1287.4473" y1="118.5938" y2="876.3828"/></g><g><title/><rect fill="#FFFFFF" height="29.1328" style="stroke:#181818;stroke-width:1;" width="10" x="1282.4473" y="237.125"/></g><g><title/><rect fill="#FFFFFF" height="29.1328" style="stroke:#181818;stroke-width:1;" width="10" x="1282.4473" y="742.9844"/></g><g><title>catMed...Singleton..</title><rect fill="#000000" fill-opacity="0.00000" height="757.7891" width="8" x="1464.9312" y="118.5938"/><line style="stroke:#181818;stroke-width:0.5;stroke-dasharray:5,5;" x1="1468.4312" x2="1468.4312" y1="118.5938" y2="876.3828"/></g><g><title>listaMed.j..Medicamento</title><rect fill="#000000" fill-opacity="0.00000" height="757.7891" width="8" x="1657.7925" y="118.5938"/><line style="stroke:#181818;stroke-width:0.5;stroke-dasharray:5,5;" x1="1661.2925" x2="1661.2925" y1="118.5938" y2="876.3828"/></g><g><title/><rect fill="#FFFFFF" height="29.1328" style="stroke:#181818;stroke-width:1;" width="10" x="1656.2925" y="483.0547"/></g><text fill="#000000" font-family="sans-serif" font-size="14" lengthAdjust="spacing" textLength="147.6631" x="5" y="115.292">admin:Administrador</text><ellipse cx="81.8315" cy="50.7969" fill="#E2E2F0" rx="8" ry="8" style="stroke:#181818;stroke-width:0.5;"/><path d="M81.8315,58.7969 L81.8315,85.7969 M68.8315,66.7969 L94.8315,66.7969 M81.8315,85.7969 L68.8315,100.7969 M81.8315,85.7969 L94.8315,100.7969" fill="none" style="stroke:#181818;stroke-width:0.5;"/><rect fill="#E2E2F0" height="30.2969" rx="2.5" ry="2.5" style="stroke:#181818;stroke-width:0.5;" width="171.5752" x="402.209" y="87.2969"/><text fill="#000000" font-family="sans-serif" font-size="14" lengthAdjust="spacing" textLength="157.5752" x="409.209" y="107.292">gc:GestionControlador</text><rect fill="#E2E2F0" height="46.5938" rx="2.5" ry="2.5" style="stroke:#181818;stroke-width:0.5;" width="163.7207" x="839.0503" y="71"/><text fill="#000000" font-family="sans-serif" font-size="14" lengthAdjust="spacing" textLength="140.6289" x="850.5962" y="90.9951">catProv:&#171;Singleton&#187;</text><text fill="#000000" font-family="sans-serif" font-size="14" lengthAdjust="spacing" textLength="149.7207" x="846.0503" y="107.292">CatalogoProveedores</text><rect fill="#E2E2F0" height="30.2969" rx="2.5" ry="2.5" style="stroke:#181818;stroke-width:0.5;" width="163.4199" x="1205.7373" y="87.2969"/><text fill="#000000" font-family="sans-serif" font-size="14" lengthAdjust="spacing" textLength="149.4199" x="1212.7373" y="107.292">listaProv[i]:Drogueria</text><rect fill="#E2E2F0" height="46.5938" rx="2.5" ry="2.5" style="stroke:#181818;stroke-width:0.5;" width="178.5479" x="1379.1572" y="71"/><text fill="#000000" font-family="sans-serif" font-size="14" lengthAdjust="spacing" textLength="139.1592" x="1398.8516" y="90.9951">catMed:&#171;Singleton&#187;</text><text fill="#000000" font-family="sans-serif" font-size="14" lengthAdjust="spacing" textLength="164.5479" x="1386.1572" y="107.292">CatalogoMedicamentos</text><rect fill="#E2E2F0" height="30.2969" rx="2.5" ry="2.5" style="stroke:#181818;stroke-width:0.5;" width="187.1748" x="1567.7051" y="87.2969"/><text fill="#000000" font-family="sans-serif" font-size="14" lengthAdjust="spacing" textLength="173.1748" x="1574.7051" y="107.292">listaMed[j]:Medicamento</text><polygon fill="#181818" points="470.9966,143.7266,480.9966,147.7266,470.9966,151.7266,474.9966,147.7266" style="stroke:#181818;stroke-width:1;"/><line style="stroke:#181818;stroke-width:1;" x1="81.8315" x2="476.9966" y1="147.7266" y2="147.7266"/><text fill="#000000" font-family="sans-serif" font-size="13" lengthAdjust="spacing" textLength="204.5532" x="88.8315" y="142.6606">bajaDrogueria(nombre : String)</text><polygon fill="#181818" points="903.9106,172.8594,913.9106,176.8594,903.9106,180.8594,907.9106,176.8594" style="stroke:#181818;stroke-width:1;"/><line style="stroke:#181818;stroke-width:1;" x1="492.9966" x2="909.9106" y1="176.8594" y2="176.8594"/><text fill="#000000" font-family="sans-serif" font-size="13" lengthAdjust="spacing" textLength="222.1362" x="499.9966" y="171.7935">buscarProveedor(nombre : String)</text><path d="M904.9106,188.8594 L981.5347,188.8594 L981.5347,195.9922 L971.5347,205.9922 L904.9106,205.9922 L904.9106,188.8594" fill="#EEEEEE" style="stroke:#000000;stroke-width:1.5;"/><rect fill="none" height="85.3984" style="stroke:#000000;stroke-width:1.5;" width="403.5366" x="904.9106" y="188.8594"/><text fill="#000000" font-family="sans-serif" font-size="13" font-weight="bold" lengthAdjust="spacing" textLength="31.624" x="919.9106" y="201.9263">loop</text><text fill="#000000" font-family="sans-serif" font-size="11" font-weight="bold" lengthAdjust="spacing" textLength="197.8926" x="996.5347" y="201.0698">[hasta nombre == nombreProv]</text><polygon fill="#181818" points="1270.4473,233.125,1280.4473,237.125,1270.4473,241.125,1274.4473,237.125" style="stroke:#181818;stroke-width:1;"/><line style="stroke:#181818;stroke-width:1;" x1="925.9106" x2="1276.4473" y1="237.125" y2="237.125"/><text fill="#000000" font-family="sans-serif" font-size="13" lengthAdjust="spacing" textLength="83.4272" x="932.9106" y="232.0591">getNombre()</text><polygon fill="#181818" points="936.9106,262.2578,926.9106,266.2578,936.9106,270.2578,932.9106,266.2578" style="stroke:#181818;stroke-width:1;"/><line style="stroke:#181818;stroke-width:1;stroke-dasharray:2,2;" x1="930.9106" x2="1281.4473" y1="266.2578" y2="266.2578"/><text fill="#000000" font-family="sans-serif" font-size="13" lengthAdjust="spacing" textLength="146.6309" x="942.9106" y="261.1919">&#171;nombreProv : String&#187;</text><polygon fill="#181818" points="503.9966,305.3906,493.9966,309.3906,503.9966,313.3906,499.9966,309.3906" style="stroke:#181818;stroke-width:1;"/><line style="stroke:#181818;stroke-width:1;stroke-dasharray:2,2;" x1="497.9966" x2="914.9106" y1="309.3906" y2="309.3906"/><text fill="#000000" font-family="sans-serif" font-size="13" lengthAdjust="spacing" textLength="340.1963" x="509.9966" y="304.3247">&#171;NULL o DrogEncontrada : Object Type : Drogueria&#187;</text><path d="M46.8315,321.3906 L111.2744,321.3906 L111.2744,328.5234 L101.2744,338.5234 L46.8315,338.5234 L46.8315,321.3906" fill="#EEEEEE" style="stroke:#000000;stroke-width:1.5;"/><rect fill="none" height="530.9922" style="stroke:#000000;stroke-width:1.5;" width="1660.4609" x="46.8315" y="321.3906"/><text fill="#000000" font-family="sans-serif" font-size="13" font-weight="bold" lengthAdjust="spacing" textLength="19.4429" x="61.8315" y="334.4575">alt</text><text fill="#000000" font-family="sans-serif" font-size="11" font-weight="bold" lengthAdjust="spacing" textLength="159.9941" x="126.2744" y="333.6011">[DrogEncontrada == null]</text><line style="stroke:#000000;stroke-width:1;stroke-dasharray:2,2;" x1="46.8315" x2="1707.2925" y1="388.6563" y2="388.6563"/><polygon fill="#181818" points="92.8315,365.6563,82.8315,369.6563,92.8315,373.6563,88.8315,369.6563" style="stroke:#181818;stroke-width:1;"/><line style="stroke:#181818;stroke-width:1;stroke-dasharray:2,2;" x1="86.8315" x2="481.9966" y1="369.6563" y2="369.6563"/><text fill="#000000" font-family="sans-serif" font-size="13" lengthAdjust="spacing" textLength="199.0498" x="98.8315" y="364.5903">"Error: El proveedor no existe"</text><path d="M497.9966,400.6563 L497.9966,425.6563 L674.9966,425.6563 L674.9966,410.6563 L664.9966,400.6563 L497.9966,400.6563" fill="#FEFFDD" style="stroke:#181818;stroke-width:0.5;"/><path d="M664.9966,400.6563 L664.9966,410.6563 L674.9966,410.6563 L664.9966,400.6563" fill="#FEFFDD" style="stroke:#181818;stroke-width:0.5;"/><text fill="#000000" font-family="sans-serif" font-size="13" lengthAdjust="spacing" textLength="156.7808" x="503.9966" y="417.7231">tieneProductos = FALSE</text><path d="M457.9966,434.7891 L534.6206,434.7891 L534.6206,441.9219 L524.6206,451.9219 L457.9966,451.9219 L457.9966,434.7891" fill="#EEEEEE" style="stroke:#000000;stroke-width:1.5;"/><rect fill="none" height="165.6641" style="stroke:#000000;stroke-width:1.5;" width="1224.2959" x="457.9966" y="434.7891"/><text fill="#000000" font-family="sans-serif" font-size="13" font-weight="bold" lengthAdjust="spacing" textLength="31.624" x="472.9966" y="447.856">loop</text><text fill="#000000" font-family="sans-serif" font-size="11" font-weight="bold" lengthAdjust="spacing" textLength="226.3916" x="549.6206" y="446.9995">[para cada m en listaMedicamentos]</text><polygon fill="#181818" points="1644.2925,479.0547,1654.2925,483.0547,1644.2925,487.0547,1648.2925,483.0547" style="stroke:#181818;stroke-width:1;"/><line style="stroke:#181818;stroke-width:1;" x1="492.9966" x2="1650.2925" y1="483.0547" y2="483.0547"/><text fill="#000000" font-family="sans-serif" font-size="13" lengthAdjust="spacing" textLength="148.1479" x="499.9966" y="477.9888">getDrogueriaNombre()</text><polygon fill="#181818" points="503.9966,508.1875,493.9966,512.1875,503.9966,516.1875,499.9966,512.1875" style="stroke:#181818;stroke-width:1;"/><line style="stroke:#181818;stroke-width:1;stroke-dasharray:2,2;" x1="497.9966" x2="1655.2925" y1="512.1875" y2="512.1875"/><text fill="#000000" font-family="sans-serif" font-size="13" lengthAdjust="spacing" textLength="149.0874" x="509.9966" y="507.1216">&#171;drogNombre : String&#187;</text><path d="M476.9966,524.1875 L541.4395,524.1875 L541.4395,531.3203 L531.4395,541.3203 L476.9966,541.3203 L476.9966,524.1875" fill="#EEEEEE" style="stroke:#000000;stroke-width:1.5;"/><rect fill="none" height="62.2656" style="stroke:#000000;stroke-width:1.5;" width="256.9141" x="476.9966" y="524.1875"/><text fill="#000000" font-family="sans-serif" font-size="13" font-weight="bold" lengthAdjust="spacing" textLength="19.4429" x="491.9966" y="537.2544">alt</text><text fill="#000000" font-family="sans-serif" font-size="11" font-weight="bold" lengthAdjust="spacing" textLength="161.4712" x="556.4395" y="536.3979">[drogNombre == nombre]</text><path d="M497.9966,556.3203 L497.9966,581.3203 L669.9966,581.3203 L669.9966,566.3203 L659.9966,556.3203 L497.9966,556.3203" fill="#FEFFDD" style="stroke:#181818;stroke-width:0.5;"/><path d="M659.9966,556.3203 L659.9966,566.3203 L669.9966,566.3203 L659.9966,556.3203" fill="#FEFFDD" style="stroke:#181818;stroke-width:0.5;"/><text fill="#000000" font-family="sans-serif" font-size="13" lengthAdjust="spacing" textLength="151.4043" x="503.9966" y="573.3872">tieneProductos = TRUE</text><path d="M65.8315,618.4531 L130.2744,618.4531 L130.2744,625.5859 L120.2744,635.5859 L65.8315,635.5859 L65.8315,618.4531" fill="#EEEEEE" style="stroke:#000000;stroke-width:1.5;"/><rect fill="none" height="219.9297" style="stroke:#000000;stroke-width:1.5;" width="1242.6157" x="65.8315" y="618.4531"/><text fill="#000000" font-family="sans-serif" font-size="13" font-weight="bold" lengthAdjust="spacing" textLength="19.4429" x="80.8315" y="631.52">alt</text><text fill="#000000" font-family="sans-serif" font-size="11" font-weight="bold" lengthAdjust="spacing" textLength="162.9805" x="145.2744" y="630.6636">[tieneProductos == TRUE]</text><line style="stroke:#000000;stroke-width:1;stroke-dasharray:2,2;" x1="65.8315" x2="1308.4473" y1="685.7188" y2="685.7188"/><polygon fill="#181818" points="92.8315,662.7188,82.8315,666.7188,92.8315,670.7188,88.8315,666.7188" style="stroke:#181818;stroke-width:1;"/><line style="stroke:#181818;stroke-width:1;stroke-dasharray:2,2;" x1="86.8315" x2="481.9966" y1="666.7188" y2="666.7188"/><text fill="#000000" font-family="sans-serif" font-size="13" lengthAdjust="spacing" textLength="377.165" x="98.8315" y="661.6528">"Error: No se puede eliminar. Tiene productos asociados."</text><polygon fill="#181818" points="903.9106,709.8516,913.9106,713.8516,903.9106,717.8516,907.9106,713.8516" style="stroke:#181818;stroke-width:1;"/><line style="stroke:#181818;stroke-width:1;" x1="492.9966" x2="909.9106" y1="713.8516" y2="713.8516"/><text fill="#000000" font-family="sans-serif" font-size="13" lengthAdjust="spacing" textLength="403.9141" x="499.9966" y="708.7856">eliminarProveedor(DrogEncontrada : Object Type : Drogueria)</text><polygon fill="#181818" points="1270.4473,738.9844,1280.4473,742.9844,1270.4473,746.9844,1274.4473,742.9844" style="stroke:#181818;stroke-width:1;"/><line style="stroke:#181818;stroke-width:1;" x1="925.9106" x2="1276.4473" y1="742.9844" y2="742.9844"/><text fill="#000000" font-family="sans-serif" font-size="13" lengthAdjust="spacing" textLength="337.5366" x="932.9106" y="737.9185">eliminar(DrogEncontrada : Object Type : Drogueria)</text><polygon fill="#181818" points="936.9106,768.1172,926.9106,772.1172,936.9106,776.1172,932.9106,772.1172" style="stroke:#181818;stroke-width:1;"/><line style="stroke:#181818;stroke-width:1;stroke-dasharray:2,2;" x1="930.9106" x2="1281.4473" y1="772.1172" y2="772.1172"/><text fill="#000000" font-family="sans-serif" font-size="13" lengthAdjust="spacing" textLength="49.6323" x="942.9106" y="767.0513">&#171;NULL&#187;</text><polygon fill="#181818" points="503.9966,797.25,493.9966,801.25,503.9966,805.25,499.9966,801.25" style="stroke:#181818;stroke-width:1;"/><line style="stroke:#181818;stroke-width:1;stroke-dasharray:2,2;" x1="497.9966" x2="914.9106" y1="801.25" y2="801.25"/><text fill="#000000" font-family="sans-serif" font-size="13" lengthAdjust="spacing" textLength="49.6323" x="509.9966" y="796.1841">&#171;NULL&#187;</text><polygon fill="#181818" points="92.8315,826.3828,82.8315,830.3828,92.8315,834.3828,88.8315,830.3828" style="stroke:#181818;stroke-width:1;"/><line style="stroke:#181818;stroke-width:1;stroke-dasharray:2,2;" x1="86.8315" x2="481.9966" y1="830.3828" y2="830.3828"/><text fill="#000000" font-family="sans-serif" font-size="13" lengthAdjust="spacing" textLength="239.5986" x="98.8315" y="825.3169">"Proveedor eliminado exitosamente"</text><!--SRC=[hLNTRjem5BxFKvpbPkr5AssxYm29XNIAH9EAGAMfwuL9tDHLi2F7LErUOu-oH-YBxTZ4Xj209fL88B3F__UTBvzgISeL0KN5Rr1oJRr7Lb1u448jnOkdcAeeH1LRCKvozlQN0zxUIF5CQI4aRJoFv4f8y4c19i5OVxD6IOAtFf06pBbN4wbOpch25VXb7loWZMA2Xu8hAIfdNEPTovmedIiO33B6ouegmKUZNpmaYbIY53jr6FVMl1kZmdA8FhvZzy54Yd9D9IERsgGah-yzCCmrBGubnIkManNbIhYiUDQJ54_ldkw37OTjLktXVORXHn-C4ITn6ASd2MR0WeiH0W41BCaJSGCxusArb1IFCoLnBkSQUFPC5DMeOVQBZpuOusQSfV0bWE-BB1pF89h2pIozZQ99EZj91cmBcsjfeZjSDpcHZaP7UhJKyYeXQdWa22-qriDX-yiO03us0UPo5CEW9LM9CJmxDsOk-9Q7vjYvN7IA7GosQLo9ev7nAMXFCCgHOwuMY-fWa2ocKn2WeOruhbUG50HlqkKJpHNCNsiz0eSyfl1suhj9d13ohm7SHhFuAjQe8-IJHJXFCy2hC1vFqkmakKYbzdlMqAshoenGSqC3PbOW03-IKiW0jGzgom_46UWBhZRrFLerrFXnWKEHh7nK81xqBa3xA4Qv1gjOeq8sC8IhyJIBp3KYO_pC7yCeL0-2eyMQLdWBLZ-SqhYe6mfR3Tcmoa7LeTTxYcdHSJSsmWun2eoJT5UWvLSVnphHSBOxtcubdC7HIHsSs7osY3fMdS6r1tQY9sNaDro0A8op-ErF0bTnCfx2JzIZ-1f_Xlhm9CbqvPwTttxtU-qVu6SYeA5Ghoc-b-dcFIqlOQvZQUAsmKWZSeQlsURItupBidTBgQtGs31RNVnVgUWXdfKBUt506stEZwJgokXnATKQU8JR_ILt9RJVVR_VVTZSK6tBXT4K1CbiElNxWhQxeacEdty0]--></g></svg>