<svg xmlns="http://www.w3.org/2000/svg" xmlns:xlink="http://www.w3.org/1999/xlink" contentStyleType="text/css" data-diagram-type="SEQUENCE" height="837px" preserveAspectRatio="none" style="width:1023px;height:837px;background:#FFFFFF;" version="1.1" viewBox="0 0 1023 837" width="1023px" zoomAndPan="magnify"><title>DSD - Modificaci&#243;n de Medicamentos</title><defs/><g><text fill="#000000" font-family="sans-serif" font-size="14" font-weight="bold" lengthAdjust="spacing" textLength="292.5234" x="361.5447" y="27.9951">DSD - Modificaci&#243;n de Medicamentos</text><g><title>Medicamento</title><rect fill="#FFFFFF" height="29.1328" style="stroke:#181818;stroke-width:1;" width="10" x="796.1978" y="221.9922"/></g><g><title>Medicamento</title><rect fill="#FFFFFF" height="29.1328" style="stroke:#181818;stroke-width:1;" width="10" x="796.1978" y="591.1953"/></g><g><title>Sistema</title><rect fill="#FFFFFF" height="29.1328" style="stroke:#181818;stroke-width:1;" width="10" x="960.418" y="464.8594"/></g><rect fill="none" height="473.4063" style="stroke:#000000;stroke-width:1.5;" width="996.6128" x="10" y="266.125"/><rect fill="none" height="223.5391" style="stroke:#000000;stroke-width:1.5;" width="841.6597" x="20" y="508.9922"/><rect fill="none" height="90.2031" style="stroke:#000000;stroke-width:1.5;" width="583.1348" x="30" y="635.3281"/><g><title>Administrador</title><rect fill="#000000" fill-opacity="0.00000" height="637.9375" width="8" x="88.54" y="118.5938"/><line style="stroke:#181818;stroke-width:0.5;stroke-dasharray:5,5;" x1="92" x2="92" y1="118.5938" y2="756.5313"/></g><g><title>ControladorNegocio</title><rect fill="#000000" fill-opacity="0.00000" height="637.9375" width="8" x="526.439" y="118.5938"/><line style="stroke:#181818;stroke-width:0.5;stroke-dasharray:5,5;" x1="529.7432" x2="529.7432" y1="118.5938" y2="756.5313"/></g><g><title>Medicamento</title><rect fill="#000000" fill-opacity="0.00000" height="637.9375" width="8" x="797.1978" y="118.5938"/><line style="stroke:#181818;stroke-width:0.5;stroke-dasharray:5,5;" x1="800.7358" x2="800.7358" y1="118.5938" y2="756.5313"/></g><g><title>Sistema</title><rect fill="#000000" fill-opacity="0.00000" height="637.9375" width="8" x="961.418" y="118.5938"/><line style="stroke:#181818;stroke-width:0.5;stroke-dasharray:5,5;" x1="965.2231" x2="965.2231" y1="118.5938" y2="756.5313"/></g><g class="participant participant-head" data-participant="Administrador"><text fill="#000000" font-family="sans-serif" font-size="14" lengthAdjust="spacing" textLength="99.0801" x="40" y="115.292">Administrador</text><ellipse cx="92.54" cy="50.7969" fill="#E2E2F0" rx="8" ry="8" style="stroke:#181818;stroke-width:0.5;"/><path d="M92.54,58.7969 L92.54,85.7969 M79.54,66.7969 L105.54,66.7969 M92.54,85.7969 L79.54,100.7969 M92.54,85.7969 L105.54,100.7969" fill="none" style="stroke:#181818;stroke-width:0.5;"/></g><g class="participant participant-tail" data-participant="Administrador"><text fill="#000000" font-family="sans-serif" font-size="14" lengthAdjust="spacing" textLength="99.0801" x="40" y="768.5264">Administrador</text><ellipse cx="92.54" cy="780.3281" fill="#E2E2F0" rx="8" ry="8" style="stroke:#181818;stroke-width:0.5;"/><path d="M92.54,788.3281 L92.54,815.3281 M79.54,796.3281 L105.54,796.3281 M92.54,815.3281 L79.54,830.3281 M92.54,815.3281 L105.54,830.3281" fill="none" style="stroke:#181818;stroke-width:0.5;"/></g><g class="participant participant-head" data-participant="ControladorNegocio"><text fill="#000000" font-family="sans-serif" font-size="14" lengthAdjust="spacing" textLength="139.3916" x="457.7432" y="115.292">ControladorNegocio</text><ellipse cx="530.439" cy="86.2969" fill="#E2E2F0" rx="12" ry="12" style="stroke:#181818;stroke-width:0.5;"/><polygon fill="#181818" points="526.439,74.2969,532.439,69.2969,530.439,74.2969,532.439,79.2969,526.439,74.2969" style="stroke:#181818;stroke-width:1;"/></g><g class="participant participant-tail" data-participant="ControladorNegocio"><text fill="#000000" font-family="sans-serif" font-size="14" lengthAdjust="spacing" textLength="139.3916" x="457.7432" y="768.5264">ControladorNegocio</text><ellipse cx="530.439" cy="787.8281" fill="#E2E2F0" rx="12" ry="12" style="stroke:#181818;stroke-width:0.5;"/><polygon fill="#181818" points="526.439,775.8281,532.439,770.8281,530.439,775.8281,532.439,780.8281,526.439,775.8281" style="stroke:#181818;stroke-width:1;"/></g><g class="participant participant-head" data-participant="Medicamento"><text fill="#000000" font-family="sans-serif" font-size="14" lengthAdjust="spacing" textLength="94.9238" x="750.7358" y="115.292">Medicamento</text><ellipse cx="801.1978" cy="86.2969" fill="#E2E2F0" rx="12" ry="12" style="stroke:#181818;stroke-width:0.5;"/><line style="stroke:#181818;stroke-width:0.5;" x1="789.1978" x2="813.1978" y1="100.2969" y2="100.2969"/></g><g class="participant participant-tail" data-participant="Medicamento"><text fill="#000000" font-family="sans-serif" font-size="14" lengthAdjust="spacing" textLength="94.9238" x="750.7358" y="768.5264">Medicamento</text><ellipse cx="801.1978" cy="787.8281" fill="#E2E2F0" rx="12" ry="12" style="stroke:#181818;stroke-width:0.5;"/><line style="stroke:#181818;stroke-width:0.5;" x1="789.1978" x2="813.1978" y1="801.8281" y2="801.8281"/></g><g class="participant participant-head" data-participant="Sistema"><text fill="#000000" font-family="sans-serif" font-size="14" lengthAdjust="spacing" textLength="56.3896" x="934.2231" y="115.292">Sistema</text><ellipse cx="965.418" cy="86.2969" fill="#E2E2F0" rx="12" ry="12" style="stroke:#181818;stroke-width:0.5;"/><line style="stroke:#181818;stroke-width:0.5;" x1="953.418" x2="977.418" y1="100.2969" y2="100.2969"/></g><g class="participant participant-tail" data-participant="Sistema"><text fill="#000000" font-family="sans-serif" font-size="14" lengthAdjust="spacing" textLength="56.3896" x="934.2231" y="768.5264">Sistema</text><ellipse cx="965.418" cy="787.8281" fill="#E2E2F0" rx="12" ry="12" style="stroke:#181818;stroke-width:0.5;"/><line style="stroke:#181818;stroke-width:0.5;" x1="953.418" x2="977.418" y1="801.8281" y2="801.8281"/></g><g><title>Medicamento</title><rect fill="#FFFFFF" height="29.1328" style="stroke:#181818;stroke-width:1;" width="10" x="796.1978" y="221.9922"/></g><g><title>Medicamento</title><rect fill="#FFFFFF" height="29.1328" style="stroke:#181818;stroke-width:1;" width="10" x="796.1978" y="591.1953"/></g><g><title>Sistema</title><rect fill="#FFFFFF" height="29.1328" style="stroke:#181818;stroke-width:1;" width="10" x="960.418" y="464.8594"/></g><rect fill="#EEEEEE" height="3" style="stroke:#EEEEEE;stroke-width:1;" width="1016.6128" x="0" y="149.1602"/><line style="stroke:#000000;stroke-width:1;" x1="0" x2="1016.6128" y1="149.1602" y2="149.1602"/><line style="stroke:#000000;stroke-width:1;" x1="0" x2="1016.6128" y1="152.1602" y2="152.1602"/><rect fill="#EEEEEE" height="23.1328" style="stroke:#000000;stroke-width:2;" width="58.167" x="479.2229" y="138.5938"/><text fill="#000000" font-family="sans-serif" font-size="13" font-weight="bold" lengthAdjust="spacing" textLength="39.6411" x="485.2229" y="154.6606">Inicio</text><g class="message" data-participant-1="Administrador" data-participant-2="ControladorNegocio"><polygon fill="#181818" points="518.439,188.8594,528.439,192.8594,518.439,196.8594,522.439,192.8594" style="stroke:#181818;stroke-width:1;"/><line style="stroke:#181818;stroke-width:1;" x1="92.54" x2="524.439" y1="192.8594" y2="192.8594"/><text fill="#000000" font-family="sans-serif" font-size="13" lengthAdjust="spacing" textLength="204.1406" x="99.54" y="187.7935">accederModuloMedicamentos()</text></g><g class="message" data-participant-1="ControladorNegocio" data-participant-2="Medicamento"><polygon fill="#181818" points="784.1978,217.9922,794.1978,221.9922,784.1978,225.9922,788.1978,221.9922" style="stroke:#181818;stroke-width:1;"/><line style="stroke:#181818;stroke-width:1;" x1="530.439" x2="790.1978" y1="221.9922" y2="221.9922"/><text fill="#000000" font-family="sans-serif" font-size="13" lengthAdjust="spacing" textLength="186.1387" x="537.439" y="216.9263">obtenerMedicamentos(filtro)</text></g><g class="message" data-participant-1="Medicamento" data-participant-2="ControladorNegocio"><polygon fill="#181818" points="541.439,247.125,531.439,251.125,541.439,255.125,537.439,251.125" style="stroke:#181818;stroke-width:1;"/><line style="stroke:#181818;stroke-width:1;stroke-dasharray:2,2;" x1="535.439" x2="800.1978" y1="251.125" y2="251.125"/><text fill="#000000" font-family="sans-serif" font-size="13" lengthAdjust="spacing" textLength="121.9766" x="547.439" y="246.0591">listaMedicamentos</text></g><path d="M10,266.125 L74.4429,266.125 L74.4429,273.2578 L64.4429,283.2578 L10,283.2578 L10,266.125" fill="#EEEEEE" style="stroke:#000000;stroke-width:1.5;"/><rect fill="none" height="473.4063" style="stroke:#000000;stroke-width:1.5;" width="996.6128" x="10" y="266.125"/><text fill="#000000" font-family="sans-serif" font-size="13" font-weight="bold" lengthAdjust="spacing" textLength="19.4429" x="25" y="279.1919">alt</text><text fill="#000000" font-family="sans-serif" font-size="11" font-weight="bold" lengthAdjust="spacing" textLength="203.5752" x="89.4429" y="278.3354">[Error al obtener medicamentos]</text><g class="message" data-participant-1="ControladorNegocio" data-participant-2="Administrador"><polygon fill="#181818" points="103.54,300.3906,93.54,304.3906,103.54,308.3906,99.54,304.3906" style="stroke:#181818;stroke-width:1;"/><line style="stroke:#181818;stroke-width:1;" x1="97.54" x2="529.439" y1="304.3906" y2="304.3906"/><text fill="#000000" font-family="sans-serif" font-size="13" lengthAdjust="spacing" textLength="353.939" x="109.54" y="299.3247">mensaje("No se pudieron obtener los medicamentos")</text></g><line style="stroke:#000000;stroke-width:1;stroke-dasharray:2,2;" x1="10" x2="1006.6128" y1="313.3906" y2="313.3906"/><text fill="#000000" font-family="sans-serif" font-size="11" font-weight="bold" lengthAdjust="spacing" textLength="98.9409" x="15" y="323.6011">[Lista obtenida]</text><g class="message" data-participant-1="ControladorNegocio" data-participant-2="Sistema"><polygon fill="#181818" points="953.418,344.3281,963.418,348.3281,953.418,352.3281,957.418,348.3281" style="stroke:#181818;stroke-width:1;"/><line style="stroke:#181818;stroke-width:1;" x1="530.439" x2="959.418" y1="348.3281" y2="348.3281"/><text fill="#000000" font-family="sans-serif" font-size="13" lengthAdjust="spacing" textLength="213.9541" x="537.439" y="343.2622">mostrarLista(listaMedicamentos)</text></g><g class="message" data-participant-1="Sistema" data-participant-2="Administrador"><polygon fill="#181818" points="103.54,373.4609,93.54,377.4609,103.54,381.4609,99.54,377.4609" style="stroke:#181818;stroke-width:1;"/><line style="stroke:#181818;stroke-width:1;" x1="97.54" x2="964.418" y1="377.4609" y2="377.4609"/><text fill="#000000" font-family="sans-serif" font-size="13" lengthAdjust="spacing" textLength="183.2632" x="109.54" y="372.395">mostrar(listaMedicamentos)</text></g><g class="message" data-participant-1="Administrador" data-participant-2="ControladorNegocio"><polygon fill="#181818" points="518.439,402.5938,528.439,406.5938,518.439,410.5938,522.439,406.5938" style="stroke:#181818;stroke-width:1;"/><line style="stroke:#181818;stroke-width:1;" x1="92.54" x2="524.439" y1="406.5938" y2="406.5938"/><text fill="#000000" font-family="sans-serif" font-size="13" lengthAdjust="spacing" textLength="413.8989" x="99.54" y="401.5278">seleccionarMedicamento(codigodeBarra, nombreMedicamento)</text></g><g class="message" data-participant-1="Administrador" data-participant-2="ControladorNegocio"><polygon fill="#181818" points="518.439,431.7266,528.439,435.7266,518.439,439.7266,522.439,435.7266" style="stroke:#181818;stroke-width:1;"/><line style="stroke:#181818;stroke-width:1;" x1="92.54" x2="524.439" y1="435.7266" y2="435.7266"/><text fill="#000000" font-family="sans-serif" font-size="13" lengthAdjust="spacing" textLength="412.7754" x="99.54" y="430.6606">modificarDatos(nombre, descripcion, laboratorio, precio, stock)</text></g><g class="message" data-participant-1="ControladorNegocio" data-participant-2="Sistema"><polygon fill="#181818" points="948.418,460.8594,958.418,464.8594,948.418,468.8594,952.418,464.8594" style="stroke:#181818;stroke-width:1;"/><line style="stroke:#181818;stroke-width:1;" x1="530.439" x2="954.418" y1="464.8594" y2="464.8594"/><text fill="#000000" font-family="sans-serif" font-size="13" lengthAdjust="spacing" textLength="410.979" x="537.439" y="459.7935">validarCampos(nombre, descripcion, laboratorio, precio, stock)</text></g><g class="message" data-participant-1="Sistema" data-participant-2="ControladorNegocio"><polygon fill="#181818" points="541.439,489.9922,531.439,493.9922,541.439,497.9922,537.439,493.9922" style="stroke:#181818;stroke-width:1;"/><line style="stroke:#181818;stroke-width:1;stroke-dasharray:2,2;" x1="535.439" x2="964.418" y1="493.9922" y2="493.9922"/><text fill="#000000" font-family="sans-serif" font-size="13" lengthAdjust="spacing" textLength="45.8618" x="547.439" y="488.9263">validos</text></g><path d="M20,508.9922 L84.4429,508.9922 L84.4429,516.125 L74.4429,526.125 L20,526.125 L20,508.9922" fill="#EEEEEE" style="stroke:#000000;stroke-width:1.5;"/><rect fill="none" height="223.5391" style="stroke:#000000;stroke-width:1.5;" width="841.6597" x="20" y="508.9922"/><text fill="#000000" font-family="sans-serif" font-size="13" font-weight="bold" lengthAdjust="spacing" textLength="19.4429" x="35" y="522.0591">alt</text><text fill="#000000" font-family="sans-serif" font-size="11" font-weight="bold" lengthAdjust="spacing" textLength="188.2944" x="99.4429" y="521.2026">[C&#243;digo de barras modificado]</text><g class="message" data-participant-1="ControladorNegocio" data-participant-2="Administrador"><polygon fill="#181818" points="103.54,543.2578,93.54,547.2578,103.54,551.2578,99.54,547.2578" style="stroke:#181818;stroke-width:1;"/><line style="stroke:#181818;stroke-width:1;" x1="97.54" x2="529.439" y1="547.2578" y2="547.2578"/><text fill="#000000" font-family="sans-serif" font-size="13" lengthAdjust="spacing" textLength="353.2725" x="109.54" y="542.1919">mensaje("No se puede modificar el c&#243;digo de barras")</text></g><line style="stroke:#000000;stroke-width:1;stroke-dasharray:2,2;" x1="20" x2="861.6597" y1="556.2578" y2="556.2578"/><text fill="#000000" font-family="sans-serif" font-size="11" font-weight="bold" lengthAdjust="spacing" textLength="94.1553" x="25" y="566.4683">[C&#243;digo v&#225;lido]</text><g class="message" data-participant-1="ControladorNegocio" data-participant-2="Medicamento"><polygon fill="#181818" points="784.1978,587.1953,794.1978,591.1953,784.1978,595.1953,788.1978,591.1953" style="stroke:#181818;stroke-width:1;"/><line style="stroke:#181818;stroke-width:1;" x1="530.439" x2="790.1978" y1="591.1953" y2="591.1953"/><text fill="#000000" font-family="sans-serif" font-size="13" lengthAdjust="spacing" textLength="246.7588" x="537.439" y="586.1294">actualizarMedicamento(nuevosDatos)</text></g><g class="message" data-participant-1="Medicamento" data-participant-2="ControladorNegocio"><polygon fill="#181818" points="541.439,616.3281,531.439,620.3281,541.439,624.3281,537.439,620.3281" style="stroke:#181818;stroke-width:1;"/><line style="stroke:#181818;stroke-width:1;stroke-dasharray:2,2;" x1="535.439" x2="800.1978" y1="620.3281" y2="620.3281"/><text fill="#000000" font-family="sans-serif" font-size="13" lengthAdjust="spacing" textLength="147.5449" x="547.439" y="615.2622">resultadoActualizacion</text></g><path d="M30,635.3281 L94.4429,635.3281 L94.4429,642.4609 L84.4429,652.4609 L30,652.4609 L30,635.3281" fill="#EEEEEE" style="stroke:#000000;stroke-width:1.5;"/><rect fill="none" height="90.2031" style="stroke:#000000;stroke-width:1.5;" width="583.1348" x="30" y="635.3281"/><text fill="#000000" font-family="sans-serif" font-size="13" font-weight="bold" lengthAdjust="spacing" textLength="19.4429" x="45" y="648.395">alt</text><text fill="#000000" font-family="sans-serif" font-size="11" font-weight="bold" lengthAdjust="spacing" textLength="120.0171" x="109.4429" y="647.5386">[Error de conexi&#243;n]</text><g class="message" data-participant-1="ControladorNegocio" data-participant-2="Administrador"><polygon fill="#181818" points="103.54,669.5938,93.54,673.5938,103.54,677.5938,99.54,673.5938" style="stroke:#181818;stroke-width:1;"/><line style="stroke:#181818;stroke-width:1;" x1="97.54" x2="529.439" y1="673.5938" y2="673.5938"/><text fill="#000000" font-family="sans-serif" font-size="13" lengthAdjust="spacing" textLength="401.8828" x="109.54" y="668.5278">mensaje("Error al modificar. Intente nuevamente m&#225;s tarde")</text></g><line style="stroke:#000000;stroke-width:1;stroke-dasharray:2,2;" x1="30" x2="613.1348" y1="682.5938" y2="682.5938"/><text fill="#000000" font-family="sans-serif" font-size="11" font-weight="bold" lengthAdjust="spacing" textLength="137.3228" x="35" y="692.8042">[Modificaci&#243;n exitosa]</text><g class="message" data-participant-1="ControladorNegocio" data-participant-2="Administrador"><polygon fill="#181818" points="103.54,713.5313,93.54,717.5313,103.54,721.5313,99.54,717.5313" style="stroke:#181818;stroke-width:1;"/><line style="stroke:#181818;stroke-width:1;" x1="97.54" x2="529.439" y1="717.5313" y2="717.5313"/><text fill="#000000" font-family="sans-serif" font-size="13" lengthAdjust="spacing" textLength="341.7451" x="109.54" y="712.4653">mensaje("Medicamento modificado correctamente")</text></g><!--SRC=[fLLTRXen47xtAKOyWGGz01ALKiX3fIOlEO6n9v5RhmUD3KfwcvmXH-1Y7U-onjiipK-Hq2xsp7pVVFD3SiaZREusi80RikxU6MtSyIM0HRX1ApyR38cYKjeaOhYoZGik9jQMM1aAYSd3kdlcirjy8ED8YPTBJtMC_kXEtB7HIgrMy3quCORLIgb1P5Xy7Gcw16qCMcIXklTKyvlEb7hjaCDKLakWRS8W_hNdlVFYDii9keDEWxnLzGwB2wIyiDO3iIoE1bFQ9xXcbloqxxb0Ktk2VCRp6EYp5AyGzK-SJcu98i9kRnqoXHBLKnn4dimKUZ7yaSbsLixgV-2ToYH8b46vTPo-odNMXZWPZ_7ilCSSMyztbJsYHoDlGTUbcnhfs0Uo-4qpwpa4QhQCbS5789fJz_D6vwReOirb3A9XjylOS_1wIopNx6WEEqQJdp6H-NL2UaF9W_QYEQzri_iCH4OeVTLFqK3z2xcrkAVcgbgp368RM5fpVNp9WkRPtsP9Or75Kclq-UwKgJrB3EZ1_8qrwH9icxGdSZW-P-Rg3V31Y4jwUydtzx1LmXuF5DlQpagqqI7jBzyp-OnnxvCSNVMWkOebnAKrKF3BEX0LP9VYOrwzvVhZQfVTKgJ-8YjMHbqOP0LQ0bA8utE4fDdYv2n6A_pmFq3uY5xwFmZL8fvxIN9bQUtKqQav1Alwftp_0000]--></g></svg>