<svg xmlns="http://www.w3.org/2000/svg" xmlns:xlink="http://www.w3.org/1999/xlink" contentStyleType="text/css" data-diagram-type="SEQUENCE" height="824px" preserveAspectRatio="none" style="width:1530px;height:824px;background:#FFFFFF;" version="1.1" viewBox="0 0 1530 824" width="1530px" zoomAndPan="magnify"><title>Modificaci&#243;n de Medicamento</title><defs/><g><text fill="#000000" font-family="sans-serif" font-size="14" font-weight="bold" lengthAdjust="spacing" textLength="235.3066" x="648.6694" y="27.9951">Modificaci&#243;n de Medicamento</text><g><title>NegocioControlador. Interfaz</title><rect fill="#FFFFFF" height="657.3984" style="stroke:#181818;stroke-width:1;" width="10" x="887.7036" y="149.7266"/></g><g><title>List.Medicamento.. medicamentos</title><rect fill="#FFFFFF" height="157.6641" style="stroke:#181818;stroke-width:1;" width="10" x="1184.7334" y="246.9297"/></g><g><title>Medicamento. objMed</title><rect fill="#FFFFFF" height="29.1328" style="stroke:#181818;stroke-width:1;" width="10" x="1414.1396" y="300.1953"/></g><g><title>Medicamento. objMed</title><rect fill="#FFFFFF" height="29.1328" style="stroke:#181818;stroke-width:1;" width="10" x="1414.1396" y="449.8594"/></g><g><title>Medicamento. objMed</title><rect fill="#FFFFFF" height="29.1328" style="stroke:#181818;stroke-width:1;" width="10" x="1414.1396" y="508.125"/></g><g><title>Medicamento. objMed</title><rect fill="#FFFFFF" height="29.1328" style="stroke:#181818;stroke-width:1;" width="10" x="1414.1396" y="566.3906"/></g><g><title>Medicamento. objMed</title><rect fill="#FFFFFF" height="29.1328" style="stroke:#181818;stroke-width:1;" width="10" x="1414.1396" y="624.6563"/></g><g><title>Medicamento. objMed</title><rect fill="#FFFFFF" height="29.1328" style="stroke:#181818;stroke-width:1;" width="10" x="1414.1396" y="682.9219"/></g><rect fill="none" height="635.3984" style="stroke:#000000;stroke-width:1.5;" width="1513.6455" x="10" y="164.7266"/><rect fill="none" height="135.6641" style="stroke:#000000;stroke-width:1.5;" width="749.0796" x="764.5659" y="261.9297"/><rect fill="none" height="46.2656" style="stroke:#000000;stroke-width:1.5;" width="560.0679" x="774.5659" y="344.3281"/><rect fill="none" height="381.5313" style="stroke:#000000;stroke-width:1.5;" width="1493.6455" x="20" y="411.5938"/><g><title>Administrador. Admin</title><rect fill="#000000" fill-opacity="0.00000" height="698.5313" width="8" x="105.5557" y="118.5938"/><line style="stroke:#181818;stroke-width:0.5;stroke-dasharray:5,5;" x1="109" x2="109" y1="118.5938" y2="817.125"/></g><g><title>NegocioControlador. Interfaz</title><rect fill="#000000" fill-opacity="0.00000" height="698.5313" width="8" x="888.7036" y="118.5938"/><line style="stroke:#181818;stroke-width:0.5;stroke-dasharray:5,5;" x1="892.5659" x2="892.5659" y1="118.5938" y2="817.125"/></g><g><title>List.Medicamento.. medicamentos</title><rect fill="#000000" fill-opacity="0.00000" height="698.5313" width="8" x="1185.7334" y="118.5938"/><line style="stroke:#181818;stroke-width:0.5;stroke-dasharray:5,5;" x1="1188.833" x2="1188.833" y1="118.5938" y2="817.125"/></g><g><title>Medicamento. objMed</title><rect fill="#000000" fill-opacity="0.00000" height="698.5313" width="8" x="1415.1396" y="118.5938"/><line style="stroke:#181818;stroke-width:0.5;stroke-dasharray:5,5;" x1="1418.6338" x2="1418.6338" y1="118.5938" y2="817.125"/></g><g class="participant participant-head" data-participant="admin"><text fill="#000000" font-family="sans-serif" font-size="14" lengthAdjust="spacing" textLength="153.1113" x="30" y="115.292">Administrador: Admin</text><ellipse cx="109.5557" cy="50.7969" fill="#E2E2F0" rx="8" ry="8" style="stroke:#181818;stroke-width:0.5;"/><path d="M109.5557,58.7969 L109.5557,85.7969 M96.5557,66.7969 L122.5557,66.7969 M109.5557,85.7969 L96.5557,100.7969 M109.5557,85.7969 L122.5557,100.7969" fill="none" style="stroke:#181818;stroke-width:0.5;"/></g><g class="participant participant-head" data-participant="NegCtrl"><rect fill="#E2E2F0" height="30.2969" rx="2.5" ry="2.5" style="stroke:#181818;stroke-width:0.5;" width="216.2754" x="784.5659" y="87.2969"/><text fill="#000000" font-family="sans-serif" font-size="14" lengthAdjust="spacing" textLength="202.2754" x="791.5659" y="107.292">NegocioControlador: Interfaz</text></g><g class="participant participant-head" data-participant="listaMeds"><rect fill="#E2E2F0" height="30.2969" rx="2.5" ry="2.5" style="stroke:#181818;stroke-width:0.5;" width="269.8008" x="1054.833" y="87.2969"/><text fill="#000000" font-family="sans-serif" font-size="14" lengthAdjust="spacing" textLength="255.8008" x="1061.833" y="107.292">List&lt;Medicamento&gt;: medicamentos</text></g><g class="participant participant-head" data-participant="med"><rect fill="#E2E2F0" height="30.2969" rx="2.5" ry="2.5" style="stroke:#181818;stroke-width:0.5;" width="169.0117" x="1334.6338" y="87.2969"/><text fill="#000000" font-family="sans-serif" font-size="14" lengthAdjust="spacing" textLength="155.0117" x="1341.6338" y="107.292">Medicamento: objMed</text></g><g><title>NegocioControlador. Interfaz</title><rect fill="#FFFFFF" height="657.3984" style="stroke:#181818;stroke-width:1;" width="10" x="887.7036" y="149.7266"/></g><g><title>List.Medicamento.. medicamentos</title><rect fill="#FFFFFF" height="157.6641" style="stroke:#181818;stroke-width:1;" width="10" x="1184.7334" y="246.9297"/></g><g><title>Medicamento. objMed</title><rect fill="#FFFFFF" height="29.1328" style="stroke:#181818;stroke-width:1;" width="10" x="1414.1396" y="300.1953"/></g><g><title>Medicamento. objMed</title><rect fill="#FFFFFF" height="29.1328" style="stroke:#181818;stroke-width:1;" width="10" x="1414.1396" y="449.8594"/></g><g><title>Medicamento. objMed</title><rect fill="#FFFFFF" height="29.1328" style="stroke:#181818;stroke-width:1;" width="10" x="1414.1396" y="508.125"/></g><g><title>Medicamento. objMed</title><rect fill="#FFFFFF" height="29.1328" style="stroke:#181818;stroke-width:1;" width="10" x="1414.1396" y="566.3906"/></g><g><title>Medicamento. objMed</title><rect fill="#FFFFFF" height="29.1328" style="stroke:#181818;stroke-width:1;" width="10" x="1414.1396" y="624.6563"/></g><g><title>Medicamento. objMed</title><rect fill="#FFFFFF" height="29.1328" style="stroke:#181818;stroke-width:1;" width="10" x="1414.1396" y="682.9219"/></g><g class="message" data-participant-1="admin" data-participant-2="NegCtrl"><polygon fill="#181818" points="875.7036,145.7266,885.7036,149.7266,875.7036,153.7266,879.7036,149.7266" style="stroke:#181818;stroke-width:1;"/><line style="stroke:#181818;stroke-width:1;" x1="109.5557" x2="881.7036" y1="149.7266" y2="149.7266"/><text fill="#000000" font-family="sans-serif" font-size="13" lengthAdjust="spacing" textLength="759.1479" x="116.5557" y="144.6606">modificarMedicamento(codigoBarra: String, nombre: String, precio: Float, stock: Int, stockMin: Int, drogueria: String)</text></g><path d="M10,164.7266 L74.4429,164.7266 L74.4429,171.8594 L64.4429,181.8594 L10,181.8594 L10,164.7266" fill="#EEEEEE" style="stroke:#000000;stroke-width:1.5;"/><rect fill="none" height="635.3984" style="stroke:#000000;stroke-width:1.5;" width="1513.6455" x="10" y="164.7266"/><text fill="#000000" font-family="sans-serif" font-size="13" font-weight="bold" lengthAdjust="spacing" textLength="19.4429" x="25" y="177.7935">alt</text><text fill="#000000" font-family="sans-serif" font-size="11" font-weight="bold" lengthAdjust="spacing" textLength="304.5947" x="89.4429" y="176.937">[datos inv&#225;lidos (precio &lt; 0, nombre vac&#237;o, etc.)]</text><g class="message" data-participant-1="NegCtrl" data-participant-2="admin"><polygon fill="#181818" points="120.5557,198.9922,110.5557,202.9922,120.5557,206.9922,116.5557,202.9922" style="stroke:#181818;stroke-width:1;"/><line style="stroke:#181818;stroke-width:1;stroke-dasharray:2,2;" x1="114.5557" x2="886.7036" y1="202.9922" y2="202.9922"/><text fill="#000000" font-family="sans-serif" font-size="13" lengthAdjust="spacing" textLength="49.6323" x="126.5557" y="197.9263">&#171;NULL&#187;</text></g><line style="stroke:#000000;stroke-width:1;stroke-dasharray:2,2;" x1="10" x2="1523.6455" y1="211.9922" y2="211.9922"/><text fill="#000000" font-family="sans-serif" font-size="11" font-weight="bold" lengthAdjust="spacing" textLength="92.6567" x="15" y="222.2026">[datos v&#225;lidos]</text><g class="message" data-participant-1="NegCtrl" data-participant-2="listaMeds"><polygon fill="#181818" points="1172.7334,242.9297,1182.7334,246.9297,1172.7334,250.9297,1176.7334,246.9297" style="stroke:#181818;stroke-width:1;"/><line style="stroke:#181818;stroke-width:1;" x1="897.7036" x2="1178.7334" y1="246.9297" y2="246.9297"/><text fill="#000000" font-family="sans-serif" font-size="13" lengthAdjust="spacing" textLength="268.0298" x="904.7036" y="241.8638">buscarMedicamento(codigoBarra: String)</text></g><path d="M764.5659,261.9297 L841.1899,261.9297 L841.1899,269.0625 L831.1899,279.0625 L764.5659,279.0625 L764.5659,261.9297" fill="#EEEEEE" style="stroke:#000000;stroke-width:1.5;"/><rect fill="none" height="135.6641" style="stroke:#000000;stroke-width:1.5;" width="749.0796" x="764.5659" y="261.9297"/><text fill="#000000" font-family="sans-serif" font-size="13" font-weight="bold" lengthAdjust="spacing" textLength="31.624" x="779.5659" y="274.9966">loop</text><a href="para" target="_top" title="para" xlink:actuate="onRequest" xlink:href="para" xlink:show="new" xlink:title="para" xlink:type="simple"><text fill="#0000FF" font-family="sans-serif" font-size="11" font-weight="bold" lengthAdjust="spacing" text-decoration="underline" textLength="158.1089" x="856.1899" y="274.1401">cada m en medicamentos</text></a><g class="message" data-participant-1="listaMeds" data-participant-2="med"><polygon fill="#181818" points="1402.1396,296.1953,1412.1396,300.1953,1402.1396,304.1953,1406.1396,300.1953" style="stroke:#181818;stroke-width:1;"/><line style="stroke:#181818;stroke-width:1;" x1="1194.7334" x2="1408.1396" y1="300.1953" y2="300.1953"/><text fill="#000000" font-family="sans-serif" font-size="13" lengthAdjust="spacing" textLength="112.1313" x="1201.7334" y="295.1294">getCodigoBarra()</text></g><g class="message" data-participant-1="med" data-participant-2="listaMeds"><polygon fill="#181818" points="1205.7334,325.3281,1195.7334,329.3281,1205.7334,333.3281,1201.7334,329.3281" style="stroke:#181818;stroke-width:1;"/><line style="stroke:#181818;stroke-width:1;stroke-dasharray:2,2;" x1="1199.7334" x2="1418.1396" y1="329.3281" y2="329.3281"/><text fill="#000000" font-family="sans-serif" font-size="13" lengthAdjust="spacing" textLength="151.4741" x="1211.7334" y="324.2622">&#171;codigoActual : String&#187;</text></g><path d="M774.5659,344.3281 L839.0088,344.3281 L839.0088,351.4609 L829.0088,361.4609 L774.5659,361.4609 L774.5659,344.3281" fill="#EEEEEE" style="stroke:#000000;stroke-width:1.5;"/><rect fill="none" height="46.2656" style="stroke:#000000;stroke-width:1.5;" width="560.0679" x="774.5659" y="344.3281"/><text fill="#000000" font-family="sans-serif" font-size="13" font-weight="bold" lengthAdjust="spacing" textLength="19.4429" x="789.5659" y="357.395">alt</text><text fill="#000000" font-family="sans-serif" font-size="11" font-weight="bold" lengthAdjust="spacing" textLength="191.8501" x="854.0088" y="356.5386">[codigoBarra == codigoActual]</text><g class="message" data-participant-1="listaMeds" data-participant-2="NegCtrl"><polygon fill="#181818" points="908.7036,378.5938,898.7036,382.5938,908.7036,386.5938,904.7036,382.5938" style="stroke:#181818;stroke-width:1;"/><line style="stroke:#181818;stroke-width:1;stroke-dasharray:2,2;" x1="902.7036" x2="1183.7334" y1="382.5938" y2="382.5938"/><text fill="#000000" font-family="sans-serif" font-size="13" lengthAdjust="spacing" textLength="163.979" x="914.7036" y="377.5278">&#171;objMed : Medicamento&#187;</text></g><path d="M20,411.5938 L84.4429,411.5938 L84.4429,418.7266 L74.4429,428.7266 L20,428.7266 L20,411.5938" fill="#EEEEEE" style="stroke:#000000;stroke-width:1.5;"/><rect fill="none" height="381.5313" style="stroke:#000000;stroke-width:1.5;" width="1493.6455" x="20" y="411.5938"/><text fill="#000000" font-family="sans-serif" font-size="13" font-weight="bold" lengthAdjust="spacing" textLength="19.4429" x="35" y="424.6606">alt</text><text fill="#000000" font-family="sans-serif" font-size="11" font-weight="bold" lengthAdjust="spacing" textLength="168.7007" x="99.4429" y="423.8042">[medicamento encontrado]</text><g class="message" data-participant-1="NegCtrl" data-participant-2="med"><polygon fill="#181818" points="1402.1396,445.8594,1412.1396,449.8594,1402.1396,453.8594,1406.1396,449.8594" style="stroke:#181818;stroke-width:1;"/><line style="stroke:#181818;stroke-width:1;" x1="897.7036" x2="1408.1396" y1="449.8594" y2="449.8594"/><text fill="#000000" font-family="sans-serif" font-size="13" lengthAdjust="spacing" textLength="132.3994" x="904.7036" y="444.7935">setNombre(nombre)</text></g><g class="message" data-participant-1="med" data-participant-2="NegCtrl"><polygon fill="#181818" points="908.7036,474.9922,898.7036,478.9922,908.7036,482.9922,904.7036,478.9922" style="stroke:#181818;stroke-width:1;"/><line style="stroke:#181818;stroke-width:1;stroke-dasharray:2,2;" x1="902.7036" x2="1418.1396" y1="478.9922" y2="478.9922"/><text fill="#000000" font-family="sans-serif" font-size="13" lengthAdjust="spacing" textLength="49.6323" x="914.7036" y="473.9263">&#171;NULL&#187;</text></g><g class="message" data-participant-1="NegCtrl" data-participant-2="med"><polygon fill="#181818" points="1402.1396,504.125,1412.1396,508.125,1402.1396,512.125,1406.1396,508.125" style="stroke:#181818;stroke-width:1;"/><line style="stroke:#181818;stroke-width:1;" x1="897.7036" x2="1408.1396" y1="508.125" y2="508.125"/><text fill="#000000" font-family="sans-serif" font-size="13" lengthAdjust="spacing" textLength="161.5542" x="904.7036" y="503.0591">setPrecioUnitario(precio)</text></g><g class="message" data-participant-1="med" data-participant-2="NegCtrl"><polygon fill="#181818" points="908.7036,533.2578,898.7036,537.2578,908.7036,541.2578,904.7036,537.2578" style="stroke:#181818;stroke-width:1;"/><line style="stroke:#181818;stroke-width:1;stroke-dasharray:2,2;" x1="902.7036" x2="1418.1396" y1="537.2578" y2="537.2578"/><text fill="#000000" font-family="sans-serif" font-size="13" lengthAdjust="spacing" textLength="49.6323" x="914.7036" y="532.1919">&#171;NULL&#187;</text></g><g class="message" data-participant-1="NegCtrl" data-participant-2="med"><polygon fill="#181818" points="1402.1396,562.3906,1412.1396,566.3906,1402.1396,570.3906,1406.1396,566.3906" style="stroke:#181818;stroke-width:1;"/><line style="stroke:#181818;stroke-width:1;" x1="897.7036" x2="1408.1396" y1="566.3906" y2="566.3906"/><text fill="#000000" font-family="sans-serif" font-size="13" lengthAdjust="spacing" textLength="100.4897" x="904.7036" y="561.3247">setStock(stock)</text></g><g class="message" data-participant-1="med" data-participant-2="NegCtrl"><polygon fill="#181818" points="908.7036,591.5234,898.7036,595.5234,908.7036,599.5234,904.7036,595.5234" style="stroke:#181818;stroke-width:1;"/><line style="stroke:#181818;stroke-width:1;stroke-dasharray:2,2;" x1="902.7036" x2="1418.1396" y1="595.5234" y2="595.5234"/><text fill="#000000" font-family="sans-serif" font-size="13" lengthAdjust="spacing" textLength="49.6323" x="914.7036" y="590.4575">&#171;NULL&#187;</text></g><g class="message" data-participant-1="NegCtrl" data-participant-2="med"><polygon fill="#181818" points="1402.1396,620.6563,1412.1396,624.6563,1402.1396,628.6563,1406.1396,624.6563" style="stroke:#181818;stroke-width:1;"/><line style="stroke:#181818;stroke-width:1;" x1="897.7036" x2="1408.1396" y1="624.6563" y2="624.6563"/><text fill="#000000" font-family="sans-serif" font-size="13" lengthAdjust="spacing" textLength="170.8535" x="904.7036" y="619.5903">setStockMinimo(stockMin)</text></g><g class="message" data-participant-1="med" data-participant-2="NegCtrl"><polygon fill="#181818" points="908.7036,649.7891,898.7036,653.7891,908.7036,657.7891,904.7036,653.7891" style="stroke:#181818;stroke-width:1;"/><line style="stroke:#181818;stroke-width:1;stroke-dasharray:2,2;" x1="902.7036" x2="1418.1396" y1="653.7891" y2="653.7891"/><text fill="#000000" font-family="sans-serif" font-size="13" lengthAdjust="spacing" textLength="49.6323" x="914.7036" y="648.7231">&#171;NULL&#187;</text></g><g class="message" data-participant-1="NegCtrl" data-participant-2="med"><polygon fill="#181818" points="1402.1396,678.9219,1412.1396,682.9219,1402.1396,686.9219,1406.1396,682.9219" style="stroke:#181818;stroke-width:1;"/><line style="stroke:#181818;stroke-width:1;" x1="897.7036" x2="1408.1396" y1="682.9219" y2="682.9219"/><text fill="#000000" font-family="sans-serif" font-size="13" lengthAdjust="spacing" textLength="157.6948" x="904.7036" y="677.856">setDrogueria(drogueria)</text></g><g class="message" data-participant-1="med" data-participant-2="NegCtrl"><polygon fill="#181818" points="908.7036,708.0547,898.7036,712.0547,908.7036,716.0547,904.7036,712.0547" style="stroke:#181818;stroke-width:1;"/><line style="stroke:#181818;stroke-width:1;stroke-dasharray:2,2;" x1="902.7036" x2="1418.1396" y1="712.0547" y2="712.0547"/><text fill="#000000" font-family="sans-serif" font-size="13" lengthAdjust="spacing" textLength="49.6323" x="914.7036" y="706.9888">&#171;NULL&#187;</text></g><g class="message" data-participant-1="NegCtrl" data-participant-2="admin"><polygon fill="#181818" points="120.5557,737.1875,110.5557,741.1875,120.5557,745.1875,116.5557,741.1875" style="stroke:#181818;stroke-width:1;"/><line style="stroke:#181818;stroke-width:1;stroke-dasharray:2,2;" x1="114.5557" x2="886.7036" y1="741.1875" y2="741.1875"/><text fill="#000000" font-family="sans-serif" font-size="13" lengthAdjust="spacing" textLength="49.6323" x="126.5557" y="736.1216">&#171;NULL&#187;</text></g><line style="stroke:#000000;stroke-width:1;stroke-dasharray:2,2;" x1="20" x2="1513.6455" y1="750.1875" y2="750.1875"/><text fill="#000000" font-family="sans-serif" font-size="11" font-weight="bold" lengthAdjust="spacing" textLength="187.9185" x="25" y="760.3979">[medicamento no encontrado]</text><g class="message" data-participant-1="NegCtrl" data-participant-2="admin"><polygon fill="#181818" points="120.5557,781.125,110.5557,785.125,120.5557,789.125,116.5557,785.125" style="stroke:#181818;stroke-width:1;"/><line style="stroke:#181818;stroke-width:1;stroke-dasharray:2,2;" x1="114.5557" x2="886.7036" y1="785.125" y2="785.125"/><text fill="#000000" font-family="sans-serif" font-size="13" lengthAdjust="spacing" textLength="49.6323" x="126.5557" y="780.0591">&#171;NULL&#187;</text></g><!--SRC=[nLJDZjCm4BxdAKOzfLABE4VTIaiH4bAtGghsX3XC7JSO4a_bJ2l4s_00d7Y4lXXZvy_fKfOzeEPaE_FDVD_yiU5ImmFbPcyKAdF-PI6N1vtBjTAMAKa-6tdP4_6ElYK9AYO7a_kyCjRKx30dbq6uJW1hG7zA3kZOA7D0op3Pw8AKeHLPTbGsWFUMjTlZzu0HWnMxSenQY_T5H6IPGJNSwW0inGR5fXv38rG6jFiYzs0kU17W2S9ysKK5yTlgTn4mLV9Oq1jq3ZFOiZEsc86bQkVqS3yuBSeoU5SIyWng9lKrY6lF3yQsrznHSTJEzCwcFfNcXAnx_Gd8XoL3Zg8GZ3sTVvGcbsFQ1885lEv8m0dL-IVDGBDwDGrG_tMgvgAmaPh1OW6Rn_KQbijWfijQjo6w03tygP_ba6LnjJlMp-TfODDB72hr9599T82FKa04XJb21TgEIlsfDmtcFHkX9cP2gj2y6bYaqv5zJy5NF_xXiVCBUPAfHi-zuYFwtcWKTQdhlbnVTJiEBiMC4WHtToF_8ziBSQCE5LvD7yivIlubBMq7Bl4veZiK8eb9HlaMfFAZAeDwNLZK7aqDQisRq9TfqvulB48irVVgt_FzB9KFOLmUhM5qXjhf-Q-KNfIfhTyDQTWGjytJjbrIfgAqMrYtPVIssvDflp5lNBS_Bz9XplmsZSV7NfsWVzZDtUGc_I7Ys-9_0m00]--></g></svg>