<?plantuml 1.2026.2beta3?><svg xmlns="http://www.w3.org/2000/svg" xmlns:xlink="http://www.w3.org/1999/xlink" contentStyleType="text/css" data-diagram-type="SEQUENCE" height="643px" preserveAspectRatio="none" style="width:1383px;height:643px;background:#FFFFFF;" version="1.1" viewBox="0 0 1383 643" width="1383px" zoomAndPan="magnify"><title>Modificaci&#243;n de Medicamentos</title><defs/><g><text fill="#000000" font-family="sans-serif" font-size="14" font-weight="bold" lengthAdjust="spacing" textLength="243.6396" x="568.9941" y="27.9951">Modificaci&#243;n de Medicamentos</text><g><title>Administrador.Admin</title><rect fill="#000000" fill-opacity="0.00000" height="517.7969" width="8" x="78.8306" y="118.5938"/><line style="stroke:#181818;stroke-width:0.5;stroke-dasharray:5,5;" x1="82.3306" x2="82.3306" y1="118.5938" y2="636.3906"/></g><g><title>gc.FarmaciaControlador</title><rect fill="#000000" fill-opacity="0.00000" height="517.7969" width="8" x="597.4063" y="118.5938"/><line style="stroke:#181818;stroke-width:0.5;stroke-dasharray:5,5;" x1="600.9063" x2="600.9063" y1="118.5938" y2="636.3906"/></g><g><title/><rect fill="#FFFFFF" height="456.6641" style="stroke:#181818;stroke-width:1;" width="10" x="595.9063" y="147.7266"/></g><g><title>catMed...Singleton..</title><rect fill="#000000" fill-opacity="0.00000" height="517.7969" width="8" x="852.77" y="118.5938"/><line style="stroke:#181818;stroke-width:0.5;stroke-dasharray:5,5;" x1="856.27" x2="856.27" y1="118.5938" y2="636.3906"/></g><g><title/><rect fill="#FFFFFF" height="132.5313" style="stroke:#181818;stroke-width:1;" width="10" x="851.27" y="176.8594"/></g><g><title>listaMed.i..Medicamento</title><rect fill="#000000" fill-opacity="0.00000" height="517.7969" width="8" x="1045.6313" y="118.5938"/><line style="stroke:#181818;stroke-width:0.5;stroke-dasharray:5,5;" x1="1049.1313" x2="1049.1313" y1="118.5938" y2="636.3906"/></g><g><title/><rect fill="#FFFFFF" height="29.1328" style="stroke:#181818;stroke-width:1;" width="10" x="1044.1313" y="237.125"/></g><g><title>medEncontrado.Medicamento</title><rect fill="#000000" fill-opacity="0.00000" height="517.7969" width="8" x="1261.6733" y="118.5938"/><line style="stroke:#181818;stroke-width:0.5;stroke-dasharray:5,5;" x1="1265.1733" x2="1265.1733" y1="118.5938" y2="636.3906"/></g><g><title/><rect fill="#FFFFFF" height="29.1328" style="stroke:#181818;stroke-width:1;" width="10" x="1260.1733" y="429.5938"/></g><g><title/><rect fill="#FFFFFF" height="29.1328" style="stroke:#181818;stroke-width:1;" width="10" x="1260.1733" y="487.8594"/></g><g><title/><rect fill="#FFFFFF" height="29.1328" style="stroke:#181818;stroke-width:1;" width="10" x="1260.1733" y="546.125"/></g><text fill="#000000" font-family="sans-serif" font-size="14" lengthAdjust="spacing" textLength="148.6611" x="5" y="115.292">Administrador:Admin</text><ellipse cx="82.3306" cy="50.7969" fill="#E2E2F0" rx="8" ry="8" style="stroke:#181818;stroke-width:0.5;"/><path d="M82.3306,58.7969 L82.3306,85.7969 M69.3306,66.7969 L95.3306,66.7969 M82.3306,85.7969 L69.3306,100.7969 M82.3306,85.7969 L95.3306,100.7969" fill="none" style="stroke:#181818;stroke-width:0.5;"/><rect fill="#E2E2F0" height="30.2969" rx="2.5" ry="2.5" style="stroke:#181818;stroke-width:0.5;" width="182.7725" x="509.52" y="87.2969"/><text fill="#000000" font-family="sans-serif" font-size="14" lengthAdjust="spacing" textLength="168.7725" x="516.52" y="107.292">gc:FarmaciaControlador</text><rect fill="#E2E2F0" height="46.5938" rx="2.5" ry="2.5" style="stroke:#181818;stroke-width:0.5;" width="178.5479" x="766.9961" y="71"/><text fill="#000000" font-family="sans-serif" font-size="14" lengthAdjust="spacing" textLength="139.1592" x="786.6904" y="90.9951">catMed:&#171;Singleton&#187;</text><text fill="#000000" font-family="sans-serif" font-size="14" lengthAdjust="spacing" textLength="164.5479" x="773.9961" y="107.292">CatalogoMedicamentos</text><rect fill="#E2E2F0" height="30.2969" rx="2.5" ry="2.5" style="stroke:#181818;stroke-width:0.5;" width="187.1748" x="955.5439" y="87.2969"/><text fill="#000000" font-family="sans-serif" font-size="14" lengthAdjust="spacing" textLength="173.1748" x="962.5439" y="107.292">listaMed[i]:Medicamento</text><rect fill="#E2E2F0" height="30.2969" rx="2.5" ry="2.5" style="stroke:#181818;stroke-width:0.5;" width="224.9092" x="1152.7188" y="87.2969"/><text fill="#000000" font-family="sans-serif" font-size="14" lengthAdjust="spacing" textLength="210.9092" x="1159.7188" y="107.292">medEncontrado:Medicamento</text><polygon fill="#181818" points="583.9063,143.7266,593.9063,147.7266,583.9063,151.7266,587.9063,147.7266" style="stroke:#181818;stroke-width:1;"/><line style="stroke:#181818;stroke-width:1;" x1="82.3306" x2="589.9063" y1="147.7266" y2="147.7266"/><text fill="#000000" font-family="sans-serif" font-size="13" lengthAdjust="spacing" textLength="489.5757" x="89.3306" y="142.6606">modificarMedicamento(codBarra: int, precio: float, stock: int, stockMin: int)</text><polygon fill="#181818" points="839.27,172.8594,849.27,176.8594,839.27,180.8594,843.27,176.8594" style="stroke:#181818;stroke-width:1;"/><line style="stroke:#181818;stroke-width:1;" x1="605.9063" x2="845.27" y1="176.8594" y2="176.8594"/><text fill="#000000" font-family="sans-serif" font-size="13" lengthAdjust="spacing" textLength="226.3638" x="612.9063" y="171.7935">buscarMedicamento(codBarra: int)</text><path d="M840.27,188.8594 L916.894,188.8594 L916.894,195.9922 L906.894,205.9922 L840.27,205.9922 L840.27,188.8594" fill="#EEEEEE" style="stroke:#000000;stroke-width:1.5;"/><rect fill="none" height="85.3984" style="stroke:#000000;stroke-width:1.5;" width="342.4751" x="840.27" y="188.8594"/><text fill="#000000" font-family="sans-serif" font-size="13" font-weight="bold" lengthAdjust="spacing" textLength="31.624" x="855.27" y="201.9263">loop</text><text fill="#000000" font-family="sans-serif" font-size="11" font-weight="bold" lengthAdjust="spacing" textLength="234.8511" x="931.894" y="201.0698">[Para cada Medicamento en listaMed]</text><polygon fill="#181818" points="1032.1313,233.125,1042.1313,237.125,1032.1313,241.125,1036.1313,237.125" style="stroke:#181818;stroke-width:1;"/><line style="stroke:#181818;stroke-width:1;" x1="861.27" x2="1038.1313" y1="237.125" y2="237.125"/><text fill="#000000" font-family="sans-serif" font-size="13" lengthAdjust="spacing" textLength="112.1313" x="868.27" y="232.0591">getCodigoBarra()</text><polygon fill="#181818" points="872.27,262.2578,862.27,266.2578,872.27,270.2578,868.27,266.2578" style="stroke:#181818;stroke-width:1;"/><line style="stroke:#181818;stroke-width:1;stroke-dasharray:2,2;" x1="866.27" x2="1043.1313" y1="266.2578" y2="266.2578"/><text fill="#000000" font-family="sans-serif" font-size="13" lengthAdjust="spacing" textLength="109.8081" x="878.27" y="261.1919">&#171;codActual : int&#187;</text><polygon fill="#181818" points="616.9063,305.3906,606.9063,309.3906,616.9063,313.3906,612.9063,309.3906" style="stroke:#181818;stroke-width:1;"/><line style="stroke:#181818;stroke-width:1;stroke-dasharray:2,2;" x1="610.9063" x2="850.27" y1="309.3906" y2="309.3906"/><text fill="#000000" font-family="sans-serif" font-size="13" lengthAdjust="spacing" textLength="220.0161" x="622.9063" y="304.3247">&#171;medEncontrado : Medicamento&#187;</text><path d="M66.3306,321.3906 L130.7734,321.3906 L130.7734,328.5234 L120.7734,338.5234 L66.3306,338.5234 L66.3306,321.3906" fill="#EEEEEE" style="stroke:#000000;stroke-width:1.5;"/><rect fill="none" height="291" style="stroke:#000000;stroke-width:1.5;" width="1219.8428" x="66.3306" y="321.3906"/><text fill="#000000" font-family="sans-serif" font-size="13" font-weight="bold" lengthAdjust="spacing" textLength="19.4429" x="81.3306" y="334.4575">alt</text><text fill="#000000" font-family="sans-serif" font-size="11" font-weight="bold" lengthAdjust="spacing" textLength="206.8945" x="145.7734" y="333.6011">[No se encontr&#243; el medicamento]</text><line style="stroke:#000000;stroke-width:1;stroke-dasharray:2,2;" x1="66.3306" x2="1286.1733" y1="388.6563" y2="388.6563"/><text fill="#000000" font-family="sans-serif" font-size="11" font-weight="bold" lengthAdjust="spacing" textLength="187.1611" x="71.3306" y="400.8667">[Se encontr&#243; el Medicamento]</text><polygon fill="#181818" points="93.3306,365.6563,83.3306,369.6563,93.3306,373.6563,89.3306,369.6563" style="stroke:#181818;stroke-width:1;"/><line style="stroke:#181818;stroke-width:1;stroke-dasharray:2,2;" x1="87.3306" x2="594.9063" y1="369.6563" y2="369.6563"/><text fill="#000000" font-family="sans-serif" font-size="13" lengthAdjust="spacing" textLength="221.8506" x="99.3306" y="364.5903">"Error: El medicamento no existe"</text><polygon fill="#181818" points="1248.1733,425.5938,1258.1733,429.5938,1248.1733,433.5938,1252.1733,429.5938" style="stroke:#181818;stroke-width:1;"/><line style="stroke:#181818;stroke-width:1;" x1="605.9063" x2="1254.1733" y1="429.5938" y2="429.5938"/><text fill="#000000" font-family="sans-serif" font-size="13" lengthAdjust="spacing" textLength="203.4043" x="612.9063" y="424.5278">setPrecioUnitario(precio : float)</text><polygon fill="#181818" points="616.9063,454.7266,606.9063,458.7266,616.9063,462.7266,612.9063,458.7266" style="stroke:#181818;stroke-width:1;"/><line style="stroke:#181818;stroke-width:1;stroke-dasharray:2,2;" x1="610.9063" x2="1259.1733" y1="458.7266" y2="458.7266"/><text fill="#000000" font-family="sans-serif" font-size="13" lengthAdjust="spacing" textLength="39.6094" x="622.9063" y="453.6606">&#171;null&#187;</text><polygon fill="#181818" points="1248.1733,483.8594,1258.1733,487.8594,1248.1733,491.8594,1252.1733,487.8594" style="stroke:#181818;stroke-width:1;"/><line style="stroke:#181818;stroke-width:1;" x1="605.9063" x2="1254.1733" y1="487.8594" y2="487.8594"/><text fill="#000000" font-family="sans-serif" font-size="13" lengthAdjust="spacing" textLength="130.0825" x="612.9063" y="482.7935">setStock(stock : int)</text><polygon fill="#181818" points="616.9063,512.9922,606.9063,516.9922,616.9063,520.9922,612.9063,516.9922" style="stroke:#181818;stroke-width:1;"/><line style="stroke:#181818;stroke-width:1;stroke-dasharray:2,2;" x1="610.9063" x2="1259.1733" y1="516.9922" y2="516.9922"/><text fill="#000000" font-family="sans-serif" font-size="13" lengthAdjust="spacing" textLength="39.6094" x="622.9063" y="511.9263">&#171;null&#187;</text><polygon fill="#181818" points="1248.1733,542.125,1258.1733,546.125,1248.1733,550.125,1252.1733,546.125" style="stroke:#181818;stroke-width:1;"/><line style="stroke:#181818;stroke-width:1;" x1="605.9063" x2="1254.1733" y1="546.125" y2="546.125"/><text fill="#000000" font-family="sans-serif" font-size="13" lengthAdjust="spacing" textLength="200.4463" x="612.9063" y="541.0591">setStockMinimo(stockMin : int)</text><polygon fill="#181818" points="616.9063,571.2578,606.9063,575.2578,616.9063,579.2578,612.9063,575.2578" style="stroke:#181818;stroke-width:1;"/><line style="stroke:#181818;stroke-width:1;stroke-dasharray:2,2;" x1="610.9063" x2="1259.1733" y1="575.2578" y2="575.2578"/><text fill="#000000" font-family="sans-serif" font-size="13" lengthAdjust="spacing" textLength="39.6094" x="622.9063" y="570.1919">&#171;null&#187;</text><polygon fill="#181818" points="93.3306,600.3906,83.3306,604.3906,93.3306,608.3906,89.3306,604.3906" style="stroke:#181818;stroke-width:1;"/><line style="stroke:#181818;stroke-width:1;stroke-dasharray:2,2;" x1="87.3306" x2="594.9063" y1="604.3906" y2="604.3906"/><text fill="#000000" font-family="sans-serif" font-size="13" lengthAdjust="spacing" textLength="321.5659" x="99.3306" y="599.3247">"&#201;xito: Medicamento modificado correctamente."</text><?plantuml-src lLF1ZjCm4BtxAuQSiXBB1qHHfAKgjy9A5IVWC7NShC7nHCuK5Vw0xzbFw8ynTfFYj5fka4CKspFllNb-UJK4x7e4DlGJE1oCUhAjWJqHx-YesB8piA7Mxgr6RK_F7kHuOrfPziOpZKgXPWfGFBIzzNRaW2s5AgqAm14mVga10rjj1_GCHQUhTnXw0SGLUGxaOa-gxlIoL2CBMrNNM-ixPvXyqtpsAsHqr54k9BMVovSGJaIXx7woNwgiuImk1Fnnqz6RTkrrL2QwRdhazCFkgymT1uFxHZH31VraKiZAIqtjsqXHWVNy6ePWjAKAzevGbYEJ_ZOTfU-DzMbv5psrtv5Dz4C9lh2SHnEctM7y6qtMFBcX7D40ZnXGTbhChm-CXzaV1V9CBC8tMoECdU6LZDTHOYdlKkM5vU9XsfsxxdF9TIqI7pGVq44IsJIfEhrQSmjb_1bEpNfcc-jwSJcoaqqZg1dOF3qwXlS4ev5XKz_f6OoBrpZt_T4IhOwpfwkje5Y78666zQ8SlFXs5DTCePHn0hozmjwyXDrCwH7iqV1ZoiD7Rnc3fV8S3vZoSUNobBguDq5adlY3SvEbcG5Pomi2jZ5rPSeUJE7vJwGITTjJESV-NxBdztdwTRHCYz1S_bn9awOWTy3fmBmfhj7ZpoZ9_0q0?></g></svg>