<svg xmlns="http://www.w3.org/2000/svg" xmlns:xlink="http://www.w3.org/1999/xlink" contentStyleType="text/css" data-diagram-type="SEQUENCE" height="630px" preserveAspectRatio="none" style="width:1584px;height:630px;background:#FFFFFF;" version="1.1" viewBox="0 0 1584 630" width="1584px" zoomAndPan="magnify"><title>Modificaci&#243;n de Medicamentos</title><defs/><g><text fill="#000000" font-family="sans-serif" font-size="14" font-weight="bold" lengthAdjust="spacing" textLength="243.6396" x="669.4143" y="27.9951">Modificaci&#243;n de Medicamentos</text><g><title>admin.Administrador</title><rect fill="#000000" fill-opacity="0.00000" height="504.9922" width="8" x="78.3315" y="118.5938"/><line style="stroke:#181818;stroke-width:0.5;stroke-dasharray:5,5;" x1="81.8315" x2="81.8315" y1="118.5938" y2="623.5859"/></g><g><title>gc.GestionControlador</title><rect fill="#000000" fill-opacity="0.00000" height="504.9922" width="8" x="656.3721" y="118.5938"/><line style="stroke:#181818;stroke-width:0.5;stroke-dasharray:5,5;" x1="659.8721" x2="659.8721" y1="118.5938" y2="623.5859"/></g><g><title/><rect fill="#FFFFFF" height="443.8594" style="stroke:#181818;stroke-width:1;" width="10" x="654.8721" y="147.7266"/></g><g><title>catMed...Singleton..</title><rect fill="#000000" fill-opacity="0.00000" height="504.9922" width="8" x="1053.6104" y="118.5938"/><line style="stroke:#181818;stroke-width:0.5;stroke-dasharray:5,5;" x1="1057.1104" x2="1057.1104" y1="118.5938" y2="623.5859"/></g><g><title/><rect fill="#FFFFFF" height="132.5313" style="stroke:#181818;stroke-width:1;" width="10" x="1052.1104" y="176.8594"/></g><g><title>listaMed.i..Medicamento</title><rect fill="#000000" fill-opacity="0.00000" height="504.9922" width="8" x="1246.4717" y="118.5938"/><line style="stroke:#181818;stroke-width:0.5;stroke-dasharray:5,5;" x1="1249.9717" x2="1249.9717" y1="118.5938" y2="623.5859"/></g><g><title/><rect fill="#FFFFFF" height="29.1328" style="stroke:#181818;stroke-width:1;" width="10" x="1244.9717" y="237.125"/></g><g><title>medEncontrado.Medicamento</title><rect fill="#000000" fill-opacity="0.00000" height="504.9922" width="8" x="1462.5137" y="118.5938"/><line style="stroke:#181818;stroke-width:0.5;stroke-dasharray:5,5;" x1="1466.0137" x2="1466.0137" y1="118.5938" y2="623.5859"/></g><g><title/><rect fill="#FFFFFF" height="29.1328" style="stroke:#181818;stroke-width:1;" width="10" x="1461.0137" y="416.7891"/></g><g><title/><rect fill="#FFFFFF" height="29.1328" style="stroke:#181818;stroke-width:1;" width="10" x="1461.0137" y="475.0547"/></g><g><title/><rect fill="#FFFFFF" height="29.1328" style="stroke:#181818;stroke-width:1;" width="10" x="1461.0137" y="533.3203"/></g><text fill="#000000" font-family="sans-serif" font-size="14" lengthAdjust="spacing" textLength="147.6631" x="5" y="115.292">admin:Administrador</text><ellipse cx="81.8315" cy="50.7969" fill="#E2E2F0" rx="8" ry="8" style="stroke:#181818;stroke-width:0.5;"/><path d="M81.8315,58.7969 L81.8315,85.7969 M68.8315,66.7969 L94.8315,66.7969 M81.8315,85.7969 L68.8315,100.7969 M81.8315,85.7969 L94.8315,100.7969" fill="none" style="stroke:#181818;stroke-width:0.5;"/><rect fill="#E2E2F0" height="30.2969" rx="2.5" ry="2.5" style="stroke:#181818;stroke-width:0.5;" width="171.5752" x="574.0845" y="87.2969"/><text fill="#000000" font-family="sans-serif" font-size="14" lengthAdjust="spacing" textLength="157.5752" x="581.0845" y="107.292">gc:GestionControlador</text><rect fill="#E2E2F0" height="46.5938" rx="2.5" ry="2.5" style="stroke:#181818;stroke-width:0.5;" width="178.5479" x="967.8364" y="71"/><text fill="#000000" font-family="sans-serif" font-size="14" lengthAdjust="spacing" textLength="139.1592" x="987.5308" y="90.9951">catMed:&#171;Singleton&#187;</text><text fill="#000000" font-family="sans-serif" font-size="14" lengthAdjust="spacing" textLength="164.5479" x="974.8364" y="107.292">CatalogoMedicamentos</text><rect fill="#E2E2F0" height="30.2969" rx="2.5" ry="2.5" style="stroke:#181818;stroke-width:0.5;" width="187.1748" x="1156.3843" y="87.2969"/><text fill="#000000" font-family="sans-serif" font-size="14" lengthAdjust="spacing" textLength="173.1748" x="1163.3843" y="107.292">listaMed[i]:Medicamento</text><rect fill="#E2E2F0" height="30.2969" rx="2.5" ry="2.5" style="stroke:#181818;stroke-width:0.5;" width="224.9092" x="1353.5591" y="87.2969"/><text fill="#000000" font-family="sans-serif" font-size="14" lengthAdjust="spacing" textLength="210.9092" x="1360.5591" y="107.292">medEncontrado:Medicamento</text><polygon fill="#181818" points="642.8721,143.7266,652.8721,147.7266,642.8721,151.7266,646.8721,147.7266" style="stroke:#181818;stroke-width:1;"/><line style="stroke:#181818;stroke-width:1;" x1="81.8315" x2="648.8721" y1="147.7266" y2="147.7266"/><text fill="#000000" font-family="sans-serif" font-size="13" lengthAdjust="spacing" textLength="549.0405" x="88.8315" y="142.6606">modificarMedicamento(codBarra : INT, precio : DECIMAL, stock : INT, stockMin : INT)</text><polygon fill="#181818" points="1040.1104,172.8594,1050.1104,176.8594,1040.1104,180.8594,1044.1104,176.8594" style="stroke:#181818;stroke-width:1;"/><line style="stroke:#181818;stroke-width:1;" x1="664.8721" x2="1046.1104" y1="176.8594" y2="176.8594"/><text fill="#000000" font-family="sans-serif" font-size="13" lengthAdjust="spacing" textLength="235.0474" x="671.8721" y="171.7935">buscarMedicamento(codBarra : INT)</text><path d="M1041.1104,188.8594 L1117.7344,188.8594 L1117.7344,195.9922 L1107.7344,205.9922 L1041.1104,205.9922 L1041.1104,188.8594" fill="#EEEEEE" style="stroke:#000000;stroke-width:1.5;"/><rect fill="none" height="85.3984" style="stroke:#000000;stroke-width:1.5;" width="260.0664" x="1041.1104" y="188.8594"/><text fill="#000000" font-family="sans-serif" font-size="13" font-weight="bold" lengthAdjust="spacing" textLength="31.624" x="1056.1104" y="201.9263">loop</text><text fill="#000000" font-family="sans-serif" font-size="11" font-weight="bold" lengthAdjust="spacing" textLength="152.4424" x="1132.7344" y="201.0698">[hasta cod == codBarra]</text><polygon fill="#181818" points="1232.9717,233.125,1242.9717,237.125,1232.9717,241.125,1236.9717,237.125" style="stroke:#181818;stroke-width:1;"/><line style="stroke:#181818;stroke-width:1;" x1="1062.1104" x2="1238.9717" y1="237.125" y2="237.125"/><text fill="#000000" font-family="sans-serif" font-size="13" lengthAdjust="spacing" textLength="112.1313" x="1069.1104" y="232.0591">getCodigoBarra()</text><polygon fill="#181818" points="1073.1104,262.2578,1063.1104,266.2578,1073.1104,270.2578,1069.1104,266.2578" style="stroke:#181818;stroke-width:1;"/><line style="stroke:#181818;stroke-width:1;stroke-dasharray:2,2;" x1="1067.1104" x2="1243.9717" y1="266.2578" y2="266.2578"/><text fill="#000000" font-family="sans-serif" font-size="13" lengthAdjust="spacing" textLength="73.4043" x="1079.1104" y="261.1919">&#171;cod : INT&#187;</text><polygon fill="#181818" points="675.8721,305.3906,665.8721,309.3906,675.8721,313.3906,671.8721,309.3906" style="stroke:#181818;stroke-width:1;"/><line style="stroke:#181818;stroke-width:1;stroke-dasharray:2,2;" x1="669.8721" x2="1051.1104" y1="309.3906" y2="309.3906"/><text fill="#000000" font-family="sans-serif" font-size="13" lengthAdjust="spacing" textLength="363.2383" x="681.8721" y="304.3247">&#171;NULL O medEncontrado : Object Type : Medicamento&#187;</text><path d="M65.8315,321.3906 L130.2744,321.3906 L130.2744,328.5234 L120.2744,338.5234 L65.8315,338.5234 L65.8315,321.3906" fill="#EEEEEE" style="stroke:#000000;stroke-width:1.5;"/><rect fill="none" height="278.1953" style="stroke:#000000;stroke-width:1.5;" width="1421.1821" x="65.8315" y="321.3906"/><text fill="#000000" font-family="sans-serif" font-size="13" font-weight="bold" lengthAdjust="spacing" textLength="19.4429" x="80.8315" y="334.4575">alt</text><text fill="#000000" font-family="sans-serif" font-size="11" font-weight="bold" lengthAdjust="spacing" textLength="156.938" x="145.2744" y="333.6011">[medEncontrado == null]</text><line style="stroke:#000000;stroke-width:1;stroke-dasharray:2,2;" x1="65.8315" x2="1487.0137" y1="388.6563" y2="388.6563"/><polygon fill="#181818" points="92.8315,365.6563,82.8315,369.6563,92.8315,373.6563,88.8315,369.6563" style="stroke:#181818;stroke-width:1;"/><line style="stroke:#181818;stroke-width:1;stroke-dasharray:2,2;" x1="86.8315" x2="653.8721" y1="369.6563" y2="369.6563"/><text fill="#000000" font-family="sans-serif" font-size="13" lengthAdjust="spacing" textLength="221.8506" x="98.8315" y="364.5903">"Error: El medicamento no existe"</text><polygon fill="#181818" points="1449.0137,412.7891,1459.0137,416.7891,1449.0137,420.7891,1453.0137,416.7891" style="stroke:#181818;stroke-width:1;"/><line style="stroke:#181818;stroke-width:1;" x1="664.8721" x2="1455.0137" y1="416.7891" y2="416.7891"/><text fill="#000000" font-family="sans-serif" font-size="13" lengthAdjust="spacing" textLength="232.686" x="671.8721" y="411.7231">setPrecioUnitario(precio : DECIMAL)</text><polygon fill="#181818" points="675.8721,441.9219,665.8721,445.9219,675.8721,449.9219,671.8721,445.9219" style="stroke:#181818;stroke-width:1;"/><line style="stroke:#181818;stroke-width:1;stroke-dasharray:2,2;" x1="669.8721" x2="1460.0137" y1="445.9219" y2="445.9219"/><text fill="#000000" font-family="sans-serif" font-size="13" lengthAdjust="spacing" textLength="49.6323" x="681.8721" y="440.856">&#171;NULL&#187;</text><polygon fill="#181818" points="1449.0137,471.0547,1459.0137,475.0547,1449.0137,479.0547,1453.0137,475.0547" style="stroke:#181818;stroke-width:1;"/><line style="stroke:#181818;stroke-width:1;" x1="664.8721" x2="1455.0137" y1="475.0547" y2="475.0547"/><text fill="#000000" font-family="sans-serif" font-size="13" lengthAdjust="spacing" textLength="134.6338" x="671.8721" y="469.9888">setStock(stock : INT)</text><polygon fill="#181818" points="675.8721,500.1875,665.8721,504.1875,675.8721,508.1875,671.8721,504.1875" style="stroke:#181818;stroke-width:1;"/><line style="stroke:#181818;stroke-width:1;stroke-dasharray:2,2;" x1="669.8721" x2="1460.0137" y1="504.1875" y2="504.1875"/><text fill="#000000" font-family="sans-serif" font-size="13" lengthAdjust="spacing" textLength="49.6323" x="681.8721" y="499.1216">&#171;NULL&#187;</text><polygon fill="#181818" points="1449.0137,529.3203,1459.0137,533.3203,1449.0137,537.3203,1453.0137,533.3203" style="stroke:#181818;stroke-width:1;"/><line style="stroke:#181818;stroke-width:1;" x1="664.8721" x2="1455.0137" y1="533.3203" y2="533.3203"/><text fill="#000000" font-family="sans-serif" font-size="13" lengthAdjust="spacing" textLength="204.9976" x="671.8721" y="528.2544">setStockMinimo(stockMin : INT)</text><polygon fill="#181818" points="675.8721,558.4531,665.8721,562.4531,675.8721,566.4531,671.8721,562.4531" style="stroke:#181818;stroke-width:1;"/><line style="stroke:#181818;stroke-width:1;stroke-dasharray:2,2;" x1="669.8721" x2="1460.0137" y1="562.4531" y2="562.4531"/><text fill="#000000" font-family="sans-serif" font-size="13" lengthAdjust="spacing" textLength="49.6323" x="681.8721" y="557.3872">&#171;NULL&#187;</text><polygon fill="#181818" points="92.8315,587.5859,82.8315,591.5859,92.8315,595.5859,88.8315,591.5859" style="stroke:#181818;stroke-width:1;"/><line style="stroke:#181818;stroke-width:1;stroke-dasharray:2,2;" x1="86.8315" x2="653.8721" y1="591.5859" y2="591.5859"/><text fill="#000000" font-family="sans-serif" font-size="13" lengthAdjust="spacing" textLength="321.5659" x="98.8315" y="586.52">"&#201;xito: Medicamento modificado correctamente."</text><!--SRC=[lLJDZjD03BxdAKmkTAKj4XoZK2cR1XIfQLUqHKB0OJgPpGuaushYebtUW3EFmYFqnN2cIPMcWiiMSeZaiVtvvxFzR6j5KGaWXT-1x4vvzpfNS8T86tpmI5Ef8CDStsaffDx_Ci3gJEKiLieGrfud9A45N-ILDa7K_7LDLkHeVH0rk7TlAonfgRV24FY53DwgcZIQ60rPB8_6XJorb88uM126IssAKX6QoUIJYGM94Wliv-7S3-Qd42Ld8_Zre_uSz1mEkLah7iyyAfKdHZQPSLvdFgnTRBvutdDu_TIFCT9v6gUBYu2vHiDumas40AgMDDlBVoGnlsbgPdqwNrt3rYgfaQLf4gTPDBk6cb1-xTHEo1ZKoLSDq_gR8DNGn2cFd_enncsqNC3B06xMopXw1yaCicIQnb6Mp5UBYyJWRd1F3fF1XMnszL-RqgkodIQlHDp2lU0n0hPbfg1pyO2_5fg3TEF4I8MYc1aeqDcDhfpb4VauT-wrynhtymp39fPBQJ9nThawzrVcWE5rINJqX-5yFPl10aw6cHKykqeIh1wtYgLU7pXABq9N-mLPVXN0-sYMJgCutV-SmmV85jFq3NFjv8j44YKD2cQopAuiNPEQIMXOSdiIW9zOYpQ0f6nykZQ0GL0FV3EKxwcoLaVFIRlvx5ahkdMRipQQXDKu6YxIWE_sPZHlBSY0g7EAUov_I67PREUejx3_BIYV15tXQ7WU_aNqFb_x7m-Qy6HeZsUEgPPecGLo2lN27wBppU9j-Gq0]--></g></svg>