<?xml version="1.0" encoding="us-ascii" standalone="no"?><svg xmlns="http://www.w3.org/2000/svg" xmlns:xlink="http://www.w3.org/1999/xlink" contentStyleType="text/css" height="1647px" preserveAspectRatio="none" style="width:865px;height:1647px;background:#FFFFFF;" version="1.1" viewBox="0 0 865 1647" width="865px" zoomAndPan="magnify"><defs/><g><!--class Medicamento--><g id="elem_Medicamento"><rect codeLine="7" fill="#F1F1F1" height="153.6563" id="Medicamento" rx="2.5" ry="2.5" style="stroke:#181818;stroke-width:0.5;" width="198" x="263" y="1487"/><ellipse cx="320.75" cy="1503" fill="#ADD1B2" rx="11" ry="11" style="stroke:#181818;stroke-width:1.0;"/><path d="M323.5156,1498.875 Q323.6719,1498.6563 323.8594,1498.5469 Q324.0469,1498.4375 324.2656,1498.4375 Q324.6406,1498.4375 324.875,1498.7031 Q325.1094,1498.9531 325.1094,1499.5625 L325.1094,1501.0156 Q325.1094,1501.625 324.875,1501.8906 Q324.6406,1502.1563 324.2656,1502.1563 Q323.9219,1502.1563 323.7188,1501.9531 Q323.5156,1501.7656 323.4063,1501.25 Q323.3594,1500.8906 323.1719,1500.7031 Q322.8438,1500.3281 322.2344,1500.1094 Q321.625,1499.8906 321,1499.8906 Q320.2344,1499.8906 319.5938,1500.2188 Q318.9688,1500.5469 318.4688,1501.2969 Q317.9844,1502.0469 317.9844,1503.0781 L317.9844,1504.1719 Q317.9844,1505.4063 318.875,1506.2344 Q319.7656,1507.0469 321.3594,1507.0469 Q322.2969,1507.0469 322.9531,1506.7969 Q323.3438,1506.6406 323.7656,1506.2031 Q324.0313,1505.9375 324.1719,1505.8594 Q324.3281,1505.7813 324.5313,1505.7813 Q324.8594,1505.7813 325.1094,1506.0469 Q325.375,1506.2969 325.375,1506.6406 Q325.375,1506.9844 325.0313,1507.3906 Q324.5313,1507.9688 323.7344,1508.2969 Q322.6563,1508.75 321.3594,1508.75 Q319.8438,1508.75 318.6406,1508.125 Q317.6563,1507.625 316.9688,1506.5625 Q316.2813,1505.4844 316.2813,1504.2031 L316.2813,1503.0469 Q316.2813,1501.7188 316.8906,1500.5781 Q317.5156,1499.4219 318.6094,1498.8125 Q319.7031,1498.1875 320.9375,1498.1875 Q321.6719,1498.1875 322.3125,1498.3594 Q322.9688,1498.5156 323.5156,1498.875 Z " fill="#000000"/><text fill="#000000" font-family="sans-serif" font-size="12" lengthAdjust="spacing" textLength="74" x="341.25" y="1507.9102">Medicamento</text><line style="stroke:#181818;stroke-width:0.5;" x1="264" x2="460" y1="1519" y2="1519"/><text fill="#000000" font-family="sans-serif" font-size="14" lengthAdjust="spacing" textLength="99" x="269" y="1537.5332">+codBarra : INT</text><text fill="#000000" font-family="sans-serif" font-size="14" lengthAdjust="spacing" textLength="153" x="269" y="1555.1426">nombreMed : VARCHAR</text><text fill="#000000" font-family="sans-serif" font-size="14" lengthAdjust="spacing" textLength="146" x="269" y="1572.752">laboratorio : VARCHAR</text><text fill="#000000" font-family="sans-serif" font-size="14" lengthAdjust="spacing" textLength="186" x="269" y="1590.3613">precioMedUnitario : DECIMAL</text><text fill="#000000" font-family="sans-serif" font-size="14" lengthAdjust="spacing" textLength="66" x="269" y="1607.9707">stock : INT</text><line style="stroke:#181818;stroke-width:0.5;" x1="264" x2="460" y1="1615.0469" y2="1615.0469"/><text fill="#000000" font-family="sans-serif" font-size="14" lengthAdjust="spacing" textLength="129" x="269" y="1633.5801">(descripcion) : TEXT</text></g><!--class Usuario--><g id="elem_Usuario"><rect codeLine="16" fill="#F1F1F1" height="118.4375" id="Usuario" rx="2.5" ry="2.5" style="stroke:#181818;stroke-width:0.5;" width="303" x="71.5" y="7"/><ellipse cx="196.75" cy="23" fill="#ADD1B2" rx="11" ry="11" style="stroke:#181818;stroke-width:1.0;"/><path d="M199.5156,18.875 Q199.6719,18.6563 199.8594,18.5469 Q200.0469,18.4375 200.2656,18.4375 Q200.6406,18.4375 200.875,18.7031 Q201.1094,18.9531 201.1094,19.5625 L201.1094,21.0156 Q201.1094,21.625 200.875,21.8906 Q200.6406,22.1563 200.2656,22.1563 Q199.9219,22.1563 199.7188,21.9531 Q199.5156,21.7656 199.4063,21.25 Q199.3594,20.8906 199.1719,20.7031 Q198.8438,20.3281 198.2344,20.1094 Q197.625,19.8906 197,19.8906 Q196.2344,19.8906 195.5938,20.2188 Q194.9688,20.5469 194.4688,21.2969 Q193.9844,22.0469 193.9844,23.0781 L193.9844,24.1719 Q193.9844,25.4063 194.875,26.2344 Q195.7656,27.0469 197.3594,27.0469 Q198.2969,27.0469 198.9531,26.7969 Q199.3438,26.6406 199.7656,26.2031 Q200.0313,25.9375 200.1719,25.8594 Q200.3281,25.7813 200.5313,25.7813 Q200.8594,25.7813 201.1094,26.0469 Q201.375,26.2969 201.375,26.6406 Q201.375,26.9844 201.0313,27.3906 Q200.5313,27.9688 199.7344,28.2969 Q198.6563,28.75 197.3594,28.75 Q195.8438,28.75 194.6406,28.125 Q193.6563,27.625 192.9688,26.5625 Q192.2813,25.4844 192.2813,24.2031 L192.2813,23.0469 Q192.2813,21.7188 192.8906,20.5781 Q193.5156,19.4219 194.6094,18.8125 Q195.7031,18.1875 196.9375,18.1875 Q197.6719,18.1875 198.3125,18.3594 Q198.9688,18.5156 199.5156,18.875 Z " fill="#000000"/><text fill="#000000" font-family="sans-serif" font-size="12" lengthAdjust="spacing" textLength="44" x="217.25" y="27.9102">Usuario</text><line style="stroke:#181818;stroke-width:0.5;" x1="72.5" x2="373.5" y1="39" y2="39"/><text fill="#000000" font-family="sans-serif" font-size="14" lengthAdjust="spacing" textLength="174" x="77.5" y="57.5332">nombreUsuario : VARCHAR</text><text fill="#000000" font-family="sans-serif" font-size="14" lengthAdjust="spacing" textLength="149" x="77.5" y="75.1426">contrase&#241;a : VARCHAR</text><text fill="#000000" font-family="sans-serif" font-size="14" lengthAdjust="spacing" textLength="291" x="77.5" y="92.752">tipoUsuario : ENUM {administrador, empleado}</text><text fill="#000000" font-family="sans-serif" font-size="14" lengthAdjust="spacing" textLength="195" x="77.5" y="110.3613">montoTotalVendido : DECIMAL</text><line style="stroke:#181818;stroke-width:0.5;" x1="72.5" x2="373.5" y1="117.4375" y2="117.4375"/></g><!--class Empleado--><g id="elem_Empleado"><rect codeLine="23" fill="#F1F1F1" height="118.4375" id="Empleado" rx="2.5" ry="2.5" style="stroke:#181818;stroke-width:0.5;" width="207" x="119.5" y="203"/><ellipse cx="190.25" cy="219" fill="#ADD1B2" rx="11" ry="11" style="stroke:#181818;stroke-width:1.0;"/><path d="M193.0156,214.875 Q193.1719,214.6563 193.3594,214.5469 Q193.5469,214.4375 193.7656,214.4375 Q194.1406,214.4375 194.375,214.7031 Q194.6094,214.9531 194.6094,215.5625 L194.6094,217.0156 Q194.6094,217.625 194.375,217.8906 Q194.1406,218.1563 193.7656,218.1563 Q193.4219,218.1563 193.2188,217.9531 Q193.0156,217.7656 192.9063,217.25 Q192.8594,216.8906 192.6719,216.7031 Q192.3438,216.3281 191.7344,216.1094 Q191.125,215.8906 190.5,215.8906 Q189.7344,215.8906 189.0938,216.2188 Q188.4688,216.5469 187.9688,217.2969 Q187.4844,218.0469 187.4844,219.0781 L187.4844,220.1719 Q187.4844,221.4063 188.375,222.2344 Q189.2656,223.0469 190.8594,223.0469 Q191.7969,223.0469 192.4531,222.7969 Q192.8438,222.6406 193.2656,222.2031 Q193.5313,221.9375 193.6719,221.8594 Q193.8281,221.7813 194.0313,221.7813 Q194.3594,221.7813 194.6094,222.0469 Q194.875,222.2969 194.875,222.6406 Q194.875,222.9844 194.5313,223.3906 Q194.0313,223.9688 193.2344,224.2969 Q192.1563,224.75 190.8594,224.75 Q189.3438,224.75 188.1406,224.125 Q187.1563,223.625 186.4688,222.5625 Q185.7813,221.4844 185.7813,220.2031 L185.7813,219.0469 Q185.7813,217.7188 186.3906,216.5781 Q187.0156,215.4219 188.1094,214.8125 Q189.2031,214.1875 190.4375,214.1875 Q191.1719,214.1875 191.8125,214.3594 Q192.4688,214.5156 193.0156,214.875 Z " fill="#000000"/><text fill="#000000" font-family="sans-serif" font-size="12" lengthAdjust="spacing" textLength="57" x="210.75" y="223.9102">Empleado</text><line style="stroke:#181818;stroke-width:0.5;" x1="120.5" x2="325.5" y1="235" y2="235"/><text fill="#000000" font-family="sans-serif" font-size="14" lengthAdjust="spacing" textLength="126" x="125.5" y="253.5332">nombre : VARCHAR</text><text fill="#000000" font-family="sans-serif" font-size="14" lengthAdjust="spacing" textLength="127" x="125.5" y="271.1426">apellido : VARCHAR</text><text fill="#000000" font-family="sans-serif" font-size="14" lengthAdjust="spacing" textLength="114" x="125.5" y="288.752">sueldo : DECIMAL</text><text fill="#000000" font-family="sans-serif" font-size="14" lengthAdjust="spacing" textLength="195" x="125.5" y="306.3613">montoTotalVendido : DECIMAL</text><line style="stroke:#181818;stroke-width:0.5;" x1="120.5" x2="325.5" y1="313.4375" y2="313.4375"/></g><!--class Asistencia--><g id="elem_Asistencia"><rect codeLine="30" fill="#F1F1F1" height="118.4375" id="Asistencia" rx="2.5" ry="2.5" style="stroke:#181818;stroke-width:0.5;" width="330" x="7" y="417"/><ellipse cx="139.25" cy="433" fill="#ADD1B2" rx="11" ry="11" style="stroke:#181818;stroke-width:1.0;"/><path d="M142.0156,428.875 Q142.1719,428.6563 142.3594,428.5469 Q142.5469,428.4375 142.7656,428.4375 Q143.1406,428.4375 143.375,428.7031 Q143.6094,428.9531 143.6094,429.5625 L143.6094,431.0156 Q143.6094,431.625 143.375,431.8906 Q143.1406,432.1563 142.7656,432.1563 Q142.4219,432.1563 142.2188,431.9531 Q142.0156,431.7656 141.9063,431.25 Q141.8594,430.8906 141.6719,430.7031 Q141.3438,430.3281 140.7344,430.1094 Q140.125,429.8906 139.5,429.8906 Q138.7344,429.8906 138.0938,430.2188 Q137.4688,430.5469 136.9688,431.2969 Q136.4844,432.0469 136.4844,433.0781 L136.4844,434.1719 Q136.4844,435.4063 137.375,436.2344 Q138.2656,437.0469 139.8594,437.0469 Q140.7969,437.0469 141.4531,436.7969 Q141.8438,436.6406 142.2656,436.2031 Q142.5313,435.9375 142.6719,435.8594 Q142.8281,435.7813 143.0313,435.7813 Q143.3594,435.7813 143.6094,436.0469 Q143.875,436.2969 143.875,436.6406 Q143.875,436.9844 143.5313,437.3906 Q143.0313,437.9688 142.2344,438.2969 Q141.1563,438.75 139.8594,438.75 Q138.3438,438.75 137.1406,438.125 Q136.1563,437.625 135.4688,436.5625 Q134.7813,435.4844 134.7813,434.2031 L134.7813,433.0469 Q134.7813,431.7188 135.3906,430.5781 Q136.0156,429.4219 137.1094,428.8125 Q138.2031,428.1875 139.4375,428.1875 Q140.1719,428.1875 140.8125,428.3594 Q141.4688,428.5156 142.0156,428.875 Z " fill="#000000"/><text fill="#000000" font-family="sans-serif" font-size="12" lengthAdjust="spacing" textLength="57" x="159.75" y="437.9102">Asistencia</text><line style="stroke:#181818;stroke-width:0.5;" x1="8" x2="336" y1="449" y2="449"/><text fill="#000000" font-family="sans-serif" font-size="14" lengthAdjust="spacing" textLength="84" x="13" y="467.5332">fecha : DATE</text><text fill="#000000" font-family="sans-serif" font-size="14" lengthAdjust="spacing" textLength="318" x="13" y="485.1426">estado : ENUM {presente, ausente, tarde, licencia}</text><line style="stroke:#181818;stroke-width:0.5;" x1="8" x2="336" y1="492.2188" y2="492.2188"/><text fill="#000000" font-family="sans-serif" font-size="14" lengthAdjust="spacing" textLength="133" x="13" y="510.752">(horaEntrada) : TIME</text><text fill="#000000" font-family="sans-serif" font-size="14" lengthAdjust="spacing" textLength="122" x="13" y="528.3613">(horaSalida) : TIME</text></g><!--class Cliente--><g id="elem_Cliente"><rect codeLine="37" fill="#F1F1F1" height="171.2656" id="Cliente" rx="2.5" ry="2.5" style="stroke:#181818;stroke-width:0.5;" width="209" x="322.5" y="631"/><ellipse cx="403.25" cy="647" fill="#ADD1B2" rx="11" ry="11" style="stroke:#181818;stroke-width:1.0;"/><path d="M406.0156,642.875 Q406.1719,642.6563 406.3594,642.5469 Q406.5469,642.4375 406.7656,642.4375 Q407.1406,642.4375 407.375,642.7031 Q407.6094,642.9531 407.6094,643.5625 L407.6094,645.0156 Q407.6094,645.625 407.375,645.8906 Q407.1406,646.1563 406.7656,646.1563 Q406.4219,646.1563 406.2188,645.9531 Q406.0156,645.7656 405.9063,645.25 Q405.8594,644.8906 405.6719,644.7031 Q405.3438,644.3281 404.7344,644.1094 Q404.125,643.8906 403.5,643.8906 Q402.7344,643.8906 402.0938,644.2188 Q401.4688,644.5469 400.9688,645.2969 Q400.4844,646.0469 400.4844,647.0781 L400.4844,648.1719 Q400.4844,649.4063 401.375,650.2344 Q402.2656,651.0469 403.8594,651.0469 Q404.7969,651.0469 405.4531,650.7969 Q405.8438,650.6406 406.2656,650.2031 Q406.5313,649.9375 406.6719,649.8594 Q406.8281,649.7813 407.0313,649.7813 Q407.3594,649.7813 407.6094,650.0469 Q407.875,650.2969 407.875,650.6406 Q407.875,650.9844 407.5313,651.3906 Q407.0313,651.9688 406.2344,652.2969 Q405.1563,652.75 403.8594,652.75 Q402.3438,652.75 401.1406,652.125 Q400.1563,651.625 399.4688,650.5625 Q398.7813,649.4844 398.7813,648.2031 L398.7813,647.0469 Q398.7813,645.7188 399.3906,644.5781 Q400.0156,643.4219 401.1094,642.8125 Q402.2031,642.1875 403.4375,642.1875 Q404.1719,642.1875 404.8125,642.3594 Q405.4688,642.5156 406.0156,642.875 Z " fill="#000000"/><text fill="#000000" font-family="sans-serif" font-size="12" lengthAdjust="spacing" textLength="39" x="423.75" y="651.9102">Cliente</text><line style="stroke:#181818;stroke-width:0.5;" x1="323.5" x2="530.5" y1="663" y2="663"/><text fill="#000000" font-family="sans-serif" font-size="14" lengthAdjust="spacing" textLength="170" x="328.5" y="681.5332">nombreCliente : VARCHAR</text><text fill="#000000" font-family="sans-serif" font-size="14" lengthAdjust="spacing" textLength="171" x="328.5" y="699.1426">apellidoCliente : VARCHAR</text><text fill="#000000" font-family="sans-serif" font-size="14" lengthAdjust="spacing" textLength="97" x="328.5" y="716.752">dni : VARCHAR</text><text fill="#000000" font-family="sans-serif" font-size="14" lengthAdjust="spacing" textLength="158" x="328.5" y="734.3613">esFrecuente : BOOLEAN</text><line style="stroke:#181818;stroke-width:0.5;" x1="323.5" x2="530.5" y1="741.4375" y2="741.4375"/><text fill="#000000" font-family="sans-serif" font-size="14" lengthAdjust="spacing" textLength="121" x="328.5" y="759.9707">(email) : VARCHAR</text><text fill="#000000" font-family="sans-serif" font-size="14" lengthAdjust="spacing" textLength="135" x="328.5" y="777.5801">(numTel) : VARCHAR</text><text fill="#000000" font-family="sans-serif" font-size="14" lengthAdjust="spacing" textLength="197" x="328.5" y="795.1895">(saldoCtaCorriente) : DECIMAL</text></g><!--class ObraSocial--><g id="elem_ObraSocial"><rect codeLine="47" fill="#F1F1F1" height="136.0469" id="ObraSocial" rx="2.5" ry="2.5" style="stroke:#181818;stroke-width:0.5;" width="305" x="51.5" y="880"/><ellipse cx="169.25" cy="896" fill="#ADD1B2" rx="11" ry="11" style="stroke:#181818;stroke-width:1.0;"/><path d="M172.0156,891.875 Q172.1719,891.6563 172.3594,891.5469 Q172.5469,891.4375 172.7656,891.4375 Q173.1406,891.4375 173.375,891.7031 Q173.6094,891.9531 173.6094,892.5625 L173.6094,894.0156 Q173.6094,894.625 173.375,894.8906 Q173.1406,895.1563 172.7656,895.1563 Q172.4219,895.1563 172.2188,894.9531 Q172.0156,894.7656 171.9063,894.25 Q171.8594,893.8906 171.6719,893.7031 Q171.3438,893.3281 170.7344,893.1094 Q170.125,892.8906 169.5,892.8906 Q168.7344,892.8906 168.0938,893.2188 Q167.4688,893.5469 166.9688,894.2969 Q166.4844,895.0469 166.4844,896.0781 L166.4844,897.1719 Q166.4844,898.4063 167.375,899.2344 Q168.2656,900.0469 169.8594,900.0469 Q170.7969,900.0469 171.4531,899.7969 Q171.8438,899.6406 172.2656,899.2031 Q172.5313,898.9375 172.6719,898.8594 Q172.8281,898.7813 173.0313,898.7813 Q173.3594,898.7813 173.6094,899.0469 Q173.875,899.2969 173.875,899.6406 Q173.875,899.9844 173.5313,900.3906 Q173.0313,900.9688 172.2344,901.2969 Q171.1563,901.75 169.8594,901.75 Q168.3438,901.75 167.1406,901.125 Q166.1563,900.625 165.4688,899.5625 Q164.7813,898.4844 164.7813,897.2031 L164.7813,896.0469 Q164.7813,894.7188 165.3906,893.5781 Q166.0156,892.4219 167.1094,891.8125 Q168.2031,891.1875 169.4375,891.1875 Q170.1719,891.1875 170.8125,891.3594 Q171.4688,891.5156 172.0156,891.875 Z " fill="#000000"/><text fill="#000000" font-family="sans-serif" font-size="12" lengthAdjust="spacing" textLength="61" x="189.75" y="900.9102">ObraSocial</text><line style="stroke:#181818;stroke-width:0.5;" x1="52.5" x2="355.5" y1="912" y2="912"/><text fill="#000000" font-family="sans-serif" font-size="14" lengthAdjust="spacing" textLength="175" x="57.5" y="930.5332">nomObraSocial : VARCHAR</text><text fill="#000000" font-family="sans-serif" font-size="14" lengthAdjust="spacing" textLength="162" x="57.5" y="948.1426">fechaPrescripcion : DATE</text><text fill="#000000" font-family="sans-serif" font-size="14" lengthAdjust="spacing" textLength="137" x="57.5" y="965.752">fechaVta : DATETIME</text><text fill="#000000" font-family="sans-serif" font-size="14" lengthAdjust="spacing" textLength="180" x="57.5" y="983.3613">matriculaMedico : VARCHAR</text><text fill="#000000" font-family="sans-serif" font-size="14" lengthAdjust="spacing" textLength="293" x="57.5" y="1000.9707">productosRecetados : VARCHAR ENUM {1...X}</text><line style="stroke:#181818;stroke-width:0.5;" x1="52.5" x2="355.5" y1="1008.0469" y2="1008.0469"/></g><!--class Receta--><g id="elem_Receta"><rect codeLine="56" fill="#F1F1F1" height="136.0469" id="Receta" rx="2.5" ry="2.5" style="stroke:#181818;stroke-width:0.5;" width="199" x="209.5" y="1094"/><ellipse cx="285.25" cy="1110" fill="#ADD1B2" rx="11" ry="11" style="stroke:#181818;stroke-width:1.0;"/><path d="M288.0156,1105.875 Q288.1719,1105.6563 288.3594,1105.5469 Q288.5469,1105.4375 288.7656,1105.4375 Q289.1406,1105.4375 289.375,1105.7031 Q289.6094,1105.9531 289.6094,1106.5625 L289.6094,1108.0156 Q289.6094,1108.625 289.375,1108.8906 Q289.1406,1109.1563 288.7656,1109.1563 Q288.4219,1109.1563 288.2188,1108.9531 Q288.0156,1108.7656 287.9063,1108.25 Q287.8594,1107.8906 287.6719,1107.7031 Q287.3438,1107.3281 286.7344,1107.1094 Q286.125,1106.8906 285.5,1106.8906 Q284.7344,1106.8906 284.0938,1107.2188 Q283.4688,1107.5469 282.9688,1108.2969 Q282.4844,1109.0469 282.4844,1110.0781 L282.4844,1111.1719 Q282.4844,1112.4063 283.375,1113.2344 Q284.2656,1114.0469 285.8594,1114.0469 Q286.7969,1114.0469 287.4531,1113.7969 Q287.8438,1113.6406 288.2656,1113.2031 Q288.5313,1112.9375 288.6719,1112.8594 Q288.8281,1112.7813 289.0313,1112.7813 Q289.3594,1112.7813 289.6094,1113.0469 Q289.875,1113.2969 289.875,1113.6406 Q289.875,1113.9844 289.5313,1114.3906 Q289.0313,1114.9688 288.2344,1115.2969 Q287.1563,1115.75 285.8594,1115.75 Q284.3438,1115.75 283.1406,1115.125 Q282.1563,1114.625 281.4688,1113.5625 Q280.7813,1112.4844 280.7813,1111.2031 L280.7813,1110.0469 Q280.7813,1108.7188 281.3906,1107.5781 Q282.0156,1106.4219 283.1094,1105.8125 Q284.2031,1105.1875 285.4375,1105.1875 Q286.1719,1105.1875 286.8125,1105.3594 Q287.4688,1105.5156 288.0156,1105.875 Z " fill="#000000"/><text fill="#000000" font-family="sans-serif" font-size="12" lengthAdjust="spacing" textLength="39" x="305.75" y="1114.9102">Receta</text><line style="stroke:#181818;stroke-width:0.5;" x1="210.5" x2="407.5" y1="1126" y2="1126"/><text fill="#000000" font-family="sans-serif" font-size="14" lengthAdjust="spacing" textLength="97" x="215.5" y="1144.5332">+idReceta : INT</text><text fill="#000000" font-family="sans-serif" font-size="14" lengthAdjust="spacing" textLength="162" x="215.5" y="1162.1426">fechaPrescripcion : DATE</text><text fill="#000000" font-family="sans-serif" font-size="14" lengthAdjust="spacing" textLength="180" x="215.5" y="1179.752">matriculaMedico : VARCHAR</text><line style="stroke:#181818;stroke-width:0.5;" x1="210.5" x2="407.5" y1="1186.8281" y2="1186.8281"/><text fill="#000000" font-family="sans-serif" font-size="14" lengthAdjust="spacing" textLength="184" x="215.5" y="1205.3613">numReceta (opt) : VARCHAR</text><text fill="#000000" font-family="sans-serif" font-size="14" lengthAdjust="spacing" textLength="187" x="215.5" y="1222.9707">fechaLimite (opt) : DATETIME</text></g><!--class Venta--><g id="elem_Venta"><rect codeLine="64" fill="#F1F1F1" height="153.6563" id="Venta" rx="2.5" ry="2.5" style="stroke:#181818;stroke-width:0.5;" width="428" x="372" y="399"/><ellipse cx="566.25" cy="415" fill="#ADD1B2" rx="11" ry="11" style="stroke:#181818;stroke-width:1.0;"/><path d="M569.0156,410.875 Q569.1719,410.6563 569.3594,410.5469 Q569.5469,410.4375 569.7656,410.4375 Q570.1406,410.4375 570.375,410.7031 Q570.6094,410.9531 570.6094,411.5625 L570.6094,413.0156 Q570.6094,413.625 570.375,413.8906 Q570.1406,414.1563 569.7656,414.1563 Q569.4219,414.1563 569.2188,413.9531 Q569.0156,413.7656 568.9063,413.25 Q568.8594,412.8906 568.6719,412.7031 Q568.3438,412.3281 567.7344,412.1094 Q567.125,411.8906 566.5,411.8906 Q565.7344,411.8906 565.0938,412.2188 Q564.4688,412.5469 563.9688,413.2969 Q563.4844,414.0469 563.4844,415.0781 L563.4844,416.1719 Q563.4844,417.4063 564.375,418.2344 Q565.2656,419.0469 566.8594,419.0469 Q567.7969,419.0469 568.4531,418.7969 Q568.8438,418.6406 569.2656,418.2031 Q569.5313,417.9375 569.6719,417.8594 Q569.8281,417.7813 570.0313,417.7813 Q570.3594,417.7813 570.6094,418.0469 Q570.875,418.2969 570.875,418.6406 Q570.875,418.9844 570.5313,419.3906 Q570.0313,419.9688 569.2344,420.2969 Q568.1563,420.75 566.8594,420.75 Q565.3438,420.75 564.1406,420.125 Q563.1563,419.625 562.4688,418.5625 Q561.7813,417.4844 561.7813,416.2031 L561.7813,415.0469 Q561.7813,413.7188 562.3906,412.5781 Q563.0156,411.4219 564.1094,410.8125 Q565.2031,410.1875 566.4375,410.1875 Q567.1719,410.1875 567.8125,410.3594 Q568.4688,410.5156 569.0156,410.875 Z " fill="#000000"/><text fill="#000000" font-family="sans-serif" font-size="12" lengthAdjust="spacing" textLength="31" x="586.75" y="419.9102">Venta</text><line style="stroke:#181818;stroke-width:0.5;" x1="373" x2="799" y1="431" y2="431"/><text fill="#000000" font-family="sans-serif" font-size="14" lengthAdjust="spacing" textLength="242" x="378" y="449.5332">tipoVta : ENUM {particular, obraSocial}</text><text fill="#000000" font-family="sans-serif" font-size="14" lengthAdjust="spacing" textLength="137" x="378" y="467.1426">fechaVta : DATETIME</text><text fill="#000000" font-family="sans-serif" font-size="14" lengthAdjust="spacing" textLength="143" x="378" y="484.752">montoTotal : DECIMAL</text><text fill="#000000" font-family="sans-serif" font-size="14" lengthAdjust="spacing" textLength="416" x="378" y="502.3613">tipoPago : ENUM {efectivo, debito, credito, transferencia, billetera}</text><text fill="#000000" font-family="sans-serif" font-size="14" lengthAdjust="spacing" textLength="91" x="378" y="519.9707">Cliente : Class</text><line style="stroke:#181818;stroke-width:0.5;" x1="373" x2="799" y1="527.0469" y2="527.0469"/><text fill="#000000" font-family="sans-serif" font-size="14" lengthAdjust="spacing" textLength="85" x="378" y="545.5801">(cuotas) : INT</text></g><!--class DetalleVenta--><g id="elem_DetalleVenta"><rect codeLine="73" fill="#F1F1F1" height="100.8281" id="DetalleVenta" rx="2.5" ry="2.5" style="stroke:#181818;stroke-width:0.5;" width="227" x="248.5" y="1308"/><ellipse cx="322.75" cy="1324" fill="#ADD1B2" rx="11" ry="11" style="stroke:#181818;stroke-width:1.0;"/><path d="M325.5156,1319.875 Q325.6719,1319.6563 325.8594,1319.5469 Q326.0469,1319.4375 326.2656,1319.4375 Q326.6406,1319.4375 326.875,1319.7031 Q327.1094,1319.9531 327.1094,1320.5625 L327.1094,1322.0156 Q327.1094,1322.625 326.875,1322.8906 Q326.6406,1323.1563 326.2656,1323.1563 Q325.9219,1323.1563 325.7188,1322.9531 Q325.5156,1322.7656 325.4063,1322.25 Q325.3594,1321.8906 325.1719,1321.7031 Q324.8438,1321.3281 324.2344,1321.1094 Q323.625,1320.8906 323,1320.8906 Q322.2344,1320.8906 321.5938,1321.2188 Q320.9688,1321.5469 320.4688,1322.2969 Q319.9844,1323.0469 319.9844,1324.0781 L319.9844,1325.1719 Q319.9844,1326.4063 320.875,1327.2344 Q321.7656,1328.0469 323.3594,1328.0469 Q324.2969,1328.0469 324.9531,1327.7969 Q325.3438,1327.6406 325.7656,1327.2031 Q326.0313,1326.9375 326.1719,1326.8594 Q326.3281,1326.7813 326.5313,1326.7813 Q326.8594,1326.7813 327.1094,1327.0469 Q327.375,1327.2969 327.375,1327.6406 Q327.375,1327.9844 327.0313,1328.3906 Q326.5313,1328.9688 325.7344,1329.2969 Q324.6563,1329.75 323.3594,1329.75 Q321.8438,1329.75 320.6406,1329.125 Q319.6563,1328.625 318.9688,1327.5625 Q318.2813,1326.4844 318.2813,1325.2031 L318.2813,1324.0469 Q318.2813,1322.7188 318.8906,1321.5781 Q319.5156,1320.4219 320.6094,1319.8125 Q321.7031,1319.1875 322.9375,1319.1875 Q323.6719,1319.1875 324.3125,1319.3594 Q324.9688,1319.5156 325.5156,1319.875 Z " fill="#000000"/><text fill="#000000" font-family="sans-serif" font-size="12" lengthAdjust="spacing" textLength="70" x="343.25" y="1328.9102">DetalleVenta</text><line style="stroke:#181818;stroke-width:0.5;" x1="249.5" x2="474.5" y1="1340" y2="1340"/><text fill="#000000" font-family="sans-serif" font-size="14" lengthAdjust="spacing" textLength="215" x="254.5" y="1358.5332">Medicamento : Class ENUM {1...X}</text><text fill="#000000" font-family="sans-serif" font-size="14" lengthAdjust="spacing" textLength="171" x="254.5" y="1376.1426">cantidad : INT ENUM {1...X}</text><text fill="#000000" font-family="sans-serif" font-size="14" lengthAdjust="spacing" textLength="142" x="254.5" y="1393.752">montoFinal : DECIMAL</text><line style="stroke:#181818;stroke-width:0.5;" x1="249.5" x2="474.5" y1="1400.8281" y2="1400.8281"/></g><!--class Ticket--><g id="elem_Ticket"><rect codeLine="79" fill="#F1F1F1" height="136.0469" id="Ticket" rx="2.5" ry="2.5" style="stroke:#181818;stroke-width:0.5;" width="219" x="639.5" y="648.5"/><ellipse cx="728.75" cy="664.5" fill="#ADD1B2" rx="11" ry="11" style="stroke:#181818;stroke-width:1.0;"/><path d="M731.5156,660.375 Q731.6719,660.1563 731.8594,660.0469 Q732.0469,659.9375 732.2656,659.9375 Q732.6406,659.9375 732.875,660.2031 Q733.1094,660.4531 733.1094,661.0625 L733.1094,662.5156 Q733.1094,663.125 732.875,663.3906 Q732.6406,663.6563 732.2656,663.6563 Q731.9219,663.6563 731.7188,663.4531 Q731.5156,663.2656 731.4063,662.75 Q731.3594,662.3906 731.1719,662.2031 Q730.8438,661.8281 730.2344,661.6094 Q729.625,661.3906 729,661.3906 Q728.2344,661.3906 727.5938,661.7188 Q726.9688,662.0469 726.4688,662.7969 Q725.9844,663.5469 725.9844,664.5781 L725.9844,665.6719 Q725.9844,666.9063 726.875,667.7344 Q727.7656,668.5469 729.3594,668.5469 Q730.2969,668.5469 730.9531,668.2969 Q731.3438,668.1406 731.7656,667.7031 Q732.0313,667.4375 732.1719,667.3594 Q732.3281,667.2813 732.5313,667.2813 Q732.8594,667.2813 733.1094,667.5469 Q733.375,667.7969 733.375,668.1406 Q733.375,668.4844 733.0313,668.8906 Q732.5313,669.4688 731.7344,669.7969 Q730.6563,670.25 729.3594,670.25 Q727.8438,670.25 726.6406,669.625 Q725.6563,669.125 724.9688,668.0625 Q724.2813,666.9844 724.2813,665.7031 L724.2813,664.5469 Q724.2813,663.2188 724.8906,662.0781 Q725.5156,660.9219 726.6094,660.3125 Q727.7031,659.6875 728.9375,659.6875 Q729.6719,659.6875 730.3125,659.8594 Q730.9688,660.0156 731.5156,660.375 Z " fill="#000000"/><text fill="#000000" font-family="sans-serif" font-size="12" lengthAdjust="spacing" textLength="32" x="749.25" y="669.4102">Ticket</text><line style="stroke:#181818;stroke-width:0.5;" x1="640.5" x2="857.5" y1="680.5" y2="680.5"/><text fill="#000000" font-family="sans-serif" font-size="14" lengthAdjust="spacing" textLength="185" x="645.5" y="699.0332">nombreFarmacia : VARCHAR</text><text fill="#000000" font-family="sans-serif" font-size="14" lengthAdjust="spacing" textLength="135" x="645.5" y="716.6426">direccion : VARCHAR</text><text fill="#000000" font-family="sans-serif" font-size="14" lengthAdjust="spacing" textLength="129" x="645.5" y="734.252">telefono : VARCHAR</text><text fill="#000000" font-family="sans-serif" font-size="14" lengthAdjust="spacing" textLength="207" x="645.5" y="751.8613">fechaHoraImpresion : DATETIME</text><text fill="#000000" font-family="sans-serif" font-size="14" lengthAdjust="spacing" textLength="128" x="645.5" y="769.4707">DetalleVenta : Class</text><line style="stroke:#181818;stroke-width:0.5;" x1="640.5" x2="857.5" y1="776.5469" y2="776.5469"/></g><g id="elem_GMN25"><path d="M361.5,229.5 L361.5,258 L326.69,262 L361.5,266 L361.5,294.8438 A0,0 0 0 0 361.5,294.8438 L696.5,294.8438 A0,0 0 0 0 696.5,294.8438 L696.5,239.5 L686.5,229.5 L361.5,229.5 A0,0 0 0 0 361.5,229.5 " fill="#FEFFDD" style="stroke:#181818;stroke-width:0.5;"/><path d="M686.5,229.5 L686.5,239.5 L696.5,239.5 L686.5,229.5 " fill="#FEFFDD" style="stroke:#181818;stroke-width:0.5;"/><text fill="#000000" font-family="sans-serif" font-size="11" lengthAdjust="spacing" textLength="314" x="367.5" y="245.9189">- Un Usuario con rol "empleado" no puede registrar la asistencias</text><text fill="#000000" font-family="sans-serif" font-size="11" lengthAdjust="spacing" textLength="149" x="367.5" y="259.7549">de los empleados ni ver toda la</text><text fill="#000000" font-family="sans-serif" font-size="11" lengthAdjust="spacing" textLength="166" x="367.5" y="273.5908">parte de gesti&#243;n, s&#243;lo los usuarios</text><text fill="#000000" font-family="sans-serif" font-size="11" lengthAdjust="spacing" textLength="123" x="367.5" y="287.4268">con el rol "administrador".</text></g><!--link Venta to DetalleVenta--><g id="link_Venta_DetalleVenta"><path codeLine="88" d="M586,553.26 C586,600.08 586,661.26 586,715.5 C586,715.5 586,715.5 586,1163 C586,1216.56 586,1238.34 550,1278 C530.11,1299.91 503.2,1315.98 475.95,1327.7 " fill="none" id="Venta-DetalleVenta" style="stroke:#181818;stroke-width:1.0;"/><polygon fill="#000000" points="590.2966,953.1261,594.4788,944.5844,588.6594,943.7575,590.2966,953.1261" style="stroke:#000000;stroke-width:1.0;"/><text fill="#000000" font-family="sans-serif" font-size="13" lengthAdjust="spacing" textLength="51" x="600" y="953.4951">Contiene</text><text fill="#000000" font-family="sans-serif" font-size="13" lengthAdjust="spacing" textLength="7" x="578.6992" y="574.112">1</text><text fill="#000000" font-family="sans-serif" font-size="13" lengthAdjust="spacing" textLength="22" x="483.5641" y="1322.8467">1..X</text></g><!--link DetalleVenta to Medicamento--><g id="link_DetalleVenta_Medicamento"><path codeLine="89" d="M362,1409.02 C362,1432.43 362,1460.91 362,1486.97 " fill="none" id="DetalleVenta-Medicamento" style="stroke:#181818;stroke-width:1.0;"/><polygon fill="#000000" points="367,1453.1758,369.9389,1444.1307,364.0611,1444.1307,367,1453.1758" style="stroke:#000000;stroke-width:1.0;"/><text fill="#000000" font-family="sans-serif" font-size="13" lengthAdjust="spacing" textLength="61" x="376" y="1453.4951">Referencia</text><text fill="#000000" font-family="sans-serif" font-size="13" lengthAdjust="spacing" textLength="5" x="356.6641" y="1430.4139">*</text><text fill="#000000" font-family="sans-serif" font-size="13" lengthAdjust="spacing" textLength="7" x="354.6555" y="1476.1292">1</text></g><!--link Empleado to Venta--><g id="link_Empleado_Venta"><path codeLine="90" d="M322.67,321.21 C363.7,345.17 411.79,373.26 455.57,398.83 " fill="none" id="Empleado-Venta" style="stroke:#181818;stroke-width:1.0;"/><polygon fill="#000000" points="414.3176,362.6974,407.9892,355.5979,405.0248,360.6735,414.3176,362.6974" style="stroke:#000000;stroke-width:1.0;"/><text fill="#000000" font-family="sans-serif" font-size="13" lengthAdjust="spacing" textLength="43" x="419" y="365.4951">Realiza</text><text fill="#000000" font-family="sans-serif" font-size="13" lengthAdjust="spacing" textLength="7" x="327.3907" y="342.8911">1</text><text fill="#000000" font-family="sans-serif" font-size="13" lengthAdjust="spacing" textLength="22" x="420.09" y="388.2405">0..X</text></g><!--link Venta to Cliente--><g id="link_Venta_Cliente"><path codeLine="91" d="M473.93,553.24 C465.24,562.46 457.38,572.41 451,583 C442.31,597.42 436.62,614.21 432.91,630.89 " fill="none" id="Venta-Cliente" style="stroke:#181818;stroke-width:1.0;"/><polygon fill="#000000" points="453.6645,596.5968,460.4881,589.9719,455.2908,587.2263,453.6645,596.5968" style="stroke:#000000;stroke-width:1.0;"/><text fill="#000000" font-family="sans-serif" font-size="13" lengthAdjust="spacing" textLength="94" x="465" y="597.4951">Asociado (O no)</text><text fill="#000000" font-family="sans-serif" font-size="13" lengthAdjust="spacing" textLength="22" x="441.3537" y="574.0903">0..X</text><text fill="#000000" font-family="sans-serif" font-size="13" lengthAdjust="spacing" textLength="7" x="426.1246" y="620.0518">1</text></g><!--link Cliente to ObraSocial--><g id="link_Cliente_ObraSocial"><path codeLine="92" d="M322.31,795.43 C308.87,807.11 295.73,819.45 284,832 C270.46,846.48 257.44,863.4 245.97,879.73 " fill="none" id="Cliente-ObraSocial" style="stroke:#181818;stroke-width:1.0;"/><polygon fill="#000000" points="285.6438,844.882,293.8937,840.1502,289.5368,836.2047,285.6438,844.882" style="stroke:#000000;stroke-width:1.0;"/><text fill="#000000" font-family="sans-serif" font-size="13" lengthAdjust="spacing" textLength="102" x="298" y="846.4951">Registrado (O no)</text><text fill="#000000" font-family="sans-serif" font-size="13" lengthAdjust="spacing" textLength="22" x="292.5371" y="797.6936">0..X</text><text fill="#000000" font-family="sans-serif" font-size="13" lengthAdjust="spacing" textLength="7" x="242.9372" y="869.3755">1</text></g><!--link Cliente to Receta--><g id="link_Cliente_Receta"><path codeLine="93" d="M427.06,802.01 C424.44,874.06 414.23,979.13 380,1064 C375.9,1074.16 370.5,1084.23 364.5,1093.83 " fill="none" id="Cliente-Receta" style="stroke:#181818;stroke-width:1.0;"/><polygon fill="#000000" points="425.9519,953.0647,430.7215,944.8366,424.9743,943.6045,425.9519,953.0647" style="stroke:#000000;stroke-width:1.0;"/><text fill="#000000" font-family="sans-serif" font-size="13" lengthAdjust="spacing" textLength="74" x="436" y="953.4951">Posee (o no)</text><text fill="#000000" font-family="sans-serif" font-size="13" lengthAdjust="spacing" textLength="7" x="419.7536" y="823.8372">1</text><text fill="#000000" font-family="sans-serif" font-size="13" lengthAdjust="spacing" textLength="20" x="349.4766" y="1083.0107">0..*</text></g><!--link Receta to DetalleVenta--><g id="link_Receta_DetalleVenta"><path codeLine="94" d="M268.91,1230.18 C264.13,1246.11 263.07,1262.85 270,1278 C275.01,1288.94 282.34,1298.95 290.73,1307.9 " fill="none" id="Receta-DetalleVenta" style="stroke:#181818;stroke-width:1.0;"/><polygon fill="#000000" points="276.3515,1273.9897,276.7361,1264.4869,271.0771,1266.0757,276.3515,1273.9897" style="stroke:#000000;stroke-width:1.0;"/><text fill="#000000" font-family="sans-serif" font-size="13" lengthAdjust="spacing" textLength="34" x="284" y="1274.4951">Cubre</text><text fill="#000000" font-family="sans-serif" font-size="13" lengthAdjust="spacing" textLength="7" x="257.4148" y="1251.5469">1</text><text fill="#000000" font-family="sans-serif" font-size="13" lengthAdjust="spacing" textLength="20" x="259.3014" y="1297.1913">0..*</text></g><!--link DetalleVenta to Receta--><g id="link_DetalleVenta_Receta"><path codeLine="95" d="M348.45,1307.79 C342.03,1284.21 334.26,1255.68 327.31,1230.21 " fill="none" id="DetalleVenta-Receta" style="stroke:#181818;stroke-width:1.0;"/><polygon fill="#000000" points="344.6855,1264.3517,344.2279,1273.8512,349.899,1272.3059,344.6855,1264.3517" style="stroke:#000000;stroke-width:1.0;"/><text fill="#000000" font-family="sans-serif" font-size="13" lengthAdjust="spacing" textLength="186" x="355" y="1274.4951">Si el medicamento aplica receta</text><text fill="#000000" font-family="sans-serif" font-size="13" lengthAdjust="spacing" textLength="22" x="322.9977" y="1297.0658">0..1</text><text fill="#000000" font-family="sans-serif" font-size="13" lengthAdjust="spacing" textLength="22" x="306.0638" y="1251.58">0..1</text></g><!--link ObraSocial to Receta--><g id="link_ObraSocial_Receta"><path codeLine="96" d="M153.51,1016.03 C147.26,1032.03 145.61,1048.86 154,1064 C166.69,1086.91 187.3,1105.13 209.4,1119.3 " fill="none" id="ObraSocial-Receta" style="stroke:#181818;stroke-width:1.0;"/><polygon fill="#000000" points="161.3798,1059.5731,159.6593,1050.2194,154.49,1053.0171,161.3798,1059.5731" style="stroke:#000000;stroke-width:1.0;"/><text fill="#000000" font-family="sans-serif" font-size="13" lengthAdjust="spacing" textLength="97" x="168" y="1060.4951">Relaciona (O no)</text><text fill="#000000" font-family="sans-serif" font-size="13" lengthAdjust="spacing" textLength="22" x="125.1688" y="1037.3814">0..X</text><text fill="#000000" font-family="sans-serif" font-size="13" lengthAdjust="spacing" textLength="7" x="194.5064" y="1112.9251">1</text></g><!--link Receta to ObraSocial--><g id="link_Receta_ObraSocial"><path codeLine="97" d="M289.61,1093.78 C284.07,1077.78 277.47,1061 270,1046 C265.05,1036.06 259.22,1025.96 253.1,1016.22 " fill="none" id="Receta-ObraSocial" style="stroke:#181818;stroke-width:1.0;"/><polygon fill="#000000" points="279.8705,1050.6519,281.0638,1060.0873,286.3819,1057.5839,279.8705,1050.6519" style="stroke:#000000;stroke-width:1.0;"/><text fill="#000000" font-family="sans-serif" font-size="13" lengthAdjust="spacing" textLength="80" x="291" y="1060.4951">Asocia (O no)</text><text fill="#000000" font-family="sans-serif" font-size="13" lengthAdjust="spacing" textLength="20" x="266.3955" y="1082.9552">0..*</text><text fill="#000000" font-family="sans-serif" font-size="13" lengthAdjust="spacing" textLength="7" x="250.8025" y="1037.591">1</text></g><!--link Usuario to Empleado--><g id="link_Usuario_Empleado"><path codeLine="98" d="M223,125.21 C223,149.76 223,178.29 223,202.83 " fill="none" id="Usuario-Empleado" style="stroke:#181818;stroke-width:1.0;"/><polygon fill="#000000" points="228,169.1758,230.9389,160.1307,225.0611,160.1307,228,169.1758" style="stroke:#000000;stroke-width:1.0;"/><text fill="#000000" font-family="sans-serif" font-size="13" lengthAdjust="spacing" textLength="43" x="237" y="169.4951">Vincula</text><text fill="#000000" font-family="sans-serif" font-size="13" lengthAdjust="spacing" textLength="7" x="215.5734" y="146.8911">1</text><text fill="#000000" font-family="sans-serif" font-size="13" lengthAdjust="spacing" textLength="22" x="199.6594" y="192.1335">0..1</text></g><!--link Empleado to Asistencia--><g id="link_Empleado_Asistencia"><path codeLine="99" d="M209,321.21 C201.83,351 193.13,387.15 185.97,416.92 " fill="none" id="Empleado-Asistencia" style="stroke:#181818;stroke-width:1.0;"/><polygon fill="#000000" points="204.8303,365.037,209.8037,356.9305,204.089,355.5554,204.8303,365.037" style="stroke:#000000;stroke-width:1.0;"/><text fill="#000000" font-family="sans-serif" font-size="13" lengthAdjust="spacing" textLength="48" x="215" y="365.4951">Registra</text><text fill="#000000" font-family="sans-serif" font-size="13" lengthAdjust="spacing" textLength="7" x="199.8672" y="342.8911">1</text><text fill="#000000" font-family="sans-serif" font-size="13" lengthAdjust="spacing" textLength="22" x="164.332" y="406.2345">0..X</text></g><!--link Venta to Ticket--><g id="link_Venta_Ticket"><path codeLine="100" d="M638.02,553.12 C658.89,583.66 682.74,618.55 702.97,648.15 " fill="none" id="Venta-Ticket" style="stroke:#181818;stroke-width:1.0;"/><polygon fill="#000000" points="675.8213,596.3037,673.1439,587.1779,668.2911,590.4945,675.8213,596.3037" style="stroke:#000000;stroke-width:1.0;"/><text fill="#000000" font-family="sans-serif" font-size="13" lengthAdjust="spacing" textLength="39" x="682" y="597.4951">genera</text><text fill="#000000" font-family="sans-serif" font-size="13" lengthAdjust="spacing" textLength="7" x="635.3413" y="574.2271">1</text><text fill="#000000" font-family="sans-serif" font-size="13" lengthAdjust="spacing" textLength="22" x="675.0888" y="637.7872">0..1</text></g><!--SRC=[bLRDRjiu4BxhAGQ-DDvrqdgFMQ20wZYeWJW972VebHR73X6A54Wgm3R8Gotw27cn3YdgXugts9uiS_w_RsR83x3M7AK6Zi1rAPJGS0gNp9Ii40nEh52GxuKKz5Uhly4gLjb7xRo-tXa6LfEU15JmWCgnQPRP9w4gPbW9XMJMviuPiQiThWgjxiHtX4zZbKkjN93C_ng8b7ROI-PP5dHXZLmKhAHW6buoW3-XqFmBCvJBEQokjtG4P5lk398gdJtacyNNV1FEJpZQmeZA5pCbsNRvhJ6GRASDSzfG_Qb9PP2qoTMz4euryelbOhNEhuBSEbqynT2lRPBtjWwgBuDishFKFO7Y3BFuzYyRIPoeT6-plBvVmmlZdY9B5boR6M1PIQJFrs1GaYkzrOv9ee8BFioqosmPJPBKHf5PXL8sziDZMwFau_B_Lz3SKiweV4SrOVTOFFfwB_BjiY7caU1VUYWu2yIirWF17QDqqdEqZl4U66B9KalW35WTFuWiJZzI527oQv_EGWglaa3GdXr7uhYKAp7kBooPaDFngQhBBRu_jepmN3YsqCO4_zCHk6WlgVlg6FhBpStLCh_kwxYX0RnhvgyhPN2MHWkGtvg-_uVm1-63QodfK2uP3MzHInQcxlreQ5uNJjiD5kZfiBr2v6L-TdRsBK3_0HgjSzeLZjZauCSSdWErnezPbnbQ-0VmsOyRBQMTfDKaR8NAqX9w-w5YzOsxk0C4Zty7Ew0kuzc9hjpqT-3uTTd1z4gKWbXfNNUeTUI4THXvyQFSe1kxbHaN_DCCwuwmrrzJqGtQg4cyyrjsw6S1oOKJptf6Ited7FqMXkhm7pHVokxHX8cOmKv8YGuDQqBtNRxm9JHDMjGKqqx76-w2W2NZOPN3pHnTf5qGzXsBx0T_x-MXp4kXaZAxg5jHFA5B1hUxgqQpAMXo8g_9LaM9UwsESlgLLisgz9tOzqE7Vr9mYr3ewppSWR5nFq9PIwA4reul4stMM4pc4pWzfH-gTFBE6HLDq2DypXB9v8zeD1c1ky6MH3BfLdeRurE8qJhV88tOTwyOdJRYwBVdl2c3t9pS4BHJqczbgKMoOJPuYDVH4RC-7QgZcyzRRT4FJjIEvwdo69_QNr9ZS4YrDveF8jm9G0db037c-M1W6etFsQ26jBZEnmPbe9JrTRMPDYaUGwE1iBTeh-z9acV75xMWK7uD_3U9Wvkp1xkdCl4RX-CS3jHAGOkQyzfFR-RVKc34uT61tdS9K5-VmhtgNYlq5W6Z2PBsNJ6XEg2gaHvx9iOsz5G2rcNbbmH99Qt-riW2NOlFQC1fpaYRDFo-Gwzte6lRh_0PsBSVzEhqTdKJtNlo2H1p8OVagJCvo-Xr4Pw4sKy0]--></g></svg>