<svg xmlns="http://www.w3.org/2000/svg" xmlns:xlink="http://www.w3.org/1999/xlink" contentStyleType="text/css" data-diagram-type="SEQUENCE" height="686px" preserveAspectRatio="none" style="width:1668px;height:686px;background:#FFFFFF;" version="1.1" viewBox="0 0 1668 686" width="1668px" zoomAndPan="magnify"><title>Asistencia Empleado</title><defs/><g><text fill="#000000" font-family="sans-serif" font-size="14" font-weight="bold" lengthAdjust="spacing" textLength="163.4268" x="751.6953" y="27.9951">Asistencia Empleado</text><g><title>NegocioControlador. Interfaz</title><rect fill="#FFFFFF" height="87.3984" style="stroke:#181818;stroke-width:1;" width="10" x="858.0825" y="149.7266"/></g><g><title>NegocioControlador. Interfaz</title><rect fill="#FFFFFF" height="394.8906" style="stroke:#181818;stroke-width:1;" width="10" x="858.0825" y="266.2578"/></g><g><title>List.Empleado.. empleados</title><rect fill="#FFFFFF" height="29.1328" style="stroke:#181818;stroke-width:1;" width="10" x="1168.2393" y="178.8594"/></g><g><title>List.Empleado.. empleados</title><rect fill="#FFFFFF" height="215.9297" style="stroke:#181818;stroke-width:1;" width="10" x="1168.2393" y="295.3906"/></g><g><title>Empleado. objEmpl</title><rect fill="#FFFFFF" height="29.1328" style="stroke:#181818;stroke-width:1;" width="10" x="1362.061" y="348.6563"/></g><g><title>Empleado. objEmpl</title><rect fill="#FFFFFF" height="29.1328" style="stroke:#181818;stroke-width:1;" width="10" x="1362.061" y="406.9219"/></g><g><title>Empleado. objEmpl</title><rect fill="#FFFFFF" height="29.1328" style="stroke:#181818;stroke-width:1;" width="10" x="1362.061" y="602.8828"/></g><g><title>Asistencia. nuevaAsistencia</title><rect fill="#FFFFFF" height="31.2969" style="stroke:#181818;stroke-width:1;" width="10" x="1553.4258" y="542.4531"/></g><rect fill="none" height="193.9297" style="stroke:#000000;stroke-width:1.5;" width="716.9526" x="734.9448" y="310.3906"/><rect fill="none" height="46.2656" style="stroke:#000000;stroke-width:1.5;" width="547.2798" x="744.9448" y="451.0547"/><g><title>Administrador. Admin</title><rect fill="#000000" fill-opacity="0.00000" height="560.5547" width="8" x="80.5557" y="118.5938"/><line style="stroke:#181818;stroke-width:0.5;stroke-dasharray:5,5;" x1="84" x2="84" y1="118.5938" y2="679.1484"/></g><g><title>NegocioControlador. Interfaz</title><rect fill="#000000" fill-opacity="0.00000" height="560.5547" width="8" x="859.0825" y="118.5938"/><line style="stroke:#181818;stroke-width:0.5;stroke-dasharray:5,5;" x1="862.9448" x2="862.9448" y1="118.5938" y2="679.1484"/></g><g><title>List.Empleado.. empleados</title><rect fill="#000000" fill-opacity="0.00000" height="560.5547" width="8" x="1169.2393" y="118.5938"/><line style="stroke:#181818;stroke-width:0.5;stroke-dasharray:5,5;" x1="1172.2539" x2="1172.2539" y1="118.5938" y2="679.1484"/></g><g><title>Empleado. objEmpl</title><rect fill="#000000" fill-opacity="0.00000" height="560.5547" width="8" x="1363.061" y="118.5938"/><line style="stroke:#181818;stroke-width:0.5;stroke-dasharray:5,5;" x1="1366.2246" x2="1366.2246" y1="118.5938" y2="679.1484"/></g><g><title>Asistencia. nuevaAsistencia</title><rect fill="#000000" fill-opacity="0.00000" height="137.1797" width="8" x="1554.4258" y="541.9688"/><line style="stroke:#181818;stroke-width:0.5;stroke-dasharray:5,5;" x1="1558.0342" x2="1558.0342" y1="541.9688" y2="679.1484"/></g><g class="participant participant-head" data-participant="admin"><text fill="#000000" font-family="sans-serif" font-size="14" lengthAdjust="spacing" textLength="153.1113" x="5" y="115.292">Administrador: Admin</text><ellipse cx="84.5557" cy="50.7969" fill="#E2E2F0" rx="8" ry="8" style="stroke:#181818;stroke-width:0.5;"/><path d="M84.5557,58.7969 L84.5557,85.7969 M71.5557,66.7969 L97.5557,66.7969 M84.5557,85.7969 L71.5557,100.7969 M84.5557,85.7969 L97.5557,100.7969" fill="none" style="stroke:#181818;stroke-width:0.5;"/></g><g class="participant participant-head" data-participant="NegCtrl"><rect fill="#E2E2F0" height="30.2969" rx="2.5" ry="2.5" style="stroke:#181818;stroke-width:0.5;" width="216.2754" x="754.9448" y="87.2969"/><text fill="#000000" font-family="sans-serif" font-size="14" lengthAdjust="spacing" textLength="202.2754" x="761.9448" y="107.292">NegocioControlador: Interfaz</text></g><g class="participant participant-head" data-participant="listaEmpls"><rect fill="#E2E2F0" height="30.2969" rx="2.5" ry="2.5" style="stroke:#181818;stroke-width:0.5;" width="217.9707" x="1064.2539" y="87.2969"/><text fill="#000000" font-family="sans-serif" font-size="14" lengthAdjust="spacing" textLength="203.9707" x="1071.2539" y="107.292">List&lt;Empleado&gt;: empleados</text></g><g class="participant participant-head" data-participant="empl"><rect fill="#E2E2F0" height="30.2969" rx="2.5" ry="2.5" style="stroke:#181818;stroke-width:0.5;" width="149.6729" x="1292.2246" y="87.2969"/><text fill="#000000" font-family="sans-serif" font-size="14" lengthAdjust="spacing" textLength="135.6729" x="1299.2246" y="107.292">Empleado: objEmpl</text></g><g><title>NegocioControlador. Interfaz</title><rect fill="#FFFFFF" height="87.3984" style="stroke:#181818;stroke-width:1;" width="10" x="858.0825" y="149.7266"/></g><g><title>NegocioControlador. Interfaz</title><rect fill="#FFFFFF" height="394.8906" style="stroke:#181818;stroke-width:1;" width="10" x="858.0825" y="266.2578"/></g><g><title>List.Empleado.. empleados</title><rect fill="#FFFFFF" height="29.1328" style="stroke:#181818;stroke-width:1;" width="10" x="1168.2393" y="178.8594"/></g><g><title>List.Empleado.. empleados</title><rect fill="#FFFFFF" height="215.9297" style="stroke:#181818;stroke-width:1;" width="10" x="1168.2393" y="295.3906"/></g><g><title>Empleado. objEmpl</title><rect fill="#FFFFFF" height="29.1328" style="stroke:#181818;stroke-width:1;" width="10" x="1362.061" y="348.6563"/></g><g><title>Empleado. objEmpl</title><rect fill="#FFFFFF" height="29.1328" style="stroke:#181818;stroke-width:1;" width="10" x="1362.061" y="406.9219"/></g><g><title>Empleado. objEmpl</title><rect fill="#FFFFFF" height="29.1328" style="stroke:#181818;stroke-width:1;" width="10" x="1362.061" y="602.8828"/></g><g><title>Asistencia. nuevaAsistencia</title><rect fill="#FFFFFF" height="31.2969" style="stroke:#181818;stroke-width:1;" width="10" x="1553.4258" y="542.4531"/></g><g class="message" data-participant-1="admin" data-participant-2="NegCtrl"><polygon fill="#181818" points="846.0825,145.7266,856.0825,149.7266,846.0825,153.7266,850.0825,149.7266" style="stroke:#181818;stroke-width:1;"/><line style="stroke:#181818;stroke-width:1;" x1="84.5557" x2="852.0825" y1="149.7266" y2="149.7266"/><text fill="#000000" font-family="sans-serif" font-size="13" lengthAdjust="spacing" textLength="163.6362" x="91.5557" y="144.6606">solicitarListaEmpleados()</text></g><g class="message" data-participant-1="NegCtrl" data-participant-2="listaEmpls"><polygon fill="#181818" points="1156.2393,174.8594,1166.2393,178.8594,1156.2393,182.8594,1160.2393,178.8594" style="stroke:#181818;stroke-width:1;"/><line style="stroke:#181818;stroke-width:1;" x1="868.0825" x2="1162.2393" y1="178.8594" y2="178.8594"/><text fill="#000000" font-family="sans-serif" font-size="13" lengthAdjust="spacing" textLength="103.1748" x="875.0825" y="173.7935">getEmpleados()</text></g><g class="message" data-participant-1="listaEmpls" data-participant-2="NegCtrl"><polygon fill="#181818" points="879.0825,203.9922,869.0825,207.9922,879.0825,211.9922,875.0825,207.9922" style="stroke:#181818;stroke-width:1;"/><line style="stroke:#181818;stroke-width:1;stroke-dasharray:2,2;" x1="873.0825" x2="1172.2393" y1="207.9922" y2="207.9922"/><text fill="#000000" font-family="sans-serif" font-size="13" lengthAdjust="spacing" textLength="263.5801" x="885.0825" y="202.9263">&lt;&lt; listaCompleta : List&lt;Empleado&gt; &gt;&gt;</text></g><g class="message" data-participant-1="NegCtrl" data-participant-2="admin"><polygon fill="#181818" points="95.5557,233.125,85.5557,237.125,95.5557,241.125,91.5557,237.125" style="stroke:#181818;stroke-width:1;"/><line style="stroke:#181818;stroke-width:1;stroke-dasharray:2,2;" x1="89.5557" x2="862.0825" y1="237.125" y2="237.125"/><text fill="#000000" font-family="sans-serif" font-size="13" lengthAdjust="spacing" textLength="49.6323" x="101.5557" y="232.0591">&#171;NULL&#187;</text></g><g class="message" data-participant-1="admin" data-participant-2="NegCtrl"><polygon fill="#181818" points="846.0825,262.2578,856.0825,266.2578,846.0825,270.2578,850.0825,266.2578" style="stroke:#181818;stroke-width:1;"/><line style="stroke:#181818;stroke-width:1;" x1="84.5557" x2="852.0825" y1="266.2578" y2="266.2578"/><text fill="#000000" font-family="sans-serif" font-size="13" lengthAdjust="spacing" textLength="754.5269" x="91.5557" y="261.1919">registrarAsistencia(dni: String, legajo: String, fecha: Date, hEntrada: Time, hSalida: Time, estado: EstadoAsistencia)</text></g><g class="message" data-participant-1="NegCtrl" data-participant-2="listaEmpls"><polygon fill="#181818" points="1156.2393,291.3906,1166.2393,295.3906,1156.2393,299.3906,1160.2393,295.3906" style="stroke:#181818;stroke-width:1;"/><line style="stroke:#181818;stroke-width:1;" x1="868.0825" x2="1162.2393" y1="295.3906" y2="295.3906"/><text fill="#000000" font-family="sans-serif" font-size="13" lengthAdjust="spacing" textLength="281.1567" x="875.0825" y="290.3247">buscarEmpleado(dni: String, legajo: String)</text></g><path d="M734.9448,310.3906 L811.5688,310.3906 L811.5688,317.5234 L801.5688,327.5234 L734.9448,327.5234 L734.9448,310.3906" fill="#EEEEEE" style="stroke:#000000;stroke-width:1.5;"/><rect fill="none" height="193.9297" style="stroke:#000000;stroke-width:1.5;" width="716.9526" x="734.9448" y="310.3906"/><text fill="#000000" font-family="sans-serif" font-size="13" font-weight="bold" lengthAdjust="spacing" textLength="31.624" x="749.9448" y="323.4575">loop</text><a href="para" target="_top" title="para" xlink:actuate="onRequest" xlink:href="para" xlink:show="new" xlink:title="para" xlink:type="simple"><text fill="#0000FF" font-family="sans-serif" font-size="11" font-weight="bold" lengthAdjust="spacing" text-decoration="underline" textLength="130.9097" x="826.5688" y="322.6011">cada e en empleados</text></a><g class="message" data-participant-1="listaEmpls" data-participant-2="empl"><polygon fill="#181818" points="1350.061,344.6563,1360.061,348.6563,1350.061,352.6563,1354.061,348.6563" style="stroke:#181818;stroke-width:1;"/><line style="stroke:#181818;stroke-width:1;" x1="1178.2393" x2="1356.061" y1="348.6563" y2="348.6563"/><text fill="#000000" font-family="sans-serif" font-size="13" lengthAdjust="spacing" textLength="55.0596" x="1185.2393" y="343.5903">getDNI()</text></g><g class="message" data-participant-1="empl" data-participant-2="listaEmpls"><polygon fill="#181818" points="1189.2393,373.7891,1179.2393,377.7891,1189.2393,381.7891,1185.2393,377.7891" style="stroke:#181818;stroke-width:1;"/><line style="stroke:#181818;stroke-width:1;stroke-dasharray:2,2;" x1="1183.2393" x2="1366.061" y1="377.7891" y2="377.7891"/><text fill="#000000" font-family="sans-serif" font-size="13" lengthAdjust="spacing" textLength="128.4067" x="1195.2393" y="372.7231">&#171;dniActual : String&#187;</text></g><g class="message" data-participant-1="listaEmpls" data-participant-2="empl"><polygon fill="#181818" points="1350.061,402.9219,1360.061,406.9219,1350.061,410.9219,1354.061,406.9219" style="stroke:#181818;stroke-width:1;"/><line style="stroke:#181818;stroke-width:1;" x1="1178.2393" x2="1356.061" y1="406.9219" y2="406.9219"/><text fill="#000000" font-family="sans-serif" font-size="13" lengthAdjust="spacing" textLength="74.5151" x="1185.2393" y="401.856">getLegajo()</text></g><g class="message" data-participant-1="empl" data-participant-2="listaEmpls"><polygon fill="#181818" points="1189.2393,432.0547,1179.2393,436.0547,1189.2393,440.0547,1185.2393,436.0547" style="stroke:#181818;stroke-width:1;"/><line style="stroke:#181818;stroke-width:1;stroke-dasharray:2,2;" x1="1183.2393" x2="1366.061" y1="436.0547" y2="436.0547"/><text fill="#000000" font-family="sans-serif" font-size="13" lengthAdjust="spacing" textLength="147.6973" x="1195.2393" y="430.9888">&#171;legajoActual : String&#187;</text></g><path d="M744.9448,451.0547 L809.3877,451.0547 L809.3877,458.1875 L799.3877,468.1875 L744.9448,468.1875 L744.9448,451.0547" fill="#EEEEEE" style="stroke:#000000;stroke-width:1.5;"/><rect fill="none" height="46.2656" style="stroke:#000000;stroke-width:1.5;" width="547.2798" x="744.9448" y="451.0547"/><text fill="#000000" font-family="sans-serif" font-size="13" font-weight="bold" lengthAdjust="spacing" textLength="19.4429" x="759.9448" y="464.1216">alt</text><text fill="#000000" font-family="sans-serif" font-size="11" font-weight="bold" lengthAdjust="spacing" textLength="291.3389" x="824.3877" y="463.2651">[(dni == dniActual) || (legajo == legajoActual)]</text><g class="message" data-participant-1="listaEmpls" data-participant-2="NegCtrl"><polygon fill="#181818" points="879.0825,485.3203,869.0825,489.3203,879.0825,493.3203,875.0825,489.3203" style="stroke:#181818;stroke-width:1;"/><line style="stroke:#181818;stroke-width:1;stroke-dasharray:2,2;" x1="873.0825" x2="1167.2393" y1="489.3203" y2="489.3203"/><text fill="#000000" font-family="sans-serif" font-size="13" lengthAdjust="spacing" textLength="146.0215" x="885.0825" y="484.2544">&#171;objEmpl : Empleado&#187;</text></g><g class="message" data-participant-1="NegCtrl" data-participant-2="asis"><polygon fill="#181818" points="1442.0342,528.4531,1452.0342,532.4531,1442.0342,536.4531,1446.0342,532.4531" style="stroke:#181818;stroke-width:1;"/><line style="stroke:#181818;stroke-width:1;" x1="868.0825" x2="1448.0342" y1="532.4531" y2="532.4531"/><text fill="#000000" font-family="sans-serif" font-size="13" lengthAdjust="spacing" textLength="561.9517" x="875.0825" y="527.3872">crearAsistencia(fecha: Date, hEntrada: Time, hSalida: Time, estado: EstadoAsistencia)</text></g><rect fill="#E2E2F0" height="30.2969" rx="2.5" ry="2.5" style="stroke:#181818;stroke-width:0.5;" width="208.7832" x="1454.0342" y="511.3203"/><text fill="#000000" font-family="sans-serif" font-size="14" lengthAdjust="spacing" textLength="194.7832" x="1461.0342" y="531.3154">Asistencia: nuevaAsistencia</text><g class="message" data-participant-1="asis" data-participant-2="NegCtrl"><polygon fill="#181818" points="879.0825,569.75,869.0825,573.75,879.0825,577.75,875.0825,573.75" style="stroke:#181818;stroke-width:1;"/><line style="stroke:#181818;stroke-width:1;stroke-dasharray:2,2;" x1="873.0825" x2="1557.4258" y1="573.75" y2="573.75"/><text fill="#000000" font-family="sans-serif" font-size="13" lengthAdjust="spacing" textLength="200.9097" x="885.0825" y="568.6841">&#171;nuevaAsistencia : Asistencia&#187;</text></g><g class="message" data-participant-1="NegCtrl" data-participant-2="empl"><polygon fill="#181818" points="1350.061,598.8828,1360.061,602.8828,1350.061,606.8828,1354.061,602.8828" style="stroke:#181818;stroke-width:1;"/><line style="stroke:#181818;stroke-width:1;" x1="868.0825" x2="1356.061" y1="602.8828" y2="602.8828"/><text fill="#000000" font-family="sans-serif" font-size="13" lengthAdjust="spacing" textLength="308.2485" x="875.0825" y="597.8169">agregarAsistencia(nuevaAsistencia: Asistencia)</text></g><g class="message" data-participant-1="empl" data-participant-2="NegCtrl"><polygon fill="#181818" points="879.0825,628.0156,869.0825,632.0156,879.0825,636.0156,875.0825,632.0156" style="stroke:#181818;stroke-width:1;"/><line style="stroke:#181818;stroke-width:1;stroke-dasharray:2,2;" x1="873.0825" x2="1366.061" y1="632.0156" y2="632.0156"/><text fill="#000000" font-family="sans-serif" font-size="13" lengthAdjust="spacing" textLength="125.2329" x="885.0825" y="626.9497">&#171;estado : Boolean&#187;</text></g><g class="message" data-participant-1="NegCtrl" data-participant-2="admin"><polygon fill="#181818" points="95.5557,657.1484,85.5557,661.1484,95.5557,665.1484,91.5557,661.1484" style="stroke:#181818;stroke-width:1;"/><line style="stroke:#181818;stroke-width:1;stroke-dasharray:2,2;" x1="89.5557" x2="862.0825" y1="661.1484" y2="661.1484"/><text fill="#000000" font-family="sans-serif" font-size="13" lengthAdjust="spacing" textLength="49.6323" x="101.5557" y="656.0825">&#171;NULL&#187;</text></g><!--SRC=[hLJ1Rjim3BthAuYSqgBv0ICraAOv531owNeQTc1anb7XI86i5CFGZoybnP7bfYswpHUB4ldq7adHATSIB3hLET9I8QpsXvQmDaBiL4smDSPjp6yXK3fZORAezqgpisKNMq0m9u0Te5-90rgdf3gWTZ1PKsEaCakZdJLj37ZGZkmM_uGOTbWws-PH5QFFUnPb0NHQTY6avLFqfrqUrGSKO3RFtWZUFZRtIqeBq4TwmRGHPR39OhqOc9KzGoYWCos3EBHLpo2GcbxvpAWNT7IM8u2_Ff914cV6QSWDWxth6M0WpkyFucOPb_aydYsDHtB8MtdMe2m3GasNiCMP6wD6gHvp_LHL73U8EGkwa0zBJMW3cn8uhRKguD5PfPiRQAd1PvFiBSaT9_sUWMzWjzA-XTZ-eVRUViHM9PEOgw_bAlpJ3TzDzkROIRHzMZxZztabOZcCES1FxYO4oTI1W7Jgpb_1ProsCZZ4ij-l7qu5pwuAFThl1k_PM0RNcwalf3kYnugC-ngFwfp1VScf2aduUrenYV_235i7lZ1mUvj4Ni7hAqmZk3yONfEuVlL6JfE0ZRu3Xin8rsBu_-2jZDhBpmUulcPCQIbh_l_JtraDmZ0AE_xMT_f6yuit1yRx2H17sqZFgHMmuVUSoHc13x57B4DTHTOc6SqebjTtnd0Lz0Lg4UARO-aD]--></g></svg>