<?xml version="1.0" encoding="us-ascii" standalone="no"?><svg xmlns="http://www.w3.org/2000/svg" xmlns:xlink="http://www.w3.org/1999/xlink" contentStyleType="text/css" height="1003px" preserveAspectRatio="none" style="width:1563px;height:1003px;background:#FFFFFF;" version="1.1" viewBox="0 0 1563 1003" width="1563px" zoomAndPan="magnify"><defs/><g><rect fill="#FFFFFF" height="192.4609" style="stroke:#181818;stroke-width:1.0;" width="10" x="777.5" y="159.3125"/><rect fill="#FFFFFF" height="86.0547" style="stroke:#181818;stroke-width:1.0;" width="10" x="1482.5" y="447.4766"/><rect fill="#FFFFFF" height="30.3516" style="stroke:#181818;stroke-width:1.0;" width="10" x="1482.5" y="675.4219"/><rect fill="#FFFFFF" height="30.3516" style="stroke:#181818;stroke-width:1.0;" width="10" x="1482.5" y="780.4766"/><rect fill="none" height="62.7031" style="stroke:#000000;stroke-width:1.5;" width="848.5" x="10" y="311.0703"/><rect fill="none" height="139.2422" style="stroke:#000000;stroke-width:1.5;" width="1536.5" x="10" y="462.4766"/><rect fill="none" height="48.7031" style="stroke:#000000;stroke-width:1.5;" width="848.5" x="10" y="825.8281"/><line style="stroke:#181818;stroke-width:0.5;stroke-dasharray:5.0,5.0;" x1="66" x2="66" y1="82.6094" y2="921.8828"/><line style="stroke:#181818;stroke-width:0.5;stroke-dasharray:5.0,5.0;" x1="782.5" x2="782.5" y1="82.6094" y2="921.8828"/><line style="stroke:#181818;stroke-width:0.5;stroke-dasharray:5.0,5.0;" x1="1487.5" x2="1487.5" y1="82.6094" y2="921.8828"/><text fill="#000000" font-family="sans-serif" font-size="14" lengthAdjust="spacing" textLength="87" x="20" y="79.5332">Administrador</text><ellipse cx="66.5" cy="13.5" fill="#E2E2F0" rx="8" ry="8" style="stroke:#181818;stroke-width:0.5;"/><path d="M66.5,21.5 L66.5,48.5 M53.5,29.5 L79.5,29.5 M66.5,48.5 L53.5,63.5 M66.5,48.5 L79.5,63.5 " fill="none" style="stroke:#181818;stroke-width:0.5;"/><text fill="#000000" font-family="sans-serif" font-size="14" lengthAdjust="spacing" textLength="87" x="20" y="935.416">Administrador</text><ellipse cx="66.5" cy="946.9922" fill="#E2E2F0" rx="8" ry="8" style="stroke:#181818;stroke-width:0.5;"/><path d="M66.5,954.9922 L66.5,981.9922 M53.5,962.9922 L79.5,962.9922 M66.5,981.9922 L53.5,996.9922 M66.5,981.9922 L79.5,996.9922 " fill="none" style="stroke:#181818;stroke-width:0.5;"/><text fill="#000000" font-family="sans-serif" font-size="14" lengthAdjust="spacing" textLength="126" x="716.5" y="79.5332">NegocioControlador</text><ellipse cx="782.5" cy="49" fill="#E2E2F0" rx="12" ry="12" style="stroke:#181818;stroke-width:0.5;"/><polygon fill="#181818" points="778.5,37,784.5,32,782.5,37,784.5,42,778.5,37" style="stroke:#181818;stroke-width:1.0;"/><text fill="#000000" font-family="sans-serif" font-size="14" lengthAdjust="spacing" textLength="126" x="716.5" y="935.416">NegocioControlador</text><ellipse cx="782.5" cy="954.4922" fill="#E2E2F0" rx="12" ry="12" style="stroke:#181818;stroke-width:0.5;"/><polygon fill="#181818" points="778.5,942.4922,784.5,937.4922,782.5,942.4922,784.5,947.4922,778.5,942.4922" style="stroke:#181818;stroke-width:1.0;"/><rect fill="#E2E2F0" height="31.6094" rx="2.5" ry="2.5" style="stroke:#181818;stroke-width:0.5;" width="98" x="1438.5" y="50"/><text fill="#000000" font-family="sans-serif" font-size="14" lengthAdjust="spacing" textLength="84" x="1445.5" y="71.5332">Medicamento</text><rect fill="#E2E2F0" height="31.6094" rx="2.5" ry="2.5" style="stroke:#181818;stroke-width:0.5;" width="98" x="1438.5" y="920.8828"/><text fill="#000000" font-family="sans-serif" font-size="14" lengthAdjust="spacing" textLength="84" x="1445.5" y="942.416">Medicamento</text><rect fill="#FFFFFF" height="192.4609" style="stroke:#181818;stroke-width:1.0;" width="10" x="777.5" y="159.3125"/><rect fill="#FFFFFF" height="86.0547" style="stroke:#181818;stroke-width:1.0;" width="10" x="1482.5" y="447.4766"/><rect fill="#FFFFFF" height="30.3516" style="stroke:#181818;stroke-width:1.0;" width="10" x="1482.5" y="675.4219"/><rect fill="#FFFFFF" height="30.3516" style="stroke:#181818;stroke-width:1.0;" width="10" x="1482.5" y="780.4766"/><rect fill="#EEEEEE" height="3" style="stroke:#EEEEEE;stroke-width:1.0;" width="1556.5" x="0" y="113.7852"/><line style="stroke:#000000;stroke-width:1.0;" x1="0" x2="1556.5" y1="113.7852" y2="113.7852"/><line style="stroke:#000000;stroke-width:1.0;" x1="0" x2="1556.5" y1="116.7852" y2="116.7852"/><rect fill="#EEEEEE" height="24.3516" style="stroke:#000000;stroke-width:2.0;" width="125" x="715.75" y="102.6094"/><text fill="#000000" font-family="sans-serif" font-size="13" font-weight="bold" lengthAdjust="spacing" textLength="107" x="721.75" y="120.1045">Entrada de datos</text><polygon fill="#181818" points="765.5,155.3125,775.5,159.3125,765.5,163.3125,769.5,159.3125" style="stroke:#181818;stroke-width:1.0;"/><line style="stroke:#181818;stroke-width:1.0;" x1="66.5" x2="771.5" y1="159.3125" y2="159.3125"/><text fill="#000000" font-family="sans-serif" font-size="13" lengthAdjust="spacing" textLength="692" x="73.5" y="154.4561">crearMedicamento(codigoBarra, nombre, precioUnitario, stock, stockMinimo, drogueriaNombre, descripci&#243;n, laboratorio)</text><rect fill="#EEEEEE" height="3" style="stroke:#EEEEEE;stroke-width:1.0;" width="1556.5" x="0" y="188.4883"/><line style="stroke:#000000;stroke-width:1.0;" x1="0" x2="1556.5" y1="188.4883" y2="188.4883"/><line style="stroke:#000000;stroke-width:1.0;" x1="0" x2="1556.5" y1="191.4883" y2="191.4883"/><rect fill="#EEEEEE" height="24.3516" style="stroke:#000000;stroke-width:2.0;" width="239" x="658.75" y="177.3125"/><text fill="#000000" font-family="sans-serif" font-size="13" font-weight="bold" lengthAdjust="spacing" textLength="221" x="664.75" y="194.8076">Validaciones de negocio y formato</text><line style="stroke:#181818;stroke-width:1.0;" x1="787.5" x2="829.5" y1="283.0703" y2="283.0703"/><line style="stroke:#181818;stroke-width:1.0;" x1="829.5" x2="829.5" y1="283.0703" y2="296.0703"/><line style="stroke:#181818;stroke-width:1.0;" x1="788.5" x2="829.5" y1="296.0703" y2="296.0703"/><polygon fill="#181818" points="798.5,292.0703,788.5,296.0703,798.5,300.0703,794.5,296.0703" style="stroke:#181818;stroke-width:1.0;"/><text fill="#000000" font-family="sans-serif" font-size="13" lengthAdjust="spacing" textLength="161" x="794.5" y="229.1592">validarCamposObligatorios()</text><text fill="#000000" font-family="sans-serif" font-size="13" lengthAdjust="spacing" textLength="255" x="794.5" y="245.5107">- codigoBarra, nombre, precioUnitario, stock</text><text fill="#000000" font-family="sans-serif" font-size="13" lengthAdjust="spacing" textLength="165" x="794.5" y="261.8623">- precioUnitario&gt;0, stock&gt;=0</text><text fill="#000000" font-family="sans-serif" font-size="13" lengthAdjust="spacing" textLength="244" x="794.5" y="278.2139">- descripci&#243;n no vac&#237;a, laboratorio no vac&#237;o</text><path d="M10,311.0703 L71,311.0703 L71,319.4219 L61,329.4219 L10,329.4219 L10,311.0703 " fill="#EEEEEE" style="stroke:#000000;stroke-width:1.5;"/><rect fill="none" height="62.7031" style="stroke:#000000;stroke-width:1.5;" width="848.5" x="10" y="311.0703"/><text fill="#000000" font-family="sans-serif" font-size="13" font-weight="bold" lengthAdjust="spacing" textLength="16" x="25" y="325.5654">alt</text><text fill="#000000" font-family="sans-serif" font-size="11" font-weight="bold" lengthAdjust="spacing" textLength="87" x="86" y="324.4893">[validaci&#243;n falla]</text><polygon fill="#181818" points="77.5,347.7734,67.5,351.7734,77.5,355.7734,73.5,351.7734" style="stroke:#181818;stroke-width:1.0;"/><line style="stroke:#181818;stroke-width:1.0;stroke-dasharray:2.0,2.0;" x1="71.5" x2="781.5" y1="351.7734" y2="351.7734"/><text fill="#000000" font-family="sans-serif" font-size="13" lengthAdjust="spacing" textLength="355" x="83.5" y="346.917">"Error: campos obligatorios incompletos o formato incorrecto"</text><polygon fill="#181818" points="770.5,361.7734,780.5,365.7734,770.5,369.7734,774.5,365.7734" style="stroke:#181818;stroke-width:1.0;"/><line style="stroke:#181818;stroke-width:1.0;stroke-dasharray:2.0,2.0;" x1="66.5" x2="776.5" y1="365.7734" y2="365.7734"/><rect fill="#EEEEEE" height="3" style="stroke:#EEEEEE;stroke-width:1.0;" width="1556.5" x="0" y="401.9492"/><line style="stroke:#000000;stroke-width:1.0;" x1="0" x2="1556.5" y1="401.9492" y2="401.9492"/><line style="stroke:#000000;stroke-width:1.0;" x1="0" x2="1556.5" y1="404.9492" y2="404.9492"/><rect fill="#EEEEEE" height="24.3516" style="stroke:#000000;stroke-width:2.0;" width="231" x="662.75" y="390.7734"/><text fill="#000000" font-family="sans-serif" font-size="13" font-weight="bold" lengthAdjust="spacing" textLength="213" x="668.75" y="408.2686">Verificar duplicados y referencias</text><polygon fill="#181818" points="1470.5,443.4766,1480.5,447.4766,1470.5,451.4766,1474.5,447.4766" style="stroke:#181818;stroke-width:1.0;"/><line style="stroke:#181818;stroke-width:1.0;" x1="782.5" x2="1476.5" y1="447.4766" y2="447.4766"/><text fill="#000000" font-family="sans-serif" font-size="13" lengthAdjust="spacing" textLength="207" x="789.5" y="442.6201">buscarPorCodigoBarra(codigoBarra)</text><path d="M10,462.4766 L71,462.4766 L71,470.8281 L61,480.8281 L10,480.8281 L10,462.4766 " fill="#EEEEEE" style="stroke:#000000;stroke-width:1.5;"/><rect fill="none" height="139.2422" style="stroke:#000000;stroke-width:1.5;" width="1536.5" x="10" y="462.4766"/><text fill="#000000" font-family="sans-serif" font-size="13" font-weight="bold" lengthAdjust="spacing" textLength="16" x="25" y="476.9717">alt</text><text fill="#000000" font-family="sans-serif" font-size="11" font-weight="bold" lengthAdjust="spacing" textLength="57" x="86" y="475.8955">[ya existe]</text><polygon fill="#181818" points="793.5,499.1797,783.5,503.1797,793.5,507.1797,789.5,503.1797" style="stroke:#181818;stroke-width:1.0;"/><line style="stroke:#181818;stroke-width:1.0;stroke-dasharray:2.0,2.0;" x1="787.5" x2="1481.5" y1="503.1797" y2="503.1797"/><text fill="#000000" font-family="sans-serif" font-size="13" lengthAdjust="spacing" textLength="64" x="799.5" y="498.3232">encontrado</text><polygon fill="#181818" points="77.5,529.5313,67.5,533.5313,77.5,537.5313,73.5,533.5313" style="stroke:#181818;stroke-width:1.0;"/><line style="stroke:#181818;stroke-width:1.0;stroke-dasharray:2.0,2.0;" x1="71.5" x2="781.5" y1="533.5313" y2="533.5313"/><text fill="#000000" font-family="sans-serif" font-size="13" lengthAdjust="spacing" textLength="214" x="83.5" y="528.6748">"Error: c&#243;digo de barra ya registrado"</text><polygon fill="#181818" points="770.5,543.5313,780.5,547.5313,770.5,551.5313,774.5,547.5313" style="stroke:#181818;stroke-width:1.0;"/><line style="stroke:#181818;stroke-width:1.0;stroke-dasharray:2.0,2.0;" x1="66.5" x2="776.5" y1="547.5313" y2="547.5313"/><line style="stroke:#000000;stroke-width:1.0;stroke-dasharray:2.0,2.0;" x1="10" x2="1546.5" y1="556.5313" y2="556.5313"/><text fill="#000000" font-family="sans-serif" font-size="11" font-weight="bold" lengthAdjust="spacing" textLength="59" x="15" y="567.9502">[no existe]</text><polygon fill="#181818" points="793.5,589.7188,783.5,593.7188,793.5,597.7188,789.5,593.7188" style="stroke:#181818;stroke-width:1.0;"/><line style="stroke:#181818;stroke-width:1.0;stroke-dasharray:2.0,2.0;" x1="787.5" x2="1486.5" y1="593.7188" y2="593.7188"/><text fill="#000000" font-family="sans-serif" font-size="13" lengthAdjust="spacing" textLength="80" x="799.5" y="588.8623">noEncontrado</text><rect fill="#EEEEEE" height="3" style="stroke:#EEEEEE;stroke-width:1.0;" width="1556.5" x="0" y="629.8945"/><line style="stroke:#000000;stroke-width:1.0;" x1="0" x2="1556.5" y1="629.8945" y2="629.8945"/><line style="stroke:#000000;stroke-width:1.0;" x1="0" x2="1556.5" y1="632.8945" y2="632.8945"/><rect fill="#EEEEEE" height="24.3516" style="stroke:#000000;stroke-width:2.0;" width="210" x="673.25" y="618.7188"/><text fill="#000000" font-family="sans-serif" font-size="13" font-weight="bold" lengthAdjust="spacing" textLength="192" x="679.25" y="636.2139">Persistencia del medicamento</text><polygon fill="#181818" points="1470.5,671.4219,1480.5,675.4219,1470.5,679.4219,1474.5,675.4219" style="stroke:#181818;stroke-width:1.0;"/><line style="stroke:#181818;stroke-width:1.0;" x1="782.5" x2="1476.5" y1="675.4219" y2="675.4219"/><text fill="#000000" font-family="sans-serif" font-size="13" lengthAdjust="spacing" textLength="681" x="789.5" y="670.5654">setMedicamento(codigoBarra, nombre, descripci&#243;n, laboratorio, precioUnitario, stock, stockMinimo, drogueriaNombre)</text><polygon fill="#181818" points="793.5,701.7734,783.5,705.7734,793.5,709.7734,789.5,705.7734" style="stroke:#181818;stroke-width:1.0;"/><line style="stroke:#181818;stroke-width:1.0;stroke-dasharray:2.0,2.0;" x1="787.5" x2="1486.5" y1="705.7734" y2="705.7734"/><text fill="#000000" font-family="sans-serif" font-size="13" lengthAdjust="spacing" textLength="125" x="799.5" y="700.917">object : Medicamento</text><rect fill="#EEEEEE" height="3" style="stroke:#EEEEEE;stroke-width:1.0;" width="1556.5" x="0" y="734.9492"/><line style="stroke:#000000;stroke-width:1.0;" x1="0" x2="1556.5" y1="734.9492" y2="734.9492"/><line style="stroke:#000000;stroke-width:1.0;" x1="0" x2="1556.5" y1="737.9492" y2="737.9492"/><rect fill="#EEEEEE" height="24.3516" style="stroke:#000000;stroke-width:2.0;" width="248" x="654.25" y="723.7734"/><text fill="#000000" font-family="sans-serif" font-size="13" font-weight="bold" lengthAdjust="spacing" textLength="230" x="660.25" y="741.2686">Post-proceso: alertas y confirmaci&#243;n</text><polygon fill="#181818" points="1470.5,776.4766,1480.5,780.4766,1470.5,784.4766,1474.5,780.4766" style="stroke:#181818;stroke-width:1.0;"/><line style="stroke:#181818;stroke-width:1.0;" x1="782.5" x2="1476.5" y1="780.4766" y2="780.4766"/><text fill="#000000" font-family="sans-serif" font-size="13" lengthAdjust="spacing" textLength="238" x="789.5" y="775.6201">estaPorDebajoStockMinimo(codigoBarra)</text><polygon fill="#181818" points="793.5,806.8281,783.5,810.8281,793.5,814.8281,789.5,810.8281" style="stroke:#181818;stroke-width:1.0;"/><line style="stroke:#181818;stroke-width:1.0;stroke-dasharray:2.0,2.0;" x1="787.5" x2="1486.5" y1="810.8281" y2="810.8281"/><text fill="#000000" font-family="sans-serif" font-size="13" lengthAdjust="spacing" textLength="60" x="799.5" y="805.9717">bool alerta</text><path d="M10,825.8281 L71,825.8281 L71,834.1797 L61,844.1797 L10,844.1797 L10,825.8281 " fill="#EEEEEE" style="stroke:#000000;stroke-width:1.5;"/><rect fill="none" height="48.7031" style="stroke:#000000;stroke-width:1.5;" width="848.5" x="10" y="825.8281"/><text fill="#000000" font-family="sans-serif" font-size="13" font-weight="bold" lengthAdjust="spacing" textLength="16" x="25" y="840.3232">alt</text><text fill="#000000" font-family="sans-serif" font-size="11" font-weight="bold" lengthAdjust="spacing" textLength="74" x="86" y="839.2471">[alerta = true]</text><polygon fill="#181818" points="77.5,862.5313,67.5,866.5313,77.5,870.5313,73.5,866.5313" style="stroke:#181818;stroke-width:1.0;"/><line style="stroke:#181818;stroke-width:1.0;stroke-dasharray:2.0,2.0;" x1="71.5" x2="781.5" y1="866.5313" y2="866.5313"/><text fill="#000000" font-family="sans-serif" font-size="13" lengthAdjust="spacing" textLength="286" x="83.5" y="861.6748">"Advertencia: stock &lt;= m&#237;nimo. Alerta registrada"</text><polygon fill="#181818" points="77.5,899.8828,67.5,903.8828,77.5,907.8828,73.5,903.8828" style="stroke:#181818;stroke-width:1.0;"/><line style="stroke:#181818;stroke-width:1.0;stroke-dasharray:2.0,2.0;" x1="71.5" x2="781.5" y1="903.8828" y2="903.8828"/><text fill="#000000" font-family="sans-serif" font-size="13" lengthAdjust="spacing" textLength="218" x="83.5" y="899.0264">"Medicamento creado correctamente"</text><!--SRC=[dLN1Rjim3BtxAuYSMY0PUWxc05cMOxi2mtRQXPQOG9qj6fGIB1_LKpyXFpOg3X9bY3Et9zkIIBx7zoYZYImmjutpBaH1or8Ozb6uXYTQit6yw3uFMorATCQrw2CyadK66_AHYw8iOUbJF88bi1WvG5aM5ubXChkI4wPWX52oT7U6hLlp5nJ1CNXkAg4nj48Q-SExYE9u326o-NryF6gLHjUiy7f3ul3f66Gf676jSVitFuOQAnR5fl7t1PhejXZf6i_4voVMpg9kU0g9bE-EmGvMB8rcIGIlyEbZkJtaamKsBOTlLUtM7P9mT__BJs0uvtJwScFsSDoQbGzfDsUjkRIqsR_Y1V_JCXTOnoEuBc25TOq5N6CnKNANcavXj1HXKHKFn80pPk2yuQQjATc1JtrBgw848e-qZALRIW08nOtuWhpjP55vL-eK0RjfQtsncdkdfrOav8t3qAzBvZ45Ncs2fdbcMPnRdriliqZkzTIk7GBzqHwGuikJJlh4LsHyc0_-G6FtRmbJyc2LSANgGklZoNzQc2CTtjiwK3B4-pXvNfvP9NbwO2JLdab2ofq4KbGrD5c5WNe5Yl-z97hd_KFtHuy31dM7gnTrkBxaaRSwn25EMc53WQU0DKd4P6pjyChft7IpER1L52AgiRzIXI_y_SnmWBq7aQjO_myTnbvEQKww8r12b0szm_bpkzN0WrkcdKBmkOHc_vf8V89vb_Oq13ZgheUXwNEEwUTZzT7TI8T56XN5xSdv2m00]--></g></svg>