<svg xmlns="http://www.w3.org/2000/svg" xmlns:xlink="http://www.w3.org/1999/xlink" contentStyleType="text/css" data-diagram-type="SEQUENCE" height="661px" preserveAspectRatio="none" style="width:2020px;height:661px;background:#FFFFFF;" version="1.1" viewBox="0 0 2020 661" width="2020px" zoomAndPan="magnify"><title>Carga de Medicamentos</title><defs/><g><text fill="#000000" font-family="sans-serif" font-size="14" font-weight="bold" lengthAdjust="spacing" textLength="190.0459" x="916.3547" y="27.9951">Carga de Medicamentos</text><g><title>NegCtrl. Interfaz</title><rect fill="#FFFFFF" height="494.7656" style="stroke:#181818;stroke-width:1;" width="10" x="913.5225" y="149.7266"/></g><g><title>List.Medicamento.. objListaMedicamentos</title><rect fill="#FFFFFF" height="157.6641" style="stroke:#181818;stroke-width:1;" width="10" x="1316.8564" y="246.9297"/></g><g><title>List.Medicamento.. objListaMedicamentos</title><rect fill="#FFFFFF" height="29.1328" style="stroke:#181818;stroke-width:1;" width="10" x="1316.8564" y="564.2266"/></g><g><title>Medicamento. objMedicamento</title><rect fill="#FFFFFF" height="29.1328" style="stroke:#181818;stroke-width:1;" width="10" x="1605.3525" y="300.1953"/></g><g><title>Medicamento. nuevoMedicamento</title><rect fill="#FFFFFF" height="31.2969" style="stroke:#181818;stroke-width:1;" width="10" x="1860.6431" y="503.7969"/></g><rect fill="none" height="472.7656" style="stroke:#000000;stroke-width:1.5;" width="2003.7554" x="10" y="164.7266"/><rect fill="none" height="135.6641" style="stroke:#000000;stroke-width:1.5;" width="903.8916" x="833.6392" y="261.9297"/><rect fill="none" height="46.2656" style="stroke:#000000;stroke-width:1.5;" width="649.5352" x="843.6392" y="344.3281"/><rect fill="none" height="218.8984" style="stroke:#000000;stroke-width:1.5;" width="1983.7554" x="20" y="411.5938"/><g><title>Administrador.Admin</title><rect fill="#000000" fill-opacity="0.00000" height="535.8984" width="8" x="103.3306" y="118.5938"/><line style="stroke:#181818;stroke-width:0.5;stroke-dasharray:5,5;" x1="107" x2="107" y1="118.5938" y2="654.4922"/></g><g><title>NegCtrl. Interfaz</title><rect fill="#000000" fill-opacity="0.00000" height="535.8984" width="8" x="914.5225" y="118.5938"/><line style="stroke:#181818;stroke-width:0.5;stroke-dasharray:5,5;" x1="917.6392" x2="917.6392" y1="118.5938" y2="654.4922"/></g><g><title>List.Medicamento.. objListaMedicamentos</title><rect fill="#000000" fill-opacity="0.00000" height="535.8984" width="8" x="1317.8564" y="118.5938"/><line style="stroke:#181818;stroke-width:0.5;stroke-dasharray:5,5;" x1="1321.5386" x2="1321.5386" y1="118.5938" y2="654.4922"/></g><g><title>Medicamento. objMedicamento</title><rect fill="#000000" fill-opacity="0.00000" height="535.8984" width="8" x="1606.3525" y="118.5938"/><line style="stroke:#181818;stroke-width:0.5;stroke-dasharray:5,5;" x1="1610.1743" x2="1610.1743" y1="118.5938" y2="654.4922"/></g><g><title>Medicamento. nuevoMedicamento</title><rect fill="#000000" fill-opacity="0.00000" height="151.1797" width="8" x="1861.6431" y="503.3125"/><line style="stroke:#181818;stroke-width:0.5;stroke-dasharray:5,5;" x1="1865.5308" x2="1865.5308" y1="503.3125" y2="654.4922"/></g><g class="participant participant-head" data-participant="admin"><text fill="#000000" font-family="sans-serif" font-size="14" lengthAdjust="spacing" textLength="148.6611" x="30" y="115.292">Administrador:Admin</text><ellipse cx="107.3306" cy="50.7969" fill="#E2E2F0" rx="8" ry="8" style="stroke:#181818;stroke-width:0.5;"/><path d="M107.3306,58.7969 L107.3306,85.7969 M94.3306,66.7969 L120.3306,66.7969 M107.3306,85.7969 L94.3306,100.7969 M107.3306,85.7969 L120.3306,100.7969" fill="none" style="stroke:#181818;stroke-width:0.5;"/></g><g class="participant participant-head" data-participant="NegCtrl"><rect fill="#E2E2F0" height="30.2969" rx="2.5" ry="2.5" style="stroke:#181818;stroke-width:0.5;" width="129.7666" x="853.6392" y="87.2969"/><text fill="#000000" font-family="sans-serif" font-size="14" lengthAdjust="spacing" textLength="115.7666" x="860.6392" y="107.292">NegCtrl: Interfaz</text></g><g class="participant participant-head" data-participant="lista"><rect fill="#E2E2F0" height="30.2969" rx="2.5" ry="2.5" style="stroke:#181818;stroke-width:0.5;" width="322.6357" x="1160.5386" y="87.2969"/><text fill="#000000" font-family="sans-serif" font-size="14" lengthAdjust="spacing" textLength="308.6357" x="1167.5386" y="107.292">List&lt;Medicamento&gt;: objListaMedicamentos</text></g><g class="participant participant-head" data-participant="med"><rect fill="#E2E2F0" height="30.2969" rx="2.5" ry="2.5" style="stroke:#181818;stroke-width:0.5;" width="234.3564" x="1493.1743" y="87.2969"/><text fill="#000000" font-family="sans-serif" font-size="14" lengthAdjust="spacing" textLength="220.3564" x="1500.1743" y="107.292">Medicamento: objMedicamento</text></g><g><title>NegCtrl. Interfaz</title><rect fill="#FFFFFF" height="494.7656" style="stroke:#181818;stroke-width:1;" width="10" x="913.5225" y="149.7266"/></g><g><title>List.Medicamento.. objListaMedicamentos</title><rect fill="#FFFFFF" height="157.6641" style="stroke:#181818;stroke-width:1;" width="10" x="1316.8564" y="246.9297"/></g><g><title>List.Medicamento.. objListaMedicamentos</title><rect fill="#FFFFFF" height="29.1328" style="stroke:#181818;stroke-width:1;" width="10" x="1316.8564" y="564.2266"/></g><g><title>Medicamento. objMedicamento</title><rect fill="#FFFFFF" height="29.1328" style="stroke:#181818;stroke-width:1;" width="10" x="1605.3525" y="300.1953"/></g><g><title>Medicamento. nuevoMedicamento</title><rect fill="#FFFFFF" height="31.2969" style="stroke:#181818;stroke-width:1;" width="10" x="1860.6431" y="503.7969"/></g><g class="message" data-participant-1="admin" data-participant-2="NegCtrl"><polygon fill="#181818" points="901.5225,145.7266,911.5225,149.7266,901.5225,153.7266,905.5225,149.7266" style="stroke:#181818;stroke-width:1;"/><line style="stroke:#181818;stroke-width:1;" x1="107.3306" x2="907.5225" y1="149.7266" y2="149.7266"/><text fill="#000000" font-family="sans-serif" font-size="13" lengthAdjust="spacing" textLength="787.1919" x="114.3306" y="144.6606">registrarMedicamento(codBarras: String, nombre: String, descripcion: String, laboratorio: String, precio: Float, stock: Int)</text></g><path d="M10,164.7266 L74.4429,164.7266 L74.4429,171.8594 L64.4429,181.8594 L10,181.8594 L10,164.7266" fill="#EEEEEE" style="stroke:#000000;stroke-width:1.5;"/><rect fill="none" height="472.7656" style="stroke:#000000;stroke-width:1.5;" width="2003.7554" x="10" y="164.7266"/><text fill="#000000" font-family="sans-serif" font-size="13" font-weight="bold" lengthAdjust="spacing" textLength="19.4429" x="25" y="177.7935">alt</text><text fill="#000000" font-family="sans-serif" font-size="11" font-weight="bold" lengthAdjust="spacing" textLength="255.9917" x="89.4429" y="176.937">[datos incompletos o formato incorrecto]</text><g class="message" data-participant-1="NegCtrl" data-participant-2="admin"><polygon fill="#181818" points="118.3306,198.9922,108.3306,202.9922,118.3306,206.9922,114.3306,202.9922" style="stroke:#181818;stroke-width:1;"/><line style="stroke:#181818;stroke-width:1;stroke-dasharray:2,2;" x1="112.3306" x2="912.5225" y1="202.9922" y2="202.9922"/><text fill="#000000" font-family="sans-serif" font-size="13" lengthAdjust="spacing" textLength="49.6323" x="124.3306" y="197.9263">&#171;NULL&#187;</text></g><line style="stroke:#000000;stroke-width:1;stroke-dasharray:2,2;" x1="10" x2="2013.7554" y1="211.9922" y2="211.9922"/><text fill="#000000" font-family="sans-serif" font-size="11" font-weight="bold" lengthAdjust="spacing" textLength="92.6567" x="15" y="222.2026">[datos v&#225;lidos]</text><g class="message" data-participant-1="NegCtrl" data-participant-2="lista"><polygon fill="#181818" points="1304.8564,242.9297,1314.8564,246.9297,1304.8564,250.9297,1308.8564,246.9297" style="stroke:#181818;stroke-width:1;"/><line style="stroke:#181818;stroke-width:1;" x1="923.5225" x2="1310.8564" y1="246.9297" y2="246.9297"/><text fill="#000000" font-family="sans-serif" font-size="13" lengthAdjust="spacing" textLength="254.9854" x="930.5225" y="241.8638">buscarMedicamento(codBarras: String)</text></g><path d="M833.6392,261.9297 L910.2632,261.9297 L910.2632,269.0625 L900.2632,279.0625 L833.6392,279.0625 L833.6392,261.9297" fill="#EEEEEE" style="stroke:#000000;stroke-width:1.5;"/><rect fill="none" height="135.6641" style="stroke:#000000;stroke-width:1.5;" width="903.8916" x="833.6392" y="261.9297"/><text fill="#000000" font-family="sans-serif" font-size="13" font-weight="bold" lengthAdjust="spacing" textLength="31.624" x="848.6392" y="274.9966">loop</text><a href="para" target="_top" title="para" xlink:actuate="onRequest" xlink:href="para" xlink:show="new" xlink:title="para" xlink:type="simple"><text fill="#0000FF" font-family="sans-serif" font-size="11" font-weight="bold" lengthAdjust="spacing" text-decoration="underline" textLength="206.8032" x="925.2632" y="274.1401">cada m en objListaMedicamentos</text></a><g class="message" data-participant-1="lista" data-participant-2="med"><polygon fill="#181818" points="1593.3525,296.1953,1603.3525,300.1953,1593.3525,304.1953,1597.3525,300.1953" style="stroke:#181818;stroke-width:1;"/><line style="stroke:#181818;stroke-width:1;" x1="1326.8564" x2="1599.3525" y1="300.1953" y2="300.1953"/><text fill="#000000" font-family="sans-serif" font-size="13" lengthAdjust="spacing" textLength="99.0869" x="1333.8564" y="295.1294">getCodBarras()</text></g><g class="message" data-participant-1="med" data-participant-2="lista"><polygon fill="#181818" points="1337.8564,325.3281,1327.8564,329.3281,1337.8564,333.3281,1333.8564,329.3281" style="stroke:#181818;stroke-width:1;"/><line style="stroke:#181818;stroke-width:1;stroke-dasharray:2,2;" x1="1331.8564" x2="1609.3525" y1="329.3281" y2="329.3281"/><text fill="#000000" font-family="sans-serif" font-size="13" lengthAdjust="spacing" textLength="151.4741" x="1343.8564" y="324.2622">&#171;codigoActual : String&#187;</text></g><path d="M843.6392,344.3281 L908.082,344.3281 L908.082,351.4609 L898.082,361.4609 L843.6392,361.4609 L843.6392,344.3281" fill="#EEEEEE" style="stroke:#000000;stroke-width:1.5;"/><rect fill="none" height="46.2656" style="stroke:#000000;stroke-width:1.5;" width="649.5352" x="843.6392" y="344.3281"/><text fill="#000000" font-family="sans-serif" font-size="13" font-weight="bold" lengthAdjust="spacing" textLength="19.4429" x="858.6392" y="357.395">alt</text><text fill="#000000" font-family="sans-serif" font-size="11" font-weight="bold" lengthAdjust="spacing" textLength="179.1958" x="923.082" y="356.5386">[codBarras == codigoActual]</text><g class="message" data-participant-1="lista" data-participant-2="NegCtrl"><polygon fill="#181818" points="934.5225,378.5938,924.5225,382.5938,934.5225,386.5938,930.5225,382.5938" style="stroke:#181818;stroke-width:1;"/><line style="stroke:#181818;stroke-width:1;stroke-dasharray:2,2;" x1="928.5225" x2="1315.8564" y1="382.5938" y2="382.5938"/><text fill="#000000" font-family="sans-serif" font-size="13" lengthAdjust="spacing" textLength="299.0635" x="940.5225" y="377.5278">&#171;objMedicamentoEncontrado : Medicamento&#187;</text></g><path d="M20,411.5938 L84.4429,411.5938 L84.4429,418.7266 L74.4429,428.7266 L20,428.7266 L20,411.5938" fill="#EEEEEE" style="stroke:#000000;stroke-width:1.5;"/><rect fill="none" height="218.8984" style="stroke:#000000;stroke-width:1.5;" width="1983.7554" x="20" y="411.5938"/><text fill="#000000" font-family="sans-serif" font-size="13" font-weight="bold" lengthAdjust="spacing" textLength="19.4429" x="35" y="424.6606">alt</text><text fill="#000000" font-family="sans-serif" font-size="11" font-weight="bold" lengthAdjust="spacing" textLength="228.7065" x="99.4429" y="423.8042">[objMedicamentoEncontrado != null]</text><g class="message" data-participant-1="NegCtrl" data-participant-2="admin"><polygon fill="#181818" points="118.3306,445.8594,108.3306,449.8594,118.3306,453.8594,114.3306,449.8594" style="stroke:#181818;stroke-width:1;"/><line style="stroke:#181818;stroke-width:1;stroke-dasharray:2,2;" x1="112.3306" x2="912.5225" y1="449.8594" y2="449.8594"/><text fill="#000000" font-family="sans-serif" font-size="13" lengthAdjust="spacing" textLength="49.6323" x="124.3306" y="444.7935">&#171;NULL&#187;</text></g><line style="stroke:#000000;stroke-width:1;stroke-dasharray:2,2;" x1="20" x2="2003.7554" y1="458.8594" y2="458.8594"/><text fill="#000000" font-family="sans-serif" font-size="11" font-weight="bold" lengthAdjust="spacing" textLength="232.9067" x="25" y="469.0698">[objMedicamentoEncontrado == null]</text><g class="message" data-participant-1="NegCtrl" data-participant-2="newMed"><polygon fill="#181818" points="1725.5308,489.7969,1735.5308,493.7969,1725.5308,497.7969,1729.5308,493.7969" style="stroke:#181818;stroke-width:1;"/><line style="stroke:#181818;stroke-width:1;" x1="923.5225" x2="1731.5308" y1="493.7969" y2="493.7969"/><text fill="#000000" font-family="sans-serif" font-size="13" lengthAdjust="spacing" textLength="684.8677" x="930.5225" y="488.731">create(codBarras: String, nombre: String, descripcion: String, laboratorio: String, precio: Float, stock: Int)</text></g><rect fill="#E2E2F0" height="30.2969" rx="2.5" ry="2.5" style="stroke:#181818;stroke-width:0.5;" width="256.2246" x="1737.5308" y="472.6641"/><text fill="#000000" font-family="sans-serif" font-size="14" lengthAdjust="spacing" textLength="242.2246" x="1744.5308" y="492.6592">Medicamento: nuevoMedicamento</text><g class="message" data-participant-1="newMed" data-participant-2="NegCtrl"><polygon fill="#181818" points="934.5225,531.0938,924.5225,535.0938,934.5225,539.0938,930.5225,535.0938" style="stroke:#181818;stroke-width:1;"/><line style="stroke:#181818;stroke-width:1;stroke-dasharray:2,2;" x1="928.5225" x2="1864.6431" y1="535.0938" y2="535.0938"/><text fill="#000000" font-family="sans-serif" font-size="13" lengthAdjust="spacing" textLength="244.9624" x="940.5225" y="530.0278">&#171;nuevoMedicamento : Medicamento&#187;</text></g><g class="message" data-participant-1="NegCtrl" data-participant-2="lista"><polygon fill="#181818" points="1304.8564,560.2266,1314.8564,564.2266,1304.8564,568.2266,1308.8564,564.2266" style="stroke:#181818;stroke-width:1;"/><line style="stroke:#181818;stroke-width:1;" x1="923.5225" x2="1310.8564" y1="564.2266" y2="564.2266"/><text fill="#000000" font-family="sans-serif" font-size="13" lengthAdjust="spacing" textLength="374.334" x="930.5225" y="559.1606">agregarMedicamento(nuevoMedicamento: Medicamento)</text></g><g class="message" data-participant-1="lista" data-participant-2="NegCtrl"><polygon fill="#181818" points="934.5225,589.3594,924.5225,593.3594,934.5225,597.3594,930.5225,593.3594" style="stroke:#181818;stroke-width:1;"/><line style="stroke:#181818;stroke-width:1;stroke-dasharray:2,2;" x1="928.5225" x2="1320.8564" y1="593.3594" y2="593.3594"/><text fill="#000000" font-family="sans-serif" font-size="13" lengthAdjust="spacing" textLength="125.2329" x="940.5225" y="588.2935">&#171;estado : Boolean&#187;</text></g><g class="message" data-participant-1="NegCtrl" data-participant-2="admin"><polygon fill="#181818" points="118.3306,618.4922,108.3306,622.4922,118.3306,626.4922,114.3306,622.4922" style="stroke:#181818;stroke-width:1;"/><line style="stroke:#181818;stroke-width:1;stroke-dasharray:2,2;" x1="112.3306" x2="912.5225" y1="622.4922" y2="622.4922"/><text fill="#000000" font-family="sans-serif" font-size="13" lengthAdjust="spacing" textLength="49.6323" x="124.3306" y="617.4263">&#171;NULL&#187;</text></g><!--SRC=[lLJDZjCm4BxdAOQUjglj2qHjfDqA9AIo5yG9SPWwiy7WU2B7BOYtuLbuCSPkajhzMt719_lp_7mpyzbUUqEmHjSWr0GVgDOAMxAU-wBugWLwOVPR_baKg3mxc3tMhRQwzmvhTcKypG1xmB0hEdHUAzsXzJ1xfcRjdIdXlVNaNl1ND1pG8hVTICXbahugWRVV0eefgHZ113HtJsoYOtAEBYtLDnpiZlPywcBfXq1IToWC5jL874fmrCGEkCJdJd7zXCvXNy97xxHj7i1oktLqFDVKAwSxfTaUGODRTYYzrNm4EqSgdDyPHly0lMVrFVPn7kQWz-Zfs4YGXSP3BL5wq5PnsnaAUvRnkLRWY3e9wZcQXpNMiv3Q3aMMi5m-VzfigYeQaUbf2Bh_yzleMaGHyFC8rM4c4c2xwzKhVPbF_bCfXucEyBGnp1rybhaXAAmHMY1xKHPV9fVe5ha8APcwK6h8hqSET_FCSY8Gz95U1Cz5KjPo2LA7RlXH-Hq63HngWQ5LuwhfQiWyiOnhQWoiLbdqp38fADEWCCfr_bOcREEpbDi4FwL8ziWhtIVKhumZaBwQyyrAdf79kR-giBCKKN9NSwo679UJLCEJXVjxoQCSIId_xLLULDNmXQHt0yMpMPv-GRTdcCng_AQkj6GKC3RoQUKFypHbbl5AHRaoRcYJ18rAV68sXFP61OUO_owSLBp521H9u27ANm00]--></g></svg>