<svg xmlns="http://www.w3.org/2000/svg" xmlns:xlink="http://www.w3.org/1999/xlink" contentStyleType="text/css" data-diagram-type="SEQUENCE" height="661px" preserveAspectRatio="none" style="width:2012px;height:661px;background:#FFFFFF;" version="1.1" viewBox="0 0 2012 661" width="2012px" zoomAndPan="magnify"><title>Carga de Medicamentos</title><defs/><g><text fill="#000000" font-family="sans-serif" font-size="14" font-weight="bold" lengthAdjust="spacing" textLength="190.0459" x="912.3081" y="27.9951">Carga de Medicamentos</text><g><title>NegCtrl. Interfaz</title><rect fill="#FFFFFF" height="494.7656" style="stroke:#181818;stroke-width:1;" width="10" x="905.4292" y="149.7266"/></g><g><title>List.Medicamento.. objListaMedicamentos</title><rect fill="#FFFFFF" height="157.6641" style="stroke:#181818;stroke-width:1;" width="10" x="1308.7632" y="246.9297"/></g><g><title>List.Medicamento.. objListaMedicamentos</title><rect fill="#FFFFFF" height="29.1328" style="stroke:#181818;stroke-width:1;" width="10" x="1308.7632" y="564.2266"/></g><g><title>Medicamento. objMedicamento</title><rect fill="#FFFFFF" height="29.1328" style="stroke:#181818;stroke-width:1;" width="10" x="1597.2593" y="300.1953"/></g><g><title>Medicamento. nuevoMedicamento</title><rect fill="#FFFFFF" height="31.2969" style="stroke:#181818;stroke-width:1;" width="10" x="1852.5498" y="503.7969"/></g><rect fill="none" height="472.7656" style="stroke:#000000;stroke-width:1.5;" width="1995.6621" x="10" y="164.7266"/><rect fill="none" height="135.6641" style="stroke:#000000;stroke-width:1.5;" width="903.8916" x="825.5459" y="261.9297"/><rect fill="none" height="46.2656" style="stroke:#000000;stroke-width:1.5;" width="649.5352" x="835.5459" y="344.3281"/><rect fill="none" height="218.8984" style="stroke:#000000;stroke-width:1.5;" width="1975.6621" x="20" y="411.5938"/><g><title>Administrador.Admin</title><rect fill="#000000" fill-opacity="0.00000" height="535.8984" width="8" x="103.3306" y="118.5938"/><line style="stroke:#181818;stroke-width:0.5;stroke-dasharray:5,5;" x1="107" x2="107" y1="118.5938" y2="654.4922"/></g><g><title>NegCtrl. Interfaz</title><rect fill="#000000" fill-opacity="0.00000" height="535.8984" width="8" x="906.4292" y="118.5938"/><line style="stroke:#181818;stroke-width:0.5;stroke-dasharray:5,5;" x1="909.5459" x2="909.5459" y1="118.5938" y2="654.4922"/></g><g><title>List.Medicamento.. objListaMedicamentos</title><rect fill="#000000" fill-opacity="0.00000" height="535.8984" width="8" x="1309.7632" y="118.5938"/><line style="stroke:#181818;stroke-width:0.5;stroke-dasharray:5,5;" x1="1313.4453" x2="1313.4453" y1="118.5938" y2="654.4922"/></g><g><title>Medicamento. objMedicamento</title><rect fill="#000000" fill-opacity="0.00000" height="535.8984" width="8" x="1598.2593" y="118.5938"/><line style="stroke:#181818;stroke-width:0.5;stroke-dasharray:5,5;" x1="1602.0811" x2="1602.0811" y1="118.5938" y2="654.4922"/></g><g><title>Medicamento. nuevoMedicamento</title><rect fill="#000000" fill-opacity="0.00000" height="151.1797" width="8" x="1853.5498" y="503.3125"/><line style="stroke:#181818;stroke-width:0.5;stroke-dasharray:5,5;" x1="1857.4375" x2="1857.4375" y1="503.3125" y2="654.4922"/></g><g class="participant participant-head" data-participant="admin"><text fill="#000000" font-family="sans-serif" font-size="14" lengthAdjust="spacing" textLength="148.6611" x="30" y="115.292">Administrador:Admin</text><ellipse cx="107.3306" cy="50.7969" fill="#E2E2F0" rx="8" ry="8" style="stroke:#181818;stroke-width:0.5;"/><path d="M107.3306,58.7969 L107.3306,85.7969 M94.3306,66.7969 L120.3306,66.7969 M107.3306,85.7969 L94.3306,100.7969 M107.3306,85.7969 L120.3306,100.7969" fill="none" style="stroke:#181818;stroke-width:0.5;"/></g><g class="participant participant-head" data-participant="NegCtrl"><rect fill="#E2E2F0" height="30.2969" rx="2.5" ry="2.5" style="stroke:#181818;stroke-width:0.5;" width="129.7666" x="845.5459" y="87.2969"/><text fill="#000000" font-family="sans-serif" font-size="14" lengthAdjust="spacing" textLength="115.7666" x="852.5459" y="107.292">NegCtrl: Interfaz</text></g><g class="participant participant-head" data-participant="lista"><rect fill="#E2E2F0" height="30.2969" rx="2.5" ry="2.5" style="stroke:#181818;stroke-width:0.5;" width="322.6357" x="1152.4453" y="87.2969"/><text fill="#000000" font-family="sans-serif" font-size="14" lengthAdjust="spacing" textLength="308.6357" x="1159.4453" y="107.292">List&lt;Medicamento&gt;: objListaMedicamentos</text></g><g class="participant participant-head" data-participant="med"><rect fill="#E2E2F0" height="30.2969" rx="2.5" ry="2.5" style="stroke:#181818;stroke-width:0.5;" width="234.3564" x="1485.0811" y="87.2969"/><text fill="#000000" font-family="sans-serif" font-size="14" lengthAdjust="spacing" textLength="220.3564" x="1492.0811" y="107.292">Medicamento: objMedicamento</text></g><g><title>NegCtrl. Interfaz</title><rect fill="#FFFFFF" height="494.7656" style="stroke:#181818;stroke-width:1;" width="10" x="905.4292" y="149.7266"/></g><g><title>List.Medicamento.. objListaMedicamentos</title><rect fill="#FFFFFF" height="157.6641" style="stroke:#181818;stroke-width:1;" width="10" x="1308.7632" y="246.9297"/></g><g><title>List.Medicamento.. objListaMedicamentos</title><rect fill="#FFFFFF" height="29.1328" style="stroke:#181818;stroke-width:1;" width="10" x="1308.7632" y="564.2266"/></g><g><title>Medicamento. objMedicamento</title><rect fill="#FFFFFF" height="29.1328" style="stroke:#181818;stroke-width:1;" width="10" x="1597.2593" y="300.1953"/></g><g><title>Medicamento. nuevoMedicamento</title><rect fill="#FFFFFF" height="31.2969" style="stroke:#181818;stroke-width:1;" width="10" x="1852.5498" y="503.7969"/></g><g class="message" data-participant-1="admin" data-participant-2="NegCtrl"><polygon fill="#181818" points="893.4292,145.7266,903.4292,149.7266,893.4292,153.7266,897.4292,149.7266" style="stroke:#181818;stroke-width:1;"/><line style="stroke:#181818;stroke-width:1;" x1="107.3306" x2="899.4292" y1="149.7266" y2="149.7266"/><text fill="#000000" font-family="sans-serif" font-size="13" lengthAdjust="spacing" textLength="779.0986" x="114.3306" y="144.6606">registrarMedicamento(codBarras: String, nombre: String, descripcion: String, drogueria: String, precio: Float, stock: Int)</text></g><path d="M10,164.7266 L74.4429,164.7266 L74.4429,171.8594 L64.4429,181.8594 L10,181.8594 L10,164.7266" fill="#EEEEEE" style="stroke:#000000;stroke-width:1.5;"/><rect fill="none" height="472.7656" style="stroke:#000000;stroke-width:1.5;" width="1995.6621" x="10" y="164.7266"/><text fill="#000000" font-family="sans-serif" font-size="13" font-weight="bold" lengthAdjust="spacing" textLength="19.4429" x="25" y="177.7935">alt</text><text fill="#000000" font-family="sans-serif" font-size="11" font-weight="bold" lengthAdjust="spacing" textLength="255.9917" x="89.4429" y="176.937">[datos incompletos o formato incorrecto]</text><g class="message" data-participant-1="NegCtrl" data-participant-2="admin"><polygon fill="#181818" points="118.3306,198.9922,108.3306,202.9922,118.3306,206.9922,114.3306,202.9922" style="stroke:#181818;stroke-width:1;"/><line style="stroke:#181818;stroke-width:1;stroke-dasharray:2,2;" x1="112.3306" x2="904.4292" y1="202.9922" y2="202.9922"/><text fill="#000000" font-family="sans-serif" font-size="13" lengthAdjust="spacing" textLength="49.6323" x="124.3306" y="197.9263">&#171;NULL&#187;</text></g><line style="stroke:#000000;stroke-width:1;stroke-dasharray:2,2;" x1="10" x2="2005.6621" y1="211.9922" y2="211.9922"/><text fill="#000000" font-family="sans-serif" font-size="11" font-weight="bold" lengthAdjust="spacing" textLength="92.6567" x="15" y="222.2026">[datos v&#225;lidos]</text><g class="message" data-participant-1="NegCtrl" data-participant-2="lista"><polygon fill="#181818" points="1296.7632,242.9297,1306.7632,246.9297,1296.7632,250.9297,1300.7632,246.9297" style="stroke:#181818;stroke-width:1;"/><line style="stroke:#181818;stroke-width:1;" x1="915.4292" x2="1302.7632" y1="246.9297" y2="246.9297"/><text fill="#000000" font-family="sans-serif" font-size="13" lengthAdjust="spacing" textLength="254.9854" x="922.4292" y="241.8638">buscarMedicamento(codBarras: String)</text></g><path d="M825.5459,261.9297 L902.1699,261.9297 L902.1699,269.0625 L892.1699,279.0625 L825.5459,279.0625 L825.5459,261.9297" fill="#EEEEEE" style="stroke:#000000;stroke-width:1.5;"/><rect fill="none" height="135.6641" style="stroke:#000000;stroke-width:1.5;" width="903.8916" x="825.5459" y="261.9297"/><text fill="#000000" font-family="sans-serif" font-size="13" font-weight="bold" lengthAdjust="spacing" textLength="31.624" x="840.5459" y="274.9966">loop</text><a href="para" target="_top" title="para" xlink:actuate="onRequest" xlink:href="para" xlink:show="new" xlink:title="para" xlink:type="simple"><text fill="#0000FF" font-family="sans-serif" font-size="11" font-weight="bold" lengthAdjust="spacing" text-decoration="underline" textLength="206.8032" x="917.1699" y="274.1401">cada m en objListaMedicamentos</text></a><g class="message" data-participant-1="lista" data-participant-2="med"><polygon fill="#181818" points="1585.2593,296.1953,1595.2593,300.1953,1585.2593,304.1953,1589.2593,300.1953" style="stroke:#181818;stroke-width:1;"/><line style="stroke:#181818;stroke-width:1;" x1="1318.7632" x2="1591.2593" y1="300.1953" y2="300.1953"/><text fill="#000000" font-family="sans-serif" font-size="13" lengthAdjust="spacing" textLength="99.0869" x="1325.7632" y="295.1294">getCodBarras()</text></g><g class="message" data-participant-1="med" data-participant-2="lista"><polygon fill="#181818" points="1329.7632,325.3281,1319.7632,329.3281,1329.7632,333.3281,1325.7632,329.3281" style="stroke:#181818;stroke-width:1;"/><line style="stroke:#181818;stroke-width:1;stroke-dasharray:2,2;" x1="1323.7632" x2="1601.2593" y1="329.3281" y2="329.3281"/><text fill="#000000" font-family="sans-serif" font-size="13" lengthAdjust="spacing" textLength="151.4741" x="1335.7632" y="324.2622">&#171;codigoActual : String&#187;</text></g><path d="M835.5459,344.3281 L899.9888,344.3281 L899.9888,351.4609 L889.9888,361.4609 L835.5459,361.4609 L835.5459,344.3281" fill="#EEEEEE" style="stroke:#000000;stroke-width:1.5;"/><rect fill="none" height="46.2656" style="stroke:#000000;stroke-width:1.5;" width="649.5352" x="835.5459" y="344.3281"/><text fill="#000000" font-family="sans-serif" font-size="13" font-weight="bold" lengthAdjust="spacing" textLength="19.4429" x="850.5459" y="357.395">alt</text><text fill="#000000" font-family="sans-serif" font-size="11" font-weight="bold" lengthAdjust="spacing" textLength="179.1958" x="914.9888" y="356.5386">[codBarras == codigoActual]</text><g class="message" data-participant-1="lista" data-participant-2="NegCtrl"><polygon fill="#181818" points="926.4292,378.5938,916.4292,382.5938,926.4292,386.5938,922.4292,382.5938" style="stroke:#181818;stroke-width:1;"/><line style="stroke:#181818;stroke-width:1;stroke-dasharray:2,2;" x1="920.4292" x2="1307.7632" y1="382.5938" y2="382.5938"/><text fill="#000000" font-family="sans-serif" font-size="13" lengthAdjust="spacing" textLength="299.0635" x="932.4292" y="377.5278">&#171;objMedicamentoEncontrado : Medicamento&#187;</text></g><path d="M20,411.5938 L84.4429,411.5938 L84.4429,418.7266 L74.4429,428.7266 L20,428.7266 L20,411.5938" fill="#EEEEEE" style="stroke:#000000;stroke-width:1.5;"/><rect fill="none" height="218.8984" style="stroke:#000000;stroke-width:1.5;" width="1975.6621" x="20" y="411.5938"/><text fill="#000000" font-family="sans-serif" font-size="13" font-weight="bold" lengthAdjust="spacing" textLength="19.4429" x="35" y="424.6606">alt</text><text fill="#000000" font-family="sans-serif" font-size="11" font-weight="bold" lengthAdjust="spacing" textLength="228.7065" x="99.4429" y="423.8042">[objMedicamentoEncontrado != null]</text><g class="message" data-participant-1="NegCtrl" data-participant-2="admin"><polygon fill="#181818" points="118.3306,445.8594,108.3306,449.8594,118.3306,453.8594,114.3306,449.8594" style="stroke:#181818;stroke-width:1;"/><line style="stroke:#181818;stroke-width:1;stroke-dasharray:2,2;" x1="112.3306" x2="904.4292" y1="449.8594" y2="449.8594"/><text fill="#000000" font-family="sans-serif" font-size="13" lengthAdjust="spacing" textLength="49.6323" x="124.3306" y="444.7935">&#171;NULL&#187;</text></g><line style="stroke:#000000;stroke-width:1;stroke-dasharray:2,2;" x1="20" x2="1995.6621" y1="458.8594" y2="458.8594"/><text fill="#000000" font-family="sans-serif" font-size="11" font-weight="bold" lengthAdjust="spacing" textLength="232.9067" x="25" y="469.0698">[objMedicamentoEncontrado == null]</text><g class="message" data-participant-1="NegCtrl" data-participant-2="newMed"><polygon fill="#181818" points="1717.4375,489.7969,1727.4375,493.7969,1717.4375,497.7969,1721.4375,493.7969" style="stroke:#181818;stroke-width:1;"/><line style="stroke:#181818;stroke-width:1;" x1="915.4292" x2="1723.4375" y1="493.7969" y2="493.7969"/><text fill="#000000" font-family="sans-serif" font-size="13" lengthAdjust="spacing" textLength="676.7744" x="922.4292" y="488.731">create(codBarras: String, nombre: String, descripcion: String, drogueria: String, precio: Float, stock: Int)</text></g><rect fill="#E2E2F0" height="30.2969" rx="2.5" ry="2.5" style="stroke:#181818;stroke-width:0.5;" width="256.2246" x="1729.4375" y="472.6641"/><text fill="#000000" font-family="sans-serif" font-size="14" lengthAdjust="spacing" textLength="242.2246" x="1736.4375" y="492.6592">Medicamento: nuevoMedicamento</text><g class="message" data-participant-1="newMed" data-participant-2="NegCtrl"><polygon fill="#181818" points="926.4292,531.0938,916.4292,535.0938,926.4292,539.0938,922.4292,535.0938" style="stroke:#181818;stroke-width:1;"/><line style="stroke:#181818;stroke-width:1;stroke-dasharray:2,2;" x1="920.4292" x2="1856.5498" y1="535.0938" y2="535.0938"/><text fill="#000000" font-family="sans-serif" font-size="13" lengthAdjust="spacing" textLength="244.9624" x="932.4292" y="530.0278">&#171;nuevoMedicamento : Medicamento&#187;</text></g><g class="message" data-participant-1="NegCtrl" data-participant-2="lista"><polygon fill="#181818" points="1296.7632,560.2266,1306.7632,564.2266,1296.7632,568.2266,1300.7632,564.2266" style="stroke:#181818;stroke-width:1;"/><line style="stroke:#181818;stroke-width:1;" x1="915.4292" x2="1302.7632" y1="564.2266" y2="564.2266"/><text fill="#000000" font-family="sans-serif" font-size="13" lengthAdjust="spacing" textLength="374.334" x="922.4292" y="559.1606">agregarMedicamento(nuevoMedicamento: Medicamento)</text></g><g class="message" data-participant-1="lista" data-participant-2="NegCtrl"><polygon fill="#181818" points="926.4292,589.3594,916.4292,593.3594,926.4292,597.3594,922.4292,593.3594" style="stroke:#181818;stroke-width:1;"/><line style="stroke:#181818;stroke-width:1;stroke-dasharray:2,2;" x1="920.4292" x2="1312.7632" y1="593.3594" y2="593.3594"/><text fill="#000000" font-family="sans-serif" font-size="13" lengthAdjust="spacing" textLength="125.2329" x="932.4292" y="588.2935">&#171;estado : Boolean&#187;</text></g><g class="message" data-participant-1="NegCtrl" data-participant-2="admin"><polygon fill="#181818" points="118.3306,618.4922,108.3306,622.4922,118.3306,626.4922,114.3306,622.4922" style="stroke:#181818;stroke-width:1;"/><line style="stroke:#181818;stroke-width:1;stroke-dasharray:2,2;" x1="112.3306" x2="904.4292" y1="622.4922" y2="622.4922"/><text fill="#000000" font-family="sans-serif" font-size="13" lengthAdjust="spacing" textLength="49.6323" x="124.3306" y="617.4263">&#171;NULL&#187;</text></g><!--SRC=[lLJDZjCm4BxdAOQUjglj2qHffDqA9AIo5yG9SPZQiy7Ws97Z5iJRy2oy66CtIUsswOeBFjcVv-URcS_sock23Re6GH9y8Aa4jcIyxOlYgsBenLg_ip-B0eMt3XQFibL6zTwXjAwCfmLW3nXsHOVEAw4wD1uMpzHilDCbl3UUt0l-YeO3MkIsMmvP9Udh4kpkMq0n9HKZw83cxebDT4pEqQKbUSF1xEbWprqC_M28wmw5mQeUYKC9ZfhO0PVut0ahdz0vx4luw9qopGCOs-uSdSwIUk5K9vGr2UXiioUdy0HrZjYcX7VQed-0tblnFNPn6QQW3kZfr4RWXTg3HEuFA2DissaAUyl3Sot34NKSrDje7jPOpOehEvPOGbKzVzfkwpeQaUvf27huyrihoP88-6M4-ZWH3h3Rz-ALhYmd_wcKupn7UDfeQplup5D342WHMY1pLHHV9fVe5hamAPuvKsh8RqOETylCSY8Gr95U1CzLKbPL0TUX6lie_1w30ewrmD2gSKcQ3Padvd5DZO7rEekUMIO5PGfaHhdAt_A4JNoKV9lWvnJ9d7Yb-uJwp3W2wTcSRzRyY7JE_LM5NQI8aflDiHvoN4zI3myMxkyvZt34fVodDtbLKyFtaTuD12ycUVxzt9vWCgdnYvffo2XVRFZ3of_bUSeiuqn5kIvkA9COZJfyibOJcXiL76F-ksnIwHOZK2I1XoX_0G00]--></g></svg>