<svg xmlns="http://www.w3.org/2000/svg" xmlns:xlink="http://www.w3.org/1999/xlink" contentStyleType="text/css" data-diagram-type="SEQUENCE" height="1027px" preserveAspectRatio="none" style="width:2358px;height:1027px;background:#FFFFFF;" version="1.1" viewBox="0 0 2358 1027" width="2358px" zoomAndPan="magnify"><title>Secuencia: Carga Empleados (Validaci&#243;n Correcta)</title><defs/><g><text fill="#000000" font-family="sans-serif" font-size="14" font-weight="bold" lengthAdjust="spacing" textLength="399.3896" x="980.729" y="27.9951">Secuencia: Carga Empleados (Validaci&#243;n Correcta)</text><g><title>Interfaz. NegCtrl</title><rect fill="#FFFFFF" height="860.5234" style="stroke:#181818;stroke-width:1;" width="10" x="883.333" y="149.7266"/></g><g><title>List.Usuario.. objListaUsuarios</title><rect fill="#FFFFFF" height="157.6641" style="stroke:#181818;stroke-width:1;" width="10" x="1170.4478" y="246.9297"/></g><g><title>List.Usuario.. objListaUsuarios</title><rect fill="#FFFFFF" height="29.1328" style="stroke:#181818;stroke-width:1;" width="10" x="1170.4478" y="871.7188"/></g><g><title>Usuario. objUsuario</title><rect fill="#FFFFFF" height="29.1328" style="stroke:#181818;stroke-width:1;" width="10" x="1375.5044" y="300.1953"/></g><g><title>Usuario. nuevoUsuario</title><rect fill="#FFFFFF" height="31.2969" style="stroke:#181818;stroke-width:1;" width="10" x="1547.3555" y="682.5938"/></g><g><title>List.Empleado.. objListaEmpleados</title><rect fill="#FFFFFF" height="157.6641" style="stroke:#181818;stroke-width:1;" width="10" x="1780.0464" y="425.7266"/></g><g><title>List.Empleado.. objListaEmpleados</title><rect fill="#FFFFFF" height="29.1328" style="stroke:#181818;stroke-width:1;" width="10" x="1780.0464" y="929.9844"/></g><g><title>Empleado. objEmpleado</title><rect fill="#FFFFFF" height="29.1328" style="stroke:#181818;stroke-width:1;" width="10" x="2018.5034" y="478.9922"/></g><g><title>Empleado. nuevoEmpleado</title><rect fill="#FFFFFF" height="31.2969" style="stroke:#181818;stroke-width:1;" width="10" x="2223.7549" y="753.0234"/></g><g><title>Empleado. nuevoEmpleado</title><rect fill="#FFFFFF" height="29.1328" style="stroke:#181818;stroke-width:1;" width="10" x="2223.7549" y="813.4531"/></g><rect fill="none" height="838.5234" style="stroke:#000000;stroke-width:1.5;" width="2341.8477" x="10" y="164.7266"/><rect fill="none" height="135.6641" style="stroke:#000000;stroke-width:1.5;" width="662.5132" x="803.4497" y="261.9297"/><rect fill="none" height="46.2656" style="stroke:#000000;stroke-width:1.5;" width="491.5962" x="813.4497" y="344.3281"/><rect fill="none" height="135.6641" style="stroke:#000000;stroke-width:1.5;" width="1322.2124" x="803.4497" y="440.7266"/><rect fill="none" height="46.2656" style="stroke:#000000;stroke-width:1.5;" width="1117.895" x="813.4497" y="523.125"/><rect fill="none" height="405.8594" style="stroke:#000000;stroke-width:1.5;" width="2321.8477" x="20" y="590.3906"/><g><title>Administrador.Admin</title><rect fill="#000000" fill-opacity="0.00000" height="901.6563" width="8" x="103.3306" y="118.5938"/><line style="stroke:#181818;stroke-width:0.5;stroke-dasharray:5,5;" x1="107" x2="107" y1="118.5938" y2="1020.25"/></g><g><title>Interfaz. NegCtrl</title><rect fill="#000000" fill-opacity="0.00000" height="901.6563" width="8" x="884.333" y="118.5938"/><line style="stroke:#181818;stroke-width:0.5;stroke-dasharray:5,5;" x1="887.4497" x2="887.4497" y1="118.5938" y2="1020.25"/></g><g><title>List.Usuario.. objListaUsuarios</title><rect fill="#000000" fill-opacity="0.00000" height="901.6563" width="8" x="1171.4478" y="118.5938"/><line style="stroke:#181818;stroke-width:0.5;stroke-dasharray:5,5;" x1="1174.8496" x2="1174.8496" y1="118.5938" y2="1020.25"/></g><g><title>Usuario. objUsuario</title><rect fill="#000000" fill-opacity="0.00000" height="901.6563" width="8" x="1376.5044" y="118.5938"/><line style="stroke:#181818;stroke-width:0.5;stroke-dasharray:5,5;" x1="1380.0459" x2="1380.0459" y1="118.5938" y2="1020.25"/></g><g><title>Usuario. nuevoUsuario</title><rect fill="#000000" fill-opacity="0.00000" height="338.1406" width="8" x="1548.3555" y="682.1094"/><line style="stroke:#181818;stroke-width:0.5;stroke-dasharray:5,5;" x1="1551.9629" x2="1551.9629" y1="682.1094" y2="1020.25"/></g><g><title>List.Empleado.. objListaEmpleados</title><rect fill="#000000" fill-opacity="0.00000" height="901.6563" width="8" x="1781.0464" y="118.5938"/><line style="stroke:#181818;stroke-width:0.5;stroke-dasharray:5,5;" x1="1784.748" x2="1784.748" y1="118.5938" y2="1020.25"/></g><g><title>Empleado. objEmpleado</title><rect fill="#000000" fill-opacity="0.00000" height="901.6563" width="8" x="2019.5034" y="118.5938"/><line style="stroke:#181818;stroke-width:0.5;stroke-dasharray:5,5;" x1="2023.3447" x2="2023.3447" y1="118.5938" y2="1020.25"/></g><g><title>Empleado. nuevoEmpleado</title><rect fill="#000000" fill-opacity="0.00000" height="267.7109" width="8" x="2224.7549" y="752.5391"/><line style="stroke:#181818;stroke-width:0.5;stroke-dasharray:5,5;" x1="2228.6621" x2="2228.6621" y1="752.5391" y2="1020.25"/></g><g class="participant participant-head" data-participant="admin"><text fill="#000000" font-family="sans-serif" font-size="14" lengthAdjust="spacing" textLength="148.6611" x="30" y="115.292">Administrador:Admin</text><ellipse cx="107.3306" cy="50.7969" fill="#E2E2F0" rx="8" ry="8" style="stroke:#181818;stroke-width:0.5;"/><path d="M107.3306,58.7969 L107.3306,85.7969 M94.3306,66.7969 L120.3306,66.7969 M107.3306,85.7969 L94.3306,100.7969 M107.3306,85.7969 L120.3306,100.7969" fill="none" style="stroke:#181818;stroke-width:0.5;"/></g><g class="participant participant-head" data-participant="NegCtrl"><rect fill="#E2E2F0" height="30.2969" rx="2.5" ry="2.5" style="stroke:#181818;stroke-width:0.5;" width="129.7666" x="823.4497" y="87.2969"/><text fill="#000000" font-family="sans-serif" font-size="14" lengthAdjust="spacing" textLength="115.7666" x="830.4497" y="107.292">Interfaz: NegCtrl</text></g><g class="participant participant-head" data-participant="listaUser"><rect fill="#E2E2F0" height="30.2969" rx="2.5" ry="2.5" style="stroke:#181818;stroke-width:0.5;" width="239.1963" x="1055.8496" y="87.2969"/><text fill="#000000" font-family="sans-serif" font-size="14" lengthAdjust="spacing" textLength="225.1963" x="1062.8496" y="107.292">List&lt;Usuario&gt;: objListaUsuarios</text></g><g class="participant participant-head" data-participant="user"><rect fill="#E2E2F0" height="30.2969" rx="2.5" ry="2.5" style="stroke:#181818;stroke-width:0.5;" width="150.917" x="1305.0459" y="87.2969"/><text fill="#000000" font-family="sans-serif" font-size="14" lengthAdjust="spacing" textLength="136.917" x="1312.0459" y="107.292">Usuario: objUsuario</text></g><g class="participant participant-head" data-participant="listaEmp"><rect fill="#E2E2F0" height="30.2969" rx="2.5" ry="2.5" style="stroke:#181818;stroke-width:0.5;" width="272.5967" x="1648.748" y="87.2969"/><text fill="#000000" font-family="sans-serif" font-size="14" lengthAdjust="spacing" textLength="258.5967" x="1655.748" y="107.292">List&lt;Empleado&gt;: objListaEmpleados</text></g><g class="participant participant-head" data-participant="emp"><rect fill="#E2E2F0" height="30.2969" rx="2.5" ry="2.5" style="stroke:#181818;stroke-width:0.5;" width="184.3174" x="1931.3447" y="87.2969"/><text fill="#000000" font-family="sans-serif" font-size="14" lengthAdjust="spacing" textLength="170.3174" x="1938.3447" y="107.292">Empleado: objEmpleado</text></g><g><title>Interfaz. NegCtrl</title><rect fill="#FFFFFF" height="860.5234" style="stroke:#181818;stroke-width:1;" width="10" x="883.333" y="149.7266"/></g><g><title>List.Usuario.. objListaUsuarios</title><rect fill="#FFFFFF" height="157.6641" style="stroke:#181818;stroke-width:1;" width="10" x="1170.4478" y="246.9297"/></g><g><title>List.Usuario.. objListaUsuarios</title><rect fill="#FFFFFF" height="29.1328" style="stroke:#181818;stroke-width:1;" width="10" x="1170.4478" y="871.7188"/></g><g><title>Usuario. objUsuario</title><rect fill="#FFFFFF" height="29.1328" style="stroke:#181818;stroke-width:1;" width="10" x="1375.5044" y="300.1953"/></g><g><title>Usuario. nuevoUsuario</title><rect fill="#FFFFFF" height="31.2969" style="stroke:#181818;stroke-width:1;" width="10" x="1547.3555" y="682.5938"/></g><g><title>List.Empleado.. objListaEmpleados</title><rect fill="#FFFFFF" height="157.6641" style="stroke:#181818;stroke-width:1;" width="10" x="1780.0464" y="425.7266"/></g><g><title>List.Empleado.. objListaEmpleados</title><rect fill="#FFFFFF" height="29.1328" style="stroke:#181818;stroke-width:1;" width="10" x="1780.0464" y="929.9844"/></g><g><title>Empleado. objEmpleado</title><rect fill="#FFFFFF" height="29.1328" style="stroke:#181818;stroke-width:1;" width="10" x="2018.5034" y="478.9922"/></g><g><title>Empleado. nuevoEmpleado</title><rect fill="#FFFFFF" height="31.2969" style="stroke:#181818;stroke-width:1;" width="10" x="2223.7549" y="753.0234"/></g><g><title>Empleado. nuevoEmpleado</title><rect fill="#FFFFFF" height="29.1328" style="stroke:#181818;stroke-width:1;" width="10" x="2223.7549" y="813.4531"/></g><g class="message" data-participant-1="admin" data-participant-2="NegCtrl"><polygon fill="#181818" points="871.333,145.7266,881.333,149.7266,871.333,153.7266,875.333,149.7266" style="stroke:#181818;stroke-width:1;"/><line style="stroke:#181818;stroke-width:1;" x1="107.3306" x2="877.333" y1="149.7266" y2="149.7266"/><text fill="#000000" font-family="sans-serif" font-size="13" lengthAdjust="spacing" textLength="757.0024" x="114.3306" y="144.6606">registrarNuevoEmpleado(nombreUsuario: String, contrasenia: String, tipo: TipoUsuario, legajo: String, sueldo: Float)</text></g><path d="M10,164.7266 L74.4429,164.7266 L74.4429,171.8594 L64.4429,181.8594 L10,181.8594 L10,164.7266" fill="#EEEEEE" style="stroke:#000000;stroke-width:1.5;"/><rect fill="none" height="838.5234" style="stroke:#000000;stroke-width:1.5;" width="2341.8477" x="10" y="164.7266"/><text fill="#000000" font-family="sans-serif" font-size="13" font-weight="bold" lengthAdjust="spacing" textLength="19.4429" x="25" y="177.7935">alt</text><text fill="#000000" font-family="sans-serif" font-size="11" font-weight="bold" lengthAdjust="spacing" textLength="241.8335" x="89.4429" y="176.937">[datos incompletos o formato inv&#225;lido]</text><g class="message" data-participant-1="NegCtrl" data-participant-2="admin"><polygon fill="#181818" points="118.3306,198.9922,108.3306,202.9922,118.3306,206.9922,114.3306,202.9922" style="stroke:#181818;stroke-width:1;"/><line style="stroke:#181818;stroke-width:1;stroke-dasharray:2,2;" x1="112.3306" x2="882.333" y1="202.9922" y2="202.9922"/><text fill="#000000" font-family="sans-serif" font-size="13" lengthAdjust="spacing" textLength="49.6323" x="124.3306" y="197.9263">&#171;NULL&#187;</text></g><line style="stroke:#000000;stroke-width:1;stroke-dasharray:2,2;" x1="10" x2="2351.8477" y1="211.9922" y2="211.9922"/><text fill="#000000" font-family="sans-serif" font-size="11" font-weight="bold" lengthAdjust="spacing" textLength="92.6567" x="15" y="222.2026">[datos v&#225;lidos]</text><g class="message" data-participant-1="NegCtrl" data-participant-2="listaUser"><polygon fill="#181818" points="1158.4478,242.9297,1168.4478,246.9297,1158.4478,250.9297,1162.4478,246.9297" style="stroke:#181818;stroke-width:1;"/><line style="stroke:#181818;stroke-width:1;" x1="893.333" x2="1164.4478" y1="246.9297" y2="246.9297"/><text fill="#000000" font-family="sans-serif" font-size="13" lengthAdjust="spacing" textLength="250.4341" x="900.333" y="241.8638">buscarUsuario(nombreUsuario: String)</text></g><path d="M803.4497,261.9297 L880.0737,261.9297 L880.0737,269.0625 L870.0737,279.0625 L803.4497,279.0625 L803.4497,261.9297" fill="#EEEEEE" style="stroke:#000000;stroke-width:1.5;"/><rect fill="none" height="135.6641" style="stroke:#000000;stroke-width:1.5;" width="662.5132" x="803.4497" y="261.9297"/><text fill="#000000" font-family="sans-serif" font-size="13" font-weight="bold" lengthAdjust="spacing" textLength="31.624" x="818.4497" y="274.9966">loop</text><a href="para" target="_top" title="para" xlink:actuate="onRequest" xlink:href="para" xlink:show="new" xlink:title="para" xlink:type="simple"><text fill="#0000FF" font-family="sans-serif" font-size="11" font-weight="bold" lengthAdjust="spacing" text-decoration="underline" textLength="167.0947" x="895.0737" y="274.1401">cada u en objListaUsuarios</text></a><g class="message" data-participant-1="listaUser" data-participant-2="user"><polygon fill="#181818" points="1363.5044,296.1953,1373.5044,300.1953,1363.5044,304.1953,1367.5044,300.1953" style="stroke:#181818;stroke-width:1;"/><line style="stroke:#181818;stroke-width:1;" x1="1180.4478" x2="1369.5044" y1="300.1953" y2="300.1953"/><text fill="#000000" font-family="sans-serif" font-size="13" lengthAdjust="spacing" textLength="132.8311" x="1187.4478" y="295.1294">getNombreUsuario()</text></g><g class="message" data-participant-1="user" data-participant-2="listaUser"><polygon fill="#181818" points="1191.4478,325.3281,1181.4478,329.3281,1191.4478,333.3281,1187.4478,329.3281" style="stroke:#181818;stroke-width:1;"/><line style="stroke:#181818;stroke-width:1;stroke-dasharray:2,2;" x1="1185.4478" x2="1379.5044" y1="329.3281" y2="329.3281"/><text fill="#000000" font-family="sans-serif" font-size="13" lengthAdjust="spacing" textLength="158.7549" x="1197.4478" y="324.2622">&#171;nombreActual : String&#187;</text></g><path d="M813.4497,344.3281 L877.8926,344.3281 L877.8926,351.4609 L867.8926,361.4609 L813.4497,361.4609 L813.4497,344.3281" fill="#EEEEEE" style="stroke:#000000;stroke-width:1.5;"/><rect fill="none" height="46.2656" style="stroke:#000000;stroke-width:1.5;" width="491.5962" x="813.4497" y="344.3281"/><text fill="#000000" font-family="sans-serif" font-size="13" font-weight="bold" lengthAdjust="spacing" textLength="19.4429" x="828.4497" y="357.395">alt</text><text fill="#000000" font-family="sans-serif" font-size="11" font-weight="bold" lengthAdjust="spacing" textLength="218.1685" x="892.8926" y="356.5386">[nombreUsuario == nombreActual]</text><g class="message" data-participant-1="listaUser" data-participant-2="NegCtrl"><polygon fill="#181818" points="904.333,378.5938,894.333,382.5938,904.333,386.5938,900.333,382.5938" style="stroke:#181818;stroke-width:1;"/><line style="stroke:#181818;stroke-width:1;stroke-dasharray:2,2;" x1="898.333" x2="1169.4478" y1="382.5938" y2="382.5938"/><text fill="#000000" font-family="sans-serif" font-size="13" lengthAdjust="spacing" textLength="221.584" x="910.333" y="377.5278">&#171;objUsuarioEncontrado : Usuario&#187;</text></g><g class="message" data-participant-1="NegCtrl" data-participant-2="listaEmp"><polygon fill="#181818" points="1768.0464,421.7266,1778.0464,425.7266,1768.0464,429.7266,1772.0464,425.7266" style="stroke:#181818;stroke-width:1;"/><line style="stroke:#181818;stroke-width:1;" x1="893.333" x2="1774.0464" y1="425.7266" y2="425.7266"/><text fill="#000000" font-family="sans-serif" font-size="13" lengthAdjust="spacing" textLength="205.48" x="900.333" y="420.6606">buscarEmpleado(legajo: String)</text></g><path d="M803.4497,440.7266 L880.0737,440.7266 L880.0737,447.8594 L870.0737,457.8594 L803.4497,457.8594 L803.4497,440.7266" fill="#EEEEEE" style="stroke:#000000;stroke-width:1.5;"/><rect fill="none" height="135.6641" style="stroke:#000000;stroke-width:1.5;" width="1322.2124" x="803.4497" y="440.7266"/><text fill="#000000" font-family="sans-serif" font-size="13" font-weight="bold" lengthAdjust="spacing" textLength="31.624" x="818.4497" y="453.7935">loop</text><a href="para" target="_top" title="para" xlink:actuate="onRequest" xlink:href="para" xlink:show="new" xlink:title="para" xlink:type="simple"><text fill="#0000FF" font-family="sans-serif" font-size="11" font-weight="bold" lengthAdjust="spacing" text-decoration="underline" textLength="199.5093" x="895.0737" y="452.937">cada emp en objListaEmpleados</text></a><g class="message" data-participant-1="listaEmp" data-participant-2="emp"><polygon fill="#181818" points="2006.5034,474.9922,2016.5034,478.9922,2006.5034,482.9922,2010.5034,478.9922" style="stroke:#181818;stroke-width:1;"/><line style="stroke:#181818;stroke-width:1;" x1="1790.0464" x2="2012.5034" y1="478.9922" y2="478.9922"/><text fill="#000000" font-family="sans-serif" font-size="13" lengthAdjust="spacing" textLength="74.5151" x="1797.0464" y="473.9263">getLegajo()</text></g><g class="message" data-participant-1="emp" data-participant-2="listaEmp"><polygon fill="#181818" points="1801.0464,504.125,1791.0464,508.125,1801.0464,512.125,1797.0464,508.125" style="stroke:#181818;stroke-width:1;"/><line style="stroke:#181818;stroke-width:1;stroke-dasharray:2,2;" x1="1795.0464" x2="2022.5034" y1="508.125" y2="508.125"/><text fill="#000000" font-family="sans-serif" font-size="13" lengthAdjust="spacing" textLength="147.6973" x="1807.0464" y="503.0591">&#171;legajoActual : String&#187;</text></g><path d="M813.4497,523.125 L877.8926,523.125 L877.8926,530.2578 L867.8926,540.2578 L813.4497,540.2578 L813.4497,523.125" fill="#EEEEEE" style="stroke:#000000;stroke-width:1.5;"/><rect fill="none" height="46.2656" style="stroke:#000000;stroke-width:1.5;" width="1117.895" x="813.4497" y="523.125"/><text fill="#000000" font-family="sans-serif" font-size="13" font-weight="bold" lengthAdjust="spacing" textLength="19.4429" x="828.4497" y="536.1919">alt</text><text fill="#000000" font-family="sans-serif" font-size="11" font-weight="bold" lengthAdjust="spacing" textLength="151.1748" x="892.8926" y="535.3354">[legajo == legajoActual]</text><g class="message" data-participant-1="listaEmp" data-participant-2="NegCtrl"><polygon fill="#181818" points="904.333,557.3906,894.333,561.3906,904.333,565.3906,900.333,561.3906" style="stroke:#181818;stroke-width:1;"/><line style="stroke:#181818;stroke-width:1;stroke-dasharray:2,2;" x1="898.333" x2="1779.0464" y1="561.3906" y2="561.3906"/><text fill="#000000" font-family="sans-serif" font-size="13" lengthAdjust="spacing" textLength="252.5986" x="910.333" y="556.3247">&#171;objEmpleadoEncontrado : Empleado&#187;</text></g><path d="M20,590.3906 L84.4429,590.3906 L84.4429,597.5234 L74.4429,607.5234 L20,607.5234 L20,590.3906" fill="#EEEEEE" style="stroke:#000000;stroke-width:1.5;"/><rect fill="none" height="405.8594" style="stroke:#000000;stroke-width:1.5;" width="2321.8477" x="20" y="590.3906"/><text fill="#000000" font-family="sans-serif" font-size="13" font-weight="bold" lengthAdjust="spacing" textLength="19.4429" x="35" y="603.4575">alt</text><text fill="#000000" font-family="sans-serif" font-size="11" font-weight="bold" lengthAdjust="spacing" textLength="424.4561" x="99.4429" y="602.6011">[(objUsuarioEncontrado != null) || (objEmpleadoEncontrado != null)]</text><g class="message" data-participant-1="NegCtrl" data-participant-2="admin"><polygon fill="#181818" points="118.3306,624.6563,108.3306,628.6563,118.3306,632.6563,114.3306,628.6563" style="stroke:#181818;stroke-width:1;"/><line style="stroke:#181818;stroke-width:1;stroke-dasharray:2,2;" x1="112.3306" x2="882.333" y1="628.6563" y2="628.6563"/><text fill="#000000" font-family="sans-serif" font-size="13" lengthAdjust="spacing" textLength="49.6323" x="124.3306" y="623.5903">&#171;NULL&#187;</text></g><line style="stroke:#000000;stroke-width:1;stroke-dasharray:2,2;" x1="20" x2="2341.8477" y1="637.6563" y2="637.6563"/><text fill="#000000" font-family="sans-serif" font-size="11" font-weight="bold" lengthAdjust="spacing" textLength="112.0571" x="25" y="647.8667">[(ninguno existe)]</text><g class="message" data-participant-1="NegCtrl" data-participant-2="newUser"><polygon fill="#181818" points="1453.9629,668.5938,1463.9629,672.5938,1453.9629,676.5938,1457.9629,672.5938" style="stroke:#181818;stroke-width:1;"/><line style="stroke:#181818;stroke-width:1;" x1="893.333" x2="1459.9629" y1="672.5938" y2="672.5938"/><text fill="#000000" font-family="sans-serif" font-size="13" lengthAdjust="spacing" textLength="491.2769" x="900.333" y="667.5278">crearUsuario(nombreUsuario: String, contrasenia: String, tipo: TipoUsuario)</text></g><rect fill="#E2E2F0" height="30.2969" rx="2.5" ry="2.5" style="stroke:#181818;stroke-width:0.5;" width="172.7852" x="1465.9629" y="651.4609"/><text fill="#000000" font-family="sans-serif" font-size="14" lengthAdjust="spacing" textLength="158.7852" x="1472.9629" y="671.4561">Usuario: nuevoUsuario</text><g class="message" data-participant-1="newUser" data-participant-2="NegCtrl"><polygon fill="#181818" points="904.333,709.8906,894.333,713.8906,904.333,717.8906,900.333,713.8906" style="stroke:#181818;stroke-width:1;"/><line style="stroke:#181818;stroke-width:1;stroke-dasharray:2,2;" x1="898.333" x2="1551.3555" y1="713.8906" y2="713.8906"/><text fill="#000000" font-family="sans-serif" font-size="13" lengthAdjust="spacing" textLength="167.4829" x="910.333" y="708.8247">&#171;nuevoUsuario : Usuario&#187;</text></g><g class="message" data-participant-1="NegCtrl" data-participant-2="newEmp"><polygon fill="#181818" points="2113.6621,739.0234,2123.6621,743.0234,2113.6621,747.0234,2117.6621,743.0234" style="stroke:#181818;stroke-width:1;"/><line style="stroke:#181818;stroke-width:1;" x1="893.333" x2="2119.6621" y1="743.0234" y2="743.0234"/><text fill="#000000" font-family="sans-serif" font-size="13" lengthAdjust="spacing" textLength="287.2695" x="900.333" y="737.9575">crearEmpleado(legajo: String, sueldo: Float)</text></g><rect fill="#E2E2F0" height="30.2969" rx="2.5" ry="2.5" style="stroke:#181818;stroke-width:0.5;" width="206.1855" x="2125.6621" y="721.8906"/><text fill="#000000" font-family="sans-serif" font-size="14" lengthAdjust="spacing" textLength="192.1855" x="2132.6621" y="741.8857">Empleado: nuevoEmpleado</text><g class="message" data-participant-1="newEmp" data-participant-2="NegCtrl"><polygon fill="#181818" points="904.333,780.3203,894.333,784.3203,904.333,788.3203,900.333,784.3203" style="stroke:#181818;stroke-width:1;"/><line style="stroke:#181818;stroke-width:1;stroke-dasharray:2,2;" x1="898.333" x2="2227.7549" y1="784.3203" y2="784.3203"/><text fill="#000000" font-family="sans-serif" font-size="13" lengthAdjust="spacing" textLength="198.4976" x="910.333" y="779.2544">&#171;nuevoEmpleado : Empleado&#187;</text></g><g class="message" data-participant-1="NegCtrl" data-participant-2="newEmp"><polygon fill="#181818" points="2211.7549,809.4531,2221.7549,813.4531,2211.7549,817.4531,2215.7549,813.4531" style="stroke:#181818;stroke-width:1;"/><line style="stroke:#181818;stroke-width:1;" x1="893.333" x2="2217.7549" y1="813.4531" y2="813.4531"/><text fill="#000000" font-family="sans-serif" font-size="13" lengthAdjust="spacing" textLength="226.8589" x="900.333" y="808.3872">setUsuario(nuevoUsuario: Usuario)</text></g><g class="message" data-participant-1="newEmp" data-participant-2="NegCtrl"><polygon fill="#181818" points="904.333,838.5859,894.333,842.5859,904.333,846.5859,900.333,842.5859" style="stroke:#181818;stroke-width:1;"/><line style="stroke:#181818;stroke-width:1;stroke-dasharray:2,2;" x1="898.333" x2="2227.7549" y1="842.5859" y2="842.5859"/><text fill="#000000" font-family="sans-serif" font-size="13" lengthAdjust="spacing" textLength="49.6323" x="910.333" y="837.52">&#171;NULL&#187;</text></g><g class="message" data-participant-1="NegCtrl" data-participant-2="listaUser"><polygon fill="#181818" points="1158.4478,867.7188,1168.4478,871.7188,1158.4478,875.7188,1162.4478,871.7188" style="stroke:#181818;stroke-width:1;"/><line style="stroke:#181818;stroke-width:1;" x1="893.333" x2="1164.4478" y1="871.7188" y2="871.7188"/><text fill="#000000" font-family="sans-serif" font-size="13" lengthAdjust="spacing" textLength="258.1147" x="900.333" y="866.6528">agregarUsuario(nuevoUsuario: Usuario)</text></g><g class="message" data-participant-1="listaUser" data-participant-2="NegCtrl"><polygon fill="#181818" points="904.333,896.8516,894.333,900.8516,904.333,904.8516,900.333,900.8516" style="stroke:#181818;stroke-width:1;"/><line style="stroke:#181818;stroke-width:1;stroke-dasharray:2,2;" x1="898.333" x2="1174.4478" y1="900.8516" y2="900.8516"/><text fill="#000000" font-family="sans-serif" font-size="13" lengthAdjust="spacing" textLength="125.2329" x="910.333" y="895.7856">&#171;estado : Boolean&#187;</text></g><g class="message" data-participant-1="NegCtrl" data-participant-2="listaEmp"><polygon fill="#181818" points="1768.0464,925.9844,1778.0464,929.9844,1768.0464,933.9844,1772.0464,929.9844" style="stroke:#181818;stroke-width:1;"/><line style="stroke:#181818;stroke-width:1;" x1="893.333" x2="1774.0464" y1="929.9844" y2="929.9844"/><text fill="#000000" font-family="sans-serif" font-size="13" lengthAdjust="spacing" textLength="304.6367" x="900.333" y="924.9185">agregarEmpleado(nuevoEmpleado: Empleado)</text></g><g class="message" data-participant-1="listaEmp" data-participant-2="NegCtrl"><polygon fill="#181818" points="904.333,955.1172,894.333,959.1172,904.333,963.1172,900.333,959.1172" style="stroke:#181818;stroke-width:1;"/><line style="stroke:#181818;stroke-width:1;stroke-dasharray:2,2;" x1="898.333" x2="1784.0464" y1="959.1172" y2="959.1172"/><text fill="#000000" font-family="sans-serif" font-size="13" lengthAdjust="spacing" textLength="125.2329" x="910.333" y="954.0513">&#171;estado : Boolean&#187;</text></g><g class="message" data-participant-1="NegCtrl" data-participant-2="admin"><polygon fill="#181818" points="118.3306,984.25,108.3306,988.25,118.3306,992.25,114.3306,988.25" style="stroke:#181818;stroke-width:1;"/><line style="stroke:#181818;stroke-width:1;stroke-dasharray:2,2;" x1="112.3306" x2="882.333" y1="988.25" y2="988.25"/><text fill="#000000" font-family="sans-serif" font-size="13" lengthAdjust="spacing" textLength="49.6323" x="124.3306" y="983.1841">&#171;NULL&#187;</text></g><!--SRC=[fLR1Rjim3BtxAxYUagBz0ICDq0KPC238fUikmmwApNeg72cGvQuO-ZFxXdr2VsoKRCcIOpNfvaEWq2JroFT4MNDT8znXqQ8eECjXnLJ5OBq_rCXAsS3iAwjvoGh- -aV0IYg5XMRpBFl1IuG7AVLEFcSPAxHKS75RxhdWZLOKgdBxxm9O0yoiiWDJcXVym8I6Yyz2etfWltBOOhNIghQE_JgBVJUKSd7Vj4nnkSn1xXwDXVMMnaRMdGLL7DhxsA1-RTtRjATeyKc6lW9_siGJe5oV0bI-TGCiCiMnpiT6kJ_M7zEk5bVaJC1CQcg_wIzSBrt_80U5bIL2RSEmcP3xdK9VwvrMN5HNK4X1lWqA8m5drFn0Bb_ej_U_WXehzXZ4DItM1jkdMZ8zDpBWJqpZm2FGmseD9TCa9YuAQP2OjIJrg3sPoVhq-fj49gstULmPrrHILriEYyNsVhDPBgqJrWtsEVlOnjgFCom7PL2INTiKJFNbJ3TZxdFuQWPjkLT-KKjvW6_468E2bGnQG74aqE_UtOPuF0IkxN1LgBSXcDay2l58sX24UMpyzQZAnGAwqcuBtJAZXguqwBlddXBJYUFzYS6eMN1p4sqHUO-AZ6H9q8QJk1QTxaf9Rrpc4KOKPJQr3h0Fz2Jf9_rxzlrPYCMSujsSi9Eqqx4DYVSpO89v0uLWeKL4l6yiYXJX6EnkMs2YuwgefLqbvxCzpdf4TfVGi1ocdcPvtKCQa-oQ4B7iZFzAivrt8TBPf9m-a3pRkfx3oulrcC3YNDADE3c5ZgBiM9e9Qduh9E0p8SPpDbYwEmOkBscJGk698NNkn4weojreuKk7u8ZAy3vCdzE0A7zVfcircXbAJPp8e-ibLSjw9ET-W-bAl0BJOenhYIGtNKeE3MfFMD0ltwx_1ZyXk_DXXfS3g-ZJ893NEz0UtuCdHZtI6zlfZr9IfyKRZPuOukb1tjSmVDM4n0wylbN6kEtfKVRU8j94l3L7mg6NEKCMvEwp_0K0]--></g></svg>