<?xml version="1.0" encoding="us-ascii" standalone="no"?><svg xmlns="http://www.w3.org/2000/svg" xmlns:xlink="http://www.w3.org/1999/xlink" contentStyleType="text/css" height="882px" preserveAspectRatio="none" style="width:834px;height:882px;background:#FFFFFF;" version="1.1" viewBox="0 0 834 882" width="834px" zoomAndPan="magnify"><defs/><g><rect fill="#FFFFFF" height="148.1094" style="stroke:#181818;stroke-width:1.0;" width="10" x="398.5" y="159.3125"/><rect fill="#FFFFFF" height="86.0547" style="stroke:#181818;stroke-width:1.0;" width="10" x="687.5" y="403.125"/><rect fill="#FFFFFF" height="30.3516" style="stroke:#181818;stroke-width:1.0;" width="10" x="687.5" y="631.0703"/><rect fill="#FFFFFF" height="30.3516" style="stroke:#181818;stroke-width:1.0;" width="10" x="778.5" y="691.7734"/><rect fill="#FFFFFF" height="30.3516" style="stroke:#181818;stroke-width:1.0;" width="10" x="778.5" y="752.4766"/><rect fill="none" height="62.7031" style="stroke:#000000;stroke-width:1.5;" width="469.5" x="10" y="266.7188"/><rect fill="none" height="139.2422" style="stroke:#000000;stroke-width:1.5;" width="723.5" x="10" y="418.125"/><line style="stroke:#181818;stroke-width:0.5;stroke-dasharray:5.0,5.0;" x1="66" x2="66" y1="82.6094" y2="800.8281"/><line style="stroke:#181818;stroke-width:0.5;stroke-dasharray:5.0,5.0;" x1="403.5" x2="403.5" y1="82.6094" y2="800.8281"/><line style="stroke:#181818;stroke-width:0.5;stroke-dasharray:5.0,5.0;" x1="692.5" x2="692.5" y1="82.6094" y2="800.8281"/><line style="stroke:#181818;stroke-width:0.5;stroke-dasharray:5.0,5.0;" x1="783" x2="783" y1="82.6094" y2="800.8281"/><text fill="#000000" font-family="sans-serif" font-size="14" lengthAdjust="spacing" textLength="87" x="20" y="79.5332">Administrador</text><ellipse cx="66.5" cy="13.5" fill="#E2E2F0" rx="8" ry="8" style="stroke:#181818;stroke-width:0.5;"/><path d="M66.5,21.5 L66.5,48.5 M53.5,29.5 L79.5,29.5 M66.5,48.5 L53.5,63.5 M66.5,48.5 L79.5,63.5 " fill="none" style="stroke:#181818;stroke-width:0.5;"/><text fill="#000000" font-family="sans-serif" font-size="14" lengthAdjust="spacing" textLength="87" x="20" y="814.3613">Administrador</text><ellipse cx="66.5" cy="825.9375" fill="#E2E2F0" rx="8" ry="8" style="stroke:#181818;stroke-width:0.5;"/><path d="M66.5,833.9375 L66.5,860.9375 M53.5,841.9375 L79.5,841.9375 M66.5,860.9375 L53.5,875.9375 M66.5,860.9375 L79.5,875.9375 " fill="none" style="stroke:#181818;stroke-width:0.5;"/><text fill="#000000" font-family="sans-serif" font-size="14" lengthAdjust="spacing" textLength="126" x="337.5" y="79.5332">NegocioControlador</text><ellipse cx="403.5" cy="49" fill="#E2E2F0" rx="12" ry="12" style="stroke:#181818;stroke-width:0.5;"/><polygon fill="#181818" points="399.5,37,405.5,32,403.5,37,405.5,42,399.5,37" style="stroke:#181818;stroke-width:1.0;"/><text fill="#000000" font-family="sans-serif" font-size="14" lengthAdjust="spacing" textLength="126" x="337.5" y="814.3613">NegocioControlador</text><ellipse cx="403.5" cy="833.4375" fill="#E2E2F0" rx="12" ry="12" style="stroke:#181818;stroke-width:0.5;"/><polygon fill="#181818" points="399.5,821.4375,405.5,816.4375,403.5,821.4375,405.5,826.4375,399.5,821.4375" style="stroke:#181818;stroke-width:1.0;"/><rect fill="#E2E2F0" height="31.6094" rx="2.5" ry="2.5" style="stroke:#181818;stroke-width:0.5;" width="62" x="661.5" y="50"/><text fill="#000000" font-family="sans-serif" font-size="14" lengthAdjust="spacing" textLength="48" x="668.5" y="71.5332">Usuario</text><rect fill="#E2E2F0" height="31.6094" rx="2.5" ry="2.5" style="stroke:#181818;stroke-width:0.5;" width="62" x="661.5" y="799.8281"/><text fill="#000000" font-family="sans-serif" font-size="14" lengthAdjust="spacing" textLength="48" x="668.5" y="821.3613">Usuario</text><rect fill="#E2E2F0" height="31.6094" rx="2.5" ry="2.5" style="stroke:#181818;stroke-width:0.5;" width="77" x="745" y="50"/><text fill="#000000" font-family="sans-serif" font-size="14" lengthAdjust="spacing" textLength="63" x="752" y="71.5332">Empleado</text><rect fill="#E2E2F0" height="31.6094" rx="2.5" ry="2.5" style="stroke:#181818;stroke-width:0.5;" width="77" x="745" y="799.8281"/><text fill="#000000" font-family="sans-serif" font-size="14" lengthAdjust="spacing" textLength="63" x="752" y="821.3613">Empleado</text><rect fill="#FFFFFF" height="148.1094" style="stroke:#181818;stroke-width:1.0;" width="10" x="398.5" y="159.3125"/><rect fill="#FFFFFF" height="86.0547" style="stroke:#181818;stroke-width:1.0;" width="10" x="687.5" y="403.125"/><rect fill="#FFFFFF" height="30.3516" style="stroke:#181818;stroke-width:1.0;" width="10" x="687.5" y="631.0703"/><rect fill="#FFFFFF" height="30.3516" style="stroke:#181818;stroke-width:1.0;" width="10" x="778.5" y="691.7734"/><rect fill="#FFFFFF" height="30.3516" style="stroke:#181818;stroke-width:1.0;" width="10" x="778.5" y="752.4766"/><rect fill="#EEEEEE" height="3" style="stroke:#EEEEEE;stroke-width:1.0;" width="827" x="0" y="113.7852"/><line style="stroke:#000000;stroke-width:1.0;" x1="0" x2="827" y1="113.7852" y2="113.7852"/><line style="stroke:#000000;stroke-width:1.0;" x1="0" x2="827" y1="116.7852" y2="116.7852"/><rect fill="#EEEEEE" height="24.3516" style="stroke:#000000;stroke-width:2.0;" width="219" x="304" y="102.6094"/><text fill="#000000" font-family="sans-serif" font-size="13" font-weight="bold" lengthAdjust="spacing" textLength="201" x="310" y="120.1045">Entrada y validaciones iniciales</text><polygon fill="#181818" points="386.5,155.3125,396.5,159.3125,386.5,163.3125,390.5,159.3125" style="stroke:#181818;stroke-width:1.0;"/><line style="stroke:#181818;stroke-width:1.0;" x1="66.5" x2="392.5" y1="159.3125" y2="159.3125"/><text fill="#000000" font-family="sans-serif" font-size="13" lengthAdjust="spacing" textLength="313" x="73.5" y="154.4561">crearUsuario(nombreUsuario, contrase&#241;a, tipoUsuario)</text><line style="stroke:#181818;stroke-width:1.0;" x1="408.5" x2="450.5" y1="238.7188" y2="238.7188"/><line style="stroke:#181818;stroke-width:1.0;" x1="450.5" x2="450.5" y1="238.7188" y2="251.7188"/><line style="stroke:#181818;stroke-width:1.0;" x1="409.5" x2="450.5" y1="251.7188" y2="251.7188"/><polygon fill="#181818" points="419.5,247.7188,409.5,251.7188,419.5,255.7188,415.5,251.7188" style="stroke:#181818;stroke-width:1.0;"/><text fill="#000000" font-family="sans-serif" font-size="13" lengthAdjust="spacing" textLength="161" x="415.5" y="184.8076">validarCamposObligatorios()</text><text fill="#000000" font-family="sans-serif" font-size="13" lengthAdjust="spacing" textLength="146" x="415.5" y="201.1592">- nombreUsuario no vac&#237;o</text><text fill="#000000" font-family="sans-serif" font-size="13" lengthAdjust="spacing" textLength="210" x="415.5" y="217.5107">- contrase&#241;a con requisitos m&#237;nimos</text><text fill="#000000" font-family="sans-serif" font-size="13" lengthAdjust="spacing" textLength="265" x="415.5" y="233.8623">- tipoUsuario &#8712; {Administrador, Farmaceutico}</text><path d="M10,266.7188 L71,266.7188 L71,275.0703 L61,285.0703 L10,285.0703 L10,266.7188 " fill="#EEEEEE" style="stroke:#000000;stroke-width:1.5;"/><rect fill="none" height="62.7031" style="stroke:#000000;stroke-width:1.5;" width="469.5" x="10" y="266.7188"/><text fill="#000000" font-family="sans-serif" font-size="13" font-weight="bold" lengthAdjust="spacing" textLength="16" x="25" y="281.2139">alt</text><text fill="#000000" font-family="sans-serif" font-size="11" font-weight="bold" lengthAdjust="spacing" textLength="87" x="86" y="280.1377">[validaci&#243;n falla]</text><polygon fill="#181818" points="77.5,303.4219,67.5,307.4219,77.5,311.4219,73.5,307.4219" style="stroke:#181818;stroke-width:1.0;"/><line style="stroke:#181818;stroke-width:1.0;stroke-dasharray:2.0,2.0;" x1="71.5" x2="402.5" y1="307.4219" y2="307.4219"/><text fill="#000000" font-family="sans-serif" font-size="13" lengthAdjust="spacing" textLength="305" x="83.5" y="302.5654">"Error: datos obligatorios faltantes o formato inv&#225;lido"</text><polygon fill="#181818" points="391.5,317.4219,401.5,321.4219,391.5,325.4219,395.5,321.4219" style="stroke:#181818;stroke-width:1.0;"/><line style="stroke:#181818;stroke-width:1.0;stroke-dasharray:2.0,2.0;" x1="66.5" x2="397.5" y1="321.4219" y2="321.4219"/><rect fill="#EEEEEE" height="3" style="stroke:#EEEEEE;stroke-width:1.0;" width="827" x="0" y="357.5977"/><line style="stroke:#000000;stroke-width:1.0;" x1="0" x2="827" y1="357.5977" y2="357.5977"/><line style="stroke:#000000;stroke-width:1.0;" x1="0" x2="827" y1="360.5977" y2="360.5977"/><rect fill="#EEEEEE" height="24.3516" style="stroke:#000000;stroke-width:2.0;" width="173" x="327" y="346.4219"/><text fill="#000000" font-family="sans-serif" font-size="13" font-weight="bold" lengthAdjust="spacing" textLength="155" x="333" y="363.917">Verificaci&#243;n de unicidad</text><polygon fill="#181818" points="675.5,399.125,685.5,403.125,675.5,407.125,679.5,403.125" style="stroke:#181818;stroke-width:1.0;"/><line style="stroke:#181818;stroke-width:1.0;" x1="403.5" x2="681.5" y1="403.125" y2="403.125"/><text fill="#000000" font-family="sans-serif" font-size="13" lengthAdjust="spacing" textLength="157" x="410.5" y="398.2686">getUsuario(nombreUsuario)</text><path d="M10,418.125 L71,418.125 L71,426.4766 L61,436.4766 L10,436.4766 L10,418.125 " fill="#EEEEEE" style="stroke:#000000;stroke-width:1.5;"/><rect fill="none" height="139.2422" style="stroke:#000000;stroke-width:1.5;" width="723.5" x="10" y="418.125"/><text fill="#000000" font-family="sans-serif" font-size="13" font-weight="bold" lengthAdjust="spacing" textLength="16" x="25" y="432.6201">alt</text><text fill="#000000" font-family="sans-serif" font-size="11" font-weight="bold" lengthAdjust="spacing" textLength="87" x="86" y="431.5439">[existe usuario]</text><polygon fill="#181818" points="414.5,454.8281,404.5,458.8281,414.5,462.8281,410.5,458.8281" style="stroke:#181818;stroke-width:1.0;"/><line style="stroke:#181818;stroke-width:1.0;stroke-dasharray:2.0,2.0;" x1="408.5" x2="686.5" y1="458.8281" y2="458.8281"/><text fill="#000000" font-family="sans-serif" font-size="13" lengthAdjust="spacing" textLength="64" x="420.5" y="453.9717">encontrado</text><polygon fill="#181818" points="77.5,485.1797,67.5,489.1797,77.5,493.1797,73.5,489.1797" style="stroke:#181818;stroke-width:1.0;"/><line style="stroke:#181818;stroke-width:1.0;stroke-dasharray:2.0,2.0;" x1="71.5" x2="402.5" y1="489.1797" y2="489.1797"/><text fill="#000000" font-family="sans-serif" font-size="13" lengthAdjust="spacing" textLength="260" x="83.5" y="484.3232">"Empleado ya registrado (usuario duplicado)"</text><polygon fill="#181818" points="391.5,499.1797,401.5,503.1797,391.5,507.1797,395.5,503.1797" style="stroke:#181818;stroke-width:1.0;"/><line style="stroke:#181818;stroke-width:1.0;stroke-dasharray:2.0,2.0;" x1="66.5" x2="397.5" y1="503.1797" y2="503.1797"/><line style="stroke:#000000;stroke-width:1.0;stroke-dasharray:2.0,2.0;" x1="10" x2="733.5" y1="512.1797" y2="512.1797"/><text fill="#000000" font-family="sans-serif" font-size="11" font-weight="bold" lengthAdjust="spacing" textLength="59" x="15" y="523.5986">[no existe]</text><polygon fill="#181818" points="414.5,545.3672,404.5,549.3672,414.5,553.3672,410.5,549.3672" style="stroke:#181818;stroke-width:1.0;"/><line style="stroke:#181818;stroke-width:1.0;stroke-dasharray:2.0,2.0;" x1="408.5" x2="691.5" y1="549.3672" y2="549.3672"/><text fill="#000000" font-family="sans-serif" font-size="13" lengthAdjust="spacing" textLength="80" x="420.5" y="544.5107">noEncontrado</text><rect fill="#EEEEEE" height="3" style="stroke:#EEEEEE;stroke-width:1.0;" width="827" x="0" y="585.543"/><line style="stroke:#000000;stroke-width:1.0;" x1="0" x2="827" y1="585.543" y2="585.543"/><line style="stroke:#000000;stroke-width:1.0;" x1="0" x2="827" y1="588.543" y2="588.543"/><rect fill="#EEEEEE" height="24.3516" style="stroke:#000000;stroke-width:2.0;" width="302" x="262.5" y="574.3672"/><text fill="#000000" font-family="sans-serif" font-size="13" font-weight="bold" lengthAdjust="spacing" textLength="284" x="268.5" y="591.8623">Creaci&#243;n de usuario y v&#237;nculo con empleado</text><polygon fill="#181818" points="675.5,627.0703,685.5,631.0703,675.5,635.0703,679.5,631.0703" style="stroke:#181818;stroke-width:1.0;"/><line style="stroke:#181818;stroke-width:1.0;" x1="403.5" x2="681.5" y1="631.0703" y2="631.0703"/><text fill="#000000" font-family="sans-serif" font-size="13" lengthAdjust="spacing" textLength="229" x="410.5" y="626.2139">setUsuario(nombreUsuario, contrase&#241;a)</text><polygon fill="#181818" points="414.5,657.4219,404.5,661.4219,414.5,665.4219,410.5,661.4219" style="stroke:#181818;stroke-width:1.0;"/><line style="stroke:#181818;stroke-width:1.0;stroke-dasharray:2.0,2.0;" x1="408.5" x2="691.5" y1="661.4219" y2="661.4219"/><text fill="#000000" font-family="sans-serif" font-size="13" lengthAdjust="spacing" textLength="39" x="420.5" y="656.5654">creado</text><polygon fill="#181818" points="766.5,687.7734,776.5,691.7734,766.5,695.7734,770.5,691.7734" style="stroke:#181818;stroke-width:1.0;"/><line style="stroke:#181818;stroke-width:1.0;" x1="403.5" x2="772.5" y1="691.7734" y2="691.7734"/><text fill="#000000" font-family="sans-serif" font-size="13" lengthAdjust="spacing" textLength="356" x="410.5" y="686.917">crearEmpleado(legajo, sueldoBase, horasExtras, tipoUsuario)</text><polygon fill="#181818" points="414.5,718.125,404.5,722.125,414.5,726.125,410.5,722.125" style="stroke:#181818;stroke-width:1.0;"/><line style="stroke:#181818;stroke-width:1.0;stroke-dasharray:2.0,2.0;" x1="408.5" x2="782.5" y1="722.125" y2="722.125"/><text fill="#000000" font-family="sans-serif" font-size="13" lengthAdjust="spacing" textLength="38" x="420.5" y="717.2686">Legajo</text><polygon fill="#181818" points="766.5,748.4766,776.5,752.4766,766.5,756.4766,770.5,752.4766" style="stroke:#181818;stroke-width:1.0;"/><line style="stroke:#181818;stroke-width:1.0;" x1="403.5" x2="772.5" y1="752.4766" y2="752.4766"/><text fill="#000000" font-family="sans-serif" font-size="13" lengthAdjust="spacing" textLength="224" x="410.5" y="747.6201">vincularUsuario(legajo, nombreUsuario)</text><polygon fill="#181818" points="414.5,778.8281,404.5,782.8281,414.5,786.8281,410.5,782.8281" style="stroke:#181818;stroke-width:1.0;"/><line style="stroke:#181818;stroke-width:1.0;stroke-dasharray:2.0,2.0;" x1="408.5" x2="782.5" y1="782.8281" y2="782.8281"/><text fill="#000000" font-family="sans-serif" font-size="13" lengthAdjust="spacing" textLength="72" x="420.5" y="777.9717">vinculadoOK</text><!--SRC=[bLHBRjim4Dth58EiRC2-W04NQ0rrqo9PfQjk9YJjCg0u2aaP2OhkSuqU88kYHz1DUf8EPKgM2gfnTlnXtcyuA08vU2yhRRKF3YMvGf0DZWnSgmC9JRlJjhkgqGKjT8qsmArlq6cQd9LLRHI_B8hj5aeR2o8ymH6DbiYrhFB0I4AZuTLsMqoGOVqk0meR44wXItWBIzMTKsctWeujUjN-mXK4NLEwMHOeWZvYK3aX6PWvy1DvjyEg9dzpP_G1sJDDVh7yQjSmeSCxVY_Q5ufN8sfn3KuzDDhhG1wgziNgYdnyDY8DVvwVuVl4b1LyH5UXK0sxJ3yAD67mi_rjOO_6O04vxckMD3Lu0rUbS-Gs837Ie96SM2bmY1mCmPuOCn27TMn_CXXTCOHK_xCKM5zed2sKbLt-NvJJUoqIJwcWYSbBb37uV02z3Hiug90DV1Hhtu3H4VN86XaX7S5GQJqNgxAdU2IznRpKt_24hFQGhc2HS44sjM75afR_-7Kx4BlKHEDLxAQJi4i4MIhFac866VWOouu_qpcIL9N_A7UaQ0nrdQfwdHSavMUIcdpDJ6ol2eg_dgNaPEGv3UcaYT7l5qOTy9u9-KOPIH-OqWg-4LCh7oF1kRanJBEXy2pNpnt2cEjv5BvAzgYZy-S9rzETQ_mty4gb9TryofBx2m00]--></g></svg>