<svg xmlns="http://www.w3.org/2000/svg" xmlns:xlink="http://www.w3.org/1999/xlink" contentStyleType="text/css" data-diagram-type="CLASS" height="1055px" preserveAspectRatio="none" style="width:2735px;height:1055px;background:#FFFFFF;" version="1.1" viewBox="0 0 2735 1055" width="2735px" zoomAndPan="magnify"><defs/><g><!--class TipoActor--><g class="entity" data-entity="TipoActor" data-source-line="3" data-uid="ent0002" id="entity_TipoActor"><rect fill="#F1F1F1" height="206.4844" rx="2.5" ry="2.5" style="stroke:#181818;stroke-width:0.5;" width="473.3643" x="7" y="239.36"/><ellipse cx="209.4771" cy="255.36" fill="#ADD1B2" rx="11" ry="11" style="stroke:#181818;stroke-width:1;"/><path d="M212.2427,251.235 Q212.3989,251.0162 212.5864,250.9069 Q212.7739,250.7975 212.9927,250.7975 Q213.3677,250.7975 213.6021,251.0631 Q213.8364,251.3131 213.8364,251.9225 L213.8364,253.3756 Q213.8364,253.985 213.6021,254.2506 Q213.3677,254.5162 212.9927,254.5162 Q212.6489,254.5162 212.4458,254.3131 Q212.2427,254.1256 212.1333,253.61 Q212.0864,253.2506 211.8989,253.0631 Q211.5708,252.6881 210.9614,252.4694 Q210.3521,252.2506 209.7271,252.2506 Q208.9614,252.2506 208.3208,252.5787 Q207.6958,252.9069 207.1958,253.6569 Q206.7114,254.4069 206.7114,255.4381 L206.7114,256.5319 Q206.7114,257.7662 207.6021,258.5944 Q208.4927,259.4069 210.0864,259.4069 Q211.0239,259.4069 211.6802,259.1569 Q212.0708,259.0006 212.4927,258.5631 Q212.7583,258.2975 212.8989,258.2194 Q213.0552,258.1412 213.2583,258.1412 Q213.5864,258.1412 213.8364,258.4069 Q214.1021,258.6569 214.1021,259.0006 Q214.1021,259.3444 213.7583,259.7506 Q213.2583,260.3287 212.4614,260.6569 Q211.3833,261.11 210.0864,261.11 Q208.5708,261.11 207.3677,260.485 Q206.3833,259.985 205.6958,258.9225 Q205.0083,257.8444 205.0083,256.5631 L205.0083,255.4069 Q205.0083,254.0787 205.6177,252.9381 Q206.2427,251.7819 207.3364,251.1725 Q208.4302,250.5475 209.6646,250.5475 Q210.3989,250.5475 211.0396,250.7194 Q211.6958,250.8756 212.2427,251.235 Z " fill="#000000"/><text fill="#000000" font-family="sans-serif" font-size="14" lengthAdjust="spacing" textLength="59.9102" x="229.9771" y="261.0885">TipoActor</text><line style="stroke:#181818;stroke-width:0.5;" x1="8" x2="479.3643" y1="271.36" y2="271.36"/><rect fill="none" height="6" style="stroke:#C82930;stroke-width:1;" width="6" x="15" y="282.6647"/><text fill="#000000" font-family="sans-serif" font-size="14" lengthAdjust="spacing" textLength="47.4688" x="27" y="289.8932">nombre</text><rect fill="none" height="6" style="stroke:#C82930;stroke-width:1;" width="6" x="15" y="300.2741"/><text fill="#000000" font-family="sans-serif" font-size="14" lengthAdjust="spacing" textLength="33.4551" x="27" y="307.5026">email</text><rect fill="none" height="6" style="stroke:#C82930;stroke-width:1;" width="6" x="15" y="317.8834"/><text fill="#000000" font-family="sans-serif" font-size="14" lengthAdjust="spacing" textLength="68.4482" x="27" y="325.112">CUIT/CUIL</text><rect fill="none" height="6" style="stroke:#C82930;stroke-width:1;" width="6" x="15" y="335.4928"/><text fill="#000000" font-family="sans-serif" font-size="14" lengthAdjust="spacing" textLength="46.6826" x="27" y="342.7213">n&#250;mTel</text><rect fill="none" height="6" style="stroke:#C82930;stroke-width:1;" width="6" x="15" y="353.1022"/><text fill="#000000" font-family="sans-serif" font-size="14" lengthAdjust="spacing" textLength="56.0273" x="27" y="360.3307">direcci&#243;n</text><rect fill="none" height="6" style="stroke:#C82930;stroke-width:1;" width="6" x="15" y="370.7116"/><text fill="#000000" font-family="sans-serif" font-size="14" lengthAdjust="spacing" textLength="57.5928" x="27" y="377.9401">categoria</text><line style="stroke:#181818;stroke-width:0.5;" x1="8" x2="479.3643" y1="385.0162" y2="385.0162"/><ellipse cx="18" cy="399.3209" fill="#84BE84" rx="3" ry="3" style="stroke:#038048;stroke-width:1;"/><text fill="#000000" font-family="sans-serif" font-size="14" lengthAdjust="spacing" textLength="357.1367" x="27" y="403.5495">CargarActor(nombre, email, n&#250;mTel, direcci&#243;n, categoria)</text><ellipse cx="18" cy="416.9303" fill="#84BE84" rx="3" ry="3" style="stroke:#038048;stroke-width:1;"/><text fill="#000000" font-family="sans-serif" font-size="14" lengthAdjust="spacing" textLength="447.3643" x="27" y="421.1588">ModificarActor(CUIT/CUIL, nombre, email, n&#250;mTel, direcci&#243;n, categoria)</text><ellipse cx="18" cy="434.5397" fill="#84BE84" rx="3" ry="3" style="stroke:#038048;stroke-width:1;"/><text fill="#000000" font-family="sans-serif" font-size="14" lengthAdjust="spacing" textLength="161.0137" x="27" y="438.7682">EliminarActor(CUIT/CUIL)</text></g><!--class Persona--><g class="entity" data-entity="Persona" data-source-line="16" data-uid="ent0003" id="entity_Persona"><rect fill="#F1F1F1" height="65.6094" rx="2.5" ry="2.5" style="stroke:#181818;stroke-width:0.5;" width="84.1445" x="566.5" y="515.36"/><ellipse cx="581.5" cy="531.36" fill="#ADD1B2" rx="11" ry="11" style="stroke:#181818;stroke-width:1;"/><path d="M584.2656,527.235 Q584.4219,527.0162 584.6094,526.9069 Q584.7969,526.7975 585.0156,526.7975 Q585.3906,526.7975 585.625,527.0631 Q585.8594,527.3131 585.8594,527.9225 L585.8594,529.3756 Q585.8594,529.985 585.625,530.2506 Q585.3906,530.5162 585.0156,530.5162 Q584.6719,530.5162 584.4688,530.3131 Q584.2656,530.1256 584.1563,529.61 Q584.1094,529.2506 583.9219,529.0631 Q583.5938,528.6881 582.9844,528.4694 Q582.375,528.2506 581.75,528.2506 Q580.9844,528.2506 580.3438,528.5787 Q579.7188,528.9069 579.2188,529.6569 Q578.7344,530.4069 578.7344,531.4381 L578.7344,532.5319 Q578.7344,533.7662 579.625,534.5944 Q580.5156,535.4069 582.1094,535.4069 Q583.0469,535.4069 583.7031,535.1569 Q584.0938,535.0006 584.5156,534.5631 Q584.7813,534.2975 584.9219,534.2194 Q585.0781,534.1412 585.2813,534.1412 Q585.6094,534.1412 585.8594,534.4069 Q586.125,534.6569 586.125,535.0006 Q586.125,535.3444 585.7813,535.7506 Q585.2813,536.3287 584.4844,536.6569 Q583.4063,537.11 582.1094,537.11 Q580.5938,537.11 579.3906,536.485 Q578.4063,535.985 577.7188,534.9225 Q577.0313,533.8444 577.0313,532.5631 L577.0313,531.4069 Q577.0313,530.0787 577.6406,528.9381 Q578.2656,527.7819 579.3594,527.1725 Q580.4531,526.5475 581.6875,526.5475 Q582.4219,526.5475 583.0625,526.7194 Q583.7188,526.8756 584.2656,527.235 Z " fill="#000000"/><text fill="#000000" font-family="sans-serif" font-size="14" lengthAdjust="spacing" textLength="52.1445" x="595.5" y="537.0885">Persona</text><line style="stroke:#181818;stroke-width:0.5;" x1="567.5" x2="649.6445" y1="547.36" y2="547.36"/><rect fill="none" height="6" style="stroke:#C82930;stroke-width:1;" width="6" x="574.5" y="558.6647"/><text fill="#000000" font-family="sans-serif" font-size="14" lengthAdjust="spacing" textLength="24.1104" x="586.5" y="565.8932">DNI</text><line style="stroke:#181818;stroke-width:0.5;" x1="567.5" x2="649.6445" y1="572.9694" y2="572.9694"/></g><!--class Establecimiento--><g class="entity" data-entity="Establecimiento" data-source-line="19" data-uid="ent0004" id="entity_Establecimiento"><rect fill="#F1F1F1" height="48" rx="2.5" ry="2.5" style="stroke:#181818;stroke-width:0.5;" width="130.8271" x="543" y="135.36"/><ellipse cx="558" cy="151.36" fill="#ADD1B2" rx="11" ry="11" style="stroke:#181818;stroke-width:1;"/><path d="M560.7656,147.235 Q560.9219,147.0162 561.1094,146.9069 Q561.2969,146.7975 561.5156,146.7975 Q561.8906,146.7975 562.125,147.0631 Q562.3594,147.3131 562.3594,147.9225 L562.3594,149.3756 Q562.3594,149.985 562.125,150.2506 Q561.8906,150.5162 561.5156,150.5162 Q561.1719,150.5162 560.9688,150.3131 Q560.7656,150.1256 560.6563,149.61 Q560.6094,149.2506 560.4219,149.0631 Q560.0938,148.6881 559.4844,148.4694 Q558.875,148.2506 558.25,148.2506 Q557.4844,148.2506 556.8438,148.5787 Q556.2188,148.9069 555.7188,149.6569 Q555.2344,150.4069 555.2344,151.4381 L555.2344,152.5319 Q555.2344,153.7662 556.125,154.5944 Q557.0156,155.4069 558.6094,155.4069 Q559.5469,155.4069 560.2031,155.1569 Q560.5938,155.0006 561.0156,154.5631 Q561.2813,154.2975 561.4219,154.2194 Q561.5781,154.1412 561.7813,154.1412 Q562.1094,154.1412 562.3594,154.4069 Q562.625,154.6569 562.625,155.0006 Q562.625,155.3444 562.2813,155.7506 Q561.7813,156.3287 560.9844,156.6569 Q559.9063,157.11 558.6094,157.11 Q557.0938,157.11 555.8906,156.485 Q554.9063,155.985 554.2188,154.9225 Q553.5313,153.8444 553.5313,152.5631 L553.5313,151.4069 Q553.5313,150.0787 554.1406,148.9381 Q554.7656,147.7819 555.8594,147.1725 Q556.9531,146.5475 558.1875,146.5475 Q558.9219,146.5475 559.5625,146.7194 Q560.2188,146.8756 560.7656,147.235 Z " fill="#000000"/><text fill="#000000" font-family="sans-serif" font-size="14" lengthAdjust="spacing" textLength="98.8271" x="572" y="157.0885">Establecimiento</text><line style="stroke:#181818;stroke-width:0.5;" x1="544" x2="672.8271" y1="167.36" y2="167.36"/><line style="stroke:#181818;stroke-width:0.5;" x1="544" x2="672.8271" y1="175.36" y2="175.36"/></g><!--class DatosFarmacia--><g class="entity" data-entity="DatosFarmacia" data-source-line="22" data-uid="ent0005" id="entity_DatosFarmacia"><rect fill="#F1F1F1" height="48" rx="2.5" ry="2.5" style="stroke:#181818;stroke-width:0.5;" width="126.917" x="1426" y="23.36"/><ellipse cx="1441" cy="39.36" fill="#ADD1B2" rx="11" ry="11" style="stroke:#181818;stroke-width:1;"/><path d="M1443.7656,35.235 Q1443.9219,35.0162 1444.1094,34.9069 Q1444.2969,34.7975 1444.5156,34.7975 Q1444.8906,34.7975 1445.125,35.0631 Q1445.3594,35.3131 1445.3594,35.9225 L1445.3594,37.3756 Q1445.3594,37.985 1445.125,38.2506 Q1444.8906,38.5162 1444.5156,38.5162 Q1444.1719,38.5162 1443.9688,38.3131 Q1443.7656,38.1256 1443.6563,37.61 Q1443.6094,37.2506 1443.4219,37.0631 Q1443.0938,36.6881 1442.4844,36.4694 Q1441.875,36.2506 1441.25,36.2506 Q1440.4844,36.2506 1439.8438,36.5787 Q1439.2188,36.9069 1438.7188,37.6569 Q1438.2344,38.4069 1438.2344,39.4381 L1438.2344,40.5319 Q1438.2344,41.7662 1439.125,42.5944 Q1440.0156,43.4069 1441.6094,43.4069 Q1442.5469,43.4069 1443.2031,43.1569 Q1443.5938,43.0006 1444.0156,42.5631 Q1444.2813,42.2975 1444.4219,42.2194 Q1444.5781,42.1412 1444.7813,42.1412 Q1445.1094,42.1412 1445.3594,42.4069 Q1445.625,42.6569 1445.625,43.0006 Q1445.625,43.3444 1445.2813,43.7506 Q1444.7813,44.3287 1443.9844,44.6569 Q1442.9063,45.11 1441.6094,45.11 Q1440.0938,45.11 1438.8906,44.485 Q1437.9063,43.985 1437.2188,42.9225 Q1436.5313,41.8444 1436.5313,40.5631 L1436.5313,39.4069 Q1436.5313,38.0787 1437.1406,36.9381 Q1437.7656,35.7819 1438.8594,35.1725 Q1439.9531,34.5475 1441.1875,34.5475 Q1441.9219,34.5475 1442.5625,34.7194 Q1443.2188,34.8756 1443.7656,35.235 Z " fill="#000000"/><text fill="#000000" font-family="sans-serif" font-size="14" lengthAdjust="spacing" textLength="94.917" x="1455" y="45.0885">DatosFarmacia</text><line style="stroke:#181818;stroke-width:0.5;" x1="1427" x2="1551.917" y1="55.36" y2="55.36"/><line style="stroke:#181818;stroke-width:0.5;" x1="1427" x2="1551.917" y1="63.36" y2="63.36"/></g><!--class DatosLaboratorio--><g class="entity" data-entity="DatosLaboratorio" data-source-line="26" data-uid="ent0006" id="entity_DatosLaboratorio"><rect fill="#F1F1F1" height="48" rx="2.5" ry="2.5" style="stroke:#181818;stroke-width:0.5;" width="139.3994" x="738" y="135.36"/><ellipse cx="753" cy="151.36" fill="#ADD1B2" rx="11" ry="11" style="stroke:#181818;stroke-width:1;"/><path d="M755.7656,147.235 Q755.9219,147.0162 756.1094,146.9069 Q756.2969,146.7975 756.5156,146.7975 Q756.8906,146.7975 757.125,147.0631 Q757.3594,147.3131 757.3594,147.9225 L757.3594,149.3756 Q757.3594,149.985 757.125,150.2506 Q756.8906,150.5162 756.5156,150.5162 Q756.1719,150.5162 755.9688,150.3131 Q755.7656,150.1256 755.6563,149.61 Q755.6094,149.2506 755.4219,149.0631 Q755.0938,148.6881 754.4844,148.4694 Q753.875,148.2506 753.25,148.2506 Q752.4844,148.2506 751.8438,148.5787 Q751.2188,148.9069 750.7188,149.6569 Q750.2344,150.4069 750.2344,151.4381 L750.2344,152.5319 Q750.2344,153.7662 751.125,154.5944 Q752.0156,155.4069 753.6094,155.4069 Q754.5469,155.4069 755.2031,155.1569 Q755.5938,155.0006 756.0156,154.5631 Q756.2813,154.2975 756.4219,154.2194 Q756.5781,154.1412 756.7813,154.1412 Q757.1094,154.1412 757.3594,154.4069 Q757.625,154.6569 757.625,155.0006 Q757.625,155.3444 757.2813,155.7506 Q756.7813,156.3287 755.9844,156.6569 Q754.9063,157.11 753.6094,157.11 Q752.0938,157.11 750.8906,156.485 Q749.9063,155.985 749.2188,154.9225 Q748.5313,153.8444 748.5313,152.5631 L748.5313,151.4069 Q748.5313,150.0787 749.1406,148.9381 Q749.7656,147.7819 750.8594,147.1725 Q751.9531,146.5475 753.1875,146.5475 Q753.9219,146.5475 754.5625,146.7194 Q755.2188,146.8756 755.7656,147.235 Z " fill="#000000"/><text fill="#000000" font-family="sans-serif" font-size="14" lengthAdjust="spacing" textLength="107.3994" x="767" y="157.0885">DatosLaboratorio</text><line style="stroke:#181818;stroke-width:0.5;" x1="739" x2="876.3994" y1="167.36" y2="167.36"/><line style="stroke:#181818;stroke-width:0.5;" x1="739" x2="876.3994" y1="175.36" y2="175.36"/></g><!--class Pago--><g class="entity" data-entity="Pago" data-source-line="30" data-uid="ent0007" id="entity_Pago"><rect fill="#F1F1F1" height="100.8281" rx="2.5" ry="2.5" style="stroke:#181818;stroke-width:0.5;" width="96.0342" x="2313.5" y="752.86"/><ellipse cx="2342.6021" cy="768.86" fill="#ADD1B2" rx="11" ry="11" style="stroke:#181818;stroke-width:1;"/><path d="M2345.3677,764.735 Q2345.5239,764.5162 2345.7114,764.4069 Q2345.8989,764.2975 2346.1177,764.2975 Q2346.4927,764.2975 2346.7271,764.5631 Q2346.9614,764.8131 2346.9614,765.4225 L2346.9614,766.8756 Q2346.9614,767.485 2346.7271,767.7506 Q2346.4927,768.0162 2346.1177,768.0162 Q2345.7739,768.0162 2345.5708,767.8131 Q2345.3677,767.6256 2345.2583,767.11 Q2345.2114,766.7506 2345.0239,766.5631 Q2344.6958,766.1881 2344.0864,765.9694 Q2343.4771,765.7506 2342.8521,765.7506 Q2342.0864,765.7506 2341.4458,766.0787 Q2340.8208,766.4069 2340.3208,767.1569 Q2339.8364,767.9069 2339.8364,768.9381 L2339.8364,770.0319 Q2339.8364,771.2662 2340.7271,772.0944 Q2341.6177,772.9069 2343.2114,772.9069 Q2344.1489,772.9069 2344.8052,772.6569 Q2345.1958,772.5006 2345.6177,772.0631 Q2345.8833,771.7975 2346.0239,771.7194 Q2346.1802,771.6412 2346.3833,771.6412 Q2346.7114,771.6412 2346.9614,771.9069 Q2347.2271,772.1569 2347.2271,772.5006 Q2347.2271,772.8444 2346.8833,773.2506 Q2346.3833,773.8287 2345.5864,774.1569 Q2344.5083,774.61 2343.2114,774.61 Q2341.6958,774.61 2340.4927,773.985 Q2339.5083,773.485 2338.8208,772.4225 Q2338.1333,771.3444 2338.1333,770.0631 L2338.1333,768.9069 Q2338.1333,767.5787 2338.7427,766.4381 Q2339.3677,765.2819 2340.4614,764.6725 Q2341.5552,764.0475 2342.7896,764.0475 Q2343.5239,764.0475 2344.1646,764.2194 Q2344.8208,764.3756 2345.3677,764.735 Z " fill="#000000"/><text fill="#000000" font-family="sans-serif" font-size="14" lengthAdjust="spacing" textLength="32.6963" x="2359.7358" y="774.5885">Pago</text><line style="stroke:#181818;stroke-width:0.5;" x1="2314.5" x2="2408.5342" y1="784.86" y2="784.86"/><rect fill="none" height="6" style="stroke:#C82930;stroke-width:1;" width="6" x="2321.5" y="796.1647"/><text fill="#000000" font-family="sans-serif" font-size="14" lengthAdjust="spacing" textLength="41.248" x="2333.5" y="803.3932">cuotas</text><rect fill="none" height="6" style="stroke:#C82930;stroke-width:1;" width="6" x="2321.5" y="813.7741"/><text fill="#000000" font-family="sans-serif" font-size="14" lengthAdjust="spacing" textLength="70.0342" x="2333.5" y="821.0026">montoTotal</text><rect fill="none" height="6" style="stroke:#C82930;stroke-width:1;" width="6" x="2321.5" y="831.3834"/><text fill="#000000" font-family="sans-serif" font-size="14" lengthAdjust="spacing" textLength="66.9307" x="2333.5" y="838.612">Descuento</text><line style="stroke:#181818;stroke-width:0.5;" x1="2314.5" x2="2408.5342" y1="845.6881" y2="845.6881"/></g><!--class Tarjeta--><g class="entity" data-entity="Tarjeta" data-source-line="35" data-uid="ent0008" id="entity_Tarjeta"><rect fill="#F1F1F1" height="48" rx="2.5" ry="2.5" style="stroke:#181818;stroke-width:0.5;" width="75.5723" x="2632" y="751.36"/><ellipse cx="2647" cy="767.36" fill="#ADD1B2" rx="11" ry="11" style="stroke:#181818;stroke-width:1;"/><path d="M2649.7656,763.235 Q2649.9219,763.0162 2650.1094,762.9069 Q2650.2969,762.7975 2650.5156,762.7975 Q2650.8906,762.7975 2651.125,763.0631 Q2651.3594,763.3131 2651.3594,763.9225 L2651.3594,765.3756 Q2651.3594,765.985 2651.125,766.2506 Q2650.8906,766.5162 2650.5156,766.5162 Q2650.1719,766.5162 2649.9688,766.3131 Q2649.7656,766.1256 2649.6563,765.61 Q2649.6094,765.2506 2649.4219,765.0631 Q2649.0938,764.6881 2648.4844,764.4694 Q2647.875,764.2506 2647.25,764.2506 Q2646.4844,764.2506 2645.8438,764.5787 Q2645.2188,764.9069 2644.7188,765.6569 Q2644.2344,766.4069 2644.2344,767.4381 L2644.2344,768.5319 Q2644.2344,769.7662 2645.125,770.5944 Q2646.0156,771.4069 2647.6094,771.4069 Q2648.5469,771.4069 2649.2031,771.1569 Q2649.5938,771.0006 2650.0156,770.5631 Q2650.2813,770.2975 2650.4219,770.2194 Q2650.5781,770.1412 2650.7813,770.1412 Q2651.1094,770.1412 2651.3594,770.4069 Q2651.625,770.6569 2651.625,771.0006 Q2651.625,771.3444 2651.2813,771.7506 Q2650.7813,772.3287 2649.9844,772.6569 Q2648.9063,773.11 2647.6094,773.11 Q2646.0938,773.11 2644.8906,772.485 Q2643.9063,771.985 2643.2188,770.9225 Q2642.5313,769.8444 2642.5313,768.5631 L2642.5313,767.4069 Q2642.5313,766.0787 2643.1406,764.9381 Q2643.7656,763.7819 2644.8594,763.1725 Q2645.9531,762.5475 2647.1875,762.5475 Q2647.9219,762.5475 2648.5625,762.7194 Q2649.2188,762.8756 2649.7656,763.235 Z " fill="#000000"/><text fill="#000000" font-family="sans-serif" font-size="14" lengthAdjust="spacing" textLength="43.5723" x="2661" y="773.0885">Tarjeta</text><line style="stroke:#181818;stroke-width:0.5;" x1="2633" x2="2706.5723" y1="783.36" y2="783.36"/><line style="stroke:#181818;stroke-width:0.5;" x1="2633" x2="2706.5723" y1="791.36" y2="791.36"/></g><!--class Efectivo--><g class="entity" data-entity="Efectivo" data-source-line="37" data-uid="ent0009" id="entity_Efectivo"><rect fill="#F1F1F1" height="48" rx="2.5" ry="2.5" style="stroke:#181818;stroke-width:0.5;" width="81.7998" x="2629" y="834.36"/><ellipse cx="2644" cy="850.36" fill="#ADD1B2" rx="11" ry="11" style="stroke:#181818;stroke-width:1;"/><path d="M2646.7656,846.235 Q2646.9219,846.0162 2647.1094,845.9069 Q2647.2969,845.7975 2647.5156,845.7975 Q2647.8906,845.7975 2648.125,846.0631 Q2648.3594,846.3131 2648.3594,846.9225 L2648.3594,848.3756 Q2648.3594,848.985 2648.125,849.2506 Q2647.8906,849.5162 2647.5156,849.5162 Q2647.1719,849.5162 2646.9688,849.3131 Q2646.7656,849.1256 2646.6563,848.61 Q2646.6094,848.2506 2646.4219,848.0631 Q2646.0938,847.6881 2645.4844,847.4694 Q2644.875,847.2506 2644.25,847.2506 Q2643.4844,847.2506 2642.8438,847.5787 Q2642.2188,847.9069 2641.7188,848.6569 Q2641.2344,849.4069 2641.2344,850.4381 L2641.2344,851.5319 Q2641.2344,852.7662 2642.125,853.5944 Q2643.0156,854.4069 2644.6094,854.4069 Q2645.5469,854.4069 2646.2031,854.1569 Q2646.5938,854.0006 2647.0156,853.5631 Q2647.2813,853.2975 2647.4219,853.2194 Q2647.5781,853.1412 2647.7813,853.1412 Q2648.1094,853.1412 2648.3594,853.4069 Q2648.625,853.6569 2648.625,854.0006 Q2648.625,854.3444 2648.2813,854.7506 Q2647.7813,855.3287 2646.9844,855.6569 Q2645.9063,856.11 2644.6094,856.11 Q2643.0938,856.11 2641.8906,855.485 Q2640.9063,854.985 2640.2188,853.9225 Q2639.5313,852.8444 2639.5313,851.5631 L2639.5313,850.4069 Q2639.5313,849.0787 2640.1406,847.9381 Q2640.7656,846.7819 2641.8594,846.1725 Q2642.9531,845.5475 2644.1875,845.5475 Q2644.9219,845.5475 2645.5625,845.7194 Q2646.2188,845.8756 2646.7656,846.235 Z " fill="#000000"/><text fill="#000000" font-family="sans-serif" font-size="14" lengthAdjust="spacing" textLength="49.7998" x="2658" y="856.0885">Efectivo</text><line style="stroke:#181818;stroke-width:0.5;" x1="2630" x2="2709.7998" y1="866.36" y2="866.36"/><line style="stroke:#181818;stroke-width:0.5;" x1="2630" x2="2709.7998" y1="874.36" y2="874.36"/></g><!--class Transferencia--><g class="entity" data-entity="Transferencia" data-source-line="39" data-uid="ent0010" id="entity_Transferencia"><rect fill="#F1F1F1" height="48" rx="2.5" ry="2.5" style="stroke:#181818;stroke-width:0.5;" width="117.5928" x="2611" y="668.36"/><ellipse cx="2626" cy="684.36" fill="#ADD1B2" rx="11" ry="11" style="stroke:#181818;stroke-width:1;"/><path d="M2628.7656,680.235 Q2628.9219,680.0162 2629.1094,679.9069 Q2629.2969,679.7975 2629.5156,679.7975 Q2629.8906,679.7975 2630.125,680.0631 Q2630.3594,680.3131 2630.3594,680.9225 L2630.3594,682.3756 Q2630.3594,682.985 2630.125,683.2506 Q2629.8906,683.5162 2629.5156,683.5162 Q2629.1719,683.5162 2628.9688,683.3131 Q2628.7656,683.1256 2628.6563,682.61 Q2628.6094,682.2506 2628.4219,682.0631 Q2628.0938,681.6881 2627.4844,681.4694 Q2626.875,681.2506 2626.25,681.2506 Q2625.4844,681.2506 2624.8438,681.5787 Q2624.2188,681.9069 2623.7188,682.6569 Q2623.2344,683.4069 2623.2344,684.4381 L2623.2344,685.5319 Q2623.2344,686.7662 2624.125,687.5944 Q2625.0156,688.4069 2626.6094,688.4069 Q2627.5469,688.4069 2628.2031,688.1569 Q2628.5938,688.0006 2629.0156,687.5631 Q2629.2813,687.2975 2629.4219,687.2194 Q2629.5781,687.1412 2629.7813,687.1412 Q2630.1094,687.1412 2630.3594,687.4069 Q2630.625,687.6569 2630.625,688.0006 Q2630.625,688.3444 2630.2813,688.7506 Q2629.7813,689.3287 2628.9844,689.6569 Q2627.9063,690.11 2626.6094,690.11 Q2625.0938,690.11 2623.8906,689.485 Q2622.9063,688.985 2622.2188,687.9225 Q2621.5313,686.8444 2621.5313,685.5631 L2621.5313,684.4069 Q2621.5313,683.0787 2622.1406,681.9381 Q2622.7656,680.7819 2623.8594,680.1725 Q2624.9531,679.5475 2626.1875,679.5475 Q2626.9219,679.5475 2627.5625,679.7194 Q2628.2188,679.8756 2628.7656,680.235 Z " fill="#000000"/><text fill="#000000" font-family="sans-serif" font-size="14" lengthAdjust="spacing" textLength="85.5928" x="2640" y="690.0885">Transferencia</text><line style="stroke:#181818;stroke-width:0.5;" x1="2612" x2="2727.5928" y1="700.36" y2="700.36"/><line style="stroke:#181818;stroke-width:0.5;" x1="2612" x2="2727.5928" y1="708.36" y2="708.36"/></g><!--class Empleado--><g class="entity" data-entity="Empleado" data-source-line="42" data-uid="ent0011" id="entity_Empleado"><rect fill="#F1F1F1" height="48" rx="2.5" ry="2.5" style="stroke:#181818;stroke-width:0.5;" width="95.041" x="760" y="416.36"/><ellipse cx="775" cy="432.36" fill="#ADD1B2" rx="11" ry="11" style="stroke:#181818;stroke-width:1;"/><path d="M777.7656,428.235 Q777.9219,428.0162 778.1094,427.9069 Q778.2969,427.7975 778.5156,427.7975 Q778.8906,427.7975 779.125,428.0631 Q779.3594,428.3131 779.3594,428.9225 L779.3594,430.3756 Q779.3594,430.985 779.125,431.2506 Q778.8906,431.5162 778.5156,431.5162 Q778.1719,431.5162 777.9688,431.3131 Q777.7656,431.1256 777.6563,430.61 Q777.6094,430.2506 777.4219,430.0631 Q777.0938,429.6881 776.4844,429.4694 Q775.875,429.2506 775.25,429.2506 Q774.4844,429.2506 773.8438,429.5787 Q773.2188,429.9069 772.7188,430.6569 Q772.2344,431.4069 772.2344,432.4381 L772.2344,433.5319 Q772.2344,434.7662 773.125,435.5944 Q774.0156,436.4069 775.6094,436.4069 Q776.5469,436.4069 777.2031,436.1569 Q777.5938,436.0006 778.0156,435.5631 Q778.2813,435.2975 778.4219,435.2194 Q778.5781,435.1412 778.7813,435.1412 Q779.1094,435.1412 779.3594,435.4069 Q779.625,435.6569 779.625,436.0006 Q779.625,436.3444 779.2813,436.7506 Q778.7813,437.3287 777.9844,437.6569 Q776.9063,438.11 775.6094,438.11 Q774.0938,438.11 772.8906,437.485 Q771.9063,436.985 771.2188,435.9225 Q770.5313,434.8444 770.5313,433.5631 L770.5313,432.4069 Q770.5313,431.0787 771.1406,429.9381 Q771.7656,428.7819 772.8594,428.1725 Q773.9531,427.5475 775.1875,427.5475 Q775.9219,427.5475 776.5625,427.7194 Q777.2188,427.8756 777.7656,428.235 Z " fill="#000000"/><text fill="#000000" font-family="sans-serif" font-size="14" lengthAdjust="spacing" textLength="63.041" x="789" y="438.0885">Empleado</text><line style="stroke:#181818;stroke-width:0.5;" x1="761" x2="854.041" y1="448.36" y2="448.36"/><line style="stroke:#181818;stroke-width:0.5;" x1="761" x2="854.041" y1="456.36" y2="456.36"/></g><!--class Usuario--><g class="entity" data-entity="Usuario" data-source-line="46" data-uid="ent0012" id="entity_Usuario"><rect fill="#F1F1F1" height="83.2188" rx="2.5" ry="2.5" style="stroke:#181818;stroke-width:0.5;" width="121.71" x="1091" y="253.86"/><ellipse cx="1124.6609" cy="269.86" fill="#ADD1B2" rx="11" ry="11" style="stroke:#181818;stroke-width:1;"/><path d="M1127.4266,265.735 Q1127.5828,265.5162 1127.7703,265.4069 Q1127.9578,265.2975 1128.1766,265.2975 Q1128.5516,265.2975 1128.7859,265.5631 Q1129.0203,265.8131 1129.0203,266.4225 L1129.0203,267.8756 Q1129.0203,268.485 1128.7859,268.7506 Q1128.5516,269.0162 1128.1766,269.0162 Q1127.8328,269.0162 1127.6297,268.8131 Q1127.4266,268.6256 1127.3172,268.11 Q1127.2703,267.7506 1127.0828,267.5631 Q1126.7547,267.1881 1126.1453,266.9694 Q1125.5359,266.7506 1124.9109,266.7506 Q1124.1453,266.7506 1123.5047,267.0787 Q1122.8797,267.4069 1122.3797,268.1569 Q1121.8953,268.9069 1121.8953,269.9381 L1121.8953,271.0319 Q1121.8953,272.2662 1122.7859,273.0944 Q1123.6766,273.9069 1125.2703,273.9069 Q1126.2078,273.9069 1126.8641,273.6569 Q1127.2547,273.5006 1127.6766,273.0631 Q1127.9422,272.7975 1128.0828,272.7194 Q1128.2391,272.6412 1128.4422,272.6412 Q1128.7703,272.6412 1129.0203,272.9069 Q1129.2859,273.1569 1129.2859,273.5006 Q1129.2859,273.8444 1128.9422,274.2506 Q1128.4422,274.8287 1127.6453,275.1569 Q1126.5672,275.61 1125.2703,275.61 Q1123.7547,275.61 1122.5516,274.985 Q1121.5672,274.485 1120.8797,273.4225 Q1120.1922,272.3444 1120.1922,271.0631 L1120.1922,269.9069 Q1120.1922,268.5787 1120.8016,267.4381 Q1121.4266,266.2819 1122.5203,265.6725 Q1123.6141,265.0475 1124.8484,265.0475 Q1125.5828,265.0475 1126.2234,265.2194 Q1126.8797,265.3756 1127.4266,265.735 Z " fill="#000000"/><text fill="#000000" font-family="sans-serif" font-size="14" lengthAdjust="spacing" textLength="48.2412" x="1142.8078" y="275.5885">Usuario</text><line style="stroke:#181818;stroke-width:0.5;" x1="1092" x2="1211.71" y1="285.86" y2="285.86"/><rect fill="none" height="6" style="stroke:#C82930;stroke-width:1;" width="6" x="1099" y="297.1647"/><text fill="#000000" font-family="sans-serif" font-size="14" lengthAdjust="spacing" textLength="95.71" x="1111" y="304.3932">nombreUsuario</text><rect fill="none" height="6" style="stroke:#C82930;stroke-width:1;" width="6" x="1099" y="314.7741"/><text fill="#000000" font-family="sans-serif" font-size="14" lengthAdjust="spacing" textLength="69.2686" x="1111" y="322.0026">contrase&#241;a</text><line style="stroke:#181818;stroke-width:0.5;" x1="1092" x2="1211.71" y1="329.0787" y2="329.0787"/></g><!--class TipoUsuario--><g class="entity" data-entity="TipoUsuario" data-source-line="50" data-uid="ent0013" id="entity_TipoUsuario"><rect fill="#F1F1F1" height="48" rx="2.5" ry="2.5" style="stroke:#181818;stroke-width:0.5;" width="107.4756" x="1436" y="183.36"/><ellipse cx="1451" cy="199.36" fill="#ADD1B2" rx="11" ry="11" style="stroke:#181818;stroke-width:1;"/><path d="M1453.7656,195.235 Q1453.9219,195.0162 1454.1094,194.9069 Q1454.2969,194.7975 1454.5156,194.7975 Q1454.8906,194.7975 1455.125,195.0631 Q1455.3594,195.3131 1455.3594,195.9225 L1455.3594,197.3756 Q1455.3594,197.985 1455.125,198.2506 Q1454.8906,198.5162 1454.5156,198.5162 Q1454.1719,198.5162 1453.9688,198.3131 Q1453.7656,198.1256 1453.6563,197.61 Q1453.6094,197.2506 1453.4219,197.0631 Q1453.0938,196.6881 1452.4844,196.4694 Q1451.875,196.2506 1451.25,196.2506 Q1450.4844,196.2506 1449.8438,196.5787 Q1449.2188,196.9069 1448.7188,197.6569 Q1448.2344,198.4069 1448.2344,199.4381 L1448.2344,200.5319 Q1448.2344,201.7662 1449.125,202.5944 Q1450.0156,203.4069 1451.6094,203.4069 Q1452.5469,203.4069 1453.2031,203.1569 Q1453.5938,203.0006 1454.0156,202.5631 Q1454.2813,202.2975 1454.4219,202.2194 Q1454.5781,202.1412 1454.7813,202.1412 Q1455.1094,202.1412 1455.3594,202.4069 Q1455.625,202.6569 1455.625,203.0006 Q1455.625,203.3444 1455.2813,203.7506 Q1454.7813,204.3287 1453.9844,204.6569 Q1452.9063,205.11 1451.6094,205.11 Q1450.0938,205.11 1448.8906,204.485 Q1447.9063,203.985 1447.2188,202.9225 Q1446.5313,201.8444 1446.5313,200.5631 L1446.5313,199.4069 Q1446.5313,198.0787 1447.1406,196.9381 Q1447.7656,195.7819 1448.8594,195.1725 Q1449.9531,194.5475 1451.1875,194.5475 Q1451.9219,194.5475 1452.5625,194.7194 Q1453.2188,194.8756 1453.7656,195.235 Z " fill="#000000"/><text fill="#000000" font-family="sans-serif" font-size="14" lengthAdjust="spacing" textLength="75.4756" x="1465" y="205.0885">TipoUsuario</text><line style="stroke:#181818;stroke-width:0.5;" x1="1437" x2="1542.4756" y1="215.36" y2="215.36"/><line style="stroke:#181818;stroke-width:0.5;" x1="1437" x2="1542.4756" y1="223.36" y2="223.36"/></g><!--class Administrador--><g class="entity" data-entity="Administrador" data-source-line="52" data-uid="ent0014" id="entity_Administrador"><rect fill="#F1F1F1" height="48" rx="2.5" ry="2.5" style="stroke:#181818;stroke-width:0.5;" width="118.3652" x="1803.5" y="100.36"/><ellipse cx="1818.5" cy="116.36" fill="#ADD1B2" rx="11" ry="11" style="stroke:#181818;stroke-width:1;"/><path d="M1821.2656,112.235 Q1821.4219,112.0162 1821.6094,111.9069 Q1821.7969,111.7975 1822.0156,111.7975 Q1822.3906,111.7975 1822.625,112.0631 Q1822.8594,112.3131 1822.8594,112.9225 L1822.8594,114.3756 Q1822.8594,114.985 1822.625,115.2506 Q1822.3906,115.5162 1822.0156,115.5162 Q1821.6719,115.5162 1821.4688,115.3131 Q1821.2656,115.1256 1821.1563,114.61 Q1821.1094,114.2506 1820.9219,114.0631 Q1820.5938,113.6881 1819.9844,113.4694 Q1819.375,113.2506 1818.75,113.2506 Q1817.9844,113.2506 1817.3438,113.5787 Q1816.7188,113.9069 1816.2188,114.6569 Q1815.7344,115.4069 1815.7344,116.4381 L1815.7344,117.5319 Q1815.7344,118.7662 1816.625,119.5944 Q1817.5156,120.4069 1819.1094,120.4069 Q1820.0469,120.4069 1820.7031,120.1569 Q1821.0938,120.0006 1821.5156,119.5631 Q1821.7813,119.2975 1821.9219,119.2194 Q1822.0781,119.1412 1822.2813,119.1412 Q1822.6094,119.1412 1822.8594,119.4069 Q1823.125,119.6569 1823.125,120.0006 Q1823.125,120.3444 1822.7813,120.7506 Q1822.2813,121.3287 1821.4844,121.6569 Q1820.4063,122.11 1819.1094,122.11 Q1817.5938,122.11 1816.3906,121.485 Q1815.4063,120.985 1814.7188,119.9225 Q1814.0313,118.8444 1814.0313,117.5631 L1814.0313,116.4069 Q1814.0313,115.0787 1814.6406,113.9381 Q1815.2656,112.7819 1816.3594,112.1725 Q1817.4531,111.5475 1818.6875,111.5475 Q1819.4219,111.5475 1820.0625,111.7194 Q1820.7188,111.8756 1821.2656,112.235 Z " fill="#000000"/><text fill="#000000" font-family="sans-serif" font-size="14" lengthAdjust="spacing" textLength="86.3652" x="1832.5" y="122.0885">Administrador</text><line style="stroke:#181818;stroke-width:0.5;" x1="1804.5" x2="1920.8652" y1="132.36" y2="132.36"/><line style="stroke:#181818;stroke-width:0.5;" x1="1804.5" x2="1920.8652" y1="140.36" y2="140.36"/></g><!--class Farmaceutico--><g class="entity" data-entity="Farmaceutico" data-source-line="54" data-uid="ent0015" id="entity_Farmaceutico"><rect fill="#F1F1F1" height="48" rx="2.5" ry="2.5" style="stroke:#181818;stroke-width:0.5;" width="116.8066" x="1804" y="183.36"/><ellipse cx="1819" cy="199.36" fill="#ADD1B2" rx="11" ry="11" style="stroke:#181818;stroke-width:1;"/><path d="M1821.7656,195.235 Q1821.9219,195.0162 1822.1094,194.9069 Q1822.2969,194.7975 1822.5156,194.7975 Q1822.8906,194.7975 1823.125,195.0631 Q1823.3594,195.3131 1823.3594,195.9225 L1823.3594,197.3756 Q1823.3594,197.985 1823.125,198.2506 Q1822.8906,198.5162 1822.5156,198.5162 Q1822.1719,198.5162 1821.9688,198.3131 Q1821.7656,198.1256 1821.6563,197.61 Q1821.6094,197.2506 1821.4219,197.0631 Q1821.0938,196.6881 1820.4844,196.4694 Q1819.875,196.2506 1819.25,196.2506 Q1818.4844,196.2506 1817.8438,196.5787 Q1817.2188,196.9069 1816.7188,197.6569 Q1816.2344,198.4069 1816.2344,199.4381 L1816.2344,200.5319 Q1816.2344,201.7662 1817.125,202.5944 Q1818.0156,203.4069 1819.6094,203.4069 Q1820.5469,203.4069 1821.2031,203.1569 Q1821.5938,203.0006 1822.0156,202.5631 Q1822.2813,202.2975 1822.4219,202.2194 Q1822.5781,202.1412 1822.7813,202.1412 Q1823.1094,202.1412 1823.3594,202.4069 Q1823.625,202.6569 1823.625,203.0006 Q1823.625,203.3444 1823.2813,203.7506 Q1822.7813,204.3287 1821.9844,204.6569 Q1820.9063,205.11 1819.6094,205.11 Q1818.0938,205.11 1816.8906,204.485 Q1815.9063,203.985 1815.2188,202.9225 Q1814.5313,201.8444 1814.5313,200.5631 L1814.5313,199.4069 Q1814.5313,198.0787 1815.1406,196.9381 Q1815.7656,195.7819 1816.8594,195.1725 Q1817.9531,194.5475 1819.1875,194.5475 Q1819.9219,194.5475 1820.5625,194.7194 Q1821.2188,194.8756 1821.7656,195.235 Z " fill="#000000"/><text fill="#000000" font-family="sans-serif" font-size="14" lengthAdjust="spacing" textLength="84.8066" x="1833" y="205.0885">Farmaceutico</text><line style="stroke:#181818;stroke-width:0.5;" x1="1805" x2="1919.8066" y1="215.36" y2="215.36"/><line style="stroke:#181818;stroke-width:0.5;" x1="1805" x2="1919.8066" y1="223.36" y2="223.36"/></g><!--class Cliente--><g class="entity" data-entity="Cliente" data-source-line="57" data-uid="ent0016" id="entity_Cliente"><rect fill="#F1F1F1" height="83.2188" rx="2.5" ry="2.5" style="stroke:#181818;stroke-width:0.5;" width="141.1719" x="737" y="529.86"/><ellipse cx="781.5464" cy="545.86" fill="#ADD1B2" rx="11" ry="11" style="stroke:#181818;stroke-width:1;"/><path d="M784.312,541.735 Q784.4683,541.5162 784.6558,541.4069 Q784.8433,541.2975 785.062,541.2975 Q785.437,541.2975 785.6714,541.5631 Q785.9058,541.8131 785.9058,542.4225 L785.9058,543.8756 Q785.9058,544.485 785.6714,544.7506 Q785.437,545.0162 785.062,545.0162 Q784.7183,545.0162 784.5151,544.8131 Q784.312,544.6256 784.2026,544.11 Q784.1558,543.7506 783.9683,543.5631 Q783.6401,543.1881 783.0308,542.9694 Q782.4214,542.7506 781.7964,542.7506 Q781.0308,542.7506 780.3901,543.0787 Q779.7651,543.4069 779.2651,544.1569 Q778.7808,544.9069 778.7808,545.9381 L778.7808,547.0319 Q778.7808,548.2662 779.6714,549.0944 Q780.562,549.9069 782.1558,549.9069 Q783.0933,549.9069 783.7495,549.6569 Q784.1401,549.5006 784.562,549.0631 Q784.8276,548.7975 784.9683,548.7194 Q785.1245,548.6412 785.3276,548.6412 Q785.6558,548.6412 785.9058,548.9069 Q786.1714,549.1569 786.1714,549.5006 Q786.1714,549.8444 785.8276,550.2506 Q785.3276,550.8287 784.5308,551.1569 Q783.4526,551.61 782.1558,551.61 Q780.6401,551.61 779.437,550.985 Q778.4526,550.485 777.7651,549.4225 Q777.0776,548.3444 777.0776,547.0631 L777.0776,545.9069 Q777.0776,544.5787 777.687,543.4381 Q778.312,542.2819 779.4058,541.6725 Q780.4995,541.0475 781.7339,541.0475 Q782.4683,541.0475 783.1089,541.2194 Q783.7651,541.3756 784.312,541.735 Z " fill="#000000"/><text fill="#000000" font-family="sans-serif" font-size="14" lengthAdjust="spacing" textLength="43.5791" x="802.0464" y="551.5885">Cliente</text><line style="stroke:#181818;stroke-width:0.5;" x1="738" x2="877.1719" y1="561.86" y2="561.86"/><rect fill="none" height="6" style="stroke:#C82930;stroke-width:1;" width="6" x="745" y="573.1647"/><text fill="#000000" font-family="sans-serif" font-size="14" lengthAdjust="spacing" textLength="73.1514" x="757" y="580.3932">numAfiliado</text><rect fill="none" height="6" style="stroke:#C82930;stroke-width:1;" width="6" x="745" y="590.7741"/><text fill="#000000" font-family="sans-serif" font-size="14" lengthAdjust="spacing" textLength="115.1719" x="757" y="598.0026">SaldoCtaCorriente</text><line style="stroke:#181818;stroke-width:0.5;" x1="738" x2="877.1719" y1="605.0787" y2="605.0787"/></g><!--class ObraSocial--><g class="entity" data-entity="ObraSocial" data-source-line="61" data-uid="ent0017" id="entity_ObraSocial"><rect fill="#F1F1F1" height="83.2188" rx="2.5" ry="2.5" style="stroke:#181818;stroke-width:0.5;" width="154.4131" x="1075" y="725.86"/><ellipse cx="1113.9212" cy="741.86" fill="#ADD1B2" rx="11" ry="11" style="stroke:#181818;stroke-width:1;"/><path d="M1116.6868,737.735 Q1116.8431,737.5162 1117.0306,737.4069 Q1117.2181,737.2975 1117.4368,737.2975 Q1117.8118,737.2975 1118.0462,737.5631 Q1118.2806,737.8131 1118.2806,738.4225 L1118.2806,739.8756 Q1118.2806,740.485 1118.0462,740.7506 Q1117.8118,741.0162 1117.4368,741.0162 Q1117.0931,741.0162 1116.8899,740.8131 Q1116.6868,740.6256 1116.5774,740.11 Q1116.5306,739.7506 1116.3431,739.5631 Q1116.0149,739.1881 1115.4056,738.9694 Q1114.7962,738.7506 1114.1712,738.7506 Q1113.4056,738.7506 1112.7649,739.0787 Q1112.1399,739.4069 1111.6399,740.1569 Q1111.1556,740.9069 1111.1556,741.9381 L1111.1556,743.0319 Q1111.1556,744.2662 1112.0462,745.0944 Q1112.9368,745.9069 1114.5306,745.9069 Q1115.4681,745.9069 1116.1243,745.6569 Q1116.5149,745.5006 1116.9368,745.0631 Q1117.2024,744.7975 1117.3431,744.7194 Q1117.4993,744.6412 1117.7024,744.6412 Q1118.0306,744.6412 1118.2806,744.9069 Q1118.5462,745.1569 1118.5462,745.5006 Q1118.5462,745.8444 1118.2024,746.2506 Q1117.7024,746.8287 1116.9056,747.1569 Q1115.8274,747.61 1114.5306,747.61 Q1113.0149,747.61 1111.8118,746.985 Q1110.8274,746.485 1110.1399,745.4225 Q1109.4524,744.3444 1109.4524,743.0631 L1109.4524,741.9069 Q1109.4524,740.5787 1110.0618,739.4381 Q1110.6868,738.2819 1111.7806,737.6725 Q1112.8743,737.0475 1114.1087,737.0475 Q1114.8431,737.0475 1115.4837,737.2194 Q1116.1399,737.3756 1116.6868,737.735 Z " fill="#000000"/><text fill="#000000" font-family="sans-serif" font-size="14" lengthAdjust="spacing" textLength="69.2549" x="1133.237" y="747.5885">ObraSocial</text><line style="stroke:#181818;stroke-width:0.5;" x1="1076" x2="1228.4131" y1="757.86" y2="757.86"/><rect fill="none" height="6" style="stroke:#C82930;stroke-width:1;" width="6" x="1083" y="769.1647"/><text fill="#000000" font-family="sans-serif" font-size="14" lengthAdjust="spacing" textLength="119.0479" x="1095" y="776.3932">NombreObraSocial</text><rect fill="none" height="6" style="stroke:#C82930;stroke-width:1;" width="6" x="1083" y="786.7741"/><text fill="#000000" font-family="sans-serif" font-size="14" lengthAdjust="spacing" textLength="128.4131" x="1095" y="794.0026">productosRecetados</text><line style="stroke:#181818;stroke-width:0.5;" x1="1076" x2="1228.4131" y1="801.0787" y2="801.0787"/></g><!--class Venta--><g class="entity" data-entity="Venta" data-source-line="65" data-uid="ent0018" id="entity_Venta"><rect fill="#F1F1F1" height="224.0938" rx="2.5" ry="2.5" style="stroke:#181818;stroke-width:0.5;" width="499.1357" x="1613" y="774.36"/><ellipse cx="1840.0249" cy="790.36" fill="#ADD1B2" rx="11" ry="11" style="stroke:#181818;stroke-width:1;"/><path d="M1842.7905,786.235 Q1842.9468,786.0162 1843.1343,785.9069 Q1843.3218,785.7975 1843.5405,785.7975 Q1843.9155,785.7975 1844.1499,786.0631 Q1844.3843,786.3131 1844.3843,786.9225 L1844.3843,788.3756 Q1844.3843,788.985 1844.1499,789.2506 Q1843.9155,789.5162 1843.5405,789.5162 Q1843.1968,789.5162 1842.9937,789.3131 Q1842.7905,789.1256 1842.6812,788.61 Q1842.6343,788.2506 1842.4468,788.0631 Q1842.1187,787.6881 1841.5093,787.4694 Q1840.8999,787.2506 1840.2749,787.2506 Q1839.5093,787.2506 1838.8687,787.5787 Q1838.2437,787.9069 1837.7437,788.6569 Q1837.2593,789.4069 1837.2593,790.4381 L1837.2593,791.5319 Q1837.2593,792.7662 1838.1499,793.5944 Q1839.0405,794.4069 1840.6343,794.4069 Q1841.5718,794.4069 1842.228,794.1569 Q1842.6187,794.0006 1843.0405,793.5631 Q1843.3062,793.2975 1843.4468,793.2194 Q1843.603,793.1412 1843.8062,793.1412 Q1844.1343,793.1412 1844.3843,793.4069 Q1844.6499,793.6569 1844.6499,794.0006 Q1844.6499,794.3444 1844.3062,794.7506 Q1843.8062,795.3287 1843.0093,795.6569 Q1841.9312,796.11 1840.6343,796.11 Q1839.1187,796.11 1837.9155,795.485 Q1836.9312,794.985 1836.2437,793.9225 Q1835.5562,792.8444 1835.5562,791.5631 L1835.5562,790.4069 Q1835.5562,789.0787 1836.1655,787.9381 Q1836.7905,786.7819 1837.8843,786.1725 Q1838.978,785.5475 1840.2124,785.5475 Q1840.9468,785.5475 1841.5874,785.7194 Q1842.2437,785.8756 1842.7905,786.235 Z " fill="#000000"/><text fill="#000000" font-family="sans-serif" font-size="14" lengthAdjust="spacing" textLength="36.5859" x="1860.5249" y="796.0885">Venta</text><line style="stroke:#181818;stroke-width:0.5;" x1="1614" x2="2111.1357" y1="806.36" y2="806.36"/><rect fill="none" height="6" style="stroke:#C82930;stroke-width:1;" width="6" x="1621" y="817.6647"/><text fill="#000000" font-family="sans-serif" font-size="14" lengthAdjust="spacing" textLength="55.2617" x="1633" y="824.8932">fechaVta</text><rect fill="none" height="6" style="stroke:#C82930;stroke-width:1;" width="6" x="1621" y="835.2741"/><text fill="#000000" font-family="sans-serif" font-size="14" lengthAdjust="spacing" textLength="70.834" x="1633" y="842.5026">fechaVenta</text><line style="stroke:#181818;stroke-width:0.5;" x1="1614" x2="2111.1357" y1="849.5787" y2="849.5787"/><ellipse cx="1624" cy="863.8834" fill="#84BE84" rx="3" ry="3" style="stroke:#038048;stroke-width:1;"/><text fill="#000000" font-family="sans-serif" font-size="14" lengthAdjust="spacing" textLength="195.3301" x="1633" y="868.112">AgregarProducto(DetalleVenta)</text><ellipse cx="1624" cy="881.4928" fill="#84BE84" rx="3" ry="3" style="stroke:#038048;stroke-width:1;"/><text fill="#000000" font-family="sans-serif" font-size="14" lengthAdjust="spacing" textLength="424.1084" x="1633" y="885.7213">RegistrarVenta(DatosCliente, tipoVta, tipoPago, montoTotal, cuotas)</text><ellipse cx="1624" cy="899.1022" fill="#84BE84" rx="3" ry="3" style="stroke:#038048;stroke-width:1;"/><text fill="#000000" font-family="sans-serif" font-size="14" lengthAdjust="spacing" textLength="130.7305" x="1633" y="903.3307">BuscarVenta(nroVta)</text><ellipse cx="1624" cy="916.7116" fill="#84BE84" rx="3" ry="3" style="stroke:#038048;stroke-width:1;"/><text fill="#000000" font-family="sans-serif" font-size="14" lengthAdjust="spacing" textLength="473.1357" x="1633" y="920.9401">ModificarVenta(nroVta, DatosCliente, tipoVta, tipoPago, montoTotal, cuotas)</text><ellipse cx="1624" cy="934.3209" fill="#84BE84" rx="3" ry="3" style="stroke:#038048;stroke-width:1;"/><text fill="#000000" font-family="sans-serif" font-size="14" lengthAdjust="spacing" textLength="137.7236" x="1633" y="938.5495">EliminarVenta(nroVta)</text><ellipse cx="1624" cy="951.9303" fill="#84BE84" rx="3" ry="3" style="stroke:#038048;stroke-width:1;"/><text fill="#000000" font-family="sans-serif" font-size="14" lengthAdjust="spacing" textLength="152.5234" x="1633" y="956.1588">ElegirTipoVenta(tipoVta)</text><ellipse cx="1624" cy="969.5397" fill="#84BE84" rx="3" ry="3" style="stroke:#038048;stroke-width:1;"/><text fill="#000000" font-family="sans-serif" font-size="14" lengthAdjust="spacing" textLength="270.0127" x="1633" y="973.7682">CalcularMontoTotal(DetalleVta, Descuento)</text><ellipse cx="1624" cy="987.1491" fill="#84BE84" rx="3" ry="3" style="stroke:#038048;stroke-width:1;"/><text fill="#000000" font-family="sans-serif" font-size="14" lengthAdjust="spacing" textLength="249.792" x="1633" y="991.3776">ObtenerReceta(nroReceta, numAfiliado)</text></g><!--class TipoVenta--><g class="entity" data-entity="TipoVenta" data-source-line="77" data-uid="ent0019" id="entity_TipoVenta"><rect fill="#F1F1F1" height="48" rx="2.5" ry="2.5" style="stroke:#181818;stroke-width:0.5;" width="95.8203" x="2313.5" y="917.36"/><ellipse cx="2328.5" cy="933.36" fill="#ADD1B2" rx="11" ry="11" style="stroke:#181818;stroke-width:1;"/><path d="M2331.2656,929.235 Q2331.4219,929.0162 2331.6094,928.9069 Q2331.7969,928.7975 2332.0156,928.7975 Q2332.3906,928.7975 2332.625,929.0631 Q2332.8594,929.3131 2332.8594,929.9225 L2332.8594,931.3756 Q2332.8594,931.985 2332.625,932.2506 Q2332.3906,932.5162 2332.0156,932.5162 Q2331.6719,932.5162 2331.4688,932.3131 Q2331.2656,932.1256 2331.1563,931.61 Q2331.1094,931.2506 2330.9219,931.0631 Q2330.5938,930.6881 2329.9844,930.4694 Q2329.375,930.2506 2328.75,930.2506 Q2327.9844,930.2506 2327.3438,930.5787 Q2326.7188,930.9069 2326.2188,931.6569 Q2325.7344,932.4069 2325.7344,933.4381 L2325.7344,934.5319 Q2325.7344,935.7662 2326.625,936.5944 Q2327.5156,937.4069 2329.1094,937.4069 Q2330.0469,937.4069 2330.7031,937.1569 Q2331.0938,937.0006 2331.5156,936.5631 Q2331.7813,936.2975 2331.9219,936.2194 Q2332.0781,936.1412 2332.2813,936.1412 Q2332.6094,936.1412 2332.8594,936.4069 Q2333.125,936.6569 2333.125,937.0006 Q2333.125,937.3444 2332.7813,937.7506 Q2332.2813,938.3287 2331.4844,938.6569 Q2330.4063,939.11 2329.1094,939.11 Q2327.5938,939.11 2326.3906,938.485 Q2325.4063,937.985 2324.7188,936.9225 Q2324.0313,935.8444 2324.0313,934.5631 L2324.0313,933.4069 Q2324.0313,932.0787 2324.6406,930.9381 Q2325.2656,929.7819 2326.3594,929.1725 Q2327.4531,928.5475 2328.6875,928.5475 Q2329.4219,928.5475 2330.0625,928.7194 Q2330.7188,928.8756 2331.2656,929.235 Z " fill="#000000"/><text fill="#000000" font-family="sans-serif" font-size="14" lengthAdjust="spacing" textLength="63.8203" x="2342.5" y="939.0885">TipoVenta</text><line style="stroke:#181818;stroke-width:0.5;" x1="2314.5" x2="2408.3203" y1="949.36" y2="949.36"/><line style="stroke:#181818;stroke-width:0.5;" x1="2314.5" x2="2408.3203" y1="957.36" y2="957.36"/></g><!--class ConReceta--><g class="entity" data-entity="ConReceta" data-source-line="80" data-uid="ent0020" id="entity_ConReceta"><rect fill="#F1F1F1" height="48" rx="2.5" ry="2.5" style="stroke:#181818;stroke-width:0.5;" width="102.041" x="2619" y="917.36"/><ellipse cx="2634" cy="933.36" fill="#ADD1B2" rx="11" ry="11" style="stroke:#181818;stroke-width:1;"/><path d="M2636.7656,929.235 Q2636.9219,929.0162 2637.1094,928.9069 Q2637.2969,928.7975 2637.5156,928.7975 Q2637.8906,928.7975 2638.125,929.0631 Q2638.3594,929.3131 2638.3594,929.9225 L2638.3594,931.3756 Q2638.3594,931.985 2638.125,932.2506 Q2637.8906,932.5162 2637.5156,932.5162 Q2637.1719,932.5162 2636.9688,932.3131 Q2636.7656,932.1256 2636.6563,931.61 Q2636.6094,931.2506 2636.4219,931.0631 Q2636.0938,930.6881 2635.4844,930.4694 Q2634.875,930.2506 2634.25,930.2506 Q2633.4844,930.2506 2632.8438,930.5787 Q2632.2188,930.9069 2631.7188,931.6569 Q2631.2344,932.4069 2631.2344,933.4381 L2631.2344,934.5319 Q2631.2344,935.7662 2632.125,936.5944 Q2633.0156,937.4069 2634.6094,937.4069 Q2635.5469,937.4069 2636.2031,937.1569 Q2636.5938,937.0006 2637.0156,936.5631 Q2637.2813,936.2975 2637.4219,936.2194 Q2637.5781,936.1412 2637.7813,936.1412 Q2638.1094,936.1412 2638.3594,936.4069 Q2638.625,936.6569 2638.625,937.0006 Q2638.625,937.3444 2638.2813,937.7506 Q2637.7813,938.3287 2636.9844,938.6569 Q2635.9063,939.11 2634.6094,939.11 Q2633.0938,939.11 2631.8906,938.485 Q2630.9063,937.985 2630.2188,936.9225 Q2629.5313,935.8444 2629.5313,934.5631 L2629.5313,933.4069 Q2629.5313,932.0787 2630.1406,930.9381 Q2630.7656,929.7819 2631.8594,929.1725 Q2632.9531,928.5475 2634.1875,928.5475 Q2634.9219,928.5475 2635.5625,928.7194 Q2636.2188,928.8756 2636.7656,929.235 Z " fill="#000000"/><text fill="#000000" font-family="sans-serif" font-size="14" lengthAdjust="spacing" textLength="70.041" x="2648" y="939.0885">ConReceta</text><line style="stroke:#181818;stroke-width:0.5;" x1="2620" x2="2720.041" y1="949.36" y2="949.36"/><line style="stroke:#181818;stroke-width:0.5;" x1="2620" x2="2720.041" y1="957.36" y2="957.36"/></g><!--class SinReceta--><g class="entity" data-entity="SinReceta" data-source-line="83" data-uid="ent0021" id="entity_SinReceta"><rect fill="#F1F1F1" height="48" rx="2.5" ry="2.5" style="stroke:#181818;stroke-width:0.5;" width="96.5928" x="2621.5" y="1000.36"/><ellipse cx="2636.5" cy="1016.36" fill="#ADD1B2" rx="11" ry="11" style="stroke:#181818;stroke-width:1;"/><path d="M2639.2656,1012.235 Q2639.4219,1012.0162 2639.6094,1011.9069 Q2639.7969,1011.7975 2640.0156,1011.7975 Q2640.3906,1011.7975 2640.625,1012.0631 Q2640.8594,1012.3131 2640.8594,1012.9225 L2640.8594,1014.3756 Q2640.8594,1014.985 2640.625,1015.2506 Q2640.3906,1015.5162 2640.0156,1015.5162 Q2639.6719,1015.5162 2639.4688,1015.3131 Q2639.2656,1015.1256 2639.1563,1014.61 Q2639.1094,1014.2506 2638.9219,1014.0631 Q2638.5938,1013.6881 2637.9844,1013.4694 Q2637.375,1013.2506 2636.75,1013.2506 Q2635.9844,1013.2506 2635.3438,1013.5787 Q2634.7188,1013.9069 2634.2188,1014.6569 Q2633.7344,1015.4069 2633.7344,1016.4381 L2633.7344,1017.5319 Q2633.7344,1018.7662 2634.625,1019.5944 Q2635.5156,1020.4069 2637.1094,1020.4069 Q2638.0469,1020.4069 2638.7031,1020.1569 Q2639.0938,1020.0006 2639.5156,1019.5631 Q2639.7813,1019.2975 2639.9219,1019.2194 Q2640.0781,1019.1412 2640.2813,1019.1412 Q2640.6094,1019.1412 2640.8594,1019.4069 Q2641.125,1019.6569 2641.125,1020.0006 Q2641.125,1020.3444 2640.7813,1020.7506 Q2640.2813,1021.3287 2639.4844,1021.6569 Q2638.4063,1022.11 2637.1094,1022.11 Q2635.5938,1022.11 2634.3906,1021.485 Q2633.4063,1020.985 2632.7188,1019.9225 Q2632.0313,1018.8444 2632.0313,1017.5631 L2632.0313,1016.4069 Q2632.0313,1015.0787 2632.6406,1013.9381 Q2633.2656,1012.7819 2634.3594,1012.1725 Q2635.4531,1011.5475 2636.6875,1011.5475 Q2637.4219,1011.5475 2638.0625,1011.7194 Q2638.7188,1011.8756 2639.2656,1012.235 Z " fill="#000000"/><text fill="#000000" font-family="sans-serif" font-size="14" lengthAdjust="spacing" textLength="64.5928" x="2650.5" y="1022.0885">SinReceta</text><line style="stroke:#181818;stroke-width:0.5;" x1="2622.5" x2="2717.0928" y1="1032.36" y2="1032.36"/><line style="stroke:#181818;stroke-width:0.5;" x1="2622.5" x2="2717.0928" y1="1040.36" y2="1040.36"/></g><!--class DetalleVenta--><g class="entity" data-entity="DetalleVenta" data-source-line="87" data-uid="ent0022" id="entity_DetalleVenta"><rect fill="#F1F1F1" height="65.6094" rx="2.5" ry="2.5" style="stroke:#181818;stroke-width:0.5;" width="112.165" x="2305.5" y="623.36"/><ellipse cx="2320.5" cy="639.36" fill="#ADD1B2" rx="11" ry="11" style="stroke:#181818;stroke-width:1;"/><path d="M2323.2656,635.235 Q2323.4219,635.0162 2323.6094,634.9069 Q2323.7969,634.7975 2324.0156,634.7975 Q2324.3906,634.7975 2324.625,635.0631 Q2324.8594,635.3131 2324.8594,635.9225 L2324.8594,637.3756 Q2324.8594,637.985 2324.625,638.2506 Q2324.3906,638.5162 2324.0156,638.5162 Q2323.6719,638.5162 2323.4688,638.3131 Q2323.2656,638.1256 2323.1563,637.61 Q2323.1094,637.2506 2322.9219,637.0631 Q2322.5938,636.6881 2321.9844,636.4694 Q2321.375,636.2506 2320.75,636.2506 Q2319.9844,636.2506 2319.3438,636.5787 Q2318.7188,636.9069 2318.2188,637.6569 Q2317.7344,638.4069 2317.7344,639.4381 L2317.7344,640.5319 Q2317.7344,641.7662 2318.625,642.5944 Q2319.5156,643.4069 2321.1094,643.4069 Q2322.0469,643.4069 2322.7031,643.1569 Q2323.0938,643.0006 2323.5156,642.5631 Q2323.7813,642.2975 2323.9219,642.2194 Q2324.0781,642.1412 2324.2813,642.1412 Q2324.6094,642.1412 2324.8594,642.4069 Q2325.125,642.6569 2325.125,643.0006 Q2325.125,643.3444 2324.7813,643.7506 Q2324.2813,644.3287 2323.4844,644.6569 Q2322.4063,645.11 2321.1094,645.11 Q2319.5938,645.11 2318.3906,644.485 Q2317.4063,643.985 2316.7188,642.9225 Q2316.0313,641.8444 2316.0313,640.5631 L2316.0313,639.4069 Q2316.0313,638.0787 2316.6406,636.9381 Q2317.2656,635.7819 2318.3594,635.1725 Q2319.4531,634.5475 2320.6875,634.5475 Q2321.4219,634.5475 2322.0625,634.7194 Q2322.7188,634.8756 2323.2656,635.235 Z " fill="#000000"/><text fill="#000000" font-family="sans-serif" font-size="14" lengthAdjust="spacing" textLength="80.165" x="2334.5" y="645.0885">DetalleVenta</text><line style="stroke:#181818;stroke-width:0.5;" x1="2306.5" x2="2416.665" y1="655.36" y2="655.36"/><rect fill="none" height="6" style="stroke:#C82930;stroke-width:1;" width="6" x="2313.5" y="666.6647"/><text fill="#000000" font-family="sans-serif" font-size="14" lengthAdjust="spacing" textLength="38.1309" x="2325.5" y="673.8932">precio</text><line style="stroke:#181818;stroke-width:0.5;" x1="2306.5" x2="2416.665" y1="680.9694" y2="680.9694"/></g><!--class Medicamento--><g class="entity" data-entity="Medicamento" data-source-line="90" data-uid="ent0023" id="entity_Medicamento"><rect fill="#F1F1F1" height="224.0938" rx="2.5" ry="2.5" style="stroke:#181818;stroke-width:0.5;" width="300.7021" x="1712" y="515.36"/><ellipse cx="1816.0806" cy="531.36" fill="#ADD1B2" rx="11" ry="11" style="stroke:#181818;stroke-width:1;"/><path d="M1818.8462,527.235 Q1819.0024,527.0162 1819.1899,526.9069 Q1819.3774,526.7975 1819.5962,526.7975 Q1819.9712,526.7975 1820.2056,527.0631 Q1820.4399,527.3131 1820.4399,527.9225 L1820.4399,529.3756 Q1820.4399,529.985 1820.2056,530.2506 Q1819.9712,530.5162 1819.5962,530.5162 Q1819.2524,530.5162 1819.0493,530.3131 Q1818.8462,530.1256 1818.7368,529.61 Q1818.6899,529.2506 1818.5024,529.0631 Q1818.1743,528.6881 1817.5649,528.4694 Q1816.9556,528.2506 1816.3306,528.2506 Q1815.5649,528.2506 1814.9243,528.5787 Q1814.2993,528.9069 1813.7993,529.6569 Q1813.3149,530.4069 1813.3149,531.4381 L1813.3149,532.5319 Q1813.3149,533.7662 1814.2056,534.5944 Q1815.0962,535.4069 1816.6899,535.4069 Q1817.6274,535.4069 1818.2837,535.1569 Q1818.6743,535.0006 1819.0962,534.5631 Q1819.3618,534.2975 1819.5024,534.2194 Q1819.6587,534.1412 1819.8618,534.1412 Q1820.1899,534.1412 1820.4399,534.4069 Q1820.7056,534.6569 1820.7056,535.0006 Q1820.7056,535.3444 1820.3618,535.7506 Q1819.8618,536.3287 1819.0649,536.6569 Q1817.9868,537.11 1816.6899,537.11 Q1815.1743,537.11 1813.9712,536.485 Q1812.9868,535.985 1812.2993,534.9225 Q1811.6118,533.8444 1811.6118,532.5631 L1811.6118,531.4069 Q1811.6118,530.0787 1812.2212,528.9381 Q1812.8462,527.7819 1813.9399,527.1725 Q1815.0337,526.5475 1816.2681,526.5475 Q1817.0024,526.5475 1817.6431,526.7194 Q1818.2993,526.8756 1818.8462,527.235 Z " fill="#000000"/><text fill="#000000" font-family="sans-serif" font-size="14" lengthAdjust="spacing" textLength="84.041" x="1836.5806" y="537.0885">Medicamento</text><line style="stroke:#181818;stroke-width:0.5;" x1="1713" x2="2011.7021" y1="547.36" y2="547.36"/><rect fill="none" height="6" style="stroke:#C82930;stroke-width:1;" width="6" x="1720" y="558.6647"/><text fill="#000000" font-family="sans-serif" font-size="14" lengthAdjust="spacing" textLength="56.8066" x="1732" y="565.8932">codBarra</text><rect fill="none" height="6" style="stroke:#C82930;stroke-width:1;" width="6" x="1720" y="576.2741"/><text fill="#000000" font-family="sans-serif" font-size="14" lengthAdjust="spacing" textLength="70.8135" x="1732" y="583.5026">descripci&#243;n</text><rect fill="none" height="6" style="stroke:#C82930;stroke-width:1;" width="6" x="1720" y="593.8834"/><text fill="#000000" font-family="sans-serif" font-size="14" lengthAdjust="spacing" textLength="113.6064" x="1732" y="601.112">precioMedUnitario</text><rect fill="none" height="6" style="stroke:#C82930;stroke-width:1;" width="6" x="1720" y="611.4928"/><text fill="#000000" font-family="sans-serif" font-size="14" lengthAdjust="spacing" textLength="32.6758" x="1732" y="618.7213">stock</text><line style="stroke:#181818;stroke-width:0.5;" x1="1713" x2="2011.7021" y1="625.7975" y2="625.7975"/><ellipse cx="1723" cy="640.1022" fill="#84BE84" rx="3" ry="3" style="stroke:#038048;stroke-width:1;"/><text fill="#000000" font-family="sans-serif" font-size="14" lengthAdjust="spacing" textLength="161.0615" x="1732" y="644.3307">ConsultarStock(codBarra)</text><ellipse cx="1723" cy="657.7116" fill="#84BE84" rx="3" ry="3" style="stroke:#038048;stroke-width:1;"/><text fill="#000000" font-family="sans-serif" font-size="14" lengthAdjust="spacing" textLength="256.0264" x="1732" y="661.9401">VenderMedicamento(codBarra, cantidad)</text><ellipse cx="1723" cy="675.3209" fill="#84BE84" rx="3" ry="3" style="stroke:#038048;stroke-width:1;"/><text fill="#000000" font-family="sans-serif" font-size="14" lengthAdjust="spacing" textLength="252.8887" x="1732" y="679.5495">ActualizarPrecio(codBarra, nuevoPrecio)</text><ellipse cx="1723" cy="692.9303" fill="#84BE84" rx="3" ry="3" style="stroke:#038048;stroke-width:1;"/><text fill="#000000" font-family="sans-serif" font-size="14" lengthAdjust="spacing" textLength="274.7021" x="1732" y="697.1588">ActualizarStock(codBarra, cantidadVendida)</text><ellipse cx="1723" cy="710.5397" fill="#84BE84" rx="3" ry="3" style="stroke:#038048;stroke-width:1;"/><text fill="#000000" font-family="sans-serif" font-size="14" lengthAdjust="spacing" textLength="178.1719" x="1732" y="714.7682">DisminuirStock(int cantidad);</text><ellipse cx="1723" cy="728.1491" fill="#84BE84" rx="3" ry="3" style="stroke:#038048;stroke-width:1;"/><text fill="#000000" font-family="sans-serif" font-size="14" lengthAdjust="spacing" textLength="180.5303" x="1732" y="732.3776">AumentarStock(int cantidad);</text></g><!--class Asistencia--><g class="entity" data-entity="Asistencia" data-source-line="102" data-uid="ent0024" id="entity_Asistencia"><rect fill="#F1F1F1" height="136.0469" rx="2.5" ry="2.5" style="stroke:#181818;stroke-width:0.5;" width="428.3291" x="938" y="372.36"/><ellipse cx="1116.0112" cy="388.36" fill="#ADD1B2" rx="11" ry="11" style="stroke:#181818;stroke-width:1;"/><path d="M1118.7769,384.235 Q1118.9331,384.0162 1119.1206,383.9069 Q1119.3081,383.7975 1119.5269,383.7975 Q1119.9019,383.7975 1120.1362,384.0631 Q1120.3706,384.3131 1120.3706,384.9225 L1120.3706,386.3756 Q1120.3706,386.985 1120.1362,387.2506 Q1119.9019,387.5162 1119.5269,387.5162 Q1119.1831,387.5162 1118.98,387.3131 Q1118.7769,387.1256 1118.6675,386.61 Q1118.6206,386.2506 1118.4331,386.0631 Q1118.105,385.6881 1117.4956,385.4694 Q1116.8862,385.2506 1116.2612,385.2506 Q1115.4956,385.2506 1114.855,385.5787 Q1114.23,385.9069 1113.73,386.6569 Q1113.2456,387.4069 1113.2456,388.4381 L1113.2456,389.5319 Q1113.2456,390.7662 1114.1362,391.5944 Q1115.0269,392.4069 1116.6206,392.4069 Q1117.5581,392.4069 1118.2144,392.1569 Q1118.605,392.0006 1119.0269,391.5631 Q1119.2925,391.2975 1119.4331,391.2194 Q1119.5894,391.1412 1119.7925,391.1412 Q1120.1206,391.1412 1120.3706,391.4069 Q1120.6362,391.6569 1120.6362,392.0006 Q1120.6362,392.3444 1120.2925,392.7506 Q1119.7925,393.3287 1118.9956,393.6569 Q1117.9175,394.11 1116.6206,394.11 Q1115.105,394.11 1113.9019,393.485 Q1112.9175,392.985 1112.23,391.9225 Q1111.5425,390.8444 1111.5425,389.5631 L1111.5425,388.4069 Q1111.5425,387.0787 1112.1519,385.9381 Q1112.7769,384.7819 1113.8706,384.1725 Q1114.9644,383.5475 1116.1987,383.5475 Q1116.9331,383.5475 1117.5737,383.7194 Q1118.23,383.8756 1118.7769,384.235 Z " fill="#000000"/><text fill="#000000" font-family="sans-serif" font-size="14" lengthAdjust="spacing" textLength="63.8066" x="1136.5112" y="394.0885">Asistencia</text><line style="stroke:#181818;stroke-width:0.5;" x1="939" x2="1365.3291" y1="404.36" y2="404.36"/><rect fill="none" height="6" style="stroke:#C82930;stroke-width:1;" width="6" x="946" y="415.6647"/><text fill="#000000" font-family="sans-serif" font-size="14" lengthAdjust="spacing" textLength="34.248" x="958" y="422.8932">fecha</text><rect fill="none" height="6" style="stroke:#C82930;stroke-width:1;" width="6" x="946" y="433.2741"/><text fill="#000000" font-family="sans-serif" font-size="14" lengthAdjust="spacing" textLength="77.0547" x="958" y="440.5026">horaEntrada</text><rect fill="none" height="6" style="stroke:#C82930;stroke-width:1;" width="6" x="946" y="450.8834"/><text fill="#000000" font-family="sans-serif" font-size="14" lengthAdjust="spacing" textLength="66.9375" x="958" y="458.112">horaSalida</text><line style="stroke:#181818;stroke-width:0.5;" x1="939" x2="1365.3291" y1="465.1881" y2="465.1881"/><ellipse cx="949" cy="479.4928" fill="#84BE84" rx="3" ry="3" style="stroke:#038048;stroke-width:1;"/><text fill="#000000" font-family="sans-serif" font-size="14" lengthAdjust="spacing" textLength="402.3291" x="958" y="483.7213">RegistrarAsistencia(Empleado, horaEntrada, horaSalida, estado)</text><ellipse cx="949" cy="497.1022" fill="#84BE84" rx="3" ry="3" style="stroke:#038048;stroke-width:1;"/><text fill="#000000" font-family="sans-serif" font-size="14" lengthAdjust="spacing" textLength="258.3438" x="958" y="501.3307">ObtenerHistorialAsistencia(desde, hasta);</text></g><!--class estado--><g class="entity" data-entity="estado" data-source-line="109" data-uid="ent0025" id="entity_estado"><rect fill="#F1F1F1" height="48" rx="2.5" ry="2.5" style="stroke:#181818;stroke-width:0.5;" width="74.0342" x="1452.5" y="383.36"/><ellipse cx="1467.5" cy="399.36" fill="#ADD1B2" rx="11" ry="11" style="stroke:#181818;stroke-width:1;"/><path d="M1470.2656,395.235 Q1470.4219,395.0162 1470.6094,394.9069 Q1470.7969,394.7975 1471.0156,394.7975 Q1471.3906,394.7975 1471.625,395.0631 Q1471.8594,395.3131 1471.8594,395.9225 L1471.8594,397.3756 Q1471.8594,397.985 1471.625,398.2506 Q1471.3906,398.5162 1471.0156,398.5162 Q1470.6719,398.5162 1470.4688,398.3131 Q1470.2656,398.1256 1470.1563,397.61 Q1470.1094,397.2506 1469.9219,397.0631 Q1469.5938,396.6881 1468.9844,396.4694 Q1468.375,396.2506 1467.75,396.2506 Q1466.9844,396.2506 1466.3438,396.5787 Q1465.7188,396.9069 1465.2188,397.6569 Q1464.7344,398.4069 1464.7344,399.4381 L1464.7344,400.5319 Q1464.7344,401.7662 1465.625,402.5944 Q1466.5156,403.4069 1468.1094,403.4069 Q1469.0469,403.4069 1469.7031,403.1569 Q1470.0938,403.0006 1470.5156,402.5631 Q1470.7813,402.2975 1470.9219,402.2194 Q1471.0781,402.1412 1471.2813,402.1412 Q1471.6094,402.1412 1471.8594,402.4069 Q1472.125,402.6569 1472.125,403.0006 Q1472.125,403.3444 1471.7813,403.7506 Q1471.2813,404.3287 1470.4844,404.6569 Q1469.4063,405.11 1468.1094,405.11 Q1466.5938,405.11 1465.3906,404.485 Q1464.4063,403.985 1463.7188,402.9225 Q1463.0313,401.8444 1463.0313,400.5631 L1463.0313,399.4069 Q1463.0313,398.0787 1463.6406,396.9381 Q1464.2656,395.7819 1465.3594,395.1725 Q1466.4531,394.5475 1467.6875,394.5475 Q1468.4219,394.5475 1469.0625,394.7194 Q1469.7188,394.8756 1470.2656,395.235 Z " fill="#000000"/><text fill="#000000" font-family="sans-serif" font-size="14" lengthAdjust="spacing" textLength="42.0342" x="1481.5" y="405.0885">estado</text><line style="stroke:#181818;stroke-width:0.5;" x1="1453.5" x2="1525.5342" y1="415.36" y2="415.36"/><line style="stroke:#181818;stroke-width:0.5;" x1="1453.5" x2="1525.5342" y1="423.36" y2="423.36"/></g><!--class Licencia--><g class="entity" data-entity="Licencia" data-source-line="111" data-uid="ent0026" id="entity_Licencia"><rect fill="#F1F1F1" height="48" rx="2.5" ry="2.5" style="stroke:#181818;stroke-width:0.5;" width="83.3652" x="1821" y="349.36"/><ellipse cx="1836" cy="365.36" fill="#ADD1B2" rx="11" ry="11" style="stroke:#181818;stroke-width:1;"/><path d="M1838.7656,361.235 Q1838.9219,361.0162 1839.1094,360.9069 Q1839.2969,360.7975 1839.5156,360.7975 Q1839.8906,360.7975 1840.125,361.0631 Q1840.3594,361.3131 1840.3594,361.9225 L1840.3594,363.3756 Q1840.3594,363.985 1840.125,364.2506 Q1839.8906,364.5162 1839.5156,364.5162 Q1839.1719,364.5162 1838.9688,364.3131 Q1838.7656,364.1256 1838.6563,363.61 Q1838.6094,363.2506 1838.4219,363.0631 Q1838.0938,362.6881 1837.4844,362.4694 Q1836.875,362.2506 1836.25,362.2506 Q1835.4844,362.2506 1834.8438,362.5787 Q1834.2188,362.9069 1833.7188,363.6569 Q1833.2344,364.4069 1833.2344,365.4381 L1833.2344,366.5319 Q1833.2344,367.7662 1834.125,368.5944 Q1835.0156,369.4069 1836.6094,369.4069 Q1837.5469,369.4069 1838.2031,369.1569 Q1838.5938,369.0006 1839.0156,368.5631 Q1839.2813,368.2975 1839.4219,368.2194 Q1839.5781,368.1412 1839.7813,368.1412 Q1840.1094,368.1412 1840.3594,368.4069 Q1840.625,368.6569 1840.625,369.0006 Q1840.625,369.3444 1840.2813,369.7506 Q1839.7813,370.3287 1838.9844,370.6569 Q1837.9063,371.11 1836.6094,371.11 Q1835.0938,371.11 1833.8906,370.485 Q1832.9063,369.985 1832.2188,368.9225 Q1831.5313,367.8444 1831.5313,366.5631 L1831.5313,365.4069 Q1831.5313,364.0787 1832.1406,362.9381 Q1832.7656,361.7819 1833.8594,361.1725 Q1834.9531,360.5475 1836.1875,360.5475 Q1836.9219,360.5475 1837.5625,360.7194 Q1838.2188,360.8756 1838.7656,361.235 Z " fill="#000000"/><text fill="#000000" font-family="sans-serif" font-size="14" lengthAdjust="spacing" textLength="51.3652" x="1850" y="371.0885">Licencia</text><line style="stroke:#181818;stroke-width:0.5;" x1="1822" x2="1903.3652" y1="381.36" y2="381.36"/><line style="stroke:#181818;stroke-width:0.5;" x1="1822" x2="1903.3652" y1="389.36" y2="389.36"/></g><!--class Ausente--><g class="entity" data-entity="Ausente" data-source-line="114" data-uid="ent0027" id="entity_Ausente"><rect fill="#F1F1F1" height="48" rx="2.5" ry="2.5" style="stroke:#181818;stroke-width:0.5;" width="83.3721" x="1821" y="432.36"/><ellipse cx="1836" cy="448.36" fill="#ADD1B2" rx="11" ry="11" style="stroke:#181818;stroke-width:1;"/><path d="M1838.7656,444.235 Q1838.9219,444.0162 1839.1094,443.9069 Q1839.2969,443.7975 1839.5156,443.7975 Q1839.8906,443.7975 1840.125,444.0631 Q1840.3594,444.3131 1840.3594,444.9225 L1840.3594,446.3756 Q1840.3594,446.985 1840.125,447.2506 Q1839.8906,447.5162 1839.5156,447.5162 Q1839.1719,447.5162 1838.9688,447.3131 Q1838.7656,447.1256 1838.6563,446.61 Q1838.6094,446.2506 1838.4219,446.0631 Q1838.0938,445.6881 1837.4844,445.4694 Q1836.875,445.2506 1836.25,445.2506 Q1835.4844,445.2506 1834.8438,445.5787 Q1834.2188,445.9069 1833.7188,446.6569 Q1833.2344,447.4069 1833.2344,448.4381 L1833.2344,449.5319 Q1833.2344,450.7662 1834.125,451.5944 Q1835.0156,452.4069 1836.6094,452.4069 Q1837.5469,452.4069 1838.2031,452.1569 Q1838.5938,452.0006 1839.0156,451.5631 Q1839.2813,451.2975 1839.4219,451.2194 Q1839.5781,451.1412 1839.7813,451.1412 Q1840.1094,451.1412 1840.3594,451.4069 Q1840.625,451.6569 1840.625,452.0006 Q1840.625,452.3444 1840.2813,452.7506 Q1839.7813,453.3287 1838.9844,453.6569 Q1837.9063,454.11 1836.6094,454.11 Q1835.0938,454.11 1833.8906,453.485 Q1832.9063,452.985 1832.2188,451.9225 Q1831.5313,450.8444 1831.5313,449.5631 L1831.5313,448.4069 Q1831.5313,447.0787 1832.1406,445.9381 Q1832.7656,444.7819 1833.8594,444.1725 Q1834.9531,443.5475 1836.1875,443.5475 Q1836.9219,443.5475 1837.5625,443.7194 Q1838.2188,443.8756 1838.7656,444.235 Z " fill="#000000"/><text fill="#000000" font-family="sans-serif" font-size="14" lengthAdjust="spacing" textLength="51.3721" x="1850" y="454.0885">Ausente</text><line style="stroke:#181818;stroke-width:0.5;" x1="1822" x2="1903.3721" y1="464.36" y2="464.36"/><line style="stroke:#181818;stroke-width:0.5;" x1="1822" x2="1903.3721" y1="472.36" y2="472.36"/></g><!--class Presente--><g class="entity" data-entity="Presente" data-source-line="117" data-uid="ent0028" id="entity_Presente"><rect fill="#F1F1F1" height="48" rx="2.5" ry="2.5" style="stroke:#181818;stroke-width:0.5;" width="88.0342" x="1818.5" y="266.36"/><ellipse cx="1833.5" cy="282.36" fill="#ADD1B2" rx="11" ry="11" style="stroke:#181818;stroke-width:1;"/><path d="M1836.2656,278.235 Q1836.4219,278.0162 1836.6094,277.9069 Q1836.7969,277.7975 1837.0156,277.7975 Q1837.3906,277.7975 1837.625,278.0631 Q1837.8594,278.3131 1837.8594,278.9225 L1837.8594,280.3756 Q1837.8594,280.985 1837.625,281.2506 Q1837.3906,281.5162 1837.0156,281.5162 Q1836.6719,281.5162 1836.4688,281.3131 Q1836.2656,281.1256 1836.1563,280.61 Q1836.1094,280.2506 1835.9219,280.0631 Q1835.5938,279.6881 1834.9844,279.4694 Q1834.375,279.2506 1833.75,279.2506 Q1832.9844,279.2506 1832.3438,279.5787 Q1831.7188,279.9069 1831.2188,280.6569 Q1830.7344,281.4069 1830.7344,282.4381 L1830.7344,283.5319 Q1830.7344,284.7662 1831.625,285.5944 Q1832.5156,286.4069 1834.1094,286.4069 Q1835.0469,286.4069 1835.7031,286.1569 Q1836.0938,286.0006 1836.5156,285.5631 Q1836.7813,285.2975 1836.9219,285.2194 Q1837.0781,285.1412 1837.2813,285.1412 Q1837.6094,285.1412 1837.8594,285.4069 Q1838.125,285.6569 1838.125,286.0006 Q1838.125,286.3444 1837.7813,286.7506 Q1837.2813,287.3287 1836.4844,287.6569 Q1835.4063,288.11 1834.1094,288.11 Q1832.5938,288.11 1831.3906,287.485 Q1830.4063,286.985 1829.7188,285.9225 Q1829.0313,284.8444 1829.0313,283.5631 L1829.0313,282.4069 Q1829.0313,281.0787 1829.6406,279.9381 Q1830.2656,278.7819 1831.3594,278.1725 Q1832.4531,277.5475 1833.6875,277.5475 Q1834.4219,277.5475 1835.0625,277.7194 Q1835.7188,277.8756 1836.2656,278.235 Z " fill="#000000"/><text fill="#000000" font-family="sans-serif" font-size="14" lengthAdjust="spacing" textLength="56.0342" x="1847.5" y="288.0885">Presente</text><line style="stroke:#181818;stroke-width:0.5;" x1="1819.5" x2="1905.5342" y1="298.36" y2="298.36"/><line style="stroke:#181818;stroke-width:0.5;" x1="1819.5" x2="1905.5342" y1="306.36" y2="306.36"/></g><!--class Ticket--><g class="entity" data-entity="Ticket" data-source-line="121" data-uid="ent0029" id="entity_Ticket"><rect fill="#F1F1F1" height="100.8281" rx="2.5" ry="2.5" style="stroke:#181818;stroke-width:0.5;" width="379.2402" x="2172" y="241.86"/><ellipse cx="2338.7012" cy="257.86" fill="#ADD1B2" rx="11" ry="11" style="stroke:#181818;stroke-width:1;"/><path d="M2341.4668,253.735 Q2341.623,253.5162 2341.8105,253.4069 Q2341.998,253.2975 2342.2168,253.2975 Q2342.5918,253.2975 2342.8262,253.5631 Q2343.0605,253.8131 2343.0605,254.4225 L2343.0605,255.8756 Q2343.0605,256.485 2342.8262,256.7506 Q2342.5918,257.0162 2342.2168,257.0162 Q2341.873,257.0162 2341.6699,256.8131 Q2341.4668,256.6256 2341.3574,256.11 Q2341.3105,255.7506 2341.123,255.5631 Q2340.7949,255.1881 2340.1855,254.9694 Q2339.5762,254.7506 2338.9512,254.7506 Q2338.1855,254.7506 2337.5449,255.0787 Q2336.9199,255.4069 2336.4199,256.1569 Q2335.9355,256.9069 2335.9355,257.9381 L2335.9355,259.0319 Q2335.9355,260.2662 2336.8262,261.0944 Q2337.7168,261.9069 2339.3105,261.9069 Q2340.248,261.9069 2340.9043,261.6569 Q2341.2949,261.5006 2341.7168,261.0631 Q2341.9824,260.7975 2342.123,260.7194 Q2342.2793,260.6412 2342.4824,260.6412 Q2342.8105,260.6412 2343.0605,260.9069 Q2343.3262,261.1569 2343.3262,261.5006 Q2343.3262,261.8444 2342.9824,262.2506 Q2342.4824,262.8287 2341.6855,263.1569 Q2340.6074,263.61 2339.3105,263.61 Q2337.7949,263.61 2336.5918,262.985 Q2335.6074,262.485 2334.9199,261.4225 Q2334.2324,260.3444 2334.2324,259.0631 L2334.2324,257.9069 Q2334.2324,256.5787 2334.8418,255.4381 Q2335.4668,254.2819 2336.5605,253.6725 Q2337.6543,253.0475 2338.8887,253.0475 Q2339.623,253.0475 2340.2637,253.2194 Q2340.9199,253.3756 2341.4668,253.735 Z " fill="#000000"/><text fill="#000000" font-family="sans-serif" font-size="14" lengthAdjust="spacing" textLength="37.3379" x="2359.2012" y="263.5885">Ticket</text><line style="stroke:#181818;stroke-width:0.5;" x1="2173" x2="2550.2402" y1="273.86" y2="273.86"/><rect fill="none" height="6" style="stroke:#C82930;stroke-width:1;" width="6" x="2180" y="285.1647"/><text fill="#000000" font-family="sans-serif" font-size="14" lengthAdjust="spacing" textLength="57.5723" x="2192" y="292.3932">nroTicket</text><rect fill="none" height="6" style="stroke:#C82930;stroke-width:1;" width="6" x="2180" y="302.7741"/><text fill="#000000" font-family="sans-serif" font-size="14" lengthAdjust="spacing" textLength="64.5928" x="2192" y="310.0026">fechaHora</text><line style="stroke:#181818;stroke-width:0.5;" x1="2173" x2="2550.2402" y1="317.0787" y2="317.0787"/><ellipse cx="2183" cy="331.3834" fill="#84BE84" rx="3" ry="3" style="stroke:#038048;stroke-width:1;"/><text fill="#000000" font-family="sans-serif" font-size="14" lengthAdjust="spacing" textLength="353.2402" x="2192" y="335.612">GenerarTicket(DatosFarmacia, DatosCliente, fechaHora)</text></g><!--class Medico--><g class="entity" data-entity="Medico" data-source-line="127" data-uid="ent0030" id="entity_Medico"><rect fill="#F1F1F1" height="65.6094" rx="2.5" ry="2.5" style="stroke:#181818;stroke-width:0.5;" width="110.0273" x="752.5" y="648.36"/><ellipse cx="782.3034" cy="664.36" fill="#ADD1B2" rx="11" ry="11" style="stroke:#181818;stroke-width:1;"/><path d="M785.069,660.235 Q785.2253,660.0162 785.4128,659.9069 Q785.6003,659.7975 785.819,659.7975 Q786.194,659.7975 786.4284,660.0631 Q786.6628,660.3131 786.6628,660.9225 L786.6628,662.3756 Q786.6628,662.985 786.4284,663.2506 Q786.194,663.5162 785.819,663.5162 Q785.4753,663.5162 785.2722,663.3131 Q785.069,663.1256 784.9597,662.61 Q784.9128,662.2506 784.7253,662.0631 Q784.3972,661.6881 783.7878,661.4694 Q783.1784,661.2506 782.5534,661.2506 Q781.7878,661.2506 781.1472,661.5787 Q780.5222,661.9069 780.0222,662.6569 Q779.5378,663.4069 779.5378,664.4381 L779.5378,665.5319 Q779.5378,666.7662 780.4284,667.5944 Q781.319,668.4069 782.9128,668.4069 Q783.8503,668.4069 784.5065,668.1569 Q784.8972,668.0006 785.319,667.5631 Q785.5847,667.2975 785.7253,667.2194 Q785.8815,667.1412 786.0847,667.1412 Q786.4128,667.1412 786.6628,667.4069 Q786.9284,667.6569 786.9284,668.0006 Q786.9284,668.3444 786.5847,668.7506 Q786.0847,669.3287 785.2878,669.6569 Q784.2097,670.11 782.9128,670.11 Q781.3972,670.11 780.194,669.485 Q779.2097,668.985 778.5222,667.9225 Q777.8347,666.8444 777.8347,665.5631 L777.8347,664.4069 Q777.8347,663.0787 778.444,661.9381 Q779.069,660.7819 780.1628,660.1725 Q781.2565,659.5475 782.4909,659.5475 Q783.2253,659.5475 783.8659,659.7194 Q784.5222,659.8756 785.069,660.235 Z " fill="#000000"/><text fill="#000000" font-family="sans-serif" font-size="14" lengthAdjust="spacing" textLength="45.1309" x="799.5931" y="670.0885">Medico</text><line style="stroke:#181818;stroke-width:0.5;" x1="753.5" x2="861.5273" y1="680.36" y2="680.36"/><rect fill="none" height="6" style="stroke:#C82930;stroke-width:1;" width="6" x="760.5" y="691.6647"/><text fill="#000000" font-family="sans-serif" font-size="14" lengthAdjust="spacing" textLength="84.0273" x="772.5" y="698.8932">matriculaMed</text><line style="stroke:#181818;stroke-width:0.5;" x1="753.5" x2="861.5273" y1="705.9694" y2="705.9694"/></g><!--class Descuento--><g class="entity" data-entity="Descuento" data-source-line="131" data-uid="ent0031" id="entity_Descuento"><rect fill="#F1F1F1" height="65.6094" rx="2.5" ry="2.5" style="stroke:#181818;stroke-width:0.5;" width="98.9307" x="1440" y="779.36"/><ellipse cx="1455" cy="795.36" fill="#ADD1B2" rx="11" ry="11" style="stroke:#181818;stroke-width:1;"/><path d="M1457.7656,791.235 Q1457.9219,791.0162 1458.1094,790.9069 Q1458.2969,790.7975 1458.5156,790.7975 Q1458.8906,790.7975 1459.125,791.0631 Q1459.3594,791.3131 1459.3594,791.9225 L1459.3594,793.3756 Q1459.3594,793.985 1459.125,794.2506 Q1458.8906,794.5162 1458.5156,794.5162 Q1458.1719,794.5162 1457.9688,794.3131 Q1457.7656,794.1256 1457.6563,793.61 Q1457.6094,793.2506 1457.4219,793.0631 Q1457.0938,792.6881 1456.4844,792.4694 Q1455.875,792.2506 1455.25,792.2506 Q1454.4844,792.2506 1453.8438,792.5787 Q1453.2188,792.9069 1452.7188,793.6569 Q1452.2344,794.4069 1452.2344,795.4381 L1452.2344,796.5319 Q1452.2344,797.7662 1453.125,798.5944 Q1454.0156,799.4069 1455.6094,799.4069 Q1456.5469,799.4069 1457.2031,799.1569 Q1457.5938,799.0006 1458.0156,798.5631 Q1458.2813,798.2975 1458.4219,798.2194 Q1458.5781,798.1412 1458.7813,798.1412 Q1459.1094,798.1412 1459.3594,798.4069 Q1459.625,798.6569 1459.625,799.0006 Q1459.625,799.3444 1459.2813,799.7506 Q1458.7813,800.3287 1457.9844,800.6569 Q1456.9063,801.11 1455.6094,801.11 Q1454.0938,801.11 1452.8906,800.485 Q1451.9063,799.985 1451.2188,798.9225 Q1450.5313,797.8444 1450.5313,796.5631 L1450.5313,795.4069 Q1450.5313,794.0787 1451.1406,792.9381 Q1451.7656,791.7819 1452.8594,791.1725 Q1453.9531,790.5475 1455.1875,790.5475 Q1455.9219,790.5475 1456.5625,790.7194 Q1457.2188,790.8756 1457.7656,791.235 Z " fill="#000000"/><text fill="#000000" font-family="sans-serif" font-size="14" lengthAdjust="spacing" textLength="66.9307" x="1469" y="801.0885">Descuento</text><line style="stroke:#181818;stroke-width:0.5;" x1="1441" x2="1537.9307" y1="811.36" y2="811.36"/><rect fill="none" height="6" style="stroke:#C82930;stroke-width:1;" width="6" x="1448" y="822.6647"/><text fill="#000000" font-family="sans-serif" font-size="14" lengthAdjust="spacing" textLength="65.3789" x="1460" y="829.8932">porcentaje</text><line style="stroke:#181818;stroke-width:0.5;" x1="1441" x2="1537.9307" y1="836.9694" y2="836.9694"/></g><!--class Receta--><g class="entity" data-entity="Receta" data-source-line="136" data-uid="ent0032" id="entity_Receta"><rect fill="#F1F1F1" height="100.8281" rx="2.5" ry="2.5" style="stroke:#181818;stroke-width:0.5;" width="137.2754" x="540" y="654.86"/><ellipse cx="582.4126" cy="670.86" fill="#ADD1B2" rx="11" ry="11" style="stroke:#181818;stroke-width:1;"/><path d="M585.1783,666.735 Q585.3345,666.5162 585.522,666.4069 Q585.7095,666.2975 585.9283,666.2975 Q586.3033,666.2975 586.5376,666.5631 Q586.772,666.8131 586.772,667.4225 L586.772,668.8756 Q586.772,669.485 586.5376,669.7506 Q586.3033,670.0162 585.9283,670.0162 Q585.5845,670.0162 585.3814,669.8131 Q585.1783,669.6256 585.0689,669.11 Q585.022,668.7506 584.8345,668.5631 Q584.5064,668.1881 583.897,667.9694 Q583.2876,667.7506 582.6626,667.7506 Q581.897,667.7506 581.2564,668.0787 Q580.6314,668.4069 580.1314,669.1569 Q579.647,669.9069 579.647,670.9381 L579.647,672.0319 Q579.647,673.2662 580.5376,674.0944 Q581.4283,674.9069 583.022,674.9069 Q583.9595,674.9069 584.6158,674.6569 Q585.0064,674.5006 585.4283,674.0631 Q585.6939,673.7975 585.8345,673.7194 Q585.9908,673.6412 586.1939,673.6412 Q586.522,673.6412 586.772,673.9069 Q587.0376,674.1569 587.0376,674.5006 Q587.0376,674.8444 586.6939,675.2506 Q586.1939,675.8287 585.397,676.1569 Q584.3189,676.61 583.022,676.61 Q581.5064,676.61 580.3033,675.985 Q579.3189,675.485 578.6314,674.4225 Q577.9439,673.3444 577.9439,672.0631 L577.9439,670.9069 Q577.9439,669.5787 578.5533,668.4381 Q579.1783,667.2819 580.272,666.6725 Q581.3658,666.0475 582.6001,666.0475 Q583.3345,666.0475 583.9751,666.2194 Q584.6314,666.3756 585.1783,666.735 Z " fill="#000000"/><text fill="#000000" font-family="sans-serif" font-size="14" lengthAdjust="spacing" textLength="44.3584" x="602.5043" y="676.5885">Receta</text><line style="stroke:#181818;stroke-width:0.5;" x1="541" x2="676.2754" y1="686.86" y2="686.86"/><rect fill="none" height="6" style="stroke:#C82930;stroke-width:1;" width="6" x="548" y="698.1647"/><text fill="#000000" font-family="sans-serif" font-size="14" lengthAdjust="spacing" textLength="64.5928" x="560" y="705.3932">nroReceta</text><rect fill="none" height="6" style="stroke:#C82930;stroke-width:1;" width="6" x="548" y="715.7741"/><text fill="#000000" font-family="sans-serif" font-size="14" lengthAdjust="spacing" textLength="111.2754" x="560" y="723.0026">fechaPrescripci&#243;n</text><rect fill="none" height="6" style="stroke:#C82930;stroke-width:1;" width="6" x="548" y="733.3834"/><text fill="#000000" font-family="sans-serif" font-size="14" lengthAdjust="spacing" textLength="101.9238" x="560" y="740.612">matriculaMedico</text><line style="stroke:#181818;stroke-width:0.5;" x1="541" x2="676.2754" y1="747.6881" y2="747.6881"/></g><!--class DetallePedido--><g class="entity" data-entity="DetallePedido" data-source-line="142" data-uid="ent0033" id="entity_DetallePedido"><rect fill="#F1F1F1" height="118.4375" rx="2.5" ry="2.5" style="stroke:#181818;stroke-width:0.5;" width="119.1719" x="1092.5" y="100.36"/><ellipse cx="1107.5" cy="116.36" fill="#ADD1B2" rx="11" ry="11" style="stroke:#181818;stroke-width:1;"/><path d="M1110.2656,112.235 Q1110.4219,112.0162 1110.6094,111.9069 Q1110.7969,111.7975 1111.0156,111.7975 Q1111.3906,111.7975 1111.625,112.0631 Q1111.8594,112.3131 1111.8594,112.9225 L1111.8594,114.3756 Q1111.8594,114.985 1111.625,115.2506 Q1111.3906,115.5162 1111.0156,115.5162 Q1110.6719,115.5162 1110.4688,115.3131 Q1110.2656,115.1256 1110.1563,114.61 Q1110.1094,114.2506 1109.9219,114.0631 Q1109.5938,113.6881 1108.9844,113.4694 Q1108.375,113.2506 1107.75,113.2506 Q1106.9844,113.2506 1106.3438,113.5787 Q1105.7188,113.9069 1105.2188,114.6569 Q1104.7344,115.4069 1104.7344,116.4381 L1104.7344,117.5319 Q1104.7344,118.7662 1105.625,119.5944 Q1106.5156,120.4069 1108.1094,120.4069 Q1109.0469,120.4069 1109.7031,120.1569 Q1110.0938,120.0006 1110.5156,119.5631 Q1110.7813,119.2975 1110.9219,119.2194 Q1111.0781,119.1412 1111.2813,119.1412 Q1111.6094,119.1412 1111.8594,119.4069 Q1112.125,119.6569 1112.125,120.0006 Q1112.125,120.3444 1111.7813,120.7506 Q1111.2813,121.3287 1110.4844,121.6569 Q1109.4063,122.11 1108.1094,122.11 Q1106.5938,122.11 1105.3906,121.485 Q1104.4063,120.985 1103.7188,119.9225 Q1103.0313,118.8444 1103.0313,117.5631 L1103.0313,116.4069 Q1103.0313,115.0787 1103.6406,113.9381 Q1104.2656,112.7819 1105.3594,112.1725 Q1106.4531,111.5475 1107.6875,111.5475 Q1108.4219,111.5475 1109.0625,111.7194 Q1109.7188,111.8756 1110.2656,112.235 Z " fill="#000000"/><text fill="#000000" font-family="sans-serif" font-size="14" lengthAdjust="spacing" textLength="87.1719" x="1121.5" y="122.0885">DetallePedido</text><line style="stroke:#181818;stroke-width:0.5;" x1="1093.5" x2="1210.6719" y1="132.36" y2="132.36"/><rect fill="none" height="6" style="stroke:#C82930;stroke-width:1;" width="6" x="1100.5" y="143.6647"/><text fill="#000000" font-family="sans-serif" font-size="14" lengthAdjust="spacing" textLength="70.8271" x="1112.5" y="150.8932">numPedido</text><rect fill="none" height="6" style="stroke:#C82930;stroke-width:1;" width="6" x="1100.5" y="161.2741"/><text fill="#000000" font-family="sans-serif" font-size="14" lengthAdjust="spacing" textLength="74.7031" x="1112.5" y="168.5026">nombreMed</text><rect fill="none" height="6" style="stroke:#C82930;stroke-width:1;" width="6" x="1100.5" y="178.8834"/><text fill="#000000" font-family="sans-serif" font-size="14" lengthAdjust="spacing" textLength="69.2549" x="1112.5" y="186.112">montoFinal</text><rect fill="none" height="6" style="stroke:#C82930;stroke-width:1;" width="6" x="1100.5" y="196.4928"/><text fill="#000000" font-family="sans-serif" font-size="14" lengthAdjust="spacing" textLength="38.1309" x="1112.5" y="203.7213">precio</text><line style="stroke:#181818;stroke-width:0.5;" x1="1093.5" x2="1210.6719" y1="210.7975" y2="210.7975"/></g><!--link TipoVenta to ConReceta--><g class="link" data-entity-1="TipoVenta" data-entity-2="ConReceta" data-source-line="150" data-uid="lnk34" id="link_TipoVenta_ConReceta"><path codeLine="150" d="M2409.72,941.36 C2466.39,941.36 2561.01,941.36 2618.93,941.36" fill="none" id="TipoVenta-ConReceta" style="stroke:#181818;stroke-width:1;"/></g><!--link TipoVenta to SinReceta--><g class="link" data-entity-1="TipoVenta" data-entity-2="SinReceta" data-source-line="151" data-uid="lnk35" id="link_TipoVenta_SinReceta"><path codeLine="151" d="M2409.72,954.15 C2467.23,969.72 2563.82,995.88 2621.48,1011.49" fill="none" id="TipoVenta-SinReceta" style="stroke:#181818;stroke-width:1;"/></g><!--link Pago to Tarjeta--><g class="link" data-entity-1="Pago" data-entity-2="Tarjeta" data-source-line="153" data-uid="lnk36" id="link_Pago_Tarjeta"><path codeLine="153" d="M2409.72,799.05 C2470.84,793.46 2576.1,783.85 2631.85,778.75" fill="none" id="Pago-Tarjeta" style="stroke:#181818;stroke-width:1;"/></g><!--link Pago to Efectivo--><g class="link" data-entity-1="Pago" data-entity-2="Efectivo" data-source-line="154" data-uid="lnk37" id="link_Pago_Efectivo"><path codeLine="154" d="M2409.72,811.83 C2469.67,822.59 2572.07,840.97 2628.58,851.11" fill="none" id="Pago-Efectivo" style="stroke:#181818;stroke-width:1;"/></g><!--link Pago to Transferencia--><g class="link" data-entity-1="Pago" data-entity-2="Transferencia" data-source-line="155" data-uid="lnk38" id="link_Pago_Transferencia"><path codeLine="155" d="M2409.72,786.26 C2463.87,766.65 2552.68,734.49 2610.99,713.37" fill="none" id="Pago-Transferencia" style="stroke:#181818;stroke-width:1;"/></g><!--link estado to Licencia--><g class="link" data-entity-1="estado" data-entity-2="Licencia" data-source-line="157" data-uid="lnk39" id="link_estado_Licencia"><path codeLine="157" d="M1526.75,404.04 C1596.31,397.66 1748.06,383.76 1820.9,377.08" fill="none" id="estado-Licencia" style="stroke:#181818;stroke-width:1;"/></g><!--link estado to Ausente--><g class="link" data-entity-1="estado" data-entity-2="Ausente" data-source-line="158" data-uid="lnk40" id="link_estado_Ausente"><path codeLine="158" d="M1526.75,412.15 C1596.31,421.33 1748.06,441.38 1820.9,451" fill="none" id="estado-Ausente" style="stroke:#181818;stroke-width:1;"/></g><!--link estado to Presente--><g class="link" data-entity-1="estado" data-entity-2="Presente" data-source-line="159" data-uid="lnk41" id="link_estado_Presente"><path codeLine="159" d="M1521.95,383.01 C1545.68,365.88 1579.73,343.86 1613,331.36 C1681.97,305.45 1767.81,295.88 1818.42,292.37" fill="none" id="estado-Presente" style="stroke:#181818;stroke-width:1;"/></g><!--link TipoUsuario to Administrador--><g class="link" data-entity-1="TipoUsuario" data-entity-2="Administrador" data-source-line="161" data-uid="lnk42" id="link_TipoUsuario_Administrador"><path codeLine="161" d="M1543.28,187.11 C1564.68,179.46 1589.78,171.21 1613,165.36 C1677.34,149.14 1752.72,137.75 1803.44,131.15" fill="none" id="TipoUsuario-Administrador" style="stroke:#181818;stroke-width:1;"/></g><!--link TipoUsuario to Farmaceutico--><g class="link" data-entity-1="TipoUsuario" data-entity-2="Farmaceutico" data-source-line="162" data-uid="lnk43" id="link_TipoUsuario_Farmaceutico"><path codeLine="162" d="M1543.26,207.36 C1612.18,207.36 1732.43,207.36 1803.73,207.36" fill="none" id="TipoUsuario-Farmaceutico" style="stroke:#181818;stroke-width:1;"/></g><!--link TipoActor to Persona--><g class="link" data-entity-1="TipoActor" data-entity-2="Persona" data-source-line="164" data-uid="lnk44" id="link_TipoActor_Persona"><path codeLine="164" d="M426.27,445.51 C478.86,475.36 531.42,505.18 566.29,524.97" fill="none" id="TipoActor-Persona" style="stroke:#181818;stroke-width:1;"/></g><!--link TipoActor to Establecimiento--><g class="link" data-entity-1="TipoActor" data-entity-2="Establecimiento" data-source-line="165" data-uid="lnk45" id="link_TipoActor_Establecimiento"><path codeLine="165" d="M449.07,239.23 C490.62,218.28 530.52,198.17 559.89,183.36" fill="none" id="TipoActor-Establecimiento" style="stroke:#181818;stroke-width:1;"/></g><!--link Persona to Empleado--><g class="link" data-entity-1="Persona" data-entity-2="Empleado" data-source-line="168" data-uid="lnk46" id="link_Persona_Empleado"><path codeLine="168" d="M650.8,525.72 C683.52,507.78 723.8587,485.6643 757.2587,467.3543" fill="none" id="Persona-to-Empleado" style="stroke:#181818;stroke-width:1;"/><polygon fill="#181818" points="762.52,464.47,752.7052,465.2889,758.1356,466.8735,756.5509,472.3039,762.52,464.47" style="stroke:#181818;stroke-width:1;"/></g><!--link Persona to Cliente--><g class="link" data-entity-1="Persona" data-entity-2="Cliente" data-source-line="170" data-uid="lnk47" id="link_Persona_Cliente"><path codeLine="170" d="M650.8,553.18 C675.73,556.09 702.1904,559.1847 730.9904,562.5447" fill="none" id="Persona-to-Cliente" style="stroke:#181818;stroke-width:1;"/><polygon fill="#181818" points="736.95,563.24,728.4742,558.224,731.9837,562.6606,727.5471,566.1701,736.95,563.24" style="stroke:#181818;stroke-width:1;"/></g><!--link Empleado to Usuario--><g class="link" data-entity-1="Empleado" data-entity-2="Usuario" data-source-line="172" data-uid="lnk48" id="link_Empleado_Usuario"><path codeLine="172" d="M838.8,416.21 C864.06,397.1 901.66,370.95 938,354.36 C987.39,331.81 1041.3968,317.4441 1085.0668,307.9541" fill="none" id="Empleado-to-Usuario" style="stroke:#181818;stroke-width:1;"/><polygon fill="#181818" points="1090.93,306.68,1081.2858,304.6824,1086.044,307.7418,1082.9847,312.5,1090.93,306.68" style="stroke:#181818;stroke-width:1;"/></g><!--link Persona to Medico--><g class="link" data-entity-1="Persona" data-entity-2="Medico" data-source-line="174" data-uid="lnk49" id="link_Persona_Medico"><path codeLine="174" d="M650.8,576.24 C681.94,597.26 719.7773,622.8125 752.6273,644.9925" fill="none" id="Persona-to-Medico" style="stroke:#181818;stroke-width:1;"/><polygon fill="#181818" points="757.6,648.35,752.3793,639.9987,753.4561,645.5521,747.9027,646.6289,757.6,648.35" style="stroke:#181818;stroke-width:1;"/></g><!--link Establecimiento to DatosLaboratorio--><g class="link" data-entity-1="Establecimiento" data-entity-2="DatosLaboratorio" data-source-line="176" data-uid="lnk50" id="link_Establecimiento_DatosLaboratorio"><path codeLine="176" d="M674.01,159.36 C694.43,159.36 711.07,159.36 731.78,159.36" fill="none" id="Establecimiento-to-DatosLaboratorio" style="stroke:#181818;stroke-width:1;"/><polygon fill="#181818" points="737.78,159.36,728.78,155.36,732.78,159.36,728.78,163.36,737.78,159.36" style="stroke:#181818;stroke-width:1;"/></g><!--link Establecimiento to DatosFarmacia--><g class="link" data-entity-1="Establecimiento" data-entity-2="DatosFarmacia" data-source-line="178" data-uid="lnk51" id="link_Establecimiento_DatosFarmacia"><path codeLine="178" d="M674.15,136.04 C694.13,129.38 716.31,122.54 737,117.36 C986.45,54.91 1289.08,47.082 1419.56,46.822" fill="none" id="Establecimiento-to-DatosFarmacia" style="stroke:#181818;stroke-width:1;"/><polygon fill="#181818" points="1425.56,46.81,1416.552,42.8279,1420.56,46.82,1416.568,50.8279,1425.56,46.81" style="stroke:#181818;stroke-width:1;"/></g><!--link DatosFarmacia to Ticket--><g class="link" data-entity-1="DatosFarmacia" data-entity-2="Ticket" data-source-line="182" data-uid="lnk52" id="link_DatosFarmacia_Ticket"><path codeLine="182" d="M1553.27,38.21 C1668.65,24.1 1920.23,6 2112,82.36 C2196.75,116.11 2269.4774,186.3713 2314.5674,236.9513" fill="none" id="DatosFarmacia-to-Ticket" style="stroke:#181818;stroke-width:1;"/><polygon fill="#181818" points="2318.56,241.43,2315.5569,232.0502,2315.2328,237.6977,2309.5853,237.3736,2318.56,241.43" style="stroke:#181818;stroke-width:1;"/></g><!--link DatosLaboratorio to DetallePedido--><g class="link" data-entity-1="DatosLaboratorio" data-entity-2="DetallePedido" data-source-line="184" data-uid="lnk53" id="link_DatosLaboratorio_DetallePedido"><path codeLine="184" d="M877.4,159.36 C940.49,159.36 1026.87,159.36 1086.47,159.36" fill="none" id="DatosLaboratorio-to-DetallePedido" style="stroke:#181818;stroke-width:1;"/><polygon fill="#181818" points="1092.47,159.36,1083.47,155.36,1087.47,159.36,1083.47,163.36,1092.47,159.36" style="stroke:#181818;stroke-width:1;"/></g><!--link Venta to TipoVenta--><g class="link" data-entity-1="Venta" data-entity-2="TipoVenta" data-source-line="186" data-uid="lnk54" id="link_Venta_TipoVenta"><path codeLine="186" d="M2112,913.86 C2188.93,922.37 2259.8964,930.23 2307.3364,935.48" fill="none" id="Venta-to-TipoVenta" style="stroke:#181818;stroke-width:1;stroke-dasharray:7,7;"/><polygon fill="#181818" points="2313.3,936.14,2304.7946,931.1743,2308.3303,935.59,2303.9146,939.1258,2313.3,936.14" style="stroke:#181818;stroke-width:1;"/></g><!--reverse link Cliente to ObraSocial--><g class="link" data-entity-1="Cliente" data-entity-2="ObraSocial" data-source-line="190" data-uid="lnk55" id="link_Cliente_ObraSocial"><path codeLine="190" d="M888.6357,617.2192 C946.9257,650.5692 1019.35,692.02 1078.42,725.83" fill="none" id="Cliente-backto-ObraSocial" style="stroke:#181818;stroke-width:1;"/><polygon fill="none" points="878.22,611.26,881.4414,617.7115,888.6357,617.2192,885.4143,610.7677,878.22,611.26" style="stroke:#181818;stroke-width:1;"/></g><!--reverse link Descuento to Venta--><g class="link" data-entity-1="Descuento" data-entity-2="Venta" data-source-line="192" data-uid="lnk56" id="link_Descuento_Venta"><path codeLine="192" d="M1550.7676,824.3801 C1571.2976,828.4801 1585.11,831.23 1612.83,836.76" fill="none" id="Descuento-backto-Venta" style="stroke:#181818;stroke-width:1;"/><polygon fill="none" points="1539,822.03,1544.1005,827.1276,1550.7676,824.3801,1545.6672,819.2825,1539,822.03" style="stroke:#181818;stroke-width:1;"/></g><!--reverse link Receta to ObraSocial--><g class="link" data-entity-1="Receta" data-entity-2="ObraSocial" data-source-line="194" data-uid="lnk57" id="link_Receta_ObraSocial"><path codeLine="194" d="M688.7775,723.7961 C708.0575,727.8961 717.41,729.47 737,732.36 C854.21,749.66 991.44,759.17 1074.75,763.76" fill="none" id="Receta-backto-ObraSocial" style="stroke:#181818;stroke-width:1;"/><polygon fill="none" points="677.04,721.3,682.0767,726.4605,688.7775,723.7961,683.7408,718.6355,677.04,721.3" style="stroke:#181818;stroke-width:1;"/></g><!--reverse link Venta to Ticket--><g class="link" data-entity-1="Venta" data-entity-2="Ticket" data-source-line="196" data-uid="lnk58" id="link_Venta_Ticket"><path codeLine="196" d="M2104.0303,766.1643 C2109.9203,760.7443 2106.71,763.23 2112,757.36 C2160.65,703.43 2139.82,670.47 2172,605.36 C2219.5,509.25 2286.43,403.63 2326.44,342.94" fill="none" id="Venta-backto-Ticket" style="stroke:#181818;stroke-width:1;"/><polygon fill="none" points="2095.2,774.29,2102.3237,773.1706,2104.0303,766.1643,2096.9066,767.2837,2095.2,774.29" style="stroke:#181818;stroke-width:1;"/></g><!--reverse link Empleado to Asistencia--><g class="link" data-entity-1="Empleado" data-entity-2="Asistencia" data-source-line="198" data-uid="lnk59" id="link_Empleado_Asistencia"><path codeLine="198" d="M867.05,440.36 C889.73,440.36 906.78,440.36 937.79,440.36" fill="none" id="Empleado-backto-Asistencia" style="stroke:#181818;stroke-width:1;"/><polygon fill="none" points="855.05,440.36,861.05,444.36,867.05,440.36,861.05,436.36,855.05,440.36" style="stroke:#181818;stroke-width:1;"/></g><!--reverse link Receta to Medico--><g class="link" data-entity-1="Receta" data-entity-2="Medico" data-source-line="202" data-uid="lnk60" id="link_Receta_Medico"><path codeLine="202" d="M688.9325,695.6833 C713.5525,692.6933 729.13,690.79 752.42,687.95" fill="none" id="Receta-backto-Medico" style="stroke:#181818;stroke-width:1;"/><polygon fill="#181818" points="677.02,697.13,683.4585,700.3775,688.9325,695.6833,682.494,692.4358,677.02,697.13" style="stroke:#181818;stroke-width:1;"/></g><!--reverse link ObraSocial to Descuento--><g class="link" data-entity-1="ObraSocial" data-entity-2="Descuento" data-source-line="204" data-uid="lnk61" id="link_ObraSocial_Descuento"><path codeLine="204" d="M1241.0235,779.1651 C1305.5935,787.8251 1384.4,798.4 1439.66,805.81" fill="none" id="ObraSocial-backto-Descuento" style="stroke:#181818;stroke-width:1;"/><polygon fill="#181818" points="1229.13,777.57,1234.545,782.3321,1241.0235,779.1651,1235.6085,774.4031,1229.13,777.57" style="stroke:#181818;stroke-width:1;"/></g><!--reverse link Venta to DetalleVenta--><g class="link" data-entity-1="Venta" data-entity-2="DetalleVenta" data-source-line="206" data-uid="lnk62" id="link_Venta_DetalleVenta"><path codeLine="206" d="M2099.3766,769.1546 C2127.3666,755.7746 2144.85,747.68 2172,735.36 C2216.43,715.2 2267.51,693.9 2305.28,678.51" fill="none" id="Venta-backto-DetalleVenta" style="stroke:#181818;stroke-width:1;"/><polygon fill="#181818" points="2088.55,774.33,2095.6884,775.3512,2099.3766,769.1546,2092.2382,768.1334,2088.55,774.33" style="stroke:#181818;stroke-width:1;"/></g><!--reverse link Cliente to Venta--><g class="link" data-entity-1="Cliente" data-entity-2="Venta" data-source-line="208" data-uid="lnk63" id="link_Cliente_Venta"><path codeLine="208" d="M889.8618,587.7181 C1022.9118,615.2081 1309.97,678.67 1553,762.36 C1572.51,769.08 1592.59,776.34 1612.7,783.86" fill="none" id="Cliente-backto-Venta" style="stroke:#181818;stroke-width:1;"/><polygon fill="#181818" points="878.11,585.29,883.1765,590.4213,889.8618,587.7181,884.7953,582.5868,878.11,585.29" style="stroke:#181818;stroke-width:1;"/></g><!--reverse link Medicamento to DetalleVenta--><g class="link" data-entity-1="Medicamento" data-entity-2="DetalleVenta" data-source-line="210" data-uid="lnk64" id="link_Medicamento_DetalleVenta"><path codeLine="210" d="M2025.2697,636.7985 C2123.8797,642.5485 2235.26,649.05 2305.25,653.14" fill="none" id="Medicamento-backto-DetalleVenta" style="stroke:#181818;stroke-width:1;"/><polygon fill="#181818" points="2013.29,636.1,2019.047,640.4425,2025.2697,636.7985,2019.5127,632.4561,2013.29,636.1" style="stroke:#181818;stroke-width:1;"/></g><!--reverse link Venta to Pago--><g class="link" data-entity-1="Venta" data-entity-2="Pago" data-source-line="212" data-uid="lnk65" id="link_Venta_Pago"><path codeLine="212" d="M2123.836,842.883 C2200.766,830.033 2265.86,819.17 2313.3,811.24" fill="none" id="Venta-backto-Pago" style="stroke:#181818;stroke-width:1;"/><polygon fill="#181818" points="2112,844.86,2118.577,847.8168,2123.836,842.883,2117.259,839.9261,2112,844.86" style="stroke:#181818;stroke-width:1;"/></g><!--reverse link Asistencia to estado--><g class="link" data-entity-1="Asistencia" data-entity-2="estado" data-source-line="214" data-uid="lnk66" id="link_Asistencia_estado"><path codeLine="214" d="M1378.3721,418.1931 C1411.4521,414.9331 1430.03,413.11 1452.28,410.92" fill="none" id="Asistencia-backto-estado" style="stroke:#181818;stroke-width:1;"/><polygon fill="#181818" points="1366.43,419.37,1372.7934,422.7623,1378.3721,418.1931,1372.0088,414.8008,1366.43,419.37" style="stroke:#181818;stroke-width:1;"/></g><!--reverse link Usuario to TipoUsuario--><g class="link" data-entity-1="Usuario" data-entity-2="TipoUsuario" data-source-line="216" data-uid="lnk67" id="link_Usuario_TipoUsuario"><path codeLine="216" d="M1224.9772,276.4849 C1288.3672,259.8549 1375.44,237.02 1435.79,221.19" fill="none" id="Usuario-backto-TipoUsuario" style="stroke:#181818;stroke-width:1;"/><polygon fill="#181818" points="1213.37,279.53,1220.1886,281.8765,1224.9772,276.4849,1218.1586,274.1384,1213.37,279.53" style="stroke:#181818;stroke-width:1;"/></g><!--SRC=[fLRDRjiu4BxpANHR9okt3r2WW6khgO74DcAdTvgY7RQKQ91K3nliGnMzxJKljZFybrpqqFQGoX-7tmo7tynGyfEjhAgqE3_RgXMQCojKJmYJr9Zg82vgmQpIrGkfuD-ywbLtr3pyu1qLCdmldzQ7j_3dFXg-_jSTU5nrp4oy_kW3mAZbPwK59GxukrfIVQRQEPjv9xNdhoDLNR3KcU0c43oeLfm4YnmfdhhwBRf6YaxqLsmtvD-Od1tNHlKqfMQrMSEYNskCfKV96N3mtggNl6j5hJ8VgUue4_I5J1RkwL5f-D12UTh27Jshw8eDob8JVdGAF1m0YCbUSSC6T9l2EL3zXLlwakCxuKL_KnavQDgR4zUyTt4bjqrtaPosgfh6ysG62c5Eb17G62U4fgdXhzzfTWIQ2bRP-wA5P0i3ngtI6VPvueCLhCpXKc9MUNOzT8kJa08s1sHFPQkMbYwLriusKMwFckuLd56cxHiNULu8y4MhTe3RDu-SGV9QPHB9Pw3C5m-vVAQVBHtzH8iWfSLPSz3sBl3DLi0c9NScKMwF_EoEhnqwSs88nwmh2oa3Vl-1EgYBIw-36YBJXy6mIDDht7TL8ULYNVs1hrWaF_FMI3YInjlsgu7u9jMxP8Ea-Y6HfxoueAA6e_tsQ7dFjRyBTEM_wlBoRqOYSswJQeDoLE_tkShps5wKMAp6uexIHL-WNuXSLG-yXMns66KoOQhzGBMEMcZX65fSoixdIM3lKoziKIl6AlOr9aVrPf2mkaTm5abZBY2gbkl2VRB0HjPRqT8ssaB_6gWK_w3-q75XsW_yc_BejVNOS-P5t_1_tB0I1XGmY60lUfiZU1T91moI_jmaTG03-dVDPrnNuViPscA3pQGj4IXpqT9f2MMgMUnUTKbG5tjXAXZhf3EIsITWm6aW2owuonOAv9d2XY9mlx_AJUjUiD14y-46WzLL893s32NHig_SvgwcbKVAT7nIEfxt3WEbsjlCHdDbMjHfQp6-d7ooS3jgjS2A1BmiWr26kGQKPdYRNx2bHZDVFsNa7YaZnnDFQw5q2i5SbTyEu5QLVTuZev630HUJy2Cq93ajM49IHwZcyzm6nd3g18HWvqCeJCxqEmxER53EJKA26c0Xog20WWmA9Ch0nnT7AfgM0t6wM8v5lzC_qf3GFqh6uEGrGiXVrVvfrpmkxnVxPa_YGsO-Vv_6FHcXGKY4fDS0ed7MZqp3JPA9JxSsVUBymYeg6MDTDRjciseso_LYJyXesMq8LKAcz9wjL18X_gxVl7cVHmIwMDmzDdUBvNgxWNoG-BvGaBlYMK1oDU1As1oqFxNrZX2DuQNS8PZx2hfVRXzss_qw-W-Kjs0NqrayMn3EJxpWo8DvPkL3tEPGou5rlI4JeRO9AJeoWbwqX4GTthgZ9LsI_m40]--></g></svg>