<svg xmlns="http://www.w3.org/2000/svg" xmlns:xlink="http://www.w3.org/1999/xlink" contentStyleType="text/css" data-diagram-type="SEQUENCE" height="574px" preserveAspectRatio="none" style="width:984px;height:574px;background:#FFFFFF;" version="1.1" viewBox="0 0 984 574" width="984px" zoomAndPan="magnify"><title>Carga Clientes Frecuentes</title><defs/><g><text fill="#000000" font-family="sans-serif" font-size="14" font-weight="bold" lengthAdjust="spacing" textLength="207.9082" x="389.5063" y="27.9951">Carga Clientes Frecuentes</text><g><title>Interfaz. NegocioControlador</title><rect fill="#FFFFFF" height="407.5313" style="stroke:#181818;stroke-width:1;" width="10" x="482.2539" y="149.7266"/></g><g><title>List.Cliente.. ListaClientes</title><rect fill="#FFFFFF" height="157.6641" style="stroke:#181818;stroke-width:1;" width="10" x="705.2583" y="178.8594"/></g><g><title>Cliente. objCliente</title><rect fill="#FFFFFF" height="29.1328" style="stroke:#181818;stroke-width:1;" width="10" x="891.5229" y="232.125"/></g><g><title>Cliente. objCliente</title><rect fill="#FFFFFF" height="29.1328" style="stroke:#181818;stroke-width:1;" width="10" x="891.5229" y="381.7891"/></g><g><title>Cliente. objCliente</title><rect fill="#FFFFFF" height="29.1328" style="stroke:#181818;stroke-width:1;" width="10" x="891.5229" y="440.0547"/></g><rect fill="none" height="135.6641" style="stroke:#000000;stroke-width:1.5;" width="618.8047" x="359.1162" y="193.8594"/><rect fill="none" height="46.2656" style="stroke:#000000;stroke-width:1.5;" width="456.0088" x="369.1162" y="276.2578"/><rect fill="none" height="206.7344" style="stroke:#000000;stroke-width:1.5;" width="967.9209" x="10" y="343.5234"/><g><title>Admin.Administrador</title><rect fill="#000000" fill-opacity="0.00000" height="448.6641" width="8" x="93.3306" y="118.5938"/><line style="stroke:#181818;stroke-width:0.5;stroke-dasharray:5,5;" x1="97" x2="97" y1="118.5938" y2="567.2578"/></g><g><title>Interfaz. NegocioControlador</title><rect fill="#000000" fill-opacity="0.00000" height="448.6641" width="8" x="483.2539" y="118.5938"/><line style="stroke:#181818;stroke-width:0.5;stroke-dasharray:5,5;" x1="487.1162" x2="487.1162" y1="118.5938" y2="567.2578"/></g><g><title>List.Cliente.. ListaClientes</title><rect fill="#000000" fill-opacity="0.00000" height="448.6641" width="8" x="706.2583" y="118.5938"/><line style="stroke:#181818;stroke-width:0.5;stroke-dasharray:5,5;" x1="709.3916" x2="709.3916" y1="118.5938" y2="567.2578"/></g><g><title>Cliente. objCliente</title><rect fill="#000000" fill-opacity="0.00000" height="448.6641" width="8" x="892.5229" y="118.5938"/><line style="stroke:#181818;stroke-width:0.5;stroke-dasharray:5,5;" x1="896.125" x2="896.125" y1="118.5938" y2="567.2578"/></g><g class="participant participant-head" data-participant="admin"><text fill="#000000" font-family="sans-serif" font-size="14" lengthAdjust="spacing" textLength="148.6611" x="20" y="115.292">Admin:Administrador</text><ellipse cx="97.3306" cy="50.7969" fill="#E2E2F0" rx="8" ry="8" style="stroke:#181818;stroke-width:0.5;"/><path d="M97.3306,58.7969 L97.3306,85.7969 M84.3306,66.7969 L110.3306,66.7969 M97.3306,85.7969 L84.3306,100.7969 M97.3306,85.7969 L110.3306,100.7969" fill="none" style="stroke:#181818;stroke-width:0.5;"/></g><g class="participant participant-head" data-participant="NegCtrl"><rect fill="#E2E2F0" height="30.2969" rx="2.5" ry="2.5" style="stroke:#181818;stroke-width:0.5;" width="216.2754" x="379.1162" y="87.2969"/><text fill="#000000" font-family="sans-serif" font-size="14" lengthAdjust="spacing" textLength="202.2754" x="386.1162" y="107.292">Interfaz: NegocioControlador</text></g><g class="participant participant-head" data-participant="lista"><rect fill="#E2E2F0" height="30.2969" rx="2.5" ry="2.5" style="stroke:#181818;stroke-width:0.5;" width="209.7334" x="605.3916" y="87.2969"/><text fill="#000000" font-family="sans-serif" font-size="14" lengthAdjust="spacing" textLength="195.7334" x="612.3916" y="107.292">List&lt;Cliente&gt;: ListaClientes</text></g><g class="participant participant-head" data-participant="cliente"><rect fill="#E2E2F0" height="30.2969" rx="2.5" ry="2.5" style="stroke:#181818;stroke-width:0.5;" width="142.7959" x="825.125" y="87.2969"/><text fill="#000000" font-family="sans-serif" font-size="14" lengthAdjust="spacing" textLength="128.7959" x="832.125" y="107.292">Cliente: objCliente</text></g><g><title>Interfaz. NegocioControlador</title><rect fill="#FFFFFF" height="407.5313" style="stroke:#181818;stroke-width:1;" width="10" x="482.2539" y="149.7266"/></g><g><title>List.Cliente.. ListaClientes</title><rect fill="#FFFFFF" height="157.6641" style="stroke:#181818;stroke-width:1;" width="10" x="705.2583" y="178.8594"/></g><g><title>Cliente. objCliente</title><rect fill="#FFFFFF" height="29.1328" style="stroke:#181818;stroke-width:1;" width="10" x="891.5229" y="232.125"/></g><g><title>Cliente. objCliente</title><rect fill="#FFFFFF" height="29.1328" style="stroke:#181818;stroke-width:1;" width="10" x="891.5229" y="381.7891"/></g><g><title>Cliente. objCliente</title><rect fill="#FFFFFF" height="29.1328" style="stroke:#181818;stroke-width:1;" width="10" x="891.5229" y="440.0547"/></g><g class="message" data-participant-1="admin" data-participant-2="NegCtrl"><polygon fill="#181818" points="470.2539,145.7266,480.2539,149.7266,470.2539,153.7266,474.2539,149.7266" style="stroke:#181818;stroke-width:1;"/><line style="stroke:#181818;stroke-width:1;" x1="97.3306" x2="476.2539" y1="149.7266" y2="149.7266"/><text fill="#000000" font-family="sans-serif" font-size="13" lengthAdjust="spacing" textLength="365.9233" x="104.3306" y="144.6606">registrarClienteFrecuente(dni: String, saldoInicial: Float)</text></g><g class="message" data-participant-1="NegCtrl" data-participant-2="lista"><polygon fill="#181818" points="693.2583,174.8594,703.2583,178.8594,693.2583,182.8594,697.2583,178.8594" style="stroke:#181818;stroke-width:1;"/><line style="stroke:#181818;stroke-width:1;" x1="492.2539" x2="699.2583" y1="178.8594" y2="178.8594"/><text fill="#000000" font-family="sans-serif" font-size="13" lengthAdjust="spacing" textLength="166.9116" x="499.2539" y="173.7935">buscarCliente(dni: String)</text></g><path d="M359.1162,193.8594 L435.7402,193.8594 L435.7402,200.9922 L425.7402,210.9922 L359.1162,210.9922 L359.1162,193.8594" fill="#EEEEEE" style="stroke:#000000;stroke-width:1.5;"/><rect fill="none" height="135.6641" style="stroke:#000000;stroke-width:1.5;" width="618.8047" x="359.1162" y="193.8594"/><text fill="#000000" font-family="sans-serif" font-size="13" font-weight="bold" lengthAdjust="spacing" textLength="31.624" x="374.1162" y="206.9263">loop</text><a href="para" target="_top" title="para" xlink:actuate="onRequest" xlink:href="para" xlink:show="new" xlink:title="para" xlink:type="simple"><text fill="#0000FF" font-family="sans-serif" font-size="11" font-weight="bold" lengthAdjust="spacing" text-decoration="underline" textLength="142.7207" x="450.7402" y="206.0698">cada c en ListaClientes</text></a><g class="message" data-participant-1="lista" data-participant-2="cliente"><polygon fill="#181818" points="879.5229,228.125,889.5229,232.125,879.5229,236.125,883.5229,232.125" style="stroke:#181818;stroke-width:1;"/><line style="stroke:#181818;stroke-width:1;" x1="715.2583" x2="885.5229" y1="232.125" y2="232.125"/><text fill="#000000" font-family="sans-serif" font-size="13" lengthAdjust="spacing" textLength="55.0596" x="722.2583" y="227.0591">getDNI()</text></g><g class="message" data-participant-1="cliente" data-participant-2="lista"><polygon fill="#181818" points="726.2583,257.2578,716.2583,261.2578,726.2583,265.2578,722.2583,261.2578" style="stroke:#181818;stroke-width:1;"/><line style="stroke:#181818;stroke-width:1;stroke-dasharray:2,2;" x1="720.2583" x2="895.5229" y1="261.2578" y2="261.2578"/><text fill="#000000" font-family="sans-serif" font-size="13" lengthAdjust="spacing" textLength="128.4067" x="732.2583" y="256.1919">&#171;dniActual : String&#187;</text></g><path d="M369.1162,276.2578 L433.5591,276.2578 L433.5591,283.3906 L423.5591,293.3906 L369.1162,293.3906 L369.1162,276.2578" fill="#EEEEEE" style="stroke:#000000;stroke-width:1.5;"/><rect fill="none" height="46.2656" style="stroke:#000000;stroke-width:1.5;" width="456.0088" x="369.1162" y="276.2578"/><text fill="#000000" font-family="sans-serif" font-size="13" font-weight="bold" lengthAdjust="spacing" textLength="19.4429" x="384.1162" y="289.3247">alt</text><text fill="#000000" font-family="sans-serif" font-size="11" font-weight="bold" lengthAdjust="spacing" textLength="114.415" x="448.5591" y="288.4683">[dni == dniActual]</text><g class="message" data-participant-1="lista" data-participant-2="NegCtrl"><polygon fill="#181818" points="503.2539,310.5234,493.2539,314.5234,503.2539,318.5234,499.2539,314.5234" style="stroke:#181818;stroke-width:1;"/><line style="stroke:#181818;stroke-width:1;stroke-dasharray:2,2;" x1="497.2539" x2="704.2583" y1="314.5234" y2="314.5234"/><text fill="#000000" font-family="sans-serif" font-size="13" lengthAdjust="spacing" textLength="139.6357" x="509.2539" y="309.4575">&#171;objCliente : Cliente&#187;</text></g><path d="M10,343.5234 L74.4429,343.5234 L74.4429,350.6563 L64.4429,360.6563 L10,360.6563 L10,343.5234" fill="#EEEEEE" style="stroke:#000000;stroke-width:1.5;"/><rect fill="none" height="206.7344" style="stroke:#000000;stroke-width:1.5;" width="967.9209" x="10" y="343.5234"/><text fill="#000000" font-family="sans-serif" font-size="13" font-weight="bold" lengthAdjust="spacing" textLength="19.4429" x="25" y="356.5903">alt</text><text fill="#000000" font-family="sans-serif" font-size="11" font-weight="bold" lengthAdjust="spacing" textLength="147.4473" x="89.4429" y="355.7339">[objCliente encontrado]</text><g class="message" data-participant-1="NegCtrl" data-participant-2="cliente"><polygon fill="#181818" points="879.5229,377.7891,889.5229,381.7891,879.5229,385.7891,883.5229,381.7891" style="stroke:#181818;stroke-width:1;"/><line style="stroke:#181818;stroke-width:1;" x1="492.2539" x2="885.5229" y1="381.7891" y2="381.7891"/><text fill="#000000" font-family="sans-serif" font-size="13" lengthAdjust="spacing" textLength="137.2173" x="499.2539" y="376.7231">setEsFrecuente(true)</text></g><g class="message" data-participant-1="cliente" data-participant-2="NegCtrl"><polygon fill="#181818" points="503.2539,406.9219,493.2539,410.9219,503.2539,414.9219,499.2539,410.9219" style="stroke:#181818;stroke-width:1;"/><line style="stroke:#181818;stroke-width:1;stroke-dasharray:2,2;" x1="497.2539" x2="895.5229" y1="410.9219" y2="410.9219"/><text fill="#000000" font-family="sans-serif" font-size="13" lengthAdjust="spacing" textLength="49.6323" x="509.2539" y="405.856">&#171;NULL&#187;</text></g><g class="message" data-participant-1="NegCtrl" data-participant-2="cliente"><polygon fill="#181818" points="879.5229,436.0547,889.5229,440.0547,879.5229,444.0547,883.5229,440.0547" style="stroke:#181818;stroke-width:1;"/><line style="stroke:#181818;stroke-width:1;" x1="492.2539" x2="885.5229" y1="440.0547" y2="440.0547"/><text fill="#000000" font-family="sans-serif" font-size="13" lengthAdjust="spacing" textLength="256.6357" x="499.2539" y="434.9888">setMontoAcumulado(saldoInicial: Float)</text></g><g class="message" data-participant-1="cliente" data-participant-2="NegCtrl"><polygon fill="#181818" points="503.2539,465.1875,493.2539,469.1875,503.2539,473.1875,499.2539,469.1875" style="stroke:#181818;stroke-width:1;"/><line style="stroke:#181818;stroke-width:1;stroke-dasharray:2,2;" x1="497.2539" x2="895.5229" y1="469.1875" y2="469.1875"/><text fill="#000000" font-family="sans-serif" font-size="13" lengthAdjust="spacing" textLength="49.6323" x="509.2539" y="464.1216">&#171;NULL&#187;</text></g><g class="message" data-participant-1="NegCtrl" data-participant-2="admin"><polygon fill="#181818" points="108.3306,494.3203,98.3306,498.3203,108.3306,502.3203,104.3306,498.3203" style="stroke:#181818;stroke-width:1;"/><line style="stroke:#181818;stroke-width:1;stroke-dasharray:2,2;" x1="102.3306" x2="481.2539" y1="498.3203" y2="498.3203"/><text fill="#000000" font-family="sans-serif" font-size="13" lengthAdjust="spacing" textLength="49.6323" x="114.3306" y="493.2544">&#171;NULL&#187;</text></g><line style="stroke:#000000;stroke-width:1;stroke-dasharray:2,2;" x1="10" x2="977.9209" y1="507.3203" y2="507.3203"/><text fill="#000000" font-family="sans-serif" font-size="11" font-weight="bold" lengthAdjust="spacing" textLength="166.665" x="15" y="517.5308">[objCliente no encontrado]</text><g class="message" data-participant-1="NegCtrl" data-participant-2="admin"><polygon fill="#181818" points="108.3306,538.2578,98.3306,542.2578,108.3306,546.2578,104.3306,542.2578" style="stroke:#181818;stroke-width:1;"/><line style="stroke:#181818;stroke-width:1;stroke-dasharray:2,2;" x1="102.3306" x2="481.2539" y1="542.2578" y2="542.2578"/><text fill="#000000" font-family="sans-serif" font-size="13" lengthAdjust="spacing" textLength="49.6323" x="114.3306" y="537.1919">&#171;NULL&#187;</text></g><!--SRC=[hLDBRjim4Dtp50DlQWF91GJ7WA4uW07N1HnqLNH1KnEL1KCQrAWeUeqSgHVha18fglbrKIzeYfnvxysR8Mao2BNqhOJQQBI47TnvL7tS2l5DDmWFpj7P_HH2Ad8U5jlcKTighheZBnld5o0xaE54NAGdhVH5MeB5dc7yW_nLmH5RfxIhdINlJCxXuvgycMST67OzwjbK43vbaXUpJ3YPvupt5RZpzt4VGzMm5wm-o8FhJUA42ZosiG8_PkJIbutL5ToJrxQzWawQnkqjSqbJmPrnabR13Fr34kOI1F0lOJDD5CaavxvJcQ44NiMCZ3CK5OxYOfoxm1UkKOAI3I-0Tcx5rnWNOoCLSuxLCckBT7lSBrSv9lCaHz95ohakDA_Nm4AtYdePV1hqmcQJanfy5MzYD1HGuEPc0ikNXUnPIvXvwY1_frt1ZROHvN-XPV1G9FO22QqAeyU39sOYYuPDvdL8ksuQ1l8z_eEH7w3-T3hjwdh_- -bOmGdvjLW7ny-7mujcbqM7eBVjVLVnHwxFRLN_s8VdjNnnQ5-juNy8VAwGCOPNLo0ChJCTbjrXc_vgqBiuQG948MLC-0C0]--></g></svg>