<svg xmlns="http://www.w3.org/2000/svg" xmlns:xlink="http://www.w3.org/1999/xlink" contentStyleType="text/css" data-diagram-type="SEQUENCE" height="759px" preserveAspectRatio="none" style="width:1076px;height:759px;background:#FFFFFF;" version="1.1" viewBox="0 0 1076 759" width="1076px" zoomAndPan="magnify"><title>Inicio de Sesi&#243;n</title><defs/><g><text fill="#000000" font-family="sans-serif" font-size="14" font-weight="bold" lengthAdjust="spacing" textLength="124.25" x="477.291" y="27.9951">Inicio de Sesi&#243;n</text><g><title>Interfaz. NegCtrl</title><rect fill="#FFFFFF" height="592.8047" style="stroke:#181818;stroke-width:1;" width="10" x="474.8828" y="149.7266"/></g><g><title>List.Usuario.. objListaUsuarios</title><rect fill="#FFFFFF" height="157.6641" style="stroke:#181818;stroke-width:1;" width="10" x="754.3169" y="246.9297"/></g><g><title>Usuario. objUsuario</title><rect fill="#FFFFFF" height="29.1328" style="stroke:#181818;stroke-width:1;" width="10" x="959.3735" y="300.1953"/></g><g><title>Usuario. objUsuario</title><rect fill="#FFFFFF" height="29.1328" style="stroke:#181818;stroke-width:1;" width="10" x="959.3735" y="493.7969"/></g><g><title>Usuario. objUsuario</title><rect fill="#FFFFFF" height="29.1328" style="stroke:#181818;stroke-width:1;" width="10" x="959.3735" y="576.1953"/></g><rect fill="none" height="570.8047" style="stroke:#000000;stroke-width:1.5;" width="1059.832" x="10" y="164.7266"/><rect fill="none" height="135.6641" style="stroke:#000000;stroke-width:1.5;" width="654.8325" x="394.9995" y="261.9297"/><rect fill="none" height="46.2656" style="stroke:#000000;stroke-width:1.5;" width="483.9155" x="404.9995" y="344.3281"/><rect fill="none" height="316.9375" style="stroke:#000000;stroke-width:1.5;" width="1039.832" x="20" y="411.5938"/><rect fill="none" height="183.6016" style="stroke:#000000;stroke-width:1.5;" width="1019.832" x="30" y="537.9297"/><g><title>Usuario.User</title><rect fill="#000000" fill-opacity="0.00000" height="633.9375" width="8" x="83.9155" y="118.5938"/><line style="stroke:#181818;stroke-width:0.5;stroke-dasharray:5,5;" x1="87" x2="87" y1="118.5938" y2="752.5313"/></g><g><title>Interfaz. NegCtrl</title><rect fill="#000000" fill-opacity="0.00000" height="633.9375" width="8" x="475.8828" y="118.5938"/><line style="stroke:#181818;stroke-width:0.5;stroke-dasharray:5,5;" x1="478.9995" x2="478.9995" y1="118.5938" y2="752.5313"/></g><g><title>List.Usuario.. objListaUsuarios</title><rect fill="#000000" fill-opacity="0.00000" height="633.9375" width="8" x="755.3169" y="118.5938"/><line style="stroke:#181818;stroke-width:0.5;stroke-dasharray:5,5;" x1="758.7188" x2="758.7188" y1="118.5938" y2="752.5313"/></g><g><title>Usuario. objUsuario</title><rect fill="#000000" fill-opacity="0.00000" height="633.9375" width="8" x="960.3735" y="118.5938"/><line style="stroke:#181818;stroke-width:0.5;stroke-dasharray:5,5;" x1="963.915" x2="963.915" y1="118.5938" y2="752.5313"/></g><g class="participant participant-head" data-participant="user"><text fill="#000000" font-family="sans-serif" font-size="14" lengthAdjust="spacing" textLength="89.8311" x="40" y="115.292">Usuario:User</text><ellipse cx="87.9155" cy="50.7969" fill="#E2E2F0" rx="8" ry="8" style="stroke:#181818;stroke-width:0.5;"/><path d="M87.9155,58.7969 L87.9155,85.7969 M74.9155,66.7969 L100.9155,66.7969 M87.9155,85.7969 L74.9155,100.7969 M87.9155,85.7969 L100.9155,100.7969" fill="none" style="stroke:#181818;stroke-width:0.5;"/></g><g class="participant participant-head" data-participant="NegCtrl"><rect fill="#E2E2F0" height="30.2969" rx="2.5" ry="2.5" style="stroke:#181818;stroke-width:0.5;" width="129.7666" x="414.9995" y="87.2969"/><text fill="#000000" font-family="sans-serif" font-size="14" lengthAdjust="spacing" textLength="115.7666" x="421.9995" y="107.292">Interfaz: NegCtrl</text></g><g class="participant participant-head" data-participant="lista"><rect fill="#E2E2F0" height="30.2969" rx="2.5" ry="2.5" style="stroke:#181818;stroke-width:0.5;" width="239.1963" x="639.7188" y="87.2969"/><text fill="#000000" font-family="sans-serif" font-size="14" lengthAdjust="spacing" textLength="225.1963" x="646.7188" y="107.292">List&lt;Usuario&gt;: objListaUsuarios</text></g><g class="participant participant-head" data-participant="objUser"><rect fill="#E2E2F0" height="30.2969" rx="2.5" ry="2.5" style="stroke:#181818;stroke-width:0.5;" width="150.917" x="888.915" y="87.2969"/><text fill="#000000" font-family="sans-serif" font-size="14" lengthAdjust="spacing" textLength="136.917" x="895.915" y="107.292">Usuario: objUsuario</text></g><g><title>Interfaz. NegCtrl</title><rect fill="#FFFFFF" height="592.8047" style="stroke:#181818;stroke-width:1;" width="10" x="474.8828" y="149.7266"/></g><g><title>List.Usuario.. objListaUsuarios</title><rect fill="#FFFFFF" height="157.6641" style="stroke:#181818;stroke-width:1;" width="10" x="754.3169" y="246.9297"/></g><g><title>Usuario. objUsuario</title><rect fill="#FFFFFF" height="29.1328" style="stroke:#181818;stroke-width:1;" width="10" x="959.3735" y="300.1953"/></g><g><title>Usuario. objUsuario</title><rect fill="#FFFFFF" height="29.1328" style="stroke:#181818;stroke-width:1;" width="10" x="959.3735" y="493.7969"/></g><g><title>Usuario. objUsuario</title><rect fill="#FFFFFF" height="29.1328" style="stroke:#181818;stroke-width:1;" width="10" x="959.3735" y="576.1953"/></g><g class="message" data-participant-1="user" data-participant-2="NegCtrl"><polygon fill="#181818" points="462.8828,145.7266,472.8828,149.7266,462.8828,153.7266,466.8828,149.7266" style="stroke:#181818;stroke-width:1;"/><line style="stroke:#181818;stroke-width:1;" x1="87.9155" x2="468.8828" y1="149.7266" y2="149.7266"/><text fill="#000000" font-family="sans-serif" font-size="13" lengthAdjust="spacing" textLength="367.9673" x="94.9155" y="144.6606">iniciarSesion(nombreUsuario: String, contrase&#241;a: String)</text></g><path d="M10,164.7266 L74.4429,164.7266 L74.4429,171.8594 L64.4429,181.8594 L10,181.8594 L10,164.7266" fill="#EEEEEE" style="stroke:#000000;stroke-width:1.5;"/><rect fill="none" height="570.8047" style="stroke:#000000;stroke-width:1.5;" width="1059.832" x="10" y="164.7266"/><text fill="#000000" font-family="sans-serif" font-size="13" font-weight="bold" lengthAdjust="spacing" textLength="19.4429" x="25" y="177.7935">alt</text><text fill="#000000" font-family="sans-serif" font-size="11" font-weight="bold" lengthAdjust="spacing" textLength="299.519" x="89.4429" y="176.937">[nombreUsuario es vac&#237;o O contrase&#241;a es vac&#237;a]</text><g class="message" data-participant-1="NegCtrl" data-participant-2="user"><polygon fill="#181818" points="98.9155,198.9922,88.9155,202.9922,98.9155,206.9922,94.9155,202.9922" style="stroke:#181818;stroke-width:1;"/><line style="stroke:#181818;stroke-width:1;stroke-dasharray:2,2;" x1="92.9155" x2="473.8828" y1="202.9922" y2="202.9922"/><text fill="#000000" font-family="sans-serif" font-size="13" lengthAdjust="spacing" textLength="49.6323" x="104.9155" y="197.9263">&#171;NULL&#187;</text></g><line style="stroke:#000000;stroke-width:1;stroke-dasharray:2,2;" x1="10" x2="1069.832" y1="211.9922" y2="211.9922"/><text fill="#000000" font-family="sans-serif" font-size="11" font-weight="bold" lengthAdjust="spacing" textLength="112.5513" x="15" y="222.2026">[datos completos]</text><g class="message" data-participant-1="NegCtrl" data-participant-2="lista"><polygon fill="#181818" points="742.3169,242.9297,752.3169,246.9297,742.3169,250.9297,746.3169,246.9297" style="stroke:#181818;stroke-width:1;"/><line style="stroke:#181818;stroke-width:1;" x1="484.8828" x2="748.3169" y1="246.9297" y2="246.9297"/><text fill="#000000" font-family="sans-serif" font-size="13" lengthAdjust="spacing" textLength="250.4341" x="491.8828" y="241.8638">buscarUsuario(nombreUsuario: String)</text></g><path d="M394.9995,261.9297 L471.6235,261.9297 L471.6235,269.0625 L461.6235,279.0625 L394.9995,279.0625 L394.9995,261.9297" fill="#EEEEEE" style="stroke:#000000;stroke-width:1.5;"/><rect fill="none" height="135.6641" style="stroke:#000000;stroke-width:1.5;" width="654.8325" x="394.9995" y="261.9297"/><text fill="#000000" font-family="sans-serif" font-size="13" font-weight="bold" lengthAdjust="spacing" textLength="31.624" x="409.9995" y="274.9966">loop</text><a href="para" target="_top" title="para" xlink:actuate="onRequest" xlink:href="para" xlink:show="new" xlink:title="para" xlink:type="simple"><text fill="#0000FF" font-family="sans-serif" font-size="11" font-weight="bold" lengthAdjust="spacing" text-decoration="underline" textLength="167.0947" x="486.6235" y="274.1401">cada u en objListaUsuarios</text></a><g class="message" data-participant-1="lista" data-participant-2="objUser"><polygon fill="#181818" points="947.3735,296.1953,957.3735,300.1953,947.3735,304.1953,951.3735,300.1953" style="stroke:#181818;stroke-width:1;"/><line style="stroke:#181818;stroke-width:1;" x1="764.3169" x2="953.3735" y1="300.1953" y2="300.1953"/><text fill="#000000" font-family="sans-serif" font-size="13" lengthAdjust="spacing" textLength="132.8311" x="771.3169" y="295.1294">getNombreUsuario()</text></g><g class="message" data-participant-1="objUser" data-participant-2="lista"><polygon fill="#181818" points="775.3169,325.3281,765.3169,329.3281,775.3169,333.3281,771.3169,329.3281" style="stroke:#181818;stroke-width:1;"/><line style="stroke:#181818;stroke-width:1;stroke-dasharray:2,2;" x1="769.3169" x2="963.3735" y1="329.3281" y2="329.3281"/><text fill="#000000" font-family="sans-serif" font-size="13" lengthAdjust="spacing" textLength="158.7549" x="781.3169" y="324.2622">&#171;nombreActual : String&#187;</text></g><path d="M404.9995,344.3281 L469.4424,344.3281 L469.4424,351.4609 L459.4424,361.4609 L404.9995,361.4609 L404.9995,344.3281" fill="#EEEEEE" style="stroke:#000000;stroke-width:1.5;"/><rect fill="none" height="46.2656" style="stroke:#000000;stroke-width:1.5;" width="483.9155" x="404.9995" y="344.3281"/><text fill="#000000" font-family="sans-serif" font-size="13" font-weight="bold" lengthAdjust="spacing" textLength="19.4429" x="419.9995" y="357.395">alt</text><text fill="#000000" font-family="sans-serif" font-size="11" font-weight="bold" lengthAdjust="spacing" textLength="218.1685" x="484.4424" y="356.5386">[nombreUsuario == nombreActual]</text><g class="message" data-participant-1="lista" data-participant-2="NegCtrl"><polygon fill="#181818" points="495.8828,378.5938,485.8828,382.5938,495.8828,386.5938,491.8828,382.5938" style="stroke:#181818;stroke-width:1;"/><line style="stroke:#181818;stroke-width:1;stroke-dasharray:2,2;" x1="489.8828" x2="753.3169" y1="382.5938" y2="382.5938"/><text fill="#000000" font-family="sans-serif" font-size="13" lengthAdjust="spacing" textLength="221.584" x="501.8828" y="377.5278">&#171;objUsuarioEncontrado : Usuario&#187;</text></g><path d="M20,411.5938 L84.4429,411.5938 L84.4429,418.7266 L74.4429,428.7266 L20,428.7266 L20,411.5938" fill="#EEEEEE" style="stroke:#000000;stroke-width:1.5;"/><rect fill="none" height="316.9375" style="stroke:#000000;stroke-width:1.5;" width="1039.832" x="20" y="411.5938"/><text fill="#000000" font-family="sans-serif" font-size="13" font-weight="bold" lengthAdjust="spacing" textLength="19.4429" x="35" y="424.6606">alt</text><text fill="#000000" font-family="sans-serif" font-size="11" font-weight="bold" lengthAdjust="spacing" textLength="196.8291" x="99.4429" y="423.8042">[objUsuarioEncontrado == null]</text><g class="message" data-participant-1="NegCtrl" data-participant-2="user"><polygon fill="#181818" points="98.9155,445.8594,88.9155,449.8594,98.9155,453.8594,94.9155,449.8594" style="stroke:#181818;stroke-width:1;"/><line style="stroke:#181818;stroke-width:1;stroke-dasharray:2,2;" x1="92.9155" x2="473.8828" y1="449.8594" y2="449.8594"/><text fill="#000000" font-family="sans-serif" font-size="13" lengthAdjust="spacing" textLength="49.6323" x="104.9155" y="444.7935">&#171;NULL&#187;</text></g><line style="stroke:#000000;stroke-width:1;stroke-dasharray:2,2;" x1="20" x2="1059.832" y1="458.8594" y2="458.8594"/><text fill="#000000" font-family="sans-serif" font-size="11" font-weight="bold" lengthAdjust="spacing" textLength="192.6289" x="25" y="469.0698">[objUsuarioEncontrado != null]</text><g class="message" data-participant-1="NegCtrl" data-participant-2="objUser"><polygon fill="#181818" points="947.3735,489.7969,957.3735,493.7969,947.3735,497.7969,951.3735,493.7969" style="stroke:#181818;stroke-width:1;"/><line style="stroke:#181818;stroke-width:1;" x1="484.8828" x2="953.3735" y1="493.7969" y2="493.7969"/><text fill="#000000" font-family="sans-serif" font-size="13" lengthAdjust="spacing" textLength="106.1455" x="491.8828" y="488.731">getContrase&#241;a()</text></g><g class="message" data-participant-1="objUser" data-participant-2="NegCtrl"><polygon fill="#181818" points="495.8828,518.9297,485.8828,522.9297,495.8828,526.9297,491.8828,522.9297" style="stroke:#181818;stroke-width:1;"/><line style="stroke:#181818;stroke-width:1;stroke-dasharray:2,2;" x1="489.8828" x2="963.3735" y1="522.9297" y2="522.9297"/><text fill="#000000" font-family="sans-serif" font-size="13" lengthAdjust="spacing" textLength="189.8013" x="501.8828" y="517.8638">&#171;contraAlmacenada : String&#187;</text></g><path d="M30,537.9297 L94.4429,537.9297 L94.4429,545.0625 L84.4429,555.0625 L30,555.0625 L30,537.9297" fill="#EEEEEE" style="stroke:#000000;stroke-width:1.5;"/><rect fill="none" height="183.6016" style="stroke:#000000;stroke-width:1.5;" width="1019.832" x="30" y="537.9297"/><text fill="#000000" font-family="sans-serif" font-size="13" font-weight="bold" lengthAdjust="spacing" textLength="19.4429" x="45" y="550.9966">alt</text><text fill="#000000" font-family="sans-serif" font-size="11" font-weight="bold" lengthAdjust="spacing" textLength="221.1387" x="109.4429" y="550.1401">[contrase&#241;a == contraAlmacenada]</text><g class="message" data-participant-1="NegCtrl" data-participant-2="objUser"><polygon fill="#181818" points="947.3735,572.1953,957.3735,576.1953,947.3735,580.1953,951.3735,576.1953" style="stroke:#181818;stroke-width:1;"/><line style="stroke:#181818;stroke-width:1;" x1="484.8828" x2="953.3735" y1="576.1953" y2="576.1953"/><text fill="#000000" font-family="sans-serif" font-size="13" lengthAdjust="spacing" textLength="108.6528" x="491.8828" y="571.1294">getTipoUsuario()</text></g><g class="message" data-participant-1="objUser" data-participant-2="NegCtrl"><polygon fill="#181818" points="495.8828,601.3281,485.8828,605.3281,495.8828,609.3281,491.8828,605.3281" style="stroke:#181818;stroke-width:1;"/><line style="stroke:#181818;stroke-width:1;stroke-dasharray:2,2;" x1="489.8828" x2="963.3735" y1="605.3281" y2="605.3281"/><text fill="#000000" font-family="sans-serif" font-size="13" lengthAdjust="spacing" textLength="122.624" x="501.8828" y="600.2622">&#171;rol : TipoUsuario&#187;</text></g><g class="message" data-participant-1="NegCtrl" data-participant-2="user"><polygon fill="#181818" points="98.9155,630.4609,88.9155,634.4609,98.9155,638.4609,94.9155,634.4609" style="stroke:#181818;stroke-width:1;"/><line style="stroke:#181818;stroke-width:1;stroke-dasharray:2,2;" x1="92.9155" x2="473.8828" y1="634.4609" y2="634.4609"/><text fill="#000000" font-family="sans-serif" font-size="13" lengthAdjust="spacing" textLength="49.6323" x="104.9155" y="629.395">&#171;NULL&#187;</text></g><path d="M489,647.4609 L489,672.4609 L661,672.4609 L661,657.4609 L651,647.4609 L489,647.4609" fill="#FEFFDD" style="stroke:#181818;stroke-width:0.5;"/><path d="M651,647.4609 L651,657.4609 L661,657.4609 L651,647.4609" fill="#FEFFDD" style="stroke:#181818;stroke-width:0.5;"/><text fill="#000000" font-family="sans-serif" font-size="13" lengthAdjust="spacing" textLength="151.4741" x="495" y="664.5278">Inicio de sesi&#243;n exitoso</text><line style="stroke:#000000;stroke-width:1;stroke-dasharray:2,2;" x1="30" x2="1049.832" y1="678.5938" y2="678.5938"/><text fill="#000000" font-family="sans-serif" font-size="11" font-weight="bold" lengthAdjust="spacing" textLength="146.3516" x="35" y="688.8042">[contrase&#241;a incorrecta]</text><g class="message" data-participant-1="NegCtrl" data-participant-2="user"><polygon fill="#181818" points="98.9155,709.5313,88.9155,713.5313,98.9155,717.5313,94.9155,713.5313" style="stroke:#181818;stroke-width:1;"/><line style="stroke:#181818;stroke-width:1;stroke-dasharray:2,2;" x1="92.9155" x2="473.8828" y1="713.5313" y2="713.5313"/><text fill="#000000" font-family="sans-serif" font-size="13" lengthAdjust="spacing" textLength="49.6323" x="104.9155" y="708.4653">&#171;NULL&#187;</text></g><!--SRC=[hLLBRjim4Dtp55Dl6WFr1GJ5GE0OXG731f9wLNGnbcY7XKog91K4lLCMHO_WYtL8VKpAYfqMrOeYPzwyD_CeMM4B3WifCg4Wv_38ZJZ-bemz2NhRAMMtweKnpApICDgO2hLGoSPmFG8qKD62bQWjvPSeBOmMqdAzmvy9hFX-PdNXuvfr7BeKngODv3G1jVtkTh3PCJwnS3jnMal29JHh7-fVYGvpf60oROj20iBfG-t4ANaZrM6hUGVpQBMG-q-GAMar6dxyXUtcs0aNpsXvfu01FHzXjdvuc7zUtAyJc9iIgNi6fD87BBW1_54TNtqW5XQYSa37pvWTNnMimuhTFleyzxJq9oJ5IqeWJLURvN8wPLsGN_32SCZH4eTC7Sg2qufrfn7MjEueOMqhaw5kQ0ttPDpbTssevn5LTq-XL0bVQKm86UO85N1vDj1lNRXFyJo8K3CtehJdTXNok1b76Hs9TjBXOOio2IIcQTFykynMw8nGwmBgO9YRyulGCOcpYTxUHbMYw41eP4XYTdBlNDP6o1MTjAWzYcSykCpPq3hGyiQid8B1uav8LSG2tcN22DwRSH3_mm3-SB6UAMQdU_AlbeXQNpEwAmwOSUdi-h-C4LvewcQ_pjl9bzH_4QKQlX1NEt2n2rgvHO0-vBah7RWiPC0p_LYf25cB_HDvSjTzPFjHf_-JgVzFm5y4VUJKMIHT1OzvvV8uZuR34kHIhNbcyQ_KlEj6idQ31SriKFy0]--></g></svg>