<svg xmlns="http://www.w3.org/2000/svg" xmlns:xlink="http://www.w3.org/1999/xlink" contentStyleType="text/css" data-diagram-type="SEQUENCE" height="805px" preserveAspectRatio="none" style="width:1348px;height:805px;background:#FFFFFF;" version="1.1" viewBox="0 0 1348 805" width="1348px" zoomAndPan="magnify"><title>Inicio de Sesi&#243;n</title><defs/><g><text fill="#000000" font-family="sans-serif" font-size="14" font-weight="bold" lengthAdjust="spacing" textLength="124.25" x="693.9387" y="27.9951">Inicio de Sesi&#243;n</text><g><title>user.Usuario</title><rect fill="#000000" fill-opacity="0.00000" height="680.3906" width="8" x="127.7285" y="118.5938"/><line style="stroke:#181818;stroke-width:0.5;stroke-dasharray:5,5;" x1="131.2285" x2="131.2285" y1="118.5938" y2="798.9844"/></g><g><title>cu.ControladorUsuario</title><rect fill="#000000" fill-opacity="0.00000" height="680.3906" width="8" x="532.9604" y="118.5938"/><line style="stroke:#181818;stroke-width:0.5;stroke-dasharray:5,5;" x1="536.4604" x2="536.4604" y1="118.5938" y2="798.9844"/></g><g><title/><rect fill="#FFFFFF" height="632.2578" style="stroke:#181818;stroke-width:1;" width="10" x="531.4604" y="147.7266"/></g><g><title>catUsu...Singleton..</title><rect fill="#000000" fill-opacity="0.00000" height="680.3906" width="8" x="971.9429" y="118.5938"/><line style="stroke:#181818;stroke-width:0.5;stroke-dasharray:5,5;" x1="975.4429" x2="975.4429" y1="118.5938" y2="798.9844"/></g><g><title/><rect fill="#FFFFFF" height="376.4609" style="stroke:#181818;stroke-width:1;" width="10" x="970.4429" y="255.125"/></g><g><title>listaUsuarios.i..Usuario</title><rect fill="#000000" fill-opacity="0.00000" height="680.3906" width="8" x="1164.4438" y="118.5938"/><line style="stroke:#181818;stroke-width:0.5;stroke-dasharray:5,5;" x1="1167.9438" x2="1167.9438" y1="118.5938" y2="798.9844"/></g><g><title/><rect fill="#FFFFFF" height="29.1328" style="stroke:#181818;stroke-width:1;" width="10" x="1162.9438" y="315.3906"/></g><g><title/><rect fill="#FFFFFF" height="29.1328" style="stroke:#181818;stroke-width:1;" width="10" x="1162.9438" y="404.7891"/></g><text fill="#000000" font-family="sans-serif" font-size="14" lengthAdjust="spacing" textLength="88.457" x="84" y="115.292">user:Usuario</text><ellipse cx="131.2285" cy="50.7969" fill="#E2E2F0" rx="8" ry="8" style="stroke:#181818;stroke-width:0.5;"/><path d="M131.2285,58.7969 L131.2285,85.7969 M118.2285,66.7969 L144.2285,66.7969 M131.2285,85.7969 L118.2285,100.7969 M131.2285,85.7969 L144.2285,100.7969" fill="none" style="stroke:#181818;stroke-width:0.5;"/><rect fill="#E2E2F0" height="30.2969" rx="2.5" ry="2.5" style="stroke:#181818;stroke-width:0.5;" width="171.1924" x="450.8643" y="87.2969"/><text fill="#000000" font-family="sans-serif" font-size="14" lengthAdjust="spacing" textLength="157.1924" x="457.8643" y="107.292">cu:ControladorUsuario</text><rect fill="#E2E2F0" height="46.5938" rx="2.5" ry="2.5" style="stroke:#181818;stroke-width:0.5;" width="149.9941" x="900.4458" y="71"/><text fill="#000000" font-family="sans-serif" font-size="14" lengthAdjust="spacing" textLength="135.9941" x="907.4458" y="90.9951">catUsu:&#171;Singleton&#187;</text><text fill="#000000" font-family="sans-serif" font-size="14" lengthAdjust="spacing" textLength="122.8281" x="914.0288" y="107.292">CatalogoUsuarios</text><rect fill="#E2E2F0" height="30.2969" rx="2.5" ry="2.5" style="stroke:#181818;stroke-width:0.5;" width="176.374" x="1079.7568" y="87.2969"/><text fill="#000000" font-family="sans-serif" font-size="14" lengthAdjust="spacing" textLength="162.374" x="1086.7568" y="107.292">listaUsuarios[i]:Usuario</text><polygon fill="#181818" points="519.4604,143.7266,529.4604,147.7266,519.4604,151.7266,523.4604,147.7266" style="stroke:#181818;stroke-width:1;"/><line style="stroke:#181818;stroke-width:1;" x1="131.2285" x2="525.4604" y1="147.7266" y2="147.7266"/><text fill="#000000" font-family="sans-serif" font-size="13" lengthAdjust="spacing" textLength="376.2319" x="138.2285" y="142.6606">iniciarSesion(nombreUsuario : String, contrase&#241;a : String)</text><path d="M8,159.7266 L72.4429,159.7266 L72.4429,166.8594 L62.4429,176.8594 L8,176.8594 L8,159.7266" fill="#EEEEEE" style="stroke:#000000;stroke-width:1.5;"/><rect fill="none" height="615.2578" style="stroke:#000000;stroke-width:1.5;" width="1333.1274" x="8" y="159.7266"/><text fill="#000000" font-family="sans-serif" font-size="13" font-weight="bold" lengthAdjust="spacing" textLength="19.4429" x="23" y="172.7935">alt</text><text fill="#000000" font-family="sans-serif" font-size="11" font-weight="bold" lengthAdjust="spacing" textLength="299.519" x="87.4429" y="171.937">[nombreUsuario es vac&#237;o O contrase&#241;a es vac&#237;a]</text><line style="stroke:#000000;stroke-width:1;stroke-dasharray:2,2;" x1="8" x2="1341.1274" y1="226.9922" y2="226.9922"/><polygon fill="#181818" points="142.2285,203.9922,132.2285,207.9922,142.2285,211.9922,138.2285,207.9922" style="stroke:#181818;stroke-width:1;"/><line style="stroke:#181818;stroke-width:1;stroke-dasharray:2,2;" x1="136.2285" x2="530.4604" y1="207.9922" y2="207.9922"/><text fill="#000000" font-family="sans-serif" font-size="13" lengthAdjust="spacing" textLength="274.6187" x="148.2285" y="202.9263">"Error: Debe completar todos los campos"</text><polygon fill="#181818" points="958.4429,251.125,968.4429,255.125,958.4429,259.125,962.4429,255.125" style="stroke:#181818;stroke-width:1;"/><line style="stroke:#181818;stroke-width:1;" x1="541.4604" x2="964.4429" y1="255.125" y2="255.125"/><text fill="#000000" font-family="sans-serif" font-size="13" lengthAdjust="spacing" textLength="409.9824" x="548.4604" y="250.0591">autenticarUsuario(nombreUsuario : String, contrase&#241;a : String)</text><path d="M27,267.125 L103.624,267.125 L103.624,274.2578 L93.624,284.2578 L27,284.2578 L27,267.125" fill="#EEEEEE" style="stroke:#000000;stroke-width:1.5;"/><rect fill="none" height="493.8594" style="stroke:#000000;stroke-width:1.5;" width="1289.1274" x="27" y="267.125"/><text fill="#000000" font-family="sans-serif" font-size="13" font-weight="bold" lengthAdjust="spacing" textLength="31.624" x="42" y="280.1919">loop</text><text fill="#000000" font-family="sans-serif" font-size="11" font-weight="bold" lengthAdjust="spacing" textLength="186.6831" x="118.624" y="279.3354">[para cada u en listaUsuarios]</text><polygon fill="#181818" points="1150.9438,311.3906,1160.9438,315.3906,1150.9438,319.3906,1154.9438,315.3906" style="stroke:#181818;stroke-width:1;"/><line style="stroke:#181818;stroke-width:1;" x1="980.4429" x2="1156.9438" y1="315.3906" y2="315.3906"/><text fill="#000000" font-family="sans-serif" font-size="13" lengthAdjust="spacing" textLength="132.8311" x="987.4429" y="310.3247">getNombreUsuario()</text><polygon fill="#181818" points="991.4429,340.5234,981.4429,344.5234,991.4429,348.5234,987.4429,344.5234" style="stroke:#181818;stroke-width:1;"/><line style="stroke:#181818;stroke-width:1;stroke-dasharray:2,2;" x1="985.4429" x2="1161.9438" y1="344.5234" y2="344.5234"/><text fill="#000000" font-family="sans-serif" font-size="13" lengthAdjust="spacing" textLength="145.6089" x="997.4429" y="339.4575">&#171;nomUsuario : String&#187;</text><path d="M46,356.5234 L110.4429,356.5234 L110.4429,363.6563 L100.4429,373.6563 L46,373.6563 L46,356.5234" fill="#EEEEEE" style="stroke:#000000;stroke-width:1.5;"/><rect fill="none" height="239.9297" style="stroke:#000000;stroke-width:1.5;" width="1245.1274" x="46" y="356.5234"/><text fill="#000000" font-family="sans-serif" font-size="13" font-weight="bold" lengthAdjust="spacing" textLength="19.4429" x="61" y="369.5903">alt</text><text fill="#000000" font-family="sans-serif" font-size="11" font-weight="bold" lengthAdjust="spacing" textLength="205.5786" x="125.4429" y="368.7339">[nomUsuario == nombreUsuario]</text><polygon fill="#181818" points="1150.9438,400.7891,1160.9438,404.7891,1150.9438,408.7891,1154.9438,404.7891" style="stroke:#181818;stroke-width:1;"/><line style="stroke:#181818;stroke-width:1;" x1="980.4429" x2="1156.9438" y1="404.7891" y2="404.7891"/><text fill="#000000" font-family="sans-serif" font-size="13" lengthAdjust="spacing" textLength="106.1455" x="987.4429" y="399.7231">getContrase&#241;a()</text><polygon fill="#181818" points="991.4429,429.9219,981.4429,433.9219,991.4429,437.9219,987.4429,433.9219" style="stroke:#181818;stroke-width:1;"/><line style="stroke:#181818;stroke-width:1;stroke-dasharray:2,2;" x1="985.4429" x2="1161.9438" y1="433.9219" y2="433.9219"/><text fill="#000000" font-family="sans-serif" font-size="13" lengthAdjust="spacing" textLength="158.501" x="997.4429" y="428.856">&#171;contraUsuario : String&#187;</text><path d="M65,445.9219 L129.4429,445.9219 L129.4429,453.0547 L119.4429,463.0547 L65,463.0547 L65,445.9219" fill="#EEEEEE" style="stroke:#000000;stroke-width:1.5;"/><rect fill="none" height="136.5313" style="stroke:#000000;stroke-width:1.5;" width="1201.1274" x="65" y="445.9219"/><text fill="#000000" font-family="sans-serif" font-size="13" font-weight="bold" lengthAdjust="spacing" textLength="19.4429" x="80" y="458.9888">alt</text><text fill="#000000" font-family="sans-serif" font-size="11" font-weight="bold" lengthAdjust="spacing" textLength="192.9243" x="144.4429" y="458.1323">[contraUsuario == contrase&#241;a]</text><path d="M985.4429,478.0547 L985.4429,503.0547 L1244.4429,503.0547 L1244.4429,488.0547 L1234.4429,478.0547 L985.4429,478.0547" fill="#FEFFDD" style="stroke:#181818;stroke-width:0.5;"/><path d="M1234.4429,478.0547 L1234.4429,488.0547 L1244.4429,488.0547 L1234.4429,478.0547" fill="#FEFFDD" style="stroke:#181818;stroke-width:0.5;"/><text fill="#000000" font-family="sans-serif" font-size="13" lengthAdjust="spacing" textLength="238.6846" x="991.4429" y="495.1216">usuarioEncontrado = listaUsuarios[i]</text><polygon fill="#181818" points="552.4604,525.3203,542.4604,529.3203,552.4604,533.3203,548.4604,529.3203" style="stroke:#181818;stroke-width:1;"/><line style="stroke:#181818;stroke-width:1;stroke-dasharray:2,2;" x1="546.4604" x2="969.4429" y1="529.3203" y2="529.3203"/><text fill="#000000" font-family="sans-serif" font-size="13" lengthAdjust="spacing" textLength="291.4907" x="558.4604" y="524.2544">&#171;usuarioEncontrado : Object Type : Usuario&#187;</text><path d="M84,541.3203 L170.9517,541.3203 L170.9517,548.4531 L160.9517,558.4531 L84,558.4531 L84,541.3203" fill="#EEEEEE" style="stroke:#000000;stroke-width:1.5;"/><rect fill="none" height="27.1328" style="stroke:#000000;stroke-width:1.5;" width="102.9517" x="84" y="541.3203"/><text fill="#000000" font-family="sans-serif" font-size="13" font-weight="bold" lengthAdjust="spacing" textLength="41.9517" x="99" y="554.3872">break</text><polygon fill="#181818" points="552.4604,627.5859,542.4604,631.5859,552.4604,635.5859,548.4604,631.5859" style="stroke:#181818;stroke-width:1;"/><line style="stroke:#181818;stroke-width:1;stroke-dasharray:2,2;" x1="546.4604" x2="969.4429" y1="631.5859" y2="631.5859"/><text fill="#000000" font-family="sans-serif" font-size="13" lengthAdjust="spacing" textLength="115.6543" x="558.4604" y="626.52">&#171;response : bool&#187;</text><path d="M115.2285,643.5859 L179.6714,643.5859 L179.6714,650.7188 L169.6714,660.7188 L115.2285,660.7188 L115.2285,643.5859" fill="#EEEEEE" style="stroke:#000000;stroke-width:1.5;"/><rect fill="none" height="103.3984" style="stroke:#000000;stroke-width:1.5;" width="437.2319" x="115.2285" y="643.5859"/><text fill="#000000" font-family="sans-serif" font-size="13" font-weight="bold" lengthAdjust="spacing" textLength="19.4429" x="130.2285" y="656.6528">alt</text><text fill="#000000" font-family="sans-serif" font-size="11" font-weight="bold" lengthAdjust="spacing" textLength="122.8369" x="194.6714" y="655.7964">[response == false]</text><line style="stroke:#000000;stroke-width:1;stroke-dasharray:2,2;" x1="115.2285" x2="552.4604" y1="710.8516" y2="710.8516"/><polygon fill="#181818" points="142.2285,687.8516,132.2285,691.8516,142.2285,695.8516,138.2285,691.8516" style="stroke:#181818;stroke-width:1;"/><line style="stroke:#181818;stroke-width:1;stroke-dasharray:2,2;" x1="136.2285" x2="530.4604" y1="691.8516" y2="691.8516"/><text fill="#000000" font-family="sans-serif" font-size="13" lengthAdjust="spacing" textLength="229.3535" x="148.2285" y="686.7856">&#171;"Error: Credenciales incorrectas"&#187;</text><polygon fill="#181818" points="142.2285,734.9844,132.2285,738.9844,142.2285,742.9844,138.2285,738.9844" style="stroke:#181818;stroke-width:1;"/><line style="stroke:#181818;stroke-width:1;stroke-dasharray:2,2;" x1="136.2285" x2="530.4604" y1="738.9844" y2="738.9844"/><text fill="#000000" font-family="sans-serif" font-size="13" lengthAdjust="spacing" textLength="144.4663" x="148.2285" y="733.9185">&#171;"Acceso concedido"&#187;</text><!--SRC=[bPNDRXCn4CVlVeeXbxPI6waWBgjDf2ham8KY1RW0XyckangydiNsLYrlm6DmvC01SUEwByPuTxtPJPeYB4LfxVdups_6pfFIuhP0y9A-WhUL53Sgbx0Xyckw4rvvBU6bKPaYuFsLTAh-ROJ0p9E5IUMaJTww2gsY2Q23i25Aj9uzIZGU9bcLBCXuInfpiaFRhDgpHC_7IPgkbDbgwSdCvn_C0ZrgsbBdwLhNndJihfNp6AtUguyZNMWjtWSN4HJ2nPopGm8gL8Osb4Ncr52njh9puzELjwpa7BAW7vsiVs6_UnOGg5lqCjGXK7iOkqi7jvZLFmckHm7YFWhWnIekM4mZAe79qbgo2RoGQmvBHSaKq8Add1ne2dKN9ICGKZlP-9_0KhVXMxxS92st21fXNVznNogP8w0EmEhl0IEdGfEpF0r5_ID4PfSDSmXx1juzdrusWNjrymusoyFAIyF0CRRnFuc5a3jgRGkRJKrK0ZSJUPVrLa79g9sDLLllvHHUormLJ8DhQ0M42cdzYKUcyKHWIDnOdbHGlMjN1XSKXu6bRQL_DQpXzAotxvNsizEVHF-B8PqqPJ7xAERptYkNnoCEwdiwXGLtdc644jlwTlLtSnRJp6RZgUljsbZFfh1I0qmPAPFn_Jw7iaF8h0Qz6haVuxNOsGzeFKxiCMfj_aV0_GlU2624D8xAd8wL6POXZclLziO3RU9amWEhQkCjJHkDxymCzj-T0qTfyYR3mS59w4vp1NUDiJp4rc0ttbq-k6SBwyFkGP3OflYafUcXo0Ik-NPa7jxSbvB_wzJkCGwBfmG_YptrOl_l-2qU5i03Mv9n8TEQI7Tf1YqS41QnORqJzsg3yNrhCIsmK8RWIdl9R3W8yMWZd2wip2M3GyslAXCaQxbATBkn7B-lQHfVs6EUaqwi70jOkaoQfXFy8rX_krEU4hZACkb2xqp6jocduqdtBViip35yn91DzHS0]--></g></svg>